<?xml version="1.0" encoding="UTF-8"?><svg id="a" xmlns="http://www.w3.org/2000/svg" viewBox="0 0 402.09 339.39"><defs><style>.b,.c,.d,.e,.f,.g,.h,.i{fill:none;stroke-miterlimit:10;}.b,.c,.e,.f,.g,.h,.i{stroke:#231f20;}.c,.d{stroke-width:.61px;}.d{stroke:#405daa;}.j{fill:#405daa;}.e{stroke-dasharray:0 0 1.42 1.42;}.e,.f,.g,.h,.i{stroke-width:.5px;}.f{stroke-dasharray:0 0 1.41 1.41;}.g{stroke-dasharray:0 0 1.43 1.43;}.k{fill:#231f20;}.i{stroke-dasharray:0 0 1.42 1.42;}</style></defs><rect class="d" x="71.03" y="106.51" width="49.32" height="45.73" rx="2.71" ry="2.71"/><rect class="d" x="281.74" y="106.81" width="49.32" height="45.73" rx="2.71" ry="2.71"/><rect class="c" x="176.23" y=".31" width="49.32" height="45.73" rx="2.71" ry="2.71"/><rect class="c" x="71.03" y="199.54" width="49.32" height="45.73" rx="2.71" ry="2.71"/><rect class="c" x="281.74" y="199.85" width="49.32" height="45.73" rx="2.71" ry="2.71"/><rect class="c" x=".31" y="199.85" width="49.32" height="45.73" rx="2.71" ry="2.71"/><rect class="d" x="71.03" y="293.04" width="49.32" height="45.73" rx="2.71" ry="2.71"/><rect class="d" x=".31" y="293.35" width="49.32" height="45.73" rx="2.71" ry="2.71"/><rect class="d" x="352.46" y="292.89" width="49.32" height="45.73" rx="2.71" ry="2.71"/><rect class="d" x="281.74" y="293.2" width="49.32" height="45.73" rx="2.71" ry="2.71"/><g><path class="k" d="m190.02,27.89l-2.5-8.73h2.02l1.44,6.06h.07l1.59-6.06h1.73l1.59,6.08h.08l1.44-6.08h2.02l-2.5,8.73h-1.8l-1.66-5.71h-.07l-1.66,5.71h-1.8Z"/><path class="k" d="m200.38,27.89h-1.98l3.01-8.73h2.38l3.01,8.73h-1.98l-2.19-6.73h-.07l-2.19,6.73Zm-.12-3.43h4.67v1.44h-4.67v-1.44Z"/><path class="k" d="m214.43,19.16v8.73h-1.59l-3.8-5.49h-.06v5.49h-1.84v-8.73h1.62l3.77,5.49h.08v-5.49h1.84Z"/></g><g><path class="j" d="m79.02,133.93v-8.73h3.44c.66,0,1.22.12,1.69.35s.82.56,1.07.99.37.93.37,1.51-.12,1.08-.38,1.49-.61.73-1.08.96-1.04.33-1.72.33h-2.31v-1.48h2.01c.35,0,.65-.05.88-.15s.41-.24.52-.43.17-.43.17-.72-.06-.53-.17-.73-.29-.35-.52-.45c-.23-.1-.53-.16-.88-.16h-1.24v7.22h-1.85Zm4.71-3.97l2.17,3.97h-2.04l-2.12-3.97h1.99Z"/><path class="j" d="m88.99,134.06c-.66,0-1.23-.14-1.71-.42-.48-.28-.85-.68-1.11-1.18-.26-.51-.39-1.1-.39-1.77s.13-1.27.39-1.77c.26-.51.63-.9,1.11-1.18.48-.28,1.05-.42,1.71-.42s1.23.14,1.72.42.85.68,1.11,1.18c.26.51.39,1.1.39,1.77s-.13,1.26-.39,1.77c-.26.51-.63.9-1.11,1.18-.48.28-1.05.42-1.72.42Zm0-1.41c.3,0,.55-.09.75-.26.2-.17.35-.41.46-.71.1-.3.16-.64.16-1.02s-.05-.72-.16-1.02c-.1-.3-.26-.53-.46-.71-.2-.17-.45-.26-.75-.26s-.56.09-.77.26-.36.41-.46.71-.16.64-.16,1.02.05.72.16,1.02c.1.3.26.53.46.71s.46.26.77.26Z"/><path class="j" d="m96.87,131.15v-3.76h1.82v6.55h-1.74v-1.19h-.07c-.15.38-.39.69-.73.92-.34.23-.76.35-1.25.35-.44,0-.82-.1-1.16-.3-.33-.2-.59-.48-.78-.85-.19-.37-.28-.81-.28-1.32v-4.17h1.82v3.84c0,.39.11.69.31.92.21.22.48.34.82.34.22,0,.42-.05.61-.15s.34-.25.46-.45c.12-.2.18-.44.17-.74Z"/><path class="j" d="m102.9,127.39v1.36h-3.94v-1.36h3.94Zm-3.05-1.57h1.82v6.1c0,.17.03.3.08.39.05.09.12.16.22.19.09.04.2.06.32.06.08,0,.17,0,.26-.02s.15-.03.2-.04l.29,1.35c-.09.03-.22.06-.38.1-.16.04-.36.06-.6.07-.44.02-.82-.04-1.15-.17-.33-.13-.58-.34-.76-.62s-.27-.64-.27-1.07v-6.34Z"/><path class="j" d="m106.27,134.06c-.67,0-1.25-.14-1.74-.41-.48-.27-.86-.66-1.12-1.17-.26-.5-.39-1.1-.39-1.79s.13-1.26.39-1.77c.26-.51.63-.9,1.11-1.19s1.04-.43,1.68-.43c.43,0,.83.07,1.21.21.37.14.7.34.98.62.28.28.5.62.65,1.04.16.42.23.9.23,1.46v.5h-5.53v-1.12h3.82c0-.26-.06-.49-.17-.69-.11-.2-.27-.36-.47-.48s-.43-.17-.7-.17-.52.06-.73.19c-.21.13-.38.3-.5.51-.12.21-.18.45-.18.71v1.07c0,.32.06.6.18.84.12.24.29.42.51.55s.48.19.79.19c.2,0,.39-.03.55-.09s.31-.14.43-.26c.12-.11.21-.25.27-.42l1.68.11c-.08.4-.26.75-.52,1.05s-.6.53-1.01.7c-.41.17-.89.25-1.43.25Z"/><path class="j" d="m109.74,133.93v-6.55h1.76v1.14h.07c.12-.41.32-.71.6-.92.28-.21.61-.31.97-.31.09,0,.19,0,.29.02s.2.03.28.05v1.61c-.09-.03-.2-.05-.35-.07-.15-.02-.29-.03-.41-.03-.27,0-.5.06-.71.17-.21.12-.37.27-.49.48s-.18.44-.18.71v3.7h-1.82Z"/></g><g><path class="j" d="m289.33,134.52v-8.73h3.44c.66,0,1.22.12,1.69.35.47.23.82.56,1.07.99.25.43.37.93.37,1.51s-.12,1.08-.38,1.49-.61.73-1.08.96c-.47.22-1.04.33-1.72.33h-2.3v-1.48h2.01c.35,0,.64-.05.88-.15.23-.1.41-.24.52-.43s.17-.43.17-.72-.06-.53-.17-.73-.29-.35-.52-.45c-.23-.1-.53-.16-.88-.16h-1.24v7.22h-1.85Zm4.71-3.97l2.17,3.97h-2.04l-2.12-3.97h1.99Z"/><path class="j" d="m299.3,134.65c-.66,0-1.23-.14-1.71-.42-.48-.28-.85-.68-1.11-1.18-.26-.51-.39-1.1-.39-1.77s.13-1.27.39-1.77c.26-.51.63-.9,1.11-1.18s1.05-.42,1.71-.42,1.23.14,1.72.42.85.68,1.11,1.18c.26.51.39,1.1.39,1.77s-.13,1.26-.39,1.77c-.26.51-.63.9-1.11,1.18-.48.28-1.05.42-1.72.42Zm0-1.41c.3,0,.55-.09.75-.26.2-.17.35-.41.46-.71.1-.3.16-.64.16-1.02s-.05-.72-.16-1.02c-.1-.3-.26-.53-.46-.71-.2-.17-.45-.26-.75-.26s-.56.09-.76.26-.36.41-.46.71-.16.64-.16,1.02.05.72.16,1.02c.1.3.26.53.46.71s.46.26.76.26Z"/><path class="j" d="m307.18,131.74v-3.76h1.82v6.55h-1.74v-1.19h-.07c-.15.38-.39.69-.73.92-.34.23-.76.35-1.25.35-.44,0-.82-.1-1.16-.3-.33-.2-.59-.48-.78-.85-.19-.37-.28-.81-.28-1.32v-4.17h1.82v3.84c0,.39.11.69.31.92.21.22.48.34.82.34.22,0,.42-.05.61-.15s.34-.25.46-.45c.12-.2.18-.44.17-.74Z"/><path class="j" d="m313.21,127.98v1.36h-3.94v-1.36h3.94Zm-3.05-1.57h1.82v6.1c0,.17.03.3.08.39.05.09.12.16.22.19.09.04.2.06.32.06.08,0,.17,0,.26-.02s.15-.03.2-.04l.29,1.35c-.09.03-.22.06-.38.1-.16.04-.36.06-.6.07-.44.02-.82-.04-1.15-.17-.33-.13-.58-.34-.76-.62s-.27-.64-.27-1.07v-6.34Z"/><path class="j" d="m316.58,134.65c-.67,0-1.25-.14-1.74-.41-.48-.27-.86-.66-1.12-1.17-.26-.5-.39-1.1-.39-1.79s.13-1.26.39-1.77c.26-.51.63-.9,1.11-1.19s1.04-.43,1.68-.43c.43,0,.83.07,1.21.21.37.14.7.34.98.62.28.28.5.62.65,1.04.16.42.23.9.23,1.46v.5h-5.53v-1.12h3.82c0-.26-.06-.49-.17-.69-.11-.2-.27-.36-.47-.48s-.43-.17-.7-.17-.52.06-.73.19c-.21.13-.38.3-.5.51-.12.21-.18.45-.18.71v1.07c0,.32.06.6.18.84.12.24.29.42.51.55s.48.19.79.19c.2,0,.39-.03.55-.09s.31-.14.43-.26c.12-.11.21-.25.27-.42l1.68.11c-.08.4-.26.75-.52,1.05s-.6.53-1.01.7c-.41.17-.89.25-1.43.25Z"/><path class="j" d="m320.05,134.52v-6.55h1.76v1.14h.07c.12-.41.32-.71.6-.92.28-.21.61-.31.97-.31.09,0,.19,0,.29.02s.2.03.28.05v1.61c-.09-.03-.2-.05-.35-.07-.15-.02-.29-.03-.41-.03-.27,0-.5.06-.71.17-.21.12-.37.27-.49.48s-.18.44-.18.71v3.7h-1.82Z"/></g><g><path class="k" d="m80.93,219.54v8.73h-1.59l-3.8-5.49h-.06v5.49h-1.85v-8.73h1.62l3.77,5.49h.08v-5.49h1.84Z"/><path class="k" d="m84.68,228.39c-.67,0-1.25-.14-1.74-.41s-.86-.66-1.12-1.17c-.26-.5-.39-1.1-.39-1.79s.13-1.26.39-1.77c.26-.51.63-.9,1.11-1.19.48-.28,1.03-.43,1.68-.43.43,0,.83.07,1.21.21.37.14.7.34.98.62s.5.62.65,1.04c.16.42.23.9.23,1.46v.5h-5.53v-1.12h3.82c0-.26-.06-.49-.17-.7-.11-.2-.27-.36-.47-.47-.2-.12-.43-.17-.7-.17s-.52.06-.73.19c-.21.13-.38.3-.5.51-.12.21-.18.45-.18.71v1.07c0,.32.06.6.18.84.12.24.29.42.51.54s.48.19.79.19c.2,0,.39-.03.55-.09.17-.06.31-.14.43-.26.12-.11.21-.25.27-.42l1.68.11c-.09.4-.26.75-.52,1.05s-.6.53-1.01.7c-.41.17-.89.25-1.43.25Z"/><path class="k" d="m91.63,221.72v1.36h-3.94v-1.36h3.94Zm-3.05-1.57h1.82v6.1c0,.17.03.3.08.39.05.09.12.16.22.19.09.04.2.06.32.06.08,0,.17,0,.26-.02s.15-.03.2-.04l.29,1.35c-.09.03-.22.06-.38.1-.16.04-.36.06-.6.07-.44.02-.82-.04-1.15-.17s-.58-.34-.76-.62c-.18-.28-.27-.64-.27-1.07v-6.34Z"/><path class="k" d="m93.39,228.27l-1.78-6.54h1.84l1.01,4.4h.06l1.06-4.4h1.8l1.07,4.37h.06l1-4.37h1.83l-1.78,6.54h-1.92l-1.12-4.12h-.08l-1.12,4.12h-1.92Z"/><path class="k" d="m104.37,228.39c-.66,0-1.23-.14-1.71-.42s-.85-.68-1.11-1.18c-.26-.51-.39-1.1-.39-1.77s.13-1.27.39-1.77c.26-.51.63-.9,1.11-1.18.48-.28,1.05-.42,1.71-.42s1.23.14,1.72.42c.48.28.85.68,1.11,1.18.26.51.39,1.1.39,1.77s-.13,1.26-.39,1.77c-.26.51-.63.9-1.11,1.18-.48.28-1.05.42-1.72.42Zm0-1.41c.3,0,.55-.09.75-.26.2-.17.35-.41.46-.71.1-.3.16-.64.16-1.02s-.05-.72-.16-1.02c-.1-.3-.26-.53-.46-.71-.2-.17-.45-.26-.75-.26s-.56.09-.76.26c-.21.17-.36.41-.46.71-.1.3-.16.64-.16,1.02s.05.72.16,1.02.26.53.46.71.46.26.76.26Z"/><path class="k" d="m108.06,228.27v-6.54h1.76v1.14h.07c.12-.41.32-.71.6-.92.28-.21.61-.31.97-.31.09,0,.19,0,.29.02.11.01.2.03.28.05v1.61c-.09-.03-.2-.05-.35-.07-.15-.02-.29-.03-.41-.03-.27,0-.5.06-.71.17-.21.12-.37.27-.49.48-.12.2-.18.44-.18.71v3.7h-1.82Z"/><path class="k" d="m112.24,228.27v-8.73h1.82v8.73h-1.82Zm1.64-1.88v-2.18h.27l2.1-2.48h2.08l-2.82,3.29h-.43l-1.2,1.37Zm2.45,1.88l-1.93-2.85,1.21-1.28,2.84,4.13h-2.13Z"/></g><g><path class="k" d="m10.21,220.24v8.73h-1.59l-3.8-5.49h-.06v5.49h-1.85v-8.73h1.62l3.77,5.49h.08v-5.49h1.84Z"/><path class="k" d="m13.96,229.1c-.67,0-1.25-.14-1.74-.41-.48-.27-.86-.66-1.12-1.17-.26-.5-.39-1.1-.39-1.79s.13-1.26.39-1.77c.26-.51.63-.91,1.11-1.19.48-.28,1.03-.43,1.68-.43.43,0,.83.07,1.21.21.37.14.7.34.98.62.28.28.5.62.65,1.04s.23.9.23,1.46v.5h-5.53v-1.12h3.82c0-.26-.06-.49-.17-.69-.11-.2-.27-.36-.47-.48-.2-.12-.43-.17-.7-.17s-.52.06-.73.19c-.21.13-.38.29-.5.51s-.18.45-.18.71v1.07c0,.32.06.6.18.84.12.24.29.42.51.55s.48.19.79.19c.2,0,.39-.03.55-.08.17-.06.31-.14.43-.26.12-.11.21-.25.27-.42l1.68.11c-.09.4-.26.75-.52,1.05s-.6.53-1.01.7c-.41.17-.89.25-1.43.25Z"/><path class="k" d="m20.91,222.42v1.36h-3.94v-1.36h3.94Zm-3.05-1.57h1.82v6.1c0,.17.03.3.08.39.05.09.12.16.22.19.09.04.2.06.32.06.08,0,.17,0,.26-.02s.15-.03.2-.04l.29,1.35c-.09.03-.22.06-.38.1-.16.04-.36.06-.6.07-.44.02-.82-.04-1.15-.17-.33-.13-.58-.34-.76-.62-.18-.28-.27-.64-.27-1.07v-6.34Z"/><path class="k" d="m22.67,228.97l-1.78-6.55h1.84l1.01,4.4h.06l1.06-4.4h1.8l1.07,4.37h.06l1-4.37h1.83l-1.78,6.55h-1.92l-1.12-4.12h-.08l-1.12,4.12h-1.92Z"/><path class="k" d="m33.65,229.1c-.66,0-1.23-.14-1.71-.42-.48-.28-.85-.68-1.11-1.18-.26-.51-.39-1.1-.39-1.77s.13-1.27.39-1.78c.26-.51.63-.9,1.11-1.18.48-.28,1.05-.42,1.71-.42s1.23.14,1.72.42c.48.28.85.68,1.11,1.18.26.51.39,1.1.39,1.78s-.13,1.26-.39,1.77c-.26.51-.63.9-1.11,1.18-.48.28-1.05.42-1.72.42Zm0-1.41c.3,0,.55-.09.75-.26.2-.17.35-.41.46-.71.1-.3.16-.64.16-1.02s-.05-.72-.16-1.02c-.1-.3-.26-.53-.46-.71-.2-.17-.45-.26-.75-.26s-.56.09-.76.26c-.21.17-.36.41-.46.71-.1.3-.16.64-.16,1.02s.05.72.16,1.02c.1.3.26.53.46.71s.46.26.76.26Z"/><path class="k" d="m37.34,228.97v-6.55h1.76v1.14h.07c.12-.41.32-.71.6-.92s.61-.31.97-.31c.09,0,.19,0,.29.02.11.01.2.03.28.05v1.61c-.09-.03-.2-.05-.35-.07-.15-.02-.29-.03-.41-.03-.27,0-.5.06-.71.17-.21.12-.37.28-.49.48-.12.21-.18.44-.18.71v3.7h-1.82Z"/><path class="k" d="m41.52,228.97v-8.73h1.82v8.73h-1.82Zm1.64-1.88v-2.18h.27l2.1-2.48h2.08l-2.82,3.29h-.43l-1.2,1.37Zm2.45,1.88l-1.93-2.85,1.21-1.28,2.84,4.13h-2.13Z"/></g><g><path class="k" d="m291.65,219.75v8.73h-1.59l-3.8-5.49h-.06v5.49h-1.84v-8.73h1.62l3.77,5.49h.08v-5.49h1.84Z"/><path class="k" d="m295.4,228.61c-.67,0-1.25-.14-1.74-.41s-.86-.66-1.12-1.17c-.26-.5-.39-1.1-.39-1.79s.13-1.26.39-1.77c.26-.51.63-.9,1.11-1.19s1.03-.43,1.68-.43c.43,0,.83.07,1.21.21s.7.34.98.62c.28.28.5.62.65,1.04.16.42.23.9.23,1.46v.5h-5.53v-1.12h3.82c0-.26-.06-.49-.17-.7-.11-.2-.27-.36-.47-.47s-.43-.17-.7-.17-.52.06-.73.19c-.21.13-.38.3-.5.51-.12.21-.18.45-.18.71v1.07c0,.32.06.6.18.84.12.24.29.42.51.54s.48.19.79.19c.2,0,.39-.03.55-.09s.31-.14.43-.26c.12-.11.21-.25.27-.42l1.68.11c-.08.4-.26.75-.52,1.05s-.6.53-1.01.7-.89.25-1.43.25Z"/><path class="k" d="m302.35,221.93v1.36h-3.94v-1.36h3.94Zm-3.05-1.57h1.82v6.1c0,.17.03.3.08.39.05.09.12.16.22.19.09.04.2.06.32.06.08,0,.17,0,.26-.02s.15-.03.2-.04l.29,1.35c-.09.03-.22.06-.38.1-.16.04-.36.06-.6.07-.44.02-.82-.04-1.15-.17s-.58-.34-.76-.62-.27-.64-.27-1.07v-6.34Z"/><path class="k" d="m304.1,228.48l-1.78-6.54h1.84l1.01,4.4h.06l1.06-4.4h1.8l1.07,4.37h.06l1-4.37h1.83l-1.78,6.54h-1.92l-1.12-4.12h-.08l-1.12,4.12h-1.92Z"/><path class="k" d="m315.09,228.61c-.66,0-1.23-.14-1.71-.42s-.85-.68-1.11-1.18c-.26-.51-.39-1.1-.39-1.77s.13-1.27.39-1.77c.26-.51.63-.9,1.11-1.18.48-.28,1.05-.42,1.71-.42s1.23.14,1.72.42c.48.28.85.68,1.11,1.18.26.51.39,1.1.39,1.77s-.13,1.26-.39,1.77c-.26.51-.63.9-1.11,1.18-.48.28-1.05.42-1.72.42Zm0-1.41c.3,0,.55-.09.75-.26.2-.17.35-.41.46-.71.1-.3.16-.64.16-1.02s-.05-.72-.16-1.02c-.1-.3-.26-.53-.46-.71-.2-.17-.45-.26-.75-.26s-.56.09-.76.26c-.21.17-.36.41-.46.71-.1.3-.16.64-.16,1.02s.05.72.16,1.02.26.53.46.71.46.26.76.26Z"/><path class="k" d="m318.78,228.48v-6.54h1.76v1.14h.07c.12-.41.32-.71.6-.92.28-.21.61-.31.97-.31.09,0,.19,0,.29.02.11.01.2.03.28.05v1.61c-.09-.03-.2-.05-.35-.07-.15-.02-.29-.03-.41-.03-.27,0-.5.06-.71.17-.21.12-.37.27-.49.48-.12.2-.18.44-.18.71v3.7h-1.82Z"/><path class="k" d="m322.96,228.48v-8.73h1.82v8.73h-1.82Zm1.64-1.88v-2.18h.27l2.1-2.48h2.08l-2.82,3.29h-.43l-1.2,1.37Zm2.45,1.88l-1.93-2.85,1.21-1.28,2.84,4.13h-2.13Z"/></g><g><path class="j" d="m10.73,320.59v-8.73h1.85v3.6h3.75v-3.6h1.84v8.73h-1.84v-3.6h-3.75v3.6h-1.85Z"/><path class="j" d="m21.88,320.72c-.66,0-1.23-.14-1.71-.42-.48-.28-.85-.68-1.11-1.18-.26-.51-.39-1.1-.39-1.77s.13-1.27.39-1.77c.26-.51.63-.9,1.11-1.18.48-.28,1.05-.42,1.71-.42s1.23.14,1.72.42c.48.28.85.68,1.11,1.18.26.51.39,1.1.39,1.77s-.13,1.26-.39,1.77c-.26.51-.63.9-1.11,1.18-.48.28-1.05.42-1.72.42Zm0-1.41c.3,0,.55-.09.75-.26.2-.17.35-.41.46-.71.1-.3.16-.64.16-1.02s-.05-.72-.16-1.02c-.1-.3-.26-.53-.46-.71-.2-.17-.45-.26-.75-.26s-.56.09-.76.26c-.21.17-.36.41-.46.71-.1.3-.16.64-.16,1.02s.05.72.16,1.02.26.53.46.71.46.26.76.26Z"/><path class="j" d="m31.01,315.91l-1.66.1c-.03-.14-.09-.27-.18-.39s-.22-.21-.37-.28c-.15-.07-.33-.1-.54-.1-.28,0-.52.06-.71.18-.19.12-.29.28-.29.47,0,.16.06.29.19.4.12.11.34.2.64.26l1.18.24c.64.13,1.11.34,1.42.63.31.29.47.67.47,1.14,0,.43-.12.81-.38,1.13-.25.32-.59.58-1.03.76s-.94.27-1.51.27c-.87,0-1.56-.18-2.07-.54s-.81-.86-.9-1.48l1.79-.09c.05.26.19.47.39.6s.47.21.8.21.57-.06.77-.19c.19-.12.29-.28.3-.48,0-.17-.07-.3-.21-.41s-.35-.19-.63-.25l-1.13-.23c-.64-.13-1.11-.35-1.42-.67-.31-.32-.47-.72-.47-1.21,0-.42.11-.78.34-1.09.23-.3.55-.54.97-.7.42-.17.9-.25,1.46-.25.83,0,1.48.17,1.95.52.48.35.75.83.83,1.43Z"/><path class="j" d="m35.07,314.04v1.36h-3.94v-1.36h3.94Zm-3.05-1.57h1.82v6.1c0,.17.03.3.08.39.05.09.12.16.22.19.09.04.2.06.32.06.08,0,.17,0,.26-.02s.15-.03.2-.04l.29,1.35c-.09.03-.22.06-.38.1-.16.04-.36.06-.6.07-.44.02-.82-.04-1.15-.17s-.58-.34-.76-.62-.27-.64-.27-1.07v-6.34Z"/><path class="j" d="m41.37,311.86v8.73h-1.84v-6.98h-.05l-2,1.25v-1.64l2.16-1.37h1.73Z"/></g><g><path class="j" d="m79.08,320.69v-8.73h1.85v3.6h3.75v-3.6h1.84v8.73h-1.84v-3.6h-3.75v3.6h-1.85Z"/><path class="j" d="m90.23,320.82c-.66,0-1.23-.14-1.71-.42-.48-.28-.85-.68-1.11-1.18-.26-.51-.39-1.1-.39-1.77s.13-1.27.39-1.77c.26-.51.63-.9,1.11-1.18.48-.28,1.05-.42,1.71-.42s1.23.14,1.72.42c.48.28.85.68,1.11,1.18.26.51.39,1.1.39,1.77s-.13,1.26-.39,1.77c-.26.51-.63.9-1.11,1.18-.48.28-1.05.42-1.72.42Zm0-1.41c.3,0,.55-.09.75-.26.2-.17.35-.41.46-.71.1-.3.16-.64.16-1.02s-.05-.72-.16-1.02c-.1-.3-.26-.53-.46-.71-.2-.17-.45-.26-.75-.26s-.56.09-.76.26c-.21.17-.36.41-.46.71-.1.3-.16.64-.16,1.02s.05.72.16,1.02.26.53.46.71c.21.17.46.26.76.26Z"/><path class="j" d="m99.37,316.01l-1.66.1c-.03-.14-.09-.27-.18-.39s-.22-.21-.37-.28c-.15-.07-.33-.1-.54-.1-.28,0-.52.06-.71.18-.19.12-.29.28-.29.47,0,.16.06.29.19.4.12.11.34.2.64.26l1.18.24c.64.13,1.11.34,1.42.63.31.29.47.67.47,1.14,0,.43-.12.81-.38,1.13-.25.32-.59.58-1.03.76s-.94.27-1.51.27c-.87,0-1.56-.18-2.07-.54s-.81-.86-.9-1.48l1.79-.09c.05.26.19.47.39.6s.47.21.8.21.57-.06.77-.19c.19-.12.29-.28.3-.48,0-.17-.07-.3-.21-.41s-.35-.19-.63-.25l-1.13-.23c-.64-.13-1.11-.35-1.42-.67-.31-.32-.47-.72-.47-1.21,0-.42.11-.78.34-1.09.23-.3.55-.54.97-.7.42-.17.9-.25,1.46-.25.83,0,1.48.17,1.95.52.48.35.75.83.83,1.43Z"/><path class="j" d="m103.42,314.15v1.36h-3.94v-1.36h3.94Zm-3.05-1.57h1.82v6.1c0,.17.03.3.08.39.05.09.12.16.22.19.09.04.2.06.32.06.08,0,.17,0,.26-.02s.15-.03.2-.04l.29,1.35c-.09.03-.22.06-.38.1-.16.04-.36.06-.6.07-.44.02-.82-.04-1.15-.17s-.58-.34-.76-.62-.27-.64-.27-1.07v-6.34Z"/><path class="j" d="m105.93,320.69v-1.33l3.11-2.88c.26-.25.49-.49.67-.69.18-.2.32-.41.41-.6s.14-.41.14-.64c0-.26-.06-.48-.17-.66-.12-.19-.28-.33-.48-.43-.2-.1-.43-.15-.69-.15s-.5.05-.7.16c-.2.11-.35.26-.46.46-.11.2-.16.44-.16.72h-1.75c0-.57.13-1.07.39-1.49.26-.42.62-.75,1.09-.98.47-.23,1-.35,1.61-.35s1.17.11,1.63.33c.46.22.83.52,1.08.91.26.39.39.83.39,1.34,0,.33-.06.65-.19.98-.13.32-.36.68-.69,1.07-.33.39-.79.86-1.39,1.4l-1.27,1.25v.06h3.66v1.51h-6.22Z"/></g><g><path class="j" d="m290.62,320.8v-8.73h1.84v3.6h3.75v-3.6h1.84v8.73h-1.84v-3.6h-3.75v3.6h-1.84Z"/><path class="j" d="m301.78,320.93c-.66,0-1.23-.14-1.71-.42-.48-.28-.85-.68-1.12-1.18-.26-.51-.39-1.1-.39-1.77s.13-1.27.39-1.77c.26-.51.63-.9,1.12-1.18.48-.28,1.05-.42,1.71-.42s1.23.14,1.72.42c.48.28.85.68,1.11,1.18.26.51.39,1.1.39,1.77s-.13,1.26-.39,1.77c-.26.51-.63.9-1.11,1.18-.48.28-1.05.42-1.72.42Zm0-1.41c.3,0,.55-.09.75-.26.2-.17.35-.41.46-.71.1-.3.16-.64.16-1.02s-.05-.72-.16-1.02c-.1-.3-.26-.53-.46-.71-.2-.17-.45-.26-.75-.26s-.56.09-.77.26c-.21.17-.36.41-.46.71-.1.3-.16.64-.16,1.02s.05.72.16,1.02.26.53.46.71c.21.17.46.26.77.26Z"/><path class="j" d="m310.91,316.12l-1.66.1c-.03-.14-.09-.27-.18-.39s-.22-.21-.37-.28c-.15-.07-.33-.1-.54-.1-.28,0-.52.06-.71.18-.19.12-.29.28-.29.47,0,.16.06.29.19.4.12.11.34.2.64.26l1.18.24c.64.13,1.11.34,1.42.63.31.29.47.67.47,1.14,0,.43-.12.81-.38,1.13-.25.32-.59.58-1.03.76s-.94.27-1.51.27c-.87,0-1.56-.18-2.07-.54s-.81-.86-.9-1.48l1.79-.09c.05.26.19.47.39.6s.47.21.8.21.57-.06.77-.19c.19-.12.29-.28.3-.48,0-.17-.07-.3-.21-.41s-.35-.19-.63-.25l-1.13-.23c-.64-.13-1.11-.35-1.42-.67-.31-.32-.47-.72-.47-1.21,0-.42.11-.78.34-1.09.23-.3.55-.54.97-.7.42-.17.9-.25,1.46-.25.83,0,1.48.17,1.95.52.48.35.75.83.83,1.43Z"/><path class="j" d="m314.97,314.26v1.36h-3.94v-1.36h3.94Zm-3.05-1.57h1.82v6.1c0,.17.03.3.08.39.05.09.12.16.22.19.09.04.2.06.32.06.08,0,.17,0,.26-.02s.15-.03.2-.04l.29,1.35c-.09.03-.22.06-.38.1-.16.04-.36.06-.6.07-.44.02-.82-.04-1.15-.17s-.58-.34-.76-.62-.27-.64-.27-1.07v-6.34Z"/><path class="j" d="m320.7,320.92c-.64,0-1.2-.11-1.7-.33-.5-.22-.89-.52-1.17-.91-.29-.39-.43-.84-.44-1.34h1.86c.01.21.08.4.21.56.13.16.3.28.52.37.22.09.46.13.73.13s.53-.05.75-.15.38-.24.51-.41c.12-.18.18-.38.18-.61s-.07-.44-.19-.62c-.13-.18-.31-.32-.55-.42-.24-.1-.53-.15-.85-.15h-.81v-1.35h.81c.28,0,.52-.05.74-.15.21-.1.38-.23.5-.4.12-.17.18-.37.18-.6s-.05-.41-.16-.58c-.1-.17-.25-.3-.43-.39-.19-.09-.4-.14-.65-.14s-.48.04-.69.13c-.21.09-.37.22-.5.38s-.19.36-.2.58h-1.77c0-.5.15-.95.43-1.33s.65-.68,1.13-.9c.47-.22,1.01-.33,1.6-.33s1.13.11,1.58.33c.45.22.8.51,1.05.88.25.37.38.79.37,1.25,0,.49-.15.9-.45,1.22-.31.33-.7.53-1.19.62v.07c.64.08,1.13.3,1.47.67.34.36.5.82.5,1.36,0,.5-.14.94-.43,1.33-.29.39-.69.69-1.19.91s-1.08.33-1.74.33Z"/></g><g><path class="j" d="m361.57,320.91v-8.73h1.84v3.6h3.75v-3.6h1.84v8.73h-1.84v-3.6h-3.75v3.6h-1.84Z"/><path class="j" d="m372.72,321.03c-.66,0-1.23-.14-1.71-.42-.48-.28-.85-.68-1.12-1.18-.26-.51-.39-1.1-.39-1.77s.13-1.27.39-1.77c.26-.51.63-.9,1.12-1.18.48-.28,1.05-.42,1.71-.42s1.23.14,1.72.42c.48.28.85.68,1.11,1.18.26.51.39,1.1.39,1.77s-.13,1.26-.39,1.77c-.26.51-.63.9-1.11,1.18-.48.28-1.05.42-1.72.42Zm0-1.41c.3,0,.55-.09.75-.26.2-.17.35-.41.46-.71.1-.3.16-.64.16-1.02s-.05-.72-.16-1.02c-.1-.3-.26-.53-.46-.71-.2-.17-.45-.26-.75-.26s-.56.09-.76.26c-.21.17-.36.41-.46.71-.1.3-.16.64-.16,1.02s.05.72.16,1.02.26.53.46.71c.21.17.46.26.76.26Z"/><path class="j" d="m381.86,316.23l-1.66.1c-.03-.14-.09-.27-.18-.39s-.22-.21-.37-.28c-.15-.07-.33-.1-.54-.1-.28,0-.52.06-.71.18-.19.12-.29.28-.29.47,0,.16.06.29.19.4.12.11.34.2.64.26l1.18.24c.64.13,1.11.34,1.42.63.31.29.47.67.47,1.14,0,.43-.12.81-.38,1.13-.25.32-.59.58-1.03.76s-.94.27-1.51.27c-.87,0-1.56-.18-2.07-.54s-.81-.86-.9-1.48l1.79-.09c.05.26.19.47.39.6s.47.21.8.21.57-.06.77-.19c.19-.12.29-.28.3-.48,0-.17-.07-.3-.21-.41s-.35-.19-.63-.25l-1.13-.23c-.64-.13-1.11-.35-1.42-.67-.31-.32-.47-.72-.47-1.21,0-.42.11-.78.34-1.09.23-.3.55-.54.97-.7.42-.17.9-.25,1.46-.25.83,0,1.48.17,1.95.52.48.35.75.83.83,1.43Z"/><path class="j" d="m385.91,314.36v1.36h-3.94v-1.36h3.94Zm-3.05-1.57h1.82v6.1c0,.17.03.3.08.39.05.09.12.16.22.19.09.04.2.06.32.06.08,0,.17,0,.26-.02s.15-.03.2-.04l.29,1.35c-.09.03-.22.06-.38.1-.16.04-.36.06-.6.07-.44.02-.82-.04-1.15-.17s-.58-.34-.76-.62-.27-.64-.27-1.07v-6.34Z"/><path class="j" d="m390.25,317.12v3.78h-1.82v-6.54h1.73v1.15h.08c.14-.38.39-.68.73-.91s.75-.33,1.24-.33c.45,0,.85.1,1.19.3.34.2.6.48.79.85.19.37.28.81.28,1.32v4.17h-1.82v-3.84c0-.4-.1-.71-.31-.94-.21-.23-.49-.34-.86-.34-.25,0-.46.05-.65.16-.19.1-.33.26-.43.46-.1.2-.16.44-.16.72Z"/></g><g><polyline class="b" points="232.61 23.17 306.4 23.17 306.4 99.44"/><polygon class="k" points="225.55 23.17 235.49 27.24 233.13 23.17 235.49 19.11 225.55 23.17"/><polygon class="k" points="306.4 106.51 302.34 96.56 306.4 98.92 310.47 96.56 306.4 106.51"/></g><g><polyline class="b" points="169.17 23.17 95.37 23.17 95.37 99.44"/><polygon class="k" points="176.23 23.17 166.28 19.11 168.64 23.17 166.28 27.24 176.23 23.17"/><polygon class="k" points="95.37 106.51 91.3 96.56 95.37 98.92 99.43 96.56 95.37 106.51"/></g><g><line class="b" x1="95.69" y1="252.65" x2="95.69" y2="286.29"/><polygon class="k" points="95.69 245.58 91.62 255.53 95.69 253.17 99.75 255.53 95.69 245.58"/><polygon class="k" points="95.69 293.35 91.62 283.4 95.69 285.76 99.75 283.4 95.69 293.35"/></g><g><line class="b" x1="24.97" y1="252.65" x2="24.97" y2="285.83"/><polygon class="k" points="24.97 245.58 20.9 255.53 24.97 253.17 29.03 255.53 24.97 245.58"/><polygon class="k" points="24.97 292.89 20.9 282.94 24.97 285.3 29.03 282.94 24.97 292.89"/></g><g><line class="b" x1="95.37" y1="159.61" x2="95.37" y2="192.79"/><polygon class="k" points="95.37 152.55 91.3 162.5 95.37 160.13 99.43 162.5 95.37 152.55"/><polygon class="k" points="95.37 199.85 91.3 189.9 95.37 192.26 99.43 189.9 95.37 199.85"/></g><g><polyline class="b" points="63.97 129.68 24.97 129.68 24.97 192.48"/><polygon class="k" points="71.03 129.68 61.08 125.61 63.44 129.68 61.08 133.74 71.03 129.68"/><polygon class="k" points="24.97 199.54 20.9 189.59 24.97 191.96 29.03 189.59 24.97 199.54"/></g><g><line class="b" x1="306.4" y1="159.61" x2="306.4" y2="192.79"/><polygon class="k" points="306.4 152.55 302.34 162.5 306.4 160.13 310.47 162.5 306.4 152.55"/><polygon class="k" points="306.4 199.85 302.34 189.9 306.4 192.26 310.47 189.9 306.4 199.85"/></g><g><line class="b" x1="306.4" y1="252.34" x2="306.4" y2="285.83"/><polygon class="k" points="306.4 245.28 302.34 255.23 306.4 252.87 310.47 255.23 306.4 245.28"/><polygon class="k" points="306.4 292.89 302.34 282.94 306.4 285.3 310.47 282.94 306.4 292.89"/></g><g><polyline class="b" points="338.13 222.72 377.12 222.72 377.12 285.83"/><polygon class="k" points="331.06 222.72 341.01 226.78 338.65 222.72 341.01 218.65 331.06 222.72"/><polygon class="k" points="377.12 292.89 373.06 282.94 377.12 285.3 381.19 282.94 377.12 292.89"/></g><g><path class="k" d="m156.59,179.26v-8.73h3.44c.66,0,1.22.12,1.69.35s.82.56,1.07.99.37.93.37,1.51-.12,1.08-.38,1.49-.61.73-1.08.96-1.04.33-1.72.33h-2.31v-1.48h2.01c.35,0,.65-.05.88-.15s.41-.24.52-.43.17-.43.17-.72-.06-.53-.17-.73-.29-.35-.52-.45c-.23-.1-.53-.16-.88-.16h-1.24v7.22h-1.85Zm4.71-3.97l2.17,3.97h-2.04l-2.12-3.97h1.99Z"/><path class="k" d="m166.56,179.39c-.66,0-1.23-.14-1.71-.42-.48-.28-.85-.68-1.11-1.18-.26-.51-.39-1.1-.39-1.77s.13-1.27.39-1.77c.26-.51.63-.9,1.11-1.18.48-.28,1.05-.42,1.71-.42s1.23.14,1.72.42.85.68,1.11,1.18c.26.51.39,1.1.39,1.77s-.13,1.26-.39,1.77c-.26.51-.63.9-1.11,1.18-.48.28-1.05.42-1.72.42Zm0-1.41c.3,0,.55-.09.75-.26.2-.17.35-.41.46-.71.1-.3.16-.64.16-1.02s-.05-.72-.16-1.02c-.1-.3-.26-.53-.46-.71-.2-.17-.45-.26-.75-.26s-.56.09-.77.26-.36.41-.46.71-.16.64-.16,1.02.05.72.16,1.02c.1.3.26.53.46.71s.46.26.77.26Z"/><path class="k" d="m174.44,176.48v-3.76h1.82v6.55h-1.74v-1.19h-.07c-.15.38-.39.69-.74.92s-.76.35-1.25.35c-.44,0-.82-.1-1.15-.3-.33-.2-.59-.48-.78-.85-.19-.37-.28-.81-.28-1.32v-4.17h1.81v3.84c0,.39.11.69.31.92.2.22.48.34.82.34.22,0,.42-.05.61-.15.19-.1.34-.25.46-.45.12-.2.18-.44.17-.74Z"/><path class="k" d="m180.46,172.72v1.36h-3.94v-1.36h3.94Zm-3.05-1.57h1.82v6.1c0,.17.03.3.08.39.05.09.12.16.21.19.09.04.2.06.32.06.09,0,.17,0,.26-.02s.15-.03.2-.04l.29,1.35c-.09.03-.22.06-.38.1-.17.04-.37.06-.6.07-.44.02-.82-.04-1.15-.17-.33-.13-.58-.34-.76-.62-.18-.28-.27-.64-.27-1.07v-6.34Z"/><path class="k" d="m183.84,179.39c-.67,0-1.25-.14-1.74-.41-.48-.27-.86-.66-1.12-1.17-.26-.5-.39-1.1-.39-1.79s.13-1.26.39-1.77c.26-.51.63-.9,1.11-1.19.48-.28,1.03-.43,1.68-.43.43,0,.83.07,1.21.21.37.14.7.34.98.62.28.28.5.62.65,1.04.16.42.23.9.23,1.46v.5h-5.53v-1.12h3.82c0-.26-.06-.49-.17-.69-.11-.2-.27-.36-.47-.48-.2-.12-.43-.17-.7-.17s-.52.06-.73.19c-.21.13-.38.3-.5.51-.12.21-.18.45-.18.71v1.07c0,.32.06.6.18.84.12.24.29.42.51.55s.48.19.79.19c.2,0,.39-.03.55-.09.17-.06.31-.14.43-.26.12-.11.21-.25.27-.42l1.68.11c-.09.4-.26.75-.52,1.05s-.6.53-1.01.7c-.41.17-.89.25-1.43.25Z"/><path class="k" d="m187.31,179.26v-6.55h1.76v1.14h.07c.12-.41.32-.71.6-.92.28-.21.6-.31.97-.31.09,0,.19,0,.29.02s.2.03.28.05v1.61c-.08-.03-.2-.05-.35-.07s-.29-.03-.41-.03c-.27,0-.51.06-.71.17-.21.12-.37.27-.49.48-.12.2-.18.44-.18.71v3.7h-1.81Z"/><path class="k" d="m193.56,179.26v-6.55h1.73v1.15h.08c.14-.38.36-.69.68-.91s.7-.33,1.14-.33.83.11,1.15.33c.32.22.53.52.63.91h.07c.13-.38.38-.68.73-.9.35-.23.77-.34,1.25-.34.61,0,1.11.19,1.49.58.38.39.57.94.57,1.65v4.4h-1.81v-4.04c0-.36-.1-.64-.29-.82-.19-.18-.43-.27-.72-.27-.33,0-.59.1-.77.31-.19.21-.28.48-.28.82v4h-1.76v-4.08c0-.32-.09-.58-.28-.77-.18-.19-.42-.29-.72-.29-.2,0-.38.05-.54.15-.16.1-.29.24-.38.42-.09.18-.14.39-.14.63v3.93h-1.82Z"/><path class="k" d="m205.65,179.39c-.42,0-.79-.07-1.12-.22-.33-.15-.58-.36-.77-.65-.19-.29-.28-.65-.28-1.08,0-.36.07-.67.2-.92.13-.25.32-.45.54-.6.23-.15.49-.26.79-.34s.6-.13.93-.16c.38-.04.69-.08.92-.11.23-.04.4-.09.51-.16.11-.07.16-.18.16-.31v-.03c0-.27-.08-.48-.25-.63-.17-.15-.41-.22-.72-.22-.33,0-.59.07-.78.21-.19.14-.32.32-.38.54l-1.68-.14c.09-.4.25-.74.5-1.03.25-.29.57-.52.97-.67s.86-.24,1.38-.24c.36,0,.71.04,1.05.13.33.09.63.22.89.4.26.18.46.41.62.69.15.28.23.61.23,1v4.41h-1.72v-.91h-.05c-.1.2-.25.38-.42.54-.18.15-.39.28-.63.36s-.53.13-.86.13Zm.52-1.25c.27,0,.5-.05.71-.16.2-.11.37-.25.48-.43.12-.18.17-.39.17-.62v-.69c-.06.04-.13.07-.23.1s-.21.06-.33.08c-.12.02-.24.05-.37.06-.12.02-.23.03-.33.05-.21.03-.4.08-.56.15-.16.07-.28.16-.37.27-.09.11-.13.26-.13.43,0,.25.09.44.27.56.18.13.41.19.69.19Z"/><path class="k" d="m210.02,181.72v-9h1.79v1.1h.08c.08-.18.2-.36.35-.54.15-.18.35-.34.6-.46s.55-.19.92-.19c.48,0,.92.12,1.32.37s.73.62.97,1.12c.24.5.36,1.12.36,1.87s-.12,1.35-.35,1.85-.55.88-.96,1.14c-.4.26-.85.39-1.35.39-.35,0-.65-.06-.9-.17-.25-.12-.45-.26-.6-.44-.16-.18-.28-.36-.36-.54h-.05v3.5h-1.82Zm1.78-5.73c0,.39.05.73.16,1.02.11.29.26.52.47.68.21.16.45.24.75.24s.54-.08.75-.25c.2-.16.36-.39.47-.68.11-.29.16-.63.16-1.01s-.05-.71-.16-1c-.11-.29-.26-.51-.46-.67-.2-.16-.46-.24-.75-.24s-.54.08-.75.23-.36.38-.47.66c-.11.29-.16.62-.16,1.01Z"/><path class="k" d="m216.89,181.72v-9h1.79v1.1h.08c.08-.18.2-.36.35-.54.15-.18.35-.34.6-.46s.55-.19.92-.19c.48,0,.92.12,1.32.37s.73.62.97,1.12c.24.5.36,1.12.36,1.87s-.12,1.35-.35,1.85-.55.88-.96,1.14c-.4.26-.85.39-1.35.39-.35,0-.65-.06-.9-.17-.25-.12-.45-.26-.6-.44-.16-.18-.28-.36-.36-.54h-.05v3.5h-1.82Zm1.78-5.73c0,.39.05.73.16,1.02.11.29.26.52.47.68.21.16.45.24.75.24s.54-.08.75-.25c.2-.16.36-.39.47-.68.11-.29.16-.63.16-1.01s-.05-.71-.16-1c-.11-.29-.26-.51-.46-.67-.2-.16-.46-.24-.75-.24s-.54.08-.75.23-.36.38-.47.66c-.11.29-.16.62-.16,1.01Z"/><path class="k" d="m224.67,171.88c-.27,0-.5-.09-.69-.27-.19-.18-.29-.4-.29-.65s.1-.47.29-.65c.19-.18.42-.27.69-.27s.5.09.69.27c.19.18.29.4.29.65s-.1.47-.29.65c-.19.18-.42.27-.69.27Zm-.91,7.39v-6.55h1.82v6.55h-1.82Z"/><path class="k" d="m228.12,175.48v3.78h-1.82v-6.55h1.73v1.15h.08c.14-.38.39-.68.73-.91.34-.22.75-.33,1.24-.33.45,0,.85.1,1.19.3.34.2.6.48.79.85.19.37.28.81.28,1.31v4.17h-1.82v-3.84c0-.4-.1-.71-.31-.94-.21-.23-.49-.34-.86-.34-.25,0-.46.05-.65.16-.19.1-.33.26-.43.46-.1.2-.16.44-.16.72Z"/><path class="k" d="m236,181.86c-.59,0-1.09-.08-1.51-.24-.42-.16-.75-.38-1-.65-.25-.28-.41-.58-.48-.93l1.68-.23c.05.13.13.25.24.37.11.11.26.21.44.27.18.07.41.1.67.1.39,0,.72-.1.98-.29.26-.19.38-.51.38-.96v-1.2h-.08c-.08.18-.2.35-.36.52-.16.16-.36.29-.61.4-.25.1-.55.15-.89.15-.49,0-.94-.11-1.34-.34-.4-.23-.72-.58-.96-1.05-.24-.47-.36-1.07-.36-1.8s.12-1.36.36-1.86.56-.87.96-1.12c.4-.25.84-.37,1.32-.37.37,0,.67.06.92.19s.45.28.6.46c.15.18.27.36.35.54h.07v-1.1h1.8v6.61c0,.56-.14,1.02-.41,1.4-.27.38-.65.66-1.13.85s-1.04.28-1.66.28Zm.04-4.05c.29,0,.54-.07.74-.22s.36-.36.47-.63c.11-.27.16-.6.16-.99s-.05-.72-.16-1c-.11-.28-.26-.5-.47-.66-.2-.16-.45-.23-.75-.23s-.55.08-.75.24c-.2.16-.36.38-.46.67-.11.28-.16.61-.16.98s.05.7.16.98c.11.27.26.49.46.63.2.15.45.22.75.22Z"/><path class="k" d="m245.37,174.59l-1.66.1c-.03-.14-.09-.27-.18-.39s-.22-.21-.37-.28c-.15-.07-.33-.1-.54-.1-.28,0-.52.06-.71.18-.19.12-.29.27-.29.47,0,.16.06.29.19.4s.34.19.64.26l1.18.24c.64.13,1.11.34,1.42.63.31.29.47.67.47,1.14,0,.43-.12.81-.38,1.13-.25.32-.59.58-1.03.76-.44.18-.94.27-1.51.27-.87,0-1.56-.18-2.07-.54s-.81-.86-.9-1.48l1.79-.09c.05.26.19.47.39.6.21.14.47.21.8.21s.57-.06.77-.19c.19-.12.29-.28.3-.48,0-.16-.07-.3-.21-.41-.14-.11-.35-.19-.63-.25l-1.13-.23c-.64-.13-1.11-.35-1.42-.66-.31-.32-.47-.72-.47-1.21,0-.42.11-.78.34-1.09.23-.3.55-.54.97-.7.42-.17.9-.25,1.46-.25.83,0,1.48.17,1.95.52.48.35.75.83.83,1.43Z"/></g><g><path class="k" d="m172.11,264.36v8.73h-1.59l-3.8-5.49h-.06v5.49h-1.85v-8.73h1.62l3.77,5.49h.08v-5.49h1.84Z"/><path class="k" d="m175.86,273.21c-.67,0-1.25-.14-1.74-.41-.48-.27-.86-.66-1.12-1.17-.26-.5-.39-1.1-.39-1.79s.13-1.26.39-1.77c.26-.51.63-.91,1.11-1.19.48-.28,1.03-.43,1.68-.43.43,0,.83.07,1.21.21.37.14.7.34.98.62.28.28.5.62.65,1.04s.23.9.23,1.46v.5h-5.53v-1.12h3.82c0-.26-.06-.49-.17-.69-.11-.2-.27-.36-.47-.48-.2-.12-.43-.17-.7-.17s-.52.06-.73.19c-.21.13-.38.29-.5.51s-.18.45-.18.71v1.07c0,.32.06.6.18.84.12.24.29.42.51.55s.48.19.79.19c.2,0,.39-.03.55-.08.17-.06.31-.14.43-.26.12-.11.21-.25.27-.42l1.68.11c-.09.4-.26.75-.52,1.05s-.6.53-1.01.7c-.41.17-.89.25-1.43.25Z"/><path class="k" d="m182.81,266.54v1.36h-3.94v-1.36h3.94Zm-3.05-1.57h1.82v6.1c0,.17.03.3.08.39.05.09.12.16.21.19s.2.06.32.06c.09,0,.17,0,.26-.02s.15-.03.2-.04l.29,1.35c-.09.03-.22.06-.38.1-.17.04-.37.06-.6.07-.44.02-.82-.04-1.15-.17-.33-.13-.58-.34-.76-.62-.18-.28-.27-.64-.27-1.07v-6.34Z"/><path class="k" d="m185.33,273.08v-6.55h1.73v1.16h.08c.14-.38.36-.69.68-.91.32-.22.7-.33,1.14-.33s.83.11,1.15.33c.32.22.53.53.63.91h.07c.13-.38.38-.68.73-.9s.77-.34,1.25-.34c.61,0,1.11.19,1.49.58.38.39.57.94.57,1.65v4.4h-1.81v-4.04c0-.36-.1-.64-.29-.82s-.43-.27-.72-.27c-.33,0-.59.1-.77.31-.18.21-.28.48-.28.83v4h-1.76v-4.08c0-.32-.09-.58-.27-.77-.18-.19-.42-.29-.72-.29-.2,0-.38.05-.54.15-.16.1-.29.24-.38.42-.09.18-.14.39-.14.63v3.93h-1.81Z"/><path class="k" d="m197.42,273.21c-.42,0-.79-.07-1.12-.22-.33-.15-.58-.36-.77-.65-.19-.29-.28-.65-.28-1.08,0-.36.07-.67.2-.92.13-.25.32-.45.54-.6.23-.15.49-.26.79-.34.29-.08.6-.13.93-.16.38-.04.69-.08.92-.11.23-.04.4-.09.51-.16.11-.07.16-.18.16-.31v-.03c0-.27-.08-.48-.25-.63s-.41-.22-.72-.22c-.33,0-.59.07-.78.21-.19.14-.32.32-.38.54l-1.68-.14c.09-.4.25-.74.5-1.03.25-.29.57-.52.97-.67.4-.16.86-.24,1.38-.24.36,0,.71.04,1.05.13s.63.22.89.4c.26.18.46.41.62.69.15.28.23.62.23,1v4.42h-1.72v-.91h-.05c-.1.21-.25.38-.42.54-.18.16-.39.28-.63.36-.25.09-.53.13-.86.13Zm.52-1.25c.27,0,.5-.05.71-.16.2-.11.37-.25.48-.43s.17-.39.17-.62v-.69c-.06.04-.13.07-.23.1-.1.03-.21.06-.33.08-.12.02-.24.05-.37.06-.12.02-.23.03-.33.05-.21.03-.4.08-.56.15-.16.07-.28.16-.37.27s-.13.26-.13.43c0,.25.09.44.27.56.18.13.41.19.69.19Z"/><path class="k" d="m201.8,275.54v-9h1.79v1.1h.08c.08-.18.2-.36.35-.54s.35-.34.6-.46c.25-.12.55-.19.92-.19.48,0,.92.12,1.32.37.4.25.73.62.97,1.12.24.5.36,1.12.36,1.87s-.12,1.35-.35,1.85c-.23.5-.55.88-.96,1.14s-.85.39-1.35.39c-.35,0-.65-.06-.9-.17-.25-.12-.45-.26-.6-.44-.16-.18-.28-.36-.36-.54h-.05v3.5h-1.82Zm1.78-5.73c0,.39.05.73.16,1.02.11.29.26.52.47.68.21.16.45.24.75.24s.54-.08.75-.25c.2-.16.36-.39.47-.68.11-.29.16-.63.16-1.01s-.05-.71-.16-1c-.11-.29-.26-.51-.46-.67-.2-.16-.46-.24-.75-.24s-.54.08-.75.23-.36.38-.47.67c-.11.29-.16.62-.16,1.01Z"/><path class="k" d="m208.67,275.54v-9h1.79v1.1h.08c.08-.18.2-.36.35-.54s.35-.34.6-.46c.25-.12.55-.19.92-.19.48,0,.92.12,1.32.37.4.25.73.62.97,1.12.24.5.36,1.12.36,1.87s-.12,1.35-.35,1.85c-.23.5-.55.88-.96,1.14s-.85.39-1.35.39c-.35,0-.65-.06-.9-.17-.25-.12-.45-.26-.6-.44-.16-.18-.28-.36-.36-.54h-.05v3.5h-1.82Zm1.78-5.73c0,.39.05.73.16,1.02.11.29.26.52.47.68.21.16.45.24.75.24s.54-.08.75-.25c.2-.16.36-.39.47-.68.11-.29.16-.63.16-1.01s-.05-.71-.16-1c-.11-.29-.26-.51-.46-.67-.2-.16-.46-.24-.75-.24s-.54.08-.75.23-.36.38-.47.67c-.11.29-.16.62-.16,1.01Z"/><path class="k" d="m216.45,265.69c-.27,0-.5-.09-.69-.27-.19-.18-.29-.4-.29-.65s.1-.47.29-.65c.19-.18.42-.27.69-.27s.5.09.69.27c.19.18.29.4.29.65s-.1.47-.29.65c-.19.18-.42.27-.69.27Zm-.91,7.39v-6.55h1.82v6.55h-1.82Z"/><path class="k" d="m219.9,269.3v3.78h-1.82v-6.55h1.73v1.16h.08c.14-.38.39-.68.73-.91.34-.22.75-.33,1.24-.33.45,0,.85.1,1.19.3.34.2.6.48.79.85s.28.81.28,1.31v4.17h-1.82v-3.84c0-.4-.1-.71-.31-.94-.21-.23-.49-.34-.86-.34-.25,0-.46.05-.65.16-.19.11-.33.26-.43.46-.1.2-.16.44-.16.72Z"/><path class="k" d="m227.77,275.67c-.59,0-1.09-.08-1.51-.24-.42-.16-.75-.38-1-.65-.25-.28-.41-.58-.48-.93l1.68-.23c.05.13.13.25.24.37.11.11.26.21.44.28.18.07.41.1.67.1.39,0,.72-.1.98-.29.26-.19.38-.51.38-.96v-1.2h-.08c-.08.18-.2.35-.36.52s-.36.29-.61.4c-.25.1-.55.15-.89.15-.49,0-.94-.11-1.34-.34-.4-.23-.72-.58-.96-1.05-.24-.47-.36-1.07-.36-1.8s.12-1.36.36-1.86.56-.87.96-1.12c.4-.25.84-.37,1.32-.37.37,0,.67.06.92.19.25.12.45.28.6.46.15.18.27.36.35.54h.07v-1.1h1.8v6.61c0,.56-.14,1.02-.41,1.4-.27.38-.65.66-1.13.85-.48.19-1.04.28-1.66.28Zm.04-4.05c.29,0,.54-.07.74-.22s.36-.36.47-.63.16-.6.16-.99-.05-.72-.16-1c-.11-.28-.26-.5-.47-.66-.2-.16-.45-.23-.75-.23s-.55.08-.75.24c-.2.16-.36.38-.46.67-.11.28-.16.61-.16.98s.05.7.16.98.26.49.46.63c.2.15.45.22.75.22Z"/><path class="k" d="m237.15,268.4l-1.66.1c-.03-.14-.09-.27-.18-.39s-.22-.21-.37-.28c-.15-.07-.33-.1-.54-.1-.28,0-.52.06-.71.18-.19.12-.29.27-.29.47,0,.16.06.29.19.4.12.11.34.19.64.26l1.18.24c.64.13,1.11.34,1.42.63s.47.67.47,1.14c0,.43-.12.8-.38,1.13-.25.32-.59.58-1.03.76-.44.18-.94.27-1.51.27-.87,0-1.56-.18-2.07-.54s-.81-.86-.9-1.48l1.79-.09c.05.26.19.46.39.6.21.14.47.21.8.21s.57-.06.77-.19c.19-.12.29-.28.3-.48,0-.16-.07-.3-.21-.41-.14-.11-.35-.19-.63-.25l-1.13-.23c-.64-.13-1.11-.35-1.42-.66-.31-.32-.47-.72-.47-1.21,0-.42.11-.78.34-1.09s.55-.54.97-.7.9-.25,1.46-.25c.83,0,1.48.17,1.95.52.48.35.75.83.83,1.43Z"/></g><g><line class="h" x1="100.38" y1="176.2" x2="101.09" y2="176.2"/><line class="g" x1="102.52" y1="176.2" x2="150.46" y2="176.2"/><line class="h" x1="151.17" y1="176.2" x2="151.88" y2="176.2"/></g><g><line class="h" x1="250.54" y1="176.2" x2="251.24" y2="176.2"/><line class="e" x1="252.66" y1="176.2" x2="294.56" y2="176.2"/><line class="h" x1="295.27" y1="176.2" x2="295.97" y2="176.2"/></g><g><line class="h" x1="100.38" y1="269.08" x2="101.09" y2="269.08"/><line class="i" x1="102.51" y1="269.08" x2="158.68" y2="269.08"/><line class="h" x1="159.39" y1="269.08" x2="160.1" y2="269.08"/></g><g><line class="h" x1="302.89" y1="269.47" x2="302.19" y2="269.47"/><line class="f" x1="300.78" y1="269.47" x2="245.02" y2="269.47"/><line class="h" x1="244.31" y1="269.47" x2="243.61" y2="269.47"/></g></svg>