<?xml version="1.0" encoding="UTF-8"?><svg id="a" xmlns="http://www.w3.org/2000/svg" viewBox="0 0 398.43 700.33"><defs><style>.b,.c,.d,.e,.f,.g,.h,.i,.j,.k,.l{fill:none;stroke-miterlimit:10;}.b,.c,.e,.i,.j,.k,.l{stroke:#231f20;}.c,.d{stroke-width:.61px;}.d{stroke:#405daa;}.m{fill:#405daa;}.e{stroke-dasharray:0 0 1.4 1.4;}.e,.i,.j,.k,.l{stroke-width:.5px;}.f{stroke-dasharray:0 0 1.03 1.54;}.f,.g,.h{stroke:#3c5daa;}.n{fill:#010101;fill-rule:evenodd;}.g{stroke-dasharray:0 0 1.03 1.54;}.h{stroke-dasharray:0 0 1.03 1.54;}.i{stroke-dasharray:0 0 1.4 1.4;}.j{stroke-dasharray:0 0 1.39 1.39;}.o{fill:#231f20;}.l{stroke-dasharray:0 0 1.37 1.37;}</style></defs><path class="n" d="m149.51,22.46c-.34-2.56-2.66-4.61-5.25-4.61h-10.72c-2.58.09-4.85,2.19-5.11,4.77l-1.8,17.84v.15c-.14,2.19,1.81,4.13,4.47,5.24l.14.06.56,23.03v.07c.05.31.32.54.64.53.34,0,.61-.29.61-.64l-.57-23.45v-.08c-.04-.22-.19-.41-.41-.49-2.51-.9-4.36-2.64-4.19-4.3l1.8-17.84.02-.14c.27-1.93,2.06-3.51,4.02-3.51h10.7c1.95.08,3.7,1.7,3.89,3.65l1.8,17.84v.12c.08,1.62-1.74,3.3-4.19,4.18-.24.09-.4.31-.41.57l-.57,23.45v.07c.03.31.29.56.61.56h.07c.31-.03.56-.29.56-.61l.56-23.03.14-.06c2.71-1.13,4.69-3.14,4.46-5.38l-1.8-17.84-.02-.16Zm-10.53-21.22c2.97,0,5.37,2.4,5.37,5.37s-2.4,5.37-5.37,5.37-5.37-2.4-5.37-5.37,2.4-5.37,5.37-5.37Zm0-1.24c-3.65,0-6.61,2.96-6.61,6.61s2.96,6.61,6.61,6.61,6.61-2.96,6.61-6.61-2.96-6.61-6.61-6.61Z"/><g><path class="o" d="m351.14,257.98v-.23c0-.31.24-.56.53-.56,12.03-.03,20.82-.24,24.54-.36,3.5-.12,7.09-.5,9.09-3.72.61-.99,1.07-2.94,1.07-4.02,0-4.63-3.65-8.5-8.13-8.63-.24,0-.46-.11-.62-.29-.16-.18-.25-.42-.24-.67.01-.5.03-1.75-.18-2.72-1.2-5.66-6.16-9.56-11.54-9.09-1.37.12-2.9.65-3.5.87-.26.1-.54.07-.78-.07-.24-.14-.41-.38-.48-.66-1.45-6.37-6.2-10.33-12.4-10.33s-11.03,5.46-12.44,10.75c-.06.21-.16.4-.32.53-.32.28-.74.31-1.08.1-.54-.32-2.02-1.09-4.03-1.21-5.61-.34-10.58,3.56-11.55,9.06-.11.64-.08,1.95-.02,2.97.03.42-.24.81-.63.91-2.39.62-6.86,3.73-6.86,8.46v.27c-.01,1.14-.02,2.7,1.1,4.41,1.15,1.75,3.01,2.87,5.12,3.06,3.84.36,10.24.36,27.63.36h.65c.29,0,.53.25.53.56v.23c0,.31-.24.56-.53.56h-.65c-17.43,0-23.85,0-27.74-.37-2.48-.23-4.69-1.56-6.06-3.64-1.35-2.06-1.34-4.02-1.33-5.19v-.26c0-4.87,4.23-8.64,7.47-9.67-.04-.8-.08-2.12.06-2.91,1.09-6.17,6.62-10.54,12.88-10.16,1.9.11,3.37.72,4.23,1.18,1.9-6.51,7.67-11.37,13.57-11.37,6.61,0,11.89,4.31,13.56,11.01.85-.3,2.2-.71,3.48-.82,6.01-.53,11.55,3.83,12.89,10.14.19.89.22,1.93.22,2.64,4.99.36,8.99,4.75,8.99,9.96,0,1.31-.51,3.53-1.28,4.76-2.34,3.77-6.45,4.21-10.12,4.34-3.73.12-12.54.33-24.58.36-.29,0-.53-.25-.53-.56Z"/><path class="o" d="m357.05,252.46c0,.24-.14.48-.38.62-.38.22-.87.11-1.1-.24l-5.72-8.41-.08,26.45c0,.41-.37.74-.81.74h0c-.44,0-.8-.33-.8-.74l.08-26.46-5.89,8.31c-.24.34-.74.44-1.11.22-.38-.22-.48-.68-.24-1.02l7.39-10.44c.15-.21.41-.33.69-.33s.53.13.67.35l7.17,10.56c.09.12.12.26.12.4Z"/></g><rect class="f" x=".5" y="82.79" width="276.47" height="200.74" rx="15.42" ry="15.42"/><rect class="b" x="40.04" y="122" width="65.13" height="60.4" rx="4.29" ry="4.29"/><rect class="b" x="165.71" y="122" width="65.13" height="60.4" rx="4.29" ry="4.29"/><rect class="b" x="93.4" y="221.71" width="88.86" height="32.31" rx="4.29" ry="4.29"/><g><path class="o" d="m43.69,141.81v-8.5h1.8v3.75h.11l3.06-3.75h2.15l-3.15,3.81,3.19,4.69h-2.15l-2.33-3.5-.88,1.08v2.42h-1.8Z"/><path class="o" d="m54.7,139.09v-3.66h1.77v6.38h-1.7v-1.16h-.07c-.14.37-.38.67-.72.9s-.74.34-1.22.34c-.43,0-.8-.1-1.12-.29s-.58-.47-.76-.83c-.18-.36-.27-.78-.28-1.28v-4.06h1.77v3.74c0,.38.1.67.3.89s.47.33.8.33c.21,0,.41-.05.6-.15.19-.1.34-.24.45-.44.11-.19.17-.43.17-.72Z"/><path class="o" d="m57.21,141.81v-8.5h1.77v3.2h.05c.08-.17.19-.35.34-.52.15-.18.34-.33.58-.45.24-.12.54-.18.89-.18.47,0,.89.12,1.29.36s.71.61.94,1.09c.23.49.35,1.09.35,1.82s-.11,1.31-.34,1.8c-.23.49-.54.86-.93,1.11-.39.25-.83.38-1.31.38-.34,0-.63-.06-.87-.17-.24-.11-.44-.26-.59-.43-.15-.17-.27-.35-.35-.52h-.08v1.02h-1.74Zm1.73-3.19c0,.38.05.71.16.99.11.28.26.5.46.66.2.16.44.23.73.23s.53-.08.73-.24c.2-.16.35-.38.45-.66.1-.28.16-.61.16-.98s-.05-.69-.15-.97c-.1-.28-.25-.5-.45-.66-.2-.16-.44-.24-.73-.24s-.53.08-.73.23c-.2.15-.35.37-.45.65-.1.28-.16.61-.16.99Z"/><path class="o" d="m66.81,141.93c-.66,0-1.22-.13-1.69-.4s-.83-.65-1.09-1.14c-.25-.49-.38-1.07-.38-1.75s.13-1.23.38-1.73c.25-.5.61-.88,1.08-1.16.46-.28,1.01-.42,1.63-.42.42,0,.81.07,1.18.2.36.13.68.34.95.6.27.27.48.61.64,1.01.15.41.23.88.23,1.42v.49h-5.38v-1.1h3.72c0-.25-.06-.48-.17-.68-.11-.2-.26-.35-.46-.46-.19-.11-.42-.17-.68-.17s-.51.06-.71.19-.37.29-.48.49c-.12.21-.18.44-.18.69v1.04c0,.32.06.59.18.82.12.23.28.41.5.53s.47.19.77.19c.2,0,.38-.03.54-.08.16-.06.3-.14.42-.25.12-.11.21-.25.27-.41l1.64.11c-.08.39-.25.74-.51,1.03-.26.29-.59.52-.99.68-.4.16-.87.24-1.39.24Z"/><path class="o" d="m70.19,141.81v-6.38h1.71v1.11h.07c.12-.4.31-.7.59-.9.27-.2.59-.31.95-.31.09,0,.18,0,.29.02.1.01.19.03.27.05v1.57c-.08-.02-.2-.05-.34-.07-.15-.02-.28-.03-.4-.03-.26,0-.49.06-.7.17-.2.11-.36.27-.48.47s-.18.43-.18.69v3.61h-1.77Z"/><path class="o" d="m76.04,138.12v3.69h-1.77v-6.38h1.69v1.12h.07c.14-.37.38-.67.71-.88.33-.22.73-.33,1.21-.33.44,0,.83.1,1.16.29.33.19.59.47.77.83s.27.79.27,1.28v4.06h-1.77v-3.74c0-.39-.1-.7-.3-.92-.2-.22-.48-.33-.83-.33-.24,0-.45.05-.63.15-.18.1-.32.25-.42.45-.1.19-.15.43-.16.7Z"/><path class="o" d="m83.74,141.93c-.66,0-1.22-.13-1.69-.4s-.83-.65-1.09-1.14c-.25-.49-.38-1.07-.38-1.75s.13-1.23.38-1.73c.25-.5.61-.88,1.08-1.16.46-.28,1.01-.42,1.63-.42.42,0,.81.07,1.18.2.36.13.68.34.95.6.27.27.48.61.64,1.01.15.41.23.88.23,1.42v.49h-5.38v-1.1h3.72c0-.25-.06-.48-.17-.68-.11-.2-.26-.35-.46-.46-.19-.11-.42-.17-.68-.17s-.51.06-.71.19-.37.29-.48.49c-.12.21-.18.44-.18.69v1.04c0,.32.06.59.18.82.12.23.28.41.5.53s.47.19.77.19c.2,0,.38-.03.54-.08.16-.06.3-.14.42-.25.12-.11.21-.25.27-.41l1.64.11c-.08.39-.25.74-.51,1.03-.26.29-.59.52-.99.68-.4.16-.87.24-1.39.24Z"/><path class="o" d="m90.51,135.43v1.33h-3.84v-1.33h3.84Zm-2.97-1.53h1.77v5.94c0,.16.02.29.07.38s.12.15.21.19.19.05.31.05c.08,0,.17,0,.25-.02s.15-.03.19-.04l.28,1.32c-.09.03-.21.06-.37.1-.16.04-.36.06-.59.07-.43.02-.8-.04-1.12-.17s-.57-.33-.75-.61-.26-.62-.26-1.04v-6.18Z"/><path class="o" d="m93.8,141.93c-.66,0-1.22-.13-1.69-.4s-.83-.65-1.09-1.14c-.25-.49-.38-1.07-.38-1.75s.13-1.23.38-1.73c.25-.5.61-.88,1.08-1.16.46-.28,1.01-.42,1.63-.42.42,0,.81.07,1.18.2.36.13.68.34.95.6.27.27.48.61.64,1.01.15.41.23.88.23,1.42v.49h-5.38v-1.1h3.72c0-.25-.06-.48-.17-.68-.11-.2-.26-.35-.46-.46-.19-.11-.42-.17-.68-.17s-.51.06-.71.19-.37.29-.48.49c-.12.21-.18.44-.18.69v1.04c0,.32.06.59.18.82.12.23.28.41.5.53s.47.19.77.19c.2,0,.38-.03.54-.08.16-.06.3-.14.42-.25.12-.11.21-.25.27-.41l1.64.11c-.08.39-.25.74-.51,1.03-.26.29-.59.52-.99.68-.4.16-.87.24-1.39.24Z"/><path class="o" d="m102.48,137.25l-1.62.1c-.03-.14-.09-.26-.18-.38-.09-.11-.21-.2-.36-.27-.15-.07-.32-.1-.53-.1-.27,0-.51.06-.69.17-.19.11-.28.27-.28.46,0,.15.06.28.18.39.12.11.33.19.63.25l1.15.23c.62.13,1.08.33,1.39.61.3.28.46.65.46,1.11,0,.42-.12.78-.37,1.1-.24.32-.58.56-1,.74s-.91.26-1.47.26c-.84,0-1.52-.18-2.02-.53-.5-.35-.79-.83-.88-1.44l1.74-.09c.05.26.18.45.38.59.2.13.46.2.78.2s.56-.06.75-.18c.19-.12.29-.28.29-.47,0-.16-.07-.29-.2-.4-.13-.1-.34-.18-.61-.24l-1.1-.22c-.62-.12-1.09-.34-1.39-.65-.3-.31-.45-.7-.45-1.17,0-.41.11-.76.33-1.06.22-.3.54-.52.94-.69s.88-.24,1.43-.24c.81,0,1.44.17,1.9.51.46.34.73.8.81,1.39Z"/><path class="o" d="m62.31,150.31h-1.82c-.03-.24-.1-.44-.2-.63s-.23-.34-.39-.47c-.16-.13-.35-.23-.55-.3s-.44-.1-.68-.1c-.44,0-.82.11-1.15.33-.33.22-.58.53-.76.95-.18.41-.27.92-.27,1.5s.09,1.12.27,1.53c.18.41.44.72.76.93s.7.32,1.13.32c.24,0,.46-.03.67-.1.21-.06.39-.16.55-.28.16-.12.29-.27.4-.45.11-.18.18-.38.22-.61h1.82c-.05.4-.16.77-.35,1.14-.19.36-.44.68-.75.97s-.69.51-1.12.67-.92.25-1.47.25c-.76,0-1.44-.17-2.03-.51s-1.07-.84-1.41-1.49c-.34-.65-.52-1.44-.52-2.36s.17-1.72.52-2.37.82-1.15,1.42-1.49,1.27-.51,2.02-.51c.49,0,.95.07,1.37.21.42.14.8.34,1.12.6.33.26.59.59.8.97s.34.82.4,1.31Z"/><path class="o" d="m64.64,147.33v8.5h-1.77v-8.5h1.77Z"/><path class="o" d="m69.44,153.12v-3.66h1.77v6.38h-1.7v-1.16h-.07c-.14.37-.38.67-.72.9s-.74.34-1.22.34c-.43,0-.8-.1-1.12-.29s-.58-.47-.76-.83c-.18-.36-.27-.78-.28-1.28v-4.06h1.77v3.74c0,.38.1.67.3.89s.47.33.8.33c.21,0,.41-.05.6-.15.19-.1.34-.24.45-.44.11-.19.17-.43.17-.72Z"/><path class="o" d="m77.22,151.28l-1.62.1c-.03-.14-.09-.26-.18-.38-.09-.11-.21-.2-.36-.27-.15-.07-.32-.1-.53-.1-.27,0-.51.06-.69.17-.19.11-.28.27-.28.46,0,.15.06.28.18.39.12.11.33.19.63.25l1.15.23c.62.13,1.08.33,1.39.61.3.28.46.65.46,1.11,0,.42-.12.78-.37,1.1-.24.32-.58.56-1,.74s-.91.26-1.47.26c-.84,0-1.52-.18-2.02-.53-.5-.35-.79-.83-.88-1.44l1.74-.09c.05.26.18.45.38.59.2.13.46.2.78.2s.56-.06.75-.18c.19-.12.29-.28.29-.47,0-.16-.07-.29-.2-.4-.13-.1-.34-.18-.61-.24l-1.1-.22c-.62-.12-1.09-.34-1.39-.65-.3-.31-.45-.7-.45-1.17,0-.41.11-.76.33-1.06.22-.3.54-.52.94-.69s.88-.24,1.43-.24c.81,0,1.44.17,1.9.51.46.34.73.8.81,1.39Z"/><path class="o" d="m81.17,149.46v1.33h-3.84v-1.33h3.84Zm-2.97-1.53h1.77v5.94c0,.16.02.29.07.38s.12.15.21.19.19.05.31.05c.08,0,.17,0,.25-.02s.15-.03.19-.04l.28,1.32c-.09.03-.21.06-.37.1-.16.04-.36.06-.59.07-.43.02-.8-.04-1.12-.17s-.57-.33-.75-.61-.26-.62-.26-1.04v-6.18Z"/><path class="o" d="m84.46,155.96c-.66,0-1.22-.13-1.69-.4s-.83-.65-1.09-1.14c-.25-.49-.38-1.07-.38-1.75s.13-1.23.38-1.73c.25-.5.61-.88,1.08-1.16.46-.28,1.01-.42,1.63-.42.42,0,.81.07,1.18.2.36.13.68.34.95.6.27.27.48.61.64,1.01.15.41.23.88.23,1.42v.49h-5.38v-1.1h3.72c0-.25-.06-.48-.17-.68-.11-.2-.26-.35-.46-.46-.19-.11-.42-.17-.68-.17s-.51.06-.71.19-.37.29-.48.49c-.12.21-.18.44-.18.69v1.04c0,.32.06.59.18.82.12.23.28.41.5.53s.47.19.77.19c.2,0,.38-.03.54-.08.16-.06.3-.14.42-.25.12-.11.21-.25.27-.41l1.64.11c-.08.39-.25.74-.51,1.03-.26.29-.59.52-.99.68-.4.16-.87.24-1.39.24Z"/><path class="o" d="m87.84,155.84v-6.38h1.71v1.11h.07c.12-.4.31-.7.59-.9.27-.2.59-.31.95-.31.09,0,.18,0,.29.02.1.01.19.03.27.05v1.57c-.08-.02-.2-.05-.34-.07-.15-.02-.28-.03-.4-.03-.26,0-.49.06-.7.17-.2.11-.36.27-.48.47s-.18.43-.18.69v3.61h-1.77Z"/><path class="o" d="m62.09,166.18v3.69h-1.77v-6.38h1.69v1.12h.07c.14-.37.38-.67.71-.88.33-.22.73-.33,1.21-.33.44,0,.83.1,1.16.29.33.19.59.47.77.83s.27.79.27,1.28v4.06h-1.77v-3.74c0-.39-.1-.7-.3-.92-.2-.22-.48-.33-.83-.33-.24,0-.45.05-.63.15-.18.1-.32.25-.42.45-.1.19-.15.43-.16.7Z"/><path class="o" d="m69.77,169.99c-.64,0-1.2-.14-1.67-.41-.47-.28-.83-.66-1.09-1.15-.25-.49-.38-1.07-.38-1.72s.13-1.23.38-1.73c.25-.49.62-.88,1.09-1.15.47-.28,1.03-.41,1.67-.41s1.2.14,1.67.41.83.66,1.09,1.15c.25.49.38,1.07.38,1.73s-.13,1.23-.38,1.72c-.25.49-.62.88-1.09,1.15s-1.03.41-1.67.41Zm0-1.37c.29,0,.54-.08.73-.25.2-.17.35-.4.45-.69s.15-.62.15-.99-.05-.7-.15-.99-.25-.52-.45-.69c-.2-.17-.44-.25-.73-.25s-.54.08-.75.25c-.2.17-.35.4-.45.69-.1.29-.15.62-.15.99s.05.7.15.99c.1.29.25.52.45.69s.45.25.75.25Z"/><path class="o" d="m75.71,169.97c-.48,0-.92-.13-1.31-.38s-.7-.62-.93-1.11c-.23-.49-.34-1.09-.34-1.8s.12-1.34.35-1.82c.24-.49.55-.85.94-1.09s.82-.36,1.29-.36c.36,0,.66.06.9.18.24.12.43.27.58.45.15.18.26.35.34.52h.05v-3.2h1.76v8.5h-1.74v-1.02h-.07c-.08.18-.2.35-.35.52s-.35.32-.58.43c-.24.11-.53.17-.87.17Zm.56-1.41c.28,0,.53-.08.72-.23.2-.16.35-.38.46-.66s.16-.61.16-.99-.05-.71-.16-.99c-.11-.28-.26-.5-.46-.65-.2-.15-.44-.23-.73-.23s-.54.08-.73.24c-.2.16-.35.38-.45.66-.1.28-.15.6-.15.97s.05.7.16.98c.1.28.25.5.45.66s.44.24.73.24Z"/><path class="o" d="m82.99,169.99c-.66,0-1.22-.13-1.69-.4s-.83-.65-1.09-1.14c-.25-.49-.38-1.07-.38-1.75s.13-1.23.38-1.73c.25-.5.61-.88,1.08-1.16.46-.28,1.01-.42,1.63-.42.42,0,.81.07,1.18.2.36.13.68.34.95.6.27.27.48.61.64,1.01.15.41.23.88.23,1.42v.49h-5.38v-1.1h3.72c0-.25-.06-.48-.17-.68-.11-.2-.26-.35-.46-.46-.19-.11-.42-.17-.68-.17s-.51.06-.71.19-.37.29-.48.49c-.12.21-.18.44-.18.69v1.04c0,.32.06.59.18.82.12.23.28.41.5.53s.47.19.77.19c.2,0,.38-.03.54-.08.16-.06.3-.14.42-.25.12-.11.21-.25.27-.41l1.64.11c-.08.39-.25.74-.51,1.03-.26.29-.59.52-.99.68-.4.16-.87.24-1.39.24Z"/></g><g><path class="o" d="m184.14,147.83v-8.5h3.35c.65,0,1.19.12,1.65.37.45.24.8.58,1.04,1.02.24.43.36.93.36,1.5s-.12,1.06-.37,1.49c-.24.43-.6.77-1.06,1.01-.46.24-1.02.36-1.67.36h-2.14v-1.44h1.85c.35,0,.63-.06.86-.18.23-.12.39-.29.51-.5.11-.21.17-.46.17-.74s-.06-.53-.17-.74c-.11-.21-.28-.38-.51-.49s-.51-.18-.86-.18h-1.21v7.03h-1.8Z"/><path class="o" d="m190.98,147.83v-6.38h1.71v1.11h.07c.12-.4.31-.7.58-.9.27-.2.59-.31.95-.31.09,0,.18,0,.29.02s.19.03.27.05v1.57c-.08-.02-.2-.05-.34-.07-.15-.02-.28-.03-.4-.03-.26,0-.49.06-.7.17-.2.11-.36.27-.48.47s-.18.43-.18.69v3.61h-1.77Z"/><path class="o" d="m197.64,147.96c-.65,0-1.2-.14-1.67-.41-.47-.28-.83-.66-1.09-1.15-.25-.49-.38-1.07-.38-1.72s.13-1.23.38-1.73c.25-.49.62-.88,1.09-1.15.47-.28,1.03-.41,1.67-.41s1.2.14,1.67.41c.47.28.83.66,1.09,1.15.25.49.38,1.07.38,1.73s-.13,1.23-.38,1.72c-.25.49-.62.88-1.09,1.15-.47.28-1.03.41-1.67.41Zm0-1.37c.29,0,.54-.08.73-.25.2-.17.35-.4.45-.69.1-.29.15-.62.15-.99s-.05-.7-.15-.99c-.1-.29-.25-.52-.45-.69-.2-.17-.44-.25-.73-.25s-.54.08-.75.25c-.2.17-.35.4-.45.69-.1.29-.15.62-.15.99s.05.7.15.99c.1.29.25.52.45.69.2.17.45.25.75.25Z"/><path class="o" d="m202.47,141.46l1.17,2.23,1.2-2.23h1.81l-1.85,3.19,1.9,3.19h-1.81l-1.26-2.2-1.24,2.2h-1.83l1.89-3.19-1.83-3.19h1.83Z"/><path class="o" d="m208.09,150.22c-.22,0-.43-.02-.63-.05-.2-.03-.36-.08-.48-.13l.4-1.32c.21.06.4.1.56.1.17,0,.31-.03.44-.12s.22-.22.3-.42l.1-.27-2.29-6.56h1.86l1.32,4.68h.07l1.33-4.68h1.87l-2.48,7.06c-.12.34-.28.64-.48.9-.2.26-.46.45-.77.59-.31.14-.68.21-1.12.21Z"/><path class="o" d="m187.48,153.36h1.78v5.93c0,.55-.12,1.02-.37,1.43-.25.4-.58.72-1.02.93-.43.22-.94.33-1.52.33-.51,0-.98-.09-1.39-.27s-.75-.46-.99-.83c-.24-.37-.36-.84-.36-1.41h1.79c0,.22.05.42.14.58.09.16.21.28.36.37.15.08.34.13.55.13.22,0,.41-.05.56-.14.15-.1.27-.24.35-.42.08-.19.12-.41.12-.69v-5.93Z"/><path class="o" d="m194.09,159.14v-3.66h1.77v6.38h-1.7v-1.16h-.07c-.14.37-.38.67-.72.9-.33.23-.74.34-1.22.34-.43,0-.8-.1-1.12-.29s-.58-.47-.76-.83-.27-.78-.28-1.28v-4.06h1.77v3.74c0,.38.1.67.3.89s.47.33.8.33c.21,0,.41-.05.6-.15s.34-.24.45-.44c.12-.19.17-.43.17-.72Z"/><path class="o" d="m196.57,161.86v-6.38h1.68v1.12h.08c.13-.37.35-.67.66-.88s.68-.32,1.11-.32.81.11,1.12.33c.31.22.51.51.61.88h.07c.13-.37.37-.66.71-.88.34-.22.75-.33,1.21-.33.59,0,1.08.19,1.45.57.37.38.56.91.56,1.6v4.29h-1.76v-3.94c0-.35-.09-.62-.28-.8-.19-.18-.42-.27-.71-.27-.32,0-.57.1-.75.31-.18.2-.27.47-.27.8v3.89h-1.71v-3.98c0-.31-.09-.56-.27-.75-.18-.19-.41-.28-.7-.28-.2,0-.37.05-.53.15s-.28.23-.37.41c-.09.18-.14.38-.14.62v3.83h-1.77Z"/><path class="o" d="m206.53,164.25v-8.77h1.74v1.07h.08c.08-.17.19-.35.34-.52.15-.18.34-.33.58-.45.24-.12.54-.18.89-.18.46,0,.89.12,1.29.36.39.24.71.61.94,1.09.24.49.35,1.09.35,1.82s-.11,1.31-.34,1.8c-.23.49-.54.86-.93,1.11s-.83.38-1.31.38c-.34,0-.63-.06-.87-.17s-.43-.26-.59-.43-.27-.35-.35-.52h-.05v3.41h-1.77Zm1.73-5.58c0,.38.05.71.16.99.1.28.26.5.46.66.2.16.44.23.73.23s.53-.08.73-.24.35-.38.46-.66c.1-.28.16-.61.16-.98s-.05-.69-.15-.97c-.1-.28-.25-.5-.45-.66-.2-.16-.44-.24-.73-.24s-.53.08-.73.23c-.2.15-.35.37-.45.65-.11.28-.16.61-.16.99Z"/></g><g><path class="o" d="m102.17,243.26v-8.5h1.77v3.2h.05c.08-.17.19-.35.34-.53s.34-.33.58-.45c.24-.12.54-.18.89-.18.47,0,.89.12,1.29.36s.71.61.94,1.09c.23.49.35,1.09.35,1.82s-.11,1.31-.34,1.8c-.23.49-.54.86-.93,1.11-.39.25-.83.38-1.31.38-.34,0-.63-.06-.87-.17-.24-.11-.44-.26-.59-.43-.15-.17-.27-.35-.35-.53h-.08v1.02h-1.74Zm1.73-3.19c0,.38.05.71.16.99.11.28.26.5.46.66.2.16.44.23.73.23s.53-.08.73-.24c.2-.16.35-.38.45-.66.1-.28.16-.61.16-.98s-.05-.69-.15-.97c-.1-.28-.25-.5-.45-.66-.2-.16-.44-.24-.73-.24s-.53.08-.73.23-.35.37-.45.65c-.1.28-.16.61-.16.99Z"/><path class="o" d="m110.68,243.38c-.41,0-.77-.07-1.09-.21-.32-.14-.57-.35-.75-.63s-.28-.63-.28-1.05c0-.35.06-.65.2-.89.13-.24.31-.43.53-.58.22-.15.48-.26.77-.33.29-.07.59-.13.9-.16.37-.04.67-.08.9-.11.23-.03.39-.09.49-.16.1-.07.15-.17.15-.31v-.02c0-.26-.08-.47-.25-.61s-.4-.22-.7-.22c-.32,0-.57.07-.76.21-.19.14-.31.31-.37.52l-1.64-.13c.08-.39.25-.72.49-1.01.24-.28.56-.5.94-.66.39-.15.83-.23,1.34-.23.35,0,.69.04,1.02.12.33.08.61.21.87.39.25.17.45.4.6.67.15.27.22.6.22.98v4.3h-1.68v-.88h-.05c-.1.2-.24.37-.41.52-.17.15-.38.27-.62.35-.24.08-.52.13-.83.13Zm.51-1.22c.26,0,.49-.05.69-.16s.36-.24.47-.42c.11-.18.17-.38.17-.6v-.68c-.06.04-.13.07-.23.1-.1.03-.2.06-.32.08s-.24.04-.36.06-.23.03-.32.05c-.21.03-.39.08-.54.15-.15.07-.28.16-.36.27-.09.11-.13.25-.13.42,0,.24.09.42.26.55s.4.19.67.19Z"/><path class="o" d="m120.25,238.7l-1.62.1c-.03-.14-.09-.26-.18-.38s-.21-.2-.36-.27c-.15-.07-.32-.1-.53-.1-.27,0-.51.06-.69.17-.19.12-.28.27-.28.46,0,.15.06.28.18.39.12.11.33.19.63.25l1.15.23c.62.13,1.08.33,1.39.62.3.28.46.65.46,1.11,0,.42-.12.78-.37,1.1-.24.32-.58.56-1,.74s-.91.26-1.47.26c-.84,0-1.52-.18-2.02-.53-.5-.35-.79-.83-.88-1.44l1.74-.09c.05.26.18.45.38.59.2.13.46.2.78.2s.56-.06.75-.18c.19-.12.29-.28.29-.47,0-.16-.07-.29-.2-.4-.13-.1-.34-.18-.61-.24l-1.1-.22c-.62-.12-1.09-.34-1.39-.65-.3-.31-.45-.7-.45-1.17,0-.41.11-.76.33-1.06s.54-.52.94-.68c.41-.16.88-.24,1.43-.24.81,0,1.44.17,1.9.51.46.34.73.8.81,1.39Z"/><path class="o" d="m123.71,243.39c-.66,0-1.22-.13-1.69-.4-.47-.27-.83-.65-1.09-1.14-.25-.49-.38-1.07-.38-1.75s.13-1.23.38-1.73c.25-.5.61-.88,1.08-1.16.46-.28,1.01-.42,1.63-.42.42,0,.81.07,1.18.2.36.13.68.34.95.6.27.27.48.61.64,1.01s.23.88.23,1.42v.49h-5.38v-1.1h3.72c0-.25-.06-.48-.17-.68-.11-.2-.26-.35-.46-.46-.19-.11-.42-.17-.68-.17s-.51.06-.71.18-.37.29-.48.49-.18.43-.18.69v1.04c0,.32.06.59.18.82.12.23.28.41.5.53.22.12.47.19.77.19.2,0,.38-.03.54-.08.16-.06.3-.14.42-.25.12-.11.21-.25.27-.41l1.64.11c-.08.39-.25.74-.51,1.03-.26.29-.59.52-.99.68-.4.16-.87.24-1.39.24Z"/><path class="o" d="m131.07,239.07v1.4h-3.88v-1.4h3.88Z"/><path class="o" d="m133.64,239.57v3.69h-1.77v-6.38h1.69v1.12h.07c.14-.37.38-.67.71-.88.33-.22.73-.33,1.21-.33.44,0,.83.1,1.16.29.33.19.59.47.77.83s.27.79.27,1.28v4.06h-1.77v-3.74c0-.39-.1-.7-.3-.92-.2-.22-.48-.33-.83-.33-.24,0-.45.05-.63.15-.18.1-.32.25-.42.45-.1.2-.15.43-.16.7Z"/><path class="o" d="m141.34,243.39c-.66,0-1.22-.13-1.69-.4-.47-.27-.83-.65-1.09-1.14-.25-.49-.38-1.07-.38-1.75s.13-1.23.38-1.73c.25-.5.61-.88,1.08-1.16.46-.28,1.01-.42,1.63-.42.42,0,.81.07,1.18.2.36.13.68.34.95.6.27.27.48.61.64,1.01s.23.88.23,1.42v.49h-5.38v-1.1h3.72c0-.25-.06-.48-.17-.68-.11-.2-.26-.35-.46-.46-.19-.11-.42-.17-.68-.17s-.51.06-.71.18-.37.29-.48.49-.18.43-.18.69v1.04c0,.32.06.59.18.82.12.23.28.41.5.53.22.12.47.19.77.19.2,0,.38-.03.54-.08.16-.06.3-.14.42-.25.12-.11.21-.25.27-.41l1.64.11c-.08.39-.25.74-.51,1.03-.26.29-.59.52-.99.68-.4.16-.87.24-1.39.24Z"/><path class="o" d="m148.11,236.89v1.33h-3.84v-1.33h3.84Zm-2.97-1.53h1.77v5.94c0,.16.02.29.07.38s.12.15.21.19.19.05.31.05c.08,0,.17,0,.25-.02s.15-.03.19-.04l.28,1.32c-.09.03-.21.06-.37.1-.16.04-.36.06-.59.07-.43.02-.8-.04-1.12-.17s-.57-.33-.75-.61c-.18-.27-.26-.62-.26-1.04v-6.18Z"/><path class="o" d="m149.82,243.26l-1.73-6.38h1.79l.99,4.28h.06l1.03-4.28h1.76l1.05,4.26h.05l.97-4.26h1.78l-1.73,6.38h-1.87l-1.1-4.01h-.08l-1.1,4.01h-1.87Z"/><path class="o" d="m160.52,243.39c-.64,0-1.2-.14-1.67-.41-.47-.28-.83-.66-1.09-1.15-.25-.49-.38-1.07-.38-1.72s.13-1.24.38-1.73c.25-.49.62-.88,1.09-1.15.47-.28,1.03-.41,1.67-.41s1.2.14,1.67.41.83.66,1.09,1.15c.25.49.38,1.07.38,1.73s-.13,1.23-.38,1.72-.62.88-1.09,1.15-1.03.41-1.67.41Zm0-1.37c.29,0,.54-.08.73-.25.2-.17.35-.4.45-.69.1-.29.15-.62.15-.99s-.05-.7-.15-.99c-.1-.29-.25-.52-.45-.69-.2-.17-.44-.25-.73-.25s-.54.08-.75.25-.35.4-.45.69c-.1.29-.15.62-.15.99s.05.7.15.99c.1.29.25.52.45.69.2.17.45.25.75.25Z"/><path class="o" d="m164.11,243.26v-6.38h1.71v1.11h.07c.12-.4.31-.7.59-.9s.59-.31.95-.31c.09,0,.18,0,.29.02.1.01.19.03.27.05v1.57c-.08-.03-.2-.05-.34-.07-.15-.02-.28-.03-.4-.03-.26,0-.49.06-.7.17-.2.11-.36.27-.48.47s-.18.43-.18.69v3.61h-1.77Z"/><path class="o" d="m168.19,243.26v-8.5h1.77v8.5h-1.77Zm1.6-1.83v-2.12h.26l2.04-2.42h2.03l-2.74,3.2h-.42l-1.17,1.34Zm2.38,1.83l-1.88-2.78,1.18-1.25,2.77,4.03h-2.07Z"/></g><g><path class="m" d="m26.16,278.85v-8.11h2.84c.56,0,1.03.1,1.4.29.37.19.64.46.82.78s.27.69.27,1.08c0,.35-.06.64-.18.86-.12.23-.28.41-.48.54-.2.13-.42.23-.65.29v.08c.25.02.5.1.75.26.25.16.46.39.63.68.17.3.25.66.25,1.08s-.09.77-.28,1.1c-.19.33-.48.58-.88.77s-.92.29-1.56.29h-2.93Zm.98-4.55h1.82c.3,0,.56-.06.8-.17.24-.12.43-.28.57-.49.14-.21.21-.46.21-.75,0-.36-.12-.66-.37-.91-.25-.25-.64-.37-1.18-.37h-1.85v2.69Zm0,3.68h1.95c.64,0,1.1-.12,1.37-.38.27-.25.41-.55.41-.91,0-.27-.07-.53-.21-.76-.14-.23-.34-.42-.6-.56-.26-.14-.56-.21-.92-.21h-2v2.82Z"/><path class="m" d="m34.41,278.99c-.39,0-.74-.07-1.05-.22-.31-.15-.56-.36-.75-.64-.18-.28-.28-.62-.28-1.01,0-.35.07-.63.21-.85s.32-.39.55-.51c.23-.12.48-.22.76-.28.28-.06.56-.11.84-.15.37-.05.67-.08.9-.11.23-.02.4-.07.51-.13.11-.06.16-.17.16-.32v-.03c0-.39-.11-.69-.32-.91-.21-.22-.53-.33-.96-.33s-.8.1-1.05.29-.43.4-.53.63l-.89-.32c.16-.37.37-.66.64-.87.27-.21.56-.35.87-.44s.63-.12.93-.12c.2,0,.42.02.68.07s.5.14.74.28c.24.14.44.36.6.65.16.29.24.67.24,1.16v4.01h-.94v-.82h-.05c-.06.13-.17.27-.32.42s-.34.28-.59.38-.55.16-.9.16Zm.14-.84c.37,0,.68-.07.94-.22s.45-.33.58-.56c.13-.23.2-.47.2-.72v-.86s-.13.09-.26.13-.29.07-.46.1c-.17.03-.34.05-.5.07-.16.02-.29.04-.39.05-.24.03-.47.08-.68.15-.21.07-.38.17-.51.31-.13.14-.19.33-.19.56,0,.33.12.57.36.74s.55.25.92.25Z"/><path class="m" d="m42.55,274.13l-.84.24c-.05-.14-.13-.28-.23-.41-.1-.13-.24-.24-.41-.33-.17-.09-.4-.13-.67-.13-.37,0-.68.08-.93.25-.25.17-.37.39-.37.65,0,.23.08.42.25.55s.43.25.79.34l.9.22c.54.13.95.33,1.22.6s.4.62.4,1.04c0,.35-.1.66-.3.93-.2.27-.48.49-.83.65-.36.16-.77.24-1.24.24-.62,0-1.13-.13-1.54-.4s-.66-.66-.77-1.18l.89-.22c.08.33.25.57.48.74.24.16.55.25.93.25.44,0,.78-.09,1.04-.28s.39-.41.39-.67c0-.21-.07-.39-.22-.53-.15-.14-.38-.25-.68-.32l-1.01-.24c-.56-.13-.97-.34-1.23-.62s-.39-.63-.39-1.05c0-.34.1-.65.29-.91.19-.26.46-.47.8-.62.34-.15.72-.23,1.15-.23.6,0,1.08.13,1.42.4.34.26.59.61.73,1.05Z"/><path class="m" d="m45.95,278.98c-.59,0-1.09-.13-1.52-.39-.42-.26-.75-.62-.98-1.09s-.34-1.01-.34-1.64.11-1.17.34-1.65.55-.85.96-1.12c.41-.27.89-.4,1.44-.4.32,0,.63.05.94.16.31.11.59.28.84.51s.46.55.61.94c.15.39.23.87.23,1.43v.4h-4.69v-.81h3.74c0-.34-.07-.65-.2-.92-.14-.27-.33-.48-.58-.64-.25-.16-.54-.23-.88-.23-.37,0-.69.09-.96.28-.27.18-.48.42-.62.71-.15.29-.22.61-.22.94v.54c0,.46.08.85.24,1.17.16.32.38.56.67.72s.62.25.99.25c.25,0,.47-.04.67-.11.2-.07.37-.17.52-.32.15-.14.26-.32.34-.53l.9.25c-.09.31-.25.58-.48.81-.22.23-.5.41-.83.54s-.7.19-1.11.19Z"/><path class="m" d="m52.81,270.74v8.11h-.98v-8.11h.98Z"/><path class="m" d="m54.91,275.19v3.66h-.94v-6.08h.9v.95h.08c.14-.31.36-.56.65-.75.29-.19.67-.28,1.12-.28.41,0,.77.08,1.08.25.31.17.55.42.72.76.17.34.26.77.26,1.29v3.87h-.94v-3.8c0-.48-.12-.85-.37-1.12-.25-.27-.59-.4-1.02-.4-.3,0-.56.06-.8.19-.23.13-.42.32-.55.57s-.2.55-.2.9Z"/><path class="m" d="m62.54,272.76v.79h-3.28v-.79h3.28Zm-2.3,6.08v-6.92c0-.35.08-.64.25-.87s.38-.41.64-.52c.26-.12.54-.17.83-.17.23,0,.42.02.56.06.15.04.25.07.32.1l-.27.81s-.11-.04-.2-.06-.19-.04-.33-.04c-.31,0-.53.08-.67.23-.14.16-.2.38-.2.68v6.7h-.94Z"/><path class="m" d="m63.19,278.85v-6.08h.9v.92h.06c.11-.3.31-.54.6-.73s.62-.28.98-.28c.07,0,.15,0,.26,0,.1,0,.18,0,.23.01v.95s-.1-.02-.22-.04c-.11-.02-.23-.03-.35-.03-.3,0-.56.06-.79.18-.23.12-.41.29-.55.51-.13.21-.2.46-.2.73v3.85h-.94Z"/><path class="m" d="m68.46,278.99c-.39,0-.74-.07-1.05-.22-.31-.15-.56-.36-.75-.64-.18-.28-.28-.62-.28-1.01,0-.35.07-.63.21-.85s.32-.39.55-.51c.23-.12.48-.22.76-.28.28-.06.56-.11.84-.15.37-.05.67-.08.9-.11.23-.02.4-.07.51-.13.11-.06.16-.17.16-.32v-.03c0-.39-.11-.69-.32-.91-.21-.22-.53-.33-.96-.33s-.8.1-1.05.29-.43.4-.53.63l-.89-.32c.16-.37.37-.66.64-.87.27-.21.56-.35.87-.44s.63-.12.93-.12c.2,0,.42.02.68.07s.5.14.74.28c.24.14.44.36.6.65.16.29.24.67.24,1.16v4.01h-.94v-.82h-.05c-.06.13-.17.27-.32.42s-.34.28-.59.38-.55.16-.9.16Zm.14-.84c.37,0,.68-.07.94-.22s.45-.33.58-.56c.13-.23.2-.47.2-.72v-.86s-.13.09-.26.13-.29.07-.46.1c-.17.03-.34.05-.5.07-.16.02-.29.04-.39.05-.24.03-.47.08-.68.15-.21.07-.38.17-.51.31-.13.14-.19.33-.19.56,0,.33.12.57.36.74s.55.25.92.25Z"/><path class="m" d="m76.6,274.13l-.84.24c-.05-.14-.13-.28-.23-.41-.1-.13-.24-.24-.41-.33-.17-.09-.4-.13-.67-.13-.37,0-.68.08-.93.25-.25.17-.37.39-.37.65,0,.23.08.42.25.55s.43.25.79.34l.9.22c.54.13.95.33,1.22.6s.4.62.4,1.04c0,.35-.1.66-.3.93-.2.27-.48.49-.83.65-.36.16-.77.24-1.24.24-.62,0-1.13-.13-1.54-.4s-.66-.66-.77-1.18l.89-.22c.08.33.25.57.48.74.24.16.55.25.93.25.44,0,.78-.09,1.04-.28s.39-.41.39-.67c0-.21-.07-.39-.22-.53-.15-.14-.38-.25-.68-.32l-1.01-.24c-.56-.13-.97-.34-1.23-.62s-.39-.63-.39-1.05c0-.34.1-.65.29-.91.19-.26.46-.47.8-.62.34-.15.72-.23,1.15-.23.6,0,1.08.13,1.42.4.34.26.59.61.73,1.05Z"/><path class="m" d="m80.1,272.76v.79h-3.15v-.79h3.15Zm-2.23-1.46h.94v5.8c0,.26.04.46.12.59.08.13.18.22.3.26.12.04.25.07.39.07.1,0,.19,0,.25-.02s.12-.02.16-.03l.19.84c-.06.02-.15.05-.27.07-.11.02-.26.04-.43.04-.26,0-.52-.06-.77-.17-.25-.11-.46-.29-.63-.52s-.25-.53-.25-.88v-6.05Z"/><path class="m" d="m80.84,278.85v-6.08h.9v.92h.06c.11-.3.31-.54.6-.73s.62-.28.98-.28c.07,0,.15,0,.26,0,.1,0,.18,0,.23.01v.95s-.1-.02-.22-.04c-.11-.02-.23-.03-.35-.03-.3,0-.56.06-.79.18-.23.12-.41.29-.55.51-.13.21-.2.46-.2.73v3.85h-.94Z"/><path class="m" d="m88.16,276.36v-3.6h.93v6.08h-.93v-1.03h-.06c-.14.31-.36.57-.67.79-.3.21-.68.32-1.14.32-.38,0-.72-.08-1.01-.25-.3-.17-.53-.42-.7-.76-.17-.34-.25-.77-.25-1.29v-3.87h.94v3.8c0,.44.12.8.37,1.06.25.26.57.4.96.4.23,0,.47-.06.71-.18.24-.12.45-.3.61-.55.17-.25.25-.56.25-.94Z"/><path class="m" d="m92.61,278.98c-.57,0-1.06-.13-1.47-.4s-.73-.64-.95-1.11c-.22-.47-.33-1.01-.33-1.62s.11-1.16.34-1.64c.23-.47.55-.85.96-1.11.41-.27.89-.4,1.44-.4.43,0,.81.08,1.16.24.34.16.62.38.84.67s.36.62.41,1h-.94c-.07-.28-.23-.52-.47-.74-.24-.22-.57-.32-.98-.32-.36,0-.68.09-.96.28-.27.19-.49.45-.64.8-.15.34-.23.74-.23,1.2s.07.88.22,1.23c.15.35.36.62.63.81.27.19.6.29.96.29.24,0,.46-.04.66-.13.2-.08.37-.21.5-.36s.23-.35.29-.57h.94c-.05.36-.18.68-.39.97-.21.29-.48.51-.82.68-.34.17-.73.25-1.18.25Z"/><path class="m" d="m98.34,272.76v.79h-3.15v-.79h3.15Zm-2.23-1.46h.94v5.8c0,.26.04.46.12.59.08.13.18.22.3.26.12.04.25.07.39.07.1,0,.19,0,.25-.02s.12-.02.16-.03l.19.84c-.06.02-.15.05-.27.07-.11.02-.26.04-.43.04-.26,0-.52-.06-.77-.17-.25-.11-.46-.29-.63-.52s-.25-.53-.25-.88v-6.05Z"/><path class="m" d="m102.91,276.36v-3.6h.93v6.08h-.93v-1.03h-.06c-.14.31-.36.57-.67.79-.3.21-.68.32-1.14.32-.38,0-.72-.08-1.01-.25-.3-.17-.53-.42-.7-.76-.17-.34-.25-.77-.25-1.29v-3.87h.94v3.8c0,.44.12.8.37,1.06.25.26.57.4.96.4.23,0,.47-.06.71-.18.24-.12.45-.3.61-.55.17-.25.25-.56.25-.94Z"/><path class="m" d="m104.89,278.85v-6.08h.9v.92h.06c.11-.3.31-.54.6-.73s.62-.28.98-.28c.07,0,.15,0,.26,0,.1,0,.18,0,.23.01v.95s-.1-.02-.22-.04c-.11-.02-.23-.03-.35-.03-.3,0-.56.06-.79.18-.23.12-.41.29-.55.51-.13.21-.2.46-.2.73v3.85h-.94Z"/><path class="m" d="m110.73,278.98c-.59,0-1.09-.13-1.52-.39-.42-.26-.75-.62-.98-1.09s-.34-1.01-.34-1.64.11-1.17.34-1.65.55-.85.96-1.12c.41-.27.89-.4,1.44-.4.32,0,.63.05.94.16.31.11.59.28.84.51s.46.55.61.94c.15.39.23.87.23,1.43v.4h-4.69v-.81h3.74c0-.34-.07-.65-.2-.92-.14-.27-.33-.48-.58-.64-.25-.16-.54-.23-.88-.23-.37,0-.69.09-.96.28-.27.18-.48.42-.62.71-.15.29-.22.61-.22.94v.54c0,.46.08.85.24,1.17.16.32.38.56.67.72s.62.25.99.25c.25,0,.47-.04.67-.11.2-.07.37-.17.52-.32.15-.14.26-.32.34-.53l.9.25c-.09.31-.25.58-.48.81-.22.23-.5.41-.83.54s-.7.19-1.11.19Z"/></g><g><path class="o" d="m192.31,31.45c-.03-.33-.18-.6-.43-.78-.25-.19-.59-.28-1.03-.28-.29,0-.54.04-.74.12-.2.08-.36.19-.46.34-.11.14-.16.31-.16.49,0,.15.03.28.1.4.07.11.17.21.29.29.12.08.27.15.43.21.16.06.34.11.52.15l.76.18c.37.08.71.19,1.02.33.31.14.58.31.81.51.23.2.4.44.53.71.13.27.19.59.19.94,0,.52-.13.97-.4,1.35s-.64.68-1.13.88-1.08.31-1.77.31-1.28-.11-1.79-.32c-.51-.21-.9-.52-1.19-.94-.28-.41-.43-.93-.45-1.54h1.74c.02.28.1.52.25.71.15.19.34.33.58.43.25.1.52.14.83.14s.57-.04.79-.13c.23-.09.4-.21.52-.37.12-.16.19-.34.19-.54,0-.19-.06-.35-.17-.48-.11-.13-.28-.24-.49-.33-.21-.09-.48-.17-.79-.25l-.93-.23c-.72-.17-1.28-.45-1.7-.82-.42-.37-.62-.87-.62-1.5,0-.51.14-.96.41-1.35.28-.38.66-.69,1.15-.9.49-.22,1.04-.32,1.66-.32s1.18.11,1.65.32.84.52,1.1.9c.26.38.4.83.41,1.34h-1.72Z"/><path class="o" d="m199.27,31.45c-.03-.33-.18-.6-.43-.78-.25-.19-.59-.28-1.03-.28-.29,0-.54.04-.74.12-.2.08-.36.19-.46.34-.11.14-.16.31-.16.49,0,.15.03.28.1.4.07.11.17.21.29.29.12.08.27.15.43.21.16.06.34.11.52.15l.76.18c.37.08.71.19,1.02.33.31.14.58.31.81.51.23.2.4.44.53.71.13.27.19.59.19.94,0,.52-.13.97-.4,1.35s-.64.68-1.13.88-1.08.31-1.77.31-1.28-.11-1.79-.32c-.51-.21-.9-.52-1.19-.94-.28-.41-.43-.93-.45-1.54h1.74c.02.28.1.52.25.71.15.19.34.33.58.43.25.1.52.14.83.14s.57-.04.79-.13c.23-.09.4-.21.52-.37.12-.16.19-.34.19-.54,0-.19-.06-.35-.17-.48-.11-.13-.28-.24-.49-.33-.21-.09-.48-.17-.79-.25l-.93-.23c-.72-.17-1.28-.45-1.7-.82-.42-.37-.62-.87-.62-1.5,0-.51.13-.96.41-1.35.28-.38.66-.69,1.15-.9s1.04-.32,1.66-.32,1.18.11,1.65.32.84.52,1.1.9c.26.38.4.83.41,1.34h-1.72Z"/><path class="o" d="m201.61,37.51v-8.5h1.8v3.51h3.65v-3.51h1.79v8.5h-1.79v-3.51h-3.65v3.51h-1.8Z"/></g><g><path class="o" d="m54.96,37.64v-8.5h1.8v3.51h3.65v-3.51h1.79v8.5h-1.79v-3.51h-3.65v3.51h-1.8Z"/><path class="o" d="m62.66,30.62v-1.48h6.98v1.48h-2.6v7.02h-1.78v-7.02h-2.6Z"/><path class="o" d="m69.77,30.62v-1.48h6.98v1.48h-2.6v7.02h-1.78v-7.02h-2.6Z"/><path class="o" d="m77.2,37.64v-8.5h3.35c.65,0,1.19.12,1.65.37.45.24.8.58,1.04,1.02.24.43.36.93.36,1.5s-.12,1.06-.37,1.49-.6.77-1.06,1.01c-.46.24-1.02.36-1.67.36h-2.14v-1.44h1.85c.35,0,.63-.06.86-.18.23-.12.39-.29.51-.5.11-.21.17-.46.17-.74s-.06-.53-.17-.74c-.11-.21-.28-.38-.51-.49s-.51-.18-.86-.18h-1.21v7.03h-1.8Z"/><path class="o" d="m88.68,31.59c-.03-.33-.18-.6-.43-.78-.25-.19-.59-.28-1.03-.28-.29,0-.54.04-.74.12-.2.08-.36.19-.46.34-.11.14-.16.31-.16.49,0,.15.03.28.1.4.07.11.17.21.29.29s.27.15.43.21.34.11.52.15l.76.18c.37.08.71.19,1.02.33.31.14.58.31.81.51.23.2.4.44.53.71s.19.59.19.94c0,.52-.13.97-.4,1.35-.26.38-.64.68-1.13.88s-1.08.31-1.77.31-1.28-.11-1.79-.32c-.51-.21-.9-.52-1.19-.94-.28-.41-.43-.93-.45-1.54h1.74c.02.28.1.52.25.71.15.19.34.33.59.43.24.1.52.14.83.14s.57-.04.79-.13c.23-.09.4-.21.53-.37s.19-.34.19-.54c0-.19-.06-.35-.17-.48-.11-.13-.28-.24-.49-.33-.21-.09-.48-.17-.79-.25l-.93-.23c-.72-.17-1.28-.45-1.7-.82-.42-.37-.62-.87-.62-1.5,0-.51.14-.96.41-1.35.28-.38.66-.69,1.15-.9.49-.22,1.04-.32,1.66-.32s1.18.11,1.65.32.84.52,1.1.9.4.83.41,1.34h-1.72Z"/></g><g><path class="o" d="m331.17,278.85v8.5h-1.8v-8.5h1.8Z"/><path class="o" d="m333.68,283.66v3.69h-1.77v-6.38h1.68v1.12h.08c.14-.37.38-.67.71-.88.33-.22.73-.33,1.21-.33.44,0,.83.1,1.16.29.33.19.58.47.77.83s.27.79.27,1.28v4.06h-1.77v-3.74c0-.39-.1-.7-.3-.92-.2-.22-.48-.33-.83-.33-.24,0-.45.05-.63.15-.18.1-.32.25-.42.45-.1.2-.15.43-.16.7Z"/><path class="o" d="m341.87,280.97v1.33h-3.84v-1.33h3.84Zm-2.97-1.53h1.77v5.94c0,.16.02.29.07.38s.12.15.21.19.19.05.31.05c.08,0,.17,0,.25-.02s.15-.03.19-.04l.28,1.32c-.09.03-.21.06-.37.1-.16.04-.36.06-.58.07-.43.02-.8-.04-1.12-.17s-.57-.33-.75-.61c-.18-.27-.26-.62-.26-1.04v-6.18Z"/><path class="o" d="m345.16,287.48c-.66,0-1.22-.13-1.69-.4-.47-.27-.83-.65-1.09-1.14s-.38-1.07-.38-1.75.13-1.23.38-1.73.61-.88,1.08-1.16,1.01-.42,1.63-.42c.42,0,.81.07,1.18.2.36.13.68.34.96.6.27.27.48.61.64,1.01s.23.88.23,1.42v.49h-5.38v-1.1h3.72c0-.25-.05-.48-.17-.68-.11-.2-.26-.35-.46-.46-.2-.11-.42-.17-.68-.17s-.51.06-.71.18c-.21.12-.37.29-.48.49s-.18.43-.18.69v1.04c0,.32.06.59.18.82.12.23.28.41.5.53.22.12.47.19.77.19.2,0,.38-.03.54-.08.16-.06.3-.14.42-.25.12-.11.2-.25.27-.41l1.64.11c-.08.39-.25.74-.51,1.03s-.59.52-.99.68-.87.24-1.39.24Z"/><path class="o" d="m348.54,287.35v-6.38h1.71v1.11h.07c.12-.4.31-.7.58-.9.27-.2.59-.31.95-.31.09,0,.18,0,.29.02.1.01.19.03.27.05v1.57c-.08-.03-.2-.05-.34-.07-.15-.02-.28-.03-.4-.03-.26,0-.49.06-.7.17-.2.11-.36.27-.48.47s-.18.43-.18.69v3.61h-1.77Z"/><path class="o" d="m354.38,283.66v3.69h-1.77v-6.38h1.68v1.12h.08c.14-.37.38-.67.71-.88.33-.22.73-.33,1.21-.33.44,0,.83.1,1.16.29.33.19.58.47.77.83s.27.79.27,1.28v4.06h-1.77v-3.74c0-.39-.1-.7-.3-.92-.2-.22-.48-.33-.83-.33-.24,0-.45.05-.63.15-.18.1-.32.25-.42.45-.1.2-.15.43-.16.7Z"/><path class="o" d="m362.09,287.48c-.66,0-1.22-.13-1.69-.4-.47-.27-.83-.65-1.09-1.14s-.38-1.07-.38-1.75.13-1.23.38-1.73.61-.88,1.08-1.16,1.01-.42,1.63-.42c.42,0,.81.07,1.18.2.36.13.68.34.96.6.27.27.48.61.64,1.01s.23.88.23,1.42v.49h-5.38v-1.1h3.72c0-.25-.05-.48-.17-.68-.11-.2-.26-.35-.46-.46-.2-.11-.42-.17-.68-.17s-.51.06-.71.18c-.21.12-.37.29-.48.49s-.18.43-.18.69v1.04c0,.32.06.59.18.82.12.23.28.41.5.53.22.12.47.19.77.19.2,0,.38-.03.54-.08.16-.06.3-.14.42-.25.12-.11.2-.25.27-.41l1.64.11c-.08.39-.25.74-.51,1.03s-.59.52-.99.68-.87.24-1.39.24Z"/><path class="o" d="m368.86,280.97v1.33h-3.84v-1.33h3.84Zm-2.97-1.53h1.77v5.94c0,.16.02.29.07.38s.12.15.21.19.19.05.31.05c.08,0,.17,0,.25-.02s.15-.03.19-.04l.28,1.32c-.09.03-.21.06-.37.1-.16.04-.36.06-.58.07-.43.02-.8-.04-1.12-.17s-.57-.33-.75-.61c-.18-.27-.26-.62-.26-1.04v-6.18Z"/></g><g><line class="k" x1="97.12" y1="32.35" x2="111.53" y2="32.35"/><polygon class="o" points="115.06 32.35 110.08 34.39 111.26 32.35 110.08 30.32 115.06 32.35"/></g><g><line class="k" x1="165.76" y1="32.35" x2="181.95" y2="32.35"/><polygon class="o" points="162.23 32.35 167.21 34.39 166.02 32.35 167.21 30.32 162.23 32.35"/></g><g><line class="b" x1="72.6" y1="41.29" x2="72.6" y2="114.94"/><polygon class="o" points="72.6 122 68.54 112.05 72.6 114.41 76.67 112.05 72.6 122"/></g><g><line class="b" x1="196.25" y1="41.29" x2="196.25" y2="114.94"/><polygon class="o" points="196.25 122 192.18 112.05 196.25 114.41 200.31 112.05 196.25 122"/></g><g><polyline class="b" points="72.6 189.46 72.6 239.7 86.34 239.7"/><polygon class="o" points="72.6 182.4 68.54 192.35 72.6 189.98 76.67 192.35 72.6 182.4"/><polygon class="o" points="93.4 239.7 83.46 243.77 85.82 239.7 83.46 235.64 93.4 239.7"/></g><g><polyline class="b" points="196.25 189.46 196.25 237.86 189.33 237.86"/><polygon class="o" points="196.25 182.4 192.18 192.35 196.25 189.98 200.31 192.35 196.25 182.4"/><polygon class="o" points="182.27 237.86 192.22 233.8 189.86 237.86 192.22 241.93 182.27 237.86"/></g><g><line class="b" x1="137.84" y1="260.6" x2="137.84" y2="313.12"/><polygon class="o" points="137.84 253.54 133.77 263.48 137.84 261.12 141.9 263.48 137.84 253.54"/><polygon class="o" points="137.84 320.18 133.77 310.23 137.84 312.59 141.9 310.23 137.84 320.18"/></g><g><line class="b" x1="189.33" y1="246.96" x2="303.49" y2="246.96"/><polygon class="o" points="182.27 246.96 192.22 251.02 189.86 246.96 192.22 242.89 182.27 246.96"/><polygon class="o" points="310.55 246.96 300.6 251.02 302.96 246.96 300.6 242.89 310.55 246.96"/></g><rect class="h" x=".5" y="296.93" width="397.43" height="85.95" rx="15.42" ry="15.42"/><g><path class="m" d="m232.26,300.95v-.87h6.08v.87h-2.55v7.24h-.98v-7.24h-2.55Z"/><path class="m" d="m240.65,308.31c-.55,0-1.03-.13-1.44-.39-.41-.26-.74-.63-.97-1.1-.23-.47-.35-1.02-.35-1.65s.12-1.19.35-1.66c.23-.47.55-.84.97-1.1.41-.26.89-.39,1.44-.39s1.03.13,1.44.39c.41.26.74.63.97,1.1.23.47.35,1.03.35,1.66s-.12,1.18-.35,1.65c-.23.47-.55.83-.97,1.1s-.89.39-1.44.39Zm0-.84c.42,0,.76-.11,1.03-.32s.47-.5.6-.84c.13-.35.19-.73.19-1.13s-.06-.79-.19-1.14c-.13-.35-.33-.63-.6-.85s-.61-.33-1.03-.33-.76.11-1.03.33c-.27.22-.47.5-.6.85-.13.35-.19.73-.19,1.14s.06.78.19,1.13c.13.35.33.63.6.84.27.21.61.32,1.03.32Z"/><path class="m" d="m244.16,310.47v-8.37h.9v.97h.11c.07-.11.16-.24.29-.41s.3-.31.53-.44c.23-.13.54-.2.94-.2.51,0,.96.13,1.35.38.39.26.7.62.92,1.09.22.47.33,1.02.33,1.66s-.11,1.2-.33,1.67c-.22.47-.52.84-.91,1.09-.39.26-.84.39-1.34.39-.39,0-.7-.07-.94-.2-.24-.13-.42-.28-.54-.45-.13-.17-.22-.31-.29-.42h-.08v3.22h-.94Zm.92-5.32c0,.46.07.86.2,1.21.13.35.33.62.59.82.26.2.58.29.95.29s.72-.1.98-.31c.26-.21.46-.49.59-.84.13-.35.2-.75.2-1.18s-.07-.81-.2-1.16-.33-.62-.59-.82c-.26-.2-.59-.3-.99-.3s-.7.1-.96.29-.45.46-.59.8c-.13.34-.2.74-.2,1.19Z"/><path class="m" d="m252.76,308.31c-.55,0-1.03-.13-1.44-.39-.41-.26-.74-.63-.97-1.1-.23-.47-.35-1.02-.35-1.65s.12-1.19.35-1.66c.23-.47.55-.84.97-1.1.41-.26.89-.39,1.44-.39s1.03.13,1.44.39c.41.26.74.63.97,1.1.23.47.35,1.03.35,1.66s-.12,1.18-.35,1.65c-.23.47-.55.83-.97,1.1s-.89.39-1.44.39Zm0-.84c.42,0,.76-.11,1.03-.32s.47-.5.6-.84c.13-.35.19-.73.19-1.13s-.06-.79-.19-1.14c-.13-.35-.33-.63-.6-.85s-.61-.33-1.03-.33-.76.11-1.03.33c-.27.22-.47.5-.6.85-.13.35-.19.73-.19,1.14s.06.78.19,1.13c.13.35.33.63.6.84.27.21.61.32,1.03.32Z"/><path class="m" d="m257.21,300.07v8.11h-.94v-8.11h.94Z"/><path class="m" d="m260.73,308.31c-.55,0-1.03-.13-1.44-.39-.41-.26-.74-.63-.97-1.1-.23-.47-.35-1.02-.35-1.65s.12-1.19.35-1.66c.23-.47.55-.84.97-1.1.41-.26.89-.39,1.44-.39s1.03.13,1.44.39c.41.26.74.63.97,1.1.23.47.35,1.03.35,1.66s-.12,1.18-.35,1.65c-.23.47-.55.83-.97,1.1s-.89.39-1.44.39Zm0-.84c.42,0,.76-.11,1.03-.32s.47-.5.6-.84c.13-.35.19-.73.19-1.13s-.06-.79-.19-1.14c-.13-.35-.33-.63-.6-.85s-.61-.33-1.03-.33-.76.11-1.03.33c-.27.22-.47.5-.6.85-.13.35-.19.73-.19,1.14s.06.78.19,1.13c.13.35.33.63.6.84.27.21.61.32,1.03.32Z"/><path class="m" d="m266.7,310.6c-.45,0-.84-.06-1.16-.17-.33-.12-.59-.27-.81-.45-.21-.19-.39-.38-.51-.6l.75-.52c.08.11.19.24.32.38.13.14.31.27.53.38.23.11.52.16.89.16.49,0,.9-.12,1.22-.36.32-.24.48-.61.48-1.12v-1.24h-.08c-.07.11-.17.25-.29.41-.12.16-.3.31-.54.43-.23.12-.55.19-.95.19-.49,0-.93-.12-1.32-.35s-.7-.57-.92-1.01c-.23-.44-.34-.98-.34-1.62s.11-1.17.33-1.63c.22-.46.52-.82.92-1.08s.84-.38,1.35-.38c.4,0,.71.07.95.2s.41.28.54.44c.12.17.22.3.29.41h.09v-.97h.9v6.26c0,.52-.12.95-.35,1.28-.24.33-.55.57-.95.72s-.84.23-1.33.23Zm-.03-3.34c.38,0,.69-.09.95-.26.26-.17.46-.42.59-.74.13-.32.2-.71.2-1.16s-.07-.83-.2-1.16c-.13-.33-.33-.6-.59-.79s-.58-.29-.96-.29-.73.1-.99.3c-.26.2-.46.47-.59.81-.13.34-.2.71-.2,1.12s.07.8.2,1.12c.13.32.33.58.59.76s.59.28.98.28Z"/><path class="m" d="m270.97,310.47c-.16,0-.3-.01-.42-.04-.12-.03-.21-.05-.26-.07l.24-.82c.23.06.43.08.6.06.17-.02.33-.09.46-.23.14-.14.26-.36.38-.67l.17-.48-2.25-6.12h1.01l1.68,4.85h.06l1.68-4.85h1.01l-2.58,6.97c-.12.31-.26.57-.43.78-.17.21-.37.36-.6.46-.23.1-.48.15-.76.15Z"/><path class="m" d="m279.49,300.07v8.11h-.98v-8.11h.98Z"/><path class="m" d="m281.59,304.53v3.66h-.94v-6.08h.9v.95h.08c.14-.31.36-.56.65-.75.29-.19.67-.28,1.12-.28.41,0,.77.08,1.08.25.31.17.55.42.72.76.17.34.26.77.26,1.29v3.87h-.93v-3.8c0-.48-.12-.85-.37-1.12-.25-.27-.59-.4-1.02-.4-.3,0-.56.06-.8.19-.23.13-.42.32-.55.57s-.2.55-.2.9Z"/><path class="m" d="m290.83,303.47l-.84.24c-.05-.14-.13-.28-.23-.41-.1-.13-.24-.24-.41-.33-.17-.09-.4-.13-.67-.13-.37,0-.68.08-.93.25-.25.17-.37.39-.37.65,0,.23.08.42.25.55s.43.25.79.34l.9.22c.54.13.95.33,1.22.6s.4.62.4,1.04c0,.35-.1.66-.3.93s-.48.49-.83.65c-.36.16-.77.24-1.24.24-.62,0-1.13-.13-1.54-.4-.41-.27-.67-.66-.77-1.18l.89-.22c.08.33.25.57.48.74.24.16.55.25.93.25.44,0,.78-.09,1.04-.28.26-.19.39-.41.39-.67,0-.21-.07-.39-.22-.53-.15-.14-.38-.25-.68-.32l-1.01-.24c-.56-.13-.97-.34-1.23-.62-.26-.28-.39-.63-.39-1.05,0-.34.1-.65.29-.91.19-.26.46-.47.8-.62s.72-.23,1.15-.23c.6,0,1.08.13,1.42.4.34.26.59.61.74,1.05Z"/><path class="m" d="m294.32,302.1v.79h-3.15v-.79h3.15Zm-2.23-1.46h.93v5.8c0,.26.04.46.12.59.08.13.18.22.3.26.12.04.25.07.39.07.1,0,.19,0,.25-.02.07-.01.12-.02.16-.03l.19.84c-.06.02-.15.05-.27.07-.11.02-.26.04-.43.04-.26,0-.52-.06-.77-.17-.25-.11-.46-.29-.63-.52s-.25-.53-.25-.88v-6.05Z"/><path class="m" d="m296.86,308.33c-.39,0-.74-.07-1.05-.22s-.56-.36-.75-.64c-.18-.28-.28-.62-.28-1.01,0-.35.07-.63.21-.85.14-.22.32-.39.55-.51s.48-.22.76-.28.56-.11.84-.15c.37-.05.67-.08.9-.11.23-.02.4-.07.51-.13.11-.06.16-.17.16-.32v-.03c0-.39-.11-.69-.32-.91-.21-.22-.53-.33-.96-.33s-.8.1-1.05.29c-.25.2-.43.4-.53.63l-.89-.32c.16-.37.37-.66.64-.87s.56-.35.87-.44.63-.12.93-.12c.2,0,.42.02.67.07s.5.14.74.28.44.36.6.65c.16.29.24.67.24,1.16v4.01h-.94v-.82h-.05c-.06.13-.17.27-.32.42-.15.15-.34.28-.59.38-.25.11-.55.16-.9.16Zm.14-.84c.37,0,.68-.07.94-.22s.45-.33.58-.56c.13-.23.2-.47.2-.72v-.86s-.13.09-.26.13c-.13.04-.29.07-.46.1-.17.03-.34.05-.5.07-.16.02-.29.04-.39.05-.24.03-.47.08-.68.15-.21.07-.38.17-.51.31-.13.14-.19.33-.19.56,0,.33.12.57.36.74.24.17.55.25.92.25Z"/><path class="m" d="m301.62,304.53v3.66h-.94v-6.08h.9v.95h.08c.14-.31.36-.56.65-.75.29-.19.67-.28,1.12-.28.41,0,.77.08,1.08.25.31.17.55.42.72.76.17.34.26.77.26,1.29v3.87h-.93v-3.8c0-.48-.12-.85-.37-1.12-.25-.27-.59-.4-1.02-.4-.3,0-.56.06-.8.19-.23.13-.42.32-.55.57s-.2.55-.2.9Z"/><path class="m" d="m309.02,308.31c-.57,0-1.06-.13-1.47-.4s-.73-.64-.95-1.11c-.22-.47-.33-1.01-.33-1.62s.11-1.16.34-1.64c.23-.47.55-.85.96-1.11.41-.27.89-.4,1.44-.4.43,0,.81.08,1.16.24.34.16.62.38.84.67.22.29.36.62.41,1h-.93c-.07-.28-.23-.52-.47-.74-.24-.22-.57-.32-.98-.32-.36,0-.68.09-.96.28-.27.19-.49.45-.64.8-.15.34-.23.74-.23,1.2s.08.88.22,1.23c.15.35.36.62.63.81.27.19.6.29.96.29.24,0,.46-.04.66-.13.2-.08.37-.21.5-.36.14-.16.23-.35.29-.57h.93c-.05.36-.18.68-.39.97-.21.29-.48.51-.82.68-.34.17-.73.25-1.18.25Z"/><path class="m" d="m314.65,308.31c-.59,0-1.09-.13-1.52-.39-.42-.26-.75-.62-.98-1.09s-.34-1.01-.34-1.64.11-1.17.34-1.65.55-.85.96-1.12c.41-.27.89-.4,1.44-.4.32,0,.63.05.94.16.31.11.59.28.84.51.25.24.46.55.61.94.15.39.23.87.23,1.43v.4h-4.69v-.81h3.74c0-.34-.07-.65-.2-.92-.14-.27-.33-.48-.58-.64-.25-.16-.54-.23-.88-.23-.37,0-.69.09-.96.28-.27.18-.48.42-.62.71s-.22.61-.22.94v.54c0,.46.08.85.24,1.17s.38.56.67.72.62.25.99.25c.25,0,.47-.04.67-.11.2-.07.37-.17.52-.32.14-.14.26-.32.34-.53l.9.25c-.09.31-.25.58-.48.81-.22.23-.5.41-.83.54s-.7.19-1.11.19Z"/><path class="m" d="m320.53,300.07h1.17l2.76,6.73h.09l2.76-6.73h1.17v8.11h-.92v-6.16h-.08l-2.54,6.16h-.89l-2.54-6.16h-.08v6.16h-.92v-8.11Z"/><path class="m" d="m331.44,308.33c-.38,0-.74-.07-1.05-.22-.31-.15-.56-.36-.75-.64s-.28-.62-.28-1.01c0-.35.07-.63.21-.85.14-.22.32-.39.55-.51.23-.12.48-.22.76-.28.28-.06.56-.11.84-.15.37-.05.67-.08.9-.11.23-.02.4-.07.51-.13.11-.06.16-.17.16-.32v-.03c0-.39-.11-.69-.32-.91-.21-.22-.53-.33-.96-.33s-.8.1-1.05.29c-.25.2-.43.4-.54.63l-.89-.32c.16-.37.37-.66.64-.87.27-.21.56-.35.87-.44s.63-.12.93-.12c.2,0,.42.02.68.07s.5.14.74.28c.24.14.44.36.6.65.16.29.24.67.24,1.16v4.01h-.93v-.82h-.05c-.06.13-.17.27-.32.42-.15.15-.34.28-.59.38-.25.11-.54.16-.9.16Zm.14-.84c.37,0,.68-.07.94-.22s.45-.33.58-.56.2-.47.2-.72v-.86s-.13.09-.26.13c-.13.04-.29.07-.46.1-.17.03-.34.05-.5.07-.16.02-.29.04-.39.05-.24.03-.47.08-.68.15-.21.07-.38.17-.51.31s-.19.33-.19.56c0,.33.12.57.36.74.24.17.55.25.92.25Z"/><path class="m" d="m336.2,304.53v3.66h-.93v-6.08h.9v.95h.08c.14-.31.36-.56.65-.75.29-.19.67-.28,1.12-.28.41,0,.77.08,1.08.25.31.17.55.42.72.76.17.34.26.77.26,1.29v3.87h-.94v-3.8c0-.48-.12-.85-.37-1.12-.25-.27-.59-.4-1.02-.4-.3,0-.56.06-.8.19-.23.13-.42.32-.55.57s-.2.55-.2.9Z"/><path class="m" d="m342.92,308.33c-.39,0-.74-.07-1.05-.22s-.56-.36-.75-.64c-.18-.28-.28-.62-.28-1.01,0-.35.07-.63.21-.85.14-.22.32-.39.55-.51s.48-.22.76-.28.56-.11.84-.15c.37-.05.67-.08.9-.11.23-.02.4-.07.51-.13.11-.06.16-.17.16-.32v-.03c0-.39-.11-.69-.32-.91-.21-.22-.53-.33-.96-.33s-.8.1-1.05.29c-.25.2-.43.4-.53.63l-.89-.32c.16-.37.37-.66.64-.87s.56-.35.87-.44.63-.12.93-.12c.2,0,.42.02.67.07s.5.14.74.28.44.36.6.65c.16.29.24.67.24,1.16v4.01h-.94v-.82h-.05c-.06.13-.17.27-.32.42-.15.15-.34.28-.59.38-.25.11-.55.16-.9.16Zm.14-.84c.37,0,.68-.07.94-.22s.45-.33.58-.56c.13-.23.2-.47.2-.72v-.86s-.13.09-.26.13c-.13.04-.29.07-.46.1-.17.03-.34.05-.5.07-.16.02-.29.04-.39.05-.24.03-.47.08-.68.15-.21.07-.38.17-.51.31-.13.14-.19.33-.19.56,0,.33.12.57.36.74.24.17.55.25.92.25Z"/><path class="m" d="m349.21,310.6c-.45,0-.84-.06-1.17-.17-.32-.12-.59-.27-.81-.45-.22-.19-.39-.38-.51-.6l.75-.52c.08.11.19.24.32.38.13.14.31.27.53.38.23.11.52.16.89.16.49,0,.9-.12,1.22-.36.32-.24.48-.61.48-1.12v-1.24h-.08c-.07.11-.17.25-.29.41-.13.16-.3.31-.54.43-.23.12-.55.19-.94.19-.49,0-.93-.12-1.32-.35s-.7-.57-.92-1.01c-.23-.44-.34-.98-.34-1.62s.11-1.17.33-1.63c.22-.46.52-.82.92-1.08.39-.25.84-.38,1.35-.38.4,0,.71.07.94.2.23.13.41.28.54.44s.22.3.29.41h.1v-.97h.9v6.26c0,.52-.12.95-.35,1.28-.24.33-.55.57-.95.72s-.84.23-1.33.23Zm-.03-3.34c.37,0,.69-.09.95-.26s.46-.42.59-.74c.13-.32.2-.71.2-1.16s-.07-.83-.2-1.16c-.13-.33-.33-.6-.59-.79s-.58-.29-.96-.29-.73.1-.99.3c-.26.2-.46.47-.59.81s-.2.71-.2,1.12.07.8.2,1.12.33.58.59.76c.26.18.59.28.98.28Z"/><path class="m" d="m352.88,308.19v-6.08h.9v.95h.08c.13-.33.33-.58.61-.76.28-.18.62-.27,1.02-.27s.74.09,1,.27.48.43.63.76h.06c.16-.31.39-.56.7-.75s.69-.28,1.12-.28c.54,0,.99.17,1.33.51.35.34.52.87.52,1.58v4.07h-.93v-4.07c0-.45-.12-.77-.37-.96-.25-.19-.54-.29-.87-.29-.43,0-.76.13-.99.39-.24.26-.35.58-.35.98v3.96h-.95v-4.17c0-.35-.11-.63-.34-.84-.22-.21-.51-.32-.87-.32-.24,0-.47.06-.68.19-.21.13-.38.31-.51.54-.13.23-.19.49-.19.79v3.8h-.94Z"/><path class="m" d="m364.46,308.31c-.59,0-1.09-.13-1.52-.39-.42-.26-.75-.62-.98-1.09s-.34-1.01-.34-1.64.11-1.17.34-1.65.55-.85.96-1.12c.41-.27.89-.4,1.44-.4.32,0,.63.05.94.16.31.11.59.28.84.51.25.24.46.55.61.94.15.39.23.87.23,1.43v.4h-4.69v-.81h3.74c0-.34-.07-.65-.2-.92-.14-.27-.33-.48-.58-.64-.25-.16-.54-.23-.88-.23-.37,0-.69.09-.96.28-.27.18-.48.42-.62.71s-.22.61-.22.94v.54c0,.46.08.85.24,1.17s.38.56.67.72.62.25.99.25c.25,0,.47-.04.67-.11.2-.07.37-.17.52-.32.14-.14.26-.32.34-.53l.9.25c-.09.31-.25.58-.48.81-.22.23-.5.41-.83.54s-.7.19-1.11.19Z"/><path class="m" d="m368.67,304.53v3.66h-.94v-6.08h.9v.95h.08c.14-.31.36-.56.65-.75.29-.19.67-.28,1.12-.28.41,0,.77.08,1.08.25.31.17.55.42.72.76.17.34.26.77.26,1.29v3.87h-.93v-3.8c0-.48-.12-.85-.37-1.12-.25-.27-.59-.4-1.02-.4-.3,0-.56.06-.8.19-.23.13-.42.32-.55.57s-.2.55-.2.9Z"/><path class="m" d="m376.24,302.1v.79h-3.15v-.79h3.15Zm-2.23-1.46h.93v5.8c0,.26.04.46.12.59.08.13.18.22.3.26.12.04.25.07.39.07.1,0,.19,0,.25-.02.07-.01.12-.02.16-.03l.19.84c-.06.02-.15.05-.27.07-.11.02-.26.04-.43.04-.26,0-.52-.06-.77-.17-.25-.11-.46-.29-.63-.52s-.25-.53-.25-.88v-6.05Z"/></g><rect class="d" x="35.36" y="481.61" width="39.44" height="36.57" rx="2.71" ry="2.71"/><rect class="d" x="203.87" y="481.85" width="39.44" height="36.57" rx="2.71" ry="2.71"/><rect class="c" x="119.49" y="414.69" width="39.44" height="36.57" rx="2.71" ry="2.71"/><rect class="c" x="35.36" y="556.01" width="39.44" height="36.57" rx="2.71" ry="2.71"/><rect class="c" x="203.87" y="556.25" width="39.44" height="36.57" rx="2.71" ry="2.71"/><rect class="d" x="35.36" y="630.77" width="39.44" height="36.57" rx="2.71" ry="2.71"/><rect class="d" x="203.87" y="630.89" width="39.44" height="36.57" rx="2.71" ry="2.71"/><g><path class="o" d="m129.52,436.74l-2-6.98h1.61l1.16,4.85h.06l1.27-4.85h1.38l1.27,4.86h.06l1.16-4.86h1.61l-2,6.98h-1.44l-1.33-4.56h-.05l-1.33,4.56h-1.44Z"/><path class="o" d="m137.8,436.74h-1.58l2.41-6.98h1.9l2.41,6.98h-1.58l-1.75-5.38h-.05l-1.75,5.38Zm-.1-2.74h3.73v1.15h-3.73v-1.15Z"/><path class="o" d="m149.04,429.76v6.98h-1.27l-3.04-4.39h-.05v4.39h-1.48v-6.98h1.29l3.01,4.39h.06v-4.39h1.47Z"/></g><g><path class="m" d="m41.76,503.54v-6.98h2.75c.53,0,.98.09,1.35.28s.66.45.86.79c.2.34.29.74.29,1.2s-.1.86-.3,1.19c-.2.33-.49.59-.87.77-.38.18-.84.27-1.37.27h-1.84v-1.19h1.6c.28,0,.52-.04.7-.12.19-.08.33-.19.42-.35.09-.15.14-.35.14-.58s-.05-.43-.14-.59c-.09-.16-.23-.28-.42-.36s-.42-.12-.71-.12h-1v5.77h-1.48Zm3.77-3.18l1.73,3.18h-1.63l-1.7-3.18h1.59Z"/><path class="m" d="m49.73,503.64c-.53,0-.99-.11-1.37-.34-.39-.23-.68-.54-.89-.95-.21-.41-.31-.88-.31-1.41s.1-1.01.31-1.42.51-.72.89-.95c.38-.23.84-.34,1.37-.34s.99.11,1.37.34c.38.23.68.54.89.95.21.41.31.88.31,1.42s-.1,1.01-.31,1.41c-.21.41-.51.72-.89.95-.39.23-.84.34-1.37.34Zm0-1.12c.24,0,.44-.07.6-.21.16-.14.28-.33.37-.56.08-.24.12-.51.12-.81s-.04-.58-.12-.81c-.08-.24-.21-.43-.37-.57-.16-.14-.36-.21-.6-.21s-.45.07-.61.21c-.16.14-.29.33-.37.57-.08.24-.12.51-.12.81s.04.58.12.81c.08.24.21.43.37.56s.37.21.61.21Z"/><path class="m" d="m56.03,501.31v-3.01h1.45v5.23h-1.39v-.95h-.05c-.12.31-.31.55-.59.74-.27.19-.61.28-1,.28-.35,0-.66-.08-.92-.24-.27-.16-.47-.39-.62-.68-.15-.29-.22-.64-.23-1.05v-3.33h1.45v3.07c0,.31.09.55.25.73s.38.27.66.27c.17,0,.34-.04.49-.12.15-.08.28-.2.37-.36.09-.16.14-.36.14-.59Z"/><path class="m" d="m60.85,498.31v1.09h-3.15v-1.09h3.15Zm-2.44-1.25h1.45v4.88c0,.13.02.24.06.31.04.07.1.13.17.16s.16.04.26.04c.07,0,.14,0,.2-.02.07-.01.12-.02.16-.03l.23,1.08c-.07.02-.17.05-.31.08-.13.03-.29.05-.48.06-.35.01-.66-.03-.92-.14-.26-.11-.47-.27-.61-.5-.15-.23-.22-.51-.21-.85v-5.07Z"/><path class="m" d="m63.55,503.64c-.54,0-1-.11-1.39-.33-.39-.22-.69-.53-.89-.93s-.31-.88-.31-1.43.1-1.01.31-1.42.5-.72.88-.95c.38-.23.83-.34,1.34-.34.35,0,.67.05.97.17.3.11.56.28.78.5.22.22.4.5.52.83s.19.72.19,1.17v.4h-4.42v-.9h3.05c0-.21-.05-.39-.14-.55-.09-.16-.22-.29-.38-.38-.16-.09-.35-.14-.56-.14s-.42.05-.58.15c-.17.1-.3.24-.4.41-.1.17-.14.36-.15.56v.86c0,.26.05.48.14.67.1.19.23.33.41.44s.39.15.63.15c.16,0,.31-.02.44-.07.13-.04.25-.11.34-.2.1-.09.17-.2.22-.33l1.34.09c-.07.32-.21.6-.42.84-.21.24-.48.43-.81.56-.33.13-.71.2-1.14.2Z"/><path class="m" d="m66.32,503.54v-5.23h1.41v.91h.05c.1-.32.26-.57.48-.74.23-.17.48-.25.78-.25.07,0,.15,0,.24.01.08,0,.16.02.22.04v1.29c-.07-.02-.16-.04-.28-.05-.12-.02-.23-.02-.33-.02-.21,0-.4.05-.57.14-.17.09-.3.22-.4.38-.1.16-.15.35-.15.57v2.96h-1.45Z"/></g><g><path class="m" d="m209.93,504.01v-6.98h2.75c.53,0,.98.09,1.35.28s.66.45.86.79.29.74.29,1.2-.1.86-.3,1.19c-.2.33-.49.59-.87.77-.38.18-.84.27-1.37.27h-1.84v-1.19h1.61c.28,0,.52-.04.7-.12.19-.08.33-.19.42-.35s.14-.35.14-.58-.05-.43-.14-.59-.23-.28-.42-.36-.42-.12-.71-.12h-1v5.77h-1.48Zm3.77-3.18l1.73,3.18h-1.63l-1.7-3.18h1.59Z"/><path class="m" d="m217.9,504.11c-.53,0-.99-.11-1.37-.34-.38-.23-.68-.54-.89-.95-.21-.41-.31-.88-.31-1.41s.1-1.01.31-1.42.51-.72.89-.95c.39-.23.84-.34,1.37-.34s.99.11,1.37.34c.39.23.68.54.89.95s.31.88.31,1.42-.1,1.01-.31,1.41c-.21.41-.51.72-.89.95-.38.23-.84.34-1.37.34Zm0-1.12c.24,0,.44-.07.6-.21.16-.14.28-.33.37-.56.08-.24.12-.51.12-.81s-.04-.58-.12-.81c-.08-.24-.21-.43-.37-.57-.16-.14-.36-.21-.6-.21s-.45.07-.61.21c-.16.14-.29.33-.37.57-.08.24-.12.51-.12.81s.04.58.12.81c.08.24.21.43.37.56.17.14.37.21.61.21Z"/><path class="m" d="m224.21,501.78v-3.01h1.45v5.23h-1.39v-.95h-.05c-.12.31-.31.55-.59.74-.27.19-.61.28-1,.28-.35,0-.66-.08-.92-.24-.27-.16-.47-.39-.62-.68-.15-.29-.22-.64-.23-1.05v-3.33h1.45v3.07c0,.31.08.55.25.73.16.18.38.27.66.27.17,0,.34-.04.49-.12.15-.08.28-.2.37-.36.09-.16.14-.36.14-.59Z"/><path class="m" d="m229.02,498.78v1.09h-3.15v-1.09h3.15Zm-2.44-1.25h1.45v4.88c0,.13.02.24.06.31.04.07.1.13.17.16.07.03.16.04.26.04.07,0,.14,0,.2-.02.07-.01.12-.02.16-.03l.23,1.08c-.07.02-.17.05-.31.08-.13.03-.29.05-.48.06-.35.01-.66-.03-.92-.14-.26-.11-.47-.27-.61-.5-.15-.23-.22-.51-.21-.85v-5.07Z"/><path class="m" d="m231.72,504.11c-.54,0-1-.11-1.39-.33-.39-.22-.69-.53-.89-.93s-.31-.88-.31-1.43.1-1.01.31-1.42.5-.72.88-.95c.38-.23.83-.34,1.34-.34.35,0,.67.05.97.17s.56.28.78.5c.22.22.4.5.52.83s.19.72.19,1.17v.4h-4.42v-.9h3.05c0-.21-.05-.39-.14-.55-.09-.16-.22-.29-.38-.38-.16-.09-.35-.14-.56-.14s-.42.05-.58.15c-.17.1-.3.24-.4.41-.1.17-.14.36-.15.56v.86c0,.26.05.48.14.67.1.19.23.33.41.44.18.1.39.15.63.15.16,0,.31-.02.44-.07.13-.04.25-.11.34-.2.1-.09.17-.2.22-.33l1.34.09c-.07.32-.21.6-.42.84-.21.24-.48.43-.81.56-.33.13-.71.2-1.14.2Z"/><path class="m" d="m234.5,504.01v-5.23h1.41v.91h.05c.1-.32.26-.57.48-.74s.48-.25.78-.25c.07,0,.15,0,.23.01.08,0,.16.02.22.04v1.29c-.07-.02-.16-.04-.28-.05-.12-.02-.23-.02-.33-.02-.21,0-.4.05-.57.14s-.3.22-.4.38c-.1.16-.14.35-.14.57v2.96h-1.45Z"/></g><g><path class="o" d="m43.29,572v6.98h-1.27l-3.04-4.39h-.05v4.39h-1.48v-6.98h1.29l3.01,4.39h.06v-4.39h1.47Z"/><path class="o" d="m46.28,579.08c-.54,0-1-.11-1.39-.33-.39-.22-.69-.53-.89-.93s-.31-.88-.31-1.43.1-1.01.31-1.42.5-.72.88-.95c.38-.23.83-.34,1.34-.34.35,0,.67.05.97.17.3.11.56.28.78.5.22.22.4.5.52.83s.19.72.19,1.17v.4h-4.42v-.9h3.05c0-.21-.05-.39-.14-.55-.09-.16-.22-.29-.38-.38-.16-.09-.35-.14-.56-.14s-.42.05-.58.15c-.17.1-.3.24-.4.41-.1.17-.14.36-.15.56v.86c0,.26.05.48.14.67.1.19.23.33.41.44s.39.15.63.15c.16,0,.31-.02.44-.07.13-.04.25-.11.34-.2.1-.09.17-.2.22-.33l1.34.09c-.07.32-.21.6-.42.84-.21.24-.48.43-.81.56-.33.13-.71.2-1.14.2Z"/><path class="o" d="m51.84,573.74v1.09h-3.15v-1.09h3.15Zm-2.44-1.25h1.45v4.88c0,.13.02.24.06.31.04.07.1.13.17.16s.16.04.26.04c.07,0,.14,0,.2-.02.07-.01.12-.02.16-.03l.23,1.08c-.07.02-.17.05-.31.08-.13.03-.29.05-.48.06-.35.01-.66-.03-.92-.14-.26-.11-.47-.27-.61-.5-.15-.23-.22-.51-.21-.85v-5.07Z"/><path class="o" d="m53.24,578.97l-1.42-5.23h1.47l.81,3.52h.05l.85-3.52h1.44l.86,3.5h.04l.8-3.5h1.47l-1.42,5.23h-1.54l-.9-3.29h-.06l-.9,3.29h-1.53Z"/><path class="o" d="m62.03,579.08c-.53,0-.99-.11-1.37-.34-.39-.23-.68-.54-.89-.95-.21-.41-.31-.88-.31-1.41s.1-1.01.31-1.42.51-.72.89-.95c.38-.23.84-.34,1.37-.34s.99.11,1.37.34c.38.23.68.54.89.95.21.41.31.88.31,1.42s-.1,1.01-.31,1.41c-.21.41-.51.72-.89.95-.39.23-.84.34-1.37.34Zm0-1.12c.24,0,.44-.07.6-.21.16-.14.28-.33.37-.56.08-.24.12-.51.12-.81s-.04-.58-.12-.81c-.08-.24-.21-.43-.37-.57-.16-.14-.36-.21-.6-.21s-.45.07-.61.21c-.16.14-.29.33-.37.57-.08.24-.12.51-.12.81s.04.58.12.81c.08.24.21.43.37.56s.37.21.61.21Z"/><path class="o" d="m64.97,578.97v-5.23h1.41v.91h.05c.1-.32.26-.57.48-.74.23-.17.48-.25.78-.25.07,0,.15,0,.24.01.08,0,.16.02.22.04v1.29c-.07-.02-.16-.04-.28-.05-.12-.02-.23-.02-.33-.02-.21,0-.4.05-.57.14-.17.09-.3.22-.4.38-.1.16-.15.35-.15.57v2.96h-1.45Z"/><path class="o" d="m68.32,578.97v-6.98h1.45v6.98h-1.45Zm1.32-1.51v-1.74h.21l1.68-1.99h1.67l-2.25,2.63h-.34l-.96,1.1Zm1.96,1.51l-1.54-2.28.97-1.03,2.27,3.31h-1.7Z"/></g><g><path class="o" d="m211.79,572.17v6.98h-1.27l-3.04-4.39h-.05v4.39h-1.48v-6.98h1.29l3.01,4.39h.06v-4.39h1.47Z"/><path class="o" d="m214.79,579.25c-.54,0-1-.11-1.39-.33-.39-.22-.69-.53-.89-.93s-.31-.88-.31-1.43.1-1.01.31-1.42.5-.72.88-.95c.38-.23.83-.34,1.34-.34.35,0,.67.05.97.17s.56.28.78.5c.22.22.4.5.52.83s.19.72.19,1.17v.4h-4.42v-.9h3.05c0-.21-.05-.39-.14-.55-.09-.16-.22-.29-.38-.38-.16-.09-.35-.14-.56-.14s-.42.05-.58.15c-.17.1-.3.24-.4.41-.1.17-.14.36-.15.56v.86c0,.26.05.48.14.67.1.19.23.33.41.44.18.1.39.15.63.15.16,0,.31-.02.44-.07.13-.04.25-.11.34-.2.1-.09.17-.2.22-.33l1.34.09c-.07.32-.21.6-.42.84-.21.24-.48.43-.81.56-.33.13-.71.2-1.14.2Z"/><path class="o" d="m220.34,573.91v1.09h-3.15v-1.09h3.15Zm-2.44-1.25h1.45v4.88c0,.13.02.24.06.31.04.07.1.13.17.16.07.03.16.04.26.04.07,0,.14,0,.2-.02.07-.01.12-.02.16-.03l.23,1.08c-.07.02-.17.05-.31.08-.13.03-.29.05-.48.06-.35.01-.66-.03-.92-.14-.26-.11-.47-.27-.61-.5-.15-.23-.22-.51-.21-.85v-5.07Z"/><path class="o" d="m221.74,579.14l-1.42-5.23h1.47l.81,3.52h.05l.85-3.52h1.44l.86,3.5h.04l.8-3.5h1.46l-1.42,5.23h-1.54l-.9-3.29h-.06l-.9,3.29h-1.53Z"/><path class="o" d="m230.53,579.25c-.53,0-.99-.11-1.37-.34-.38-.23-.68-.54-.89-.95-.21-.41-.31-.88-.31-1.41s.1-1.01.31-1.42.51-.72.89-.95c.39-.23.84-.34,1.37-.34s.99.11,1.37.34c.39.23.68.54.89.95s.31.88.31,1.42-.1,1.01-.31,1.41c-.21.41-.51.72-.89.95-.38.23-.84.34-1.37.34Zm0-1.12c.24,0,.44-.07.6-.21.16-.14.28-.33.37-.56.08-.24.12-.51.12-.81s-.04-.58-.12-.81c-.08-.24-.21-.43-.37-.57-.16-.14-.36-.21-.6-.21s-.45.07-.61.21c-.16.14-.29.33-.37.57-.08.24-.12.51-.12.81s.04.58.12.81c.08.24.21.43.37.56.17.14.37.21.61.21Z"/><path class="o" d="m233.48,579.14v-5.23h1.41v.91h.05c.1-.32.26-.57.48-.74s.48-.25.78-.25c.07,0,.15,0,.23.01.08,0,.16.02.22.04v1.29c-.07-.02-.16-.04-.28-.05-.12-.02-.23-.02-.33-.02-.21,0-.4.05-.57.14s-.3.22-.4.38c-.1.16-.14.35-.14.57v2.96h-1.45Z"/><path class="o" d="m236.82,579.14v-6.98h1.45v6.98h-1.45Zm1.32-1.51v-1.74h.21l1.68-1.99h1.67l-2.25,2.63h-.34l-.96,1.1Zm1.96,1.51l-1.54-2.28.97-1.03,2.27,3.31h-1.7Z"/></g><g><path class="m" d="m45.36,652.89v-6.98h1.48v2.88h3v-2.88h1.47v6.98h-1.47v-2.88h-3v2.88h-1.48Z"/><path class="m" d="m54.28,652.99c-.53,0-.99-.11-1.37-.34-.39-.23-.68-.54-.89-.95-.21-.41-.31-.88-.31-1.41s.1-1.01.31-1.42.51-.72.89-.95c.38-.23.84-.34,1.37-.34s.99.11,1.37.34c.38.23.68.54.89.95.21.41.31.88.31,1.42s-.1,1.01-.31,1.41c-.21.41-.51.72-.89.95-.39.23-.84.34-1.37.34Zm0-1.12c.24,0,.44-.07.6-.21.16-.14.28-.33.37-.56.08-.24.12-.51.12-.81s-.04-.58-.12-.81c-.08-.24-.21-.43-.37-.57-.16-.14-.36-.21-.6-.21s-.45.07-.61.21c-.16.14-.29.33-.37.57-.08.24-.12.51-.12.81s.04.58.12.81c.08.24.21.43.37.56s.37.21.61.21Z"/><path class="m" d="m61.59,649.14l-1.33.08c-.02-.11-.07-.22-.15-.31-.07-.09-.17-.17-.29-.22s-.27-.08-.43-.08c-.23,0-.41.05-.57.14-.15.09-.23.22-.23.38,0,.12.05.23.15.32.1.09.27.16.51.21l.95.19c.51.1.89.27,1.14.5s.38.54.38.91c0,.34-.1.64-.3.9s-.48.46-.82.6-.75.22-1.2.22c-.69,0-1.24-.15-1.65-.43-.41-.29-.65-.68-.72-1.18l1.43-.08c.04.21.15.37.31.48s.38.17.64.17.46-.05.62-.15c.16-.1.23-.23.24-.38,0-.13-.06-.24-.17-.33-.11-.08-.28-.15-.5-.2l-.91-.18c-.51-.1-.89-.28-1.14-.53-.25-.25-.37-.57-.37-.96,0-.34.09-.62.27-.87.18-.24.44-.43.77-.56.33-.13.72-.2,1.17-.2.66,0,1.18.14,1.56.42s.6.66.67,1.14Z"/><path class="m" d="m64.83,647.65v1.09h-3.15v-1.09h3.15Zm-2.44-1.25h1.45v4.88c0,.13.02.24.06.31.04.07.1.13.17.16s.16.04.26.04c.07,0,.14,0,.2-.02.07-.01.12-.02.16-.03l.23,1.08c-.07.02-.17.05-.31.08-.13.03-.29.05-.48.06-.35.01-.66-.03-.92-.14-.26-.11-.47-.27-.61-.5-.15-.23-.22-.51-.21-.85v-5.07Z"/></g><g><path class="m" d="m214.66,652.97v-6.98h1.48v2.88h3v-2.88h1.47v6.98h-1.47v-2.88h-3v2.88h-1.48Z"/><path class="m" d="m223.59,653.07c-.53,0-.99-.11-1.37-.34-.38-.23-.68-.54-.89-.95-.21-.41-.31-.88-.31-1.41s.1-1.01.31-1.42.51-.72.89-.95c.39-.23.84-.34,1.37-.34s.99.11,1.37.34c.39.23.68.54.89.95s.31.88.31,1.42-.1,1.01-.31,1.41c-.21.41-.51.72-.89.95-.38.23-.84.34-1.37.34Zm0-1.12c.24,0,.44-.07.6-.21.16-.14.28-.33.37-.56.08-.24.12-.51.12-.81s-.04-.58-.12-.81c-.08-.24-.21-.43-.37-.57-.16-.14-.36-.21-.6-.21s-.45.07-.61.21c-.16.14-.29.33-.37.57-.08.24-.12.51-.12.81s.04.58.12.81c.08.24.21.43.37.56.17.14.37.21.61.21Z"/><path class="m" d="m230.89,649.23l-1.33.08c-.02-.11-.07-.22-.15-.31-.08-.09-.17-.17-.29-.22-.12-.06-.27-.08-.43-.08-.22,0-.42.05-.57.14-.15.09-.23.22-.23.38,0,.12.05.23.15.32.1.09.27.16.51.21l.95.19c.51.1.89.27,1.14.5s.38.54.38.91c0,.34-.1.64-.3.9s-.48.46-.82.6c-.35.14-.75.22-1.21.22-.69,0-1.24-.15-1.65-.43-.41-.29-.65-.68-.72-1.18l1.43-.08c.04.21.15.37.31.48s.38.17.64.17.46-.05.61-.15c.16-.1.24-.23.24-.38,0-.13-.06-.24-.17-.33s-.28-.15-.5-.2l-.91-.18c-.51-.1-.89-.28-1.14-.53s-.37-.57-.37-.96c0-.34.09-.62.27-.87s.44-.43.77-.56.72-.2,1.17-.2c.66,0,1.18.14,1.56.42.38.28.6.66.67,1.14Z"/><path class="m" d="m234.13,647.73v1.09h-3.15v-1.09h3.15Zm-2.44-1.25h1.45v4.88c0,.13.02.24.06.31.04.07.1.13.17.16.07.03.16.04.26.04.07,0,.14,0,.2-.02.07-.01.12-.02.16-.03l.23,1.08c-.07.02-.17.05-.31.08-.13.03-.29.05-.48.06-.35.01-.66-.03-.92-.14-.26-.11-.47-.27-.61-.5-.15-.23-.22-.51-.21-.85v-5.07Z"/></g><g><polyline class="b" points="165.99 432.97 223.58 432.97 223.58 474.55"/><polygon class="o" points="158.93 432.97 168.87 437.04 166.51 432.97 168.87 428.91 158.93 432.97"/><polygon class="o" points="223.58 481.61 219.52 471.66 223.58 474.02 227.65 471.66 223.58 481.61"/></g><g><polyline class="b" points="112.43 432.97 54.83 432.97 54.83 474.55"/><polygon class="o" points="119.49 432.97 109.54 428.91 111.9 432.97 109.54 437.04 119.49 432.97"/><polygon class="o" points="54.83 481.61 50.76 471.66 54.83 474.02 58.89 471.66 54.83 481.61"/></g><g><line class="b" x1="55.08" y1="599.88" x2="55.08" y2="623.96"/><polygon class="o" points="55.08 592.82 51.02 602.77 55.08 600.41 59.15 602.77 55.08 592.82"/><polygon class="o" points="55.08 631.02 51.02 621.07 55.08 623.43 59.15 621.07 55.08 631.02"/></g><g><line class="b" x1="54.83" y1="525.49" x2="54.83" y2="549.19"/><polygon class="o" points="54.83 518.42 50.76 528.37 54.83 526.01 58.89 528.37 54.83 518.42"/><polygon class="o" points="54.83 556.25 50.76 546.3 54.83 548.66 58.89 546.3 54.83 556.25"/></g><g><line class="b" x1="223.58" y1="525.49" x2="223.58" y2="549.19"/><polygon class="o" points="223.58 518.42 219.52 528.37 223.58 526.01 227.65 528.37 223.58 518.42"/><polygon class="o" points="223.58 556.25 219.52 546.3 223.58 548.66 227.65 546.3 223.58 556.25"/></g><g><line class="b" x1="223.58" y1="599.64" x2="223.58" y2="623.59"/><polygon class="o" points="223.58 592.58 219.52 602.53 223.58 600.17 227.65 602.53 223.58 592.58"/><polygon class="o" points="223.58 630.65 219.52 620.7 223.58 623.06 227.65 620.7 223.58 630.65"/></g><g><path class="o" d="m103.78,539.79v-6.98h2.75c.53,0,.98.09,1.35.28s.66.45.86.79c.2.34.29.74.29,1.2s-.1.86-.3,1.19c-.2.33-.49.59-.87.77-.38.18-.84.27-1.37.27h-1.84v-1.19h1.6c.28,0,.52-.04.7-.12.19-.08.33-.19.42-.35.09-.15.14-.35.14-.58s-.05-.43-.14-.59c-.09-.16-.23-.28-.42-.36s-.42-.12-.71-.12h-1v5.77h-1.48Zm3.77-3.18l1.73,3.18h-1.63l-1.7-3.18h1.59Z"/><path class="o" d="m111.75,539.89c-.53,0-.99-.11-1.37-.34-.39-.23-.68-.54-.89-.95-.21-.41-.31-.88-.31-1.41s.1-1.01.31-1.42.51-.72.89-.95c.38-.23.84-.34,1.37-.34s.99.11,1.37.34c.38.23.68.54.89.95.21.41.31.88.31,1.42s-.1,1.01-.31,1.41c-.21.41-.51.72-.89.95-.39.23-.84.34-1.37.34Zm0-1.12c.24,0,.44-.07.6-.21.16-.14.28-.33.37-.56.08-.24.12-.51.12-.81s-.04-.58-.12-.81c-.08-.24-.21-.43-.37-.57-.16-.14-.36-.21-.6-.21s-.45.07-.61.21c-.16.14-.29.33-.37.57-.08.24-.12.51-.12.81s.04.58.12.81c.08.24.21.43.37.56s.37.21.61.21Z"/><path class="o" d="m118.06,537.56v-3.01h1.45v5.23h-1.39v-.95h-.05c-.12.31-.31.55-.59.74-.27.19-.61.28-1,.28-.35,0-.66-.08-.92-.24-.27-.16-.47-.39-.62-.68-.15-.29-.22-.64-.23-1.05v-3.33h1.45v3.07c0,.31.09.55.25.73s.38.27.66.27c.17,0,.34-.04.49-.12.15-.08.28-.2.37-.36.09-.16.14-.36.14-.59Z"/><path class="o" d="m122.88,534.56v1.09h-3.15v-1.09h3.15Zm-2.44-1.25h1.45v4.88c0,.13.02.24.06.31.04.07.1.13.17.16s.16.04.26.04c.07,0,.14,0,.2-.02.07-.01.12-.02.16-.03l.23,1.08c-.07.02-.17.05-.31.08-.13.03-.29.05-.48.06-.35.01-.66-.03-.92-.14-.26-.11-.47-.27-.61-.5-.15-.23-.22-.51-.21-.85v-5.07Z"/><path class="o" d="m125.58,539.89c-.54,0-1-.11-1.39-.33-.39-.22-.69-.53-.89-.93s-.31-.88-.31-1.43.1-1.01.31-1.42.5-.72.88-.95c.38-.23.83-.34,1.34-.34.35,0,.67.05.97.17.3.11.56.28.78.5.22.22.4.5.52.83s.19.72.19,1.17v.4h-4.42v-.9h3.05c0-.21-.05-.39-.14-.55-.09-.16-.22-.29-.38-.38-.16-.09-.35-.14-.56-.14s-.42.05-.58.15c-.17.1-.3.24-.4.41-.1.17-.14.36-.15.56v.86c0,.26.05.48.14.67.1.19.23.33.41.44s.39.15.63.15c.16,0,.31-.02.44-.07.13-.04.25-.11.34-.2.1-.09.17-.2.22-.33l1.34.09c-.07.32-.21.6-.42.84-.21.24-.48.43-.81.56-.33.13-.71.2-1.14.2Z"/><path class="o" d="m128.35,539.79v-5.23h1.41v.91h.05c.1-.32.26-.57.48-.74.23-.17.48-.25.78-.25.07,0,.15,0,.24.01.08,0,.16.02.22.04v1.29c-.07-.02-.16-.04-.28-.05-.12-.02-.23-.02-.33-.02-.21,0-.4.05-.57.14-.17.09-.3.22-.4.38-.1.16-.15.35-.15.57v2.96h-1.45Z"/><path class="o" d="m133.34,539.79v-5.23h1.38v.92h.06c.11-.31.29-.55.55-.73.25-.18.56-.27.91-.27s.66.09.92.27c.25.18.42.42.5.72h.05c.11-.3.3-.54.58-.72s.61-.27,1-.27c.49,0,.89.15,1.19.46.31.31.46.75.46,1.32v3.52h-1.45v-3.23c0-.29-.08-.51-.23-.65-.15-.15-.35-.22-.58-.22-.26,0-.47.08-.62.25-.15.17-.22.39-.22.66v3.2h-1.41v-3.26c0-.26-.07-.46-.22-.61s-.34-.23-.58-.23c-.16,0-.31.04-.43.12-.13.08-.23.19-.3.34-.08.14-.11.31-.11.51v3.14h-1.45Z"/><path class="o" d="m143.01,539.89c-.33,0-.63-.06-.89-.18-.26-.12-.47-.29-.62-.52s-.23-.52-.23-.86c0-.29.05-.54.16-.73.11-.2.25-.36.44-.48.18-.12.39-.21.63-.27.23-.06.48-.1.74-.13.3-.03.55-.06.74-.09.19-.03.32-.07.41-.13.08-.06.13-.14.13-.25v-.02c0-.22-.07-.38-.2-.5-.14-.12-.33-.18-.57-.18-.26,0-.47.06-.62.17-.15.11-.26.26-.31.43l-1.34-.11c.07-.32.2-.59.4-.83.2-.23.46-.41.78-.54s.68-.19,1.1-.19c.29,0,.57.03.84.1.27.07.5.17.71.32.21.14.37.33.49.55.12.22.18.49.18.8v3.53h-1.38v-.73h-.04c-.08.16-.2.31-.34.43-.14.12-.31.22-.51.29s-.43.1-.69.1Zm.42-1c.21,0,.4-.04.57-.13.16-.08.29-.2.39-.35.09-.15.14-.31.14-.49v-.55s-.11.06-.19.08c-.08.02-.17.04-.26.06-.1.02-.2.04-.29.05s-.19.03-.27.04c-.17.03-.32.07-.45.12-.13.05-.23.13-.3.22-.07.09-.11.21-.11.34,0,.2.07.35.22.45.14.1.33.15.55.15Z"/><path class="o" d="m146.51,541.75v-7.2h1.43v.88h.06c.06-.14.16-.29.28-.43s.28-.27.48-.37c.2-.1.44-.15.73-.15.38,0,.73.1,1.06.3.32.2.58.5.77.9.19.4.29.9.29,1.5s-.09,1.08-.28,1.48c-.19.4-.44.7-.76.91-.32.21-.68.31-1.08.31-.28,0-.52-.05-.72-.14-.2-.09-.36-.21-.48-.35s-.22-.29-.29-.43h-.04v2.8h-1.45Zm1.42-4.58c0,.31.04.58.13.81.09.23.21.41.37.54.16.13.36.19.6.19s.44-.07.6-.2c.16-.13.29-.31.37-.55.09-.23.13-.5.13-.81s-.04-.57-.13-.8c-.08-.23-.21-.41-.37-.54-.16-.13-.36-.19-.6-.19s-.44.06-.6.19c-.16.12-.29.3-.37.53-.09.23-.13.5-.13.81Z"/><path class="o" d="m152,541.75v-7.2h1.43v.88h.06c.06-.14.16-.29.28-.43s.28-.27.48-.37c.2-.1.44-.15.73-.15.38,0,.73.1,1.06.3.32.2.58.5.77.9.19.4.29.9.29,1.5s-.09,1.08-.28,1.48c-.19.4-.44.7-.76.91-.32.21-.68.31-1.08.31-.28,0-.52-.05-.72-.14-.2-.09-.36-.21-.48-.35s-.22-.29-.29-.43h-.04v2.8h-1.45Zm1.42-4.58c0,.31.04.58.13.81.09.23.21.41.37.54.16.13.36.19.6.19s.44-.07.6-.2c.16-.13.29-.31.37-.55.09-.23.13-.5.13-.81s-.04-.57-.13-.8c-.08-.23-.21-.41-.37-.54-.16-.13-.36-.19-.6-.19s-.44.06-.6.19c-.16.12-.29.3-.37.53-.09.23-.13.5-.13.81Z"/><path class="o" d="m158.23,533.88c-.22,0-.4-.07-.55-.22s-.23-.32-.23-.52.08-.37.23-.52.34-.22.55-.22.4.07.55.22.23.32.23.52-.08.38-.23.52-.34.22-.55.22Zm-.73,5.91v-5.23h1.45v5.23h-1.45Z"/><path class="o" d="m160.98,536.76v3.03h-1.45v-5.23h1.38v.92h.06c.12-.3.31-.55.58-.72.27-.18.6-.27.99-.27.36,0,.68.08.95.24.27.16.48.39.63.68s.22.64.22,1.05v3.33h-1.45v-3.07c0-.32-.08-.57-.25-.75-.17-.18-.39-.27-.69-.27-.2,0-.37.04-.52.13s-.26.21-.35.37-.13.35-.13.58Z"/><path class="o" d="m167.28,541.86c-.47,0-.87-.06-1.21-.19-.34-.13-.6-.3-.8-.52-.2-.22-.33-.47-.38-.74l1.34-.18c.04.1.11.2.19.29s.21.16.35.22.33.08.54.08c.32,0,.58-.08.78-.23.21-.15.31-.41.31-.77v-.96h-.06c-.06.15-.16.28-.29.41-.13.13-.29.24-.49.32-.2.08-.44.12-.72.12-.39,0-.75-.09-1.07-.27-.32-.18-.58-.46-.77-.84-.19-.38-.28-.86-.28-1.44s.1-1.09.29-1.49c.19-.4.45-.7.77-.89.32-.2.67-.3,1.06-.3.29,0,.54.05.74.15.2.1.36.22.48.37.12.15.21.29.28.43h.05v-.88h1.44v5.29c0,.45-.11.82-.33,1.12-.22.3-.52.53-.9.68-.38.15-.83.23-1.33.23Zm.03-3.24c.23,0,.43-.06.59-.18s.29-.29.38-.5c.09-.22.13-.48.13-.79s-.04-.57-.13-.8c-.09-.23-.21-.4-.38-.53-.16-.12-.36-.19-.6-.19s-.44.06-.6.19c-.16.13-.29.31-.37.53-.08.23-.13.49-.13.79s.04.56.13.78c.08.22.21.39.37.51.16.12.36.18.6.18Z"/><path class="o" d="m174.78,536.05l-1.33.08c-.02-.11-.07-.22-.15-.31-.08-.09-.17-.17-.29-.22-.12-.06-.27-.08-.43-.08-.22,0-.42.05-.57.14-.15.09-.23.22-.23.38,0,.12.05.23.15.32.1.09.27.16.51.21l.95.19c.51.1.89.27,1.14.5s.38.54.38.91c0,.34-.1.64-.3.9s-.48.46-.82.6c-.35.14-.75.22-1.21.22-.69,0-1.24-.15-1.65-.43-.41-.29-.65-.68-.72-1.18l1.43-.08c.04.21.15.37.31.48s.38.17.64.17.46-.05.61-.15c.16-.1.24-.23.24-.38,0-.13-.06-.24-.17-.33s-.28-.15-.5-.2l-.91-.18c-.51-.1-.89-.28-1.14-.53s-.37-.57-.37-.96c0-.34.09-.62.27-.87s.44-.43.77-.56.72-.2,1.17-.2c.66,0,1.18.14,1.56.42.38.28.6.66.67,1.14Z"/></g><g><path class="o" d="m116.2,607.83v6.98h-1.27l-3.04-4.39h-.05v4.39h-1.48v-6.98h1.29l3.01,4.39h.06v-4.39h1.47Z"/><path class="o" d="m119.19,614.92c-.54,0-1-.11-1.39-.33-.39-.22-.69-.53-.89-.93s-.31-.88-.31-1.43.1-1.01.31-1.42.5-.72.88-.95c.38-.23.83-.34,1.34-.34.35,0,.67.05.97.17.3.11.56.28.78.5.22.22.4.5.52.83s.19.72.19,1.17v.4h-4.42v-.9h3.05c0-.21-.05-.39-.14-.55-.09-.16-.22-.29-.38-.38-.16-.09-.35-.14-.56-.14s-.42.05-.58.15c-.17.1-.3.24-.4.41-.1.17-.14.36-.15.56v.86c0,.26.05.48.14.67.1.19.23.33.41.44s.39.15.63.15c.16,0,.31-.02.44-.07.13-.04.25-.11.34-.2.1-.09.17-.2.22-.33l1.34.09c-.07.32-.21.6-.42.84-.21.24-.48.43-.81.56-.33.13-.71.2-1.14.2Z"/><path class="o" d="m124.75,609.58v1.09h-3.15v-1.09h3.15Zm-2.44-1.25h1.45v4.88c0,.13.02.24.06.31.04.07.1.13.17.16s.16.04.26.04c.07,0,.14,0,.2-.02.07-.01.12-.02.16-.03l.23,1.08c-.07.02-.17.05-.31.08-.13.03-.29.05-.48.06-.35.01-.66-.03-.92-.14-.26-.11-.47-.27-.61-.5-.15-.23-.22-.51-.21-.85v-5.07Z"/><path class="o" d="m126.77,614.81v-5.23h1.38v.92h.06c.11-.31.29-.55.55-.73.25-.18.56-.27.91-.27s.66.09.92.27c.25.18.42.42.5.72h.05c.11-.3.3-.54.58-.72s.61-.27,1-.27c.49,0,.89.15,1.19.46.31.31.46.75.46,1.32v3.52h-1.45v-3.23c0-.29-.08-.51-.23-.65-.15-.15-.35-.22-.58-.22-.26,0-.47.08-.62.25-.15.17-.22.39-.22.66v3.2h-1.41v-3.26c0-.26-.07-.46-.22-.61s-.34-.23-.58-.23c-.16,0-.31.04-.43.12-.13.08-.23.19-.3.34-.08.14-.11.31-.11.51v3.14h-1.45Z"/><path class="o" d="m136.44,614.91c-.33,0-.63-.06-.89-.18-.26-.12-.47-.29-.62-.52s-.23-.52-.23-.86c0-.29.05-.54.16-.73.11-.2.25-.36.44-.48.18-.12.39-.21.63-.27.23-.06.48-.1.74-.13.3-.03.55-.06.74-.09.19-.03.32-.07.41-.13.08-.06.13-.14.13-.25v-.02c0-.22-.07-.38-.2-.5-.14-.12-.33-.18-.57-.18-.26,0-.47.06-.62.17-.15.11-.26.26-.31.43l-1.34-.11c.07-.32.2-.59.4-.83.2-.23.46-.41.78-.54s.68-.19,1.1-.19c.29,0,.57.03.84.1.27.07.5.17.71.32.21.14.37.33.49.55.12.22.18.49.18.8v3.53h-1.38v-.73h-.04c-.08.16-.2.31-.34.43-.14.12-.31.22-.51.29s-.43.1-.69.1Zm.42-1c.21,0,.4-.04.57-.13.16-.08.29-.2.39-.35.09-.15.14-.31.14-.49v-.55s-.11.06-.19.08c-.08.02-.17.04-.26.06-.1.02-.2.04-.29.05s-.19.03-.27.04c-.17.03-.32.07-.45.12-.13.05-.23.13-.3.22-.07.09-.11.21-.11.34,0,.2.07.35.22.45.14.1.33.15.55.15Z"/><path class="o" d="m139.94,616.78v-7.2h1.43v.88h.06c.06-.14.16-.29.28-.43s.28-.27.48-.37c.2-.1.44-.15.73-.15.38,0,.73.1,1.06.3.32.2.58.5.77.9.19.4.29.9.29,1.5s-.09,1.08-.28,1.48c-.19.4-.44.7-.76.91-.32.21-.68.31-1.08.31-.28,0-.52-.05-.72-.14-.2-.09-.36-.21-.48-.35s-.22-.29-.29-.43h-.04v2.8h-1.45Zm1.42-4.58c0,.31.04.58.13.81.09.23.21.41.37.54.16.13.36.19.6.19s.44-.07.6-.2c.16-.13.29-.31.37-.55.09-.23.13-.5.13-.81s-.04-.57-.13-.8c-.08-.23-.21-.41-.37-.54-.16-.13-.36-.19-.6-.19s-.44.06-.6.19c-.16.12-.29.3-.37.53-.09.23-.13.5-.13.81Z"/><path class="o" d="m145.43,616.78v-7.2h1.43v.88h.06c.06-.14.16-.29.28-.43s.28-.27.48-.37c.2-.1.44-.15.73-.15.38,0,.73.1,1.06.3.32.2.58.5.77.9.19.4.29.9.29,1.5s-.09,1.08-.28,1.48c-.19.4-.44.7-.76.91-.32.21-.68.31-1.08.31-.28,0-.52-.05-.72-.14-.2-.09-.36-.21-.48-.35s-.22-.29-.29-.43h-.04v2.8h-1.45Zm1.42-4.58c0,.31.04.58.13.81.09.23.21.41.37.54.16.13.36.19.6.19s.44-.07.6-.2c.16-.13.29-.31.37-.55.09-.23.13-.5.13-.81s-.04-.57-.13-.8c-.08-.23-.21-.41-.37-.54-.16-.13-.36-.19-.6-.19s-.44.06-.6.19c-.16.12-.29.3-.37.53-.09.23-.13.5-.13.81Z"/><path class="o" d="m151.65,608.9c-.22,0-.4-.07-.55-.22s-.23-.32-.23-.52.08-.37.23-.52.34-.22.55-.22.4.07.55.22.23.32.23.52-.08.38-.23.52-.34.22-.55.22Zm-.73,5.91v-5.23h1.45v5.23h-1.45Z"/><path class="o" d="m154.41,611.79v3.03h-1.45v-5.23h1.38v.92h.06c.12-.3.31-.55.58-.72.27-.18.6-.27.99-.27.36,0,.68.08.95.24.27.16.48.39.63.68s.22.64.22,1.05v3.33h-1.45v-3.07c0-.32-.08-.57-.25-.75-.17-.18-.39-.27-.69-.27-.2,0-.37.04-.52.13s-.26.21-.35.37-.13.35-.13.58Z"/><path class="o" d="m160.71,616.89c-.47,0-.87-.06-1.21-.19-.34-.13-.6-.3-.8-.52-.2-.22-.33-.47-.38-.74l1.34-.18c.04.1.11.2.19.29s.21.16.35.22.33.08.54.08c.32,0,.58-.08.78-.23s.31-.41.31-.77v-.96h-.06c-.06.15-.16.28-.29.41-.13.13-.29.24-.49.32-.2.08-.44.12-.72.12-.39,0-.75-.09-1.07-.27-.32-.18-.58-.46-.77-.84-.19-.38-.28-.86-.28-1.44s.1-1.09.29-1.49c.19-.4.45-.7.77-.89.32-.2.67-.3,1.06-.3.29,0,.54.05.74.15s.36.22.48.37.22.29.28.43h.05v-.88h1.44v5.29c0,.45-.11.82-.33,1.12-.22.3-.52.53-.9.68-.39.15-.83.23-1.33.23Zm.03-3.24c.23,0,.43-.06.59-.18.16-.12.29-.29.38-.5.09-.22.13-.48.13-.79s-.04-.57-.13-.8c-.09-.23-.21-.4-.37-.53s-.36-.19-.6-.19-.44.06-.6.19c-.16.13-.29.31-.37.53-.08.23-.13.49-.13.79s.04.56.13.78c.09.22.21.39.37.51.16.12.36.18.6.18Z"/><path class="o" d="m168.2,611.07l-1.33.08c-.02-.11-.07-.22-.15-.31-.08-.09-.17-.17-.29-.22-.12-.06-.27-.08-.44-.08-.23,0-.41.05-.57.14-.15.09-.23.22-.23.38,0,.12.05.23.15.32.1.09.27.16.51.21l.95.19c.51.1.89.27,1.14.5s.38.54.38.91c0,.34-.1.64-.3.9s-.48.46-.83.6-.75.22-1.2.22c-.69,0-1.24-.15-1.65-.43-.41-.29-.65-.68-.72-1.18l1.43-.08c.04.21.15.37.31.48s.38.17.64.17.46-.05.62-.15c.16-.1.23-.23.24-.38,0-.13-.06-.24-.17-.33s-.28-.15-.5-.2l-.91-.18c-.51-.1-.89-.28-1.14-.53-.25-.25-.37-.57-.37-.96,0-.34.09-.62.27-.87.18-.24.44-.43.77-.56.33-.13.72-.2,1.17-.2.66,0,1.18.14,1.56.42s.6.66.67,1.14Z"/></g><g><line class="k" x1="58.84" y1="537.34" x2="59.54" y2="537.34"/><line class="l" x1="60.91" y1="537.34" x2="98.63" y2="537.34"/><line class="k" x1="99.31" y1="537.34" x2="100.02" y2="537.34"/></g><g><line class="k" x1="178.91" y1="537.34" x2="179.61" y2="537.34"/><line class="i" x1="181.01" y1="537.34" x2="213.84" y2="537.34"/><line class="k" x1="214.54" y1="537.34" x2="215.24" y2="537.34"/></g><g><line class="k" x1="58.84" y1="611.61" x2="59.54" y2="611.61"/><line class="e" x1="60.95" y1="611.61" x2="105.18" y2="611.61"/><line class="k" x1="105.89" y1="611.61" x2="106.59" y2="611.61"/></g><g><line class="k" x1="220.78" y1="611.92" x2="220.07" y2="611.92"/><line class="j" x1="218.68" y1="611.92" x2="174.77" y2="611.92"/><line class="k" x1="174.07" y1="611.92" x2="173.37" y2="611.92"/></g><rect class="c" x="119.02" y="322.06" width="39.44" height="36.57" rx="2.71" ry="2.71"/><g><path class="o" d="m128.7,337.14h1.82l1.92,4.69h.08l1.92-4.69h1.82v6.98h-1.43v-4.54h-.06l-1.81,4.51h-.97l-1.81-4.53h-.06v4.56h-1.43v-6.98Z"/><path class="o" d="m138.11,344.12h-1.58l2.41-6.98h1.9l2.41,6.98h-1.58l-1.75-5.38h-.05l-1.75,5.38Zm-.1-2.74h3.73v1.15h-3.73v-1.15Z"/><path class="o" d="m149.34,337.14v6.98h-1.27l-3.04-4.39h-.05v4.39h-1.48v-6.98h1.29l3.01,4.39h.06v-4.39h1.47Z"/></g><g><line class="b" x1="137.84" y1="365.7" x2="137.84" y2="407.63"/><polygon class="o" points="137.84 358.64 133.77 368.59 137.84 366.22 141.9 368.59 137.84 358.64"/><polygon class="o" points="137.84 414.69 133.77 404.74 137.84 407.1 141.9 404.74 137.84 414.69"/></g><rect class="c" x="309.65" y="321.45" width="39.44" height="36.57" rx="2.71" ry="2.71"/><g><path class="o" d="m320.68,329.53h1.82l1.92,4.69h.08l1.92-4.69h1.82v6.98h-1.43v-4.54h-.06l-1.81,4.51h-.97l-1.81-4.53h-.06v4.56h-1.43v-6.98Z"/><path class="o" d="m330.35,336.61c-.33,0-.63-.06-.89-.18-.26-.12-.47-.29-.62-.52-.15-.23-.23-.52-.23-.86,0-.29.05-.54.16-.73.11-.2.25-.36.44-.48.18-.12.39-.21.63-.27.23-.06.48-.1.74-.13.3-.03.55-.06.74-.09.19-.03.32-.07.41-.13.08-.06.13-.14.13-.25v-.02c0-.22-.07-.38-.2-.5s-.33-.18-.57-.18c-.26,0-.47.06-.62.17-.15.11-.26.26-.31.43l-1.34-.11c.07-.32.2-.59.4-.83.2-.23.46-.41.78-.54.32-.13.68-.19,1.1-.19.29,0,.57.03.84.1.27.07.5.17.71.32.21.14.37.33.49.55s.18.49.18.8v3.53h-1.38v-.73h-.04c-.08.16-.2.31-.34.43s-.31.22-.51.29c-.2.07-.43.1-.68.1Zm.42-1c.21,0,.4-.04.57-.13.16-.08.29-.2.38-.35s.14-.31.14-.49v-.55s-.11.06-.19.08c-.08.02-.17.04-.26.06-.1.02-.2.04-.29.05s-.19.03-.27.04c-.17.03-.32.07-.45.12-.13.05-.23.13-.3.22-.07.09-.11.21-.11.34,0,.2.07.35.22.45.14.1.33.15.55.15Z"/><path class="o" d="m335.3,333.48v3.03h-1.45v-5.23h1.38v.92h.06c.12-.3.31-.55.58-.72.27-.18.6-.27.99-.27.36,0,.68.08.95.24.27.16.48.39.63.68.15.29.22.64.22,1.05v3.33h-1.45v-3.07c0-.32-.08-.57-.25-.75-.17-.18-.39-.27-.69-.27-.2,0-.37.04-.52.13-.15.08-.26.21-.35.37s-.13.35-.13.58Z"/><path class="o" d="m313.99,345v3.03h-1.45v-5.23h1.38v.92h.06c.12-.3.31-.55.58-.72.27-.18.6-.27.99-.27.36,0,.68.08.95.24.27.16.48.39.63.68.15.29.22.64.22,1.05v3.33h-1.45v-3.07c0-.32-.08-.57-.25-.75-.17-.18-.39-.27-.69-.27-.2,0-.37.04-.52.13-.15.08-.26.21-.35.37s-.13.35-.13.58Z"/><path class="o" d="m320.32,348.12c-.54,0-1-.11-1.39-.33-.39-.22-.69-.53-.89-.93s-.31-.88-.31-1.43.1-1.01.31-1.42.5-.72.88-.95c.38-.23.83-.34,1.34-.34.35,0,.67.05.97.17.3.11.56.28.78.5.22.22.4.5.52.83s.19.72.19,1.17v.4h-4.42v-.9h3.05c0-.21-.04-.39-.14-.55-.09-.16-.22-.29-.38-.38-.16-.09-.35-.14-.56-.14s-.42.05-.58.15c-.17.1-.3.24-.4.41-.1.17-.14.36-.15.56v.86c0,.26.05.48.14.67.1.19.23.33.41.44.18.1.39.15.63.15.16,0,.31-.02.44-.07.13-.04.25-.11.34-.2s.17-.2.22-.33l1.34.09c-.07.32-.21.6-.42.84-.21.24-.48.43-.81.56-.33.13-.71.2-1.14.2Z"/><path class="o" d="m325.87,342.79v1.09h-3.15v-1.09h3.15Zm-2.44-1.25h1.45v4.88c0,.13.02.24.06.31.04.07.1.13.17.16.07.03.16.04.26.04.07,0,.14,0,.2-.02s.12-.02.16-.03l.23,1.08c-.07.02-.17.05-.31.08-.13.03-.29.05-.48.06-.35.01-.66-.03-.92-.14-.26-.11-.47-.27-.61-.5-.15-.23-.22-.51-.21-.85v-5.07Z"/><path class="o" d="m327.27,348.02l-1.42-5.23h1.47l.81,3.52h.05l.85-3.52h1.44l.86,3.5h.04l.8-3.5h1.46l-1.42,5.23h-1.54l-.9-3.29h-.06l-.9,3.29h-1.53Z"/><path class="o" d="m336.06,348.12c-.53,0-.99-.11-1.37-.34-.38-.23-.68-.54-.89-.95-.21-.41-.31-.88-.31-1.41s.1-1.01.31-1.42.51-.72.89-.95c.38-.23.84-.34,1.37-.34s.99.11,1.37.34c.38.23.68.54.89.95.21.41.31.88.31,1.42s-.1,1.01-.31,1.41c-.21.41-.51.72-.89.95-.38.23-.84.34-1.37.34Zm0-1.12c.24,0,.44-.07.6-.21s.28-.33.37-.56c.08-.24.12-.51.12-.81s-.04-.58-.12-.81c-.08-.24-.21-.43-.37-.57-.16-.14-.36-.21-.6-.21s-.45.07-.61.21c-.16.14-.29.33-.37.57-.08.24-.12.51-.12.81s.04.58.12.81c.08.24.21.43.37.56.17.14.37.21.61.21Z"/><path class="o" d="m339.01,348.02v-5.23h1.41v.91h.05c.1-.32.26-.57.48-.74s.48-.25.78-.25c.07,0,.15,0,.24.01.08,0,.16.02.22.04v1.29c-.07-.02-.16-.04-.28-.05-.12-.02-.23-.02-.33-.02-.21,0-.4.05-.57.14-.17.09-.3.22-.39.38-.1.16-.15.35-.15.57v2.96h-1.45Z"/><path class="o" d="m342.35,348.02v-6.98h1.45v6.98h-1.45Zm1.32-1.51v-1.74h.21l1.68-1.99h1.67l-2.25,2.63h-.34l-.96,1.1Zm1.96,1.51l-1.54-2.28.97-1.03,2.27,3.31h-1.7Z"/></g><g><line class="b" x1="165.52" y1="340.35" x2="303.22" y2="340.35"/><polygon class="o" points="158.46 340.35 168.41 344.42 166.05 340.35 168.41 336.29 158.46 340.35"/><polygon class="o" points="310.28 340.35 300.33 344.42 302.69 340.35 300.33 336.29 310.28 340.35"/></g><g><polyline class="b" points="250.36 500.18 323.99 500.18 323.99 365.09"/><polygon class="o" points="243.3 500.18 253.25 504.24 250.89 500.18 253.25 496.11 243.3 500.18"/><polygon class="o" points="323.99 358.03 328.05 367.97 323.99 365.61 319.92 367.97 323.99 358.03"/></g><g><polyline class="b" points="340.88 365.09 340.88 648.94 250.36 648.94"/><polygon class="o" points="340.88 358.03 336.81 367.97 340.88 365.61 344.94 367.97 340.88 358.03"/><polygon class="o" points="243.3 648.94 253.25 644.87 250.89 648.94 253.25 653 243.3 648.94"/></g><rect class="g" x=".5" y="387.13" width="397.43" height="312.71" rx="15.42" ry="15.42"/><g><path class="m" d="m17.52,686.5v-.87h6.08v.87h-2.55v7.24h-.98v-7.24h-2.55Z"/><path class="m" d="m25.91,693.87c-.55,0-1.03-.13-1.44-.39-.41-.26-.74-.63-.97-1.1-.23-.47-.35-1.02-.35-1.65s.12-1.19.35-1.66c.23-.47.55-.84.97-1.1.41-.26.89-.39,1.44-.39s1.03.13,1.44.39c.41.26.74.63.97,1.1.23.47.35,1.03.35,1.66s-.12,1.18-.35,1.65c-.23.47-.55.83-.97,1.1s-.89.39-1.44.39Zm0-.84c.42,0,.76-.11,1.03-.32.27-.21.47-.5.6-.84s.19-.73.19-1.13-.06-.79-.19-1.14-.33-.63-.6-.85c-.27-.22-.61-.33-1.03-.33s-.76.11-1.03.33c-.27.22-.47.5-.6.85s-.19.73-.19,1.14.06.78.19,1.13.33.63.6.84c.27.21.61.32,1.03.32Z"/><path class="m" d="m29.43,696.02v-8.37h.9v.97h.11c.07-.11.16-.24.29-.41.12-.17.3-.31.53-.44.23-.13.54-.2.94-.2.51,0,.96.13,1.35.38.39.26.7.62.92,1.09.22.47.33,1.02.33,1.66s-.11,1.2-.33,1.67c-.22.47-.52.84-.91,1.09-.39.26-.84.39-1.34.39-.39,0-.7-.07-.94-.2s-.42-.28-.54-.45c-.13-.17-.22-.31-.29-.42h-.08v3.22h-.94Zm.92-5.32c0,.46.07.86.2,1.21.13.35.33.62.59.82.26.2.58.29.95.29s.72-.1.98-.31c.26-.21.46-.49.59-.84s.2-.75.2-1.18-.07-.81-.2-1.16c-.13-.34-.33-.62-.59-.82-.26-.2-.59-.3-.99-.3s-.7.1-.96.29-.45.46-.59.8c-.13.34-.2.74-.2,1.19Z"/><path class="m" d="m38.03,693.87c-.55,0-1.03-.13-1.44-.39-.41-.26-.74-.63-.97-1.1-.23-.47-.35-1.02-.35-1.65s.12-1.19.35-1.66c.23-.47.55-.84.97-1.1.41-.26.89-.39,1.44-.39s1.03.13,1.44.39c.41.26.74.63.97,1.1.23.47.35,1.03.35,1.66s-.12,1.18-.35,1.65c-.23.47-.55.83-.97,1.1s-.89.39-1.44.39Zm0-.84c.42,0,.76-.11,1.03-.32.27-.21.47-.5.6-.84s.19-.73.19-1.13-.06-.79-.19-1.14-.33-.63-.6-.85c-.27-.22-.61-.33-1.03-.33s-.76.11-1.03.33c-.27.22-.47.5-.6.85s-.19.73-.19,1.14.06.78.19,1.13.33.63.6.84c.27.21.61.32,1.03.32Z"/><path class="m" d="m42.48,685.63v8.11h-.94v-8.11h.94Z"/><path class="m" d="m45.99,693.87c-.55,0-1.03-.13-1.44-.39-.41-.26-.74-.63-.97-1.1-.23-.47-.35-1.02-.35-1.65s.12-1.19.35-1.66c.23-.47.55-.84.97-1.1.41-.26.89-.39,1.44-.39s1.03.13,1.44.39c.41.26.74.63.97,1.1.23.47.35,1.03.35,1.66s-.12,1.18-.35,1.65c-.23.47-.55.83-.97,1.1s-.89.39-1.44.39Zm0-.84c.42,0,.76-.11,1.03-.32.27-.21.47-.5.6-.84s.19-.73.19-1.13-.06-.79-.19-1.14-.33-.63-.6-.85c-.27-.22-.61-.33-1.03-.33s-.76.11-1.03.33c-.27.22-.47.5-.6.85s-.19.73-.19,1.14.06.78.19,1.13.33.63.6.84c.27.21.61.32,1.03.32Z"/><path class="m" d="m51.96,696.15c-.45,0-.84-.06-1.16-.17s-.59-.27-.81-.45c-.22-.19-.39-.38-.51-.6l.75-.52c.08.11.19.24.32.38s.31.27.53.38c.23.11.52.16.89.16.49,0,.9-.12,1.22-.36.32-.24.48-.61.48-1.12v-1.24h-.08c-.07.11-.17.25-.29.41-.13.16-.3.31-.54.43s-.55.19-.94.19c-.49,0-.93-.12-1.32-.35s-.7-.57-.92-1.01c-.23-.44-.34-.98-.34-1.62s.11-1.17.33-1.63.52-.82.92-1.08c.39-.25.84-.38,1.35-.38.4,0,.71.07.94.2.23.13.41.28.54.44.12.17.22.3.29.41h.1v-.97h.9v6.26c0,.52-.12.95-.35,1.28-.24.33-.55.57-.95.72s-.84.23-1.33.23Zm-.03-3.34c.37,0,.69-.09.95-.26.26-.17.46-.42.59-.74.13-.32.2-.71.2-1.16s-.07-.83-.2-1.16c-.13-.33-.33-.6-.59-.79s-.58-.29-.96-.29-.73.1-.99.3c-.26.2-.46.47-.59.81-.13.34-.2.71-.2,1.12s.07.8.2,1.12c.13.32.33.58.59.76.26.18.59.28.98.28Z"/><path class="m" d="m56.23,696.02c-.16,0-.3-.01-.42-.04-.12-.03-.21-.05-.26-.07l.24-.82c.23.06.43.08.6.06s.33-.09.47-.23c.14-.14.26-.36.37-.67l.17-.48-2.25-6.12h1.01l1.68,4.85h.06l1.68-4.85h1.01l-2.58,6.97c-.12.31-.26.57-.43.78-.17.21-.37.36-.6.46-.23.1-.48.15-.76.15Z"/><path class="m" d="m64.75,685.63v8.11h-.98v-8.11h.98Z"/><path class="m" d="m66.85,690.08v3.66h-.94v-6.08h.9v.95h.08c.14-.31.36-.56.65-.75.29-.19.67-.28,1.12-.28.41,0,.77.08,1.08.25.31.17.55.42.72.76.17.34.26.77.26,1.29v3.87h-.94v-3.8c0-.48-.12-.85-.37-1.12-.25-.27-.59-.4-1.02-.4-.3,0-.56.06-.8.19-.23.13-.42.32-.55.57s-.2.55-.2.9Z"/><path class="m" d="m76.09,689.02l-.84.24c-.05-.14-.13-.28-.23-.41-.1-.13-.24-.24-.41-.33-.17-.09-.4-.13-.67-.13-.37,0-.68.08-.93.25-.25.17-.37.39-.37.65,0,.23.08.42.25.55s.43.25.79.34l.9.22c.54.13.95.33,1.22.6s.4.62.4,1.04c0,.35-.1.66-.3.93-.2.27-.48.49-.83.65-.36.16-.77.24-1.24.24-.62,0-1.13-.13-1.54-.4s-.66-.66-.77-1.18l.89-.22c.08.33.25.57.48.74.24.16.55.25.93.25.44,0,.78-.09,1.04-.28s.39-.41.39-.67c0-.21-.07-.39-.22-.53-.15-.14-.38-.25-.68-.32l-1.01-.24c-.56-.13-.97-.34-1.23-.62s-.39-.63-.39-1.05c0-.34.1-.65.29-.91.19-.26.46-.47.8-.62.34-.15.72-.23,1.15-.23.6,0,1.08.13,1.42.4.34.26.59.61.73,1.05Z"/><path class="m" d="m79.59,687.66v.79h-3.15v-.79h3.15Zm-2.23-1.46h.94v5.8c0,.26.04.46.12.59.08.13.18.22.3.26.12.04.25.07.39.07.1,0,.19,0,.25-.02s.12-.02.16-.03l.19.84c-.06.02-.15.05-.27.07-.11.02-.26.04-.43.04-.26,0-.52-.06-.77-.17-.25-.11-.46-.29-.63-.52s-.25-.53-.25-.88v-6.05Z"/><path class="m" d="m82.12,693.88c-.39,0-.74-.07-1.05-.22-.31-.15-.56-.36-.75-.64-.18-.28-.28-.62-.28-1.01,0-.35.07-.63.21-.85s.32-.39.55-.51c.23-.12.48-.22.76-.28.28-.06.56-.11.84-.15.37-.05.67-.08.9-.11.23-.02.4-.07.51-.13.11-.06.16-.17.16-.32v-.03c0-.39-.11-.69-.32-.91-.21-.22-.53-.33-.96-.33s-.8.1-1.05.29-.43.4-.53.63l-.89-.32c.16-.37.37-.66.64-.87.27-.21.56-.35.87-.44s.63-.12.93-.12c.2,0,.42.02.68.07s.5.14.74.28c.24.14.44.36.6.65.16.29.24.67.24,1.16v4.01h-.94v-.82h-.05c-.06.13-.17.27-.32.42s-.34.28-.59.38-.55.16-.9.16Zm.14-.84c.37,0,.68-.07.94-.22s.45-.33.58-.56c.13-.23.2-.47.2-.72v-.86s-.13.09-.26.13-.29.07-.46.1c-.17.03-.34.05-.5.07-.16.02-.29.04-.39.05-.24.03-.47.08-.68.15-.21.07-.38.17-.51.31-.13.14-.19.33-.19.56,0,.33.12.57.36.74s.55.25.92.25Z"/><path class="m" d="m86.88,690.08v3.66h-.94v-6.08h.9v.95h.08c.14-.31.36-.56.65-.75.29-.19.67-.28,1.12-.28.41,0,.77.08,1.08.25.31.17.55.42.72.76.17.34.26.77.26,1.29v3.87h-.94v-3.8c0-.48-.12-.85-.37-1.12-.25-.27-.59-.4-1.02-.4-.3,0-.56.06-.8.19-.23.13-.42.32-.55.57s-.2.55-.2.9Z"/><path class="m" d="m94.28,693.87c-.57,0-1.06-.13-1.47-.4s-.73-.64-.95-1.11c-.22-.47-.33-1.01-.33-1.62s.11-1.16.34-1.64c.23-.47.55-.85.96-1.11.41-.27.89-.4,1.44-.4.43,0,.81.08,1.16.24.34.16.62.38.84.67s.36.62.41,1h-.94c-.07-.28-.23-.52-.47-.74-.24-.22-.57-.32-.98-.32-.36,0-.68.09-.96.28-.27.19-.49.45-.64.8-.15.34-.23.74-.23,1.2s.07.88.22,1.23c.15.35.36.62.63.81.27.19.6.29.96.29.24,0,.46-.04.66-.13.2-.08.37-.21.5-.36s.23-.35.29-.57h.94c-.05.36-.18.68-.39.97-.21.29-.48.51-.82.68-.34.17-.73.25-1.18.25Z"/><path class="m" d="m99.92,693.87c-.59,0-1.09-.13-1.52-.39-.42-.26-.75-.62-.98-1.09s-.34-1.01-.34-1.64.11-1.17.34-1.65.55-.85.96-1.12c.41-.27.89-.4,1.44-.4.32,0,.63.05.94.16.31.11.59.28.84.51s.46.55.61.94c.15.39.23.87.23,1.43v.4h-4.69v-.81h3.74c0-.34-.07-.65-.2-.92-.14-.27-.33-.48-.58-.64-.25-.16-.54-.23-.88-.23-.37,0-.69.09-.96.28-.27.18-.48.42-.62.71-.15.29-.22.61-.22.94v.54c0,.46.08.85.24,1.17.16.32.38.56.67.72s.62.25.99.25c.25,0,.47-.04.67-.11.2-.07.37-.17.52-.32.15-.14.26-.32.34-.53l.9.25c-.09.31-.25.58-.48.81-.22.23-.5.41-.83.54s-.7.19-1.11.19Z"/><path class="m" d="m108.29,693.74h-2.5v-8.11h2.61c.79,0,1.46.16,2.02.49.56.32.99.79,1.29,1.39s.45,1.33.45,2.17-.15,1.57-.45,2.18c-.3.61-.74,1.08-1.32,1.4s-1.28.49-2.1.49Zm-1.52-.87h1.46c.67,0,1.23-.13,1.67-.39s.77-.63.99-1.11c.22-.48.33-1.05.33-1.71s-.11-1.22-.32-1.69c-.21-.47-.53-.84-.96-1.09s-.95-.38-1.59-.38h-1.57v6.37Z"/><path class="m" d="m115.56,693.87c-.59,0-1.09-.13-1.52-.39-.42-.26-.75-.62-.98-1.09s-.34-1.01-.34-1.64.11-1.17.34-1.65.55-.85.96-1.12c.41-.27.89-.4,1.44-.4.32,0,.63.05.94.16.31.11.59.28.84.51s.46.55.61.94c.15.39.23.87.23,1.43v.4h-4.69v-.81h3.74c0-.34-.07-.65-.2-.92-.14-.27-.33-.48-.58-.64-.25-.16-.54-.23-.88-.23-.37,0-.69.09-.96.28-.27.18-.48.42-.62.71-.15.29-.22.61-.22.94v.54c0,.46.08.85.24,1.17.16.32.38.56.67.72s.62.25.99.25c.25,0,.47-.04.67-.11.2-.07.37-.17.52-.32.15-.14.26-.32.34-.53l.9.25c-.09.31-.25.58-.48.81-.22.23-.5.41-.83.54s-.7.19-1.11.19Z"/><path class="m" d="m121.55,687.66v.79h-3.28v-.79h3.28Zm-2.3,6.08v-6.92c0-.35.08-.64.25-.87s.38-.41.64-.52c.26-.12.54-.17.83-.17.23,0,.42.02.56.06.15.04.25.07.32.1l-.27.81s-.11-.04-.2-.06-.19-.04-.33-.04c-.31,0-.53.08-.67.23-.14.16-.2.38-.2.68v6.7h-.94Z"/><path class="m" d="m122.67,686.64c-.18,0-.34-.06-.47-.19-.13-.12-.2-.27-.2-.45s.07-.32.2-.45c.13-.12.29-.19.47-.19s.34.06.47.19c.13.12.2.27.2.45s-.07.32-.2.45c-.13.12-.29.19-.47.19Zm-.48,7.1v-6.08h.94v6.08h-.94Z"/><path class="m" d="m125.1,690.08v3.66h-.94v-6.08h.9v.95h.08c.14-.31.36-.56.65-.75.29-.19.67-.28,1.12-.28.41,0,.77.08,1.08.25.31.17.55.42.72.76.17.34.26.77.26,1.29v3.87h-.94v-3.8c0-.48-.12-.85-.37-1.12-.25-.27-.59-.4-1.02-.4-.3,0-.56.06-.8.19-.23.13-.42.32-.55.57s-.2.55-.2.9Z"/><path class="m" d="m130.5,686.64c-.18,0-.34-.06-.47-.19-.13-.12-.2-.27-.2-.45s.07-.32.2-.45c.13-.12.29-.19.47-.19s.34.06.47.19c.13.12.2.27.2.45s-.07.32-.2.45c-.13.12-.29.19-.47.19Zm-.48,7.1v-6.08h.94v6.08h-.94Z"/><path class="m" d="m134.65,687.66v.79h-3.15v-.79h3.15Zm-2.23-1.46h.94v5.8c0,.26.04.46.12.59.08.13.18.22.3.26.12.04.25.07.39.07.1,0,.19,0,.25-.02s.12-.02.16-.03l.19.84c-.06.02-.15.05-.27.07-.11.02-.26.04-.43.04-.26,0-.52-.06-.77-.17-.25-.11-.46-.29-.63-.52s-.25-.53-.25-.88v-6.05Z"/><path class="m" d="m135.87,686.64c-.18,0-.34-.06-.47-.19-.13-.12-.2-.27-.2-.45s.07-.32.2-.45c.13-.12.29-.19.47-.19s.34.06.47.19c.13.12.2.27.2.45s-.07.32-.2.45c-.13.12-.29.19-.47.19Zm-.48,7.1v-6.08h.94v6.08h-.94Z"/><path class="m" d="m139.84,693.87c-.55,0-1.03-.13-1.44-.39-.41-.26-.74-.63-.97-1.1-.23-.47-.35-1.02-.35-1.65s.12-1.19.35-1.66c.23-.47.55-.84.97-1.1.41-.26.89-.39,1.44-.39s1.03.13,1.44.39c.41.26.74.63.97,1.1.23.47.35,1.03.35,1.66s-.12,1.18-.35,1.65c-.23.47-.55.83-.97,1.1s-.89.39-1.44.39Zm0-.84c.42,0,.76-.11,1.03-.32.27-.21.47-.5.6-.84s.19-.73.19-1.13-.06-.79-.19-1.14-.33-.63-.6-.85c-.27-.22-.61-.33-1.03-.33s-.76.11-1.03.33c-.27.22-.47.5-.6.85s-.19.73-.19,1.14.06.78.19,1.13.33.63.6.84c.27.21.61.32,1.03.32Z"/><path class="m" d="m144.29,690.08v3.66h-.94v-6.08h.9v.95h.08c.14-.31.36-.56.65-.75.29-.19.67-.28,1.12-.28.41,0,.77.08,1.08.25.31.17.55.42.72.76.17.34.26.77.26,1.29v3.87h-.94v-3.8c0-.48-.12-.85-.37-1.12-.25-.27-.59-.4-1.02-.4-.3,0-.56.06-.8.19-.23.13-.42.32-.55.57s-.2.55-.2.9Z"/></g></svg>