<?xml version="1.0" encoding="UTF-8"?><svg id="a" xmlns="http://www.w3.org/2000/svg" viewBox="0 0 497.26 480.22"><defs><style>.b{stroke:#355caa;}.b,.c,.d,.e,.f,.g,.h{fill:none;stroke-miterlimit:10;}.b,.f,.g{stroke-width:.64px;}.c,.d{stroke-width:.65px;}.c,.f{stroke:#231f20;}.i{fill:#405daa;}.d,.g{stroke:#405daa;}.j{fill:#040305;}.e,.h{stroke:#3c5daa;stroke-width:.6px;}.k{fill:#355caa;}.l{fill:#1d1d1f;}.h{stroke-dasharray:0 0 1.6 1.6;}.m{fill:#231f20;}.n{fill:#010101;}</style></defs><g><path class="m" d="m191,16.54v-7.38h1.56v3.25h.1l2.65-3.25h1.87l-2.74,3.3,2.77,4.07h-1.87l-2.02-3.03-.77.94v2.1h-1.56Z"/><path class="m" d="m200.56,14.18v-3.18h1.53v5.53h-1.47v-1h-.06c-.12.32-.33.58-.62.78-.29.2-.64.3-1.06.3-.37,0-.69-.08-.98-.25-.28-.17-.5-.41-.66-.72-.16-.31-.24-.68-.24-1.11v-3.52h1.53v3.25c0,.33.09.58.26.77.17.19.4.28.7.28.19,0,.36-.04.52-.13.16-.08.29-.21.39-.38s.15-.38.15-.62Z"/><path class="m" d="m202.74,16.54v-7.38h1.53v2.77h.05c.07-.15.17-.3.29-.46s.3-.28.5-.39c.21-.1.47-.16.78-.16.4,0,.78.1,1.12.32.34.21.61.53.82.95s.31.95.31,1.58-.1,1.14-.3,1.56c-.2.42-.47.74-.81.96s-.72.33-1.14.33c-.3,0-.55-.05-.76-.15s-.38-.22-.51-.37c-.13-.15-.23-.3-.3-.46h-.07v.89h-1.51Zm1.5-2.77c0,.33.05.62.14.86.09.25.22.44.4.57.17.14.38.2.63.2s.46-.07.63-.21.3-.33.39-.58c.09-.25.13-.53.13-.85s-.04-.6-.13-.84c-.09-.24-.22-.43-.39-.57-.17-.14-.39-.21-.64-.21s-.46.07-.63.2c-.17.13-.3.32-.39.56s-.14.53-.14.86Z"/><path class="m" d="m211.07,16.65c-.57,0-1.06-.12-1.47-.35-.41-.23-.72-.56-.95-.99-.22-.43-.33-.93-.33-1.51s.11-1.07.33-1.5c.22-.43.53-.76.93-1,.4-.24.87-.36,1.42-.36.36,0,.71.06,1.02.17.32.12.59.29.83.52s.42.53.55.88c.13.35.2.76.2,1.23v.42h-4.67v-.95h3.23c0-.22-.05-.42-.14-.59s-.23-.3-.4-.4c-.17-.1-.37-.15-.59-.15s-.44.05-.62.16c-.18.11-.32.25-.42.43-.1.18-.15.38-.15.6v.9c0,.27.05.51.15.71s.25.35.43.46c.19.11.41.16.67.16.17,0,.33-.02.47-.07.14-.05.26-.12.36-.22.1-.1.18-.21.23-.35l1.42.09c-.07.34-.22.64-.44.89s-.51.45-.86.59c-.35.14-.75.21-1.21.21Z"/><path class="m" d="m214,16.54v-5.53h1.49v.96h.06c.1-.34.27-.6.51-.78.24-.18.51-.27.82-.27.08,0,.16,0,.25.01s.17.02.23.04v1.36c-.07-.02-.17-.04-.3-.06-.13-.02-.24-.02-.35-.02-.23,0-.43.05-.6.15s-.32.23-.42.41-.15.37-.15.6v3.13h-1.53Z"/><path class="m" d="m219.07,13.34v3.2h-1.53v-5.53h1.46v.98h.06c.12-.32.33-.58.62-.77.29-.19.64-.28,1.05-.28.38,0,.72.08,1,.25.29.17.51.41.67.72.16.31.24.68.24,1.11v3.52h-1.53v-3.25c0-.34-.08-.6-.26-.79s-.42-.29-.72-.29c-.21,0-.39.04-.55.13s-.28.22-.37.39c-.09.17-.13.37-.14.61Z"/><path class="m" d="m225.75,16.65c-.57,0-1.06-.12-1.47-.35-.41-.23-.72-.56-.95-.99-.22-.43-.33-.93-.33-1.51s.11-1.07.33-1.5c.22-.43.53-.76.93-1,.4-.24.87-.36,1.42-.36.36,0,.71.06,1.02.17.32.12.59.29.83.52s.42.53.55.88c.13.35.2.76.2,1.23v.42h-4.67v-.95h3.23c0-.22-.05-.42-.14-.59s-.23-.3-.4-.4c-.17-.1-.37-.15-.59-.15s-.44.05-.62.16c-.18.11-.32.25-.42.43-.1.18-.15.38-.15.6v.9c0,.27.05.51.15.71s.25.35.43.46c.19.11.41.16.67.16.17,0,.33-.02.47-.07.14-.05.26-.12.36-.22.1-.1.18-.21.23-.35l1.42.09c-.07.34-.22.64-.44.89s-.51.45-.86.59c-.35.14-.75.21-1.21.21Z"/><path class="m" d="m231.63,11.01v1.15h-3.33v-1.15h3.33Zm-2.58-1.33h1.53v5.16c0,.14.02.25.06.33.04.08.1.13.18.16.08.03.17.05.27.05.07,0,.14,0,.22-.02.07-.01.13-.02.17-.03l.24,1.14c-.08.02-.18.05-.32.08-.14.03-.31.05-.51.06-.37.01-.69-.03-.97-.15-.28-.11-.49-.29-.65-.53-.15-.24-.23-.54-.23-.9v-5.36Z"/><path class="m" d="m234.48,16.65c-.57,0-1.06-.12-1.47-.35-.41-.23-.72-.56-.95-.99-.22-.43-.33-.93-.33-1.51s.11-1.07.33-1.5c.22-.43.53-.76.93-1,.4-.24.87-.36,1.42-.36.36,0,.71.06,1.02.17.32.12.59.29.83.52s.42.53.55.88c.13.35.2.76.2,1.23v.42h-4.67v-.95h3.23c0-.22-.05-.42-.14-.59s-.23-.3-.4-.4c-.17-.1-.37-.15-.59-.15s-.44.05-.62.16c-.18.11-.32.25-.42.43-.1.18-.15.38-.15.6v.9c0,.27.05.51.15.71s.25.35.43.46c.19.11.41.16.67.16.17,0,.33-.02.47-.07.14-.05.26-.12.36-.22.1-.1.18-.21.23-.35l1.42.09c-.07.34-.22.64-.44.89s-.51.45-.86.59c-.35.14-.75.21-1.21.21Z"/><path class="m" d="m242.02,12.58l-1.4.09c-.02-.12-.08-.23-.16-.33-.08-.1-.18-.18-.31-.23-.13-.06-.28-.09-.46-.09-.24,0-.44.05-.6.15-.16.1-.24.23-.24.4,0,.13.05.24.16.33.11.09.29.16.54.22l1,.2c.54.11.94.29,1.2.53.26.25.4.57.4.97,0,.36-.11.68-.32.95-.21.27-.5.49-.87.64-.37.15-.79.23-1.27.23-.73,0-1.31-.15-1.75-.46-.43-.31-.69-.72-.76-1.25l1.51-.08c.05.22.16.39.33.51.18.12.4.17.67.17s.49-.05.65-.16.25-.24.25-.41c0-.14-.06-.25-.18-.34-.12-.09-.29-.16-.53-.21l-.96-.19c-.54-.11-.94-.3-1.21-.56-.26-.27-.39-.61-.39-1.02,0-.36.1-.66.29-.92.19-.26.47-.46.82-.59.35-.14.76-.21,1.24-.21.7,0,1.25.15,1.65.44.4.3.64.7.7,1.21Z"/><path class="m" d="m250.78,11.74h-1.58c-.03-.2-.09-.39-.18-.55s-.2-.3-.34-.41-.3-.2-.48-.26c-.18-.06-.38-.09-.59-.09-.38,0-.71.09-1,.28-.28.19-.5.46-.66.82-.16.36-.23.79-.23,1.31s.08.97.24,1.33c.16.36.38.63.66.81s.61.27.98.27c.21,0,.4-.03.58-.08.18-.06.34-.14.48-.24s.25-.24.35-.39c.09-.15.16-.33.19-.53h1.58c-.04.35-.14.67-.3.98-.16.31-.38.59-.65.84s-.6.44-.97.58c-.38.14-.8.21-1.27.21-.66,0-1.25-.15-1.76-.45-.52-.3-.93-.73-1.22-1.29-.3-.56-.45-1.25-.45-2.05s.15-1.49.45-2.05c.3-.56.71-.99,1.23-1.29.52-.3,1.1-.44,1.75-.44.43,0,.82.06,1.19.18.37.12.69.29.97.52.28.23.51.51.69.84.18.33.29.71.34,1.14Z"/><path class="m" d="m252.8,9.16v7.38h-1.53v-7.38h1.53Z"/><path class="m" d="m256.96,14.18v-3.18h1.53v5.53h-1.47v-1h-.06c-.12.32-.33.58-.62.78s-.64.3-1.06.3c-.37,0-.69-.08-.98-.25s-.5-.41-.66-.72c-.16-.31-.24-.68-.24-1.11v-3.52h1.53v3.25c0,.33.09.58.26.77.17.19.4.28.7.28.18,0,.36-.04.52-.13.16-.08.29-.21.39-.38s.15-.38.15-.62Z"/><path class="m" d="m263.71,12.58l-1.4.09c-.02-.12-.08-.23-.16-.33-.08-.1-.18-.18-.31-.23-.13-.06-.28-.09-.46-.09-.24,0-.44.05-.6.15-.16.1-.24.23-.24.4,0,.13.05.24.16.33s.29.16.54.22l1,.2c.54.11.94.29,1.2.53.26.25.4.57.4.97,0,.36-.11.68-.32.95-.21.27-.5.49-.87.64-.37.15-.79.23-1.27.23-.73,0-1.32-.15-1.75-.46-.43-.31-.69-.72-.76-1.25l1.51-.08c.04.22.16.39.33.51.17.12.4.17.67.17s.49-.05.65-.16c.17-.1.25-.24.25-.41,0-.14-.06-.25-.18-.34-.12-.09-.29-.16-.53-.21l-.96-.19c-.54-.11-.94-.3-1.21-.56-.26-.27-.39-.61-.39-1.02,0-.36.1-.66.29-.92.19-.26.47-.46.82-.59.35-.14.76-.21,1.24-.21.7,0,1.25.15,1.65.44.4.3.64.7.7,1.21Z"/><path class="m" d="m267.14,11.01v1.15h-3.33v-1.15h3.33Zm-2.58-1.33h1.53v5.16c0,.14.02.25.07.33.04.08.1.13.18.16s.17.05.27.05c.07,0,.14,0,.22-.02.07-.01.13-.02.17-.03l.24,1.14c-.08.02-.18.05-.32.08-.14.03-.31.05-.51.06-.37.01-.69-.03-.97-.15-.28-.11-.49-.29-.65-.53-.15-.24-.23-.54-.23-.9v-5.36Z"/><path class="m" d="m270,16.65c-.57,0-1.06-.12-1.47-.35-.41-.23-.72-.56-.95-.99-.22-.43-.33-.93-.33-1.51s.11-1.07.33-1.5c.22-.43.53-.76.93-1,.4-.24.88-.36,1.42-.36.36,0,.71.06,1.02.17.32.12.59.29.83.52s.42.53.55.88c.13.35.2.76.2,1.23v.42h-4.67v-.95h3.23c0-.22-.05-.42-.14-.59-.1-.17-.23-.3-.4-.4-.17-.1-.37-.15-.59-.15s-.44.05-.62.16-.32.25-.42.43c-.1.18-.15.38-.15.6v.9c0,.27.05.51.15.71.1.2.25.35.43.46s.41.16.67.16c.17,0,.33-.02.47-.07.14-.05.26-.12.36-.22.1-.1.18-.21.23-.35l1.42.09c-.07.34-.22.64-.44.89-.22.25-.51.45-.86.59-.35.14-.75.21-1.21.21Z"/><path class="m" d="m272.93,16.54v-5.53h1.49v.96h.06c.1-.34.27-.6.51-.78.24-.18.51-.27.82-.27.08,0,.16,0,.25.01s.17.02.23.04v1.36c-.07-.02-.17-.04-.3-.06-.13-.02-.24-.02-.35-.02-.23,0-.43.05-.6.15-.18.1-.32.23-.42.41-.1.17-.15.37-.15.6v3.13h-1.53Z"/></g><rect class="c" x="163.65" y=".32" width="139.52" height="58.62" rx="5.93" ry="5.93"/><g><g><path class="d" d="m153.68,161.46l.22,14.5s-41.88,14.06-41.88,14.06c0,0-43.3-13.72-43.3-13.72-.02,0-.03-.02-.03-.05l-.07-14.56s.03-.06.06-.05l43.31,13.53s41.69-13.63,41.69-13.63c.04-.01.04-.08,0-.09l-43.1-12.95s-.02,0-.03,0c0,0-41.92,13.22-41.92,13.19"/><line class="d" x1="112.02" y1="190.02" x2="111.99" y2="175.18"/></g><g><path class="i" d="m92.83,159.78c-.03-.31-.17-.56-.4-.73s-.55-.26-.96-.26c-.27,0-.51.04-.69.11-.19.08-.33.18-.43.32-.1.13-.15.29-.15.46,0,.14.03.27.09.37.07.11.16.2.27.27.12.08.25.14.4.2.15.06.32.1.49.14l.71.17c.35.08.67.18.96.31.29.13.54.29.75.48.21.19.38.41.5.67.12.26.18.55.18.88,0,.49-.13.91-.37,1.26-.25.36-.6.63-1.06.83-.46.2-1.01.29-1.66.29s-1.2-.1-1.67-.3c-.47-.2-.84-.49-1.11-.88-.26-.39-.4-.87-.42-1.44h1.63c.02.27.09.49.23.67s.32.31.55.4c.23.09.49.13.78.13s.53-.04.74-.12c.21-.08.37-.2.49-.35.12-.15.17-.32.17-.51,0-.18-.05-.33-.16-.45-.1-.12-.26-.23-.46-.31-.2-.09-.45-.16-.74-.23l-.87-.22c-.67-.16-1.2-.42-1.59-.76-.39-.35-.58-.81-.58-1.4,0-.48.13-.9.39-1.26.26-.36.62-.64,1.07-.84.46-.2.97-.3,1.55-.3s1.11.1,1.55.3c.44.2.79.48,1.03.84.25.36.37.78.38,1.25h-1.61Z"/><path class="i" d="m96.69,165.56c-.38,0-.72-.07-1.02-.2-.3-.13-.53-.33-.7-.59s-.26-.59-.26-.98c0-.33.06-.61.18-.83.12-.23.29-.41.5-.54.21-.14.45-.24.72-.31.27-.07.55-.12.84-.15.35-.04.63-.07.84-.1.21-.03.37-.08.46-.15.1-.06.14-.16.14-.29v-.02c0-.25-.08-.44-.23-.57s-.37-.2-.65-.2c-.3,0-.53.06-.71.2s-.29.29-.35.49l-1.53-.12c.08-.36.23-.68.46-.94.23-.27.52-.47.88-.61.36-.14.78-.22,1.25-.22.33,0,.65.04.95.12.3.08.57.2.81.36.24.16.42.37.56.63.14.25.21.56.21.91v4.02h-1.57v-.83h-.05c-.1.19-.22.35-.38.49-.16.14-.35.25-.58.33-.23.08-.49.12-.78.12Zm.47-1.14c.24,0,.46-.05.64-.15.19-.1.33-.23.44-.39.11-.17.16-.35.16-.56v-.63c-.05.03-.12.06-.21.09-.09.03-.19.05-.3.07s-.22.04-.33.06c-.11.02-.21.03-.3.04-.19.03-.36.07-.51.14-.14.06-.26.15-.34.25-.08.1-.12.23-.12.39,0,.23.08.4.25.51.16.12.37.18.63.18Z"/><path class="i" d="m102.32,162v3.45h-1.65v-5.96h1.58v1.05h.07c.13-.35.35-.62.66-.83s.69-.3,1.13-.3c.41,0,.78.09,1.08.27.31.18.55.44.72.77.17.33.26.73.26,1.2v3.8h-1.65v-3.5c0-.36-.09-.65-.28-.86-.19-.21-.45-.31-.78-.31-.22,0-.42.05-.59.14-.17.1-.3.23-.4.42-.09.18-.14.4-.15.66Z"/><path class="i" d="m109.01,165.54c-.45,0-.86-.12-1.23-.35-.37-.23-.66-.58-.87-1.04-.21-.46-.32-1.02-.32-1.68s.11-1.25.33-1.71c.22-.45.51-.79.88-1.02s.77-.34,1.21-.34c.33,0,.61.06.84.17s.41.25.54.42c.14.17.24.33.32.49h.05v-2.99h1.65v7.95h-1.63v-.96h-.07c-.08.17-.19.33-.33.49-.14.16-.32.3-.55.4s-.5.16-.82.16Zm.52-1.32c.27,0,.49-.07.68-.22.18-.15.33-.35.43-.62.1-.26.15-.57.15-.93s-.05-.66-.15-.92c-.1-.26-.24-.46-.43-.61-.19-.14-.41-.21-.68-.21s-.5.07-.69.22c-.19.15-.33.35-.42.61-.1.26-.14.56-.14.91s.05.65.15.92c.1.27.24.47.42.62.18.15.41.22.68.22Z"/><path class="i" d="m113.13,165.44v-7.95h1.65v2.99h.05c.07-.16.18-.32.32-.49.14-.17.32-.31.54-.42s.5-.17.84-.17c.43,0,.83.11,1.2.34.37.23.66.57.88,1.02.22.45.33,1.02.33,1.71s-.11,1.23-.32,1.68c-.21.46-.5.8-.87,1.04-.37.23-.78.35-1.23.35-.32,0-.59-.05-.82-.16s-.41-.24-.55-.4c-.14-.16-.25-.33-.33-.49h-.07v.96h-1.63Zm1.62-2.98c0,.35.05.66.15.93.1.26.24.47.43.62.19.15.41.22.68.22s.5-.07.68-.22c.19-.15.33-.36.42-.62.1-.27.15-.57.15-.92s-.05-.65-.14-.91c-.1-.26-.24-.47-.42-.61-.19-.15-.42-.22-.69-.22s-.5.07-.68.21c-.18.14-.33.34-.42.61-.1.26-.15.57-.15.92Z"/><path class="i" d="m122.08,165.56c-.6,0-1.12-.13-1.56-.39-.44-.26-.78-.62-1.01-1.08s-.36-1-.36-1.61.12-1.15.36-1.62.58-.82,1.01-1.08c.44-.26.96-.39,1.56-.39s1.12.13,1.56.39c.44.26.78.62,1.02,1.08.24.46.36,1,.36,1.62s-.12,1.15-.36,1.61c-.24.46-.58.82-1.02,1.08-.44.26-.96.39-1.56.39Zm0-1.28c.27,0,.5-.08.69-.23.18-.16.32-.37.42-.64.09-.27.14-.58.14-.93s-.05-.66-.14-.93c-.09-.27-.23-.49-.42-.64s-.41-.24-.69-.24-.51.08-.7.24-.33.37-.42.64c-.09.27-.14.58-.14.93s.05.66.14.93c.09.27.24.49.42.64.19.16.42.23.7.23Z"/><path class="i" d="m126.6,159.48l1.09,2.08,1.12-2.08h1.7l-1.73,2.98,1.77,2.98h-1.69l-1.18-2.06-1.16,2.06h-1.71l1.77-2.98-1.71-2.98h1.71Z"/><path class="i" d="m136.16,157.49v7.95h-1.68v-6.35h-.05l-1.82,1.14v-1.49l1.97-1.25h1.58Z"/></g></g><g><line class="e" x1="154.61" y1="169.78" x2="155.41" y2="169.78"/><path class="h" d="m157.01,169.78h34.25c20.41,0,36.96,16.55,36.96,36.96v236.21c0,20.41-16.55,36.96-36.96,36.96H37.26c-20.41,0-36.96-16.55-36.96-36.96v-236.21c0-20.41,16.55-36.96,36.96-36.96h29.59"/><line class="e" x1="67.66" y1="169.78" x2="68.45" y2="169.78"/></g><g><g><path class="d" d="m422.25,161.46l.22,14.5s-41.88,14.06-41.88,14.06c0,0-43.3-13.72-43.3-13.72-.02,0-.03-.02-.03-.05l-.07-14.56s.03-.06.06-.05l43.31,13.53s41.69-13.63,41.69-13.63c.04-.01.04-.08,0-.09l-43.1-12.95s-.02,0-.03,0c0,0-41.92,13.22-41.92,13.19"/><line class="d" x1="380.59" y1="190.02" x2="380.56" y2="175.18"/></g><g><path class="i" d="m360.4,159.78c-.03-.31-.17-.56-.4-.73s-.55-.26-.96-.26c-.27,0-.51.04-.69.11-.19.08-.33.18-.43.32-.1.13-.15.29-.15.46,0,.14.03.27.09.37.07.11.16.2.27.27.12.08.25.14.4.2.15.06.32.1.49.14l.71.17c.35.08.67.18.96.31.29.13.54.29.75.48.21.19.38.41.5.67.12.26.18.55.18.88,0,.49-.13.91-.37,1.26-.25.36-.6.63-1.06.83-.46.2-1.01.29-1.66.29s-1.2-.1-1.67-.3c-.47-.2-.84-.49-1.11-.88-.26-.39-.4-.87-.42-1.44h1.63c.02.27.09.49.23.67s.32.31.55.4c.23.09.49.13.78.13s.53-.04.74-.12c.21-.08.37-.2.49-.35.12-.15.17-.32.17-.51,0-.18-.05-.33-.16-.45-.1-.12-.26-.23-.46-.31-.2-.09-.45-.16-.74-.23l-.87-.22c-.67-.16-1.2-.42-1.59-.76-.39-.35-.58-.81-.58-1.4,0-.48.13-.9.39-1.26.26-.36.62-.64,1.07-.84.46-.2.97-.3,1.55-.3s1.11.1,1.55.3c.44.2.79.48,1.03.84.25.36.37.78.38,1.25h-1.61Z"/><path class="i" d="m364.26,165.56c-.38,0-.72-.07-1.02-.2-.3-.13-.53-.33-.7-.59s-.26-.59-.26-.98c0-.33.06-.61.18-.83.12-.23.29-.41.5-.54.21-.14.45-.24.72-.31.27-.07.55-.12.84-.15.35-.04.63-.07.84-.1.21-.03.37-.08.46-.15.1-.06.14-.16.14-.29v-.02c0-.25-.08-.44-.23-.57s-.37-.2-.65-.2c-.3,0-.53.06-.71.2s-.29.29-.35.49l-1.53-.12c.08-.36.23-.68.46-.94.23-.27.52-.47.88-.61.36-.14.78-.22,1.25-.22.33,0,.65.04.95.12.3.08.57.2.81.36.24.16.42.37.56.63.14.25.21.56.21.91v4.02h-1.57v-.83h-.05c-.1.19-.22.35-.38.49-.16.14-.35.25-.58.33-.23.08-.49.12-.78.12Zm.47-1.14c.24,0,.46-.05.64-.15.19-.1.33-.23.44-.39.11-.17.16-.35.16-.56v-.63c-.05.03-.12.06-.21.09-.09.03-.19.05-.3.07s-.22.04-.33.06c-.11.02-.21.03-.3.04-.19.03-.36.07-.51.14-.14.06-.26.15-.34.25-.08.1-.12.23-.12.39,0,.23.08.4.25.51.16.12.37.18.63.18Z"/><path class="i" d="m369.9,162v3.45h-1.65v-5.96h1.58v1.05h.07c.13-.35.35-.62.66-.83s.69-.3,1.13-.3c.41,0,.78.09,1.08.27.31.18.55.44.72.77.17.33.26.73.26,1.2v3.8h-1.65v-3.5c0-.36-.09-.65-.28-.86-.19-.21-.45-.31-.78-.31-.22,0-.42.05-.59.14-.17.1-.3.23-.4.42-.09.18-.14.4-.15.66Z"/><path class="i" d="m376.58,165.54c-.45,0-.86-.12-1.23-.35-.37-.23-.66-.58-.87-1.04-.21-.46-.32-1.02-.32-1.68s.11-1.25.33-1.71c.22-.45.51-.79.88-1.02s.77-.34,1.21-.34c.33,0,.61.06.84.17s.41.25.54.42c.14.17.24.33.32.49h.05v-2.99h1.65v7.95h-1.63v-.96h-.07c-.08.17-.19.33-.33.49-.14.16-.32.3-.55.4s-.5.16-.82.16Zm.52-1.32c.27,0,.49-.07.68-.22.18-.15.33-.35.43-.62.1-.26.15-.57.15-.93s-.05-.66-.15-.92c-.1-.26-.24-.46-.43-.61-.19-.14-.41-.21-.68-.21s-.5.07-.69.22c-.19.15-.33.35-.42.61-.1.26-.14.56-.14.91s.05.65.15.92c.1.27.24.47.42.62.18.15.41.22.68.22Z"/><path class="i" d="m380.7,165.44v-7.95h1.65v2.99h.05c.07-.16.18-.32.32-.49.14-.17.32-.31.54-.42s.5-.17.84-.17c.43,0,.83.11,1.2.34.37.23.66.57.88,1.02.22.45.33,1.02.33,1.71s-.11,1.23-.32,1.68c-.21.46-.5.8-.87,1.04-.37.23-.78.35-1.23.35-.32,0-.59-.05-.82-.16s-.41-.24-.55-.4c-.14-.16-.25-.33-.33-.49h-.07v.96h-1.63Zm1.62-2.98c0,.35.05.66.15.93.1.26.24.47.43.62.19.15.41.22.68.22s.5-.07.68-.22c.19-.15.33-.36.42-.62.1-.27.15-.57.15-.92s-.05-.65-.14-.91c-.1-.26-.24-.47-.42-.61-.19-.15-.42-.22-.69-.22s-.5.07-.68.21c-.18.14-.33.34-.42.61-.1.26-.15.57-.15.92Z"/><path class="i" d="m389.66,165.56c-.6,0-1.12-.13-1.56-.39-.44-.26-.78-.62-1.01-1.08s-.36-1-.36-1.61.12-1.15.36-1.62.58-.82,1.01-1.08c.44-.26.96-.39,1.56-.39s1.12.13,1.56.39c.44.26.78.62,1.02,1.08.24.46.36,1,.36,1.62s-.12,1.15-.36,1.61c-.24.46-.58.82-1.02,1.08-.44.26-.96.39-1.56.39Zm0-1.28c.27,0,.5-.08.69-.23.18-.16.32-.37.42-.64.09-.27.14-.58.14-.93s-.05-.66-.14-.93c-.09-.27-.23-.49-.42-.64s-.41-.24-.69-.24-.51.08-.7.24-.33.37-.42.64c-.09.27-.14.58-.14.93s.05.66.14.93c.09.27.24.49.42.64.19.16.42.23.7.23Z"/><path class="i" d="m394.17,159.48l1.09,2.08,1.12-2.08h1.7l-1.73,2.98,1.77,2.98h-1.69l-1.18-2.06-1.16,2.06h-1.71l1.77-2.98-1.71-2.98h1.71Z"/><path class="i" d="m400.27,165.44v-1.21l2.83-2.62c.24-.23.44-.44.61-.63.16-.19.29-.37.37-.55.09-.18.13-.37.13-.58,0-.23-.05-.43-.16-.6-.11-.17-.25-.3-.43-.39s-.39-.14-.62-.14-.46.05-.64.15c-.18.1-.32.24-.42.42-.1.18-.15.4-.15.66h-1.6c0-.52.12-.97.35-1.35.24-.38.57-.68.99-.89.42-.21.91-.31,1.47-.31s1.07.1,1.49.3c.42.2.75.48.99.83s.35.76.35,1.22c0,.3-.06.6-.18.89-.12.29-.33.62-.63.97s-.72.78-1.27,1.28l-1.16,1.14v.05h3.34v1.37h-5.67Z"/></g></g><g><line class="e" x1="423.35" y1="169.78" x2="424.15" y2="169.78"/><path class="h" d="m425.74,169.78h34.25c20.42,0,36.96,16.55,36.96,36.96v236.21c0,20.41-16.55,36.96-36.96,36.96h-153.99c-20.41,0-36.96-16.55-36.96-36.96v-236.21c0-20.41,16.55-36.96,36.96-36.96h29.59"/><line class="e" x1="336.39" y1="169.78" x2="337.19" y2="169.78"/></g><rect class="c" x="27.75" y="210.51" width="176.75" height="67.99" rx="5.93" ry="5.93"/><rect class="c" x="122.84" y="336.11" width="81.74" height="102.87" rx="5.93" ry="5.93"/><g><path class="m" d="m103.35,217.35h1.92l2.03,4.96h.09l2.03-4.96h1.92v7.38h-1.51v-4.8h-.06l-1.91,4.76h-1.03l-1.91-4.78h-.06v4.82h-1.51v-7.38Z"/><path class="m" d="m113.29,224.72h-1.67l2.55-7.38h2.01l2.54,7.38h-1.67l-1.85-5.69h-.06l-1.85,5.69Zm-.1-2.9h3.95v1.22h-3.95v-1.22Z"/><path class="m" d="m125.17,217.35v7.38h-1.35l-3.21-4.64h-.05v4.64h-1.56v-7.38h1.37l3.18,4.64h.06v-4.64h1.55Z"/></g><rect class="c" x="129.49" y="345.47" width="68.44" height="31.51" rx="5.93" ry="5.93"/><g><path class="m" d="m144.8,357.66l-2.11-7.38h1.7l1.22,5.12h.06l1.35-5.12h1.46l1.34,5.14h.06l1.22-5.14h1.7l-2.11,7.38h-1.52l-1.4-4.82h-.06l-1.4,4.82h-1.52Z"/><path class="m" d="m153.78,351.41c-.23,0-.42-.08-.58-.23s-.24-.34-.24-.55.08-.39.24-.54.36-.23.58-.23.42.08.59.23.24.33.24.54-.08.4-.24.55-.36.23-.59.23Zm-.77,6.25v-5.53h1.53v5.53h-1.53Z"/><path class="m" d="m156.7,354.46v3.2h-1.53v-5.53h1.46v.98h.06c.12-.32.33-.58.62-.77.29-.19.64-.28,1.05-.28.38,0,.72.08,1,.25.29.17.51.41.67.72.16.31.24.68.24,1.11v3.52h-1.53v-3.25c0-.34-.08-.6-.26-.79-.18-.19-.42-.29-.72-.29-.21,0-.39.04-.55.13s-.28.22-.37.39c-.09.17-.13.37-.14.61Z"/><path class="m" d="m162.9,357.75c-.42,0-.8-.11-1.14-.33-.34-.22-.61-.54-.81-.96-.2-.42-.3-.94-.3-1.56s.1-1.16.31-1.58c.2-.42.48-.74.82-.95s.71-.32,1.12-.32c.31,0,.57.05.78.16.21.1.38.23.5.39.13.16.23.31.29.46h.05v-2.77h1.53v7.38h-1.51v-.89h-.06c-.07.15-.17.3-.3.46s-.3.27-.51.37-.46.15-.76.15Zm.49-1.22c.25,0,.46-.07.63-.2.17-.13.3-.33.4-.57.09-.25.14-.53.14-.86s-.05-.61-.14-.86c-.09-.24-.22-.43-.4-.56-.17-.13-.38-.2-.63-.2s-.46.07-.64.21-.3.33-.39.57c-.09.24-.13.52-.13.84s.04.61.14.85c.09.25.22.44.39.58.17.14.38.21.64.21Z"/><path class="m" d="m169.19,357.76c-.56,0-1.04-.12-1.45-.36-.41-.24-.72-.57-.94-1-.22-.43-.33-.93-.33-1.49s.11-1.07.33-1.5c.22-.43.53-.76.94-1,.41-.24.89-.36,1.45-.36s1.04.12,1.45.36c.41.24.72.57.94,1,.22.43.33.93.33,1.5s-.11,1.06-.33,1.49c-.22.43-.53.76-.94,1-.41.24-.89.36-1.45.36Zm0-1.19c.25,0,.47-.07.64-.22.17-.14.3-.34.39-.6.09-.25.13-.54.13-.86s-.04-.61-.13-.86c-.09-.25-.22-.45-.39-.6s-.38-.22-.64-.22-.47.07-.65.22c-.17.15-.3.35-.39.6-.09.25-.13.54-.13.86s.04.61.13.86c.09.25.22.45.39.6.17.15.39.22.65.22Z"/><path class="m" d="m173.26,357.66l-1.51-5.53h1.55l.86,3.72h.05l.89-3.72h1.52l.91,3.7h.05l.84-3.7h1.55l-1.5,5.53h-1.62l-.95-3.48h-.07l-.95,3.48h-1.62Z"/><path class="m" d="m184.79,353.7l-1.4.09c-.02-.12-.08-.23-.16-.33-.08-.1-.18-.17-.31-.23-.13-.06-.28-.09-.46-.09-.24,0-.44.05-.6.15-.16.1-.24.23-.24.4,0,.13.05.24.16.33.11.09.29.16.54.22l1,.2c.54.11.94.29,1.2.53s.4.57.4.96c0,.36-.11.68-.32.96-.21.27-.5.49-.87.64-.37.15-.79.23-1.27.23-.73,0-1.31-.15-1.75-.46-.43-.31-.69-.72-.76-1.25l1.51-.08c.05.22.16.39.33.51.18.12.4.17.67.17s.49-.05.65-.16.25-.24.25-.41c0-.14-.06-.25-.18-.34-.12-.09-.29-.16-.53-.21l-.96-.19c-.54-.11-.94-.29-1.21-.56-.26-.27-.39-.61-.39-1.02,0-.36.1-.66.29-.92.19-.26.47-.46.82-.59.35-.14.76-.21,1.24-.21.7,0,1.25.15,1.65.44.4.29.64.7.7,1.21Z"/><path class="m" d="m145.07,369.83v-7.38h4.97v1.29h-3.41v1.76h3.15v1.29h-3.15v1.76h3.42v1.29h-4.98Z"/><path class="m" d="m151.92,364.29l1.02,1.93,1.04-1.93h1.57l-1.6,2.77,1.65,2.77h-1.57l-1.09-1.91-1.07,1.91h-1.58l1.64-2.77-1.58-2.77h1.58Z"/><path class="m" d="m155.85,371.9v-7.61h1.51v.93h.07c.07-.15.17-.3.29-.46.13-.15.3-.28.5-.39.21-.1.47-.16.78-.16.4,0,.78.11,1.12.32.34.21.61.53.82.95.2.42.31.95.31,1.58s-.1,1.14-.3,1.56c-.2.42-.47.74-.81.96-.34.22-.72.33-1.14.33-.3,0-.55-.05-.76-.15s-.38-.22-.51-.37c-.13-.15-.23-.3-.3-.46h-.05v2.96h-1.53Zm1.5-4.84c0,.33.05.62.14.86s.22.44.4.57c.17.14.38.2.63.2s.46-.07.63-.21c.17-.14.3-.33.39-.58.09-.25.13-.53.13-.85s-.04-.6-.13-.84c-.09-.24-.22-.43-.39-.57-.17-.14-.39-.21-.64-.21s-.46.07-.63.2c-.17.13-.3.32-.39.56-.09.24-.14.53-.14.86Z"/><path class="m" d="m164.16,369.93c-.56,0-1.04-.12-1.45-.36-.41-.24-.72-.57-.94-1-.22-.43-.33-.93-.33-1.49s.11-1.07.33-1.5c.22-.43.53-.76.94-1,.41-.24.89-.36,1.45-.36s1.04.12,1.45.36c.41.24.72.57.94,1,.22.43.33.93.33,1.5s-.11,1.06-.33,1.49c-.22.43-.53.76-.94,1-.41.24-.89.36-1.45.36Zm0-1.19c.25,0,.47-.07.64-.22.17-.14.3-.34.39-.6.09-.25.13-.54.13-.86s-.04-.61-.13-.86c-.09-.25-.22-.45-.39-.6s-.38-.22-.64-.22-.47.07-.65.22c-.17.15-.3.35-.39.6-.09.25-.13.54-.13.86s.04.61.13.86c.09.25.22.45.39.6.17.15.39.22.65.22Z"/><path class="m" d="m167.27,369.83v-5.53h1.49v.96h.06c.1-.34.27-.6.51-.78s.51-.26.82-.26c.08,0,.16,0,.25.01s.17.02.23.04v1.36c-.07-.02-.17-.04-.3-.06-.13-.02-.24-.02-.35-.02-.23,0-.43.05-.6.15-.18.1-.32.23-.42.41s-.15.37-.15.6v3.13h-1.53Z"/><path class="m" d="m174.03,364.29v1.15h-3.33v-1.15h3.33Zm-2.58-1.33h1.53v5.16c0,.14.02.25.06.33.04.08.1.13.18.16.08.03.17.05.27.05.07,0,.14,0,.22-.02.07-.01.13-.02.17-.03l.24,1.14c-.08.02-.18.05-.32.08-.14.03-.31.05-.51.06-.37.01-.69-.03-.97-.15s-.49-.29-.65-.53c-.15-.24-.23-.54-.23-.9v-5.36Z"/><path class="m" d="m176.88,369.93c-.57,0-1.06-.12-1.47-.35-.41-.23-.72-.56-.95-.99-.22-.43-.33-.93-.33-1.51s.11-1.07.33-1.5c.22-.43.53-.76.93-1,.4-.24.87-.36,1.42-.36.36,0,.71.06,1.02.17.32.12.59.29.83.52.24.23.42.53.55.88.13.35.2.76.2,1.23v.42h-4.67v-.95h3.23c0-.22-.05-.42-.14-.59-.1-.17-.23-.3-.4-.4-.17-.1-.37-.15-.59-.15s-.44.05-.62.16c-.18.11-.32.25-.42.43-.1.18-.15.38-.15.6v.9c0,.27.05.51.15.71s.25.35.43.46c.19.11.41.16.67.16.17,0,.33-.02.47-.07.14-.05.26-.12.36-.22.1-.1.18-.21.23-.35l1.42.09c-.07.34-.22.64-.44.89-.22.25-.51.45-.86.59-.35.14-.75.21-1.21.21Z"/><path class="m" d="m179.81,369.83v-5.53h1.49v.96h.06c.1-.34.27-.6.51-.78s.51-.26.82-.26c.08,0,.16,0,.25.01s.17.02.23.04v1.36c-.07-.02-.17-.04-.3-.06-.13-.02-.24-.02-.35-.02-.23,0-.43.05-.6.15-.18.1-.32.23-.42.41s-.15.37-.15.6v3.13h-1.53Z"/></g><rect class="c" x="27.75" y="336.11" width="81.74" height="102.87" rx="5.93" ry="5.93"/><rect class="c" x="34.4" y="345.47" width="68.44" height="31.51" rx="5.93" ry="5.93"/><g><path class="m" d="m63.43,350.28v7.38h-1.35l-3.21-4.64h-.05v4.64h-1.56v-7.38h1.37l3.18,4.64h.06v-4.64h1.55Z"/><path class="m" d="m66.58,357.76c-.56,0-1.04-.12-1.45-.36-.41-.24-.72-.57-.94-1-.22-.43-.33-.93-.33-1.49s.11-1.07.33-1.5c.22-.43.53-.76.94-1,.41-.24.89-.36,1.45-.36s1.04.12,1.45.36c.41.24.72.57.94,1,.22.43.33.93.33,1.5s-.11,1.06-.33,1.49c-.22.43-.53.76-.94,1-.41.24-.89.36-1.45.36Zm0-1.19c.25,0,.47-.07.64-.22.17-.14.3-.34.39-.6.09-.25.13-.54.13-.86s-.04-.61-.13-.86c-.09-.25-.22-.45-.39-.6s-.38-.22-.64-.22-.47.07-.65.22c-.17.15-.3.35-.39.6-.09.25-.13.54-.13.86s.04.61.13.86c.09.25.22.45.39.6.17.15.39.22.65.22Z"/><path class="m" d="m71.73,357.75c-.42,0-.8-.11-1.14-.33-.34-.22-.61-.54-.81-.96-.2-.42-.3-.94-.3-1.56s.1-1.16.31-1.58c.2-.42.48-.74.82-.95s.71-.32,1.12-.32c.31,0,.57.05.78.16.21.1.38.23.5.39.13.16.23.31.29.46h.05v-2.77h1.53v7.38h-1.51v-.89h-.06c-.07.15-.17.3-.3.46s-.3.27-.51.37-.46.15-.76.15Zm.49-1.22c.25,0,.46-.07.63-.2.17-.13.3-.33.4-.57.09-.25.14-.53.14-.86s-.05-.61-.14-.86c-.09-.24-.22-.43-.4-.56-.17-.13-.38-.2-.63-.2s-.46.07-.64.21-.3.33-.39.57c-.09.24-.13.52-.13.84s.04.61.14.85c.09.25.22.44.39.58.17.14.38.21.64.21Z"/><path class="m" d="m78.05,357.76c-.57,0-1.06-.12-1.47-.35-.41-.23-.72-.56-.95-.99-.22-.43-.33-.93-.33-1.51s.11-1.07.33-1.5c.22-.43.53-.76.93-1,.4-.24.87-.36,1.42-.36.36,0,.71.06,1.02.17.32.12.59.29.83.52.24.23.42.53.55.88.13.35.2.76.2,1.23v.42h-4.67v-.95h3.23c0-.22-.05-.42-.14-.59-.1-.17-.23-.3-.4-.4-.17-.1-.37-.15-.59-.15s-.44.05-.62.16c-.18.11-.32.25-.42.43-.1.18-.15.38-.15.6v.9c0,.27.05.51.15.71s.25.35.43.46c.19.11.41.16.67.16.17,0,.33-.02.47-.07.14-.05.26-.12.36-.22.1-.1.18-.21.23-.35l1.42.09c-.07.34-.22.64-.44.89-.22.25-.51.45-.86.59-.35.14-.75.21-1.21.21Z"/><path class="m" d="m49.98,369.83v-7.38h4.97v1.29h-3.41v1.76h3.15v1.29h-3.15v1.76h3.42v1.29h-4.98Z"/><path class="m" d="m56.83,364.29l1.02,1.93,1.04-1.93h1.57l-1.6,2.77,1.65,2.77h-1.57l-1.09-1.91-1.07,1.91h-1.58l1.64-2.77-1.58-2.77h1.58Z"/><path class="m" d="m60.76,371.9v-7.61h1.51v.93h.07c.07-.15.17-.3.29-.46.13-.15.3-.28.5-.39.21-.1.47-.16.78-.16.4,0,.78.11,1.12.32.34.21.61.53.82.95.2.42.31.95.31,1.58s-.1,1.14-.3,1.56c-.2.42-.47.74-.81.96-.34.22-.72.33-1.14.33-.3,0-.55-.05-.76-.15s-.38-.22-.51-.37c-.13-.15-.23-.3-.3-.46h-.05v2.96h-1.53Zm1.5-4.84c0,.33.05.62.14.86s.22.44.4.57c.17.14.38.2.63.2s.46-.07.63-.21c.17-.14.3-.33.39-.58.09-.25.13-.53.13-.85s-.04-.6-.13-.84c-.09-.24-.22-.43-.39-.57-.17-.14-.39-.21-.64-.21s-.46.07-.63.2c-.17.13-.3.32-.39.56-.09.24-.14.53-.14.86Z"/><path class="m" d="m69.07,369.93c-.56,0-1.04-.12-1.45-.36-.41-.24-.72-.57-.94-1-.22-.43-.33-.93-.33-1.49s.11-1.07.33-1.5c.22-.43.53-.76.94-1,.41-.24.89-.36,1.45-.36s1.04.12,1.45.36c.41.24.72.57.94,1,.22.43.33.93.33,1.5s-.11,1.06-.33,1.49c-.22.43-.53.76-.94,1-.41.24-.89.36-1.45.36Zm0-1.19c.25,0,.47-.07.64-.22.17-.14.3-.34.39-.6.09-.25.13-.54.13-.86s-.04-.61-.13-.86c-.09-.25-.22-.45-.39-.6s-.38-.22-.64-.22-.47.07-.65.22c-.17.15-.3.35-.39.6-.09.25-.13.54-.13.86s.04.61.13.86c.09.25.22.45.39.6.17.15.39.22.65.22Z"/><path class="m" d="m72.18,369.83v-5.53h1.49v.96h.06c.1-.34.27-.6.51-.78s.51-.26.82-.26c.08,0,.16,0,.25.01s.17.02.23.04v1.36c-.07-.02-.17-.04-.3-.06-.13-.02-.24-.02-.35-.02-.23,0-.43.05-.6.15-.18.1-.32.23-.42.41s-.15.37-.15.6v3.13h-1.53Z"/><path class="m" d="m78.94,364.29v1.15h-3.33v-1.15h3.33Zm-2.58-1.33h1.53v5.16c0,.14.02.25.06.33.04.08.1.13.18.16.08.03.17.05.27.05.07,0,.14,0,.22-.02.07-.01.13-.02.17-.03l.24,1.14c-.08.02-.18.05-.32.08-.14.03-.31.05-.51.06-.37.01-.69-.03-.97-.15s-.49-.29-.65-.53c-.15-.24-.23-.54-.23-.9v-5.36Z"/><path class="m" d="m81.79,369.93c-.57,0-1.06-.12-1.47-.35-.41-.23-.72-.56-.95-.99-.22-.43-.33-.93-.33-1.51s.11-1.07.33-1.5c.22-.43.53-.76.93-1,.4-.24.87-.36,1.42-.36.36,0,.71.06,1.02.17.32.12.59.29.83.52.24.23.42.53.55.88.13.35.2.76.2,1.23v.42h-4.67v-.95h3.23c0-.22-.05-.42-.14-.59-.1-.17-.23-.3-.4-.4-.17-.1-.37-.15-.59-.15s-.44.05-.62.16c-.18.11-.32.25-.42.43-.1.18-.15.38-.15.6v.9c0,.27.05.51.15.71s.25.35.43.46c.19.11.41.16.67.16.17,0,.33-.02.47-.07.14-.05.26-.12.36-.22.1-.1.18-.21.23-.35l1.42.09c-.07.34-.22.64-.44.89-.22.25-.51.45-.86.59-.35.14-.75.21-1.21.21Z"/><path class="m" d="m84.72,369.83v-5.53h1.49v.96h.06c.1-.34.27-.6.51-.78s.51-.26.82-.26c.08,0,.16,0,.25.01s.17.02.23.04v1.36c-.07-.02-.17-.04-.3-.06-.13-.02-.24-.02-.35-.02-.23,0-.43.05-.6.15-.18.1-.32.23-.42.41s-.15.37-.15.6v3.13h-1.53Z"/></g><rect class="c" x="294.62" y="210.61" width="176.75" height="67.99" rx="5.93" ry="5.93"/><rect class="c" x="389.63" y="336.21" width="81.74" height="102.87" rx="5.93" ry="5.93"/><g><path class="m" d="m370.22,217.45h1.92l2.03,4.96h.09l2.03-4.96h1.92v7.38h-1.51v-4.8h-.06l-1.91,4.76h-1.03l-1.91-4.78h-.06v4.82h-1.51v-7.38Z"/><path class="m" d="m380.16,224.83h-1.67l2.55-7.38h2.01l2.54,7.38h-1.67l-1.85-5.69h-.06l-1.85,5.69Zm-.1-2.9h3.95v1.22h-3.95v-1.22Z"/><path class="m" d="m392.04,217.45v7.38h-1.35l-3.21-4.64h-.05v4.64h-1.56v-7.38h1.37l3.18,4.64h.06v-4.64h1.55Z"/></g><rect class="c" x="396.28" y="345.57" width="68.44" height="31.51" rx="5.93" ry="5.93"/><g><path class="m" d="m411.6,357.76l-2.11-7.38h1.7l1.22,5.12h.06l1.35-5.12h1.46l1.34,5.14h.06l1.22-5.14h1.7l-2.11,7.38h-1.52l-1.41-4.82h-.06l-1.4,4.82h-1.52Z"/><path class="m" d="m420.58,351.51c-.23,0-.42-.08-.58-.23s-.24-.33-.24-.55.08-.39.24-.55.36-.23.58-.23.42.08.59.23.24.33.24.55-.08.4-.24.55-.36.23-.59.23Zm-.77,6.25v-5.53h1.53v5.53h-1.53Z"/><path class="m" d="m423.49,354.56v3.2h-1.53v-5.53h1.46v.98h.06c.12-.32.33-.58.62-.77s.64-.28,1.05-.28c.38,0,.72.08,1,.25s.51.41.67.72c.16.31.24.68.24,1.11v3.52h-1.53v-3.25c0-.34-.08-.6-.26-.79-.17-.19-.42-.29-.72-.29-.21,0-.39.04-.55.13s-.28.22-.37.39c-.09.17-.13.37-.13.61Z"/><path class="m" d="m429.69,357.85c-.42,0-.8-.11-1.14-.33-.34-.22-.61-.54-.81-.96s-.3-.94-.3-1.56.1-1.16.31-1.58c.2-.42.48-.74.82-.95.34-.21.71-.32,1.12-.32.31,0,.57.05.78.16.21.1.38.23.5.39.13.15.23.31.29.46h.05v-2.77h1.53v7.38h-1.51v-.89h-.07c-.07.15-.17.31-.3.46-.13.15-.3.27-.51.37-.21.1-.46.15-.76.15Zm.49-1.22c.25,0,.46-.07.63-.2s.3-.33.4-.57c.09-.24.14-.53.14-.86s-.05-.61-.14-.86c-.09-.24-.22-.43-.4-.56s-.38-.2-.63-.2-.46.07-.64.21-.3.33-.39.57-.13.52-.13.84.04.61.14.85c.09.25.22.44.39.58.17.14.38.21.63.21Z"/><path class="m" d="m435.99,357.87c-.56,0-1.04-.12-1.45-.36-.41-.24-.72-.57-.94-1-.22-.43-.33-.93-.33-1.49s.11-1.07.33-1.5c.22-.43.54-.76.94-1,.41-.24.89-.36,1.45-.36s1.04.12,1.45.36c.41.24.72.57.94,1s.33.93.33,1.5-.11,1.06-.33,1.49-.54.76-.94,1c-.41.24-.89.36-1.45.36Zm0-1.19c.25,0,.47-.07.64-.22.17-.15.3-.34.39-.6.09-.25.13-.54.13-.86s-.04-.61-.13-.86c-.09-.25-.22-.45-.39-.6-.17-.15-.38-.22-.64-.22s-.47.07-.65.22c-.17.15-.3.35-.39.6-.09.25-.13.54-.13.86s.04.61.13.86c.09.25.22.45.39.6.17.15.39.22.65.22Z"/><path class="m" d="m440.06,357.76l-1.51-5.53h1.55l.86,3.72h.05l.89-3.72h1.52l.91,3.69h.05l.84-3.69h1.55l-1.5,5.53h-1.62l-.95-3.48h-.07l-.95,3.48h-1.62Z"/><path class="m" d="m451.58,353.8l-1.4.09c-.02-.12-.08-.23-.16-.33-.08-.1-.18-.18-.31-.23-.13-.06-.28-.09-.46-.09-.24,0-.44.05-.6.15s-.25.23-.25.4c0,.13.05.24.16.33.11.09.29.17.54.22l1,.2c.54.11.94.29,1.2.53.26.25.4.57.4.97,0,.36-.11.68-.32.95-.21.27-.5.49-.87.64s-.79.23-1.27.23c-.73,0-1.31-.15-1.75-.46-.43-.31-.69-.72-.76-1.25l1.51-.08c.05.22.16.39.33.51.18.12.4.17.67.17s.49-.05.65-.16c.16-.1.25-.24.25-.41,0-.14-.06-.25-.18-.34s-.29-.16-.53-.21l-.96-.19c-.54-.11-.94-.3-1.21-.56s-.39-.61-.39-1.02c0-.36.1-.66.29-.92s.47-.46.82-.59c.35-.14.76-.21,1.24-.21.7,0,1.25.15,1.65.44.4.3.64.7.7,1.21Z"/><path class="m" d="m411.86,369.93v-7.38h4.97v1.29h-3.41v1.76h3.16v1.29h-3.16v1.76h3.42v1.29h-4.98Z"/><path class="m" d="m418.72,364.4l1.02,1.93,1.04-1.93h1.57l-1.6,2.77,1.65,2.77h-1.57l-1.09-1.91-1.07,1.91h-1.58l1.64-2.77-1.58-2.77h1.58Z"/><path class="m" d="m422.65,372v-7.61h1.51v.93h.07c.07-.15.17-.3.29-.46.13-.16.3-.29.5-.39.21-.1.47-.16.78-.16.4,0,.78.1,1.12.32.34.21.61.53.82.95.2.42.31.95.31,1.58s-.1,1.14-.3,1.56-.47.74-.81.96c-.34.22-.72.33-1.14.33-.3,0-.55-.05-.76-.15-.21-.1-.38-.22-.51-.37-.13-.15-.23-.3-.3-.46h-.05v2.96h-1.53Zm1.5-4.84c0,.33.04.62.14.86.09.25.22.44.4.57s.38.2.63.2.46-.07.63-.21c.17-.14.3-.33.39-.58.09-.25.13-.53.13-.85s-.04-.6-.13-.84-.22-.43-.39-.57c-.17-.14-.39-.21-.64-.21s-.46.07-.63.2c-.17.13-.3.32-.39.56-.09.24-.14.53-.14.86Z"/><path class="m" d="m430.95,370.04c-.56,0-1.04-.12-1.45-.36-.41-.24-.72-.57-.94-1-.22-.43-.33-.93-.33-1.49s.11-1.07.33-1.5c.22-.43.54-.76.94-1,.41-.24.89-.36,1.45-.36s1.04.12,1.45.36c.41.24.72.57.94,1s.33.93.33,1.5-.11,1.06-.33,1.49-.54.76-.94,1c-.41.24-.89.36-1.45.36Zm0-1.19c.25,0,.47-.07.64-.22.17-.15.3-.34.39-.6.09-.25.13-.54.13-.86s-.04-.61-.13-.86c-.09-.25-.22-.45-.39-.6-.17-.15-.38-.22-.64-.22s-.47.07-.65.22c-.17.15-.3.35-.39.6-.09.25-.13.54-.13.86s.04.61.13.86c.09.25.22.45.39.6.17.15.39.22.65.22Z"/><path class="m" d="m434.07,369.93v-5.53h1.49v.96h.06c.1-.34.27-.6.51-.78.24-.18.51-.27.82-.27.08,0,.16,0,.25.01s.17.02.23.04v1.36c-.07-.02-.17-.04-.3-.06-.13-.02-.24-.03-.35-.03-.23,0-.43.05-.6.15-.18.1-.32.23-.42.41-.1.17-.15.37-.15.6v3.13h-1.53Z"/><path class="m" d="m440.82,364.4v1.15h-3.33v-1.15h3.33Zm-2.58-1.33h1.53v5.16c0,.14.02.25.06.33.04.08.1.13.18.16.08.03.17.05.27.05.07,0,.14,0,.22-.02.07-.01.13-.02.17-.03l.24,1.14c-.08.02-.18.05-.32.08s-.31.05-.51.06c-.37.01-.69-.04-.97-.15-.28-.11-.49-.29-.65-.53-.15-.24-.23-.54-.23-.9v-5.36Z"/><path class="m" d="m443.68,370.04c-.57,0-1.06-.12-1.47-.35s-.72-.56-.95-.99c-.22-.43-.33-.93-.33-1.51s.11-1.07.33-1.5.53-.76.93-1,.87-.36,1.42-.36c.37,0,.71.06,1.02.17.32.12.59.29.83.52.24.23.42.53.55.88.13.35.2.76.2,1.23v.42h-4.67v-.95h3.23c0-.22-.05-.42-.14-.59-.1-.17-.23-.3-.4-.4-.17-.1-.37-.15-.59-.15s-.44.05-.62.16c-.18.11-.32.25-.42.43-.1.18-.15.38-.16.6v.9c0,.27.05.51.15.71.1.2.25.35.43.46.19.11.41.16.67.16.17,0,.33-.02.47-.07.14-.05.26-.12.36-.22.1-.1.18-.21.23-.35l1.42.09c-.07.34-.22.64-.44.89-.22.25-.51.45-.86.59s-.75.21-1.21.21Z"/><path class="m" d="m446.61,369.93v-5.53h1.49v.96h.06c.1-.34.27-.6.51-.78.24-.18.51-.27.82-.27.08,0,.16,0,.25.01s.17.02.23.04v1.36c-.07-.02-.17-.04-.3-.06-.13-.02-.24-.03-.35-.03-.23,0-.43.05-.6.15-.18.1-.32.23-.42.41-.1.17-.15.37-.15.6v3.13h-1.53Z"/></g><rect class="c" x="294.62" y="336.21" width="81.74" height="102.87" rx="5.93" ry="5.93"/><rect class="c" x="301.27" y="345.57" width="68.44" height="31.51" rx="5.93" ry="5.93"/><g><path class="m" d="m330.3,350.38v7.38h-1.35l-3.21-4.64h-.05v4.64h-1.56v-7.38h1.37l3.18,4.64h.07v-4.64h1.55Z"/><path class="m" d="m333.45,357.87c-.56,0-1.04-.12-1.45-.36s-.72-.57-.94-1-.33-.93-.33-1.49.11-1.07.33-1.5.53-.76.94-1c.41-.24.89-.36,1.45-.36s1.04.12,1.45.36c.41.24.72.57.94,1,.22.43.33.93.33,1.5s-.11,1.06-.33,1.49c-.22.43-.53.76-.94,1s-.89.36-1.45.36Zm0-1.19c.25,0,.47-.07.64-.22.17-.15.3-.34.39-.6.09-.25.13-.54.13-.86s-.04-.61-.13-.86c-.09-.25-.22-.45-.39-.6-.17-.15-.38-.22-.64-.22s-.47.07-.65.22-.3.35-.39.6c-.09.25-.13.54-.13.86s.04.61.13.86c.09.25.22.45.39.6s.39.22.65.22Z"/><path class="m" d="m338.6,357.85c-.42,0-.8-.11-1.14-.33-.34-.22-.61-.54-.81-.96s-.3-.94-.3-1.56.1-1.16.31-1.58c.2-.42.48-.74.82-.95.34-.21.71-.32,1.12-.32.31,0,.57.05.78.16s.38.23.5.39c.13.15.23.31.29.46h.05v-2.77h1.53v7.38h-1.51v-.89h-.06c-.07.15-.17.31-.3.46-.13.15-.3.27-.51.37-.21.1-.46.15-.76.15Zm.49-1.22c.25,0,.46-.07.63-.2.17-.14.3-.33.4-.57.09-.24.14-.53.14-.86s-.05-.61-.14-.86c-.09-.24-.22-.43-.4-.56s-.38-.2-.63-.2-.46.07-.64.21-.3.33-.39.57-.13.52-.13.84.04.61.13.85.22.44.39.58c.17.14.38.21.64.21Z"/><path class="m" d="m344.92,357.87c-.57,0-1.06-.12-1.47-.35-.41-.23-.72-.56-.95-.99-.22-.43-.33-.93-.33-1.51s.11-1.07.33-1.5c.22-.43.53-.76.93-1,.4-.24.88-.36,1.42-.36.36,0,.71.06,1.02.17s.59.29.83.52c.24.23.42.53.55.88.13.35.2.76.2,1.23v.42h-4.67v-.95h3.23c0-.22-.05-.42-.14-.59-.1-.17-.23-.3-.4-.4-.17-.1-.37-.15-.59-.15s-.44.05-.62.16c-.18.11-.32.25-.42.43-.1.18-.15.38-.15.6v.9c0,.27.05.51.15.71.1.2.25.35.43.46.19.11.41.16.67.16.17,0,.33-.02.47-.07.14-.05.26-.12.36-.22s.18-.21.23-.35l1.42.09c-.07.34-.22.64-.44.89-.22.25-.51.45-.86.59-.35.14-.75.21-1.21.21Z"/><path class="m" d="m316.85,369.93v-7.38h4.97v1.29h-3.41v1.76h3.16v1.29h-3.16v1.76h3.42v1.29h-4.98Z"/><path class="m" d="m323.71,364.4l1.02,1.93,1.04-1.93h1.57l-1.6,2.77,1.65,2.77h-1.57l-1.09-1.91-1.07,1.91h-1.58l1.64-2.77-1.58-2.77h1.58Z"/><path class="m" d="m327.64,372v-7.61h1.51v.93h.07c.07-.15.17-.3.29-.46.13-.16.3-.29.5-.39.21-.1.47-.16.78-.16.4,0,.78.1,1.12.32.34.21.61.53.82.95.2.42.31.95.31,1.58s-.1,1.14-.3,1.56-.47.74-.81.96c-.34.22-.72.33-1.14.33-.3,0-.55-.05-.76-.15-.21-.1-.38-.22-.51-.37-.13-.15-.23-.3-.3-.46h-.05v2.96h-1.53Zm1.5-4.84c0,.33.04.62.14.86.09.25.22.44.4.57s.38.2.63.2.46-.07.63-.21c.17-.14.3-.33.39-.58.09-.25.13-.53.13-.85s-.04-.6-.13-.84-.22-.43-.39-.57c-.17-.14-.39-.21-.64-.21s-.46.07-.63.2c-.17.13-.3.32-.39.56-.09.24-.14.53-.14.86Z"/><path class="m" d="m335.94,370.04c-.56,0-1.04-.12-1.45-.36-.41-.24-.72-.57-.94-1-.22-.43-.33-.93-.33-1.49s.11-1.07.33-1.5c.22-.43.54-.76.94-1,.41-.24.89-.36,1.45-.36s1.04.12,1.45.36c.41.24.72.57.94,1s.33.93.33,1.5-.11,1.06-.33,1.49-.54.76-.94,1c-.41.24-.89.36-1.45.36Zm0-1.19c.25,0,.47-.07.64-.22.17-.15.3-.34.39-.6.09-.25.13-.54.13-.86s-.04-.61-.13-.86c-.09-.25-.22-.45-.39-.6-.17-.15-.38-.22-.64-.22s-.47.07-.65.22c-.17.15-.3.35-.39.6-.09.25-.13.54-.13.86s.04.61.13.86c.09.25.22.45.39.6.17.15.39.22.65.22Z"/><path class="m" d="m339.06,369.93v-5.53h1.49v.96h.06c.1-.34.27-.6.51-.78.24-.18.51-.27.82-.27.08,0,.16,0,.25.01s.17.02.23.04v1.36c-.07-.02-.17-.04-.3-.06-.13-.02-.24-.03-.35-.03-.23,0-.43.05-.6.15-.18.1-.32.23-.42.41-.1.17-.15.37-.15.6v3.13h-1.53Z"/><path class="m" d="m345.81,364.4v1.15h-3.33v-1.15h3.33Zm-2.58-1.33h1.53v5.16c0,.14.02.25.06.33.04.08.1.13.18.16.08.03.17.05.27.05.07,0,.14,0,.22-.02.07-.01.13-.02.17-.03l.24,1.14c-.08.02-.18.05-.32.08s-.31.05-.51.06c-.37.01-.69-.04-.97-.15-.28-.11-.49-.29-.65-.53-.15-.24-.23-.54-.23-.9v-5.36Z"/><path class="m" d="m348.66,370.04c-.57,0-1.06-.12-1.47-.35s-.72-.56-.95-.99c-.22-.43-.33-.93-.33-1.51s.11-1.07.33-1.5.53-.76.93-1,.87-.36,1.42-.36c.37,0,.71.06,1.02.17.32.12.59.29.83.52.24.23.42.53.55.88.13.35.2.76.2,1.23v.42h-4.67v-.95h3.23c0-.22-.05-.42-.14-.59-.1-.17-.23-.3-.4-.4-.17-.1-.37-.15-.59-.15s-.44.05-.62.16c-.18.11-.32.25-.42.43-.1.18-.15.38-.16.6v.9c0,.27.05.51.15.71.1.2.25.35.43.46.19.11.41.16.67.16.17,0,.33-.02.47-.07.14-.05.26-.12.36-.22.1-.1.18-.21.23-.35l1.42.09c-.07.34-.22.64-.44.89-.22.25-.51.45-.86.59s-.75.21-1.21.21Z"/><path class="m" d="m351.6,369.93v-5.53h1.49v.96h.06c.1-.34.27-.6.51-.78.24-.18.51-.27.82-.27.08,0,.16,0,.25.01s.17.02.23.04v1.36c-.07-.02-.17-.04-.3-.06-.13-.02-.24-.03-.35-.03-.23,0-.43.05-.6.15-.18.1-.32.23-.42.41-.1.17-.15.37-.15.6v3.13h-1.53Z"/></g><path class="j" d="m157.74,390.07l-13.99,2.79v12.91l13.99-.24v-15.47m25.92,18.75l-22.72-.39v16.06l22.72,4.54v-20.21m-25.92-.44l-13.99-.24v12.91l13.99,2.79v-15.47m25.92-23.49l-22.72,4.53v16.06l22.72-.39v-20.21"/><path class="j" d="m424.54,390.54l-13.99,2.79v12.91l13.99-.24v-15.47m25.92,18.75l-22.72-.39v16.06l22.72,4.54v-20.21m-25.92-.44l-13.99-.24v12.91l13.99,2.79v-15.47m25.92-23.49l-22.72,4.53v16.06l22.72-.39v-20.21"/><path class="l" d="m52.46,425.65c2.33.28,4.94,1.79,7.13,2.05,2.2.28,2.88-1.5,2.88-1.5,0,0,2.48-.55,5.08-.62,2.61-.07,5.07.54,5.07.54,0,0,.48,1.1,1.37,1.57.89.49,2.82.55,4.05-.74,1.23-1.31,4.53-2.95,6.38-3.98,1.86-1.03,1.52-2.61.35-3.08-1.17-.48-2.13-1.23-2.05-2.68.06-1.43-1.03-2.39-1.03-2.39,0,0,.96-3.16.07-5.77-.89-2.6-3.84-6.79-6.1-9.94-2.26-3.16-.34-6.8-2.4-11.46-2.06-4.66-7.41-4.39-10.29-2.4-2.88,1.99-2,6.92-1.86,9.26.14,2.33.06,3.99-.2,4.59-.27.61-2.13,2.82-3.36,4.66-1.23,1.86-2.13,5.7-3.03,7.28-.88,1.57-.27,3.01-.27,3.01,0,0-.62.21-1.1,1.24-.48,1.02-1.43,1.51-3.16,1.84-1.71.35-1.71,1.45-1.3,2.69.41,1.23,0,1.92-.48,3.5-.48,1.57,1.92,2.05,4.25,2.33Zm24.2-7.18c1.22.53,2.98-.21,3.52-.74.53-.53.91-1.32.91-1.32,0,0,.53.27.48,1.11-.06.86.37,2.08,1.17,2.5.8.42,2.02,1.01,1.39,1.6-.65.59-4.22,2.03-5.28,3.15-1.06,1.11-2.45,2.03-3.29,1.76-.86-.27-1.6-1.43-1.23-3.15.38-1.7.7-3.57.65-4.64-.06-1.07-.27-2.5,0-2.72.27-.21.69-.11.69-.11,0,0-.21,2.02,1.01,2.56Zm-7.93-28.83c1.18,0,2.13,1.17,2.13,2.61,0,1.02-.48,1.9-1.18,2.33-.18-.07-.36-.16-.56-.24.42-.21.72-.74.72-1.36,0-.81-.5-1.47-1.12-1.47s-1.11.66-1.11,1.47c0,.29.07.59.19.82-.37-.15-.7-.28-.97-.38-.14-.35-.22-.75-.22-1.17,0-1.44.95-2.61,2.13-2.61Zm-2.92,4.49c.58.1,2.17.79,2.76,1,.59.2,1.24.58,1.18.96-.07.39-.38.39-1.18.88-.79.48-2.52,1.55-3.07,1.62-.55.07-.86-.24-1.45-.62-.59-.39-1.69-1.29-1.42-1.77,0,0,.86-.66,1.24-1,.38-.35,1.35-1.18,1.94-1.07Zm-2.54-4.08c.93,0,1.68,1.1,1.68,2.47,0,.25-.03.48-.07.71-.23.07-.46.19-.68.39-.11.09-.21.17-.3.27.15-.28.2-.67.14-1.09-.13-.74-.62-1.28-1.11-1.21-.49.08-.78.76-.66,1.5.13.75.62,1.3,1.11,1.22.03,0,.05-.02.08-.03-.24.23-.46.43-.69.6-.67-.31-1.17-1.25-1.17-2.36,0-1.37.74-2.47,1.68-2.47Zm-5.17,17.83c.96-1.51,1.57-4.8,2.53-5.9.97-1.09,1.71-3.42,1.37-4.45,0,0,2.06,2.47,3.5,2.06,1.44-.41,4.67-2.82,5.15-2.4.48.41,4.59,9.46,5.01,12.34.41,2.88-.28,5.08-.28,5.08,0,0-1.57-.41-1.78.54-.2.97-.2,4.46-.2,4.46,0,0-2.13,2.95-5.42,3.43-3.29.48-4.94.13-4.94.13l-1.85-2.12s1.44-.21,1.23-1.66c-.2-1.43-4.39-3.42-5.15-5.21-.75-1.79-.14-4.8.83-6.31Zm-8.14,10.8c.16-.71,2.3-.71,3.12-1.2.82-.5.98-1.92,1.65-2.3.65-.39,1.86.98,2.36,1.76.49.75,2.36,4.05,3.12,4.87.77.83,1.48,1.92,1.26,2.91-.21.98-1.37,1.7-1.37,1.7-1.04.32-3.94-.93-5.25-1.48-1.32-.55-4.67-.72-5.1-1.21-.44-.5.21-1.59.39-2.63.16-1.05-.33-1.7-.17-2.41Z"/><path class="l" d="m319.98,427.84c2.33.28,4.94,1.79,7.13,2.05,2.2.28,2.88-1.5,2.88-1.5,0,0,2.48-.55,5.08-.62,2.61-.07,5.07.54,5.07.54,0,0,.48,1.1,1.37,1.57.89.49,2.82.55,4.05-.74,1.23-1.31,4.53-2.95,6.38-3.98,1.86-1.03,1.52-2.61.35-3.08-1.17-.48-2.13-1.23-2.05-2.68.06-1.43-1.03-2.39-1.03-2.39,0,0,.96-3.16.07-5.77-.89-2.6-3.84-6.79-6.1-9.94-2.26-3.16-.34-6.8-2.4-11.46-2.06-4.66-7.41-4.39-10.29-2.4-2.88,1.99-2,6.92-1.86,9.26.14,2.33.06,3.99-.2,4.59-.27.61-2.13,2.82-3.36,4.66-1.23,1.86-2.13,5.7-3.03,7.28-.88,1.57-.27,3.01-.27,3.01,0,0-.62.21-1.1,1.24-.48,1.02-1.43,1.51-3.16,1.84-1.71.35-1.71,1.45-1.3,2.69.41,1.23,0,1.92-.48,3.5-.48,1.57,1.92,2.05,4.25,2.33Zm24.2-7.18c1.22.53,2.98-.21,3.52-.74.53-.53.91-1.32.91-1.32,0,0,.53.27.48,1.11-.06.86.37,2.08,1.17,2.5.8.42,2.02,1.01,1.39,1.6-.65.59-4.22,2.03-5.28,3.15-1.06,1.11-2.45,2.03-3.29,1.76-.86-.27-1.6-1.43-1.23-3.15.38-1.7.7-3.57.65-4.64-.06-1.07-.27-2.5,0-2.72.27-.21.69-.11.69-.11,0,0-.21,2.02,1.01,2.56Zm-7.93-28.83c1.18,0,2.13,1.17,2.13,2.61,0,1.02-.48,1.9-1.18,2.33-.18-.07-.36-.16-.56-.24.42-.21.72-.74.72-1.36,0-.81-.5-1.47-1.12-1.47s-1.11.66-1.11,1.47c0,.29.07.59.19.82-.37-.15-.7-.28-.97-.38-.14-.35-.22-.75-.22-1.17,0-1.44.95-2.61,2.13-2.61Zm-2.92,4.49c.58.1,2.17.79,2.76,1,.59.2,1.24.58,1.18.96-.07.39-.38.39-1.18.88-.79.48-2.52,1.55-3.07,1.62-.55.07-.86-.24-1.45-.62-.59-.39-1.69-1.29-1.42-1.77,0,0,.86-.66,1.24-1,.38-.35,1.35-1.18,1.94-1.07Zm-2.54-4.08c.93,0,1.68,1.1,1.68,2.47,0,.25-.03.48-.07.71-.23.07-.46.19-.68.39-.11.09-.21.17-.3.27.15-.28.2-.67.14-1.09-.13-.74-.62-1.28-1.11-1.21-.49.08-.78.76-.66,1.5.13.75.62,1.3,1.11,1.22.03,0,.05-.02.08-.03-.24.23-.46.43-.69.6-.67-.31-1.17-1.25-1.17-2.36,0-1.37.74-2.47,1.68-2.47Zm-5.17,17.83c.96-1.51,1.57-4.8,2.53-5.9.97-1.09,1.71-3.42,1.37-4.45,0,0,2.06,2.47,3.5,2.06,1.44-.41,4.67-2.82,5.15-2.4.48.41,4.59,9.46,5.01,12.34.41,2.88-.28,5.08-.28,5.08,0,0-1.57-.41-1.78.54-.2.97-.2,4.46-.2,4.46,0,0-2.13,2.95-5.42,3.43-3.29.48-4.94.13-4.94.13l-1.85-2.12s1.44-.21,1.23-1.66c-.2-1.43-4.39-3.42-5.15-5.21-.75-1.79-.14-4.8.83-6.31Zm-8.14,10.8c.16-.71,2.3-.71,3.12-1.2.82-.5.98-1.92,1.65-2.3.65-.39,1.86.98,2.36,1.76.49.75,2.36,4.05,3.12,4.87.77.83,1.48,1.92,1.26,2.91-.21.98-1.37,1.7-1.37,1.7-1.04.32-3.94-.93-5.25-1.48-1.32-.55-4.67-.72-5.1-1.21-.44-.5.21-1.59.39-2.63.16-1.05-.33-1.7-.17-2.41Z"/><g><path class="n" d="m326.4,251.69l-4.36.75c.63,1.77,1.82,3.28,3.39,4.32l1.67-4.05c.08-.13.09-.3.04-.44-.04-.35-.39-.57-.75-.57h0Zm1.67-5.64c.4,0,.75-.31.75-.7l.22-4.41-.88.18c-1.55.36-2.96,1.14-4.1,2.25l3.66,2.6c.13.04.22.09.35.09h0Zm-1.94,2.86c.26-.3.23-.74-.07-1,0,0-.01,0-.02-.01l-3.26-2.91c-.96,1.62-1.41,3.5-1.28,5.38l4.28-1.23c.18-.04.27-.09.35-.22h0Zm2.82,1.54l1.19.57,1.19-.57.31-1.28-.84-1.06h-1.32l-.84,1.06.31,1.28Zm2.6-4.71c.22.31.66.35.97.18l3.61-2.55c-1.34-1.34-3.1-2.18-4.98-2.38l.27,4.45c0,.12.05.23.13.31h0Z"/><path class="n" d="m349.5,252.4l-3.35-14.41c-.22-.7-.75-1.28-1.41-1.63l-13.44-6.44c-.35-.18-.75-.22-1.1-.22s-.75,0-1.1.09l-13.44,6.48c-.67.31-1.16.91-1.32,1.63l-3.31,14.5c-.13.75.04,1.5.48,2.12l9.3,11.5c.53.53,1.28.88,2.03.93h14.81c.79.09,1.54-.27,2.03-.93l9.3-11.5c.44-.62.62-1.37.53-2.12h0Zm-5.51.97c-.09,0-.13,0-.22-.04t-.09-.04c-.09,0-.13-.04-.18-.04-.18-.04-.31-.13-.48-.22-.09,0-.18-.04-.27-.09h-.04c-.46-.18-.93-.31-1.41-.4h-.04c-.13,0-.26.04-.35.13,0,0,0,.04-.04.04l-.35-.05c-.81,2.51-2.5,4.64-4.76,5.99l.13.35s-.04,0-.04.04c-.08.13-.1.3-.04.44.18.44.4.88.7,1.28v.09c.07.06.13.14.18.22.13.13.23.28.31.44.04.04.09.09.09.13,0,0,.04,0,.04.04.08.21.1.44.04.66-.05.21-.2.39-.4.48-.13.04-.22.09-.35.09-.35-.01-.67-.21-.84-.53-.04,0-.04-.04-.04-.04-.04-.04-.04-.09-.09-.13-.09-.13-.13-.31-.18-.48l-.09-.27v-.04c-.14-.47-.34-.93-.57-1.37-.08-.12-.21-.22-.35-.27t-.04-.04l-.18-.31c-.44.13-.93.31-1.41.4-.79.22-1.59.31-2.38.31-1.31,0-2.61-.23-3.83-.7l-.18.35s0,.04-.04.04c-.14.05-.27.14-.35.27-.22.44-.44.88-.57,1.37l-.09.27c-.04.18-.13.31-.18.48-.04.04-.09.09-.09.13-.04,0-.04.04-.04.04-.16.31-.48.52-.84.53-.11,0-.21-.04-.31-.09-.41-.24-.57-.76-.35-1.19.04,0,.04-.04.04-.04.04-.04.04-.09.09-.13.13-.18.22-.35.31-.44s.13-.13.18-.22v-.04c.28-.4.51-.83.7-1.28.05-.15.04-.31-.04-.44,0,0-.04,0-.04-.04l.22-.31c-.42-.22-.82-.49-1.19-.79-1.7-1.31-2.96-3.11-3.61-5.16l-.4.04s0-.04-.04-.04c-.1-.09-.22-.14-.35-.13h-.04c-.5.08-.98.22-1.45.4h-.05c-.09,0-.18.04-.27.09-.13.04-.31.13-.48.18-.04,0-.18-.04-.18,0s0,.04-.04.04c-.09.04-.13.04-.22.04-.41.04-.78-.22-.88-.62-.09-.47.21-.92.68-1.01,0,0,.02,0,.02,0t.09-.04c.09,0,.13-.04.18-.04.18,0,.35-.04.53-.04.09-.04.18-.04.27-.04.51-.04,1.01-.13,1.5-.27.13-.09.27-.18.31-.31,0,0,.04,0,.04-.04l.35-.09c-.4-2.51.18-5.07,1.54-7.23.04-.09.09-.13.13-.22l-.25-.26s0,.02,0,.04v-.04h0c.02-.12-.06-.27-.14-.35-.35-.35-.79-.62-1.23-.88l-.26-.13c-.17-.08-.33-.17-.49-.26-.04,0-.13-.09-.13-.09,0,0,0-.04-.04-.04-.36-.31-.44-.84-.18-1.24.13-.22.35-.31.62-.31.22,0,.44.08.62.22l.04.04s.09.04.13.09c.13.13.22.27.35.4.04.04.13.09.18.18.31.35.7.7,1.1,1.01.09.04.18.09.27.09s.13-.04.18-.04h.04l.27.18c1.45-1.55,3.34-2.63,5.42-3.09.53-.09,1.01-.18,1.5-.22l.04-.35v-.09c.13-.09.18-.22.22-.35,0-.53,0-1.01-.09-1.5v-.04c0-.09,0-.18-.04-.27-.05-.17-.08-.35-.09-.53v-.22c0-.22.09-.44.27-.62.22-.22.48-.35.75-.31.45.06.78.47.75.93v.27c-.04.18-.04.35-.09.53,0,.09-.04.18-.04.26v.04c-.09.53-.09,1.01-.09,1.5.04.13.09.26.22.35v-.04l.04.35c2.09.22,4.07,1.01,5.73,2.29.35.35.75.7,1.1,1.06l.35-.22h.04s.13.04.18.04c.09,0,.18-.04.27-.09.4-.27.79-.62,1.1-.97.04-.04.13-.09.18-.18.09-.13.22-.27.35-.4.04,0,.09-.04.13-.09l.04-.04c.18-.14.39-.21.62-.22.22,0,.49.13.62.31.31.4.22.93-.18,1.23,0,.04.04.04,0,.09-.04.04-.09.04-.13.09-.18.09-.31.18-.49.27l-.27.13c-.44.25-.85.55-1.23.88-.09.09-.13.27-.13.4v.04l-.26.27c.7,1.1,1.23,2.34,1.54,3.61.27,1.28.35,2.6.18,3.88l.35.09c.06.14.17.25.31.31.48.13,1.01.22,1.5.27h.04c.08.03.17.05.27.04.18,0,.35,0,.53.04.09,0,.18,0,.18.04s.04.04.09.04c.44.1.76.48.79.93-.14.37-.48.61-.88.62h0Z"/><path class="n" d="m330.41,253.59c-.3-.17-.67-.1-.88.18l-2.16,3.92c.88.26,1.85.44,2.78.44.66,0,1.28-.09,1.89-.22.31-.09.57-.13.84-.18l-2.12-3.83c-.13-.13-.22-.22-.35-.31h0Zm7.05-8.6l-3.31,3c-.08.09-.15.19-.18.31-.09.4.13.79.53.88l4.19,1.19c.09-.93.03-1.87-.18-2.78-.21-.92-.57-1.79-1.05-2.6h0Zm-4.01,6.74c-.32.15-.49.5-.4.84l1.72,4.14c1.07-.67,1.97-1.58,2.64-2.64.35-.48.62-1.06.84-1.67l-4.41-.75c-.14,0-.27.03-.4.09h0Z"/></g><path class="n" d="m223.19,36.01c-.12-1.29-.48-2.55-1.05-3.71-.55-1.11-1.29-2.12-2.19-2.99.41-1.64-.5-3.06-.5-3.06-1.58-.1-2.58.49-2.95.76-.06-.02-.12-.05-.19-.08-.27-.11-.55-.21-.83-.3-.28-.09-.57-.17-.87-.24-.35-.08-.71-.15-1.07-.2-.69-2.2-2.67-3.12-2.67-3.12-2.2,1.4-2.62,3.35-2.62,3.35l-.02.11c-.12.04-.24.07-.36.11-.17.05-.34.11-.5.17-.17.07-.34.13-.5.2-.67.29-1.31.65-1.9,1.06l-.08-.04c-3.05-1.17-5.76.24-5.76.24-.25,3.25,1.22,5.29,1.51,5.67-.37,1.04-.62,2.12-.74,3.22-2.82,1.39-3.66,4.24-3.66,4.24,2.35,2.71,5.1,2.87,5.1,2.87,0,0,0,0,0,0,.35.62.75,1.21,1.2,1.77.19.23.39.45.6.67-.86,2.45.12,4.5.12,4.5,2.62.1,4.34-1.14,4.7-1.43,1.25.42,2.55.62,3.87.61h.16s.13,0,.13,0h.13s0,0,0,0c1.23,1.76,3.41,2.01,3.41,2.01,1.54-1.63,1.63-3.24,1.63-3.59v-.07s0-.05,0-.07c.32-.23.64-.47.93-.73.67-.61,1.25-1.31,1.73-2.08,1.75.1,2.98-1.08,2.98-1.08-.29-1.82-1.33-2.71-1.54-2.88l-.02-.02-.02-.02s-.03-.02-.04-.02c0-.11.02-.22.02-.33.01-.2.02-.39.02-.59v-.43s-.02-.16-.02-.16c0-.05,0-.11-.01-.16,0-.05,0-.1-.02-.15l-.02-.15-.02-.15c-.27-1.76-1.15-3.38-2.48-4.56-1.1-.98-2.48-1.6-3.94-1.78-.34-.04-.69-.06-1.04-.06h-.13s-.08,0-.08,0h-.05s-.13.01-.13.01c-1.58.11-3.05.86-4.08,2.07-.41.49-.72,1.03-.94,1.58-.28.71-.41,1.46-.38,2.22v.11c0,.07.01.13.02.2.08.81.37,1.57.85,2.22.56.75,1.34,1.3,2.23,1.57.4.12.81.17,1.19.17.05,0,.1,0,.14,0h.08s.05,0,.08,0c.04,0,.08,0,.12-.01,0,0,.02,0,.03,0h.04s.07-.02.07-.02c.05,0,.09-.01.14-.02.04,0,.09-.02.13-.03.4-.1.78-.27,1.12-.51.03-.02.07-.05.1-.08.13-.1.15-.29.05-.43,0,0,0,0,0,0-.09-.11-.25-.14-.38-.07l-.1.05c-.11.05-.22.1-.35.14-.19.06-.38.1-.58.12-.03,0-.07,0-.1,0h-.1s-.07,0-.1,0h-.12s-.01,0-.01,0h-.03s-.04,0-.05,0c-.04,0-.07,0-.11-.01-.31-.04-.6-.13-.88-.26-.3-.13-.57-.32-.82-.54-.52-.47-.87-1.11-.98-1.8-.03-.18-.04-.36-.04-.54v-.15s0-.03,0-.03v-.04s0-.05,0-.07c.11-1.13.72-2.15,1.65-2.8.35-.24.74-.42,1.14-.53.31-.08.63-.12.95-.12h.16s.05,0,.05,0h.12c.7.06,1.38.27,2,.6.84.47,1.52,1.17,1.96,2.03.27.54.44,1.13.49,1.73v.09s0,.09,0,.09c0,.03,0,.06,0,.09s0,.06,0,.09v.17s-.01.21-.01.21c-.02.26-.05.52-.1.78-.07.39-.18.77-.33,1.13-.2.49-.45.95-.76,1.38-.95,1.31-2.37,2.19-3.96,2.46-.26.04-.53.07-.79.08h-.05s-.35,0-.35,0c-.71-.02-1.42-.12-2.1-.32-1.64-.48-3.09-1.45-4.15-2.78-.35-.44-.66-.91-.91-1.41-.51-.99-.8-2.07-.87-3.17v-.1s0-.02,0-.02v-.16s0-.12,0-.12v-.13s0-.09,0-.09v-.2c.01-.27.04-.55.07-.83.07-.56.18-1.11.34-1.66.16-.54.35-1.07.58-1.56.43-.96,1.03-1.83,1.78-2.57.36-.35.75-.66,1.16-.93.21-.14.42-.26.64-.37.11-.06.22-.11.33-.16.06-.02.11-.05.17-.08.28-.12.58-.23.87-.33l.18-.05c.06-.02.12-.03.18-.05.12-.04.24-.06.36-.09.06-.02.12-.02.18-.04l.18-.04.18-.03.09-.02h.09s.19-.04.19-.04c.07-.01.14-.02.21-.03l.21-.03s.09,0,.13-.01h.09s.04-.01.04-.01h.05c.07,0,.14-.01.21-.01h.11s.03,0,.03,0h.05s.18-.01.18-.01c.7-.02,1.4.03,2.09.15.87.16,1.71.44,2.5.83.73.36,1.42.81,2.04,1.33l.11.09.11.1c.07.06.14.13.21.19s.14.13.2.2c.06.07.13.13.19.2.68.72,1.26,1.53,1.72,2.42.01.03.03.06.05.1l.05.1.09.19c.03.06.06.12.09.19l.08.18c.23.53.41,1.08.55,1.64.03.11.13.18.25.17.12,0,.21-.11.21-.22.01-.3,0-.65-.03-1.05h0Z"/><g><path class="m" d="m439.1,266.31c-3.33,0-6.04-2.23-6.04-4.98h12.08c0,2.75-2.7,4.98-6.04,4.98Z"/><polygon class="m" points="449.07 259.69 429.12 259.69 429.12 256.07 449.07 256.07 449.07 259.69 449.07 259.69"/><path class="m" d="m449,254.2h-19.82c-.07-.08-.13-.15-.2-.23-1.34-1.47-2.35-3.2-2.99-5.09,0-.04,2.48.51,4.24.9,0,0,.91.21,2.23.45-1.28-1.48-2-3.36-2.03-5.32,0-4.26,3.26-7.97,2.09-10.98,1.15.09,2.37,2.42,2.45,6.05,1.16-2.02,1.76-4.31,1.73-6.64,0-1.95,1.29-4.22,2.57-4.3-1.15,1.89.3,3.51,1.58,7.53.48,1.51.42,4.05.79,5.66.12-3.35.7-8.23,2.82-9.91-.93,2.13.13,4.78.87,6.06,1.29,1.95,1.95,4.24,1.91,6.57,0,1.94-.7,3.82-1.96,5.3,1.4-.27,2.37-.5,2.37-.5l4.55-.89c-.62,2.01-1.72,3.84-3.2,5.33Z"/></g><path class="m" d="m386.42,231.19c-10.29,0-18.63,8.34-18.63,18.63s8.34,18.63,18.63,18.63,18.63-8.34,18.63-18.63-8.34-18.63-18.63-18.63Zm0,34.32c-2.81,0-5.09-1.88-5.09-4.19h10.18c0,2.31-2.28,4.19-5.09,4.19Zm8.4-5.58h-16.81v-3.05h16.81v3.05Zm-.06-4.62h-16.7c-.06-.06-.11-.13-.17-.19-1.13-1.24-1.98-2.7-2.52-4.29,0-.04,2.09.43,3.57.76,0,0,.76.18,1.88.38-1.08-1.25-1.69-2.83-1.71-4.48,0-3.59,2.75-6.72,1.76-9.25.97.08,2,2.04,2.07,5.1.98-1.7,1.48-3.63,1.46-5.6,0-1.64,1.08-3.55,2.17-3.62-.97,1.59.25,2.96,1.33,6.34.41,1.27.35,3.41.67,4.77.1-2.82.59-6.93,2.38-8.35-.78,1.79.11,4.03.74,5.1,1.09,1.64,1.65,3.57,1.61,5.54,0,1.64-.59,3.22-1.65,4.47,1.18-.22,2-.42,2-.42l3.84-.75c-.52,1.69-1.45,3.24-2.7,4.49Z"/><g><path class="n" d="m56.83,252.52l-4.36.75c.63,1.77,1.82,3.28,3.39,4.32l1.67-4.05c.08-.13.09-.3.04-.44-.04-.35-.39-.57-.75-.57h0Zm1.67-5.64c.4,0,.75-.31.75-.7l.22-4.41-.88.18c-1.55.36-2.96,1.14-4.1,2.25l3.66,2.6c.13.04.22.09.35.09h0Zm-1.94,2.86c.26-.3.23-.74-.07-1,0,0-.01,0-.02-.01l-3.26-2.91c-.96,1.62-1.41,3.5-1.28,5.38l4.28-1.23c.18-.04.27-.09.35-.22h0Zm2.82,1.54l1.19.57,1.19-.57.31-1.28-.84-1.06h-1.32l-.84,1.06.31,1.28Zm2.6-4.71c.22.31.66.35.97.18l3.61-2.55c-1.34-1.34-3.1-2.18-4.98-2.38l.27,4.45c0,.12.05.23.13.31h0Z"/><path class="n" d="m79.93,253.22l-3.35-14.41c-.22-.7-.75-1.28-1.41-1.63l-13.44-6.44c-.35-.18-.75-.22-1.1-.22s-.75,0-1.1.09l-13.44,6.48c-.67.31-1.16.91-1.32,1.63l-3.31,14.5c-.13.75.04,1.5.48,2.12l9.3,11.5c.53.53,1.28.88,2.03.93h14.81c.79.09,1.54-.27,2.03-.93l9.3-11.5c.44-.62.62-1.37.53-2.12h0Zm-5.51.97c-.09,0-.13,0-.22-.04t-.09-.04c-.09,0-.13-.04-.18-.04-.18-.04-.31-.13-.48-.22-.09,0-.18-.04-.27-.09h-.04c-.46-.18-.93-.31-1.41-.4h-.04c-.13,0-.26.04-.35.13,0,0,0,.04-.04.04l-.35-.05c-.81,2.51-2.5,4.64-4.76,5.99l.13.35s-.04,0-.04.04c-.08.13-.1.3-.04.44.18.44.4.88.7,1.28v.09c.07.06.13.14.18.22.13.13.23.28.31.44.04.04.09.09.09.13,0,0,.04,0,.04.04.08.21.1.44.04.66-.05.21-.2.39-.4.48-.13.04-.22.09-.35.09-.35-.01-.67-.21-.84-.53-.04,0-.04-.04-.04-.04-.04-.04-.04-.09-.09-.13-.09-.13-.13-.31-.18-.48l-.09-.27v-.04c-.14-.47-.34-.93-.57-1.37-.08-.12-.21-.22-.35-.27t-.04-.04l-.18-.31c-.44.13-.93.31-1.41.4-.79.22-1.59.31-2.38.31-1.31,0-2.61-.23-3.83-.7l-.18.35s0,.04-.04.04c-.14.05-.27.14-.35.27-.22.44-.44.88-.57,1.37l-.09.27c-.04.18-.13.31-.18.48-.04.04-.09.09-.09.13-.04,0-.04.04-.04.04-.16.31-.48.52-.84.53-.11,0-.21-.04-.31-.09-.41-.24-.57-.76-.35-1.19.04,0,.04-.04.04-.04.04-.04.04-.09.09-.13.13-.18.22-.35.31-.44s.13-.13.18-.22v-.04c.28-.4.51-.83.7-1.28.05-.15.04-.31-.04-.44,0,0-.04,0-.04-.04l.22-.31c-.42-.22-.82-.49-1.19-.79-1.7-1.31-2.96-3.11-3.61-5.16l-.4.04s0-.04-.04-.04c-.1-.09-.22-.14-.35-.13h-.04c-.5.08-.98.22-1.45.4h-.05c-.09,0-.18.04-.27.09-.13.04-.31.13-.48.18-.04,0-.18-.04-.18,0s0,.04-.04.04c-.09.04-.13.04-.22.04-.41.04-.78-.22-.88-.62-.09-.47.21-.92.68-1.01,0,0,.02,0,.02,0t.09-.04c.09,0,.13-.04.18-.04.18,0,.35-.04.53-.04.09-.04.18-.04.27-.04.51-.04,1.01-.13,1.5-.27.13-.09.27-.18.31-.31,0,0,.04,0,.04-.04l.35-.09c-.4-2.51.18-5.07,1.54-7.23.04-.09.09-.13.13-.22l-.25-.26s0,.02,0,.04v-.04h0c.02-.12-.06-.27-.14-.35-.35-.35-.79-.62-1.23-.88l-.26-.13c-.17-.08-.33-.17-.49-.26-.04,0-.13-.09-.13-.09,0,0,0-.04-.04-.04-.36-.31-.44-.84-.18-1.24.13-.22.35-.31.62-.31.22,0,.44.08.62.22l.04.04s.09.04.13.09c.13.13.22.27.35.4.04.04.13.09.18.18.31.35.7.7,1.1,1.01.09.04.18.09.27.09s.13-.04.18-.04h.04l.27.18c1.45-1.55,3.34-2.63,5.42-3.09.53-.09,1.01-.18,1.5-.22l.04-.35v-.09c.13-.09.18-.22.22-.35,0-.53,0-1.01-.09-1.5v-.04c0-.09,0-.18-.04-.27-.05-.17-.08-.35-.09-.53v-.22c0-.22.09-.44.27-.62.22-.22.48-.35.75-.31.45.06.78.47.75.93v.27c-.04.18-.04.35-.09.53,0,.09-.04.18-.04.26v.04c-.09.53-.09,1.01-.09,1.5.04.13.09.26.22.35v-.04l.04.35c2.09.22,4.07,1.01,5.73,2.29.35.35.75.7,1.1,1.06l.35-.22h.04s.13.04.18.04c.09,0,.18-.04.27-.09.4-.27.79-.62,1.1-.97.04-.04.13-.09.18-.18.09-.13.22-.27.35-.4.04,0,.09-.04.13-.09l.04-.04c.18-.14.39-.21.62-.22.22,0,.49.13.62.31.31.4.22.93-.18,1.23,0,.04.04.04,0,.09-.04.04-.09.04-.13.09-.18.09-.31.18-.49.27l-.27.13c-.44.25-.85.55-1.23.88-.09.09-.13.27-.13.4v.04l-.26.27c.7,1.1,1.23,2.34,1.54,3.61.27,1.28.35,2.6.18,3.88l.35.09c.06.14.17.25.31.31.48.13,1.01.22,1.5.27h.04c.08.03.17.05.27.04.18,0,.35,0,.53.04.09,0,.18,0,.18.04s.04.04.09.04c.44.1.76.48.79.93-.14.37-.48.61-.88.62h0Z"/><path class="n" d="m60.84,254.41c-.3-.17-.67-.1-.88.18l-2.16,3.92c.88.26,1.85.44,2.78.44.66,0,1.28-.09,1.89-.22.31-.09.57-.13.84-.18l-2.12-3.83c-.13-.13-.22-.22-.35-.31h0Zm7.05-8.6l-3.31,3c-.08.09-.15.19-.18.31-.09.4.13.79.53.88l4.19,1.19c.09-.93.03-1.87-.18-2.78-.21-.92-.57-1.79-1.05-2.6h0Zm-4.01,6.74c-.32.15-.49.5-.4.84l1.72,4.14c1.07-.67,1.97-1.58,2.64-2.64.35-.48.62-1.06.84-1.67l-4.41-.75c-.14,0-.27.03-.4.09h0Z"/></g><g><path class="m" d="m169.53,267.13c-3.33,0-6.04-2.23-6.04-4.98h12.08c0,2.75-2.7,4.98-6.04,4.98Z"/><polygon class="m" points="179.5 260.51 159.55 260.51 159.55 256.89 179.5 256.89 179.5 260.51 179.5 260.51"/><path class="m" d="m179.43,255.02h-19.82c-.07-.08-.13-.15-.2-.23-1.34-1.47-2.35-3.2-2.99-5.09,0-.04,2.48.51,4.24.9,0,0,.91.21,2.23.45-1.28-1.48-2-3.36-2.03-5.32,0-4.26,3.26-7.97,2.09-10.98,1.15.09,2.37,2.42,2.45,6.05,1.16-2.02,1.76-4.31,1.73-6.64,0-1.95,1.29-4.22,2.57-4.3-1.15,1.89.3,3.51,1.58,7.53.48,1.51.42,4.05.79,5.66.12-3.35.7-8.23,2.82-9.91-.93,2.13.13,4.78.87,6.06,1.29,1.95,1.95,4.24,1.91,6.57,0,1.94-.7,3.82-1.96,5.3,1.4-.27,2.37-.5,2.37-.5l4.55-.89c-.62,2.01-1.72,3.84-3.2,5.33Z"/></g><path class="m" d="m116.85,232.02c-10.29,0-18.63,8.34-18.63,18.63s8.34,18.63,18.63,18.63,18.63-8.34,18.63-18.63-8.34-18.63-18.63-18.63Zm0,34.32c-2.81,0-5.09-1.88-5.09-4.19h10.18c0,2.31-2.28,4.19-5.09,4.19Zm8.4-5.58h-16.81v-3.05h16.81v3.05Zm-.06-4.62h-16.7c-.06-.06-.11-.13-.17-.19-1.13-1.24-1.98-2.7-2.52-4.29,0-.04,2.09.43,3.57.76,0,0,.76.18,1.88.38-1.08-1.25-1.69-2.83-1.71-4.48,0-3.59,2.75-6.72,1.76-9.25.97.08,2,2.04,2.07,5.1.98-1.7,1.48-3.63,1.46-5.6,0-1.64,1.08-3.55,2.17-3.62-.97,1.59.25,2.96,1.33,6.34.41,1.27.35,3.41.67,4.77.1-2.82.59-6.93,2.38-8.35-.78,1.79.11,4.03.74,5.1,1.09,1.64,1.65,3.57,1.61,5.54,0,1.64-.59,3.22-1.65,4.47,1.18-.22,2-.42,2-.42l3.84-.75c-.52,1.69-1.45,3.24-2.7,4.49Z"/><g><line class="g" x1="132.09" y1="228.32" x2="256.01" y2="52.4"/><polygon class="i" points="129.49 232.02 135.28 228.31 132.29 228.05 131.03 225.31 129.49 232.02"/></g><g><line class="g" x1="265.7" y1="49.98" x2="365.6" y2="230.45"/><polygon class="i" points="367.79 234.41 362.43 230.1 365.44 230.16 366.98 227.58 367.79 234.41"/></g><g><polyline class="g" points="69.32 341.73 114.26 269.27 161.04 341.77"/><polygon class="i" points="66.94 345.57 72.51 341.53 69.5 341.44 68.09 338.79 66.94 345.57"/><polygon class="i" points="163.49 345.57 157.85 341.63 160.85 341.49 162.22 338.81 163.49 345.57"/></g><g><polyline class="b" points="340.53 341.31 385.47 268.86 432.24 341.36"/><polygon class="k" points="338.15 345.15 343.71 341.11 340.71 341.03 339.29 338.37 338.15 345.15"/><polygon class="k" points="434.69 345.15 429.06 341.21 432.06 341.07 433.43 338.39 434.69 345.15"/></g><g><line class="f" x1="180.65" y1="320.09" x2="183.01" y2="331.68"/><polygon class="m" points="183.91 336.11 180.09 330.39 182.94 331.35 185.19 329.35 183.91 336.11"/></g><polyline class="f" points="120.38 310.41 169.53 267.13 178.98 309.53"/><path class="m" d="m260.11,21.69c-8.48,0-15.36,6.88-15.36,15.36s6.88,15.36,15.36,15.36,15.36-6.88,15.36-15.36-6.88-15.36-15.36-15.36Zm0,28.29c-2.32,0-4.19-1.55-4.19-3.46h8.39c0,1.91-1.88,3.46-4.19,3.46Zm6.93-4.6h-13.86v-2.51h13.86v2.51Zm-.05-3.81h-13.77c-.05-.05-.09-.1-.14-.16-.93-1.02-1.64-2.23-2.08-3.53,0-.03,1.72.35,2.94.63,0,0,.63.15,1.55.31-.89-1.03-1.39-2.34-1.41-3.7,0-2.96,2.27-5.54,1.45-7.62.8.06,1.65,1.68,1.7,4.2.81-1.4,1.22-3,1.2-4.61,0-1.36.89-2.93,1.79-2.98-.8,1.31.21,2.44,1.1,5.23.33,1.05.29,2.81.55,3.93.09-2.32.49-5.72,1.96-6.88-.65,1.48.09,3.32.61,4.21.9,1.35,1.36,2.94,1.32,4.57,0,1.35-.49,2.65-1.36,3.68.97-.18,1.65-.35,1.65-.35l3.16-.62c-.43,1.4-1.19,2.67-2.23,3.7Z"/><g><path class="m" d="m170.89,311.54v7.38h-.89v-7.38h.89Z"/><path class="m" d="m178,313.85h-.89c-.05-.26-.14-.48-.28-.68s-.29-.36-.48-.49c-.19-.13-.39-.23-.62-.3-.23-.07-.46-.1-.71-.1-.45,0-.85.11-1.21.34s-.65.56-.86,1c-.21.44-.32.98-.32,1.62s.11,1.18.32,1.62.5.77.86,1,.77.34,1.21.34c.24,0,.48-.03.71-.1.23-.07.43-.17.62-.3.19-.13.34-.3.48-.49s.22-.42.28-.68h.89c-.07.38-.19.71-.37,1.01s-.4.55-.66.76-.56.37-.89.47-.68.16-1.05.16c-.63,0-1.19-.15-1.68-.46s-.88-.74-1.16-1.31c-.28-.57-.42-1.24-.42-2.02s.14-1.45.42-2.02.67-1,1.16-1.31c.49-.31,1.05-.46,1.68-.46.37,0,.72.05,1.05.16.33.11.62.27.89.47.26.21.48.46.66.76s.3.63.37,1.01Z"/><path class="m" d="m178.83,311.54h1.07l2.51,6.12h.09l2.51-6.12h1.07v7.38h-.84v-5.6h-.07l-2.3,5.6h-.81l-2.3-5.6h-.07v5.6h-.84v-7.38Z"/><path class="m" d="m187.24,318.92v-7.38h2.49c.58,0,1.05.1,1.42.31s.64.49.82.84.27.75.27,1.18-.09.83-.26,1.18c-.18.36-.45.64-.82.85-.37.21-.84.31-1.41.31h-1.79v-.79h1.76c.4,0,.71-.07.95-.21.24-.14.42-.32.52-.56.11-.23.16-.5.16-.79s-.05-.56-.16-.79c-.11-.23-.29-.42-.53-.55-.24-.13-.56-.2-.97-.2h-1.57v6.58h-.89Z"/></g><g><path class="m" d="m105.16,311.54v7.38h-.89v-7.38h.89Z"/><path class="m" d="m112.27,313.85h-.89c-.05-.26-.14-.48-.28-.68s-.29-.36-.48-.49c-.19-.13-.39-.23-.62-.3-.23-.07-.46-.1-.71-.1-.45,0-.85.11-1.21.34s-.65.56-.86,1c-.21.44-.32.98-.32,1.62s.11,1.18.32,1.62.5.77.86,1,.77.34,1.21.34c.24,0,.48-.03.71-.1.23-.07.43-.17.62-.3.19-.13.34-.3.48-.49s.22-.42.28-.68h.89c-.07.38-.19.71-.37,1.01s-.4.55-.66.76-.56.37-.89.47-.68.16-1.05.16c-.63,0-1.19-.15-1.68-.46s-.88-.74-1.16-1.31c-.28-.57-.42-1.24-.42-2.02s.14-1.45.42-2.02.67-1,1.16-1.31c.49-.31,1.05-.46,1.68-.46.37,0,.72.05,1.05.16.33.11.62.27.89.47.26.21.48.46.66.76s.3.63.37,1.01Z"/><path class="m" d="m113.1,311.54h1.07l2.51,6.12h.09l2.51-6.12h1.07v7.38h-.84v-5.6h-.07l-2.3,5.6h-.81l-2.3-5.6h-.07v5.6h-.84v-7.38Z"/><path class="m" d="m121.51,318.92v-7.38h2.49c.58,0,1.05.1,1.42.31s.64.49.82.84.27.75.27,1.18-.09.83-.26,1.18c-.18.36-.45.64-.82.85-.37.21-.84.31-1.41.31h-1.79v-.79h1.76c.4,0,.71-.07.95-.21.24-.14.42-.32.52-.56.11-.23.16-.5.16-.79s-.05-.56-.16-.79c-.11-.23-.29-.42-.53-.55-.24-.13-.56-.2-.97-.2h-1.57v6.58h-.89Z"/></g><g><line class="f" x1="107.9" y1="320.09" x2="90.03" y2="333.41"/><polygon class="m" points="86.4 336.11 89.96 330.22 90.3 333.21 93.06 334.39 86.4 336.11"/></g><g><line class="f" x1="449.57" y1="320.09" x2="451.93" y2="331.68"/><polygon class="m" points="452.83 336.11 449.01 330.39 451.86 331.35 454.11 329.35 452.83 336.11"/></g><polyline class="f" points="387.68 310.89 438.44 267.13 447.9 309.53"/><g><path class="m" d="m439.8,311.54v7.38h-.89v-7.38h.89Z"/><path class="m" d="m446.92,313.85h-.89c-.05-.26-.14-.48-.28-.68s-.29-.36-.48-.49c-.19-.13-.39-.23-.62-.3-.23-.07-.46-.1-.71-.1-.45,0-.85.11-1.21.34s-.65.56-.86,1c-.21.44-.32.98-.32,1.62s.11,1.18.32,1.62c.21.44.5.77.86,1s.77.34,1.21.34c.25,0,.48-.03.71-.1s.43-.17.62-.3c.19-.13.34-.3.48-.49s.22-.42.28-.68h.89c-.07.38-.19.71-.37,1.01s-.4.55-.66.76c-.26.21-.56.37-.89.47-.33.11-.68.16-1.05.16-.63,0-1.19-.15-1.68-.46-.49-.31-.88-.74-1.16-1.31-.28-.57-.42-1.24-.42-2.02s.14-1.45.42-2.02c.28-.57.67-1,1.16-1.31.49-.31,1.05-.46,1.68-.46.37,0,.72.05,1.05.16.33.11.62.27.89.47.26.21.49.46.66.76s.3.63.37,1.01Z"/><path class="m" d="m447.75,311.54h1.07l2.51,6.12h.09l2.51-6.12h1.07v7.38h-.83v-5.6h-.07l-2.3,5.6h-.81l-2.3-5.6h-.07v5.6h-.83v-7.38Z"/><path class="m" d="m456.16,318.92v-7.38h2.49c.58,0,1.05.1,1.42.31.37.21.64.49.82.84s.27.75.27,1.18-.09.83-.26,1.18-.45.64-.82.85c-.37.21-.84.31-1.41.31h-1.79v-.79h1.76c.4,0,.71-.07.95-.21s.42-.32.52-.56c.11-.23.16-.5.16-.79s-.05-.56-.16-.79c-.11-.23-.29-.42-.53-.55-.24-.13-.56-.2-.96-.2h-1.57v6.58h-.89Z"/></g><g><path class="m" d="m374.99,312.08v7.38h-.89v-7.38h.89Z"/><path class="m" d="m382.1,314.39h-.89c-.05-.26-.14-.48-.28-.68s-.29-.36-.48-.49c-.19-.13-.39-.23-.62-.3-.23-.07-.46-.1-.71-.1-.45,0-.85.11-1.21.34-.36.23-.65.56-.86,1-.21.44-.32.98-.32,1.62s.11,1.18.32,1.62c.21.44.5.77.86,1s.76.34,1.21.34c.24,0,.48-.03.71-.1.23-.07.43-.17.62-.3.19-.13.34-.3.48-.49.13-.2.22-.42.28-.67h.89c-.07.38-.19.71-.37,1.01s-.4.55-.66.76c-.26.21-.56.37-.89.47-.33.11-.68.16-1.05.16-.63,0-1.19-.15-1.68-.46-.49-.31-.88-.74-1.16-1.31-.28-.57-.42-1.24-.42-2.02s.14-1.45.42-2.02c.28-.57.67-1,1.16-1.31.49-.31,1.05-.46,1.68-.46.37,0,.72.05,1.05.16.33.11.62.27.89.47.26.21.48.46.66.76.18.3.3.63.37,1.01Z"/><path class="m" d="m382.93,312.08h1.07l2.51,6.12h.09l2.51-6.12h1.07v7.38h-.84v-5.6h-.07l-2.3,5.6h-.81l-2.3-5.6h-.07v5.6h-.84v-7.38Z"/><path class="m" d="m391.34,319.46v-7.38h2.49c.58,0,1.05.1,1.42.31.37.21.64.49.82.84.18.35.27.75.27,1.18s-.09.83-.26,1.19c-.18.35-.45.64-.82.85s-.84.32-1.41.32h-1.79v-.79h1.76c.4,0,.71-.07.95-.21.24-.14.42-.32.52-.56.11-.23.16-.5.16-.79s-.05-.56-.16-.79c-.11-.23-.29-.42-.53-.55-.24-.13-.56-.2-.97-.2h-1.57v6.58h-.89Z"/></g><g><line class="f" x1="375.38" y1="321.14" x2="359.94" y2="333.59"/><polygon class="m" points="356.42 336.43 359.75 330.4 360.2 333.38 363.01 334.45 356.42 336.43"/></g></svg>