<?xml version="1.0" encoding="UTF-8"?><svg id="a" xmlns="http://www.w3.org/2000/svg" viewBox="0 0 347.77 320.78"><defs><style>.b,.c,.d,.e,.f,.g,.h,.i{fill:none;stroke-miterlimit:10;}.b,.g,.h,.i{stroke:#231f20;}.c{stroke-width:.5px;}.c,.d,.e{stroke:#405daa;}.j{fill:#405daa;}.d{stroke-width:.75px;}.e{stroke-width:.3px;}.f{stroke:#3c5daa;stroke-dasharray:0 0 1.78 1.78;stroke-width:.67px;}.k{fill:#010101;fill-rule:evenodd;}.g{stroke-width:.72px;}.h{stroke-width:.89px;}.i{stroke-width:1.02px;}.l{fill:#231f20;}</style></defs><path class="k" d="m298.32,31.02c0-.31-.25-.57-.57-.57h-8.29c-2.12.08-3.99,1.81-4.21,3.93l-1.46,14.5v.13c-.11,1.8,1.48,3.39,3.64,4.3l.1.04.45,18.67v.07c.05.28.29.5.58.49.31,0,.56-.27.55-.58l-.46-19.05v-.07c-.04-.21-.18-.38-.38-.45-2.02-.73-3.5-2.12-3.36-3.43l1.46-14.5.02-.12c.22-1.53,1.64-2.78,3.2-2.78h8.22c.28-.04.5-.28.5-.57Zm-.13-9.95c0-2.38-1.93-4.3-4.3-4.3s-4.3,1.93-4.3,4.3,1.93,4.3,4.3,4.3,4.3-1.93,4.3-4.3Zm-9.74,0c0-3,2.43-5.44,5.44-5.44s5.44,2.43,5.44,5.44-2.43,5.44-5.44,5.44-5.44-2.43-5.44-5.44Zm51.21,13.17c-.28-2.11-2.19-3.79-4.33-3.79h-8.22c-.28.04-.5.28-.5.57,0,.31.25.57.57.57h8.28c1.55.07,2.93,1.36,3.09,2.91l1.46,14.5v.1c.05,1.28-1.4,2.62-3.36,3.32-.22.08-.37.29-.38.52l-.46,19.05v.07c.03.28.26.51.55.52h.07c.28-.03.51-.26.52-.55l.45-18.67.11-.04c2.21-.93,3.82-2.57,3.64-4.43l-1.46-14.5-.02-.14Zm-4.32-13.17c0-2.38-1.93-4.3-4.3-4.3s-4.3,1.93-4.3,4.3,1.93,4.3,4.3,4.3,4.3-1.93,4.3-4.3Zm-9.74,0c0-3,2.43-5.44,5.44-5.44s5.44,2.43,5.44,5.44-2.43,5.44-5.44,5.44-5.44-2.43-5.44-5.44Zm-3.5,8.42c-.31-2.34-2.44-4.22-4.81-4.22h-9.81c-2.36.08-4.44,2-4.68,4.36l-1.65,16.33v.13c-.13,2,1.66,3.78,4.09,4.79l.13.05.51,21.08v.07c.05.28.29.5.58.49.31,0,.56-.27.55-.58l-.52-21.46v-.07c-.04-.21-.18-.38-.38-.45-2.3-.83-3.99-2.42-3.84-3.94l1.65-16.33.02-.13c.25-1.77,1.88-3.21,3.68-3.21h9.8c1.78.07,3.38,1.56,3.56,3.34l1.65,16.33v.11c.07,1.48-1.59,3.02-3.83,3.83-.22.08-.37.29-.38.52l-.52,21.46v.07c.03.28.26.51.55.52h.07c.28-.03.51-.26.52-.55l.51-21.08.13-.05c2.48-1.03,4.29-2.87,4.09-4.93l-1.65-16.33-.02-.14Zm-9.64-19.42c2.71,0,4.92,2.2,4.92,4.92s-2.2,4.92-4.92,4.92-4.92-2.2-4.92-4.92,2.2-4.92,4.92-4.92Zm0-1.14c-3.34,0-6.05,2.71-6.05,6.05s2.71,6.05,6.05,6.05,6.05-2.71,6.05-6.05-2.71-6.05-6.05-6.05Z"/><g><path class="l" d="m116.67,270.7v-.25c0-.33.25-.6.57-.6,12.85-.03,22.25-.26,26.23-.39,3.74-.12,7.57-.53,9.71-3.98.65-1.05,1.14-3.14,1.14-4.3,0-4.94-3.9-9.08-8.69-9.22-.26,0-.49-.12-.67-.31-.17-.19-.26-.45-.26-.71.02-.53.03-1.87-.19-2.91-1.28-6.04-6.58-10.22-12.33-9.71-1.47.13-3.1.69-3.74.93-.27.1-.57.08-.83-.07-.26-.15-.44-.4-.51-.7-1.55-6.81-6.63-11.04-13.25-11.04s-11.79,5.84-13.3,11.49c-.06.22-.17.43-.34.57-.35.29-.8.33-1.16.11-.58-.35-2.16-1.16-4.31-1.29-6-.36-11.3,3.8-12.34,9.68-.12.69-.09,2.09-.02,3.17.03.45-.25.86-.67.97-2.56.66-7.34,3.99-7.34,9.04v.29c-.01,1.22-.02,2.89,1.18,4.72,1.23,1.87,3.22,3.06,5.47,3.27,4.1.38,10.94.38,29.52.39h.7c.31,0,.57.27.57.6v.25c0,.33-.25.6-.57.6h-.7c-18.62,0-25.48,0-29.64-.39-2.65-.25-5.01-1.66-6.47-3.89-1.45-2.2-1.43-4.3-1.42-5.55v-.28c0-5.21,4.52-9.24,7.99-10.34-.05-.86-.09-2.27.06-3.11,1.16-6.6,7.08-11.26,13.77-10.86,2.03.12,3.6.77,4.52,1.26,2.03-6.95,8.2-12.15,14.5-12.15,7.06,0,12.71,4.6,14.49,11.76.91-.32,2.35-.76,3.72-.88,6.42-.57,12.35,4.09,13.78,10.83.2.95.24,2.06.23,2.83,5.33.38,9.61,5.07,9.61,10.65,0,1.39-.55,3.77-1.37,5.09-2.5,4.03-6.89,4.5-10.81,4.63-3.99.13-13.4.35-26.27.39-.31,0-.57-.27-.57-.6Z"/><path class="l" d="m122.99,264.81c0,.26-.15.51-.41.66-.4.23-.93.12-1.18-.25l-6.11-8.99-.08,28.26c0,.44-.39.79-.87.79h0c-.47,0-.85-.36-.85-.79l.08-28.27-6.29,8.88c-.26.37-.79.47-1.19.23-.4-.24-.51-.73-.25-1.09l7.89-11.15c.16-.23.44-.36.73-.36s.56.14.72.37l7.67,11.28c.09.13.13.28.13.43Z"/></g><g><path class="c" d="m20.59,6.06l-4.09,12.48c-.05.17,0,.35.14.45l11.79,8.75c.15.11.35.11.49,0l11.53-9.01c.13-.11.19-.28.14-.45l-4.05-12.21c-.12-.36-.63-.37-.76-.02l-2.89,7.62c-.06.16-.21.26-.38.26l-7.85-.11c-.16,0-.31-.1-.37-.26l-2.93-7.52c-.14-.35-.64-.34-.76.02Z"/><path class="e" d="m39.01,13.97l-9.88,13.58c-.23.3-.68.3-.91,0l-9.98-13.27c-.1-.13,0-.31.15-.31h5.95l3.97,13.42c.12.38.65.38.77,0l3.75-13.43h5.92c.06,0,.31-.05.27,0Z"/></g><rect class="d" x="157.46" y="119.54" width="116.55" height="63.21" rx="4.29" ry="4.29"/><g><path class="j" d="m188.85,158.92v-16h6.31c1.21,0,2.25.23,3.1.69.85.46,1.51,1.1,1.96,1.91.45.82.68,1.75.68,2.82s-.23,2-.69,2.81c-.46.81-1.12,1.44-1.99,1.9s-1.92.68-3.14.68h-4.02v-2.71h3.48c.65,0,1.19-.11,1.61-.34.42-.23.74-.54.95-.95.21-.4.32-.87.32-1.39s-.11-1-.32-1.39-.53-.71-.96-.93c-.43-.22-.97-.33-1.62-.33h-2.28v13.23h-3.38Z"/><path class="j" d="m206.93,159.15c-1.21,0-2.26-.26-3.14-.78-.88-.52-1.56-1.24-2.04-2.17-.48-.93-.72-2.01-.72-3.24s.24-2.32.72-3.25c.48-.93,1.16-1.65,2.04-2.17.88-.52,1.93-.78,3.14-.78s2.26.26,3.14.78c.88.52,1.56,1.24,2.04,2.17.48.93.72,2.01.72,3.25s-.24,2.31-.72,3.24c-.48.93-1.16,1.65-2.04,2.17-.88.52-1.93.78-3.14.78Zm.02-2.58c.55,0,1.01-.16,1.38-.47.37-.31.65-.75.84-1.29.19-.55.29-1.17.29-1.87s-.1-1.32-.29-1.87c-.19-.55-.47-.98-.84-1.3-.37-.32-.83-.48-1.38-.48s-1.02.16-1.4.48c-.38.32-.66.75-.85,1.3-.19.55-.29,1.17-.29,1.87s.09,1.32.29,1.87c.19.55.47.98.85,1.29.38.32.84.47,1.4.47Z"/><path class="j" d="m213.69,158.92v-12h3.23v2.09h.12c.22-.74.59-1.31,1.1-1.69s1.11-.57,1.78-.57c.17,0,.35.01.54.03.19.02.36.05.51.09v2.95c-.16-.05-.37-.09-.65-.12-.28-.04-.53-.05-.76-.05-.49,0-.93.11-1.31.32s-.68.5-.91.88-.33.81-.33,1.3v6.79h-3.33Z"/><path class="j" d="m228.35,146.92v2.5h-7.23v-2.5h7.23Zm-5.59-2.88h3.33v11.19c0,.31.05.55.14.71.09.17.23.29.39.36.17.07.37.1.59.1.16,0,.31-.01.47-.04.16-.03.28-.05.36-.07l.52,2.48c-.17.05-.4.11-.7.18s-.67.11-1.1.13c-.8.03-1.5-.08-2.11-.32-.6-.24-1.07-.62-1.4-1.14s-.5-1.17-.49-1.95v-11.62Z"/><path class="j" d="m232.61,159.14c-.77,0-1.45-.13-2.05-.4-.6-.27-1.07-.67-1.42-1.2-.35-.53-.52-1.19-.52-1.98,0-.67.12-1.23.37-1.68s.58-.82,1-1.09c.42-.28.9-.48,1.44-.62s1.11-.24,1.7-.3c.7-.07,1.26-.14,1.69-.21s.74-.16.93-.29c.19-.13.29-.32.29-.58v-.05c0-.49-.16-.88-.46-1.15-.31-.27-.75-.41-1.32-.41-.6,0-1.08.13-1.43.39-.35.26-.59.59-.7.99l-3.08-.25c.16-.73.46-1.36.92-1.89.46-.53,1.05-.95,1.78-1.23s1.57-.43,2.53-.43c.67,0,1.31.08,1.92.23s1.16.4,1.63.73.85.75,1.13,1.26c.28.51.41,1.13.41,1.84v8.09h-3.16v-1.66h-.09c-.19.38-.45.71-.77.99-.32.28-.71.51-1.16.66-.45.16-.98.24-1.57.24Zm.95-2.3c.49,0,.92-.1,1.3-.29s.67-.46.88-.79c.21-.33.32-.71.32-1.13v-1.27c-.1.07-.25.13-.43.18s-.38.1-.61.15c-.22.04-.45.08-.67.12-.22.03-.43.06-.61.09-.39.06-.73.15-1.02.27s-.52.29-.68.5-.24.47-.24.79c0,.45.17.8.5,1.04.33.24.75.36,1.26.36Z"/><path class="j" d="m243.97,142.92v16h-3.33v-16h3.33Z"/></g><g><path class="l" d="m94.41,298.18c0,.92-.17,1.72-.5,2.39-.33.67-.79,1.19-1.37,1.55-.58.36-1.24.54-1.99.54s-1.41-.18-1.99-.54c-.58-.36-1.04-.88-1.37-1.55-.33-.67-.5-1.47-.5-2.39s.17-1.72.5-2.39c.33-.67.79-1.19,1.37-1.55.58-.36,1.24-.55,1.99-.55s1.41.18,1.99.55c.58.36,1.04.88,1.37,1.55s.5,1.47.5,2.39Zm-1.02,0c0-.76-.12-1.39-.38-1.91-.25-.52-.59-.91-1.02-1.18-.43-.27-.91-.4-1.43-.4s-1.01.13-1.43.4c-.43.27-.77.66-1.02,1.18-.25.52-.38,1.16-.38,1.91s.13,1.39.38,1.91c.25.52.59.91,1.02,1.18.43.27.91.4,1.43.4s1.01-.13,1.43-.4c.43-.27.77-.66,1.02-1.18.25-.52.38-1.16.38-1.91Z"/><path class="l" d="m95.33,305v-9h.97v1.04h.12c.07-.11.18-.26.31-.44s.32-.34.57-.48c.25-.14.59-.21,1.01-.21.55,0,1.04.14,1.46.41.42.28.75.67.98,1.17.24.51.35,1.1.35,1.79s-.12,1.29-.35,1.8c-.24.51-.56.9-.98,1.18-.42.28-.9.42-1.44.42-.42,0-.76-.07-1.01-.21s-.45-.3-.58-.48c-.14-.18-.24-.33-.32-.45h-.09v3.46h-1Zm.99-5.73c0,.49.07.93.22,1.31.15.38.36.67.64.88.28.21.62.32,1.02.32s.77-.11,1.05-.33c.28-.22.5-.52.64-.9.14-.38.22-.8.22-1.27s-.07-.88-.21-1.25c-.14-.37-.35-.66-.63-.88-.28-.22-.64-.33-1.06-.33s-.75.1-1.03.31-.49.49-.63.86c-.14.37-.21.8-.21,1.29Z"/><path class="l" d="m104.67,302.68c-.63,0-1.17-.14-1.63-.42-.46-.28-.81-.67-1.05-1.18-.25-.5-.37-1.09-.37-1.76s.12-1.26.37-1.77c.25-.51.59-.91,1.03-1.2.44-.29.96-.43,1.55-.43.34,0,.68.06,1.01.17.33.11.63.3.91.55.27.25.49.59.65,1.01.16.42.24.93.24,1.54v.43h-5.05v-.87h4.02c0-.37-.07-.7-.22-.99-.15-.29-.35-.52-.62-.69-.27-.17-.58-.25-.95-.25-.4,0-.75.1-1.04.3-.29.2-.51.45-.67.77s-.23.65-.23,1.01v.58c0,.49.09.91.26,1.25.17.34.41.6.72.78.31.18.66.27,1.07.27.26,0,.5-.04.72-.11s.4-.19.56-.34c.16-.15.28-.34.36-.57l.97.27c-.1.33-.27.62-.52.87-.24.25-.54.44-.89.58s-.75.21-1.2.21Z"/><path class="l" d="m109.19,298.61v3.94h-1v-6.55h.97v1.02h.09c.15-.33.39-.6.7-.8s.72-.3,1.21-.3c.44,0,.83.09,1.16.27.33.18.59.45.78.82s.28.83.28,1.38v4.16h-1.01v-4.09c0-.51-.13-.92-.4-1.2-.27-.29-.63-.43-1.1-.43-.32,0-.61.07-.86.21-.25.14-.45.34-.59.61-.14.27-.22.59-.22.97Z"/><path class="l" d="m119.4,296c-.05-.43-.26-.77-.62-1-.36-.24-.81-.36-1.34-.36-.39,0-.72.06-1.01.19s-.51.3-.67.52c-.16.22-.24.47-.24.75,0,.23.06.43.17.6s.26.3.43.41.36.2.55.27.37.13.53.17l.89.24c.23.06.48.14.76.25.28.1.55.25.81.43.26.18.47.41.64.69.17.28.25.63.25,1.04,0,.47-.12.9-.37,1.28-.25.38-.6.68-1.07.91-.47.22-1.04.34-1.71.34-.62,0-1.17-.1-1.62-.3-.46-.2-.81-.48-1.07-.84-.26-.36-.41-.78-.44-1.26h1.09c.03.33.14.6.33.82.19.21.44.37.74.48.3.1.62.16.97.16.4,0,.77-.07,1.09-.2.32-.13.58-.32.76-.55.19-.24.28-.51.28-.83,0-.29-.08-.53-.24-.71s-.38-.33-.64-.44c-.26-.11-.55-.21-.86-.3l-1.07-.31c-.68-.2-1.22-.48-1.62-.84-.4-.36-.6-.84-.6-1.43,0-.49.13-.92.4-1.28.27-.37.62-.65,1.07-.85s.95-.3,1.51-.3,1.06.1,1.5.3.79.47,1.04.82.39.74.41,1.18h-1.02Z"/><path class="l" d="m124.27,296v.85h-3.39v-.85h3.39Zm-2.4-1.57h1.01v6.24c0,.28.04.5.13.64s.19.23.32.28c.13.05.27.07.42.07.11,0,.2,0,.27-.02.07-.01.13-.02.17-.03l.21.9c-.07.03-.16.05-.29.08-.12.03-.28.04-.46.04-.28,0-.56-.06-.83-.18-.27-.12-.5-.31-.67-.56s-.27-.57-.27-.95v-6.51Z"/><path class="l" d="m127,302.7c-.42,0-.79-.08-1.13-.24-.34-.16-.61-.39-.81-.69-.2-.3-.3-.66-.3-1.09,0-.38.07-.68.22-.91s.35-.42.59-.55c.25-.13.52-.23.82-.3.3-.07.6-.12.91-.16.4-.05.72-.09.97-.12.25-.03.43-.07.54-.14.12-.07.17-.18.17-.34v-.03c0-.42-.11-.75-.34-.98-.23-.23-.58-.35-1.04-.35s-.86.1-1.13.32c-.27.21-.46.43-.58.67l-.96-.34c.17-.4.4-.71.68-.93.29-.22.6-.38.94-.47.34-.09.67-.13,1-.13.21,0,.45.03.73.08.27.05.54.15.8.3.26.15.47.38.64.69.17.31.26.72.26,1.24v4.31h-1.01v-.89h-.05c-.07.14-.18.29-.34.46s-.37.3-.64.41c-.26.11-.59.17-.97.17Zm.15-.9c.4,0,.73-.08,1.01-.23s.48-.36.62-.61.21-.51.21-.78v-.92c-.04.05-.14.1-.28.14s-.31.08-.49.11c-.19.03-.37.06-.54.08s-.32.04-.42.05c-.26.03-.5.09-.73.16-.23.08-.41.19-.54.34s-.21.35-.21.61c0,.35.13.61.39.79.26.18.59.27.99.27Z"/><path class="l" d="m133.77,302.68c-.61,0-1.14-.15-1.58-.43-.44-.29-.78-.69-1.02-1.2-.24-.51-.36-1.09-.36-1.74s.12-1.25.37-1.76c.25-.51.59-.91,1.03-1.2.44-.29.96-.43,1.55-.43.46,0,.88.08,1.24.26s.67.41.91.72c.24.31.38.67.44,1.07h-1.01c-.08-.3-.25-.56-.51-.79s-.62-.35-1.06-.35c-.39,0-.73.1-1.03.3s-.52.49-.69.86c-.16.37-.25.8-.25,1.29s.08.95.24,1.32c.16.38.39.67.68.87s.64.31,1.04.31c.26,0,.5-.05.71-.14s.39-.22.54-.39c.15-.17.25-.38.32-.61h1.01c-.06.39-.2.73-.42,1.04-.22.31-.52.55-.88.73-.37.18-.79.27-1.27.27Z"/><path class="l" d="m137.09,302.55v-8.73h1v8.73h-1Zm.94-2.39l-.02-1.24h.21l2.86-2.92h1.24l-3.05,3.09h-.09l-1.16,1.07Zm3.22,2.39l-2.56-3.24.72-.7,3.12,3.94h-1.28Z"/><path class="l" d="m103.8,317.08c-.61,0-1.14-.15-1.58-.43-.44-.29-.78-.69-1.02-1.2-.24-.51-.36-1.09-.36-1.74s.12-1.25.37-1.76c.25-.51.59-.91,1.03-1.2.44-.29.96-.43,1.55-.43.46,0,.88.08,1.24.26s.67.41.91.72c.24.31.38.67.44,1.07h-1.01c-.08-.3-.25-.56-.51-.79s-.62-.35-1.06-.35c-.39,0-.73.1-1.03.3s-.52.49-.69.86c-.16.37-.25.8-.25,1.29s.08.95.24,1.32c.16.38.39.67.68.87s.64.31,1.04.31c.26,0,.5-.05.71-.14s.39-.22.54-.39c.15-.17.25-.38.32-.61h1.01c-.06.39-.2.73-.42,1.04-.22.31-.52.55-.88.73-.37.18-.79.27-1.27.27Z"/><path class="l" d="m108.13,308.22v8.73h-1v-8.73h1Z"/><path class="l" d="m111.91,317.08c-.59,0-1.11-.14-1.55-.42s-.79-.67-1.04-1.18c-.25-.51-.37-1.1-.37-1.77s.12-1.28.37-1.79c.25-.51.6-.9,1.04-1.18s.96-.42,1.55-.42,1.11.14,1.55.42.79.68,1.04,1.18c.25.51.37,1.1.37,1.79s-.12,1.27-.37,1.77c-.25.51-.6.9-1.04,1.18s-.96.42-1.55.42Zm0-.9c.45,0,.82-.12,1.11-.35s.5-.53.64-.91c.14-.38.21-.78.21-1.22s-.07-.85-.21-1.22c-.14-.38-.35-.68-.64-.92-.29-.23-.66-.35-1.11-.35s-.82.12-1.11.35c-.29.23-.5.54-.64.92-.14.38-.21.79-.21,1.22s.07.84.21,1.22c.14.38.35.68.64.91s.66.35,1.11.35Z"/><path class="l" d="m119.81,314.27v-3.87h1v6.55h-1v-1.11h-.07c-.15.33-.39.62-.72.85-.32.23-.73.35-1.23.35-.41,0-.77-.09-1.09-.27s-.57-.45-.75-.82c-.18-.36-.27-.83-.27-1.38v-4.16h1v4.09c0,.48.13.86.4,1.14s.61.43,1.03.43c.25,0,.5-.06.76-.19s.48-.32.66-.59c.18-.26.27-.6.27-1.01Z"/><path class="l" d="m124.41,317.08c-.54,0-1.03-.14-1.44-.42-.42-.28-.74-.67-.98-1.18-.24-.51-.35-1.11-.35-1.8s.12-1.28.35-1.79c.24-.5.56-.9.98-1.17.42-.28.91-.41,1.46-.41.43,0,.76.07,1.01.21.25.14.44.3.57.48s.24.32.31.44h.09v-3.22h1v8.73h-.97v-1.01h-.12c-.07.12-.18.27-.32.45-.14.18-.33.34-.58.48s-.59.21-1.01.21Zm.14-.9c.4,0,.74-.11,1.02-.32.28-.21.49-.5.64-.88.14-.38.22-.81.22-1.31s-.07-.92-.21-1.29c-.14-.37-.35-.65-.63-.86s-.62-.31-1.03-.31-.78.11-1.06.33c-.28.22-.49.51-.63.88-.14.37-.21.79-.21,1.25s.07.89.22,1.27c.14.38.36.68.64.9.28.22.63.33,1.05.33Z"/></g><g><path class="l" d="m304.25,80.72h1.06v5.78c0,.6-.14,1.13-.42,1.6-.28.47-.67.83-1.18,1.1-.51.27-1.1.4-1.79.4s-1.28-.13-1.79-.4-.9-.64-1.18-1.1c-.28-.47-.42-1-.42-1.6v-5.78h1.06v5.69c0,.43.09.8.28,1.14s.46.59.8.78c.35.19.76.28,1.25.28s.9-.09,1.25-.28c.35-.19.62-.45.8-.78.19-.33.28-.71.28-1.14v-5.69Z"/><path class="l" d="m311.2,84.37l-.9.25c-.06-.15-.14-.3-.25-.44s-.26-.26-.45-.36-.43-.14-.72-.14c-.4,0-.73.09-1,.28-.27.18-.4.42-.4.7,0,.25.09.45.27.59.18.14.47.27.85.36l.97.24c.58.14,1.02.36,1.31.65.29.29.43.67.43,1.12,0,.38-.11.71-.32,1.01-.21.3-.51.53-.9.7-.38.17-.83.26-1.34.26-.67,0-1.22-.15-1.66-.43-.44-.29-.71-.71-.83-1.27l.95-.24c.09.35.26.62.52.79.25.18.59.26,1,.26.47,0,.84-.1,1.12-.3.28-.2.42-.44.42-.72,0-.23-.08-.42-.24-.57-.16-.16-.4-.27-.73-.35l-1.09-.26c-.6-.14-1.04-.36-1.32-.66-.28-.3-.42-.68-.42-1.13,0-.37.1-.7.31-.98s.49-.51.86-.67.77-.24,1.23-.24c.65,0,1.16.14,1.53.43.37.28.63.66.79,1.12Z"/><path class="l" d="m314.86,89.59c-.63,0-1.17-.14-1.63-.42-.46-.28-.81-.67-1.05-1.18-.25-.5-.37-1.09-.37-1.76s.12-1.26.37-1.77c.25-.51.59-.91,1.03-1.2.44-.29.96-.43,1.55-.43.34,0,.68.06,1.01.17.33.11.63.3.91.55.27.25.49.59.65,1.01.16.42.24.93.24,1.54v.43h-5.05v-.87h4.02c0-.37-.07-.7-.22-.99-.15-.29-.35-.52-.62-.69-.27-.17-.58-.25-.95-.25-.4,0-.75.1-1.04.3-.29.2-.51.45-.67.77s-.23.65-.23,1.01v.58c0,.49.09.91.26,1.25.17.34.41.6.72.78.31.18.66.27,1.07.27.26,0,.5-.04.72-.11s.4-.19.56-.34c.16-.15.28-.34.36-.57l.97.27c-.1.33-.27.62-.52.87-.24.25-.54.44-.89.58s-.75.21-1.2.21Z"/><path class="l" d="m318.39,89.45v-6.55h.97v.99h.07c.12-.32.33-.59.65-.79.31-.2.66-.3,1.06-.3.07,0,.17,0,.28,0,.11,0,.2,0,.25.01v1.02s-.11-.02-.23-.04-.25-.03-.38-.03c-.32,0-.6.07-.85.2-.25.13-.44.31-.59.54s-.22.5-.22.79v4.14h-1Z"/><path class="l" d="m326.77,84.37l-.9.25c-.06-.15-.14-.3-.25-.44s-.26-.26-.45-.36-.43-.14-.72-.14c-.4,0-.73.09-1,.28-.27.18-.4.42-.4.7,0,.25.09.45.27.59.18.14.47.27.85.36l.97.24c.58.14,1.02.36,1.31.65.29.29.43.67.43,1.12,0,.38-.11.71-.32,1.01-.21.3-.51.53-.9.7-.38.17-.83.26-1.34.26-.67,0-1.22-.15-1.66-.43-.44-.29-.71-.71-.83-1.27l.95-.24c.09.35.26.62.52.79.25.18.59.26,1,.26.47,0,.84-.1,1.12-.3.28-.2.42-.44.42-.72,0-.23-.08-.42-.24-.57-.16-.16-.4-.27-.73-.35l-1.09-.26c-.6-.14-1.04-.36-1.32-.66-.28-.3-.42-.68-.42-1.13,0-.37.1-.7.31-.98s.49-.51.86-.67.77-.24,1.23-.24c.65,0,1.16.14,1.53.43.37.28.63.66.79,1.12Z"/></g><rect class="f" x=".33" y=".33" width="189.75" height="97.19" rx="13.69" ry="13.69"/><rect class="h" x="277.63" y="231.41" width="69.7" height="64.63" rx="3.84" ry="3.84"/><g><path class="l" d="m305.64,250.07h1.92v5.91c0,.66-.16,1.24-.47,1.74-.32.5-.76.88-1.32,1.16-.57.28-1.22.42-1.98.42s-1.42-.14-1.98-.42c-.57-.28-1.01-.66-1.32-1.16-.31-.5-.47-1.08-.47-1.74v-5.91h1.92v5.74c0,.35.08.65.23.92.15.27.37.48.65.63.28.15.6.23.97.23s.7-.08.97-.23c.28-.15.49-.37.64-.63.15-.27.23-.58.23-.92v-5.74Z"/><path class="l" d="m314.04,254.29l-1.73.11c-.03-.15-.09-.28-.19-.4s-.23-.22-.38-.29c-.16-.07-.35-.11-.57-.11-.29,0-.54.06-.74.18-.2.12-.3.29-.3.49,0,.16.06.3.2.41.13.11.35.2.67.27l1.23.25c.66.14,1.16.36,1.48.66.33.3.49.7.49,1.19,0,.45-.13.84-.39,1.18-.26.34-.62.6-1.07.79-.46.19-.98.28-1.57.28-.9,0-1.62-.19-2.16-.57-.53-.38-.85-.89-.94-1.54l1.86-.1c.06.28.19.48.41.63.22.14.49.22.83.22s.6-.06.8-.19.31-.29.31-.5c0-.17-.08-.31-.22-.42-.14-.11-.36-.2-.66-.26l-1.18-.24c-.67-.13-1.16-.36-1.49-.69-.32-.33-.49-.75-.49-1.26,0-.44.12-.82.36-1.13.24-.32.57-.56,1.01-.73s.94-.26,1.53-.26c.86,0,1.54.18,2.04.55s.79.86.87,1.49Z"/><path class="l" d="m317.75,259.3c-.7,0-1.3-.14-1.81-.43-.5-.29-.89-.69-1.17-1.22s-.41-1.15-.41-1.87.14-1.32.41-1.85.66-.94,1.15-1.24,1.08-.44,1.75-.44c.45,0,.87.07,1.26.22.39.14.73.36,1.02.65.29.29.52.65.68,1.08s.24.94.24,1.52v.52h-5.76v-1.17h3.98c0-.27-.06-.51-.18-.72-.12-.21-.28-.38-.49-.5s-.45-.18-.73-.18-.54.07-.76.2-.39.31-.52.53-.19.47-.19.74v1.12c0,.34.06.63.19.88s.3.44.54.57c.23.13.5.2.82.2.21,0,.4-.03.58-.09s.32-.15.45-.27.22-.26.28-.44l1.75.12c-.09.42-.27.79-.54,1.1-.27.31-.63.56-1.06.73-.43.17-.93.26-1.49.26Z"/><path class="l" d="m321.36,259.16v-6.82h1.83v1.19h.07c.12-.42.33-.74.63-.96s.63-.33,1.01-.33c.09,0,.2,0,.31.02s.21.03.29.05v1.68c-.09-.03-.21-.05-.37-.07s-.3-.03-.43-.03c-.28,0-.53.06-.74.18s-.39.29-.52.5-.19.46-.19.74v3.86h-1.89Z"/><path class="l" d="m289.19,274.31c-.7,0-1.3-.15-1.8-.45-.5-.3-.89-.71-1.16-1.24-.27-.53-.4-1.14-.4-1.83s.14-1.31.41-1.84c.27-.53.66-.94,1.16-1.24.5-.3,1.1-.45,1.79-.45.6,0,1.12.11,1.56.32.45.22.8.52,1.06.91.26.39.4.85.43,1.38h-1.79c-.05-.34-.18-.62-.4-.82s-.5-.31-.84-.31c-.29,0-.55.08-.77.24-.22.16-.39.39-.51.69-.12.3-.18.67-.18,1.1s.06.8.18,1.11c.12.3.29.54.51.7s.48.24.77.24c.22,0,.41-.04.58-.13s.32-.22.43-.39c.11-.17.19-.38.22-.62h1.79c-.03.52-.17.98-.42,1.38-.25.4-.6.7-1.05.93-.44.22-.97.33-1.58.33Z"/><path class="l" d="m295.79,274.31c-.69,0-1.29-.15-1.79-.44s-.89-.71-1.16-1.24c-.27-.53-.41-1.14-.41-1.84s.14-1.32.41-1.85c.27-.53.66-.94,1.16-1.23.5-.29,1.1-.44,1.79-.44s1.29.15,1.79.44c.5.29.89.71,1.16,1.23.27.53.41,1.15.41,1.85s-.14,1.31-.41,1.84c-.27.53-.66.94-1.16,1.24s-1.1.44-1.79.44Zm0-1.47c.31,0,.58-.09.79-.27.21-.18.37-.42.48-.74.11-.31.16-.66.16-1.06s-.05-.75-.16-1.06c-.11-.31-.27-.56-.48-.74-.21-.18-.47-.27-.79-.27s-.58.09-.8.27-.38.43-.48.74-.16.67-.16,1.06.05.75.16,1.06c.11.31.27.56.48.74.21.18.48.27.8.27Z"/><path class="l" d="m299.63,274.17v-6.82h1.8v1.2h.08c.14-.4.38-.72.71-.95.33-.23.73-.35,1.19-.35s.87.12,1.2.35c.33.23.55.55.66.94h.07c.14-.39.39-.7.76-.94.37-.24.8-.35,1.3-.35.64,0,1.15.2,1.55.61.4.4.6.98.6,1.72v4.59h-1.89v-4.22c0-.38-.1-.66-.3-.85-.2-.19-.45-.28-.76-.28-.34,0-.61.11-.8.33s-.29.5-.29.86v4.17h-1.83v-4.26c0-.33-.1-.6-.29-.8-.19-.2-.44-.3-.75-.3-.21,0-.4.05-.57.16-.17.11-.3.25-.4.44-.1.19-.15.41-.15.66v4.1h-1.89Z"/><path class="l" d="m310.29,276.73v-9.38h1.87v1.15h.08c.08-.18.2-.37.36-.56.16-.19.37-.35.62-.48.26-.13.58-.19.96-.19.5,0,.96.13,1.38.39.42.26.76.65,1.01,1.17.25.52.38,1.17.38,1.95s-.12,1.4-.37,1.93c-.24.52-.58.92-1,1.19-.42.27-.89.4-1.41.4-.37,0-.68-.06-.94-.18-.26-.12-.47-.27-.63-.46-.16-.18-.29-.37-.37-.56h-.06v3.65h-1.89Zm1.85-5.97c0,.41.06.76.17,1.06.11.3.28.54.49.7.21.17.47.25.78.25s.57-.08.78-.26c.21-.17.38-.41.49-.71s.17-.65.17-1.05-.05-.74-.17-1.04c-.11-.3-.27-.53-.48-.7-.21-.17-.48-.25-.79-.25s-.57.08-.78.24c-.21.16-.37.39-.49.69s-.17.65-.17,1.06Z"/><path class="l" d="m321.83,271.27v-3.92h1.89v6.82h-1.82v-1.24h-.07c-.15.4-.41.72-.77.96-.36.24-.79.36-1.3.36-.46,0-.86-.1-1.2-.31-.35-.21-.62-.5-.81-.88-.19-.38-.29-.84-.3-1.37v-4.34h1.89v4.01c0,.4.11.72.32.96.21.23.5.35.86.35.23,0,.44-.05.64-.16s.36-.26.48-.47c.12-.21.18-.46.18-.77Z"/><path class="l" d="m328.11,267.35v1.42h-4.11v-1.42h4.11Zm-3.18-1.63h1.89v6.36c0,.17.03.31.08.41.05.1.13.16.22.2.1.04.21.06.33.06.09,0,.18,0,.27-.02.09-.02.16-.03.2-.04l.3,1.41c-.09.03-.23.06-.4.1-.17.04-.38.06-.63.07-.46.02-.85-.04-1.2-.18-.34-.14-.61-.36-.8-.65s-.28-.66-.28-1.11v-6.61Z"/><path class="l" d="m331.63,274.31c-.7,0-1.3-.14-1.81-.43-.5-.29-.89-.69-1.17-1.22s-.41-1.15-.41-1.87.14-1.32.41-1.85.66-.94,1.15-1.24,1.08-.44,1.75-.44c.45,0,.87.07,1.26.22.39.14.73.36,1.02.65.29.29.52.65.68,1.08s.24.94.24,1.52v.52h-5.76v-1.17h3.98c0-.27-.06-.51-.18-.72-.12-.21-.28-.38-.49-.5s-.45-.18-.73-.18-.54.07-.76.2-.39.31-.52.53-.19.47-.19.74v1.12c0,.34.06.63.19.88s.3.44.54.57c.23.13.5.2.82.2.21,0,.4-.03.58-.09s.32-.15.45-.27.22-.26.28-.44l1.75.12c-.09.42-.27.79-.54,1.1-.27.31-.63.56-1.06.73-.43.17-.93.26-1.49.26Z"/><path class="l" d="m335.24,274.17v-6.82h1.83v1.19h.07c.12-.42.33-.74.63-.96s.63-.33,1.01-.33c.09,0,.2,0,.31.02s.21.03.29.05v1.68c-.09-.03-.21-.05-.37-.07s-.3-.03-.43-.03c-.28,0-.53.06-.74.18s-.39.29-.52.5-.19.46-.19.74v3.86h-1.89Z"/></g><g><path class="j" d="m57.1,13.93c-.09-.29-.22-.54-.37-.77-.15-.23-.33-.42-.54-.59-.21-.16-.45-.29-.71-.37-.26-.08-.55-.13-.87-.13-.52,0-.99.13-1.41.4-.42.27-.76.66-1.01,1.18-.25.52-.38,1.16-.38,1.91s.13,1.39.38,1.91.59.91,1.03,1.18c.43.27.92.4,1.46.4.5,0,.94-.11,1.32-.32.38-.21.68-.52.89-.91s.32-.86.32-1.39l.32.07h-2.62v-.94h3.32v.94c0,.72-.15,1.34-.46,1.88-.31.53-.73.94-1.26,1.23s-1.15.44-1.84.44c-.77,0-1.45-.18-2.04-.54-.58-.36-1.04-.88-1.36-1.55-.33-.67-.49-1.47-.49-2.39,0-.69.09-1.31.28-1.86.19-.55.45-1.02.79-1.41s.74-.69,1.21-.89c.47-.21.98-.31,1.54-.31.46,0,.89.07,1.29.21s.76.33,1.07.58c.31.25.58.55.79.9.21.35.36.73.43,1.16h-1.09Z"/><path class="j" d="m60.11,12.29c-.2,0-.36-.07-.5-.2-.14-.13-.21-.29-.21-.48s.07-.35.21-.48.31-.2.5-.2.36.07.5.2.21.29.21.48-.07.35-.21.48c-.14.13-.31.2-.5.2Zm-.51,7.64v-6.55h1v6.55h-1Z"/><path class="j" d="m64.58,13.38v.85h-3.39v-.85h3.39Zm-2.4-1.57h1.01v6.24c0,.28.04.5.13.64s.19.23.32.28c.13.05.27.07.42.07.11,0,.2,0,.27-.02.07-.01.13-.02.17-.03l.21.9c-.07.03-.16.05-.29.08-.12.03-.28.04-.46.04-.28,0-.56-.06-.83-.18-.27-.12-.5-.31-.67-.56s-.27-.57-.27-.95v-6.51Z"/><path class="j" d="m68.03,19.93v-6.55h.97v.99h.07c.12-.32.33-.59.65-.79.31-.2.66-.3,1.06-.3.07,0,.17,0,.28,0,.11,0,.2,0,.25.01v1.02s-.11-.02-.23-.04-.25-.03-.38-.03c-.32,0-.6.07-.85.2-.25.13-.44.31-.59.54s-.22.5-.22.79v4.14h-1Z"/><path class="j" d="m74.31,20.07c-.63,0-1.17-.14-1.63-.42-.46-.28-.81-.67-1.05-1.18-.25-.5-.37-1.09-.37-1.76s.12-1.26.37-1.77c.25-.51.59-.91,1.03-1.2.44-.29.96-.43,1.55-.43.34,0,.68.06,1.01.17.33.11.63.3.91.55.27.25.49.59.65,1.01.16.42.24.93.24,1.54v.43h-5.05v-.87h4.02c0-.37-.07-.7-.22-.99-.15-.29-.35-.52-.62-.69-.27-.17-.58-.25-.95-.25-.4,0-.75.1-1.04.3-.29.2-.51.45-.67.77s-.23.65-.23,1.01v.58c0,.49.09.91.26,1.25.17.34.41.6.72.78.31.18.66.27,1.07.27.26,0,.5-.04.72-.11s.4-.19.56-.34c.16-.15.28-.34.36-.57l.97.27c-.1.33-.27.62-.52.87-.24.25-.54.44-.89.58s-.75.21-1.2.21Z"/><path class="j" d="m77.84,22.38v-9h.97v1.04h.12c.07-.11.18-.26.31-.44s.32-.34.57-.48c.25-.14.59-.21,1.01-.21.55,0,1.04.14,1.46.41.42.28.75.67.98,1.17.24.51.35,1.1.35,1.79s-.12,1.29-.35,1.8c-.24.51-.56.9-.98,1.18-.42.28-.9.42-1.44.42-.42,0-.76-.07-1.01-.21s-.45-.3-.58-.48c-.14-.18-.24-.33-.32-.45h-.09v3.46h-1Zm.99-5.73c0,.49.07.93.22,1.31.15.38.36.67.64.88.28.21.62.32,1.02.32s.77-.11,1.05-.33c.28-.22.5-.52.64-.9.14-.38.22-.8.22-1.27s-.07-.88-.21-1.25c-.14-.37-.35-.66-.63-.88-.28-.22-.64-.33-1.06-.33s-.75.1-1.03.31-.49.49-.63.86c-.14.37-.21.8-.21,1.29Z"/><path class="j" d="m87.09,20.07c-.59,0-1.11-.14-1.55-.42s-.79-.67-1.04-1.18c-.25-.51-.37-1.1-.37-1.77s.12-1.28.37-1.79c.25-.51.6-.9,1.04-1.18s.96-.42,1.55-.42,1.11.14,1.55.42.79.68,1.04,1.18c.25.51.37,1.1.37,1.79s-.12,1.27-.37,1.77c-.25.51-.6.9-1.04,1.18s-.96.42-1.55.42Zm0-.9c.45,0,.82-.12,1.11-.35s.5-.53.64-.91c.14-.38.21-.78.21-1.22s-.07-.85-.21-1.22c-.14-.38-.35-.68-.64-.92-.29-.23-.66-.35-1.11-.35s-.82.12-1.11.35c-.29.23-.5.54-.64.92-.14.38-.21.79-.21,1.22s.07.84.21,1.22c.14.38.35.68.64.91s.66.35,1.11.35Z"/><path class="j" d="m95.51,14.85l-.9.25c-.06-.15-.14-.3-.25-.44s-.26-.26-.45-.36-.43-.14-.72-.14c-.4,0-.73.09-1,.28-.27.18-.4.42-.4.7,0,.25.09.45.27.59.18.14.47.27.85.36l.97.24c.58.14,1.02.36,1.31.65.29.29.43.67.43,1.12,0,.38-.11.71-.32,1.01-.21.3-.51.53-.9.7-.38.17-.83.26-1.34.26-.67,0-1.22-.15-1.66-.43-.44-.29-.71-.71-.83-1.27l.95-.24c.09.35.26.62.52.79.25.18.59.26,1,.26.47,0,.84-.1,1.12-.3.28-.2.42-.44.42-.72,0-.23-.08-.42-.24-.57-.16-.16-.4-.27-.73-.35l-1.09-.26c-.6-.14-1.04-.36-1.32-.66-.28-.3-.42-.68-.42-1.13,0-.37.1-.7.31-.98s.49-.51.86-.67.77-.24,1.23-.24c.65,0,1.16.14,1.53.43.37.28.63.66.79,1.12Z"/><path class="j" d="m96.93,12.29c-.2,0-.36-.07-.5-.2-.14-.13-.21-.29-.21-.48s.07-.35.21-.48.31-.2.5-.2.36.07.5.2.21.29.21.48-.07.35-.21.48c-.14.13-.31.2-.5.2Zm-.51,7.64v-6.55h1v6.55h-1Z"/><path class="j" d="m101.4,13.38v.85h-3.39v-.85h3.39Zm-2.4-1.57h1.01v6.24c0,.28.04.5.13.64s.19.23.32.28c.13.05.27.07.42.07.11,0,.2,0,.27-.02.07-.01.13-.02.17-.03l.21.9c-.07.03-.16.05-.29.08-.12.03-.28.04-.46.04-.28,0-.56-.06-.83-.18-.27-.12-.5-.31-.67-.56s-.27-.57-.27-.95v-6.51Z"/><path class="j" d="m104.78,20.07c-.59,0-1.11-.14-1.55-.42s-.79-.67-1.04-1.18c-.25-.51-.37-1.1-.37-1.77s.12-1.28.37-1.79c.25-.51.6-.9,1.04-1.18s.96-.42,1.55-.42,1.11.14,1.55.42.79.68,1.04,1.18c.25.51.37,1.1.37,1.79s-.12,1.27-.37,1.77c-.25.51-.6.9-1.04,1.18s-.96.42-1.55.42Zm0-.9c.45,0,.82-.12,1.11-.35s.5-.53.64-.91c.14-.38.21-.78.21-1.22s-.07-.85-.21-1.22c-.14-.38-.35-.68-.64-.92-.29-.23-.66-.35-1.11-.35s-.82.12-1.11.35c-.29.23-.5.54-.64.92-.14.38-.21.79-.21,1.22s.07.84.21,1.22c.14.38.35.68.64.91s.66.35,1.11.35Z"/><path class="j" d="m108.56,19.93v-6.55h.97v.99h.07c.12-.32.33-.59.65-.79.31-.2.66-.3,1.06-.3.07,0,.17,0,.28,0,.11,0,.2,0,.25.01v1.02s-.11-.02-.23-.04-.25-.03-.38-.03c-.32,0-.6.07-.85.2-.25.13-.44.31-.59.54s-.22.5-.22.79v4.14h-1Z"/><path class="j" d="m112.82,12.29c-.2,0-.36-.07-.5-.2-.14-.13-.21-.29-.21-.48s.07-.35.21-.48.31-.2.5-.2.36.07.5.2.21.29.21.48-.07.35-.21.48c-.14.13-.31.2-.5.2Zm-.51,7.64v-6.55h1v6.55h-1Z"/><path class="j" d="m117.18,20.07c-.63,0-1.17-.14-1.63-.42-.46-.28-.81-.67-1.05-1.18-.25-.5-.37-1.09-.37-1.76s.12-1.26.37-1.77c.25-.51.59-.91,1.03-1.2.44-.29.96-.43,1.55-.43.34,0,.68.06,1.01.17.33.11.63.3.91.55.27.25.49.59.65,1.01.16.42.24.93.24,1.54v.43h-5.05v-.87h4.02c0-.37-.07-.7-.22-.99-.15-.29-.35-.52-.62-.69-.27-.17-.58-.25-.95-.25-.4,0-.75.1-1.04.3-.29.2-.51.45-.67.77s-.23.65-.23,1.01v.58c0,.49.09.91.26,1.25.17.34.41.6.72.78.31.18.66.27,1.07.27.26,0,.5-.04.72-.11s.4-.19.56-.34c.16-.15.28-.34.36-.57l.97.27c-.1.33-.27.62-.52.87-.24.25-.54.44-.89.58s-.75.21-1.2.21Z"/><path class="j" d="m125.34,14.85l-.9.25c-.06-.15-.14-.3-.25-.44s-.26-.26-.45-.36-.43-.14-.72-.14c-.4,0-.73.09-1,.28-.27.18-.4.42-.4.7,0,.25.09.45.27.59.18.14.47.27.85.36l.97.24c.58.14,1.02.36,1.31.65.29.29.43.67.43,1.12,0,.38-.11.71-.32,1.01-.21.3-.51.53-.9.7-.38.17-.83.26-1.34.26-.67,0-1.22-.15-1.66-.43-.44-.29-.71-.71-.83-1.27l.95-.24c.09.35.26.62.52.79.25.18.59.26,1,.26.47,0,.84-.1,1.12-.3.28-.2.42-.44.42-.72,0-.23-.08-.42-.24-.57-.16-.16-.4-.27-.73-.35l-1.09-.26c-.6-.14-1.04-.36-1.32-.66-.28-.3-.42-.68-.42-1.13,0-.37.1-.7.31-.98s.49-.51.86-.67.77-.24,1.23-.24c.65,0,1.16.14,1.53.43.37.28.63.66.79,1.12Z"/></g><rect class="g" x="32.22" y="31.86" width="56.51" height="52.4" rx="3.11" ry="3.11"/><g><path class="l" d="m45.16,49.11c-.03-.29-.15-.52-.37-.68-.22-.16-.52-.24-.89-.24-.25,0-.47.04-.64.11-.18.07-.31.17-.4.29-.09.12-.14.27-.14.42,0,.13.02.25.08.35.06.1.15.18.25.25.11.07.23.13.37.18.14.05.29.1.45.13l.66.16c.32.07.62.17.89.29.27.12.5.27.7.44.2.18.35.38.46.62s.17.51.17.82c0,.45-.12.84-.34,1.17-.23.33-.55.59-.98.77s-.94.27-1.54.27-1.11-.09-1.55-.27c-.44-.18-.78-.45-1.03-.81s-.38-.8-.39-1.33h1.51c.02.25.09.45.21.62.13.16.3.29.51.37.21.08.45.12.72.12s.49-.04.69-.12c.2-.08.35-.18.46-.32.11-.14.16-.29.16-.47,0-.17-.05-.31-.15-.42s-.24-.21-.42-.29c-.19-.08-.41-.15-.68-.22l-.8-.2c-.62-.15-1.11-.39-1.47-.71-.36-.32-.54-.75-.54-1.3,0-.45.12-.84.36-1.17.24-.33.57-.59,1-.78.42-.19.9-.28,1.44-.28s1.03.09,1.44.28c.41.19.73.45.96.78.23.33.35.72.35,1.16h-1.49Z"/><path class="l" d="m48.74,54.47c-.35,0-.67-.06-.94-.19s-.49-.31-.65-.55-.24-.55-.24-.91c0-.31.06-.57.17-.77.11-.21.27-.38.46-.5.19-.13.42-.22.66-.29.25-.06.51-.11.78-.14.32-.03.58-.07.78-.1.2-.03.34-.08.43-.14.09-.06.13-.15.13-.27v-.02c0-.23-.07-.4-.21-.53-.14-.12-.35-.19-.61-.19-.28,0-.5.06-.66.18-.16.12-.27.27-.32.46l-1.42-.12c.07-.34.21-.63.42-.87.21-.25.48-.44.82-.57.33-.13.72-.2,1.17-.2.31,0,.6.04.88.11.28.07.53.18.75.33.22.15.39.35.52.58.13.24.19.52.19.85v3.73h-1.46v-.77h-.04c-.09.17-.21.32-.36.46s-.33.23-.54.31-.45.11-.72.11Zm.44-1.06c.23,0,.43-.04.6-.13.17-.09.31-.21.41-.37.1-.15.15-.33.15-.52v-.59s-.11.06-.2.08c-.08.02-.18.05-.28.07s-.21.04-.31.05c-.1.02-.2.03-.28.04-.18.03-.34.07-.47.13-.13.06-.24.13-.31.23-.07.1-.11.22-.11.36,0,.21.08.37.23.48s.35.16.58.16Z"/><path class="l" d="m53.98,51.17v3.2h-1.53v-5.53h1.46v.98h.06c.12-.32.33-.58.62-.77.29-.19.64-.28,1.05-.28.38,0,.72.08,1,.25.29.17.51.41.67.72.16.31.24.68.24,1.11v3.52h-1.53v-3.25c0-.34-.08-.6-.26-.79s-.42-.29-.72-.29c-.21,0-.39.04-.55.13s-.28.22-.37.39c-.09.17-.13.37-.14.61Z"/><path class="l" d="m60.18,54.45c-.42,0-.8-.11-1.14-.33s-.61-.54-.81-.96c-.2-.42-.3-.94-.3-1.56s.1-1.16.31-1.58.48-.74.82-.95c.34-.21.71-.32,1.12-.32.31,0,.57.05.78.16.21.1.38.23.5.39s.23.31.29.46h.05v-2.77h1.53v7.38h-1.51v-.89h-.06c-.07.15-.17.31-.3.46-.13.15-.3.27-.51.37s-.46.15-.76.15Zm.49-1.22c.25,0,.46-.07.63-.2.17-.14.3-.33.4-.57.09-.24.14-.53.14-.86s-.05-.61-.14-.86c-.09-.24-.22-.43-.4-.56-.17-.13-.38-.2-.63-.2s-.46.07-.64.21-.3.33-.39.57c-.09.24-.13.52-.13.84s.04.61.14.85c.09.25.22.44.39.58.17.14.38.21.64.21Z"/><path class="l" d="m64,54.36v-7.38h1.53v2.77h.05c.07-.15.17-.3.29-.46s.3-.28.5-.39c.21-.1.47-.16.78-.16.4,0,.78.1,1.12.32.34.21.61.53.82.95s.31.95.31,1.58-.1,1.14-.3,1.56c-.2.42-.47.74-.81.96s-.72.33-1.14.33c-.3,0-.55-.05-.76-.15s-.38-.22-.51-.37c-.13-.15-.23-.3-.3-.46h-.07v.89h-1.51Zm1.5-2.77c0,.33.05.62.14.86.09.25.22.44.4.57.17.14.38.2.63.2s.46-.07.63-.21.3-.33.39-.58c.09-.25.13-.53.13-.85s-.04-.6-.13-.84c-.09-.24-.22-.43-.39-.57-.17-.14-.39-.21-.64-.21s-.46.07-.63.2c-.17.13-.3.32-.39.56s-.14.53-.14.86Z"/><path class="l" d="m72.31,54.47c-.56,0-1.04-.12-1.45-.36-.41-.24-.72-.57-.94-1-.22-.43-.33-.93-.33-1.49s.11-1.07.33-1.5c.22-.43.53-.76.94-1,.41-.24.89-.36,1.45-.36s1.04.12,1.45.36c.41.24.72.57.94,1,.22.43.33.93.33,1.5s-.11,1.06-.33,1.49c-.22.43-.53.76-.94,1-.41.24-.89.36-1.45.36Zm0-1.19c.25,0,.47-.07.64-.22.17-.15.3-.34.39-.6.09-.25.13-.54.13-.86s-.04-.61-.13-.86c-.09-.25-.22-.45-.39-.6s-.38-.22-.64-.22-.47.07-.65.22c-.17.15-.3.35-.39.6-.09.25-.13.54-.13.86s.04.61.13.86c.09.25.22.45.39.6.17.15.39.22.65.22Z"/><path class="l" d="m76.5,48.83l1.02,1.93,1.04-1.93h1.57l-1.6,2.77,1.65,2.77h-1.57l-1.09-1.91-1.07,1.91h-1.58l1.64-2.77-1.58-2.77h1.58Z"/><path class="l" d="m39.22,66.53h-2.61v-7.38h2.64c.74,0,1.38.15,1.92.44.54.29.95.72,1.24,1.27.29.55.43,1.21.43,1.97s-.14,1.43-.43,1.98c-.29.55-.7.98-1.24,1.27s-1.18.44-1.93.44Zm-1.06-1.34h.99c.46,0,.85-.08,1.17-.25.32-.16.55-.42.71-.77.16-.35.24-.8.24-1.35s-.08-.99-.24-1.34-.4-.6-.71-.76c-.31-.16-.7-.24-1.16-.24h-.99v4.7Z"/><path class="l" d="m45.86,66.64c-.57,0-1.06-.12-1.47-.35-.41-.23-.72-.56-.95-.99-.22-.43-.33-.93-.33-1.51s.11-1.07.33-1.5c.22-.43.53-.76.93-1,.4-.24.87-.36,1.42-.36.36,0,.71.06,1.02.17.32.12.59.29.83.52s.42.53.55.88c.13.35.2.76.2,1.23v.42h-4.67v-.95h3.23c0-.22-.05-.42-.14-.59s-.23-.3-.4-.4c-.17-.1-.37-.15-.59-.15s-.44.05-.62.16c-.18.11-.32.25-.42.43-.1.18-.15.38-.15.6v.9c0,.27.05.51.15.71s.25.35.43.46c.19.11.41.16.67.16.17,0,.33-.02.47-.07.14-.05.26-.12.36-.22.1-.1.18-.21.23-.35l1.42.09c-.07.34-.22.64-.44.89s-.51.45-.86.59c-.35.14-.75.21-1.21.21Z"/><path class="l" d="m51.77,61v1.15h-3.41v-1.15h3.41Zm-2.63,5.53v-5.93c0-.4.08-.73.24-1s.37-.46.65-.59c.27-.13.58-.2.93-.2.24,0,.45.02.65.05s.34.07.44.1l-.27,1.15c-.06-.02-.13-.04-.22-.05-.09-.02-.18-.03-.27-.03-.23,0-.38.05-.47.16s-.13.25-.13.44v5.9h-1.53Z"/><path class="l" d="m52.87,60.29c-.23,0-.42-.08-.58-.23s-.24-.34-.24-.55.08-.39.24-.55.36-.23.58-.23.42.08.59.23.24.33.24.55-.08.4-.24.55-.36.23-.59.23Zm-.77,6.25v-5.53h1.53v5.53h-1.53Z"/><path class="l" d="m55.78,63.34v3.2h-1.53v-5.53h1.46v.98h.06c.12-.32.33-.58.62-.77.29-.19.64-.28,1.05-.28.38,0,.72.08,1,.25.29.17.51.41.67.72.16.31.24.68.24,1.11v3.52h-1.53v-3.25c0-.34-.08-.6-.26-.79s-.42-.29-.72-.29c-.21,0-.39.04-.55.13s-.28.22-.37.39c-.09.17-.13.37-.14.61Z"/><path class="l" d="m60.72,60.29c-.23,0-.42-.08-.58-.23s-.24-.34-.24-.55.08-.39.24-.55.36-.23.58-.23.42.08.59.23.24.33.24.55-.08.4-.24.55-.36.23-.59.23Zm-.77,6.25v-5.53h1.53v5.53h-1.53Z"/><path class="l" d="m65.04,61v1.15h-3.33v-1.15h3.33Zm-2.58-1.33h1.53v5.16c0,.14.02.25.06.33.04.08.1.13.18.16.08.03.17.05.27.05.07,0,.14,0,.22-.02.07-.01.13-.02.17-.03l.24,1.14c-.08.02-.18.05-.32.08-.14.03-.31.05-.51.06-.37.01-.69-.03-.97-.15-.28-.11-.49-.29-.65-.53-.15-.24-.23-.54-.23-.9v-5.36Z"/><path class="l" d="m66.2,60.29c-.23,0-.42-.08-.58-.23s-.24-.34-.24-.55.08-.39.24-.55.36-.23.58-.23.42.08.59.23.24.33.24.55-.08.4-.24.55-.36.23-.59.23Zm-.77,6.25v-5.53h1.53v5.53h-1.53Z"/><path class="l" d="m70.08,66.64c-.56,0-1.04-.12-1.45-.36-.41-.24-.72-.57-.94-1-.22-.43-.33-.93-.33-1.49s.11-1.07.33-1.5c.22-.43.53-.76.94-1,.41-.24.89-.36,1.45-.36s1.04.12,1.45.36c.41.24.72.57.94,1,.22.43.33.93.33,1.5s-.11,1.06-.33,1.49c-.22.43-.53.76-.94,1-.41.24-.89.36-1.45.36Zm0-1.19c.25,0,.47-.07.64-.22.17-.15.3-.34.39-.6.09-.25.13-.54.13-.86s-.04-.61-.13-.86c-.09-.25-.22-.45-.39-.6s-.38-.22-.64-.22-.47.07-.65.22c-.17.15-.3.35-.39.6-.09.25-.13.54-.13.86s.04.61.13.86c.09.25.22.45.39.6.17.15.39.22.65.22Z"/><path class="l" d="m74.73,63.34v3.2h-1.53v-5.53h1.46v.98h.06c.12-.32.33-.58.62-.77.29-.19.64-.28,1.05-.28.38,0,.72.08,1,.25.29.17.51.41.67.72.16.31.24.68.24,1.11v3.52h-1.53v-3.25c0-.34-.08-.6-.26-.79s-.42-.29-.72-.29c-.21,0-.39.04-.55.13s-.28.22-.37.39c-.09.17-.13.37-.14.61Z"/><path class="l" d="m83.83,59.16v7.38h-1.56v-5.9h-.04l-1.69,1.06v-1.38l1.83-1.16h1.47Z"/></g><rect class="g" x="108.74" y="31.86" width="56.51" height="52.4" rx="3.11" ry="3.11"/><g><path class="l" d="m121.68,49.11c-.03-.29-.15-.52-.37-.68-.22-.16-.52-.24-.89-.24-.25,0-.47.04-.64.11-.18.07-.31.17-.4.29-.09.12-.14.27-.14.42,0,.13.02.25.08.35.06.1.15.18.25.25.11.07.23.13.37.18.14.05.29.1.45.13l.66.16c.32.07.62.17.89.29.27.12.5.27.7.44.2.18.35.38.46.62s.17.51.17.82c0,.45-.12.84-.34,1.17-.23.33-.55.59-.98.77s-.94.27-1.54.27-1.11-.09-1.55-.27c-.44-.18-.78-.45-1.03-.81s-.38-.8-.39-1.33h1.51c.02.25.09.45.21.62.13.16.3.29.51.37.21.08.45.12.72.12s.49-.04.69-.12c.2-.08.35-.18.46-.32.11-.14.16-.29.16-.47,0-.17-.05-.31-.15-.42s-.24-.21-.42-.29c-.19-.08-.41-.15-.68-.22l-.8-.2c-.62-.15-1.11-.39-1.47-.71-.36-.32-.54-.75-.54-1.3,0-.45.12-.84.36-1.17.24-.33.57-.59,1-.78.42-.19.9-.28,1.44-.28s1.03.09,1.44.28c.41.19.73.45.96.78.23.33.35.72.35,1.16h-1.49Z"/><path class="l" d="m125.26,54.47c-.35,0-.67-.06-.94-.19s-.49-.31-.65-.55-.24-.55-.24-.91c0-.31.06-.57.17-.77.11-.21.27-.38.46-.5.19-.13.42-.22.66-.29.25-.06.51-.11.78-.14.32-.03.58-.07.78-.1.2-.03.34-.08.43-.14.09-.06.13-.15.13-.27v-.02c0-.23-.07-.4-.21-.53-.14-.12-.35-.19-.61-.19-.28,0-.5.06-.66.18-.16.12-.27.27-.32.46l-1.42-.12c.07-.34.21-.63.42-.87.21-.25.48-.44.82-.57.33-.13.72-.2,1.17-.2.31,0,.6.04.88.11.28.07.53.18.75.33.22.15.39.35.52.58.13.24.19.52.19.85v3.73h-1.46v-.77h-.04c-.09.17-.21.32-.36.46s-.33.23-.54.31-.45.11-.72.11Zm.44-1.06c.23,0,.43-.04.6-.13.17-.09.31-.21.41-.37.1-.15.15-.33.15-.52v-.59s-.11.06-.2.08c-.08.02-.18.05-.28.07s-.21.04-.31.05c-.1.02-.2.03-.28.04-.18.03-.34.07-.47.13-.13.06-.24.13-.31.23-.07.1-.11.22-.11.36,0,.21.08.37.23.48s.35.16.58.16Z"/><path class="l" d="m130.49,51.17v3.2h-1.53v-5.53h1.46v.98h.06c.12-.32.33-.58.62-.77.29-.19.64-.28,1.05-.28.38,0,.72.08,1,.25.29.17.51.41.67.72.16.31.24.68.24,1.11v3.52h-1.53v-3.25c0-.34-.08-.6-.26-.79s-.42-.29-.72-.29c-.21,0-.39.04-.55.13s-.28.22-.37.39c-.09.17-.13.37-.14.61Z"/><path class="l" d="m136.7,54.45c-.42,0-.8-.11-1.14-.33s-.61-.54-.81-.96c-.2-.42-.3-.94-.3-1.56s.1-1.16.31-1.58.48-.74.82-.95c.34-.21.71-.32,1.12-.32.31,0,.57.05.78.16.21.1.38.23.5.39s.23.31.29.46h.05v-2.77h1.53v7.38h-1.51v-.89h-.06c-.07.15-.17.31-.3.46-.13.15-.3.27-.51.37s-.46.15-.76.15Zm.49-1.22c.25,0,.46-.07.63-.2.17-.14.3-.33.4-.57.09-.24.14-.53.14-.86s-.05-.61-.14-.86c-.09-.24-.22-.43-.4-.56-.17-.13-.38-.2-.63-.2s-.46.07-.64.21-.3.33-.39.57c-.09.24-.13.52-.13.84s.04.61.14.85c.09.25.22.44.39.58.17.14.38.21.64.21Z"/><path class="l" d="m140.52,54.36v-7.38h1.53v2.77h.05c.07-.15.17-.3.29-.46s.3-.28.5-.39c.21-.1.47-.16.78-.16.4,0,.78.1,1.12.32.34.21.61.53.82.95s.31.95.31,1.58-.1,1.14-.3,1.56c-.2.42-.47.74-.81.96s-.72.33-1.14.33c-.3,0-.55-.05-.76-.15s-.38-.22-.51-.37c-.13-.15-.23-.3-.3-.46h-.07v.89h-1.51Zm1.5-2.77c0,.33.05.62.14.86.09.25.22.44.4.57.17.14.38.2.63.2s.46-.07.63-.21.3-.33.39-.58c.09-.25.13-.53.13-.85s-.04-.6-.13-.84c-.09-.24-.22-.43-.39-.57-.17-.14-.39-.21-.64-.21s-.46.07-.63.2c-.17.13-.3.32-.39.56s-.14.53-.14.86Z"/><path class="l" d="m148.83,54.47c-.56,0-1.04-.12-1.45-.36-.41-.24-.72-.57-.94-1-.22-.43-.33-.93-.33-1.49s.11-1.07.33-1.5c.22-.43.53-.76.94-1,.41-.24.89-.36,1.45-.36s1.04.12,1.45.36c.41.24.72.57.94,1,.22.43.33.93.33,1.5s-.11,1.06-.33,1.49c-.22.43-.53.76-.94,1-.41.24-.89.36-1.45.36Zm0-1.19c.25,0,.47-.07.64-.22.17-.15.3-.34.39-.6.09-.25.13-.54.13-.86s-.04-.61-.13-.86c-.09-.25-.22-.45-.39-.6s-.38-.22-.64-.22-.47.07-.65.22c-.17.15-.3.35-.39.6-.09.25-.13.54-.13.86s.04.61.13.86c.09.25.22.45.39.6.17.15.39.22.65.22Z"/><path class="l" d="m153.02,48.83l1.02,1.93,1.04-1.93h1.57l-1.6,2.77,1.65,2.77h-1.57l-1.09-1.91-1.07,1.91h-1.58l1.64-2.77-1.58-2.77h1.58Z"/><path class="l" d="m114.49,66.53h-2.61v-7.38h2.64c.74,0,1.38.15,1.92.44.54.29.95.72,1.24,1.27.29.55.43,1.21.43,1.97s-.14,1.43-.43,1.98c-.29.55-.7.98-1.24,1.27s-1.18.44-1.93.44Zm-1.06-1.34h.99c.46,0,.85-.08,1.17-.25.32-.16.55-.42.71-.77.16-.35.24-.8.24-1.35s-.08-.99-.24-1.34-.4-.6-.71-.76c-.31-.16-.7-.24-1.16-.24h-.99v4.7Z"/><path class="l" d="m121.13,66.64c-.57,0-1.06-.12-1.47-.35-.41-.23-.72-.56-.95-.99-.22-.43-.33-.93-.33-1.51s.11-1.07.33-1.5c.22-.43.53-.76.93-1,.4-.24.87-.36,1.42-.36.36,0,.71.06,1.02.17.32.12.59.29.83.52s.42.53.55.88c.13.35.2.76.2,1.23v.42h-4.67v-.95h3.23c0-.22-.05-.42-.14-.59s-.23-.3-.4-.4c-.17-.1-.37-.15-.59-.15s-.44.05-.62.16c-.18.11-.32.25-.42.43-.1.18-.15.38-.15.6v.9c0,.27.05.51.15.71s.25.35.43.46c.19.11.41.16.67.16.17,0,.33-.02.47-.07.14-.05.26-.12.36-.22.1-.1.18-.21.23-.35l1.42.09c-.07.34-.22.64-.44.89s-.51.45-.86.59c-.35.14-.75.21-1.21.21Z"/><path class="l" d="m127.04,61v1.15h-3.41v-1.15h3.41Zm-2.63,5.53v-5.93c0-.4.08-.73.24-1s.37-.46.65-.59c.27-.13.58-.2.93-.2.24,0,.45.02.65.05s.34.07.44.1l-.27,1.15c-.06-.02-.13-.04-.22-.05-.09-.02-.18-.03-.27-.03-.23,0-.38.05-.47.16s-.13.25-.13.44v5.9h-1.53Z"/><path class="l" d="m128.14,60.29c-.23,0-.42-.08-.58-.23s-.24-.34-.24-.55.08-.39.24-.55.36-.23.58-.23.42.08.59.23.24.33.24.55-.08.4-.24.55-.36.23-.59.23Zm-.77,6.25v-5.53h1.53v5.53h-1.53Z"/><path class="l" d="m131.05,63.34v3.2h-1.53v-5.53h1.46v.98h.06c.12-.32.33-.58.62-.77.29-.19.64-.28,1.05-.28.38,0,.72.08,1,.25.29.17.51.41.67.72.16.31.24.68.24,1.11v3.52h-1.53v-3.25c0-.34-.08-.6-.26-.79s-.42-.29-.72-.29c-.21,0-.39.04-.55.13s-.28.22-.37.39c-.09.17-.13.37-.14.61Z"/><path class="l" d="m135.99,60.29c-.23,0-.42-.08-.58-.23s-.24-.34-.24-.55.08-.39.24-.55.36-.23.58-.23.42.08.59.23.24.33.24.55-.08.4-.24.55-.36.23-.59.23Zm-.77,6.25v-5.53h1.53v5.53h-1.53Z"/><path class="l" d="m140.31,61v1.15h-3.33v-1.15h3.33Zm-2.58-1.33h1.53v5.16c0,.14.02.25.06.33.04.08.1.13.18.16.08.03.17.05.27.05.07,0,.14,0,.22-.02.07-.01.13-.02.17-.03l.24,1.14c-.08.02-.18.05-.32.08-.14.03-.31.05-.51.06-.37.01-.69-.03-.97-.15-.28-.11-.49-.29-.65-.53-.15-.24-.23-.54-.23-.9v-5.36Z"/><path class="l" d="m141.47,60.29c-.23,0-.42-.08-.58-.23s-.24-.34-.24-.55.08-.39.24-.55.36-.23.58-.23.42.08.59.23.24.33.24.55-.08.4-.24.55-.36.23-.59.23Zm-.77,6.25v-5.53h1.53v5.53h-1.53Z"/><path class="l" d="m145.35,66.64c-.56,0-1.04-.12-1.45-.36-.41-.24-.72-.57-.94-1-.22-.43-.33-.93-.33-1.49s.11-1.07.33-1.5c.22-.43.53-.76.94-1,.41-.24.89-.36,1.45-.36s1.04.12,1.45.36c.41.24.72.57.94,1,.22.43.33.93.33,1.5s-.11,1.06-.33,1.49c-.22.43-.53.76-.94,1-.41.24-.89.36-1.45.36Zm0-1.19c.25,0,.47-.07.64-.22.17-.15.3-.34.39-.6.09-.25.13-.54.13-.86s-.04-.61-.13-.86c-.09-.25-.22-.45-.39-.6s-.38-.22-.64-.22-.47.07-.65.22c-.17.15-.3.35-.39.6-.09.25-.13.54-.13.86s.04.61.13.86c.09.25.22.45.39.6.17.15.39.22.65.22Z"/><path class="l" d="m150,63.34v3.2h-1.53v-5.53h1.46v.98h.06c.12-.32.33-.58.62-.77.29-.19.64-.28,1.05-.28.38,0,.72.08,1,.25.29.17.51.41.67.72.16.31.24.68.24,1.11v3.52h-1.53v-3.25c0-.34-.08-.6-.26-.79s-.42-.29-.72-.29c-.21,0-.39.04-.55.13s-.28.22-.37.39c-.09.17-.13.37-.14.61Z"/><path class="l" d="m162.1,59.16v7.38h-1.35l-3.21-4.64h-.05v4.64h-1.56v-7.38h1.37l3.18,4.64h.06v-4.64h1.55Z"/></g><g><path class="l" d="m95.91,58.14c-.25,0-.46-.09-.63-.26s-.26-.39-.26-.63.09-.46.26-.63c.18-.18.39-.26.63-.26s.46.09.63.26c.18.18.26.39.26.63,0,.16-.04.31-.12.45-.08.14-.19.24-.32.33-.13.08-.28.12-.45.12Z"/><path class="l" d="m98.93,58.14c-.25,0-.46-.09-.63-.26s-.26-.39-.26-.63.09-.46.26-.63c.18-.18.39-.26.63-.26s.46.09.63.26c.18.18.26.39.26.63,0,.16-.04.31-.12.45-.08.14-.19.24-.32.33-.13.08-.28.12-.45.12Z"/><path class="l" d="m101.95,58.14c-.25,0-.46-.09-.63-.26s-.26-.39-.26-.63.09-.46.26-.63c.18-.18.39-.26.63-.26s.46.09.63.26c.18.18.26.39.26.63,0,.16-.04.31-.12.45-.08.14-.19.24-.32.33-.13.08-.28.12-.45.12Z"/></g><g><line class="b" x1="277.63" y1="48.93" x2="197.15" y2="48.93"/><polygon class="l" points="190.09 48.93 200.03 44.86 197.67 48.93 200.03 52.99 190.09 48.93"/></g><g><line class="b" x1="278.23" y1="84.22" x2="238.79" y2="115.18"/><polygon class="l" points="283.78 79.86 273.45 82.81 277.81 84.55 278.47 89.2 283.78 79.86"/><polygon class="l" points="233.24 119.54 238.55 110.2 239.21 114.85 243.57 116.59 233.24 119.54"/></g><g><line class="i" x1="312.48" y1="100.72" x2="312.48" y2="224.19"/><polygon class="l" points="312.48 93.49 308.32 103.67 312.48 101.26 316.64 103.67 312.48 93.49"/><polygon class="l" points="312.48 231.41 308.32 221.23 312.48 223.65 316.64 221.23 312.48 231.41"/></g><g><line class="b" x1="300.02" y1="231.41" x2="239" y2="186.91"/><polygon class="l" points="233.3 182.75 243.73 185.32 239.43 187.22 238.94 191.89 233.3 182.75"/></g><g><line class="i" x1="142.05" y1="228.58" x2="181.98" y2="187.9"/><polygon class="l" points="136.99 233.74 147.09 229.38 142.43 228.19 141.15 223.56 136.99 233.74"/><polygon class="l" points="187.04 182.75 182.88 192.93 181.6 188.29 176.94 187.1 187.04 182.75"/></g><g><line class="b" x1="184.13" y1="119.54" x2="129.63" y2="99.91"/><polygon class="l" points="122.99 97.52 133.72 97.06 130.13 100.09 130.97 104.71 122.99 97.52"/></g></svg>