<?xml version="1.0" encoding="UTF-8"?><svg id="a" xmlns="http://www.w3.org/2000/svg" viewBox="0 0 328 446.78"><defs><style>.b,.c,.d,.e,.f,.g,.h{fill:none;stroke-miterlimit:10;}.b,.c,.f,.g,.h{stroke:#231f20;}.c{stroke-width:.61px;}.i,.j{fill:#405daa;}.d{stroke:#405daa;}.d,.g{stroke-width:.63px;}.e{stroke:#3c5daa;stroke-dasharray:0 0 1.41 1.41;stroke-width:.53px;}.f{stroke-width:.49px;}.h{stroke-width:.47px;}.j{fill-rule:evenodd;}.k{fill:#231f20;}</style></defs><path class="j" d="m54.97,18.69c0-.26-.21-.47-.47-.47h-6.91c-1.77.06-3.33,1.51-3.5,3.28l-1.22,12.08v.11c-.09,1.5,1.23,2.83,3.03,3.58l.09.04.38,15.56v.06c.04.23.24.41.48.41.26,0,.47-.22.46-.48l-.39-15.88v-.06c-.03-.17-.15-.32-.31-.38-1.68-.61-2.91-1.76-2.8-2.86l1.22-12.08v-.1c.2-1.28,1.38-2.32,2.68-2.32h6.85c.24-.03.42-.23.42-.47Zm-.11-8.29c0-1.98-1.6-3.58-3.58-3.58s-3.58,1.6-3.58,3.58,1.6,3.58,3.58,3.58,3.58-1.6,3.58-3.58Zm-8.12,0c0-2.5,2.03-4.53,4.53-4.53s4.53,2.03,4.53,4.53-2.03,4.53-4.53,4.53-4.53-2.03-4.53-4.53Zm42.68,10.98c-.24-1.76-1.83-3.16-3.61-3.16h-6.85c-.24.03-.42.23-.42.47,0,.26.21.47.47.47h6.9c1.29.06,2.44,1.13,2.57,2.42l1.22,12.08v.09c.04,1.07-1.17,2.18-2.8,2.77-.18.07-.31.24-.31.43l-.38,15.88v.06c.02.24.22.42.46.43h.06c.24-.02.42-.22.43-.46l.38-15.56.09-.04c1.84-.77,3.19-2.15,3.03-3.69l-1.22-12.08v-.12Zm-3.61-10.98c0-1.98-1.6-3.58-3.58-3.58s-3.58,1.6-3.58,3.58,1.6,3.58,3.58,3.58,3.58-1.6,3.58-3.58Zm-8.12,0c0-2.5,2.03-4.53,4.53-4.53s4.53,2.03,4.53,4.53-2.03,4.53-4.53,4.53-4.53-2.03-4.53-4.53Zm-2.92,7.02c-.26-1.95-2.03-3.52-4-3.52h-8.18c-1.97.07-3.7,1.67-3.9,3.64l-1.37,13.61v.11c-.11,1.67,1.38,3.15,3.41,3.99l.11.04.43,17.57v.06c.04.23.24.41.48.41.26,0,.47-.22.46-.48l-.43-17.89v-.06c-.03-.17-.15-.32-.31-.38-1.91-.69-3.32-2.01-3.2-3.28l1.37-13.61v-.11c.22-1.47,1.58-2.68,3.08-2.68h8.16c1.49.06,2.82,1.3,2.97,2.78l1.37,13.61v.09c.06,1.24-1.33,2.52-3.2,3.19-.18.07-.31.24-.31.43l-.44,17.89v.06c.02.24.22.42.46.43h.06c.24-.02.42-.22.43-.46l.43-17.57.11-.04c2.07-.86,3.58-2.39,3.41-4.11l-1.37-13.61v-.12ZM66.77,1.23c2.26,0,4.1,1.83,4.1,4.1s-1.83,4.1-4.1,4.1-4.1-1.83-4.1-4.1,1.83-4.1,4.1-4.1Zm0-.95c-2.79,0-5.04,2.26-5.04,5.04s2.26,5.04,5.04,5.04,5.04-2.26,5.04-5.04-2.26-5.04-5.04-5.04Z"/><path class="j" d="m256.23,18.41c0-.26-.21-.47-.47-.47h-6.91c-1.77.06-3.33,1.51-3.5,3.28l-1.22,12.08v.11c-.09,1.5,1.23,2.83,3.03,3.58l.09.04.38,15.56v.06c.04.23.24.41.48.41.26,0,.47-.22.46-.48l-.39-15.88v-.06c-.03-.17-.15-.32-.31-.38-1.68-.61-2.91-1.76-2.8-2.86l1.22-12.08v-.1c.2-1.28,1.38-2.32,2.68-2.32h6.85c.24-.03.42-.23.42-.47Zm-.11-8.29c0-1.98-1.6-3.58-3.58-3.58s-3.58,1.6-3.58,3.58,1.6,3.58,3.58,3.58,3.58-1.6,3.58-3.58Zm-8.12,0c0-2.5,2.03-4.53,4.53-4.53s4.53,2.03,4.53,4.53-2.03,4.53-4.53,4.53-4.53-2.03-4.53-4.53Zm42.68,10.98c-.24-1.76-1.83-3.16-3.61-3.16h-6.85c-.24.03-.42.23-.42.47,0,.26.21.47.47.47h6.9c1.29.06,2.44,1.13,2.57,2.42l1.22,12.08v.09c.04,1.07-1.17,2.18-2.8,2.77-.18.07-.31.24-.31.43l-.38,15.88v.06c.02.24.22.42.46.43h.06c.24-.02.42-.22.43-.46l.38-15.56.09-.04c1.84-.77,3.19-2.15,3.03-3.69l-1.22-12.08v-.12Zm-3.61-10.98c0-1.98-1.6-3.58-3.58-3.58s-3.58,1.6-3.58,3.58,1.6,3.58,3.58,3.58,3.58-1.6,3.58-3.58Zm-8.12,0c0-2.5,2.03-4.53,4.53-4.53s4.53,2.03,4.53,4.53-2.03,4.53-4.53,4.53-4.53-2.03-4.53-4.53Zm-2.92,7.02c-.26-1.95-2.03-3.52-4-3.52h-8.18c-1.97.07-3.7,1.67-3.9,3.64l-1.37,13.61v.11c-.11,1.67,1.38,3.15,3.41,3.99l.11.04.43,17.57v.06c.04.23.24.41.48.41.26,0,.47-.22.46-.48l-.43-17.89v-.06c-.03-.17-.15-.32-.31-.38-1.91-.69-3.32-2.01-3.2-3.28l1.37-13.61v-.11c.22-1.47,1.58-2.68,3.08-2.68h8.16c1.49.06,2.82,1.3,2.97,2.78l1.37,13.61v.09c.06,1.24-1.33,2.52-3.2,3.19-.18.07-.31.24-.31.43l-.44,17.89v.06c.02.24.22.42.46.43h.06c.24-.02.42-.22.43-.46l.43-17.57.11-.04c2.07-.86,3.58-2.39,3.41-4.11l-1.37-13.61v-.12Zm-8.05-16.18c2.26,0,4.1,1.83,4.1,4.1s-1.83,4.1-4.1,4.1-4.1-1.83-4.1-4.1,1.83-4.1,4.1-4.1Zm0-.95c-2.79,0-5.04,2.26-5.04,5.04s2.26,5.04,5.04,5.04,5.04-2.26,5.04-5.04-2.26-5.04-5.04-5.04Z"/><rect class="e" x="16.11" y="81" width="302.57" height="261.41" rx="28.36" ry="28.36"/><g><path class="k" d="m80.49,403.32v-.2c0-.26.2-.47.45-.47,10.08-.03,17.46-.2,20.58-.3,2.94-.1,5.94-.42,7.62-3.12.51-.83.9-2.46.9-3.37,0-3.88-3.06-7.13-6.82-7.24-.2,0-.39-.09-.52-.25-.14-.15-.21-.35-.2-.56.01-.42.02-1.47-.15-2.28-1.01-4.74-5.17-8.02-9.67-7.62-1.15.1-2.43.54-2.93.73-.21.08-.45.06-.65-.05-.2-.12-.35-.32-.4-.55-1.21-5.34-5.2-8.66-10.4-8.66s-9.25,4.58-10.43,9.02c-.05.17-.13.33-.27.45-.27.23-.62.26-.91.09-.45-.27-1.69-.91-3.38-1.01-4.71-.28-8.87,2.98-9.68,7.6-.1.54-.07,1.64-.01,2.49.02.36-.2.68-.53.76-2.01.52-5.76,3.13-5.76,7.1v.23c0,.96-.02,2.27.92,3.7.96,1.47,2.53,2.4,4.29,2.57,3.22.3,8.58.3,23.16.3h.55c.25,0,.44.21.44.47v.2c0,.26-.2.47-.44.47h-.55c-14.61,0-19.99,0-23.26-.31-2.08-.19-3.93-1.31-5.08-3.05-1.13-1.73-1.12-3.37-1.11-4.35v-.22c0-4.09,3.54-7.25,6.27-8.11-.04-.67-.07-1.78.05-2.44.91-5.17,5.55-8.84,10.8-8.52,1.59.1,2.82.6,3.55.99,1.59-5.46,6.43-9.53,11.38-9.53,5.54,0,9.97,3.61,11.37,9.23.71-.25,1.85-.59,2.92-.69,5.04-.44,9.69,3.21,10.81,8.5.16.74.19,1.61.18,2.22,4.19.3,7.54,3.98,7.54,8.35,0,1.09-.43,2.96-1.07,3.99-1.96,3.16-5.41,3.53-8.48,3.63-3.13.1-10.51.28-20.61.3-.25,0-.45-.21-.45-.47Z"/><path class="k" d="m85.44,398.69c0,.2-.12.4-.32.52-.31.18-.73.09-.93-.2l-4.79-7.05-.07,22.18c0,.34-.31.62-.68.62h0c-.37,0-.67-.28-.67-.62l.07-22.18-4.94,6.97c-.2.29-.62.37-.93.18-.31-.19-.4-.57-.2-.85l6.19-8.75c.13-.18.34-.28.57-.28s.44.11.56.29l6.01,8.85c.07.1.1.22.1.33Z"/></g><g><path class="k" d="m58.73,424.19c0,.92-.17,1.72-.5,2.39-.33.67-.79,1.19-1.37,1.55-.58.36-1.24.54-1.99.54s-1.41-.18-1.99-.54c-.58-.36-1.04-.88-1.37-1.55-.33-.67-.5-1.47-.5-2.39s.17-1.72.5-2.39c.33-.67.79-1.19,1.37-1.55.58-.36,1.24-.55,1.99-.55s1.41.18,1.99.55c.58.36,1.04.88,1.37,1.55s.5,1.47.5,2.39Zm-1.02,0c0-.76-.12-1.39-.38-1.91-.25-.52-.59-.91-1.02-1.18-.43-.27-.91-.4-1.43-.4s-1.01.13-1.43.4c-.43.27-.77.66-1.02,1.18-.25.52-.38,1.16-.38,1.91s.13,1.39.38,1.91c.25.52.59.91,1.02,1.18.43.27.91.4,1.43.4s1.01-.13,1.43-.4c.43-.27.77-.66,1.02-1.18.25-.52.38-1.16.38-1.91Z"/><path class="k" d="m59.65,431v-9h.97v1.04h.12c.07-.11.18-.26.31-.44s.32-.34.57-.48c.25-.14.59-.21,1.01-.21.55,0,1.04.14,1.46.41.42.28.75.67.98,1.17.24.51.35,1.1.35,1.79s-.12,1.29-.35,1.8c-.24.51-.56.9-.98,1.18-.42.28-.9.42-1.44.42-.42,0-.76-.07-1.01-.21s-.45-.3-.58-.48c-.14-.18-.24-.33-.32-.45h-.09v3.46h-1Zm.99-5.73c0,.49.07.93.22,1.31.15.38.36.67.64.88.28.21.62.32,1.02.32s.77-.11,1.05-.33c.28-.22.5-.52.64-.9.14-.38.22-.8.22-1.27s-.07-.88-.21-1.25c-.14-.37-.35-.66-.63-.88-.28-.22-.64-.33-1.06-.33s-.75.1-1.03.31-.49.49-.63.86c-.14.37-.21.8-.21,1.29Z"/><path class="k" d="m68.98,428.69c-.63,0-1.17-.14-1.63-.42-.46-.28-.81-.67-1.05-1.18-.25-.5-.37-1.09-.37-1.76s.12-1.26.37-1.77c.25-.51.59-.91,1.03-1.2.44-.29.96-.43,1.55-.43.34,0,.68.06,1.01.17.33.11.63.3.91.55.27.25.49.59.65,1.01.16.42.24.93.24,1.54v.43h-5.05v-.87h4.02c0-.37-.07-.7-.22-.99-.15-.29-.35-.52-.62-.69-.27-.17-.58-.25-.95-.25-.4,0-.75.1-1.04.3-.29.2-.51.45-.67.77s-.23.65-.23,1.01v.58c0,.49.09.91.26,1.25.17.34.41.6.72.78.31.18.66.27,1.07.27.26,0,.5-.04.72-.11s.4-.19.56-.34c.16-.15.28-.34.36-.57l.97.27c-.1.33-.27.62-.52.87-.24.25-.54.44-.89.58s-.75.21-1.2.21Z"/><path class="k" d="m73.51,424.61v3.94h-1v-6.55h.97v1.02h.09c.15-.33.39-.6.7-.8s.72-.3,1.21-.3c.44,0,.83.09,1.16.27.33.18.59.45.78.82s.28.83.28,1.38v4.16h-1.01v-4.09c0-.51-.13-.92-.4-1.2-.27-.29-.63-.43-1.1-.43-.32,0-.61.07-.86.21-.25.14-.45.34-.59.61-.14.27-.22.59-.22.97Z"/><path class="k" d="m83.72,422c-.05-.43-.26-.77-.62-1-.36-.24-.81-.36-1.34-.36-.39,0-.72.06-1.01.19s-.51.3-.67.52c-.16.22-.24.47-.24.75,0,.23.06.43.17.6s.26.3.43.41.36.2.55.27.37.13.53.17l.89.24c.23.06.48.14.76.25.28.1.55.25.81.43.26.18.47.41.64.69.17.28.25.63.25,1.04,0,.47-.12.9-.37,1.28-.25.38-.6.68-1.07.91-.47.22-1.04.34-1.71.34-.62,0-1.17-.1-1.62-.3-.46-.2-.81-.48-1.07-.84-.26-.36-.41-.78-.44-1.26h1.09c.03.33.14.6.33.82.19.21.44.37.74.48.3.1.62.16.97.16.4,0,.77-.07,1.09-.2.32-.13.58-.32.76-.55.19-.24.28-.51.28-.83,0-.29-.08-.53-.24-.71s-.38-.33-.64-.44c-.26-.11-.55-.21-.86-.3l-1.07-.31c-.68-.2-1.22-.48-1.62-.84-.4-.36-.6-.84-.6-1.43,0-.49.13-.92.4-1.28.27-.37.62-.65,1.07-.85s.95-.3,1.51-.3,1.06.1,1.5.3.79.47,1.04.82.39.74.41,1.18h-1.02Z"/><path class="k" d="m88.59,422v.85h-3.39v-.85h3.39Zm-2.4-1.57h1.01v6.24c0,.28.04.5.13.64s.19.23.32.28c.13.05.27.07.42.07.11,0,.2,0,.27-.02.07-.01.13-.02.17-.03l.21.9c-.07.03-.16.05-.29.08-.12.03-.28.04-.46.04-.28,0-.56-.06-.83-.18-.27-.12-.5-.31-.67-.56s-.27-.57-.27-.95v-6.51Z"/><path class="k" d="m91.31,428.7c-.42,0-.79-.08-1.13-.24-.34-.16-.61-.39-.81-.69-.2-.3-.3-.66-.3-1.09,0-.38.07-.68.22-.91s.35-.42.59-.55c.25-.13.52-.23.82-.3.3-.07.6-.12.91-.16.4-.05.72-.09.97-.12.25-.03.43-.07.54-.14.12-.07.17-.18.17-.34v-.03c0-.42-.11-.75-.34-.98-.23-.23-.58-.35-1.04-.35s-.86.1-1.13.32c-.27.21-.46.43-.58.67l-.96-.34c.17-.4.4-.71.68-.93.29-.22.6-.38.94-.47.34-.09.67-.13,1-.13.21,0,.45.03.73.08.27.05.54.15.8.3.26.15.47.38.64.69.17.31.26.72.26,1.24v4.31h-1.01v-.89h-.05c-.07.14-.18.29-.34.46s-.37.3-.64.41c-.26.11-.59.17-.97.17Zm.15-.9c.4,0,.73-.08,1.01-.23s.48-.36.62-.61.21-.51.21-.78v-.92c-.04.05-.14.1-.28.14s-.31.08-.49.11c-.19.03-.37.06-.54.08s-.32.04-.42.05c-.26.03-.5.09-.73.16-.23.08-.41.19-.54.34s-.21.35-.21.61c0,.35.13.61.39.79.26.18.59.27.99.27Z"/><path class="k" d="m98.09,428.69c-.61,0-1.14-.15-1.58-.43-.44-.29-.78-.69-1.02-1.2-.24-.51-.36-1.09-.36-1.74s.12-1.25.37-1.76c.25-.51.59-.91,1.03-1.2.44-.29.96-.43,1.55-.43.46,0,.88.08,1.24.26s.67.41.91.72c.24.31.38.67.44,1.07h-1.01c-.08-.3-.25-.56-.51-.79s-.62-.35-1.06-.35c-.39,0-.73.1-1.03.3s-.52.49-.69.86c-.16.37-.25.8-.25,1.29s.08.95.24,1.32c.16.38.39.67.68.87s.64.31,1.04.31c.26,0,.5-.05.71-.14s.39-.22.54-.39c.15-.17.25-.38.32-.61h1.01c-.06.39-.2.73-.42,1.04-.22.31-.52.55-.88.73-.37.18-.79.27-1.27.27Z"/><path class="k" d="m101.41,428.55v-8.73h1v8.73h-1Zm.94-2.39l-.02-1.24h.21l2.86-2.92h1.24l-3.05,3.09h-.09l-1.16,1.07Zm3.22,2.39l-2.56-3.24.72-.7,3.12,3.94h-1.28Z"/><path class="k" d="m68.12,443.09c-.61,0-1.14-.15-1.58-.43-.44-.29-.78-.69-1.02-1.2-.24-.51-.36-1.09-.36-1.74s.12-1.25.37-1.76c.25-.51.59-.91,1.03-1.2.44-.29.96-.43,1.55-.43.46,0,.88.08,1.24.26s.67.41.91.72c.24.31.38.67.44,1.07h-1.01c-.08-.3-.25-.56-.51-.79s-.62-.35-1.06-.35c-.39,0-.73.1-1.03.3s-.52.49-.69.86c-.16.37-.25.8-.25,1.29s.08.95.24,1.32c.16.38.39.67.68.87s.64.31,1.04.31c.26,0,.5-.05.71-.14s.39-.22.54-.39c.15-.17.25-.38.32-.61h1.01c-.06.39-.2.73-.42,1.04-.22.31-.52.55-.88.73-.37.18-.79.27-1.27.27Z"/><path class="k" d="m72.45,434.22v8.73h-1v-8.73h1Z"/><path class="k" d="m76.23,443.09c-.59,0-1.11-.14-1.55-.42s-.79-.67-1.04-1.18c-.25-.51-.37-1.1-.37-1.77s.12-1.28.37-1.79c.25-.51.6-.9,1.04-1.18s.96-.42,1.55-.42,1.11.14,1.55.42.79.68,1.04,1.18c.25.51.37,1.1.37,1.79s-.12,1.27-.37,1.77c-.25.51-.6.9-1.04,1.18s-.96.42-1.55.42Zm0-.9c.45,0,.82-.12,1.11-.35s.5-.53.64-.91c.14-.38.21-.78.21-1.22s-.07-.85-.21-1.22c-.14-.38-.35-.68-.64-.92-.29-.23-.66-.35-1.11-.35s-.82.12-1.11.35c-.29.23-.5.54-.64.92-.14.38-.21.79-.21,1.22s.07.84.21,1.22c.14.38.35.68.64.91s.66.35,1.11.35Z"/><path class="k" d="m84.13,440.27v-3.87h1v6.55h-1v-1.11h-.07c-.15.33-.39.62-.72.85-.32.23-.73.35-1.23.35-.41,0-.77-.09-1.09-.27s-.57-.45-.75-.82c-.18-.36-.27-.83-.27-1.38v-4.16h1v4.09c0,.48.13.86.4,1.14s.61.43,1.03.43c.25,0,.5-.06.76-.19s.48-.32.66-.59c.18-.26.27-.6.27-1.01Z"/><path class="k" d="m88.73,443.09c-.54,0-1.03-.14-1.44-.42-.42-.28-.74-.67-.98-1.18-.24-.51-.35-1.11-.35-1.8s.12-1.28.35-1.79c.24-.5.56-.9.98-1.17.42-.28.91-.41,1.46-.41.43,0,.76.07,1.01.21.25.14.44.3.57.48s.24.32.31.44h.09v-3.22h1v8.73h-.97v-1.01h-.12c-.07.12-.18.27-.32.45-.14.18-.33.34-.58.48s-.59.21-1.01.21Zm.14-.9c.4,0,.74-.11,1.02-.32.28-.21.49-.5.64-.88.14-.38.22-.81.22-1.31s-.07-.92-.21-1.29c-.14-.37-.35-.65-.63-.86s-.62-.31-1.03-.31-.78.11-1.06.33c-.28.22-.49.51-.63.88-.14.37-.21.79-.21,1.25s.07.89.22,1.27c.14.38.36.68.64.9.28.22.63.33,1.05.33Z"/></g><g><g><path class="f" d="m285.98,153.66l.15,9.45s-27.29,9.17-27.29,9.17c0,0-28.22-8.94-28.22-8.94-.01,0-.02-.02-.02-.03l-.05-9.49s.02-.04.04-.03l28.23,8.82s27.17-8.88,27.17-8.88c.03,0,.03-.05,0-.06l-28.09-8.44s-.01,0-.02,0c0,0-27.32,8.61-27.32,8.59"/><line class="h" x1="258.83" y1="172.28" x2="258.81" y2="162.61"/></g><g><path class="k" d="m248.48,152.37c-.03-.26-.15-.46-.37-.6s-.48-.21-.79-.21c-.23,0-.43.04-.6.11s-.3.18-.4.31c-.1.13-.14.28-.14.44,0,.14.03.26.1.36.07.1.15.18.26.25.1.06.21.12.33.16.12.04.22.07.32.1l.53.14c.13.04.29.08.45.15s.33.15.48.25c.15.11.28.24.38.41s.15.37.15.61c0,.28-.07.53-.22.76s-.36.41-.64.54-.62.2-1.02.2c-.37,0-.69-.06-.96-.18-.27-.12-.48-.29-.64-.5-.15-.21-.24-.46-.26-.75h.65c.02.2.08.36.2.48.12.13.26.22.44.28s.37.09.58.09c.24,0,.46-.04.65-.12s.34-.19.45-.33c.11-.14.17-.31.17-.49,0-.17-.05-.31-.14-.42-.1-.11-.22-.2-.38-.26-.16-.07-.33-.13-.51-.18l-.64-.18c-.41-.12-.73-.28-.96-.5s-.35-.5-.35-.85c0-.29.08-.54.24-.76.16-.22.37-.39.64-.51.27-.12.57-.18.9-.18s.63.06.89.18c.26.12.47.28.62.49.15.21.23.44.24.7h-.61Z"/><path class="k" d="m250.82,156.35c-.25,0-.47-.05-.67-.14-.2-.09-.36-.23-.48-.41-.12-.18-.18-.39-.18-.65,0-.22.04-.4.13-.54s.21-.25.35-.33c.15-.08.31-.14.49-.18.18-.04.36-.07.54-.09.24-.03.43-.05.58-.07s.26-.04.32-.08c.07-.04.1-.11.1-.2v-.02c0-.25-.07-.44-.2-.58s-.34-.21-.62-.21-.51.06-.67.19c-.16.12-.28.26-.34.4l-.57-.2c.1-.24.24-.42.41-.55.17-.13.35-.23.56-.28.2-.05.4-.08.6-.08.12,0,.27.02.43.04.16.03.32.09.47.18.15.09.28.23.38.41.1.18.15.43.15.74v2.56h-.6v-.53h-.03c-.04.08-.11.17-.2.27-.09.1-.22.18-.38.25-.16.07-.35.1-.58.1Zm.09-.54c.24,0,.44-.05.6-.14.16-.09.29-.21.37-.36.08-.15.12-.3.12-.46v-.55s-.08.06-.17.08-.18.05-.29.06-.22.03-.32.05c-.1.01-.19.02-.25.03-.16.02-.3.05-.43.1-.13.04-.24.11-.32.2s-.12.21-.12.36c0,.21.08.36.23.47s.35.16.59.16Z"/><path class="k" d="m253.87,153.92v2.34h-.6v-3.89h.58v.61h.05c.09-.2.23-.36.42-.48s.42-.18.72-.18c.26,0,.49.05.69.16.2.11.35.27.46.49.11.22.17.49.17.82v2.47h-.6v-2.43c0-.31-.08-.54-.24-.71-.16-.17-.38-.26-.65-.26-.19,0-.36.04-.51.12-.15.08-.27.2-.35.36-.09.16-.13.35-.13.58Z"/><path class="k" d="m258.48,156.34c-.32,0-.61-.08-.86-.25-.25-.16-.44-.4-.58-.7-.14-.3-.21-.66-.21-1.07s.07-.76.21-1.06c.14-.3.33-.53.58-.7.25-.16.54-.25.87-.25.25,0,.45.04.6.13s.26.18.34.28.14.19.18.26h.05v-1.91h.6v5.18h-.58v-.6h-.07c-.04.07-.11.16-.19.27s-.2.2-.35.29-.35.13-.6.13Zm.08-.54c.24,0,.44-.06.61-.19.17-.13.29-.3.38-.52s.13-.48.13-.78-.04-.54-.13-.76c-.08-.22-.21-.39-.37-.51-.17-.12-.37-.18-.61-.18s-.46.06-.63.19c-.17.13-.29.3-.38.52-.08.22-.13.47-.13.74s.04.53.13.75.21.4.38.54.38.2.63.2Z"/><path class="k" d="m261.09,156.26v-5.18h.6v1.91h.05c.04-.07.1-.15.18-.26.08-.11.19-.2.34-.28.15-.08.35-.13.6-.13.33,0,.62.08.87.25.25.16.44.4.58.7.14.3.21.65.21,1.06s-.07.77-.21,1.07c-.14.3-.33.53-.58.7-.25.16-.53.25-.86.25-.25,0-.45-.04-.6-.13-.15-.08-.27-.18-.35-.29s-.14-.2-.19-.27h-.07v.6h-.58Zm.59-1.94c0,.29.04.55.13.78.09.22.21.4.38.52.17.13.37.19.61.19s.46-.07.63-.2c.17-.13.29-.31.38-.54s.13-.48.13-.75-.04-.52-.12-.74c-.08-.22-.21-.39-.38-.52-.17-.13-.38-.19-.63-.19s-.45.06-.61.18c-.17.12-.29.29-.37.51s-.13.47-.13.76Z"/><path class="k" d="m266.58,156.34c-.35,0-.66-.08-.92-.25-.26-.17-.47-.4-.62-.7s-.22-.65-.22-1.05.07-.76.22-1.06c.15-.3.35-.54.62-.7.26-.17.57-.25.92-.25s.66.08.92.25c.26.17.47.4.62.7.15.3.22.65.22,1.06s-.07.75-.22,1.05c-.15.3-.35.53-.62.7-.26.17-.57.25-.92.25Zm0-.54c.27,0,.49-.07.66-.2.17-.14.3-.32.38-.54.08-.22.12-.46.12-.72s-.04-.5-.12-.73c-.08-.22-.21-.41-.38-.54-.17-.14-.39-.21-.66-.21s-.49.07-.66.21c-.17.14-.3.32-.38.54-.08.22-.12.47-.12.73s.04.5.12.72c.08.22.21.4.38.54.17.14.39.2.66.2Z"/><path class="k" d="m269.11,152.37l.93,1.59.93-1.59h.69l-1.25,1.94,1.25,1.94h-.69l-.93-1.51-.93,1.51h-.69l1.23-1.94-1.23-1.94h.69Z"/></g></g><rect class="g" x="217.34" y="131.1" width="82.41" height="45.32" rx="3.49" ry="3.49"/><g><path class="k" d="m235.67,136.46c-.02-.25-.13-.44-.32-.58-.19-.14-.44-.21-.77-.21-.22,0-.4.03-.55.09-.15.06-.27.15-.34.25-.08.11-.12.23-.12.37,0,.11.02.21.07.3s.13.16.22.22c.09.06.2.11.32.16.12.04.25.08.39.11l.57.14c.28.06.53.14.76.25.23.1.43.23.6.38.17.15.3.33.39.53s.14.44.14.7c0,.39-.1.72-.3,1.01-.19.28-.48.5-.84.66-.37.16-.81.23-1.32.23s-.96-.08-1.34-.24-.67-.39-.89-.7c-.21-.31-.32-.69-.33-1.15h1.3c.01.21.08.39.18.53s.25.25.44.32c.18.07.39.11.62.11s.42-.03.59-.1c.17-.07.3-.16.39-.28.09-.12.14-.25.14-.41,0-.14-.04-.26-.12-.36s-.21-.18-.37-.25c-.16-.07-.36-.13-.59-.19l-.69-.17c-.53-.13-.96-.33-1.27-.61s-.46-.65-.46-1.12c0-.38.1-.72.31-1.01.21-.29.49-.51.86-.67s.78-.24,1.24-.24.88.08,1.23.24c.35.16.63.39.82.67.2.29.3.62.3,1h-1.29Z"/><path class="k" d="m238.74,141.07c-.3,0-.57-.05-.81-.16-.24-.11-.42-.26-.56-.47-.14-.21-.21-.47-.21-.79,0-.26.05-.49.15-.67.1-.18.23-.32.4-.43s.36-.19.57-.25.44-.09.67-.12c.28-.03.5-.06.67-.08s.29-.06.37-.12c.08-.05.12-.13.12-.23v-.02c0-.2-.06-.35-.18-.46s-.3-.16-.52-.16c-.24,0-.43.05-.57.16-.14.1-.23.23-.28.39l-1.22-.1c.06-.29.18-.54.37-.75.18-.21.42-.38.71-.49.29-.11.62-.17,1-.17.26,0,.52.03.76.09.24.06.46.16.65.29.19.13.34.3.45.5.11.2.16.45.16.73v3.21h-1.25v-.66h-.04c-.08.15-.18.28-.31.39-.13.11-.28.2-.46.26-.18.06-.39.09-.62.09Zm.38-.91c.19,0,.37-.04.51-.12.15-.08.27-.18.35-.31.08-.13.13-.28.13-.45v-.5s-.1.05-.17.07c-.07.02-.15.04-.24.06s-.18.03-.27.05c-.09.01-.17.03-.24.04-.15.02-.29.06-.41.11-.12.05-.21.12-.27.2-.06.08-.1.19-.1.31,0,.18.07.32.2.41.13.09.3.14.5.14Z"/><path class="k" d="m243.24,138.23v2.75h-1.32v-4.76h1.26v.84h.06c.11-.28.28-.5.53-.66.25-.16.55-.24.9-.24.33,0,.62.07.86.22.25.14.44.35.57.62.14.27.2.59.2.96v3.03h-1.32v-2.79c0-.29-.07-.52-.22-.68-.15-.16-.36-.25-.62-.25-.18,0-.33.04-.47.11-.14.08-.24.19-.32.33s-.11.32-.12.52Z"/><path class="k" d="m248.58,141.06c-.36,0-.69-.09-.98-.28-.29-.19-.52-.46-.69-.83-.17-.36-.26-.81-.26-1.34s.09-1,.26-1.36.41-.63.7-.81c.29-.18.61-.27.96-.27.27,0,.49.04.67.13s.32.2.43.33c.11.13.19.26.25.39h.04v-2.38h1.32v6.34h-1.3v-.76h-.06c-.06.13-.15.26-.26.39s-.26.24-.44.32c-.18.08-.4.13-.65.13Zm.42-1.05c.21,0,.39-.06.54-.17s.26-.28.34-.49c.08-.21.12-.46.12-.74s-.04-.53-.12-.74c-.08-.21-.19-.37-.34-.48-.15-.11-.33-.17-.54-.17s-.4.06-.55.18-.26.28-.34.49c-.08.21-.11.45-.11.72s.04.52.12.73c.08.21.19.38.34.5.15.12.33.18.55.18Z"/><path class="k" d="m251.87,140.98v-6.34h1.32v2.38h.04c.06-.13.14-.26.25-.39.11-.13.26-.24.43-.33.18-.09.4-.13.67-.13.35,0,.67.09.96.27s.53.45.7.81.26.82.26,1.36-.08.98-.26,1.34c-.17.36-.4.64-.69.83-.29.19-.62.28-.98.28-.26,0-.47-.04-.65-.13-.18-.08-.32-.19-.44-.32-.11-.13-.2-.26-.26-.39h-.06v.76h-1.3Zm1.29-2.38c0,.28.04.53.12.74.08.21.19.37.34.49.15.12.33.17.54.17s.4-.06.54-.18c.15-.12.26-.28.34-.5.08-.21.12-.46.12-.73s-.04-.52-.11-.72c-.08-.21-.19-.37-.34-.49s-.33-.18-.55-.18-.4.06-.54.17-.26.27-.34.48c-.08.21-.12.45-.12.74Z"/><path class="k" d="m259.01,141.07c-.48,0-.9-.1-1.25-.31-.35-.21-.62-.49-.81-.86-.19-.37-.28-.8-.28-1.28s.09-.92.28-1.29c.19-.37.46-.66.81-.86.35-.21.77-.31,1.25-.31s.9.1,1.25.31.62.49.81.86c.19.37.29.8.29,1.29s-.09.92-.29,1.28c-.19.37-.46.66-.81.86s-.77.31-1.25.31Zm0-1.02c.22,0,.4-.06.55-.19s.26-.3.33-.51.11-.46.11-.74-.04-.52-.11-.74-.19-.39-.33-.51-.33-.19-.55-.19-.41.06-.56.19c-.15.13-.26.3-.34.51-.08.22-.11.46-.11.74s.04.52.11.74c.08.22.19.39.34.51.15.12.33.19.56.19Z"/><path class="k" d="m262.62,136.22l.87,1.66.89-1.66h1.35l-1.38,2.38,1.42,2.38h-1.35l-.94-1.64-.92,1.64h-1.36l1.41-2.38-1.36-2.38h1.36Z"/><path class="k" d="m267.49,142.77v-6.54h1.3v.8h.06c.06-.13.14-.26.25-.39.11-.13.25-.24.43-.33s.4-.13.67-.13c.35,0,.67.09.96.27s.53.45.7.81.26.82.26,1.36-.08.98-.25,1.34c-.17.36-.4.64-.69.83-.29.19-.62.28-.98.28-.26,0-.47-.04-.65-.13-.18-.08-.33-.19-.44-.32s-.2-.26-.26-.39h-.04v2.55h-1.32Zm1.29-4.16c0,.28.04.53.12.74.08.21.19.37.34.49s.33.17.54.17.4-.06.54-.18c.15-.12.26-.28.34-.5.08-.21.12-.46.12-.73s-.04-.52-.12-.72c-.08-.21-.19-.37-.34-.49-.15-.12-.33-.18-.55-.18s-.4.06-.54.17c-.15.11-.26.27-.34.48-.08.21-.12.45-.12.74Z"/><path class="k" d="m274.64,141.07c-.48,0-.9-.1-1.25-.31-.35-.21-.62-.49-.81-.86-.19-.37-.28-.8-.28-1.28s.09-.92.28-1.29c.19-.37.46-.66.81-.86.35-.21.77-.31,1.25-.31s.9.1,1.25.31.62.49.81.86c.19.37.29.8.29,1.29s-.09.92-.29,1.28c-.19.37-.46.66-.81.86s-.77.31-1.25.31Zm0-1.02c.22,0,.4-.06.55-.19s.26-.3.33-.51.11-.46.11-.74-.04-.52-.11-.74-.19-.39-.33-.51-.33-.19-.55-.19-.41.06-.56.19c-.15.13-.26.3-.34.51-.08.22-.11.46-.11.74s.04.52.11.74c.08.22.19.39.34.51.15.12.33.19.56.19Z"/><path class="k" d="m279.47,141.07c-.48,0-.9-.1-1.25-.31-.35-.21-.62-.49-.81-.86-.19-.37-.28-.8-.28-1.28s.09-.92.28-1.29c.19-.37.46-.66.81-.86.35-.21.77-.31,1.25-.31s.9.1,1.25.31.62.49.81.86c.19.37.29.8.29,1.29s-.09.92-.29,1.28c-.19.37-.46.66-.81.86s-.77.31-1.25.31Zm0-1.02c.22,0,.4-.06.55-.19s.26-.3.33-.51.11-.46.11-.74-.04-.52-.11-.74-.19-.39-.33-.51-.33-.19-.55-.19-.41.06-.56.19c-.15.13-.26.3-.34.51-.08.22-.11.46-.11.74s.04.52.11.74c.08.22.19.39.34.51.15.12.33.19.56.19Z"/><path class="k" d="m283.46,134.64v6.34h-1.32v-6.34h1.32Z"/></g><rect class="d" x="37.48" y="232.28" width="73.62" height="53.55" rx="3.59" ry="3.59"/><g><path class="i" d="m53.65,250.65v-7.38h2.91c.56,0,1.03.1,1.43.3.4.2.7.48.9.84.21.36.31.79.31,1.27s-.11.91-.32,1.26c-.21.35-.52.62-.92.81s-.88.28-1.45.28h-1.95v-1.25h1.7c.3,0,.54-.04.74-.12.2-.08.34-.2.44-.37.1-.16.15-.37.15-.61s-.05-.45-.15-.62-.24-.3-.44-.38-.45-.13-.75-.13h-1.05v6.1h-1.56Zm3.98-3.36l1.83,3.36h-1.72l-1.79-3.36h1.68Z"/><path class="i" d="m62.09,250.76c-.57,0-1.06-.12-1.47-.35-.41-.23-.72-.56-.95-.99-.22-.43-.33-.93-.33-1.52s.11-1.07.33-1.5c.22-.43.53-.76.93-1,.4-.24.87-.36,1.42-.36.36,0,.71.06,1.02.18.32.12.59.29.83.52s.42.53.55.88c.13.35.2.76.2,1.23v.42h-4.67v-.95h3.23c0-.22-.05-.42-.14-.59s-.23-.3-.4-.4c-.17-.1-.37-.14-.59-.14s-.44.05-.62.16c-.18.11-.32.25-.42.43-.1.18-.15.38-.15.6v.9c0,.27.05.51.15.71s.25.35.43.46c.19.11.41.16.67.16.17,0,.33-.02.47-.07.14-.05.26-.12.36-.22.1-.1.18-.21.23-.35l1.42.09c-.07.34-.22.64-.44.89s-.51.45-.86.59c-.35.14-.75.21-1.21.21Z"/><path class="i" d="m66.6,250.75c-.35,0-.67-.06-.94-.19s-.49-.31-.65-.55-.24-.55-.24-.91c0-.31.06-.57.17-.77.11-.21.27-.38.46-.5.19-.13.42-.22.66-.29.25-.06.51-.11.78-.14.32-.03.58-.06.78-.09s.34-.08.43-.14c.09-.06.13-.15.13-.27v-.02c0-.23-.07-.41-.21-.53-.14-.12-.35-.19-.61-.19-.28,0-.5.06-.66.18s-.27.27-.32.46l-1.42-.12c.07-.34.21-.63.42-.87.21-.25.48-.44.82-.57.33-.13.72-.2,1.17-.2.31,0,.6.04.88.11.28.07.53.18.75.33.22.15.39.35.52.58.13.24.19.52.19.85v3.73h-1.46v-.77h-.04c-.09.17-.21.32-.36.46s-.33.23-.54.31c-.21.07-.45.11-.72.11Zm.44-1.06c.23,0,.43-.04.6-.13.17-.09.31-.21.41-.37.1-.15.15-.33.15-.52v-.59s-.11.06-.2.08c-.08.03-.18.05-.28.07s-.21.04-.31.05c-.1.02-.2.03-.28.04-.18.03-.34.07-.47.13s-.24.13-.31.23c-.07.1-.11.22-.11.36,0,.21.08.37.23.48s.35.16.58.16Z"/><path class="i" d="m71.84,243.27v7.38h-1.53v-7.38h1.53Z"/><path class="i" d="m75.9,247.01v1.22h-3.36v-1.22h3.36Z"/><path class="i" d="m79.54,245.12v1.15h-3.33v-1.15h3.33Zm-2.58-1.33h1.53v5.16c0,.14.02.25.06.33.04.08.1.13.18.16.08.03.17.05.27.05.07,0,.14,0,.22-.02.07-.01.13-.02.17-.03l.24,1.14c-.08.02-.18.05-.32.08-.14.03-.31.05-.51.06-.37.01-.69-.03-.97-.15-.28-.11-.49-.29-.65-.53s-.23-.54-.23-.9v-5.36Z"/><path class="i" d="m80.7,244.4c-.23,0-.42-.08-.58-.23s-.24-.34-.24-.55.08-.39.24-.55.36-.23.58-.23.42.08.59.23.24.33.24.55-.08.4-.24.55-.36.23-.59.23Zm-.77,6.25v-5.53h1.53v5.53h-1.53Z"/><path class="i" d="m82.08,250.65v-5.53h1.46v.98h.06c.12-.32.31-.58.58-.77.27-.19.59-.28.97-.28s.7.09.97.28.44.44.53.77h.06c.11-.32.32-.57.61-.76.3-.19.65-.29,1.05-.29.52,0,.94.16,1.26.49.32.33.48.79.48,1.39v3.72h-1.53v-3.42c0-.31-.08-.54-.25-.69-.16-.15-.37-.23-.61-.23-.28,0-.5.09-.65.26-.16.18-.23.41-.23.7v3.38h-1.49v-3.45c0-.27-.08-.49-.23-.65-.15-.16-.36-.24-.61-.24-.17,0-.32.04-.46.13-.14.09-.24.2-.32.36-.08.15-.12.33-.12.54v3.32h-1.53Z"/><path class="i" d="m93.24,250.76c-.57,0-1.06-.12-1.47-.35-.41-.23-.72-.56-.95-.99-.22-.43-.33-.93-.33-1.52s.11-1.07.33-1.5c.22-.43.53-.76.93-1,.4-.24.87-.36,1.42-.36.36,0,.71.06,1.02.18.32.12.59.29.83.52s.42.53.55.88c.13.35.2.76.2,1.23v.42h-4.67v-.95h3.23c0-.22-.05-.42-.14-.59s-.23-.3-.4-.4c-.17-.1-.37-.14-.59-.14s-.44.05-.62.16c-.18.11-.32.25-.42.43-.1.18-.15.38-.15.6v.9c0,.27.05.51.15.71s.25.35.43.46c.19.11.41.16.67.16.17,0,.33-.02.47-.07.14-.05.26-.12.36-.22.1-.1.18-.21.23-.35l1.42.09c-.07.34-.22.64-.44.89s-.51.45-.86.59c-.35.14-.75.21-1.21.21Z"/><path class="i" d="m55.09,257.29l-1.93,5.53h-1.73l-1.93-5.53h1.62l1.15,3.96h.06l1.15-3.96h1.62Z"/><path class="i" d="m56.03,256.57c-.23,0-.42-.08-.58-.23s-.24-.34-.24-.55.08-.39.24-.55.36-.23.58-.23.42.08.59.23.24.33.24.55-.08.4-.24.55-.36.23-.59.23Zm-.77,6.25v-5.53h1.53v5.53h-1.53Z"/><path class="i" d="m57.38,262.82v-.92l2.71-3.35v-.04h-2.61v-1.22h4.46v1l-2.54,3.27v.04h2.64v1.22h-4.65Z"/><path class="i" d="m66.15,260.46v-3.18h1.53v5.53h-1.47v-1h-.06c-.12.32-.33.58-.62.78-.29.2-.64.3-1.06.3-.37,0-.69-.08-.98-.25-.28-.17-.5-.41-.66-.72-.16-.31-.24-.68-.24-1.11v-3.52h1.53v3.25c0,.33.09.58.26.77s.4.28.7.28c.19,0,.36-.04.52-.13.16-.08.29-.21.39-.38s.15-.38.15-.62Z"/><path class="i" d="m69.84,255.44v7.38h-1.53v-7.38h1.53Z"/><path class="i" d="m71.22,256.57c-.23,0-.42-.08-.58-.23s-.24-.34-.24-.55.08-.39.24-.55.36-.23.58-.23.42.08.59.23.24.33.24.55-.08.4-.24.55-.36.23-.59.23Zm-.77,6.25v-5.53h1.53v5.53h-1.53Z"/><path class="i" d="m72.57,262.82v-.92l2.71-3.35v-.04h-2.61v-1.22h4.46v1l-2.54,3.27v.04h2.64v1.22h-4.65Z"/><path class="i" d="m79.37,262.92c-.35,0-.67-.06-.94-.19s-.49-.31-.65-.55-.24-.55-.24-.91c0-.31.06-.57.17-.77.11-.21.27-.38.46-.5.19-.13.42-.22.66-.29.25-.06.51-.11.78-.14.32-.03.58-.06.78-.09s.34-.08.43-.14c.09-.06.13-.15.13-.27v-.02c0-.23-.07-.41-.21-.53-.14-.12-.35-.19-.61-.19-.28,0-.5.06-.66.18s-.27.27-.32.46l-1.42-.12c.07-.34.21-.63.42-.87.21-.25.48-.44.82-.57.33-.13.72-.2,1.17-.2.31,0,.6.04.88.11.28.07.53.18.75.33.22.15.39.35.52.58.13.24.19.52.19.85v3.73h-1.46v-.77h-.04c-.09.17-.21.32-.36.46s-.33.23-.54.31c-.21.07-.45.11-.72.11Zm.44-1.06c.23,0,.43-.04.6-.13.17-.09.31-.21.41-.37.1-.15.15-.33.15-.52v-.59s-.11.06-.2.08c-.08.03-.18.05-.28.07s-.21.04-.31.05c-.1.02-.2.03-.28.04-.18.03-.34.07-.47.13s-.24.13-.31.23c-.07.1-.11.22-.11.36,0,.21.08.37.23.48s.35.16.58.16Z"/><path class="i" d="m86.01,257.29v1.15h-3.33v-1.15h3.33Zm-2.58-1.33h1.53v5.16c0,.14.02.25.06.33.04.08.1.13.18.16.08.03.17.05.27.05.07,0,.14,0,.22-.02.07-.01.13-.02.17-.03l.24,1.14c-.08.02-.18.05-.32.08-.14.03-.31.05-.51.06-.37.01-.69-.03-.97-.15-.28-.11-.49-.29-.65-.53s-.23-.54-.23-.9v-5.36Z"/><path class="i" d="m87.17,256.57c-.23,0-.42-.08-.58-.23s-.24-.34-.24-.55.08-.39.24-.55.36-.23.58-.23.42.08.59.23.24.33.24.55-.08.4-.24.55-.36.23-.59.23Zm-.77,6.25v-5.53h1.53v5.53h-1.53Z"/><path class="i" d="m91.05,262.93c-.56,0-1.04-.12-1.45-.36-.41-.24-.72-.57-.94-1-.22-.43-.33-.93-.33-1.49s.11-1.07.33-1.5c.22-.43.53-.76.94-1,.41-.24.89-.36,1.45-.36s1.04.12,1.45.36c.41.24.72.57.94,1,.22.43.33.93.33,1.5s-.11,1.06-.33,1.49c-.22.43-.53.76-.94,1-.41.24-.89.36-1.45.36Zm0-1.19c.25,0,.47-.07.64-.22.17-.15.3-.34.39-.6.09-.25.13-.54.13-.86s-.04-.61-.13-.86c-.09-.25-.22-.45-.39-.6s-.38-.22-.64-.22-.47.07-.65.22c-.17.15-.3.35-.39.6-.09.25-.13.54-.13.86s.04.61.13.86c.09.25.22.45.39.6.17.14.39.22.65.22Z"/><path class="i" d="m95.7,259.62v3.2h-1.53v-5.53h1.46v.98h.06c.12-.32.33-.58.62-.77.29-.19.64-.28,1.05-.28.38,0,.72.08,1,.25.29.17.51.41.67.72.16.31.24.68.24,1.11v3.52h-1.53v-3.25c0-.34-.08-.6-.26-.79-.18-.19-.42-.29-.72-.29-.21,0-.39.04-.55.13-.16.09-.28.22-.37.39-.09.17-.13.37-.14.61Z"/><path class="i" d="m55.19,277.06v-7.61h1.51v.93h.07c.07-.15.17-.3.29-.46s.3-.29.5-.39c.21-.11.47-.16.78-.16.4,0,.78.1,1.12.32.34.21.61.53.82.95.2.42.31.95.31,1.58s-.1,1.14-.3,1.56c-.2.42-.47.74-.81.96s-.72.33-1.14.33c-.3,0-.55-.05-.76-.15-.21-.1-.38-.22-.51-.37-.13-.15-.23-.3-.3-.46h-.05v2.96h-1.53Zm1.5-4.84c0,.33.05.62.14.86.09.25.22.44.4.57s.38.2.63.2.46-.07.63-.21c.17-.14.3-.33.39-.58.09-.25.13-.53.13-.85s-.04-.6-.13-.84-.22-.43-.39-.57c-.17-.14-.39-.21-.64-.21s-.46.07-.63.2c-.17.13-.3.32-.39.56-.09.24-.14.53-.14.86Z"/><path class="i" d="m60.99,274.99v-5.53h1.49v.96h.06c.1-.34.27-.6.51-.78s.51-.26.82-.26c.08,0,.16,0,.25.01s.17.02.23.04v1.36c-.07-.02-.17-.04-.3-.06-.13-.02-.24-.03-.35-.03-.23,0-.43.05-.6.15-.18.1-.32.23-.42.4-.1.17-.15.37-.15.6v3.13h-1.53Z"/><path class="i" d="m66.77,275.1c-.56,0-1.04-.12-1.45-.36-.41-.24-.72-.57-.94-1-.22-.43-.33-.93-.33-1.49s.11-1.07.33-1.5c.22-.43.53-.76.94-1,.41-.24.89-.36,1.45-.36s1.04.12,1.45.36c.41.24.72.57.94,1,.22.43.33.93.33,1.5s-.11,1.06-.33,1.49c-.22.43-.53.76-.94,1-.41.24-.89.36-1.45.36Zm0-1.19c.25,0,.47-.07.64-.22.17-.14.3-.34.39-.6.09-.25.13-.54.13-.86s-.04-.61-.13-.86c-.09-.25-.22-.45-.39-.6s-.38-.22-.64-.22-.47.07-.65.22c-.17.15-.3.35-.39.6-.09.25-.13.54-.13.86s.04.61.13.86c.09.25.22.45.39.6.17.15.39.22.65.22Z"/><path class="i" d="m72.38,277.18c-.5,0-.92-.07-1.28-.2-.35-.14-.64-.32-.84-.55-.21-.23-.34-.5-.41-.79l1.42-.19c.04.11.11.21.21.31.09.1.22.17.37.23.15.06.34.09.57.09.33,0,.61-.08.83-.24s.33-.43.33-.81v-1.01h-.06c-.07.15-.17.3-.3.44-.13.14-.31.25-.52.34-.21.09-.46.13-.76.13-.42,0-.79-.1-1.13-.29s-.61-.49-.81-.89c-.2-.4-.3-.91-.3-1.52s.1-1.15.31-1.57.48-.73.82-.94.71-.31,1.12-.31c.31,0,.57.05.78.16.21.1.38.23.51.39s.23.31.3.46h.06v-.93h1.52v5.59c0,.47-.12.86-.35,1.18-.23.32-.55.56-.96.71-.41.16-.87.24-1.4.24Zm.03-3.42c.25,0,.46-.06.63-.19.17-.12.3-.3.4-.53.09-.23.14-.51.14-.83s-.05-.61-.14-.84c-.09-.24-.22-.42-.4-.56-.17-.13-.38-.2-.63-.2s-.46.07-.64.2c-.17.13-.3.32-.39.56-.09.24-.13.52-.13.83s.04.6.14.83c.09.23.22.41.39.54.17.13.38.19.64.19Z"/><path class="i" d="m75.7,274.99v-5.53h1.49v.96h.06c.1-.34.27-.6.51-.78s.51-.26.82-.26c.08,0,.16,0,.25.01s.17.02.23.04v1.36c-.07-.02-.17-.04-.3-.06-.13-.02-.24-.03-.35-.03-.23,0-.43.05-.6.15-.18.1-.32.23-.42.4-.1.17-.15.37-.15.6v3.13h-1.53Z"/><path class="i" d="m81.49,275.1c-.57,0-1.06-.12-1.47-.35-.41-.23-.72-.56-.95-.99-.22-.43-.33-.93-.33-1.51s.11-1.07.33-1.5c.22-.43.53-.76.93-1,.4-.24.87-.36,1.42-.36.36,0,.71.06,1.02.17.32.12.59.29.83.52.24.23.42.53.55.88.13.35.2.76.2,1.23v.42h-4.67v-.95h3.23c0-.22-.05-.42-.14-.59-.1-.17-.23-.3-.4-.4-.17-.1-.37-.15-.59-.15s-.44.05-.62.16c-.18.11-.32.25-.42.43-.1.18-.15.38-.15.6v.9c0,.27.05.51.15.71s.25.35.43.46c.19.11.41.16.67.16.17,0,.33-.02.47-.07.14-.05.26-.12.36-.22.1-.1.18-.21.23-.35l1.42.09c-.07.34-.22.64-.44.89-.22.25-.51.45-.86.59-.35.14-.75.21-1.21.21Z"/><path class="i" d="m89.03,271.03l-1.4.09c-.02-.12-.08-.23-.16-.33-.08-.1-.18-.17-.31-.23-.13-.06-.28-.09-.46-.09-.24,0-.44.05-.6.15-.16.1-.24.23-.24.4,0,.13.05.24.16.33.11.09.29.17.54.22l1,.2c.54.11.94.29,1.2.53.26.24.4.57.4.96,0,.36-.11.68-.32.96-.21.27-.5.49-.87.64-.37.15-.79.23-1.27.23-.73,0-1.31-.15-1.75-.46-.43-.31-.69-.72-.76-1.25l1.51-.08c.05.22.16.39.33.51s.4.17.67.17.49-.05.65-.16c.16-.11.25-.24.25-.41,0-.14-.06-.25-.18-.34s-.29-.16-.53-.21l-.96-.19c-.54-.11-.94-.3-1.21-.56-.26-.27-.39-.61-.39-1.02,0-.36.1-.66.29-.92.19-.26.47-.46.82-.59.35-.14.76-.21,1.24-.21.7,0,1.25.15,1.65.44.4.3.64.7.7,1.21Z"/><path class="i" d="m94.12,271.03l-1.4.09c-.02-.12-.08-.23-.16-.33-.08-.1-.18-.17-.31-.23-.13-.06-.28-.09-.46-.09-.24,0-.44.05-.6.15-.16.1-.24.23-.24.4,0,.13.05.24.16.33.11.09.29.17.54.22l1,.2c.54.11.94.29,1.2.53.26.24.4.57.4.96,0,.36-.11.68-.32.96-.21.27-.5.49-.87.64-.37.15-.79.23-1.27.23-.73,0-1.31-.15-1.75-.46-.43-.31-.69-.72-.76-1.25l1.51-.08c.05.22.16.39.33.51s.4.17.67.17.49-.05.65-.16c.16-.11.25-.24.25-.41,0-.14-.06-.25-.18-.34s-.29-.16-.53-.21l-.96-.19c-.54-.11-.94-.3-1.21-.56-.26-.27-.39-.61-.39-1.02,0-.36.1-.66.29-.92.19-.26.47-.46.82-.59.35-.14.76-.21,1.24-.21.7,0,1.25.15,1.65.44.4.3.64.7.7,1.21Z"/></g><rect class="c" x="42.2" y="130.89" width="49.32" height="45.73" rx="2.71" ry="2.71"/><g><path class="k" d="m49.72,145.52v-1.26h5.93v1.26h-2.21v5.96h-1.51v-5.96h-2.21Z"/><path class="k" d="m55.44,151.48v-5.41h1.46v.94h.06c.1-.34.26-.59.5-.76.23-.17.5-.26.8-.26.08,0,.16,0,.24.01s.16.02.23.04v1.33c-.07-.02-.17-.04-.29-.06s-.24-.02-.34-.02c-.22,0-.42.05-.59.14-.17.09-.31.23-.41.4-.1.17-.15.36-.15.58v3.06h-1.5Z"/><path class="k" d="m60.29,151.58c-.35,0-.65-.06-.92-.18-.27-.12-.48-.3-.64-.54s-.23-.54-.23-.89c0-.3.06-.55.17-.76s.26-.37.45-.49c.19-.12.41-.22.65-.28.24-.06.5-.11.77-.13.31-.03.57-.06.76-.09.19-.03.33-.07.42-.13s.13-.15.13-.26v-.02c0-.22-.07-.4-.21-.52s-.34-.18-.59-.18c-.27,0-.49.06-.65.18-.16.12-.27.27-.32.45l-1.39-.11c.07-.33.21-.61.42-.85s.47-.43.8-.56.71-.2,1.14-.2c.3,0,.59.04.86.11s.52.18.74.33.38.34.51.57.19.51.19.83v3.65h-1.42v-.75h-.04c-.09.17-.2.32-.35.45s-.32.23-.52.3c-.2.07-.44.11-.71.11Zm.43-1.04c.22,0,.42-.04.58-.13.17-.09.3-.21.4-.36.1-.15.14-.32.14-.51v-.57s-.11.06-.19.08c-.08.02-.17.05-.27.07-.1.02-.2.04-.3.05-.1.02-.19.03-.27.04-.18.03-.33.07-.46.12-.13.06-.23.13-.31.23s-.11.21-.11.35c0,.2.07.36.22.47.15.11.34.16.57.16Z"/><path class="k" d="m64.66,145.37c-.22,0-.41-.07-.57-.22-.16-.15-.24-.33-.24-.54s.08-.38.24-.53c.16-.15.35-.22.57-.22s.41.07.57.22c.16.15.24.33.24.53s-.08.39-.24.54c-.16.15-.35.22-.57.22Zm-.75,6.11v-5.41h1.5v5.41h-1.5Z"/><path class="k" d="m67.51,148.35v3.13h-1.5v-5.41h1.43v.95h.06c.12-.31.32-.56.6-.75.28-.18.62-.28,1.02-.28.38,0,.7.08.98.25.28.16.5.4.65.7.15.3.23.67.23,1.09v3.45h-1.5v-3.18c0-.33-.08-.59-.25-.78s-.41-.28-.71-.28c-.2,0-.38.04-.53.13s-.27.21-.36.38c-.09.17-.13.36-.13.6Z"/><path class="k" d="m72.34,145.37c-.22,0-.41-.07-.57-.22-.16-.15-.24-.33-.24-.54s.08-.38.24-.53c.16-.15.35-.22.57-.22s.41.07.57.22c.16.15.24.33.24.53s-.08.39-.24.54c-.16.15-.35.22-.57.22Zm-.75,6.11v-5.41h1.5v5.41h-1.5Z"/><path class="k" d="m75.19,148.35v3.13h-1.5v-5.41h1.43v.95h.06c.12-.31.32-.56.6-.75.28-.18.62-.28,1.02-.28.38,0,.7.08.98.25.28.16.5.4.65.7.15.3.23.67.23,1.09v3.45h-1.5v-3.18c0-.33-.08-.59-.25-.78s-.41-.28-.71-.28c-.2,0-.38.04-.53.13s-.27.21-.36.38c-.09.17-.13.36-.13.6Z"/><path class="k" d="m81.7,153.62c-.49,0-.9-.07-1.25-.2-.35-.13-.62-.31-.83-.54-.2-.23-.34-.48-.4-.77l1.39-.19c.04.11.11.21.2.3.09.09.21.17.36.23.15.06.34.09.55.09.33,0,.6-.08.81-.24.21-.16.32-.42.32-.79v-.99h-.06c-.07.15-.16.29-.3.43-.13.13-.3.24-.51.33-.21.08-.45.13-.74.13-.41,0-.78-.09-1.11-.28-.33-.19-.6-.48-.79-.87-.2-.39-.29-.89-.29-1.48s.1-1.12.3-1.54c.2-.41.47-.72.8-.92.33-.2.7-.31,1.09-.31.3,0,.56.05.76.15.2.1.37.23.49.38.13.15.22.3.29.45h.06v-.91h1.49v5.46c0,.46-.11.85-.34,1.16-.23.31-.54.54-.94.7-.4.16-.86.23-1.37.23Zm.03-3.35c.24,0,.45-.06.61-.18.17-.12.3-.29.39-.52.09-.23.14-.5.14-.82s-.04-.59-.13-.83c-.09-.23-.22-.42-.39-.54-.17-.13-.37-.19-.62-.19s-.45.07-.62.2c-.17.13-.3.32-.38.55s-.13.51-.13.81.04.58.13.81.22.4.38.52c.17.12.38.19.62.19Z"/><path class="k" d="m49.35,163.38h-2.56v-7.21h2.58c.73,0,1.35.14,1.87.43.52.29.93.7,1.21,1.24.28.54.42,1.18.42,1.93s-.14,1.4-.42,1.94c-.28.54-.69.95-1.22,1.24-.53.29-1.16.43-1.89.43Zm-1.03-1.31h.97c.45,0,.83-.08,1.14-.24.31-.16.54-.41.7-.75s.23-.78.23-1.32-.08-.97-.23-1.31c-.16-.34-.39-.59-.7-.75s-.69-.24-1.14-.24h-.97v4.6Z"/><path class="k" d="m55.85,163.49c-.56,0-1.03-.11-1.44-.34s-.71-.55-.92-.96c-.22-.42-.32-.91-.32-1.48s.11-1.04.32-1.47c.22-.42.52-.75.91-.98.39-.23.86-.35,1.39-.35.36,0,.69.06,1,.17.31.11.58.29.81.51.23.23.41.51.54.86.13.34.19.75.19,1.21v.41h-4.57v-.93h3.16c0-.22-.05-.41-.14-.57-.09-.17-.22-.3-.39-.39s-.36-.14-.58-.14-.43.05-.6.16-.31.24-.41.42c-.1.18-.15.37-.15.58v.88c0,.27.05.5.15.69.1.19.24.35.42.45.18.11.4.16.65.16.17,0,.32-.02.46-.07s.26-.12.36-.21c.1-.09.17-.21.23-.35l1.39.09c-.07.33-.21.62-.43.87-.22.25-.5.44-.84.58-.34.14-.74.21-1.18.21Z"/><path class="k" d="m61.62,157.97v1.13h-3.34v-1.13h3.34Zm-2.57,5.41v-5.8c0-.39.08-.72.23-.98s.36-.45.63-.58c.27-.13.57-.19.91-.19.23,0,.44.02.63.05s.33.07.43.1l-.27,1.13c-.06-.02-.13-.04-.22-.05-.09-.02-.17-.02-.26-.02-.22,0-.37.05-.46.15s-.13.25-.13.43v5.77h-1.5Z"/><path class="k" d="m62.7,157.28c-.22,0-.41-.07-.57-.22-.16-.15-.24-.33-.24-.54s.08-.38.24-.53c.16-.15.35-.22.57-.22s.41.07.57.22c.16.15.24.33.24.53s-.08.39-.24.54c-.16.15-.35.22-.57.22Zm-.75,6.11v-5.41h1.5v5.41h-1.5Z"/><path class="k" d="m65.55,160.26v3.13h-1.5v-5.41h1.43v.95h.06c.12-.31.32-.56.6-.75.28-.18.62-.28,1.02-.28.38,0,.7.08.98.25.28.16.5.4.65.7.15.3.23.67.23,1.09v3.45h-1.5v-3.18c0-.33-.08-.59-.25-.78s-.41-.28-.71-.28c-.2,0-.38.04-.53.13s-.27.21-.36.38c-.09.17-.13.36-.13.6Z"/><path class="k" d="m70.37,157.28c-.22,0-.41-.07-.57-.22-.16-.15-.24-.33-.24-.54s.08-.38.24-.53c.16-.15.35-.22.57-.22s.41.07.57.22c.16.15.24.33.24.53s-.08.39-.24.54c-.16.15-.35.22-.57.22Zm-.75,6.11v-5.41h1.5v5.41h-1.5Z"/><path class="k" d="m74.6,157.97v1.13h-3.26v-1.13h3.26Zm-2.52-1.3h1.5v5.04c0,.14.02.25.06.32.04.08.1.13.18.16.08.03.17.05.27.05.07,0,.14,0,.21-.02.07-.01.12-.02.16-.03l.24,1.12c-.08.02-.18.05-.32.08-.14.03-.3.05-.5.06-.36.01-.68-.03-.95-.14-.27-.11-.48-.28-.63-.51-.15-.23-.22-.53-.22-.88v-5.24Z"/><path class="k" d="m75.74,157.28c-.22,0-.41-.07-.57-.22-.16-.15-.24-.33-.24-.54s.08-.38.24-.53c.16-.15.35-.22.57-.22s.41.07.57.22c.16.15.24.33.24.53s-.08.39-.24.54c-.16.15-.35.22-.57.22Zm-.75,6.11v-5.41h1.5v5.41h-1.5Z"/><path class="k" d="m79.53,163.49c-.55,0-1.02-.12-1.42-.35-.4-.23-.71-.56-.92-.98-.22-.42-.32-.91-.32-1.46s.11-1.05.32-1.47c.22-.42.52-.75.92-.98.4-.23.87-.35,1.42-.35s1.02.12,1.42.35c.4.23.71.56.92.98.22.42.32.91.32,1.47s-.11,1.04-.32,1.46c-.22.42-.52.75-.92.98-.4.23-.87.35-1.42.35Zm0-1.16c.25,0,.46-.07.62-.21.17-.14.29-.34.38-.58s.13-.53.13-.84-.04-.6-.13-.84-.21-.44-.38-.58c-.17-.14-.38-.21-.62-.21s-.46.07-.63.21c-.17.14-.3.34-.38.58-.09.25-.13.53-.13.84s.04.6.13.84c.09.25.21.44.38.58.17.14.38.21.63.21Z"/><path class="k" d="m84.08,160.26v3.13h-1.5v-5.41h1.43v.95h.06c.12-.31.32-.56.6-.75.28-.18.62-.28,1.02-.28.38,0,.7.08.98.25.28.16.5.4.65.7.15.3.23.67.23,1.09v3.45h-1.5v-3.18c0-.33-.08-.59-.25-.78s-.41-.28-.71-.28c-.2,0-.38.04-.53.13s-.27.21-.36.38c-.09.17-.13.36-.13.6Z"/></g><rect class="c" x="119.77" y="131.2" width="49.32" height="45.73" rx="2.71" ry="2.71"/><g><path class="k" d="m127.29,145.83v-1.26h5.93v1.26h-2.21v5.96h-1.51v-5.96h-2.21Z"/><path class="k" d="m133,151.79v-5.41h1.46v.94h.06c.1-.34.26-.59.5-.76.23-.17.5-.26.8-.26.08,0,.16,0,.24.01s.16.02.23.04v1.33c-.07-.02-.17-.04-.29-.06s-.24-.02-.34-.02c-.22,0-.42.05-.59.14-.17.09-.31.23-.41.4-.1.17-.15.36-.15.58v3.06h-1.5Z"/><path class="k" d="m137.86,151.89c-.35,0-.65-.06-.92-.18-.27-.12-.48-.3-.64-.54s-.23-.54-.23-.89c0-.3.06-.55.17-.76s.26-.37.45-.49c.19-.12.41-.22.65-.28.24-.06.5-.11.77-.13.31-.03.57-.06.76-.09.19-.03.33-.07.42-.13s.13-.15.13-.26v-.02c0-.22-.07-.4-.21-.52s-.34-.18-.59-.18c-.27,0-.49.06-.65.18-.16.12-.27.27-.32.45l-1.39-.11c.07-.33.21-.61.42-.85s.47-.43.8-.56.71-.2,1.14-.2c.3,0,.59.04.87.11s.52.18.74.33.38.34.51.57c.12.23.19.51.19.83v3.65h-1.42v-.75h-.04c-.09.17-.2.32-.35.45s-.32.23-.53.3c-.2.07-.44.11-.71.11Zm.43-1.04c.22,0,.42-.04.58-.13.17-.09.3-.21.4-.36.1-.15.14-.32.14-.51v-.57s-.11.06-.19.08c-.08.02-.17.05-.27.07-.1.02-.2.04-.3.05-.1.02-.19.03-.27.04-.18.03-.33.07-.46.12-.13.06-.23.13-.31.23s-.11.21-.11.35c0,.2.07.36.22.47.15.11.34.16.57.16Z"/><path class="k" d="m142.23,145.68c-.22,0-.41-.07-.57-.22-.16-.15-.24-.33-.24-.54s.08-.38.24-.53c.16-.15.35-.22.57-.22s.41.07.57.22c.16.15.24.33.24.53s-.08.39-.24.54c-.16.15-.35.22-.57.22Zm-.75,6.11v-5.41h1.5v5.41h-1.5Z"/><path class="k" d="m145.08,148.66v3.13h-1.5v-5.41h1.43v.95h.06c.12-.31.32-.56.6-.75.28-.18.62-.28,1.03-.28.38,0,.7.08.98.25.28.16.5.4.65.7s.23.67.23,1.09v3.45h-1.5v-3.18c0-.33-.08-.59-.25-.78-.17-.19-.41-.28-.71-.28-.2,0-.38.04-.53.13-.15.09-.27.21-.36.38s-.13.36-.13.6Z"/><path class="k" d="m149.9,145.68c-.22,0-.41-.07-.57-.22-.16-.15-.24-.33-.24-.54s.08-.38.24-.53c.16-.15.35-.22.57-.22s.41.07.57.22c.16.15.24.33.24.53s-.08.39-.24.54c-.16.15-.35.22-.57.22Zm-.75,6.11v-5.41h1.5v5.41h-1.5Z"/><path class="k" d="m152.75,148.66v3.13h-1.5v-5.41h1.43v.95h.06c.12-.31.32-.56.6-.75.28-.18.62-.28,1.03-.28.38,0,.7.08.98.25.28.16.5.4.65.7s.23.67.23,1.09v3.45h-1.5v-3.18c0-.33-.08-.59-.25-.78-.17-.19-.41-.28-.71-.28-.2,0-.38.04-.53.13-.15.09-.27.21-.36.38s-.13.36-.13.6Z"/><path class="k" d="m159.26,153.93c-.49,0-.9-.07-1.25-.2-.35-.13-.62-.31-.83-.54-.2-.23-.34-.48-.4-.77l1.39-.19c.04.11.11.21.2.3.09.09.21.17.36.23s.34.09.55.09c.33,0,.6-.08.81-.24.21-.16.32-.42.32-.79v-.99h-.06c-.07.15-.17.29-.3.43-.13.13-.3.24-.51.33-.21.08-.45.13-.74.13-.41,0-.78-.09-1.11-.28-.33-.19-.6-.48-.79-.87-.2-.39-.29-.89-.29-1.48s.1-1.12.3-1.54c.2-.41.47-.72.8-.92.33-.2.7-.31,1.09-.31.3,0,.56.05.76.15s.37.23.5.38c.13.15.22.3.29.45h.06v-.91h1.49v5.46c0,.46-.11.85-.34,1.16-.23.31-.54.54-.94.7-.4.16-.86.23-1.37.23Zm.03-3.35c.24,0,.45-.06.61-.18.17-.12.3-.29.39-.52.09-.23.14-.5.14-.82s-.04-.59-.13-.83c-.09-.23-.22-.42-.39-.54-.17-.13-.38-.19-.62-.19s-.45.07-.62.2c-.17.13-.3.32-.38.55s-.13.51-.13.81.04.58.13.81.22.4.38.52c.17.12.38.19.62.19Z"/><path class="k" d="m127.93,156.48v7.21h-1.53v-7.21h1.53Z"/><path class="k" d="m130.06,160.56v3.13h-1.5v-5.41h1.43v.95h.06c.12-.31.32-.56.6-.75.28-.18.62-.28,1.02-.28.38,0,.7.08.98.25.28.16.5.4.65.7.15.3.23.67.23,1.09v3.45h-1.5v-3.18c0-.33-.08-.59-.25-.78s-.41-.28-.71-.28c-.2,0-.38.04-.53.13s-.27.21-.36.38c-.09.17-.13.36-.13.6Z"/><path class="k" d="m138.64,159.82l-1.37.08c-.02-.12-.07-.22-.15-.32-.08-.1-.18-.17-.31-.23-.13-.06-.27-.09-.45-.09-.23,0-.43.05-.59.15-.16.1-.24.23-.24.39,0,.13.05.24.16.33.1.09.28.16.53.21l.98.2c.53.11.92.28,1.18.52.26.24.39.55.39.94,0,.35-.1.67-.31.93-.21.27-.49.48-.85.62-.36.15-.78.22-1.25.22-.72,0-1.29-.15-1.71-.45-.42-.3-.67-.71-.75-1.22l1.48-.08c.04.22.15.38.32.5s.39.17.66.17.48-.05.64-.15c.16-.1.24-.23.24-.4,0-.14-.06-.25-.17-.34-.11-.09-.29-.16-.52-.2l-.94-.19c-.53-.11-.92-.29-1.18-.55-.26-.26-.39-.59-.39-1,0-.35.09-.65.28-.9.19-.25.46-.44.8-.58s.75-.2,1.21-.2c.68,0,1.22.14,1.62.43.39.29.62.68.69,1.18Z"/><path class="k" d="m141.99,158.28v1.13h-3.26v-1.13h3.26Zm-2.52-1.3h1.5v5.04c0,.14.02.25.06.32.04.08.1.13.18.16.08.03.17.05.27.05.07,0,.14,0,.21-.02.07-.01.12-.02.16-.03l.24,1.12c-.08.02-.18.05-.32.08-.14.03-.3.05-.5.06-.36.01-.68-.03-.95-.14s-.48-.28-.63-.51c-.15-.23-.22-.53-.22-.88v-5.24Z"/><path class="k" d="m143.91,163.79c-.34,0-.65-.06-.92-.18-.27-.12-.48-.3-.64-.54s-.23-.54-.23-.89c0-.3.05-.55.17-.76s.26-.37.45-.49.41-.22.65-.28.5-.11.77-.13c.31-.03.57-.06.76-.09.19-.03.33-.07.42-.13s.13-.15.13-.26v-.02c0-.22-.07-.4-.21-.52s-.34-.18-.59-.18c-.27,0-.48.06-.64.18-.16.12-.27.27-.32.45l-1.39-.11c.07-.33.21-.61.42-.85s.47-.43.8-.56c.33-.13.71-.2,1.14-.2.3,0,.59.04.87.11s.52.18.74.33.38.34.51.57c.12.23.19.51.19.83v3.65h-1.42v-.75h-.04c-.09.17-.2.32-.35.45s-.32.23-.53.3c-.2.07-.44.11-.71.11Zm.43-1.04c.22,0,.42-.04.58-.13.17-.09.3-.21.4-.36.1-.15.14-.32.14-.51v-.57s-.11.06-.19.08c-.08.02-.17.05-.27.07-.1.02-.2.04-.3.05-.1.02-.19.03-.27.04-.18.03-.33.07-.46.12-.13.06-.23.13-.31.23-.07.1-.11.21-.11.35,0,.2.07.36.22.47.15.11.34.16.57.16Z"/><path class="k" d="m149.03,160.56v3.13h-1.5v-5.41h1.43v.95h.06c.12-.31.32-.56.6-.75.28-.18.62-.28,1.03-.28.38,0,.7.08.98.25.28.16.5.4.65.7s.23.67.23,1.09v3.45h-1.5v-3.18c0-.33-.08-.59-.25-.78-.17-.19-.41-.28-.71-.28-.2,0-.38.04-.53.13-.15.09-.27.21-.36.38s-.13.36-.13.6Z"/><path class="k" d="m155.55,163.8c-.55,0-1.03-.12-1.43-.35-.4-.24-.7-.56-.92-.98s-.32-.9-.32-1.45.11-1.04.32-1.46c.21-.42.52-.75.92-.98.4-.24.87-.35,1.42-.35.47,0,.89.09,1.24.26s.64.41.84.72c.21.31.32.67.34,1.09h-1.42c-.04-.27-.15-.49-.32-.65s-.39-.25-.67-.25c-.23,0-.44.06-.61.19-.17.13-.31.31-.4.55-.1.24-.14.53-.14.87s.05.64.14.88c.09.24.23.43.4.55.17.13.38.19.61.19.17,0,.33-.04.46-.11.14-.07.25-.17.34-.31.09-.14.15-.3.18-.49h1.42c-.02.41-.14.78-.34,1.09-.2.31-.48.56-.83.73-.35.18-.77.26-1.25.26Z"/><path class="k" d="m160.8,163.8c-.56,0-1.04-.11-1.44-.34s-.71-.55-.92-.96c-.22-.42-.32-.91-.32-1.48s.11-1.04.32-1.47c.22-.42.52-.75.91-.98.39-.23.86-.35,1.39-.35.36,0,.69.06,1,.17.31.11.58.29.81.51.23.23.41.51.54.86.13.34.19.75.19,1.21v.41h-4.57v-.93h3.16c0-.22-.05-.41-.14-.57-.09-.17-.22-.3-.39-.39-.17-.1-.36-.14-.58-.14s-.43.05-.6.16c-.18.1-.31.24-.41.42-.1.18-.15.37-.15.58v.88c0,.27.05.5.15.69.1.19.24.35.42.45.18.11.4.16.65.16.17,0,.32-.02.46-.07s.26-.12.36-.21c.1-.09.17-.21.23-.35l1.39.09c-.07.33-.21.62-.43.87-.22.25-.5.44-.84.58-.34.14-.74.21-1.18.21Z"/></g><rect class="c" x="190.68" y="199.52" width="49.32" height="45.73" rx="2.71" ry="2.71"/><g><path class="k" d="m198.19,214.15v-1.26h5.92v1.26h-2.21v5.96h-1.51v-5.96h-2.21Z"/><path class="k" d="m203.91,220.11v-5.41h1.46v.94h.06c.1-.34.26-.59.5-.76.23-.17.5-.26.8-.26.08,0,.16,0,.24.01s.16.02.23.04v1.33c-.07-.02-.17-.04-.29-.06-.12-.02-.24-.02-.34-.02-.22,0-.42.05-.59.14-.17.09-.31.23-.41.4-.1.17-.15.36-.15.58v3.06h-1.5Z"/><path class="k" d="m208.76,220.21c-.35,0-.65-.06-.92-.18-.27-.12-.48-.3-.64-.54s-.23-.54-.23-.89c0-.3.06-.55.17-.76s.26-.37.45-.49c.19-.12.41-.22.65-.28s.5-.11.77-.13c.31-.03.57-.06.76-.09.19-.03.33-.07.42-.13s.13-.15.13-.26v-.02c0-.22-.07-.4-.21-.52s-.34-.18-.59-.18c-.27,0-.49.06-.65.18-.16.12-.27.27-.32.45l-1.39-.11c.07-.33.21-.61.42-.85.21-.24.47-.43.8-.56.33-.13.71-.2,1.14-.2.3,0,.59.04.87.11s.52.18.74.33.38.34.51.57c.12.23.19.51.19.83v3.65h-1.42v-.75h-.04c-.09.17-.2.32-.35.45s-.32.23-.53.3c-.2.07-.44.11-.71.11Zm.43-1.04c.22,0,.42-.04.58-.13.17-.09.3-.21.4-.36.1-.15.14-.32.14-.51v-.57s-.11.06-.19.08c-.08.02-.17.05-.27.07-.1.02-.2.04-.3.05-.1.02-.19.03-.27.04-.18.03-.33.07-.46.12-.13.06-.23.13-.31.23-.07.1-.11.21-.11.35,0,.2.08.36.22.47.15.11.34.16.57.16Z"/><path class="k" d="m213.13,214c-.22,0-.41-.07-.57-.22-.16-.15-.24-.33-.24-.54s.08-.38.24-.53c.16-.15.35-.22.57-.22s.41.07.57.22c.16.15.24.33.24.53s-.08.39-.24.54c-.16.15-.35.22-.57.22Zm-.75,6.11v-5.41h1.5v5.41h-1.5Z"/><path class="k" d="m215.98,216.98v3.13h-1.5v-5.41h1.43v.95h.06c.12-.31.32-.56.6-.75.28-.18.62-.28,1.03-.28.38,0,.7.08.98.25.28.16.5.4.65.7s.23.67.23,1.09v3.45h-1.5v-3.18c0-.33-.08-.59-.25-.78-.17-.19-.41-.28-.71-.28-.2,0-.38.04-.53.13-.15.09-.27.21-.36.38s-.13.36-.13.6Z"/><path class="k" d="m220.81,214c-.22,0-.41-.07-.57-.22-.16-.15-.24-.33-.24-.54s.08-.38.24-.53c.16-.15.35-.22.57-.22s.41.07.57.22c.16.15.24.33.24.53s-.08.39-.24.54c-.16.15-.35.22-.57.22Zm-.75,6.11v-5.41h1.5v5.41h-1.5Z"/><path class="k" d="m223.66,216.98v3.13h-1.5v-5.41h1.43v.95h.06c.12-.31.32-.56.6-.75.28-.18.62-.28,1.03-.28.38,0,.7.08.98.25.28.16.5.4.65.7s.23.67.23,1.09v3.45h-1.5v-3.18c0-.33-.08-.59-.25-.78-.17-.19-.41-.28-.71-.28-.2,0-.38.04-.53.13-.15.09-.27.21-.36.38s-.13.36-.13.6Z"/><path class="k" d="m230.17,222.25c-.49,0-.9-.07-1.25-.2-.35-.13-.62-.31-.83-.54-.2-.23-.34-.48-.4-.77l1.39-.19c.04.11.11.21.2.3.09.09.21.17.36.23s.34.09.55.09c.33,0,.6-.08.81-.24.21-.16.32-.42.32-.79v-.99h-.06c-.07.15-.17.29-.3.43-.13.13-.3.24-.51.33-.21.08-.45.13-.74.13-.41,0-.78-.09-1.11-.28-.33-.19-.6-.48-.79-.87-.2-.39-.29-.89-.29-1.48s.1-1.12.3-1.54c.2-.41.47-.72.8-.92.33-.2.7-.31,1.09-.31.3,0,.56.05.76.15s.37.23.5.38c.13.15.22.3.29.45h.06v-.91h1.49v5.46c0,.46-.11.85-.34,1.16-.23.31-.54.54-.94.7-.4.16-.86.23-1.37.23Zm.03-3.35c.24,0,.45-.06.61-.18.17-.12.3-.29.39-.52.09-.23.14-.5.14-.82s-.04-.59-.13-.83c-.09-.23-.22-.42-.39-.54-.17-.13-.38-.19-.62-.19s-.45.07-.62.2c-.17.13-.3.32-.38.55s-.13.51-.13.81.04.58.13.81.22.4.38.52c.17.12.38.19.62.19Z"/><path class="k" d="m204.94,232.01v-7.21h2.85c.54,0,1.01.1,1.4.29.39.19.68.47.88.82s.3.77.3,1.25-.1.89-.31,1.23c-.21.34-.51.61-.9.79-.39.18-.86.27-1.42.27h-1.91v-1.23h1.66c.29,0,.53-.04.73-.12.19-.08.34-.2.43-.36.1-.16.14-.36.14-.6s-.05-.44-.14-.61c-.09-.16-.24-.29-.43-.38-.19-.09-.44-.13-.73-.13h-1.03v5.97h-1.53Zm3.9-3.28l1.79,3.28h-1.68l-1.75-3.28h1.64Z"/><path class="k" d="m214.29,229.71v-3.11h1.5v5.41h-1.44v-.98h-.06c-.12.32-.33.57-.61.76-.28.19-.63.29-1.03.29-.36,0-.68-.08-.96-.25-.27-.16-.49-.4-.64-.7-.15-.3-.23-.67-.23-1.09v-3.44h1.5v3.18c0,.32.09.57.26.76s.4.28.68.28c.18,0,.35-.04.51-.12s.28-.21.38-.37.15-.37.14-.61Z"/><path class="k" d="m217.9,228.89v3.13h-1.5v-5.41h1.43v.95h.06c.12-.31.32-.56.6-.75.28-.18.62-.28,1.03-.28.38,0,.7.08.98.25.28.16.5.4.65.7s.23.67.23,1.09v3.45h-1.5v-3.18c0-.33-.08-.59-.25-.78-.17-.19-.41-.28-.71-.28-.2,0-.38.04-.53.13-.15.09-.27.21-.36.38s-.13.36-.13.6Z"/><path class="k" d="m226.47,228.15l-1.37.08c-.02-.12-.07-.22-.15-.32-.08-.1-.18-.17-.3-.23-.12-.06-.28-.09-.45-.09-.23,0-.43.05-.59.15-.16.1-.24.23-.24.39,0,.13.05.24.15.33.1.09.28.16.53.21l.98.2c.53.11.92.28,1.18.52.26.24.39.55.39.94,0,.35-.1.67-.31.93-.21.27-.49.48-.85.62-.36.15-.78.22-1.25.22-.72,0-1.29-.15-1.71-.45-.42-.3-.67-.71-.75-1.22l1.48-.08c.04.22.15.38.32.5.17.11.39.17.66.17s.47-.05.64-.15c.16-.1.24-.23.25-.4,0-.14-.06-.25-.17-.34-.11-.09-.29-.16-.52-.2l-.94-.19c-.53-.11-.92-.29-1.18-.55-.26-.26-.39-.59-.39-1,0-.35.09-.65.28-.9.19-.25.46-.44.8-.58s.75-.2,1.21-.2c.68,0,1.22.14,1.62.43.39.29.62.68.69,1.18Z"/></g><g><path class="i" d="m153.04,97.98v-9.45h3.19c.74,0,1.35.13,1.82.4s.82.63,1.05,1.08c.23.45.34.96.34,1.51s-.11,1.06-.34,1.52c-.23.46-.57.82-1.05,1.09-.47.27-1.07.4-1.81.4h-2.29v-1.02h2.25c.51,0,.92-.09,1.22-.26s.53-.41.67-.71c.14-.3.21-.64.21-1.02s-.07-.72-.21-1.02c-.14-.3-.37-.53-.68-.7-.31-.17-.72-.26-1.24-.26h-2.01v8.44h-1.14Z"/><path class="i" d="m163.17,98.13c-.64,0-1.2-.15-1.68-.46-.48-.3-.86-.73-1.13-1.28-.27-.55-.4-1.19-.4-1.92s.13-1.38.4-1.93c.27-.55.64-.98,1.13-1.28.48-.3,1.04-.46,1.68-.46s1.2.15,1.68.46c.48.3.86.73,1.13,1.28.27.55.4,1.2.4,1.93s-.13,1.37-.4,1.92c-.27.55-.65.97-1.13,1.28-.48.3-1.04.46-1.68.46Zm0-.98c.49,0,.89-.12,1.2-.37.31-.25.55-.58.7-.98.15-.41.23-.85.23-1.32s-.08-.92-.23-1.33c-.15-.41-.38-.74-.7-.99-.31-.25-.71-.38-1.2-.38s-.89.13-1.2.38c-.31.25-.55.58-.7.99s-.23.85-.23,1.33.08.91.23,1.32.38.73.7.98c.31.25.71.37,1.2.37Z"/><path class="i" d="m167.26,97.98v-7.09h1.05v1.07h.07c.13-.35.36-.64.7-.85.34-.22.72-.33,1.14-.33.08,0,.18,0,.3,0,.12,0,.21,0,.27.01v1.11s-.12-.02-.25-.04-.27-.03-.41-.03c-.34,0-.65.07-.92.21-.27.14-.48.34-.64.59-.16.25-.23.54-.23.86v4.49h-1.09Z"/><path class="i" d="m174.85,90.89v.92h-3.67v-.92h3.67Zm-2.6-1.7h1.09v6.76c0,.31.05.54.14.69.09.15.21.25.35.3.14.05.29.08.45.08.12,0,.22,0,.3-.02s.14-.03.18-.03l.22.98c-.07.03-.18.06-.31.09-.13.03-.3.04-.5.04-.31,0-.61-.07-.9-.2-.29-.13-.54-.33-.73-.6s-.29-.61-.29-1.02v-7.05Z"/><path class="i" d="m177.8,98.15c-.45,0-.86-.09-1.22-.26-.37-.17-.66-.42-.87-.74-.21-.32-.32-.72-.32-1.18,0-.41.08-.74.24-.99s.37-.45.64-.6c.27-.14.56-.25.89-.33.33-.07.65-.13.98-.17.43-.06.78-.1,1.05-.13.27-.03.47-.08.59-.15.12-.07.19-.19.19-.37v-.04c0-.46-.12-.81-.37-1.06-.25-.25-.62-.38-1.12-.38s-.93.11-1.22.34c-.3.23-.5.47-.62.73l-1.03-.37c.19-.43.43-.77.74-1.01.31-.24.65-.41,1.02-.51.37-.1.73-.15,1.09-.15.23,0,.49.03.79.08.3.05.58.16.86.33.28.17.51.42.7.75s.28.79.28,1.35v4.67h-1.09v-.96h-.06c-.07.15-.2.32-.37.49-.17.18-.4.32-.69.45s-.64.18-1.05.18Zm.17-.98c.43,0,.79-.08,1.09-.25s.52-.39.67-.66c.15-.27.23-.55.23-.84v-1c-.05.06-.15.11-.3.15-.16.04-.33.08-.54.12-.2.03-.4.06-.59.08-.19.02-.34.04-.46.06-.28.04-.55.1-.79.18-.24.08-.44.2-.59.36s-.22.38-.22.66c0,.38.14.66.42.86.28.19.64.29,1.07.29Z"/><path class="i" d="m183.35,88.53v9.45h-1.09v-9.45h1.09Z"/></g><g><path class="i" d="m248.69,55.71v-.86h6v.86h-2.52v7.14h-.97v-7.14h-2.52Z"/><path class="i" d="m254.78,62.85v-6h.89v.91h.06c.11-.3.31-.54.59-.72.29-.19.61-.28.97-.28.07,0,.15,0,.25,0s.18,0,.23.01v.94s-.1-.02-.21-.04c-.11-.02-.23-.03-.35-.03-.29,0-.55.06-.78.18-.23.12-.41.29-.54.5-.13.21-.2.45-.2.72v3.8h-.92Z"/><path class="i" d="m259.98,63c-.38,0-.73-.07-1.04-.22-.31-.14-.56-.35-.74-.63-.18-.27-.27-.61-.27-1,0-.34.07-.62.2-.84.13-.21.32-.38.54-.51s.48-.21.75-.28c.27-.06.55-.11.83-.15.36-.05.66-.08.89-.11.23-.02.39-.07.5-.13s.16-.16.16-.31v-.03c0-.39-.11-.69-.31-.9-.21-.21-.53-.32-.95-.32s-.79.1-1.04.29-.43.4-.53.62l-.88-.31c.16-.36.37-.65.63-.85s.55-.35.86-.43c.31-.08.62-.12.92-.12.19,0,.41.02.67.07.25.05.49.14.73.28.24.14.43.35.59.64s.23.66.23,1.14v3.95h-.92v-.81h-.05c-.06.13-.17.27-.31.42-.15.15-.34.27-.58.38s-.54.16-.89.16Zm.14-.83c.36,0,.67-.07.92-.21.25-.14.44-.33.57-.55s.19-.46.19-.71v-.84s-.12.09-.26.13c-.13.04-.28.07-.45.1-.17.03-.34.05-.5.07s-.29.04-.39.05c-.24.03-.46.08-.67.15s-.37.17-.5.31c-.13.14-.19.32-.19.56,0,.32.12.56.36.72s.54.24.91.24Z"/><path class="i" d="m264.23,55.85c-.18,0-.33-.06-.46-.18s-.19-.27-.19-.44.06-.32.19-.44.28-.18.46-.18.33.06.46.18.19.27.19.44-.06.32-.19.44-.28.18-.46.18Zm-.47,7v-6h.92v6h-.92Z"/><path class="i" d="m266.63,59.25v3.61h-.92v-6h.89v.94h.08c.14-.3.35-.55.64-.74.29-.19.66-.28,1.11-.28.41,0,.76.08,1.07.25s.54.42.71.75c.17.33.25.76.25,1.27v3.81h-.92v-3.75c0-.47-.12-.84-.37-1.1-.25-.26-.58-.4-1.01-.4-.29,0-.56.06-.79.19s-.41.31-.54.56-.2.54-.2.89Z"/><path class="i" d="m274,62.98c-.58,0-1.08-.13-1.49-.38s-.74-.62-.96-1.08c-.23-.46-.34-1-.34-1.62s.11-1.16.34-1.63c.22-.47.54-.84.95-1.1.4-.26.88-.4,1.42-.4.31,0,.62.05.93.16s.58.27.83.51.45.54.6.92.22.85.22,1.41v.39h-4.62v-.8h3.69c0-.34-.07-.64-.2-.91-.13-.27-.32-.48-.57-.63s-.54-.23-.87-.23c-.37,0-.68.09-.95.27-.27.18-.47.42-.62.71-.14.29-.21.6-.21.93v.53c0,.45.08.84.24,1.15.16.31.38.55.66.71s.61.24.98.24c.24,0,.46-.03.66-.1.2-.07.37-.17.51-.31.14-.14.25-.31.33-.52l.89.25c-.09.3-.25.57-.47.79-.22.23-.5.4-.82.53-.33.13-.69.19-1.1.19Z"/><path class="i" d="m279.75,62.98c-.58,0-1.08-.13-1.49-.38s-.74-.62-.96-1.08c-.23-.46-.34-1-.34-1.62s.11-1.16.34-1.63c.22-.47.54-.84.95-1.1.4-.26.88-.4,1.42-.4.31,0,.62.05.93.16s.58.27.83.51.45.54.6.92.22.85.22,1.41v.39h-4.62v-.8h3.69c0-.34-.07-.64-.2-.91-.13-.27-.32-.48-.57-.63s-.54-.23-.87-.23c-.37,0-.68.09-.95.27-.27.18-.47.42-.62.71-.14.29-.21.6-.21.93v.53c0,.45.08.84.24,1.15.16.31.38.55.66.71s.61.24.98.24c.24,0,.46-.03.66-.1.2-.07.37-.17.51-.31.14-.14.25-.31.33-.52l.89.25c-.09.3-.25.57-.47.79-.22.23-.5.4-.82.53-.33.13-.69.19-1.1.19Z"/><path class="i" d="m287.23,58.2l-.83.23c-.05-.14-.13-.27-.23-.4-.1-.13-.24-.24-.41-.33s-.39-.13-.66-.13c-.37,0-.67.08-.92.25-.24.17-.37.38-.37.64,0,.23.08.41.25.54.17.13.43.24.78.33l.89.22c.54.13.94.33,1.2.6.26.27.39.61.39,1.03,0,.34-.1.65-.29.92-.2.27-.47.48-.82.64s-.76.23-1.23.23c-.61,0-1.12-.13-1.52-.4-.4-.27-.65-.65-.76-1.16l.88-.22c.08.32.24.56.47.73.23.16.54.24.92.24.43,0,.77-.09,1.03-.28s.38-.4.38-.66c0-.21-.07-.38-.22-.53-.15-.14-.37-.25-.67-.32l-1-.23c-.55-.13-.95-.33-1.21-.61-.26-.27-.38-.62-.38-1.03,0-.34.1-.64.29-.9s.45-.46.79-.61.71-.22,1.13-.22c.59,0,1.06.13,1.4.39s.58.6.72,1.03Z"/></g><g><path class="i" d="m44.07,55v8h-.97v-8h.97Z"/><path class="i" d="m46.15,59.39v3.61h-.92v-6h.89v.94h.08c.14-.3.35-.55.64-.74s.66-.28,1.11-.28c.41,0,.76.08,1.07.25s.54.42.71.75.25.76.25,1.27v3.81h-.92v-3.75c0-.47-.12-.84-.37-1.1s-.58-.4-1.01-.4c-.29,0-.56.06-.79.19s-.41.31-.54.56-.2.54-.2.89Z"/><path class="i" d="m55.25,58.34l-.83.23c-.05-.14-.13-.27-.23-.4s-.24-.24-.41-.33-.39-.13-.66-.13c-.37,0-.67.08-.92.25s-.37.38-.37.64c0,.23.08.41.25.54s.43.24.78.33l.89.22c.54.13.94.33,1.2.6s.39.61.39,1.03c0,.34-.1.65-.29.92s-.47.48-.82.64-.76.23-1.23.23c-.61,0-1.12-.13-1.52-.4s-.65-.65-.76-1.16l.88-.22c.08.32.24.56.47.73s.54.24.92.24c.43,0,.77-.09,1.03-.28s.38-.4.38-.66c0-.21-.07-.38-.22-.53s-.37-.25-.67-.32l-1-.23c-.55-.13-.95-.33-1.21-.61s-.38-.62-.38-1.03c0-.34.1-.64.29-.9s.45-.46.79-.61.71-.22,1.13-.22c.59,0,1.06.13,1.4.39s.58.6.72,1.03Z"/><path class="i" d="m58.7,57v.78h-3.11v-.78h3.11Zm-2.2-1.44h.92v5.72c0,.26.04.46.12.58s.18.21.3.26.25.06.38.06c.1,0,.19,0,.25-.02s.12-.02.16-.03l.19.83c-.06.02-.15.05-.26.07s-.25.04-.43.04c-.26,0-.52-.06-.76-.17s-.45-.28-.62-.51-.24-.52-.24-.87v-5.97Z"/><path class="i" d="m59.43,63v-6h.89v.91h.06c.11-.3.31-.54.59-.72s.61-.28.97-.28c.07,0,.15,0,.25,0s.18,0,.23.01v.94s-.1-.02-.21-.04-.23-.03-.35-.03c-.29,0-.55.06-.78.18s-.41.29-.54.5-.2.45-.2.72v3.8h-.92Z"/><path class="i" d="m66.65,60.54v-3.55h.92v6h-.92v-1.02h-.06c-.14.3-.36.56-.66.78s-.67.32-1.12.32c-.38,0-.71-.08-1-.25s-.52-.42-.69-.75-.25-.76-.25-1.27v-3.81h.92v3.75c0,.44.12.79.37,1.05s.56.39.94.39c.23,0,.46-.06.7-.18s.44-.3.6-.54.24-.55.24-.93Z"/><path class="i" d="m71.03,63.12c-.56,0-1.05-.13-1.45-.4s-.72-.63-.94-1.1-.33-1-.33-1.6.11-1.15.34-1.62.54-.83.95-1.1.88-.4,1.42-.4c.42,0,.8.08,1.14.23s.62.38.83.66.35.61.4.98h-.92c-.07-.27-.23-.52-.47-.73s-.56-.32-.97-.32c-.36,0-.67.09-.94.28s-.48.45-.63.79-.22.73-.22,1.19.07.87.22,1.21.36.61.62.8.59.29.95.29c.24,0,.46-.04.65-.12s.36-.2.5-.36.23-.34.29-.56h.92c-.05.35-.18.67-.38.96s-.47.51-.81.67-.72.25-1.17.25Z"/><path class="i" d="m76.68,57v.78h-3.11v-.78h3.11Zm-2.2-1.44h.92v5.72c0,.26.04.46.12.58s.18.21.3.26.25.06.38.06c.1,0,.19,0,.25-.02s.12-.02.16-.03l.19.83c-.06.02-.15.05-.26.07s-.25.04-.43.04c-.26,0-.52-.06-.76-.17s-.45-.28-.62-.51-.24-.52-.24-.87v-5.97Z"/><path class="i" d="m79.79,63.12c-.54,0-1.02-.13-1.42-.39s-.73-.62-.95-1.08-.34-1.01-.34-1.62.11-1.17.34-1.64.55-.83.95-1.09.88-.39,1.42-.39,1.02.13,1.42.39.73.62.95,1.09.34,1.01.34,1.64-.11,1.16-.34,1.62-.55.82-.95,1.08-.88.39-1.42.39Zm0-.83c.41,0,.75-.11,1.02-.32s.46-.49.59-.83.19-.72.19-1.12-.06-.77-.19-1.12-.32-.63-.59-.84-.6-.32-1.02-.32-.75.11-1.02.32-.46.49-.59.84-.19.72-.19,1.12.06.77.19,1.12.32.62.59.83.6.32,1.02.32Z"/><path class="i" d="m83.26,63v-6h.89v.91h.06c.11-.3.31-.54.59-.72s.61-.28.97-.28c.07,0,.15,0,.25,0s.18,0,.23.01v.94s-.1-.02-.21-.04-.23-.03-.35-.03c-.29,0-.55.06-.78.18s-.41.29-.54.5-.2.45-.2.72v3.8h-.92Z"/><path class="i" d="m90.94,58.34l-.83.23c-.05-.14-.13-.27-.23-.4s-.24-.24-.41-.33-.39-.13-.66-.13c-.37,0-.67.08-.92.25s-.37.38-.37.64c0,.23.08.41.25.54s.43.24.78.33l.89.22c.54.13.94.33,1.2.6s.39.61.39,1.03c0,.34-.1.65-.29.92s-.47.48-.82.64-.76.23-1.23.23c-.61,0-1.12-.13-1.52-.4s-.65-.65-.76-1.16l.88-.22c.08.32.24.56.47.73s.54.24.92.24c.43,0,.77-.09,1.03-.28s.38-.4.38-.66c0-.21-.07-.38-.22-.53s-.37-.25-.67-.32l-1-.23c-.55-.13-.95-.33-1.21-.61s-.38-.62-.38-1.03c0-.34.1-.64.29-.9s.45-.46.79-.61.71-.22,1.13-.22c.59,0,1.06.13,1.4.39s.58.6.72,1.03Z"/></g><rect class="d" x="139.63" y="288.27" width="65.44" height="25.65" rx="2.34" ry="2.34"/><g><path class="i" d="m143.44,297.7v-1.29h6.06v1.29h-2.26v6.09h-1.54v-6.09h-2.26Z"/><path class="i" d="m149.28,303.79v-5.53h1.49v.96h.06c.1-.34.27-.6.51-.78s.51-.26.82-.26c.08,0,.16,0,.25.01s.17.02.23.04v1.36c-.07-.02-.17-.04-.3-.06-.13-.02-.24-.02-.35-.02-.23,0-.43.05-.6.15-.18.1-.32.23-.42.41s-.15.37-.15.6v3.13h-1.53Z"/><path class="i" d="m154.24,303.89c-.35,0-.67-.06-.94-.19-.28-.12-.49-.31-.65-.55-.16-.24-.24-.55-.24-.91,0-.31.06-.57.17-.77.11-.21.27-.38.46-.5.19-.13.42-.22.66-.29.25-.06.51-.11.78-.14.32-.03.58-.07.78-.09.2-.03.34-.08.43-.14.09-.06.13-.15.13-.27v-.02c0-.23-.07-.4-.21-.53-.14-.12-.35-.19-.61-.19-.28,0-.5.06-.66.18-.16.12-.27.27-.32.46l-1.42-.12c.07-.34.21-.63.42-.87.21-.25.48-.44.82-.57.33-.13.72-.2,1.17-.2.31,0,.6.04.88.11s.53.18.75.33.39.34.52.58c.13.24.19.52.19.85v3.73h-1.46v-.77h-.04c-.09.17-.21.33-.36.46s-.33.23-.54.31-.45.11-.72.11Zm.44-1.06c.23,0,.43-.04.6-.13s.31-.21.41-.37c.1-.15.15-.33.15-.52v-.59s-.11.06-.2.08c-.08.02-.18.05-.28.07s-.21.04-.31.05c-.1.02-.2.03-.28.04-.18.03-.34.07-.47.13-.13.06-.24.13-.31.23-.07.1-.11.22-.11.36,0,.21.08.37.23.48s.35.16.58.16Z"/><path class="i" d="m158.71,297.54c-.23,0-.42-.08-.58-.23s-.24-.34-.24-.55.08-.39.24-.54.36-.23.58-.23.42.08.59.23.24.33.24.54-.08.4-.24.55-.36.23-.59.23Zm-.77,6.25v-5.53h1.53v5.53h-1.53Z"/><path class="i" d="m161.62,300.59v3.2h-1.53v-5.53h1.46v.98h.06c.12-.32.33-.58.62-.77.29-.19.64-.28,1.05-.28.38,0,.72.08,1,.25.29.17.51.41.67.72.16.31.24.68.24,1.11v3.52h-1.53v-3.25c0-.34-.08-.6-.26-.79-.18-.19-.42-.29-.72-.29-.21,0-.39.04-.55.13s-.28.22-.37.39c-.09.17-.13.37-.14.61Z"/><path class="i" d="m166.56,297.54c-.23,0-.42-.08-.58-.23s-.24-.34-.24-.55.08-.39.24-.54.36-.23.58-.23.42.08.59.23.24.33.24.54-.08.4-.24.55-.36.23-.59.23Zm-.77,6.25v-5.53h1.53v5.53h-1.53Z"/><path class="i" d="m169.47,300.59v3.2h-1.53v-5.53h1.46v.98h.07c.12-.32.33-.58.62-.77.29-.19.64-.28,1.05-.28.38,0,.72.08,1,.25.29.17.51.41.67.72.16.31.24.68.24,1.11v3.52h-1.53v-3.25c0-.34-.08-.6-.26-.79-.18-.19-.42-.29-.72-.29-.21,0-.39.04-.54.13s-.28.22-.37.39c-.09.17-.13.37-.14.61Z"/><path class="i" d="m176.13,305.98c-.5,0-.92-.07-1.28-.2-.35-.14-.64-.32-.84-.55-.21-.23-.34-.5-.41-.79l1.42-.19c.04.11.11.21.21.31.09.1.22.17.37.23.15.06.34.09.57.09.33,0,.61-.08.83-.24.22-.16.33-.43.33-.81v-1.01h-.07c-.07.15-.17.3-.3.44-.13.14-.31.25-.52.33-.21.09-.46.13-.76.13-.42,0-.79-.1-1.13-.29s-.61-.49-.81-.89c-.2-.4-.3-.91-.3-1.52s.1-1.15.31-1.57c.2-.42.48-.73.82-.94s.71-.31,1.12-.31c.31,0,.57.05.78.16s.38.23.51.39c.13.16.23.31.3.46h.06v-.93h1.52v5.59c0,.47-.12.86-.35,1.18-.23.32-.55.55-.96.71-.41.16-.87.24-1.4.24Zm.03-3.42c.25,0,.46-.06.63-.18.17-.12.3-.3.4-.53s.14-.51.14-.83-.05-.61-.14-.84c-.09-.24-.22-.42-.4-.56-.17-.13-.38-.2-.63-.2s-.46.07-.64.2-.3.32-.39.56-.13.52-.13.83.04.59.13.83c.09.23.22.41.39.54s.38.19.64.19Z"/><path class="i" d="m181.19,303.79v-5.53h1.49v.96h.06c.1-.34.27-.6.51-.78.24-.18.51-.26.82-.26.08,0,.16,0,.25.01s.17.02.23.04v1.36c-.07-.02-.17-.04-.3-.06-.13-.02-.24-.02-.35-.02-.23,0-.43.05-.6.15-.18.1-.32.23-.42.41-.1.17-.15.37-.15.6v3.13h-1.53Z"/><path class="i" d="m188.27,301.43v-3.18h1.53v5.53h-1.47v-1h-.06c-.12.32-.33.58-.62.78-.29.2-.64.3-1.06.3-.37,0-.69-.08-.98-.25s-.5-.41-.66-.72c-.16-.31-.24-.68-.24-1.11v-3.52h1.53v3.25c0,.33.09.58.26.77.17.19.4.28.7.28.18,0,.36-.04.52-.13.16-.08.29-.21.39-.38s.15-.38.15-.62Z"/><path class="i" d="m191.96,300.59v3.2h-1.53v-5.53h1.46v.98h.06c.12-.32.33-.58.62-.77s.64-.28,1.05-.28c.38,0,.72.08,1,.25.29.17.51.41.67.72.16.31.24.68.24,1.11v3.52h-1.53v-3.25c0-.34-.08-.6-.26-.79-.17-.19-.42-.29-.72-.29-.21,0-.39.04-.55.13s-.28.22-.37.39c-.09.17-.13.37-.13.61Z"/><path class="i" d="m201.06,296.41v7.38h-1.56v-5.9h-.04l-1.69,1.06v-1.38l1.83-1.16h1.47Z"/></g><rect class="d" x="225.4" y="288.27" width="65.44" height="25.65" rx="2.34" ry="2.34"/><g><path class="i" d="m227.96,297.7v-1.29h6.06v1.29h-2.26v6.09h-1.54v-6.09h-2.26Z"/><path class="i" d="m233.81,303.79v-5.53h1.49v.96h.06c.1-.34.27-.6.51-.78.24-.18.51-.26.82-.26.08,0,.16,0,.25.01s.17.02.23.04v1.36c-.07-.02-.17-.04-.3-.06-.13-.02-.24-.02-.35-.02-.23,0-.43.05-.6.15-.18.1-.32.23-.42.41-.1.17-.15.37-.15.6v3.13h-1.53Z"/><path class="i" d="m238.77,303.89c-.35,0-.67-.06-.94-.19-.28-.12-.49-.31-.65-.55-.16-.24-.24-.55-.24-.91,0-.31.06-.57.17-.77s.27-.38.46-.5c.19-.13.42-.22.66-.29.25-.06.51-.11.78-.14.32-.03.58-.07.78-.09.2-.03.34-.08.43-.14.09-.06.13-.15.13-.27v-.02c0-.23-.07-.4-.21-.53s-.34-.19-.61-.19c-.28,0-.5.06-.66.18-.16.12-.27.27-.32.46l-1.42-.12c.07-.34.21-.63.42-.87s.48-.44.82-.57c.33-.13.72-.2,1.17-.2.31,0,.6.04.88.11s.53.18.75.33.39.34.52.58c.13.24.19.52.19.85v3.73h-1.46v-.77h-.04c-.09.17-.21.33-.36.46-.15.13-.33.23-.54.31s-.45.11-.72.11Zm.44-1.06c.23,0,.43-.04.6-.13s.31-.21.41-.37c.1-.15.15-.33.15-.52v-.59s-.11.06-.2.08c-.08.02-.18.05-.28.07-.1.02-.21.04-.31.05-.1.02-.2.03-.28.04-.18.03-.34.07-.47.13-.13.06-.24.13-.31.23-.07.1-.11.22-.11.36,0,.21.08.37.23.48s.35.16.58.16Z"/><path class="i" d="m243.24,297.54c-.23,0-.42-.08-.58-.23s-.24-.34-.24-.55.08-.39.24-.54.36-.23.58-.23.42.08.59.23.24.33.24.54-.08.4-.24.55-.36.23-.59.23Zm-.77,6.25v-5.53h1.53v5.53h-1.53Z"/><path class="i" d="m246.15,300.59v3.2h-1.53v-5.53h1.46v.98h.06c.12-.32.33-.58.62-.77s.64-.28,1.05-.28c.38,0,.72.08,1,.25.29.17.51.41.67.72.16.31.24.68.24,1.11v3.52h-1.53v-3.25c0-.34-.08-.6-.26-.79-.17-.19-.42-.29-.72-.29-.21,0-.39.04-.55.13s-.28.22-.37.39c-.09.17-.13.37-.13.61Z"/><path class="i" d="m251.09,297.54c-.23,0-.42-.08-.58-.23s-.24-.34-.24-.55.08-.39.24-.54.36-.23.58-.23.42.08.59.23.24.33.24.54-.08.4-.24.55-.36.23-.59.23Zm-.77,6.25v-5.53h1.53v5.53h-1.53Z"/><path class="i" d="m254,300.59v3.2h-1.53v-5.53h1.46v.98h.06c.12-.32.33-.58.62-.77s.64-.28,1.05-.28c.38,0,.72.08,1,.25.29.17.51.41.67.72.16.31.24.68.24,1.11v3.52h-1.53v-3.25c0-.34-.08-.6-.26-.79-.17-.19-.42-.29-.72-.29-.21,0-.39.04-.55.13s-.28.22-.37.39c-.09.17-.13.37-.13.61Z"/><path class="i" d="m260.65,305.98c-.5,0-.92-.07-1.28-.2-.35-.14-.64-.32-.84-.55-.21-.23-.34-.5-.41-.79l1.42-.19c.04.11.11.21.21.31.09.1.22.17.37.23.16.06.34.09.57.09.33,0,.61-.08.83-.24.22-.16.33-.43.33-.81v-1.01h-.06c-.07.15-.17.3-.3.44s-.31.25-.52.33c-.21.09-.46.13-.76.13-.42,0-.79-.1-1.13-.29s-.61-.49-.81-.89c-.2-.4-.3-.91-.3-1.52s.1-1.15.31-1.57c.2-.42.48-.73.82-.94s.71-.31,1.12-.31c.31,0,.57.05.78.16.21.1.38.23.51.39.13.16.23.31.3.46h.06v-.93h1.52v5.59c0,.47-.12.86-.35,1.18-.23.32-.55.55-.96.71-.41.16-.88.24-1.4.24Zm.03-3.42c.25,0,.46-.06.63-.18.17-.12.3-.3.4-.53.09-.23.14-.51.14-.83s-.05-.61-.14-.84c-.09-.24-.22-.42-.4-.56-.17-.13-.38-.2-.63-.2s-.46.07-.64.2-.3.32-.39.56-.13.52-.13.83.04.59.14.83c.09.23.22.41.39.54.17.13.38.19.63.19Z"/><path class="i" d="m265.72,303.79v-5.53h1.49v.96h.06c.1-.34.27-.6.51-.78.24-.18.51-.26.82-.26.08,0,.16,0,.25.01s.17.02.23.04v1.36c-.07-.02-.17-.04-.3-.06-.13-.02-.24-.02-.35-.02-.23,0-.43.05-.6.15-.18.1-.32.23-.42.41-.1.17-.15.37-.15.6v3.13h-1.53Z"/><path class="i" d="m272.8,301.43v-3.18h1.53v5.53h-1.47v-1h-.06c-.12.32-.33.58-.62.78-.29.2-.64.3-1.06.3-.37,0-.7-.08-.98-.25-.28-.17-.5-.41-.66-.72-.16-.31-.24-.68-.24-1.11v-3.52h1.53v3.25c0,.33.09.58.26.77.17.19.41.28.7.28.19,0,.36-.04.52-.13.16-.08.29-.21.39-.38s.15-.38.15-.62Z"/><path class="i" d="m276.49,300.59v3.2h-1.53v-5.53h1.46v.98h.07c.12-.32.33-.58.62-.77.29-.19.64-.28,1.05-.28.38,0,.72.08,1,.25.29.17.51.41.67.72.16.31.24.68.24,1.11v3.52h-1.53v-3.25c0-.34-.08-.6-.26-.79-.18-.19-.42-.29-.72-.29-.21,0-.39.04-.54.13s-.28.22-.37.39c-.09.17-.13.37-.14.61Z"/><path class="i" d="m288.59,296.41v7.38h-1.35l-3.21-4.64h-.05v4.64h-1.56v-7.38h1.37l3.18,4.64h.06v-4.64h1.55Z"/></g><g><path class="k" d="m212.96,303.12c-.19,0-.36-.07-.5-.21s-.21-.3-.21-.5.07-.36.21-.5c.14-.14.3-.21.5-.21s.36.07.5.21.21.3.21.5c0,.13-.03.25-.1.35-.06.11-.15.19-.25.26-.11.06-.22.1-.35.1Z"/><path class="k" d="m215.34,303.12c-.19,0-.36-.07-.5-.21s-.21-.3-.21-.5.07-.36.21-.5c.14-.14.3-.21.5-.21s.36.07.5.21.21.3.21.5c0,.13-.03.25-.1.35-.06.11-.15.19-.25.26-.11.06-.22.1-.35.1Z"/><path class="k" d="m217.71,303.12c-.19,0-.36-.07-.5-.21s-.21-.3-.21-.5.07-.36.21-.5c.14-.14.3-.21.5-.21s.36.07.5.21.21.3.21.5c0,.13-.03.25-.1.35-.06.11-.15.19-.25.26-.11.06-.22.1-.35.1Z"/></g><polyline class="b" points="172.35 288.27 215.34 245.25 258.54 288.27"/><g><line class="b" x1="94.24" y1="25.37" x2="232.94" y2="25.37"/><polygon class="k" points="240 25.37 230.05 29.44 232.41 25.37 230.05 21.31 240 25.37"/></g><g><polyline class="b" points="144.43 130.89 144.43 35.77 101.3 35.77"/><polygon class="k" points="94.24 35.77 104.19 31.71 101.83 35.77 104.19 39.84 94.24 35.77"/></g><g><line class="b" x1="66.86" y1="66.94" x2="66.86" y2="123.83"/><polygon class="k" points="66.86 130.89 62.8 120.94 66.86 123.3 70.93 120.94 66.86 130.89"/></g><g><polyline class="b" points="294.33 25.37 327.5 25.37 327.5 222.39 247.06 222.39"/><polygon class="k" points="240 222.39 249.95 218.32 247.58 222.39 249.95 226.45 240 222.39"/></g><g><line class="b" x1="91.52" y1="153.62" x2="112.28" y2="153.62"/><polygon class="k" points="119.34 153.62 109.39 157.69 111.75 153.62 109.39 149.56 119.34 153.62"/></g><g><line class="b" x1="169.09" y1="153.62" x2="210.28" y2="153.62"/><polygon class="k" points="217.34 153.62 207.39 157.69 209.75 153.62 207.39 149.56 217.34 153.62"/></g><g><polyline class="b" points="28.61 25.37 .5 25.37 .5 259.06 37.48 259.06"/><polygon class="k" points="35.67 25.37 25.72 21.31 28.08 25.37 25.72 29.44 35.67 25.37"/></g><g><polyline class="b" points="118.16 388.01 172.35 388.01 172.35 320.97"/><polygon class="k" points="111.1 388.01 121.05 392.08 118.69 388.01 121.05 383.95 111.1 388.01"/><polygon class="k" points="172.35 313.91 176.41 323.86 172.35 321.5 168.28 323.86 172.35 313.91"/></g><g><polyline class="b" points="118.16 403.98 258.12 403.98 258.12 320.97"/><polygon class="k" points="111.1 403.98 121.05 408.05 118.69 403.98 121.05 399.92 111.1 403.98"/><polygon class="k" points="258.12 313.91 262.19 323.86 258.12 321.5 254.06 323.86 258.12 313.91"/></g><g><path class="k" d="m110.92,47.23v-7.27h2.46c.57,0,1.03.1,1.4.29.36.19.63.46.81.79.18.34.26.72.26,1.15s-.09.81-.26,1.14c-.18.33-.44.59-.81.78-.36.19-.83.28-1.39.28h-1.99v-.8h1.96c.39,0,.7-.06.94-.17.24-.11.41-.28.52-.48.11-.21.16-.46.16-.75s-.05-.55-.16-.76-.28-.39-.52-.51-.56-.18-.95-.18h-1.55v6.49h-.88Zm3.42-3.27l1.79,3.27h-1.02l-1.76-3.27h.99Z"/><path class="k" d="m118.83,47.34c-.53,0-.98-.12-1.36-.35-.38-.23-.67-.56-.88-.98-.2-.42-.31-.91-.31-1.47s.1-1.05.31-1.48c.21-.43.49-.76.86-1s.8-.36,1.29-.36c.28,0,.56.05.84.14.28.09.53.25.76.46.23.21.41.49.54.84.14.35.2.78.2,1.29v.35h-4.2v-.72h3.35c0-.31-.06-.58-.18-.82-.12-.24-.29-.43-.52-.57s-.49-.21-.79-.21c-.33,0-.62.08-.86.25s-.43.38-.56.64c-.13.26-.2.54-.2.85v.48c0,.41.07.76.21,1.05.14.29.34.5.6.65s.55.22.89.22c.22,0,.42-.03.6-.09.18-.06.33-.16.46-.28.13-.13.23-.28.3-.47l.81.23c-.08.27-.23.52-.43.72-.2.21-.45.37-.75.48s-.63.17-1,.17Z"/><path class="k" d="m125.63,42.99l-.75.21c-.05-.13-.12-.25-.21-.37-.09-.12-.21-.22-.37-.3s-.36-.12-.6-.12c-.33,0-.61.08-.83.23-.22.15-.33.35-.33.58,0,.21.08.37.23.49.15.12.39.22.71.3l.81.2c.49.12.85.3,1.09.54.24.24.36.55.36.94,0,.31-.09.59-.27.84-.18.25-.43.44-.75.58-.32.14-.69.21-1.11.21-.56,0-1.02-.12-1.38-.36-.36-.24-.6-.59-.69-1.06l.8-.2c.08.29.22.51.43.66.21.15.49.22.83.22.39,0,.7-.08.93-.25.23-.17.35-.37.35-.6,0-.19-.07-.35-.2-.48-.13-.13-.34-.23-.61-.29l-.91-.21c-.5-.12-.87-.3-1.1-.55-.23-.25-.35-.56-.35-.94,0-.31.09-.58.26-.82s.41-.42.71-.56c.3-.13.64-.2,1.03-.2.54,0,.96.12,1.27.35.31.24.53.55.66.94Z"/><path class="k" d="m129.83,45v-3.22h.84v5.45h-.84v-.92h-.06c-.13.28-.33.51-.6.71-.27.19-.61.29-1.02.29-.34,0-.64-.07-.91-.23s-.47-.38-.62-.68c-.15-.3-.23-.69-.23-1.15v-3.47h.84v3.41c0,.4.11.71.34.95.22.24.51.35.86.35.21,0,.42-.05.64-.16.22-.11.4-.27.55-.49s.22-.5.22-.84Z"/><path class="k" d="m132.44,39.95v7.27h-.84v-7.27h.84Z"/><path class="k" d="m135.74,41.77v.71h-2.83v-.71h2.83Zm-2-1.31h.84v5.2c0,.24.03.41.1.53s.16.2.27.23c.11.04.23.06.35.06.09,0,.17,0,.23-.02.06-.01.11-.02.14-.03l.17.75c-.06.02-.14.04-.24.07-.1.02-.23.03-.39.03-.24,0-.47-.05-.69-.15-.23-.1-.41-.26-.56-.47s-.22-.47-.22-.79v-5.43Z"/><path class="k" d="m140.17,42.99l-.75.21c-.05-.13-.12-.25-.21-.37-.09-.12-.21-.22-.37-.3s-.36-.12-.6-.12c-.33,0-.61.08-.83.23-.22.15-.33.35-.33.58,0,.21.08.37.23.49.15.12.39.22.71.3l.81.2c.49.12.85.3,1.09.54.24.24.36.55.36.94,0,.31-.09.59-.27.84-.18.25-.43.44-.75.58-.32.14-.69.21-1.11.21-.56,0-1.02-.12-1.38-.36-.36-.24-.6-.59-.69-1.06l.8-.2c.08.29.22.51.43.66.21.15.49.22.83.22.39,0,.7-.08.93-.25.23-.17.35-.37.35-.6,0-.19-.07-.35-.2-.48-.13-.13-.34-.23-.61-.29l-.91-.21c-.5-.12-.87-.3-1.1-.55-.23-.25-.35-.56-.35-.94,0-.31.09-.58.26-.82s.41-.42.71-.56c.3-.13.64-.2,1.03-.2.54,0,.96.12,1.27.35.31.24.53.55.66.94Z"/></g><g><path class="k" d="m256.5,219.18h-.92l2.67-7.27h.91l2.67,7.27h-.92l-2.17-6.12h-.06l-2.17,6.12Zm.34-2.84h3.72v.78h-3.72v-.78Z"/><path class="k" d="m264.46,219.29c-.51,0-.95-.12-1.32-.36-.37-.24-.65-.57-.85-1-.2-.42-.3-.91-.3-1.45s.1-1.04.31-1.47c.21-.42.49-.76.86-1s.8-.36,1.29-.36c.38,0,.73.07,1.04.21.31.14.56.34.76.6.2.26.32.55.37.9h-.84c-.06-.25-.21-.47-.42-.66s-.51-.29-.88-.29c-.33,0-.61.08-.86.25-.25.17-.44.41-.57.71-.14.31-.2.67-.2,1.08s.07.79.2,1.1.32.56.57.73.53.26.86.26c.22,0,.42-.04.59-.11.18-.08.33-.18.45-.33s.21-.31.26-.51h.84c-.05.32-.16.61-.35.87-.19.26-.43.46-.73.61-.3.15-.66.23-1.06.23Z"/><path class="k" d="m269.45,219.29c-.51,0-.95-.12-1.32-.36-.37-.24-.65-.57-.85-1-.2-.42-.3-.91-.3-1.45s.1-1.04.31-1.47c.21-.42.49-.76.86-1s.8-.36,1.29-.36c.38,0,.73.07,1.04.21.31.14.56.34.76.6.2.26.32.55.37.9h-.84c-.06-.25-.21-.47-.42-.66s-.51-.29-.88-.29c-.33,0-.61.08-.86.25-.25.17-.44.41-.57.71-.14.31-.2.67-.2,1.08s.07.79.2,1.1.32.56.57.73.53.26.86.26c.22,0,.42-.04.59-.11.18-.08.33-.18.45-.33s.21-.31.26-.51h.84c-.05.32-.16.61-.35.87-.19.26-.43.46-.73.61-.3.15-.66.23-1.06.23Z"/><path class="k" d="m274.5,219.29c-.53,0-.98-.12-1.36-.35-.38-.23-.67-.56-.88-.98-.21-.42-.31-.91-.31-1.47s.1-1.05.31-1.48.49-.76.86-1,.8-.36,1.29-.36c.28,0,.56.05.84.14.28.09.53.25.76.46s.41.49.54.84c.14.35.2.78.2,1.29v.35h-4.21v-.72h3.35c0-.31-.06-.58-.18-.82-.12-.24-.29-.43-.52-.57s-.49-.21-.79-.21c-.33,0-.62.08-.87.25-.24.16-.43.38-.56.64-.13.26-.2.54-.2.85v.48c0,.41.07.76.21,1.05.14.29.34.5.6.65s.55.22.89.22c.22,0,.42-.03.6-.09.18-.06.33-.16.46-.28.13-.13.23-.28.3-.47l.81.23c-.08.27-.23.52-.43.72-.2.21-.45.37-.75.48s-.63.17-1,.17Z"/><path class="k" d="m281.3,214.95l-.75.21c-.05-.13-.12-.25-.21-.37-.09-.12-.21-.22-.37-.3s-.36-.12-.6-.12c-.33,0-.61.08-.83.23-.22.15-.33.35-.33.58,0,.21.08.37.23.49.15.12.39.22.71.3l.81.2c.49.12.85.3,1.09.54s.36.55.36.94c0,.31-.09.59-.27.84-.18.25-.43.44-.75.58-.32.14-.69.21-1.11.21-.56,0-1.02-.12-1.38-.36-.36-.24-.6-.59-.69-1.06l.79-.2c.08.29.22.51.43.66.21.15.49.22.83.22.39,0,.7-.08.93-.25.23-.17.35-.37.35-.6,0-.19-.07-.35-.2-.48-.13-.13-.34-.23-.61-.29l-.91-.21c-.5-.12-.87-.3-1.1-.55-.23-.25-.35-.56-.35-.94,0-.31.09-.58.26-.82s.41-.42.71-.56c.3-.13.64-.2,1.03-.2.54,0,.96.12,1.27.35s.53.55.66.94Z"/><path class="k" d="m285.93,214.95l-.75.21c-.05-.13-.12-.25-.21-.37-.09-.12-.21-.22-.37-.3s-.36-.12-.6-.12c-.33,0-.61.08-.83.23-.22.15-.33.35-.33.58,0,.21.08.37.23.49.15.12.39.22.71.3l.81.2c.49.12.85.3,1.09.54.24.24.36.55.36.94,0,.31-.09.59-.27.84-.18.25-.43.44-.75.58s-.69.21-1.12.21c-.56,0-1.02-.12-1.38-.36-.37-.24-.6-.59-.69-1.06l.8-.2c.08.29.22.51.43.66.21.15.49.22.83.22.39,0,.7-.08.93-.25s.35-.37.35-.6c0-.19-.07-.35-.2-.48-.13-.13-.34-.23-.61-.29l-.91-.21c-.5-.12-.87-.3-1.1-.55-.23-.25-.35-.56-.35-.94,0-.31.09-.58.26-.82s.41-.42.71-.56c.3-.13.64-.2,1.03-.2.54,0,.96.12,1.27.35.31.24.53.55.66.94Z"/><path class="k" d="m291.28,213.72v.71h-2.83v-.71h2.83Zm-2-1.31h.84v5.2c0,.24.03.41.1.53.07.12.16.2.27.23s.23.06.35.06c.09,0,.17,0,.23-.02.06-.01.11-.02.14-.03l.17.75c-.06.02-.14.04-.24.07-.1.02-.23.03-.39.03-.24,0-.47-.05-.69-.15-.23-.1-.41-.26-.56-.47-.15-.21-.22-.47-.22-.79v-5.43Z"/><path class="k" d="m294.1,219.29c-.49,0-.92-.12-1.29-.35-.37-.23-.66-.56-.87-.98s-.31-.91-.31-1.48.1-1.06.31-1.49c.21-.42.5-.75.87-.99.37-.23.8-.35,1.29-.35s.92.12,1.29.35c.37.23.66.56.87.99.21.42.31.92.31,1.49s-.1,1.06-.31,1.48c-.21.42-.5.75-.87.98-.37.23-.8.35-1.29.35Zm0-.75c.37,0,.68-.1.92-.29.24-.19.42-.44.54-.76.12-.31.17-.65.17-1.02s-.06-.7-.17-1.02c-.12-.31-.29-.57-.54-.76-.24-.19-.55-.29-.92-.29s-.68.1-.92.29c-.24.19-.42.45-.54.76-.12.31-.17.65-.17,1.02s.06.7.17,1.02.29.56.54.76c.24.19.55.29.92.29Z"/><path class="k" d="m297.25,219.18v-7.27h.84v7.27h-.84Zm.78-1.99v-1.04s.16,0,.16,0l2.39-2.43h1.04l-2.54,2.57h-.07l-.97.89Zm2.68,1.99l-2.13-2.7.6-.58,2.6,3.28h-1.07Z"/><path class="k" d="m304.15,219.29c-.53,0-.98-.12-1.36-.35-.38-.23-.67-.56-.88-.98-.2-.42-.31-.91-.31-1.47s.1-1.05.31-1.48c.21-.43.49-.76.86-1s.8-.36,1.29-.36c.28,0,.56.05.84.14s.53.25.76.46c.23.21.41.49.54.84.13.35.2.78.2,1.29v.35h-4.2v-.72h3.35c0-.31-.06-.58-.18-.82-.12-.24-.29-.43-.52-.57s-.49-.21-.79-.21c-.33,0-.62.08-.86.25-.24.16-.43.38-.56.64-.13.26-.2.54-.2.85v.48c0,.41.07.76.21,1.05.14.29.34.5.6.65s.55.22.89.22c.22,0,.42-.03.6-.09.18-.06.33-.16.46-.28.13-.13.23-.28.3-.47l.81.23c-.08.27-.23.52-.43.72s-.45.37-.75.48-.63.17-1,.17Z"/><path class="k" d="m307.92,215.9v3.28h-.84v-5.45h.81v.85h.07c.13-.28.32-.5.58-.67.26-.17.6-.25,1.01-.25.37,0,.69.08.97.23.28.15.49.38.65.68.15.3.23.69.23,1.15v3.47h-.84v-3.41c0-.43-.11-.76-.33-1s-.53-.36-.92-.36c-.27,0-.51.06-.72.17-.21.12-.38.29-.5.51-.12.22-.18.49-.18.81Z"/></g></svg>