<?xml version="1.0" encoding="UTF-8"?><svg id="a" xmlns="http://www.w3.org/2000/svg" viewBox="0 0 294.32 253.41"><defs><style>.b,.c{stroke:#231f20;}.b,.c,.d,.e,.f,.g{fill:none;stroke-miterlimit:10;}.c{stroke-width:.65px;}.d{stroke-width:.5px;}.d,.e{stroke:#405daa;}.h,.i{fill:#405daa;}.e{stroke-width:.3px;}.f{stroke-dasharray:0 0 1.51 1.51;}.f,.g{stroke:#3c5daa;stroke-width:.57px;}.i{fill-rule:evenodd;}.g{stroke-dasharray:0 0 1.51 1.51;}.j{fill:#231f20;}</style></defs><g><path class="d" d="m162.42,163.23l-4.09,12.48c-.05.17,0,.35.14.45l11.79,8.75c.15.11.35.11.49,0l11.53-9.01c.13-.11.19-.28.14-.45l-4.05-12.21c-.12-.36-.63-.37-.76-.02l-2.89,7.62c-.06.16-.21.26-.38.26l-7.85-.11c-.16,0-.31-.1-.37-.26l-2.93-7.52c-.14-.35-.64-.34-.76.02Z"/><path class="e" d="m180.85,171.15l-9.88,13.58c-.23.3-.68.3-.91,0l-9.98-13.27c-.1-.13,0-.31.15-.31h5.95l3.97,13.42c.12.38.65.38.77,0l3.75-13.43h5.92c.06,0,.31-.05.27,0Z"/></g><rect class="g" x="144.87" y="157.51" width="149.17" height="89.61" rx="11.66" ry="11.66"/><g><path class="h" d="m200.93,173.11c-.09-.29-.22-.54-.37-.77-.15-.23-.33-.42-.54-.59-.21-.16-.45-.29-.71-.37-.26-.08-.55-.13-.87-.13-.52,0-.99.13-1.41.4-.42.27-.76.66-1.01,1.18-.25.52-.38,1.16-.38,1.91s.13,1.39.38,1.91.59.91,1.03,1.18c.43.27.92.4,1.46.4.5,0,.94-.11,1.32-.32.38-.21.68-.52.89-.91s.32-.86.32-1.39l.32.07h-2.62v-.94h3.32v.94c0,.72-.15,1.34-.46,1.88-.31.53-.73.94-1.26,1.23s-1.15.44-1.84.44c-.77,0-1.45-.18-2.04-.54-.58-.36-1.04-.88-1.36-1.55-.33-.67-.49-1.47-.49-2.39,0-.69.09-1.31.28-1.86.19-.55.45-1.02.79-1.41s.74-.69,1.21-.89c.47-.21.98-.31,1.54-.31.46,0,.89.07,1.29.21s.76.33,1.07.58c.31.25.58.55.79.9.21.35.36.73.43,1.16h-1.09Z"/><path class="h" d="m203.95,171.47c-.2,0-.36-.07-.5-.2-.14-.13-.21-.29-.21-.48s.07-.35.21-.48.31-.2.5-.2.36.07.5.2.21.29.21.48-.07.35-.21.48c-.14.13-.31.2-.5.2Zm-.51,7.64v-6.55h1v6.55h-1Z"/><path class="h" d="m208.41,172.56v.85h-3.39v-.85h3.39Zm-2.4-1.57h1.01v6.24c0,.28.04.5.13.64s.19.23.32.28c.13.05.27.07.42.07.11,0,.2,0,.27-.02.07-.01.13-.02.17-.03l.21.9c-.07.03-.16.05-.29.08-.12.03-.28.04-.46.04-.28,0-.56-.06-.83-.18-.27-.12-.5-.31-.67-.56s-.27-.57-.27-.95v-6.51Z"/><path class="h" d="m211.86,179.11v-6.55h.97v.99h.07c.12-.32.33-.59.65-.79.31-.2.66-.3,1.06-.3.07,0,.17,0,.28,0,.11,0,.2,0,.25.01v1.02s-.11-.02-.23-.04-.25-.03-.38-.03c-.32,0-.6.07-.85.2-.25.13-.44.31-.59.54s-.22.5-.22.79v4.14h-1Z"/><path class="h" d="m218.15,179.24c-.63,0-1.17-.14-1.63-.42-.46-.28-.81-.67-1.05-1.18-.25-.5-.37-1.09-.37-1.76s.12-1.26.37-1.77c.25-.51.59-.91,1.03-1.2.44-.29.96-.43,1.55-.43.34,0,.68.06,1.01.17.33.11.63.3.91.55.27.25.49.59.65,1.01.16.42.24.93.24,1.54v.43h-5.05v-.87h4.02c0-.37-.07-.7-.22-.99-.15-.29-.35-.52-.62-.69-.27-.17-.58-.25-.95-.25-.4,0-.75.1-1.04.3-.29.2-.51.45-.67.77s-.23.65-.23,1.01v.58c0,.49.09.91.26,1.25.17.34.41.6.72.78.31.18.66.27,1.07.27.26,0,.5-.04.72-.11s.4-.19.56-.34c.16-.15.28-.34.36-.57l.97.27c-.1.33-.27.62-.52.87-.24.25-.54.44-.89.58s-.75.21-1.2.21Z"/><path class="h" d="m221.67,181.56v-9h.97v1.04h.12c.07-.11.18-.26.31-.44s.32-.34.57-.48c.25-.14.59-.21,1.01-.21.55,0,1.04.14,1.46.41.42.28.75.67.98,1.17.24.51.35,1.1.35,1.79s-.12,1.29-.35,1.8c-.24.51-.56.9-.98,1.18-.42.28-.9.42-1.44.42-.42,0-.76-.07-1.01-.21s-.45-.3-.58-.48c-.14-.18-.24-.33-.32-.45h-.09v3.46h-1Zm.99-5.73c0,.49.07.93.22,1.31.15.38.36.67.64.88.28.21.62.32,1.02.32s.77-.11,1.05-.33c.28-.22.5-.52.64-.9.14-.38.22-.8.22-1.27s-.07-.88-.21-1.25c-.14-.37-.35-.66-.63-.88-.28-.22-.64-.33-1.06-.33s-.75.1-1.03.31-.49.49-.63.86c-.14.37-.21.8-.21,1.29Z"/><path class="h" d="m230.92,179.24c-.59,0-1.11-.14-1.55-.42s-.79-.67-1.04-1.18c-.25-.51-.37-1.1-.37-1.77s.12-1.28.37-1.79c.25-.51.6-.9,1.04-1.18s.96-.42,1.55-.42,1.11.14,1.55.42.79.68,1.04,1.18c.25.51.37,1.1.37,1.79s-.12,1.27-.37,1.77c-.25.51-.6.9-1.04,1.18s-.96.42-1.55.42Zm0-.9c.45,0,.82-.12,1.11-.35s.5-.53.64-.91c.14-.38.21-.78.21-1.22s-.07-.85-.21-1.22c-.14-.38-.35-.68-.64-.92-.29-.23-.66-.35-1.11-.35s-.82.12-1.11.35c-.29.23-.5.54-.64.92-.14.38-.21.79-.21,1.22s.07.84.21,1.22c.14.38.35.68.64.91s.66.35,1.11.35Z"/><path class="h" d="m239.34,174.03l-.9.25c-.06-.15-.14-.3-.25-.44s-.26-.26-.45-.36-.43-.14-.72-.14c-.4,0-.73.09-1,.28-.27.18-.4.42-.4.7,0,.25.09.45.27.59.18.14.47.27.85.36l.97.24c.58.14,1.02.36,1.31.65.29.29.43.67.43,1.12,0,.38-.11.71-.32,1.01-.21.3-.51.53-.9.7-.38.17-.83.26-1.34.26-.67,0-1.22-.15-1.66-.43-.44-.29-.71-.71-.83-1.27l.95-.24c.09.35.26.62.52.79.25.18.59.26,1,.26.47,0,.84-.1,1.12-.3.28-.2.42-.44.42-.72,0-.23-.08-.42-.24-.57-.16-.16-.4-.27-.73-.35l-1.09-.26c-.6-.14-1.04-.36-1.32-.66-.28-.3-.42-.68-.42-1.13,0-.37.1-.7.31-.98s.49-.51.86-.67.77-.24,1.23-.24c.65,0,1.16.14,1.53.43.37.28.63.66.79,1.12Z"/><path class="h" d="m240.77,171.47c-.2,0-.36-.07-.5-.2-.14-.13-.21-.29-.21-.48s.07-.35.21-.48.31-.2.5-.2.36.07.5.2.21.29.21.48-.07.35-.21.48c-.14.13-.31.2-.5.2Zm-.51,7.64v-6.55h1v6.55h-1Z"/><path class="h" d="m245.23,172.56v.85h-3.39v-.85h3.39Zm-2.4-1.57h1.01v6.24c0,.28.04.5.13.64s.19.23.32.28c.13.05.27.07.42.07.11,0,.2,0,.27-.02.07-.01.13-.02.17-.03l.21.9c-.07.03-.16.05-.29.08-.12.03-.28.04-.46.04-.28,0-.56-.06-.83-.18-.27-.12-.5-.31-.67-.56s-.27-.57-.27-.95v-6.51Z"/><path class="h" d="m248.62,179.24c-.59,0-1.11-.14-1.55-.42s-.79-.67-1.04-1.18c-.25-.51-.37-1.1-.37-1.77s.12-1.28.37-1.79c.25-.51.6-.9,1.04-1.18s.96-.42,1.55-.42,1.11.14,1.55.42.79.68,1.04,1.18c.25.51.37,1.1.37,1.79s-.12,1.27-.37,1.77c-.25.51-.6.9-1.04,1.18s-.96.42-1.55.42Zm0-.9c.45,0,.82-.12,1.11-.35s.5-.53.64-.91c.14-.38.21-.78.21-1.22s-.07-.85-.21-1.22c-.14-.38-.35-.68-.64-.92-.29-.23-.66-.35-1.11-.35s-.82.12-1.11.35c-.29.23-.5.54-.64.92-.14.38-.21.79-.21,1.22s.07.84.21,1.22c.14.38.35.68.64.91s.66.35,1.11.35Z"/><path class="h" d="m252.4,179.11v-6.55h.97v.99h.07c.12-.32.33-.59.65-.79.31-.2.66-.3,1.06-.3.07,0,.17,0,.28,0,.11,0,.2,0,.25.01v1.02s-.11-.02-.23-.04-.25-.03-.38-.03c-.32,0-.6.07-.85.2-.25.13-.44.31-.59.54s-.22.5-.22.79v4.14h-1Z"/><path class="h" d="m256.65,171.47c-.2,0-.36-.07-.5-.2-.14-.13-.21-.29-.21-.48s.07-.35.21-.48.31-.2.5-.2.36.07.5.2.21.29.21.48-.07.35-.21.48c-.14.13-.31.2-.5.2Zm-.51,7.64v-6.55h1v6.55h-1Z"/><path class="h" d="m261.01,179.24c-.63,0-1.17-.14-1.63-.42-.46-.28-.81-.67-1.05-1.18-.25-.5-.37-1.09-.37-1.76s.12-1.26.37-1.77c.25-.51.59-.91,1.03-1.2.44-.29.96-.43,1.55-.43.34,0,.68.06,1.01.17.33.11.63.3.91.55.27.25.49.59.65,1.01.16.42.24.93.24,1.54v.43h-5.05v-.87h4.02c0-.37-.07-.7-.22-.99-.15-.29-.35-.52-.62-.69-.27-.17-.58-.25-.95-.25-.4,0-.75.1-1.04.3-.29.2-.51.45-.67.77s-.23.65-.23,1.01v.58c0,.49.09.91.26,1.25.17.34.41.6.72.78.31.18.66.27,1.07.27.26,0,.5-.04.72-.11s.4-.19.56-.34c.16-.15.28-.34.36-.57l.97.27c-.1.33-.27.62-.52.87-.24.25-.54.44-.89.58s-.75.21-1.2.21Z"/><path class="h" d="m269.17,174.03l-.9.25c-.06-.15-.14-.3-.25-.44s-.26-.26-.45-.36-.43-.14-.72-.14c-.4,0-.73.09-1,.28-.27.18-.4.42-.4.7,0,.25.09.45.27.59.18.14.47.27.85.36l.97.24c.58.14,1.02.36,1.31.65.29.29.43.67.43,1.12,0,.38-.11.71-.32,1.01-.21.3-.51.53-.9.7-.38.17-.83.26-1.34.26-.67,0-1.22-.15-1.66-.43-.44-.29-.71-.71-.83-1.27l.95-.24c.09.35.26.62.52.79.25.18.59.26,1,.26.47,0,.84-.1,1.12-.3.28-.2.42-.44.42-.72,0-.23-.08-.42-.24-.57-.16-.16-.4-.27-.73-.35l-1.09-.26c-.6-.14-1.04-.36-1.32-.66-.28-.3-.42-.68-.42-1.13,0-.37.1-.7.31-.98s.49-.51.86-.67.77-.24,1.23-.24c.65,0,1.16.14,1.53.43.37.28.63.66.79,1.12Z"/></g><rect class="c" x="193.96" y="188.72" width="50.42" height="46.76" rx="2.78" ry="2.78"/><g><path class="j" d="m204.16,203.52c-.03-.29-.15-.52-.37-.68s-.51-.24-.89-.24c-.25,0-.47.04-.64.11-.17.07-.31.17-.4.29-.09.12-.14.27-.14.42,0,.13.02.25.08.35.06.1.15.18.25.25.11.07.23.13.37.18s.29.1.45.13l.66.16c.32.07.62.17.89.29.27.12.5.27.7.44.2.17.35.38.46.62.11.24.17.51.17.82,0,.45-.12.84-.34,1.17-.23.33-.55.59-.98.77-.43.18-.94.27-1.54.27s-1.11-.09-1.55-.27c-.44-.18-.78-.45-1.03-.81-.25-.36-.38-.8-.39-1.33h1.51c.02.25.09.45.21.62s.29.29.51.37.45.12.72.12.49-.04.69-.12c.2-.08.35-.18.46-.32s.16-.29.16-.47c0-.17-.05-.31-.15-.42-.1-.11-.24-.21-.42-.29-.19-.08-.41-.15-.68-.22l-.8-.2c-.62-.15-1.11-.39-1.47-.71-.36-.32-.54-.75-.54-1.3,0-.45.12-.84.36-1.17.24-.33.57-.59,1-.78.42-.19.9-.28,1.44-.28s1.03.09,1.44.28c.41.19.73.45.96.78.23.33.35.72.35,1.16h-1.49Z"/><path class="j" d="m207.74,208.88c-.35,0-.67-.06-.94-.19-.28-.12-.49-.31-.65-.55-.16-.24-.24-.55-.24-.91,0-.31.06-.57.17-.77s.27-.38.46-.5c.19-.13.42-.22.66-.29.25-.06.51-.11.78-.14.32-.03.58-.07.78-.09.2-.03.34-.08.43-.14.09-.06.13-.15.13-.27v-.02c0-.23-.07-.4-.21-.53s-.34-.19-.61-.19c-.28,0-.5.06-.66.18-.16.12-.27.27-.32.46l-1.42-.12c.07-.34.21-.63.42-.87s.48-.44.82-.57c.33-.13.72-.2,1.17-.2.31,0,.6.04.88.11s.53.18.75.33.39.34.52.58c.13.24.19.52.19.85v3.73h-1.46v-.77h-.04c-.09.17-.21.33-.36.46-.15.13-.33.23-.54.31s-.45.11-.72.11Zm.44-1.06c.23,0,.43-.04.6-.13s.31-.21.41-.37c.1-.15.15-.33.15-.52v-.59s-.11.06-.2.08c-.08.02-.18.05-.28.07-.1.02-.21.04-.31.05-.1.02-.2.03-.28.04-.18.03-.34.07-.47.13-.13.06-.24.13-.31.23-.07.1-.11.22-.11.36,0,.21.08.37.23.48s.35.16.58.16Z"/><path class="j" d="m212.98,205.58v3.2h-1.53v-5.53h1.46v.98h.07c.12-.32.33-.58.62-.77.29-.19.64-.28,1.05-.28.38,0,.72.08,1,.25.29.17.51.41.67.72.16.31.24.68.24,1.11v3.52h-1.53v-3.25c0-.34-.08-.6-.26-.79-.18-.19-.42-.29-.72-.29-.21,0-.39.04-.54.13s-.28.22-.37.39c-.09.17-.13.37-.14.61Z"/><path class="j" d="m219.18,208.86c-.42,0-.8-.11-1.14-.33-.34-.22-.61-.54-.81-.96-.2-.42-.3-.94-.3-1.56s.1-1.16.31-1.58c.2-.42.48-.74.82-.95s.71-.32,1.12-.32c.31,0,.57.05.78.16s.38.23.5.39c.13.16.23.31.29.46h.05v-2.77h1.53v7.38h-1.51v-.89h-.06c-.07.15-.17.3-.3.46s-.3.27-.51.37c-.21.1-.46.15-.76.15Zm.49-1.22c.25,0,.46-.07.63-.2.17-.13.3-.33.4-.57s.14-.53.14-.86-.05-.61-.14-.86c-.09-.24-.22-.43-.4-.56-.17-.13-.38-.2-.63-.2s-.46.07-.64.21-.3.33-.39.57c-.09.24-.13.52-.13.84s.04.61.13.85.22.44.39.58c.17.14.38.21.64.21Z"/><path class="j" d="m223,208.77v-7.38h1.53v2.77h.05c.07-.15.17-.3.29-.46.13-.15.3-.28.5-.39.21-.1.47-.16.78-.16.4,0,.78.11,1.12.32.34.21.61.53.82.95.2.42.31.95.31,1.58s-.1,1.14-.3,1.56c-.2.42-.47.74-.81.96-.34.22-.72.33-1.14.33-.3,0-.55-.05-.76-.15-.21-.1-.38-.22-.51-.37-.13-.15-.23-.3-.3-.46h-.07v.89h-1.51Zm1.5-2.77c0,.33.04.62.14.86.09.25.22.44.4.57.17.14.38.2.63.2s.46-.07.63-.21c.17-.14.3-.33.39-.58.09-.25.13-.53.13-.85s-.04-.6-.13-.84c-.09-.24-.22-.43-.39-.57-.17-.14-.39-.21-.64-.21s-.46.07-.63.2c-.17.13-.3.32-.39.56-.09.24-.14.53-.14.86Z"/><path class="j" d="m231.31,208.88c-.56,0-1.04-.12-1.45-.36-.41-.24-.72-.57-.94-1s-.33-.93-.33-1.49.11-1.07.33-1.5c.22-.43.53-.76.94-1,.41-.24.89-.36,1.45-.36s1.04.12,1.45.36c.41.24.72.57.94,1,.22.43.33.93.33,1.5s-.11,1.06-.33,1.49c-.22.43-.53.76-.94,1-.41.24-.89.36-1.45.36Zm0-1.19c.25,0,.47-.07.64-.22.17-.14.3-.34.39-.6s.13-.54.13-.86-.04-.61-.13-.86-.22-.45-.39-.6c-.17-.15-.38-.22-.64-.22s-.47.07-.65.22-.3.35-.39.6-.13.54-.13.86.04.61.13.86.22.45.39.6c.17.15.39.22.65.22Z"/><path class="j" d="m235.5,203.24l1.02,1.93,1.04-1.93h1.57l-1.6,2.77,1.65,2.77h-1.57l-1.09-1.91-1.07,1.91h-1.58l1.64-2.77-1.58-2.77h1.58Z"/><path class="j" d="m201.27,220.94h-2.62v-7.38h2.64c.74,0,1.38.15,1.92.44.54.29.95.72,1.24,1.27.29.55.43,1.21.43,1.97s-.14,1.43-.43,1.98c-.29.55-.7.98-1.24,1.27-.54.3-1.18.44-1.93.44Zm-1.06-1.34h.99c.46,0,.85-.08,1.17-.25.32-.16.55-.42.71-.77.16-.35.24-.79.24-1.34s-.08-.99-.24-1.34c-.16-.35-.4-.6-.71-.76s-.7-.25-1.16-.25h-.99v4.7Z"/><path class="j" d="m207.91,221.05c-.57,0-1.06-.12-1.47-.35-.41-.23-.72-.56-.95-.99s-.33-.93-.33-1.51.11-1.07.33-1.5.53-.76.93-1,.87-.36,1.42-.36c.37,0,.71.06,1.02.17.32.12.59.29.83.52.24.23.42.53.55.88s.2.76.2,1.23v.42h-4.67v-.95h3.23c0-.22-.05-.42-.14-.59-.1-.17-.23-.3-.4-.4-.17-.1-.37-.15-.59-.15s-.44.05-.62.16c-.18.11-.32.25-.42.43-.1.18-.15.38-.16.6v.9c0,.27.05.51.15.71.1.2.25.35.43.46.19.11.41.16.67.16.17,0,.33-.02.47-.07s.26-.12.36-.22c.1-.1.18-.21.23-.35l1.42.09c-.07.34-.22.64-.44.89-.22.25-.51.45-.86.59-.35.14-.75.21-1.21.21Z"/><path class="j" d="m213.82,215.41v1.15h-3.41v-1.15h3.41Zm-2.63,5.53v-5.93c0-.4.08-.73.24-1,.16-.26.37-.46.65-.59s.58-.2.93-.2c.24,0,.45.02.65.05.2.04.34.07.44.1l-.27,1.15c-.06-.02-.13-.04-.22-.05-.09-.02-.18-.03-.27-.03-.23,0-.38.05-.47.16s-.13.25-.13.44v5.9h-1.53Z"/><path class="j" d="m214.92,214.7c-.23,0-.42-.08-.58-.23s-.24-.34-.24-.55.08-.39.24-.54.36-.23.58-.23.42.08.58.23.24.33.24.54-.08.4-.24.55-.36.23-.58.23Zm-.77,6.25v-5.53h1.53v5.53h-1.53Z"/><path class="j" d="m217.83,217.75v3.2h-1.53v-5.53h1.46v.98h.06c.12-.32.33-.58.62-.77s.64-.28,1.05-.28c.38,0,.72.08,1,.25.29.17.51.41.67.72.16.31.24.68.24,1.11v3.52h-1.53v-3.25c0-.34-.08-.6-.26-.79-.17-.19-.42-.29-.72-.29-.21,0-.39.04-.55.13s-.28.22-.37.39c-.09.17-.13.37-.13.61Z"/><path class="j" d="m222.77,214.7c-.23,0-.42-.08-.58-.23s-.24-.34-.24-.55.08-.39.24-.54.36-.23.58-.23.42.08.58.23.24.33.24.54-.08.4-.24.55-.36.23-.58.23Zm-.77,6.25v-5.53h1.53v5.53h-1.53Z"/><path class="j" d="m227.09,215.41v1.15h-3.33v-1.15h3.33Zm-2.58-1.33h1.53v5.16c0,.14.02.25.06.33.04.08.1.13.18.16.08.03.17.05.27.05.07,0,.14,0,.22-.02s.13-.02.17-.03l.24,1.14c-.08.02-.18.05-.32.08-.14.03-.31.05-.51.06-.37.01-.69-.03-.97-.15s-.49-.29-.65-.53c-.15-.24-.23-.54-.23-.9v-5.36Z"/><path class="j" d="m228.25,214.7c-.23,0-.42-.08-.58-.23s-.24-.34-.24-.55.08-.39.24-.54.36-.23.58-.23.42.08.58.23.24.33.24.54-.08.4-.24.55-.36.23-.58.23Zm-.77,6.25v-5.53h1.53v5.53h-1.53Z"/><path class="j" d="m232.13,221.05c-.56,0-1.04-.12-1.45-.36-.41-.24-.72-.57-.94-1-.22-.43-.33-.93-.33-1.49s.11-1.07.33-1.5c.22-.43.54-.76.94-1,.41-.24.89-.36,1.45-.36s1.04.12,1.45.36c.41.24.72.57.94,1,.22.43.33.93.33,1.5s-.11,1.06-.33,1.49-.54.76-.94,1c-.41.24-.89.36-1.45.36Zm0-1.19c.25,0,.47-.07.64-.22.17-.14.3-.34.39-.6.09-.25.13-.54.13-.86s-.04-.61-.13-.86c-.09-.25-.22-.45-.39-.6-.17-.15-.38-.22-.64-.22s-.47.07-.65.22c-.17.15-.3.35-.39.6-.09.25-.13.54-.13.86s.04.61.13.86c.09.25.22.45.39.6.17.15.39.22.65.22Z"/><path class="j" d="m236.78,217.75v3.2h-1.53v-5.53h1.46v.98h.07c.12-.32.33-.58.62-.77.29-.19.64-.28,1.05-.28.38,0,.72.08,1,.25.29.17.51.41.67.72.16.31.24.68.24,1.11v3.52h-1.53v-3.25c0-.34-.08-.6-.26-.79-.18-.19-.42-.29-.72-.29-.21,0-.39.04-.54.13s-.28.22-.37.39c-.09.17-.13.37-.14.61Z"/></g><g><path class="j" d="m47.15,201.08v-.2c0-.26.2-.47.45-.47,10.08-.03,17.46-.2,20.58-.3,2.94-.1,5.94-.42,7.62-3.12.51-.83.9-2.46.9-3.37,0-3.88-3.06-7.13-6.82-7.24-.2,0-.39-.09-.52-.25-.14-.15-.21-.35-.2-.56.01-.42.02-1.47-.15-2.28-1.01-4.74-5.17-8.02-9.67-7.62-1.15.1-2.43.54-2.93.73-.21.08-.45.06-.65-.05-.2-.12-.35-.32-.4-.55-1.21-5.34-5.2-8.66-10.4-8.66s-9.25,4.58-10.43,9.02c-.05.17-.13.33-.27.45-.27.23-.62.26-.91.09-.45-.27-1.69-.91-3.38-1.01-4.71-.28-8.87,2.98-9.68,7.6-.1.54-.07,1.64-.01,2.49.02.36-.2.68-.53.76-2.01.52-5.76,3.13-5.76,7.1v.23c0,.96-.02,2.27.92,3.7.96,1.47,2.53,2.4,4.29,2.57,3.22.3,8.58.3,23.16.3h.55c.25,0,.44.21.44.47v.2c0,.26-.2.47-.44.47h-.55c-14.61,0-19.99,0-23.26-.31-2.08-.19-3.93-1.31-5.08-3.05-1.13-1.73-1.12-3.37-1.11-4.35v-.22c0-4.09,3.54-7.25,6.27-8.11-.04-.67-.07-1.78.05-2.44.91-5.17,5.55-8.84,10.8-8.52,1.59.1,2.82.6,3.55.99,1.59-5.46,6.43-9.53,11.38-9.53,5.54,0,9.97,3.61,11.37,9.23.71-.25,1.85-.59,2.92-.69,5.04-.44,9.69,3.21,10.81,8.5.16.74.19,1.61.18,2.22,4.19.3,7.54,3.98,7.54,8.35,0,1.09-.43,2.96-1.07,3.99-1.96,3.16-5.41,3.53-8.48,3.63-3.13.1-10.51.28-20.61.3-.25,0-.45-.21-.45-.47Z"/><path class="j" d="m52.11,196.46c0,.2-.12.4-.32.52-.31.18-.73.09-.93-.2l-4.79-7.05-.07,22.18c0,.34-.31.62-.68.62h0c-.37,0-.67-.28-.67-.62l.07-22.18-4.94,6.97c-.2.29-.62.37-.93.18-.31-.19-.4-.57-.2-.85l6.19-8.75c.13-.18.34-.28.57-.28s.44.11.56.29l6.01,8.85c.07.1.1.22.1.33Z"/></g><g><path class="j" d="m25.4,221.95c0,.92-.17,1.72-.5,2.39-.33.67-.79,1.19-1.37,1.55-.58.36-1.24.54-1.99.54s-1.41-.18-1.99-.54c-.58-.36-1.04-.88-1.37-1.55-.33-.67-.5-1.47-.5-2.39s.17-1.72.5-2.39c.33-.67.79-1.19,1.37-1.55.58-.36,1.24-.55,1.99-.55s1.41.18,1.99.55c.58.36,1.04.88,1.37,1.55s.5,1.47.5,2.39Zm-1.02,0c0-.76-.12-1.39-.38-1.91-.25-.52-.59-.91-1.02-1.18-.43-.27-.91-.4-1.43-.4s-1.01.13-1.43.4c-.43.27-.77.66-1.02,1.18-.25.52-.38,1.16-.38,1.91s.13,1.39.38,1.91c.25.52.59.91,1.02,1.18.43.27.91.4,1.43.4s1.01-.13,1.43-.4c.43-.27.77-.66,1.02-1.18.25-.52.38-1.16.38-1.91Z"/><path class="j" d="m26.31,228.77v-9h.97v1.04h.12c.07-.11.18-.26.31-.44s.32-.34.57-.48c.25-.14.59-.21,1.01-.21.55,0,1.04.14,1.46.41.42.28.75.67.98,1.17.24.51.35,1.1.35,1.79s-.12,1.29-.35,1.8c-.24.51-.56.9-.98,1.18-.42.28-.9.42-1.44.42-.42,0-.76-.07-1.01-.21s-.45-.3-.58-.48c-.14-.18-.24-.33-.32-.45h-.09v3.46h-1Zm.99-5.73c0,.49.07.93.22,1.31.15.38.36.67.64.88.28.21.62.32,1.02.32s.77-.11,1.05-.33c.28-.22.5-.52.64-.9.14-.38.22-.8.22-1.27s-.07-.88-.21-1.25c-.14-.37-.35-.66-.63-.88-.28-.22-.64-.33-1.06-.33s-.75.1-1.03.31-.49.49-.63.86c-.14.37-.21.8-.21,1.29Z"/><path class="j" d="m35.65,226.45c-.63,0-1.17-.14-1.63-.42-.46-.28-.81-.67-1.05-1.18-.25-.5-.37-1.09-.37-1.76s.12-1.26.37-1.77c.25-.51.59-.91,1.03-1.2.44-.29.96-.43,1.55-.43.34,0,.68.06,1.01.17.33.11.63.3.91.55.27.25.49.59.65,1.01.16.42.24.93.24,1.54v.43h-5.05v-.87h4.02c0-.37-.07-.7-.22-.99-.15-.29-.35-.52-.62-.69-.27-.17-.58-.25-.95-.25-.4,0-.75.1-1.04.3-.29.2-.51.45-.67.77s-.23.65-.23,1.01v.58c0,.49.09.91.26,1.25.17.34.41.6.72.78.31.18.66.27,1.07.27.26,0,.5-.04.72-.11s.4-.19.56-.34c.16-.15.28-.34.36-.57l.97.27c-.1.33-.27.62-.52.87-.24.25-.54.44-.89.58s-.75.21-1.2.21Z"/><path class="j" d="m40.18,222.37v3.94h-1v-6.55h.97v1.02h.09c.15-.33.39-.6.7-.8s.72-.3,1.21-.3c.44,0,.83.09,1.16.27.33.18.59.45.78.82s.28.83.28,1.38v4.16h-1.01v-4.09c0-.51-.13-.92-.4-1.2-.27-.29-.63-.43-1.1-.43-.32,0-.61.07-.86.21-.25.14-.45.34-.59.61-.14.27-.22.59-.22.97Z"/><path class="j" d="m50.38,219.77c-.05-.43-.26-.77-.62-1-.36-.24-.81-.36-1.34-.36-.39,0-.72.06-1.01.19s-.51.3-.67.52c-.16.22-.24.47-.24.75,0,.23.06.43.17.6s.26.3.43.41.36.2.55.27.37.13.53.17l.89.24c.23.06.48.14.76.25.28.1.55.25.81.43.26.18.47.41.64.69.17.28.25.63.25,1.04,0,.47-.12.9-.37,1.28-.25.38-.6.68-1.07.91-.47.22-1.04.34-1.71.34-.62,0-1.17-.1-1.62-.3-.46-.2-.81-.48-1.07-.84-.26-.36-.41-.78-.44-1.26h1.09c.03.33.14.6.33.82.19.21.44.37.74.48.3.1.62.16.97.16.4,0,.77-.07,1.09-.2.32-.13.58-.32.76-.55.19-.24.28-.51.28-.83,0-.29-.08-.53-.24-.71s-.38-.33-.64-.44c-.26-.11-.55-.21-.86-.3l-1.07-.31c-.68-.2-1.22-.48-1.62-.84-.4-.36-.6-.84-.6-1.43,0-.49.13-.92.4-1.28.27-.37.62-.65,1.07-.85s.95-.3,1.51-.3,1.06.1,1.5.3.79.47,1.04.82.39.74.41,1.18h-1.02Z"/><path class="j" d="m55.26,219.77v.85h-3.39v-.85h3.39Zm-2.4-1.57h1.01v6.24c0,.28.04.5.13.64s.19.23.32.28c.13.05.27.07.42.07.11,0,.2,0,.27-.02.07-.01.13-.02.17-.03l.21.9c-.07.03-.16.05-.29.08-.12.03-.28.04-.46.04-.28,0-.56-.06-.83-.18-.27-.12-.5-.31-.67-.56s-.27-.57-.27-.95v-6.51Z"/><path class="j" d="m57.98,226.47c-.42,0-.79-.08-1.13-.24-.34-.16-.61-.39-.81-.69-.2-.3-.3-.66-.3-1.09,0-.38.07-.68.22-.91s.35-.42.59-.55c.25-.13.52-.23.82-.3.3-.07.6-.12.91-.16.4-.05.72-.09.97-.12.25-.03.43-.07.54-.14.12-.07.17-.18.17-.34v-.03c0-.42-.11-.75-.34-.98-.23-.23-.58-.35-1.04-.35s-.86.1-1.13.32c-.27.21-.46.43-.58.67l-.96-.34c.17-.4.4-.71.68-.93.29-.22.6-.38.94-.47.34-.09.67-.13,1-.13.21,0,.45.03.73.08.27.05.54.15.8.3.26.15.47.38.64.69.17.31.26.72.26,1.24v4.31h-1.01v-.89h-.05c-.07.14-.18.29-.34.46s-.37.3-.64.41c-.26.11-.59.17-.97.17Zm.15-.9c.4,0,.73-.08,1.01-.23s.48-.36.62-.61.21-.51.21-.78v-.92c-.04.05-.14.1-.28.14s-.31.08-.49.11c-.19.03-.37.06-.54.08s-.32.04-.42.05c-.26.03-.5.09-.73.16-.23.08-.41.19-.54.34s-.21.35-.21.61c0,.35.13.61.39.79.26.18.59.27.99.27Z"/><path class="j" d="m64.76,226.45c-.61,0-1.14-.15-1.58-.43-.44-.29-.78-.69-1.02-1.2-.24-.51-.36-1.09-.36-1.74s.12-1.25.37-1.76c.25-.51.59-.91,1.03-1.2.44-.29.96-.43,1.55-.43.46,0,.88.08,1.24.26s.67.41.91.72c.24.31.38.67.44,1.07h-1.01c-.08-.3-.25-.56-.51-.79s-.62-.35-1.06-.35c-.39,0-.73.1-1.03.3s-.52.49-.69.86c-.16.37-.25.8-.25,1.29s.08.95.24,1.32c.16.38.39.67.68.87s.64.31,1.04.31c.26,0,.5-.05.71-.14s.39-.22.54-.39c.15-.17.25-.38.32-.61h1.01c-.06.39-.2.73-.42,1.04-.22.31-.52.55-.88.73-.37.18-.79.27-1.27.27Z"/><path class="j" d="m68.08,226.31v-8.73h1v8.73h-1Zm.94-2.39l-.02-1.24h.21l2.86-2.92h1.24l-3.05,3.09h-.09l-1.16,1.07Zm3.22,2.39l-2.56-3.24.72-.7,3.12,3.94h-1.28Z"/><path class="j" d="m34.79,240.85c-.61,0-1.14-.15-1.58-.43-.44-.29-.78-.69-1.02-1.2-.24-.51-.36-1.09-.36-1.74s.12-1.25.37-1.76c.25-.51.59-.91,1.03-1.2.44-.29.96-.43,1.55-.43.46,0,.88.08,1.24.26s.67.41.91.72c.24.31.38.67.44,1.07h-1.01c-.08-.3-.25-.56-.51-.79s-.62-.35-1.06-.35c-.39,0-.73.1-1.03.3s-.52.49-.69.86c-.16.37-.25.8-.25,1.29s.08.95.24,1.32c.16.38.39.67.68.87s.64.31,1.04.31c.26,0,.5-.05.71-.14s.39-.22.54-.39c.15-.17.25-.38.32-.61h1.01c-.06.39-.2.73-.42,1.04-.22.31-.52.55-.88.73-.37.18-.79.27-1.27.27Z"/><path class="j" d="m39.11,231.98v8.73h-1v-8.73h1Z"/><path class="j" d="m42.89,240.85c-.59,0-1.11-.14-1.55-.42s-.79-.67-1.04-1.18c-.25-.51-.37-1.1-.37-1.77s.12-1.28.37-1.79c.25-.51.6-.9,1.04-1.18s.96-.42,1.55-.42,1.11.14,1.55.42.79.68,1.04,1.18c.25.51.37,1.1.37,1.79s-.12,1.27-.37,1.77c-.25.51-.6.9-1.04,1.18s-.96.42-1.55.42Zm0-.9c.45,0,.82-.12,1.11-.35s.5-.53.64-.91c.14-.38.21-.78.21-1.22s-.07-.85-.21-1.22c-.14-.38-.35-.68-.64-.92-.29-.23-.66-.35-1.11-.35s-.82.12-1.11.35c-.29.23-.5.54-.64.92-.14.38-.21.79-.21,1.22s.07.84.21,1.22c.14.38.35.68.64.91s.66.35,1.11.35Z"/><path class="j" d="m50.8,238.04v-3.87h1v6.55h-1v-1.11h-.07c-.15.33-.39.62-.72.85-.32.23-.73.35-1.23.35-.41,0-.77-.09-1.09-.27s-.57-.45-.75-.82c-.18-.36-.27-.83-.27-1.38v-4.16h1v4.09c0,.48.13.86.4,1.14s.61.43,1.03.43c.25,0,.5-.06.76-.19s.48-.32.66-.59c.18-.26.27-.6.27-1.01Z"/><path class="j" d="m55.4,240.85c-.54,0-1.03-.14-1.44-.42-.42-.28-.74-.67-.98-1.18-.24-.51-.35-1.11-.35-1.8s.12-1.28.35-1.79c.24-.5.56-.9.98-1.17.42-.28.91-.41,1.46-.41.43,0,.76.07,1.01.21.25.14.44.3.57.48s.24.32.31.44h.09v-3.22h1v8.73h-.97v-1.01h-.12c-.07.12-.18.27-.32.45-.14.18-.33.34-.58.48s-.59.21-1.01.21Zm.14-.9c.4,0,.74-.11,1.02-.32.28-.21.49-.5.64-.88.14-.38.22-.81.22-1.31s-.07-.92-.21-1.29c-.14-.37-.35-.65-.63-.86s-.62-.31-1.03-.31-.78.11-1.06.33c-.28.22-.49.51-.63.88-.14.37-.21.79-.21,1.25s.07.89.22,1.27c.14.38.36.68.64.9.28.22.63.33,1.05.33Z"/></g><path class="i" d="m32.48,50.33c0-.26-.21-.47-.47-.47h-6.92c-1.77.06-3.33,1.51-3.51,3.28l-1.22,12.1v.11c-.09,1.5,1.23,2.83,3.04,3.59l.09.04.38,15.59v.06c.04.24.24.41.49.41.26,0,.47-.22.46-.49l-.39-15.9v-.06c-.03-.17-.15-.32-.31-.38-1.68-.61-2.92-1.77-2.81-2.86l1.22-12.1v-.1c.2-1.28,1.38-2.32,2.68-2.32h6.86c.24-.03.42-.23.42-.47Zm-.11-8.31c0-1.98-1.61-3.59-3.59-3.59s-3.59,1.61-3.59,3.59,1.61,3.59,3.59,3.59,3.59-1.61,3.59-3.59Zm-8.13,0c0-2.51,2.03-4.54,4.54-4.54s4.54,2.03,4.54,4.54-2.03,4.54-4.54,4.54-4.54-2.03-4.54-4.54Zm42.75,11c-.24-1.76-1.83-3.17-3.61-3.17h-6.86c-.24.03-.42.23-.42.47,0,.26.21.47.47.47h6.91c1.29.06,2.45,1.13,2.58,2.43l1.22,12.1v.09c.04,1.07-1.17,2.18-2.81,2.77-.18.07-.31.24-.31.43l-.39,15.9v.06c.02.24.22.42.46.43h.06c.24-.02.42-.22.43-.46l.38-15.59.09-.04c1.85-.78,3.19-2.15,3.04-3.69l-1.22-12.1v-.12Zm-3.62-11c0-1.98-1.61-3.59-3.59-3.59s-3.59,1.61-3.59,3.59,1.61,3.59,3.59,3.59,3.59-1.61,3.59-3.59Zm-8.13,0c0-2.51,2.03-4.54,4.54-4.54s4.54,2.03,4.54,4.54-2.03,4.54-4.54,4.54-4.54-2.03-4.54-4.54Zm-2.92,7.03c-.26-1.95-2.03-3.52-4.01-3.52h-8.19c-1.97.07-3.71,1.67-3.9,3.64l-1.37,13.63v.11c-.11,1.67,1.38,3.16,3.41,4l.11.04.43,17.6v.06c.04.24.24.41.49.41.26,0,.47-.22.46-.49l-.43-17.91v-.06c-.03-.17-.15-.32-.31-.38-1.92-.69-3.33-2.02-3.2-3.29l1.37-13.63v-.11c.22-1.48,1.58-2.68,3.08-2.68h8.18c1.49.06,2.83,1.3,2.97,2.79l1.37,13.63v.09c.06,1.24-1.33,2.52-3.2,3.19-.18.07-.31.24-.31.43l-.44,17.91v.06c.02.24.22.42.46.43h.06c.24-.02.42-.22.43-.46l.43-17.6.11-.04c2.07-.86,3.58-2.4,3.41-4.11l-1.37-13.63v-.12Zm-8.06-16.21c2.27,0,4.1,1.84,4.1,4.1s-1.84,4.1-4.1,4.1-4.1-1.84-4.1-4.1,1.84-4.1,4.1-4.1Zm0-.95c-2.79,0-5.05,2.26-5.05,5.05s2.26,5.05,5.05,5.05,5.05-2.26,5.05-5.05-2.26-5.05-5.05-5.05Z"/><rect class="c" x="157.23" y="37.02" width="50.42" height="46.76" rx="2.78" ry="2.78"/><g><path class="j" d="m167.43,51.82c-.03-.29-.15-.52-.37-.68-.22-.16-.51-.24-.89-.24-.25,0-.47.04-.64.11-.17.07-.31.17-.4.29-.09.12-.14.27-.14.42,0,.13.02.25.08.35.06.1.15.18.25.25.11.07.23.13.37.18s.29.1.45.13l.66.16c.32.07.62.17.89.29.27.12.5.27.7.44s.35.38.46.62.17.51.17.82c0,.45-.12.84-.34,1.17-.23.33-.55.59-.98.77-.43.18-.94.27-1.54.27s-1.11-.09-1.55-.27c-.44-.18-.78-.45-1.03-.81s-.38-.8-.39-1.33h1.51c.02.25.09.45.21.62.13.16.29.29.51.37s.45.12.72.12.49-.04.69-.12c.2-.08.35-.18.46-.32s.16-.29.16-.47c0-.17-.05-.31-.15-.42-.1-.11-.24-.21-.42-.29-.19-.08-.41-.15-.68-.22l-.8-.2c-.62-.15-1.11-.39-1.47-.71-.36-.32-.54-.75-.54-1.3,0-.45.12-.84.36-1.17.24-.33.57-.59,1-.78.42-.19.9-.28,1.44-.28s1.03.09,1.44.28c.41.19.73.45.96.78.23.33.35.72.35,1.16h-1.49Z"/><path class="j" d="m171.01,57.17c-.35,0-.67-.06-.94-.19-.28-.12-.49-.31-.65-.55-.16-.24-.24-.55-.24-.91,0-.31.06-.57.17-.77s.27-.38.46-.5c.19-.13.42-.22.66-.29.25-.06.51-.11.78-.14.32-.03.58-.07.78-.1.2-.03.34-.08.43-.14s.13-.15.13-.27v-.02c0-.23-.07-.4-.21-.53-.14-.12-.34-.19-.61-.19-.28,0-.5.06-.66.18-.16.12-.27.27-.32.46l-1.42-.12c.07-.34.21-.63.42-.87s.48-.44.82-.57.72-.2,1.17-.2c.31,0,.6.04.88.11.28.07.53.18.75.33.22.15.39.35.52.58.13.24.19.52.19.85v3.73h-1.46v-.77h-.04c-.09.17-.21.32-.36.46-.15.13-.33.23-.54.31s-.45.11-.72.11Zm.44-1.06c.23,0,.43-.04.6-.13.17-.09.31-.21.41-.37.1-.15.15-.33.15-.52v-.59s-.11.06-.2.08c-.08.02-.18.05-.28.07-.1.02-.21.04-.31.05-.1.02-.2.03-.28.04-.18.03-.34.07-.47.13-.13.06-.24.13-.31.23s-.11.22-.11.36c0,.21.08.37.23.48s.35.16.58.16Z"/><path class="j" d="m176.24,53.87v3.2h-1.53v-5.53h1.46v.98h.07c.12-.32.33-.58.62-.77.29-.19.64-.28,1.05-.28.38,0,.72.08,1,.25.29.17.51.41.67.72s.24.68.24,1.11v3.52h-1.53v-3.25c0-.34-.08-.6-.26-.79-.18-.19-.42-.29-.72-.29-.21,0-.39.04-.54.13s-.28.22-.37.39c-.09.17-.13.37-.14.61Z"/><path class="j" d="m182.44,57.16c-.42,0-.8-.11-1.14-.33s-.61-.54-.81-.96c-.2-.42-.3-.94-.3-1.56s.1-1.16.31-1.58.48-.74.82-.95c.34-.21.71-.32,1.12-.32.31,0,.57.05.78.16s.38.23.5.39c.13.15.23.31.29.46h.05v-2.77h1.53v7.38h-1.51v-.89h-.06c-.07.15-.17.31-.3.46-.13.15-.3.27-.51.37-.21.1-.46.15-.76.15Zm.49-1.22c.25,0,.46-.07.63-.2.17-.14.3-.33.4-.57.09-.24.14-.53.14-.86s-.05-.61-.14-.86-.22-.43-.4-.56c-.17-.13-.38-.2-.63-.2s-.46.07-.64.21-.3.33-.39.57c-.09.24-.13.52-.13.84s.04.61.13.85.22.44.39.58.38.21.64.21Z"/><path class="j" d="m186.27,57.07v-7.38h1.53v2.77h.05c.07-.15.17-.3.29-.46.13-.15.3-.28.5-.39.21-.1.47-.16.78-.16.4,0,.78.1,1.12.32.34.21.61.53.82.95s.31.95.31,1.58-.1,1.14-.3,1.56c-.2.42-.47.74-.81.96s-.72.33-1.14.33c-.3,0-.55-.05-.76-.15-.21-.1-.38-.22-.51-.37-.13-.15-.23-.3-.3-.46h-.07v.89h-1.51Zm1.5-2.77c0,.33.04.62.14.86.09.25.22.44.4.57.17.14.38.2.63.2s.46-.07.63-.21.3-.33.39-.58c.09-.25.13-.53.13-.85s-.04-.6-.13-.84c-.09-.24-.22-.43-.39-.57-.17-.14-.39-.21-.64-.21s-.46.07-.63.2c-.17.13-.3.32-.39.56-.09.24-.14.53-.14.86Z"/><path class="j" d="m194.57,57.18c-.56,0-1.04-.12-1.45-.36-.41-.24-.72-.57-.94-1s-.33-.93-.33-1.49.11-1.07.33-1.5c.22-.43.53-.76.94-1s.89-.36,1.45-.36,1.04.12,1.45.36.72.57.94,1c.22.43.33.93.33,1.5s-.11,1.06-.33,1.49c-.22.43-.53.76-.94,1-.41.24-.89.36-1.45.36Zm0-1.19c.25,0,.47-.07.64-.22.17-.15.3-.34.39-.6.09-.25.13-.54.13-.86s-.04-.61-.13-.86c-.09-.25-.22-.45-.39-.6-.17-.15-.38-.22-.64-.22s-.47.07-.65.22-.3.35-.39.6c-.09.25-.13.54-.13.86s.04.61.13.86c.09.25.22.45.39.6.17.15.39.22.65.22Z"/><path class="j" d="m198.77,51.54l1.02,1.93,1.04-1.93h1.57l-1.6,2.77,1.65,2.77h-1.57l-1.09-1.91-1.07,1.91h-1.58l1.64-2.77-1.58-2.77h1.58Z"/><path class="j" d="m164.53,69.24h-2.62v-7.38h2.64c.74,0,1.38.15,1.92.44.54.29.95.72,1.24,1.27.29.55.43,1.21.43,1.97s-.14,1.43-.43,1.98c-.29.55-.7.98-1.24,1.27s-1.18.44-1.93.44Zm-1.06-1.34h.99c.46,0,.85-.08,1.17-.25.32-.16.55-.42.71-.77.16-.35.24-.8.24-1.35s-.08-.99-.24-1.34c-.16-.35-.4-.6-.71-.76-.31-.16-.7-.24-1.16-.24h-.99v4.7Z"/><path class="j" d="m171.18,69.35c-.57,0-1.06-.12-1.47-.35-.41-.23-.72-.56-.95-.99-.22-.43-.33-.93-.33-1.51s.11-1.07.33-1.5.53-.76.93-1,.87-.36,1.42-.36c.37,0,.71.06,1.02.17.32.12.59.29.83.52s.42.53.55.88c.13.35.2.76.2,1.23v.42h-4.67v-.95h3.23c0-.22-.05-.42-.14-.59-.1-.17-.23-.3-.4-.4-.17-.1-.37-.15-.59-.15s-.44.05-.62.16c-.18.11-.32.25-.42.43-.1.18-.15.38-.16.6v.9c0,.27.05.51.15.71.1.2.25.35.43.46.19.11.41.16.67.16.17,0,.33-.02.47-.07.14-.05.26-.12.36-.22.1-.1.18-.21.23-.35l1.42.09c-.07.34-.22.64-.44.89-.22.25-.51.45-.86.59-.35.14-.75.21-1.21.21Z"/><path class="j" d="m177.08,63.71v1.15h-3.41v-1.15h3.41Zm-2.63,5.53v-5.93c0-.4.08-.73.24-1s.37-.46.65-.59.58-.2.93-.2c.24,0,.45.02.65.05.2.04.34.07.44.1l-.27,1.15c-.06-.02-.13-.04-.22-.05-.09-.02-.18-.03-.27-.03-.23,0-.38.05-.47.16s-.13.25-.13.44v5.9h-1.53Z"/><path class="j" d="m178.18,63c-.23,0-.42-.08-.58-.23s-.24-.34-.24-.55.08-.39.24-.55.36-.23.58-.23.42.08.58.23.24.33.24.55-.08.4-.24.55-.36.23-.58.23Zm-.77,6.25v-5.53h1.53v5.53h-1.53Z"/><path class="j" d="m181.1,66.04v3.2h-1.53v-5.53h1.46v.98h.06c.12-.32.33-.58.62-.77s.64-.28,1.05-.28c.38,0,.72.08,1,.25.29.17.51.41.67.72.16.31.24.68.24,1.11v3.52h-1.53v-3.25c0-.34-.08-.6-.26-.79-.17-.19-.42-.29-.72-.29-.21,0-.39.04-.55.13s-.28.22-.37.39-.13.37-.13.61Z"/><path class="j" d="m186.03,63c-.23,0-.42-.08-.58-.23s-.24-.34-.24-.55.08-.39.24-.55.36-.23.58-.23.42.08.58.23.24.33.24.55-.08.4-.24.55-.36.23-.58.23Zm-.77,6.25v-5.53h1.53v5.53h-1.53Z"/><path class="j" d="m190.35,63.71v1.15h-3.33v-1.15h3.33Zm-2.58-1.33h1.53v5.16c0,.14.02.25.06.33.04.08.1.13.18.16.08.03.17.05.27.05.07,0,.14,0,.22-.02.07-.01.13-.02.17-.03l.24,1.14c-.08.02-.18.05-.32.08-.14.03-.31.05-.51.06-.37.01-.69-.03-.97-.15-.28-.11-.49-.29-.65-.53-.15-.24-.23-.54-.23-.9v-5.36Z"/><path class="j" d="m191.51,63c-.23,0-.42-.08-.58-.23s-.24-.34-.24-.55.08-.39.24-.55.36-.23.58-.23.42.08.58.23.24.33.24.55-.08.4-.24.55-.36.23-.58.23Zm-.77,6.25v-5.53h1.53v5.53h-1.53Z"/><path class="j" d="m195.39,69.35c-.56,0-1.04-.12-1.45-.36-.41-.24-.72-.57-.94-1-.22-.43-.33-.93-.33-1.49s.11-1.07.33-1.5c.22-.43.54-.76.94-1,.41-.24.89-.36,1.45-.36s1.04.12,1.45.36c.41.24.72.57.94,1,.22.43.33.93.33,1.5s-.11,1.06-.33,1.49-.54.76-.94,1c-.41.24-.89.36-1.45.36Zm0-1.19c.25,0,.47-.07.64-.22.17-.15.3-.34.39-.6.09-.25.13-.54.13-.86s-.04-.61-.13-.86c-.09-.25-.22-.45-.39-.6-.17-.15-.38-.22-.64-.22s-.47.07-.65.22c-.17.15-.3.35-.39.6-.09.25-.13.54-.13.86s.04.61.13.86c.09.25.22.45.39.6.17.15.39.22.65.22Z"/><path class="j" d="m200.04,66.04v3.2h-1.53v-5.53h1.46v.98h.07c.12-.32.33-.58.62-.77.29-.19.64-.28,1.05-.28.38,0,.72.08,1,.25.29.17.51.41.67.72s.24.68.24,1.11v3.52h-1.53v-3.25c0-.34-.08-.6-.26-.79-.18-.19-.42-.29-.72-.29-.21,0-.39.04-.54.13s-.28.22-.37.39c-.09.17-.13.37-.14.61Z"/></g><rect class="c" x="231.17" y="37.02" width="50.42" height="46.76" rx="2.78" ry="2.78"/><g><path class="j" d="m245.55,63.16v-7.38h2.91c.56,0,1.04.11,1.43.32s.69.51.9.88c.21.38.31.81.31,1.3s-.11.92-.32,1.3c-.21.38-.52.67-.92.88-.4.21-.88.31-1.45.31h-1.85v-1.25h1.6c.3,0,.55-.05.74-.16.2-.1.34-.25.44-.44.1-.19.15-.4.15-.64s-.05-.46-.15-.64c-.1-.18-.24-.33-.44-.43s-.45-.15-.75-.15h-1.05v6.1h-1.56Z"/><path class="j" d="m253.89,63.26c-.56,0-1.04-.12-1.45-.36-.41-.24-.72-.57-.94-1s-.33-.93-.33-1.49.11-1.07.33-1.5c.22-.43.53-.76.94-1s.89-.36,1.45-.36,1.04.12,1.45.36.72.57.94,1c.22.43.33.93.33,1.5s-.11,1.06-.33,1.49c-.22.43-.53.76-.94,1-.41.24-.89.36-1.45.36Zm0-1.19c.25,0,.47-.07.64-.22.17-.15.3-.34.39-.6.09-.25.13-.54.13-.86s-.04-.61-.13-.86c-.09-.25-.22-.45-.39-.6-.17-.15-.38-.22-.64-.22s-.47.07-.65.22-.3.35-.39.6c-.09.25-.13.54-.13.86s.04.61.13.86c.09.25.22.45.39.6.17.15.39.22.65.22Z"/><path class="j" d="m259.51,63.26c-.56,0-1.04-.12-1.45-.36-.41-.24-.72-.57-.94-1-.22-.43-.33-.93-.33-1.49s.11-1.07.33-1.5c.22-.43.54-.76.94-1,.41-.24.89-.36,1.45-.36s1.04.12,1.45.36c.41.24.72.57.94,1,.22.43.33.93.33,1.5s-.11,1.06-.33,1.49-.54.76-.94,1c-.41.24-.89.36-1.45.36Zm0-1.19c.25,0,.47-.07.64-.22.17-.15.3-.34.39-.6.09-.25.13-.54.13-.86s-.04-.61-.13-.86c-.09-.25-.22-.45-.39-.6-.17-.15-.38-.22-.64-.22s-.47.07-.65.22c-.17.15-.3.35-.39.6-.09.25-.13.54-.13.86s.04.61.13.86c.09.25.22.45.39.6.17.15.39.22.65.22Z"/><path class="j" d="m264.16,55.78v7.38h-1.53v-7.38h1.53Z"/><path class="j" d="m269.37,59.2l-1.4.09c-.02-.12-.08-.23-.16-.33-.08-.1-.18-.18-.31-.23-.13-.06-.28-.09-.46-.09-.24,0-.44.05-.6.15-.16.1-.24.23-.24.4,0,.13.05.24.16.33s.29.16.54.22l1,.2c.54.11.94.29,1.2.53.26.25.4.57.4.97,0,.36-.11.68-.32.95-.21.27-.5.49-.87.64-.37.15-.79.23-1.27.23-.73,0-1.32-.15-1.75-.46-.43-.31-.69-.72-.76-1.25l1.51-.08c.04.22.16.39.33.51.17.12.4.17.67.17s.49-.05.65-.16c.17-.1.25-.24.25-.41,0-.14-.06-.25-.18-.34-.12-.09-.29-.16-.53-.21l-.96-.19c-.54-.11-.94-.3-1.21-.56-.26-.27-.39-.61-.39-1.02,0-.36.1-.66.29-.92.19-.26.47-.46.82-.59.35-.14.76-.21,1.24-.21.7,0,1.25.15,1.65.44.4.3.64.7.7,1.21Z"/></g><rect class="f" x="144.87" y=".28" width="149.17" height="103.05" rx="12.5" ry="12.5"/><g><path class="h" d="m207.81,16.96v-8.73h2.95c.68,0,1.24.12,1.68.37.44.25.76.58.97,1,.21.42.32.88.32,1.4s-.1.98-.31,1.4-.53.75-.96,1c-.44.25-.99.37-1.67.37h-2.11v-.94h2.08c.47,0,.85-.08,1.13-.24.28-.16.49-.38.62-.66.13-.28.19-.59.19-.94s-.06-.66-.19-.94c-.13-.28-.34-.49-.62-.65s-.67-.24-1.14-.24h-1.86v7.79h-1.06Z"/><path class="h" d="m217.16,17.1c-.59,0-1.11-.14-1.55-.42-.45-.28-.79-.67-1.04-1.18-.25-.51-.37-1.1-.37-1.77s.12-1.28.37-1.79c.25-.51.59-.9,1.04-1.19.44-.28.96-.42,1.55-.42s1.11.14,1.55.42c.44.28.79.68,1.04,1.19.25.51.37,1.1.37,1.79s-.12,1.27-.37,1.77c-.25.51-.59.9-1.04,1.18-.45.28-.96.42-1.55.42Zm0-.9c.45,0,.82-.12,1.11-.35.29-.23.5-.53.64-.91.14-.38.21-.78.21-1.22s-.07-.85-.21-1.22c-.14-.38-.35-.68-.64-.92-.29-.23-.66-.35-1.11-.35s-.82.12-1.11.35c-.29.23-.5.54-.64.92-.14.38-.21.79-.21,1.22s.07.84.21,1.22c.14.38.35.68.64.91.29.23.66.35,1.11.35Z"/><path class="h" d="m220.94,16.96v-6.55h.97v.99h.07c.12-.32.33-.59.65-.79s.67-.3,1.06-.3c.07,0,.17,0,.28,0,.11,0,.19,0,.25.01v1.02s-.11-.02-.23-.04c-.12-.02-.25-.03-.38-.03-.32,0-.6.07-.85.2-.25.13-.44.31-.59.55s-.21.5-.21.79v4.14h-1.01Z"/><path class="h" d="m227.94,10.42v.85h-3.39v-.85h3.39Zm-2.4-1.57h1.01v6.24c0,.28.04.5.13.64.08.14.19.23.32.28.13.05.27.07.42.07.11,0,.2,0,.27-.02.07-.01.13-.02.17-.03l.2.9c-.07.03-.16.05-.29.08-.12.03-.28.04-.46.04-.28,0-.56-.06-.83-.18s-.5-.31-.67-.56-.27-.57-.27-.95v-6.51Z"/><path class="h" d="m230.67,17.12c-.42,0-.79-.08-1.13-.24s-.61-.39-.8-.69c-.2-.3-.3-.66-.3-1.09,0-.38.07-.68.22-.91s.34-.42.59-.55c.25-.13.52-.23.82-.3.3-.07.6-.12.91-.16.4-.05.72-.09.97-.12.25-.03.43-.07.54-.14.12-.07.17-.18.17-.34v-.03c0-.42-.11-.75-.34-.98-.23-.23-.58-.35-1.04-.35s-.86.1-1.13.31c-.27.21-.46.44-.58.67l-.96-.34c.17-.4.4-.71.68-.93.29-.22.6-.38.94-.47.34-.09.67-.13,1-.13.21,0,.45.02.73.07s.54.15.8.3.47.39.64.69c.17.31.26.72.26,1.24v4.31h-1.01v-.89h-.05c-.07.14-.18.29-.34.46-.16.16-.37.3-.63.41-.26.11-.59.17-.97.17Zm.15-.9c.4,0,.73-.08,1.01-.23.27-.16.48-.36.62-.6s.21-.51.21-.78v-.92c-.04.05-.14.1-.28.14-.14.04-.31.08-.49.11-.19.03-.37.06-.54.08-.17.02-.32.04-.42.05-.26.03-.5.09-.73.16-.23.08-.41.19-.54.34-.14.15-.21.35-.21.61,0,.35.13.61.39.79.26.18.59.27.99.27Z"/><path class="h" d="m235.79,8.24v8.73h-1.01v-8.73h1.01Z"/></g><g><line class="b" x1="70.64" y1="60.4" x2="150.17" y2="60.4"/><polygon class="j" points="157.23 60.4 147.28 64.46 149.64 60.4 147.28 56.33 157.23 60.4"/></g><g><line class="b" x1="207.65" y1="60.4" x2="224.11" y2="60.4"/><polygon class="j" points="231.17 60.4 221.22 64.46 223.58 60.4 221.22 56.33 231.17 60.4"/></g><g><line class="b" x1="264.38" y1="83.62" x2="264.38" y2="150.45"/><polygon class="j" points="264.38 157.51 260.32 147.56 264.38 149.92 268.45 147.56 264.38 157.51"/></g><g><polyline class="b" points="254.87 83.62 254.87 138.08 109.19 138.08 109.19 208.88 84.82 208.88"/><polygon class="j" points="77.76 208.88 87.71 204.82 85.35 208.88 87.71 212.95 77.76 208.88"/></g><g><line class="b" x1="44.91" y1="100.83" x2="44.91" y2="151.89"/><polygon class="j" points="44.91 158.95 40.85 149 44.91 151.37 48.98 149 44.91 158.95"/></g><g><polyline class="b" points="137.81 226.11 122.44 226.11 122.44 252.91 .5 252.91 .5 60.4 15.52 60.4"/><polygon class="j" points="144.87 226.11 134.92 222.04 137.28 226.11 134.92 230.17 144.87 226.11"/></g><g><path class="h" d="m20.47,88.13v8.73h-1.06v-8.73h1.06Z"/><path class="h" d="m22.73,92.92v3.94h-1.01v-6.55h.97v1.02h.08c.15-.33.39-.6.7-.8s.72-.3,1.21-.3c.44,0,.83.09,1.16.27.33.18.59.45.78.82.18.37.28.83.28,1.38v4.16h-1.01v-4.09c0-.51-.13-.92-.4-1.2-.27-.29-.63-.43-1.1-.43-.32,0-.61.07-.86.21s-.45.34-.59.61-.22.59-.22.97Z"/><path class="h" d="m32.66,91.78l-.9.26c-.06-.15-.14-.3-.25-.44-.11-.14-.26-.26-.45-.36s-.43-.14-.72-.14c-.4,0-.73.09-1,.27-.27.18-.4.42-.4.7,0,.25.09.45.27.59.18.14.47.27.85.36l.97.24c.58.14,1.02.36,1.31.65.29.29.43.67.43,1.12,0,.38-.11.71-.32,1.01-.21.3-.51.53-.9.7-.38.17-.83.26-1.34.26-.67,0-1.22-.14-1.66-.43-.44-.29-.71-.71-.83-1.27l.95-.24c.09.35.26.62.52.79s.59.26,1,.26c.47,0,.84-.1,1.12-.3.28-.2.42-.44.42-.72,0-.23-.08-.42-.24-.57-.16-.15-.4-.27-.73-.35l-1.09-.26c-.6-.14-1.04-.36-1.32-.66s-.42-.68-.42-1.13c0-.37.1-.7.31-.98s.49-.51.86-.67c.36-.16.77-.24,1.23-.24.65,0,1.16.14,1.53.43.37.28.63.66.79,1.12Z"/><path class="h" d="m36.42,90.31v.85h-3.39v-.85h3.39Zm-2.4-1.57h1.01v6.24c0,.28.04.5.13.64.08.14.19.23.32.28.13.05.27.07.42.07.11,0,.2,0,.27-.02.07-.01.13-.02.17-.03l.2.9c-.07.03-.16.05-.29.08-.12.03-.28.04-.46.04-.28,0-.56-.06-.83-.18s-.5-.31-.67-.56-.27-.57-.27-.95v-6.51Z"/><path class="h" d="m37.22,96.86v-6.55h.97v.99h.07c.12-.32.33-.59.65-.79s.67-.3,1.06-.3c.07,0,.17,0,.28,0s.19,0,.25.01v1.02s-.11-.02-.23-.04-.25-.03-.38-.03c-.32,0-.6.07-.85.2-.25.13-.44.31-.59.55-.14.23-.21.5-.21.79v4.14h-1.01Z"/><path class="h" d="m45.09,94.18v-3.87h1.01v6.55h-1.01v-1.11h-.07c-.15.33-.39.61-.72.85-.32.23-.73.35-1.23.35-.41,0-.77-.09-1.09-.27-.32-.18-.57-.45-.75-.82-.18-.37-.27-.83-.27-1.38v-4.16h1.01v4.09c0,.48.13.86.4,1.14.27.28.61.43,1.03.43.25,0,.5-.06.77-.19.26-.13.48-.32.66-.59.18-.26.27-.6.27-1.01Z"/><path class="h" d="m49.88,97c-.61,0-1.14-.14-1.59-.43-.44-.29-.78-.69-1.02-1.2-.24-.51-.36-1.09-.36-1.74s.12-1.25.37-1.76c.25-.51.59-.91,1.03-1.2.44-.29.96-.43,1.55-.43.46,0,.88.09,1.24.26.37.17.67.41.91.72.24.31.38.67.44,1.07h-1.01c-.08-.3-.25-.56-.51-.79-.26-.23-.62-.35-1.06-.35-.39,0-.74.1-1.03.3s-.52.49-.69.86c-.16.37-.25.8-.25,1.29s.08.95.24,1.32c.16.38.39.67.68.87s.64.31,1.04.31c.26,0,.5-.05.71-.14.21-.09.39-.22.54-.39.15-.17.25-.38.32-.61h1.01c-.06.39-.2.73-.42,1.04-.22.31-.52.55-.88.73s-.79.27-1.27.27Z"/><path class="h" d="m56.04,90.31v.85h-3.39v-.85h3.39Zm-2.4-1.57h1.01v6.24c0,.28.04.5.13.64.08.14.19.23.32.28.13.05.27.07.42.07.11,0,.2,0,.27-.02.07-.01.13-.02.17-.03l.2.9c-.07.03-.16.05-.29.08-.12.03-.28.04-.46.04-.28,0-.56-.06-.83-.18s-.5-.31-.67-.56-.27-.57-.27-.95v-6.51Z"/><path class="h" d="m59.43,97c-.59,0-1.11-.14-1.55-.42-.44-.28-.79-.67-1.04-1.18s-.37-1.1-.37-1.77.12-1.28.37-1.79c.25-.51.6-.9,1.04-1.19.44-.28.96-.42,1.55-.42s1.11.14,1.55.42c.44.28.79.68,1.04,1.19.25.51.37,1.1.37,1.79s-.12,1.27-.37,1.77-.6.9-1.04,1.18c-.44.28-.96.42-1.55.42Zm0-.9c.45,0,.82-.12,1.11-.35s.5-.53.64-.91.21-.78.21-1.22-.07-.85-.21-1.22c-.14-.38-.35-.68-.64-.92s-.66-.35-1.11-.35-.82.12-1.11.35c-.29.23-.5.54-.64.92-.14.38-.21.79-.21,1.22s.07.84.21,1.22.35.68.64.91c.29.23.66.35,1.11.35Z"/><path class="h" d="m63.21,96.86v-6.55h.97v.99h.07c.12-.32.33-.59.65-.79s.67-.3,1.06-.3c.07,0,.17,0,.28,0s.19,0,.25.01v1.02s-.11-.02-.23-.04-.25-.03-.38-.03c-.32,0-.6.07-.85.2-.25.13-.44.31-.59.55-.14.23-.21.5-.21.79v4.14h-1.01Z"/><path class="h" d="m71.59,91.78l-.9.26c-.06-.15-.14-.3-.25-.44-.11-.14-.26-.26-.45-.36s-.43-.14-.72-.14c-.4,0-.73.09-1,.27-.27.18-.4.42-.4.7,0,.25.09.45.27.59.18.14.47.27.85.36l.97.24c.58.14,1.02.36,1.31.65.29.29.43.67.43,1.12,0,.38-.11.71-.32,1.01-.21.3-.51.53-.9.7-.38.17-.83.26-1.34.26-.67,0-1.22-.14-1.66-.43-.44-.29-.71-.71-.83-1.27l.95-.24c.09.35.26.62.52.79s.59.26,1,.26c.47,0,.84-.1,1.12-.3.28-.2.42-.44.42-.72,0-.23-.08-.42-.24-.57-.16-.15-.4-.27-.73-.35l-1.09-.26c-.6-.14-1.04-.36-1.32-.66s-.42-.68-.42-1.13c0-.37.1-.7.31-.98s.49-.51.86-.67c.36-.16.77-.24,1.23-.24.65,0,1.16.14,1.53.43.37.28.63.66.79,1.12Z"/></g></svg>