<?xml version="1.0" encoding="UTF-8"?><svg id="a" xmlns="http://www.w3.org/2000/svg" viewBox="0 0 1906.77 391.26"><defs><style>.b{fill:#405daa;}.c,.d{fill:#fff;}.c,.d,.e,.f{stroke-miterlimit:10;}.c,.e{stroke:#231f20;}.d,.f{stroke:#405daa;}.e{stroke-width:1.5px;}.e,.f{fill:none;}.g{fill:#231f20;}</style></defs><g><circle class="c" cx="455.94" cy="75.75" r="31.46"/><g><path class="g" d="m437.73,68.06v-4.51h21.26v4.51h-7.93v21.38h-5.41v-21.38h-7.93Z"/><path class="g" d="m471.49,63.54v25.89h-5.47v-20.69h-.15l-5.93,3.72v-4.85l6.41-4.06h5.15Z"/></g></g><g><circle class="c" cx="1023.47" cy="75.92" r="31.46"/><g><path class="g" d="m1005.27,68.22v-4.51h21.26v4.51h-7.93v21.38h-5.41v-21.38h-7.93Z"/><path class="g" d="m1039.02,63.71v25.89h-5.47v-20.69h-.15l-5.93,3.72v-4.85l6.41-4.06h5.14Z"/></g></g><g><circle class="c" cx="1308.08" cy="76.38" r="31.46"/><g><path class="g" d="m1289.88,68.69v-4.51h21.26v4.51h-7.93v21.38h-5.41v-21.38h-7.93Z"/><path class="g" d="m1323.63,64.17v25.89h-5.47v-20.69h-.15l-5.93,3.72v-4.85l6.41-4.06h5.14Z"/></g></g><g><circle class="c" cx="739.61" cy="76.1" r="31.46"/><g><path class="g" d="m721.4,68.41v-4.51h21.26v4.51h-7.93v21.38h-5.41v-21.38h-7.93Z"/><path class="g" d="m755.15,63.9v25.89h-5.47v-20.69h-.15l-5.93,3.72v-4.85l6.41-4.06h5.14Z"/></g></g><g><circle class="c" cx="455.5" cy="358.31" r="31.46"/><g><path class="g" d="m434.67,351.02v-4.51h21.26v4.51h-7.93v21.38h-5.41v-21.38h-7.93Z"/><path class="g" d="m466.73,372.75c-1.89,0-3.57-.33-5.04-.98-1.47-.65-2.63-1.55-3.48-2.71-.85-1.15-1.28-2.48-1.31-3.99h5.51c.03.63.24,1.19.63,1.66.38.48.9.84,1.54,1.11.64.26,1.36.39,2.16.39s1.57-.15,2.21-.44c.64-.29,1.14-.7,1.5-1.23s.54-1.12.54-1.81-.19-1.3-.58-1.84c-.38-.54-.93-.95-1.64-1.26s-1.56-.46-2.54-.46h-2.41v-4.02h2.41c.83,0,1.56-.14,2.19-.43.64-.29,1.13-.68,1.49-1.19.35-.51.53-1.11.53-1.79s-.15-1.22-.46-1.71-.74-.88-1.29-1.16-1.19-.42-1.93-.42-1.42.13-2.04.4-1.11.64-1.48,1.13-.57,1.06-.59,1.72h-5.25c.02-1.49.45-2.81,1.28-3.94.83-1.14,1.94-2.03,3.34-2.67,1.4-.65,2.99-.97,4.76-.97s3.35.33,4.69.97c1.34.65,2.38,1.52,3.13,2.62.75,1.1,1.11,2.33,1.11,3.7,0,1.45-.44,2.66-1.35,3.63-.91.97-2.08,1.58-3.53,1.85v.2c1.91.25,3.36.9,4.36,1.98s1.49,2.42,1.49,4.03c0,1.48-.42,2.79-1.27,3.93-.86,1.15-2.03,2.05-3.53,2.71-1.5.66-3.22.99-5.16.99Z"/></g></g><g><circle class="c" cx="1023.04" cy="358.47" r="31.46"/><g><path class="g" d="m1001.83,350.78v-4.51h21.26v4.51h-7.93v21.38h-5.41v-21.38h-7.93Z"/><path class="g" d="m1033.89,372.51c-1.89,0-3.57-.33-5.04-.98-1.47-.65-2.63-1.55-3.48-2.71-.85-1.15-1.28-2.48-1.31-3.99h5.51c.03.63.24,1.19.63,1.66.38.48.9.85,1.54,1.11.64.26,1.36.39,2.16.39s1.57-.15,2.21-.44c.64-.29,1.14-.7,1.5-1.23.36-.52.54-1.12.54-1.81s-.19-1.3-.58-1.84c-.38-.54-.93-.96-1.64-1.26-.71-.3-1.56-.46-2.54-.46h-2.41v-4.02h2.41c.83,0,1.56-.14,2.19-.43.64-.29,1.13-.68,1.49-1.19.35-.51.53-1.11.53-1.79s-.15-1.22-.46-1.71-.74-.88-1.29-1.16-1.19-.42-1.93-.42-1.42.13-2.04.4-1.11.64-1.48,1.13c-.37.49-.57,1.06-.59,1.72h-5.25c.02-1.49.45-2.81,1.28-3.94s1.94-2.03,3.34-2.67,2.99-.97,4.76-.97,3.35.32,4.69.97c1.34.65,2.38,1.52,3.13,2.62.75,1.1,1.11,2.33,1.11,3.7,0,1.45-.44,2.66-1.35,3.63-.91.97-2.08,1.58-3.53,1.85v.2c1.91.24,3.36.9,4.36,1.98,1,1.07,1.49,2.42,1.49,4.03,0,1.47-.42,2.79-1.27,3.93-.86,1.15-2.03,2.05-3.53,2.71s-3.22.99-5.16.99Z"/></g></g><g><circle class="c" cx="739.23" cy="358.62" r="31.46"/><g><path class="g" d="m718.4,351.33v-4.51h21.26v4.51h-7.93v21.38h-5.41v-21.38h-7.93Z"/><path class="g" d="m750.46,373.07c-1.89,0-3.57-.33-5.04-.98-1.47-.65-2.63-1.55-3.48-2.71s-1.28-2.48-1.31-3.99h5.51c.03.63.24,1.19.63,1.66.38.48.9.85,1.54,1.11.64.26,1.36.39,2.16.39s1.57-.15,2.21-.44,1.14-.7,1.5-1.23c.36-.52.54-1.12.54-1.81s-.19-1.3-.58-1.84-.93-.96-1.64-1.26c-.71-.3-1.56-.46-2.53-.46h-2.42v-4.02h2.42c.83,0,1.56-.14,2.19-.43.64-.29,1.13-.68,1.49-1.19.35-.51.53-1.11.53-1.79s-.15-1.22-.46-1.71-.74-.88-1.29-1.16c-.55-.28-1.2-.42-1.93-.42s-1.42.13-2.04.4-1.11.64-1.48,1.13c-.37.49-.57,1.06-.59,1.72h-5.25c.03-1.49.45-2.81,1.28-3.94.83-1.14,1.94-2.03,3.34-2.67,1.4-.64,2.99-.97,4.76-.97s3.35.32,4.69.97c1.34.65,2.38,1.52,3.13,2.62.75,1.1,1.11,2.33,1.11,3.7,0,1.45-.44,2.66-1.35,3.63-.91.97-2.08,1.58-3.53,1.85v.2c1.9.24,3.36.9,4.36,1.98,1,1.07,1.49,2.42,1.49,4.03,0,1.47-.42,2.79-1.27,3.93-.86,1.15-2.03,2.05-3.53,2.71-1.5.66-3.22.99-5.16.99Z"/></g></g><g><circle class="c" cx="1307.49" cy="359.3" r="31.46"/><g><path class="g" d="m1287.66,352.02v-4.51h21.26v4.51h-7.93v21.38h-5.41v-21.38h-7.93Z"/><path class="g" d="m1319.72,373.75c-1.89,0-3.57-.33-5.04-.98s-2.63-1.55-3.48-2.71-1.28-2.48-1.31-3.99h5.51c.03.63.24,1.19.63,1.66.38.48.9.84,1.54,1.11.64.26,1.36.39,2.16.39s1.57-.15,2.21-.44,1.14-.7,1.5-1.23c.36-.52.54-1.12.54-1.81s-.19-1.3-.58-1.84-.93-.95-1.64-1.26c-.71-.3-1.56-.46-2.53-.46h-2.42v-4.02h2.42c.83,0,1.56-.14,2.19-.43.64-.29,1.13-.68,1.49-1.19.35-.51.53-1.11.53-1.79s-.15-1.22-.46-1.71-.74-.88-1.29-1.16c-.55-.28-1.2-.42-1.93-.42s-1.42.13-2.04.4-1.11.64-1.48,1.13c-.37.49-.57,1.06-.59,1.72h-5.25c.03-1.49.45-2.81,1.28-3.94.83-1.14,1.94-2.03,3.34-2.67,1.4-.65,2.99-.97,4.76-.97s3.35.33,4.69.97c1.34.65,2.38,1.52,3.13,2.62s1.11,2.33,1.11,3.7c0,1.45-.44,2.66-1.35,3.63-.91.97-2.08,1.58-3.53,1.85v.2c1.9.25,3.36.9,4.36,1.98,1,1.07,1.49,2.42,1.49,4.03,0,1.48-.42,2.79-1.27,3.93-.86,1.15-2.03,2.05-3.53,2.71-1.5.66-3.22.99-5.16.99Z"/></g></g><g><circle class="c" cx="455.8" cy="216.53" r="31.46"/><g><path class="g" d="m434.97,209.24v-4.51h21.26v4.51h-7.93v21.38h-5.41v-21.38h-7.93Z"/><path class="g" d="m457.46,230.62v-3.94l9.22-8.53c.78-.76,1.44-1.44,1.98-2.05.54-.61.94-1.2,1.22-1.79.28-.59.42-1.22.42-1.9,0-.76-.17-1.41-.52-1.97-.35-.55-.82-.98-1.42-1.28-.6-.3-1.28-.45-2.04-.45s-1.48.16-2.07.48c-.59.32-1.04.78-1.37,1.38-.32.6-.48,1.31-.48,2.14h-5.2c0-1.69.38-3.16,1.15-4.41.77-1.25,1.84-2.21,3.22-2.9,1.38-.68,2.97-1.02,4.78-1.02s3.47.33,4.85.98c1.38.65,2.45,1.56,3.22,2.71.77,1.15,1.15,2.48,1.15,3.97,0,.98-.19,1.94-.58,2.9-.38.95-1.06,2.01-2.04,3.17-.98,1.16-2.36,2.55-4.13,4.17l-3.78,3.7v.18h10.87v4.48h-18.46Z"/></g></g><g><circle class="c" cx="1023.33" cy="216.7" r="31.46"/><g><path class="g" d="m1001.13,209v-4.51h21.26v4.51h-7.93v21.38h-5.41v-21.38h-7.93Z"/><path class="g" d="m1023.62,230.38v-3.94l9.22-8.53c.78-.76,1.44-1.44,1.98-2.05.54-.61.94-1.2,1.22-1.79.28-.59.42-1.22.42-1.9,0-.76-.17-1.41-.52-1.97-.35-.55-.82-.98-1.42-1.28-.6-.3-1.28-.45-2.04-.45s-1.48.16-2.07.48c-.59.32-1.04.78-1.37,1.38-.32.6-.48,1.31-.48,2.14h-5.2c0-1.69.38-3.16,1.15-4.41.77-1.25,1.84-2.21,3.22-2.9,1.38-.68,2.97-1.02,4.78-1.02s3.47.33,4.85.98c1.38.65,2.45,1.56,3.22,2.71.77,1.15,1.15,2.48,1.15,3.97,0,.98-.19,1.94-.58,2.9-.38.95-1.06,2.01-2.04,3.17-.98,1.16-2.36,2.55-4.13,4.17l-3.78,3.7v.18h10.87v4.48h-18.46Z"/></g></g><g><circle class="c" cx="739.53" cy="216.85" r="31.46"/><g><path class="g" d="m718.7,209.56v-4.51h21.26v4.51h-7.93v21.38h-5.41v-21.38h-7.93Z"/><path class="g" d="m741.19,230.94v-3.94l9.22-8.53c.78-.76,1.44-1.44,1.98-2.05.54-.61.94-1.2,1.22-1.79.28-.59.42-1.22.42-1.9,0-.76-.17-1.41-.52-1.97-.35-.55-.82-.98-1.42-1.28s-1.28-.45-2.04-.45-1.48.16-2.07.48c-.59.32-1.04.78-1.37,1.38-.32.6-.48,1.31-.48,2.14h-5.2c0-1.69.38-3.16,1.15-4.41.77-1.25,1.84-2.21,3.22-2.9,1.38-.68,2.98-1.02,4.78-1.02s3.47.33,4.85.98c1.38.65,2.45,1.56,3.22,2.71.77,1.15,1.15,2.48,1.15,3.97,0,.98-.19,1.94-.58,2.9-.38.95-1.06,2.01-2.04,3.17-.98,1.16-2.36,2.55-4.13,4.17l-3.78,3.7v.18h10.87v4.48h-18.46Z"/></g></g><g><circle class="c" cx="1307.79" cy="217.53" r="31.46"/><g><path class="g" d="m1286.96,210.24v-4.51h21.26v4.51h-7.93v21.38h-5.41v-21.38h-7.93Z"/><path class="g" d="m1309.45,231.62v-3.94l9.22-8.53c.78-.76,1.44-1.44,1.98-2.05.54-.61.94-1.2,1.22-1.79.28-.59.42-1.22.42-1.9,0-.76-.17-1.41-.52-1.97-.35-.55-.82-.98-1.42-1.28s-1.28-.45-2.04-.45-1.48.16-2.07.48c-.59.32-1.04.78-1.37,1.38-.32.6-.48,1.31-.48,2.14h-5.2c0-1.69.38-3.16,1.15-4.41.77-1.25,1.84-2.21,3.22-2.9,1.38-.68,2.98-1.02,4.78-1.02s3.47.33,4.85.98c1.38.65,2.45,1.56,3.22,2.71.77,1.15,1.15,2.48,1.15,3.97,0,.98-.19,1.94-.58,2.9-.38.95-1.06,2.01-2.04,3.17-.98,1.16-2.36,2.55-4.13,4.17l-3.78,3.7v.18h10.87v4.48h-18.46Z"/></g></g><g><circle class="f" cx="314.56" cy="216.95" r="31.46"/><g><path class="b" d="m301.25,226.81v-25.89h10.21c1.96,0,3.64.37,5.02,1.12,1.38.75,2.44,1.78,3.17,3.1.73,1.32,1.09,2.84,1.09,4.56s-.37,3.24-1.11,4.55c-.74,1.31-1.81,2.34-3.22,3.07s-3.1,1.1-5.09,1.1h-6.51v-4.39h5.63c1.05,0,1.92-.18,2.61-.55s1.2-.88,1.54-1.53c.34-.65.51-1.41.51-2.26s-.17-1.61-.51-2.26c-.34-.65-.86-1.15-1.55-1.5-.69-.36-1.57-.54-2.63-.54h-3.69v21.42h-5.47Z"/><path class="b" d="m325.16,238.66h-5.35v-15.09h5.4c1.52,0,2.83.3,3.92.9s1.94,1.47,2.53,2.59c.59,1.12.89,2.47.89,4.04s-.3,2.92-.89,4.05c-.59,1.13-1.44,2-2.54,2.6s-2.42.91-3.95.91Zm-2.16-2.73h2.03c.94,0,1.74-.17,2.38-.5.65-.34,1.13-.86,1.46-1.57s.49-1.63.49-2.75-.16-2.03-.49-2.73-.81-1.23-1.46-1.56c-.64-.33-1.44-.5-2.38-.5h-2.03v9.63Z"/></g></g><circle class="d" cx="881.09" cy="216.11" r="31.46"/><circle class="f" cx="597.29" cy="216.26" r="31.46"/><circle class="d" cx="1165.55" cy="216.95" r="31.46"/><g><line class="e" x1="336.11" y1="194.45" x2="425.4" y2="105.16"/><polygon class="g" points="432.89 97.67 426.65 112.54 424.84 105.72 418.02 103.91 432.89 97.67"/></g><g><line class="e" x1="619.34" y1="194.51" x2="708.63" y2="105.23"/><polygon class="g" points="716.12 97.74 709.88 112.6 708.07 105.79 701.25 103.98 716.12 97.74"/></g><g><line class="e" x1="905.32" y1="195.61" x2="994.61" y2="106.32"/><polygon class="g" points="1002.1 98.83 995.86 113.7 994.05 106.88 987.24 105.07 1002.1 98.83"/></g><g><line class="e" x1="1188.55" y1="195.67" x2="1277.84" y2="106.39"/><polygon class="g" points="1285.33 98.9 1279.09 113.76 1277.28 106.95 1270.47 105.14 1285.33 98.9"/></g><g><line class="e" x1="765.32" y1="337.3" x2="854.61" y2="248.01"/><polygon class="g" points="862.1 240.52 855.86 255.38 854.05 248.57 847.23 246.76 862.1 240.52"/></g><g><line class="e" x1="1048.55" y1="337.36" x2="1137.84" y2="248.08"/><polygon class="g" points="1145.33 240.59 1139.09 255.45 1137.28 248.64 1130.46 246.83 1145.33 240.59"/></g><g><line class="e" x1="479.06" y1="336.2" x2="568.34" y2="246.92"/><polygon class="g" points="575.83 239.43 569.59 254.29 567.78 247.48 560.97 245.67 575.83 239.43"/></g><g><circle class="c" cx="1592.01" cy="77.59" r="31.46"/><g><path class="g" d="m1573.8,69.89v-4.51h21.26v4.51h-7.93v21.38h-5.41v-21.38h-7.93Z"/><path class="g" d="m1607.56,65.38v25.89h-5.47v-20.69h-.15l-5.93,3.72v-4.85l6.41-4.06h5.14Z"/></g></g><circle class="d" cx="1449.47" cy="218.15" r="31.46"/><g><line class="e" x1="1472.48" y1="196.88" x2="1561.77" y2="107.59"/><polygon class="g" points="1569.26 100.1 1563.01 114.97 1561.21 108.15 1554.39 106.34 1569.26 100.1"/></g><g><line class="e" x1="1332.48" y1="338.57" x2="1421.76" y2="249.28"/><polygon class="g" points="1429.25 241.79 1423.01 256.66 1421.2 249.84 1414.39 248.03 1429.25 241.79"/></g><g><path class="b" d="m584.6,226.22v-25.89h10.21c1.96,0,3.64.37,5.02,1.12,1.38.75,2.44,1.78,3.17,3.1.73,1.32,1.09,2.84,1.09,4.56s-.37,3.24-1.11,4.55c-.74,1.31-1.81,2.34-3.22,3.07s-3.1,1.1-5.09,1.1h-6.51v-4.39h5.63c1.05,0,1.92-.18,2.61-.55.69-.37,1.2-.88,1.54-1.53.34-.65.51-1.41.51-2.26s-.17-1.61-.51-2.26c-.34-.65-.86-1.15-1.55-1.5-.69-.36-1.57-.54-2.63-.54h-3.69v21.42h-5.47Z"/><path class="b" d="m608.51,238.07h-5.35v-15.09h5.4c1.52,0,2.83.3,3.92.9s1.94,1.47,2.53,2.59c.59,1.12.89,2.47.89,4.04s-.3,2.92-.89,4.05c-.59,1.13-1.44,2-2.54,2.6-1.1.6-2.42.91-3.95.91Zm-2.16-2.73h2.03c.94,0,1.74-.17,2.38-.5s1.13-.86,1.46-1.57c.33-.71.49-1.63.49-2.75s-.16-2.03-.49-2.73c-.33-.71-.81-1.23-1.46-1.56-.64-.33-1.44-.5-2.38-.5h-2.03v9.63Z"/></g><g><path class="b" d="m867.72,226.53v-25.89h10.21c1.96,0,3.64.37,5.02,1.12,1.38.75,2.44,1.78,3.17,3.1.73,1.32,1.09,2.84,1.09,4.56s-.37,3.24-1.11,4.55c-.74,1.31-1.81,2.34-3.22,3.07s-3.1,1.1-5.09,1.1h-6.51v-4.39h5.63c1.05,0,1.92-.18,2.61-.55.69-.37,1.2-.88,1.54-1.53.34-.65.51-1.41.51-2.26s-.17-1.61-.51-2.26c-.34-.65-.86-1.15-1.55-1.5-.69-.36-1.57-.54-2.63-.54h-3.69v21.42h-5.47Z"/><path class="b" d="m891.63,238.38h-5.35v-15.09h5.4c1.52,0,2.83.3,3.92.9s1.94,1.47,2.53,2.59c.59,1.12.89,2.47.89,4.04s-.3,2.92-.89,4.05c-.59,1.13-1.44,2-2.54,2.6-1.1.6-2.42.91-3.95.91Zm-2.16-2.73h2.03c.94,0,1.74-.17,2.38-.5s1.13-.86,1.46-1.57c.33-.71.49-1.63.49-2.75s-.16-2.03-.49-2.73c-.33-.71-.81-1.23-1.46-1.56-.64-.33-1.44-.5-2.38-.5h-2.03v9.63Z"/></g><g><path class="b" d="m1152.47,227.22v-25.89h10.21c1.96,0,3.64.37,5.02,1.12,1.38.75,2.44,1.78,3.17,3.1.73,1.32,1.09,2.84,1.09,4.56s-.37,3.24-1.11,4.55c-.74,1.31-1.81,2.34-3.22,3.07s-3.1,1.1-5.09,1.1h-6.51v-4.39h5.62c1.05,0,1.92-.18,2.61-.55.69-.37,1.2-.88,1.54-1.53.34-.65.51-1.41.51-2.26s-.17-1.61-.51-2.26c-.34-.65-.86-1.15-1.55-1.5-.69-.36-1.57-.54-2.63-.54h-3.69v21.42h-5.47Z"/><path class="b" d="m1176.38,239.07h-5.35v-15.09h5.39c1.52,0,2.83.3,3.92.9s1.94,1.47,2.53,2.59c.59,1.12.89,2.47.89,4.04s-.3,2.92-.89,4.05c-.59,1.13-1.44,2-2.54,2.6-1.1.6-2.42.91-3.95.91Zm-2.16-2.73h2.03c.94,0,1.74-.17,2.38-.5.65-.34,1.13-.86,1.46-1.57.33-.71.49-1.63.49-2.75s-.16-2.03-.49-2.73c-.33-.71-.81-1.23-1.46-1.56-.64-.33-1.44-.5-2.38-.5h-2.03v9.63Z"/></g><g><path class="b" d="m1435.21,227.95v-25.89h10.21c1.96,0,3.64.37,5.02,1.12,1.38.75,2.44,1.78,3.17,3.1.73,1.32,1.09,2.84,1.09,4.56s-.37,3.24-1.11,4.55c-.74,1.31-1.81,2.34-3.22,3.07s-3.1,1.1-5.09,1.1h-6.51v-4.39h5.63c1.05,0,1.92-.18,2.61-.55.69-.37,1.2-.88,1.54-1.53.34-.65.51-1.41.51-2.26s-.17-1.61-.51-2.26c-.34-.65-.86-1.15-1.55-1.5-.69-.36-1.57-.54-2.63-.54h-3.69v21.42h-5.47Z"/><path class="b" d="m1459.12,239.81h-5.35v-15.09h5.4c1.52,0,2.83.3,3.92.9s1.94,1.47,2.53,2.59c.59,1.12.89,2.47.89,4.04s-.3,2.92-.89,4.05c-.59,1.13-1.44,2-2.54,2.6-1.1.6-2.42.91-3.95.91Zm-2.16-2.73h2.03c.94,0,1.74-.17,2.38-.5s1.13-.86,1.46-1.57c.33-.71.49-1.63.49-2.75s-.16-2.03-.49-2.73c-.33-.71-.81-1.23-1.46-1.56-.64-.33-1.44-.5-2.38-.5h-2.03v9.63Z"/></g><g><circle class="c" cx="1593.14" cy="359.17" r="31.46"/><g><path class="g" d="m1573.31,351.88v-4.51h21.26v4.51h-7.93v21.38h-5.41v-21.38h-7.93Z"/><path class="g" d="m1605.37,373.62c-1.89,0-3.57-.33-5.04-.98-1.47-.65-2.63-1.55-3.48-2.71-.85-1.15-1.28-2.48-1.31-3.99h5.51c.03.63.24,1.19.62,1.66.38.48.9.84,1.54,1.11.64.26,1.36.39,2.16.39s1.57-.15,2.21-.44,1.14-.7,1.5-1.23.54-1.12.54-1.81-.19-1.3-.58-1.84c-.38-.54-.93-.95-1.64-1.26-.71-.3-1.56-.46-2.54-.46h-2.41v-4.02h2.41c.83,0,1.56-.14,2.19-.43.64-.29,1.13-.68,1.49-1.19s.53-1.11.53-1.79-.15-1.22-.46-1.71c-.31-.49-.74-.88-1.29-1.16-.55-.28-1.2-.42-1.93-.42s-1.42.13-2.04.4-1.11.64-1.48,1.13c-.37.49-.57,1.06-.59,1.72h-5.25c.03-1.49.45-2.81,1.28-3.94.83-1.14,1.94-2.03,3.34-2.67,1.4-.65,2.99-.97,4.76-.97s3.35.33,4.69.97c1.34.65,2.38,1.52,3.13,2.62s1.12,2.33,1.11,3.7c0,1.45-.44,2.66-1.35,3.63-.91.97-2.08,1.58-3.53,1.85v.2c1.9.25,3.36.9,4.36,1.98,1,1.07,1.49,2.42,1.49,4.03,0,1.48-.42,2.79-1.27,3.93-.86,1.15-2.03,2.05-3.53,2.71-1.5.66-3.22.99-5.16.99Z"/></g></g><g><circle class="c" cx="1591.46" cy="218.4" r="31.46"/><g><path class="g" d="m1570.63,211.11v-4.51h21.26v4.51h-7.93v21.38h-5.41v-21.38h-7.93Z"/><path class="g" d="m1593.12,232.49v-3.94l9.22-8.53c.78-.76,1.44-1.44,1.98-2.05.54-.61.94-1.2,1.22-1.79.28-.59.42-1.22.42-1.9,0-.76-.17-1.41-.52-1.97-.35-.55-.82-.98-1.42-1.28-.6-.3-1.28-.45-2.04-.45s-1.48.16-2.07.48c-.59.32-1.04.78-1.37,1.38-.32.6-.48,1.31-.48,2.14h-5.2c0-1.69.38-3.16,1.15-4.41.77-1.25,1.84-2.21,3.22-2.9s2.98-1.02,4.78-1.02,3.47.33,4.85.98c1.38.65,2.45,1.56,3.22,2.71.77,1.15,1.15,2.48,1.15,3.97,0,.98-.19,1.94-.58,2.9-.38.95-1.06,2.01-2.04,3.17-.98,1.16-2.36,2.55-4.13,4.17l-3.78,3.7v.18h10.87v4.48h-18.46Z"/></g></g><circle class="c" cx="1733.14" cy="219.02" r="31.46"/><path class="g" d="m1745.5,218.58c0,2.82-.53,5.23-1.6,7.21-1.07,1.98-2.52,3.49-4.35,4.53-1.83,1.04-3.89,1.56-6.17,1.56s-4.37-.52-6.2-1.57c-1.83-1.04-3.27-2.56-4.34-4.54-1.06-1.98-1.59-4.38-1.59-7.19s.53-5.23,1.59-7.21c1.06-1.98,2.51-3.49,4.34-4.53,1.83-1.04,3.89-1.56,6.2-1.56s4.34.52,6.17,1.56c1.83,1.04,3.28,2.55,4.35,4.53,1.07,1.98,1.6,4.38,1.6,7.21Zm-5.55,0c0-1.83-.27-3.37-.82-4.63s-1.31-2.21-2.29-2.86c-.99-.65-2.14-.97-3.46-.97s-2.48.32-3.46.97c-.99.65-1.75,1.6-2.29,2.86s-.82,2.8-.82,4.63.27,3.37.82,4.63,1.31,2.21,2.29,2.86c.99.65,2.14.97,3.46.97s2.48-.32,3.46-.97c.99-.65,1.75-1.6,2.29-2.86s.82-2.8.82-4.63Zm-8.47,3.94h4.65l2.34,3.01,2.3,2.68,4.34,5.44h-5.11l-2.98-3.67-1.53-2.17-4.01-5.28Z"/><g><line class="e" x1="1619.97" y1="343.32" x2="1709.25" y2="254.03"/><polygon class="g" points="1716.74 246.54 1710.5 261.41 1708.69 254.59 1701.88 252.79 1716.74 246.54"/></g><circle class="c" cx="1874.81" cy="219.54" r="31.46"/><g><circle class="c" cx="31.96" cy="216.5" r="31.46"/><g><path class="g" d="m11.41,206.46v18.91h-4v-18.91h4Z"/><path class="g" d="m17.01,217.17v8.2h-3.93v-14.18h3.75v2.5h.17c.31-.82.84-1.48,1.58-1.96.74-.48,1.63-.73,2.69-.73.98,0,1.84.22,2.58.65.73.43,1.3,1.04,1.71,1.84.41.8.61,1.75.61,2.85v9.03h-3.93v-8.33c0-.87-.22-1.55-.67-2.04-.45-.49-1.07-.73-1.86-.73-.53,0-1,.11-1.4.34-.4.23-.72.56-.94.99-.22.43-.34.96-.35,1.56Z"/><path class="g" d="m35.22,211.18v2.95h-8.54v-2.95h8.54Zm-6.6-3.4h3.93v13.22c0,.36.06.65.17.84.11.2.27.34.47.42.2.08.43.12.7.12.19,0,.37-.02.55-.05.18-.03.33-.06.42-.08l.62,2.93c-.2.06-.47.13-.83.22s-.79.13-1.3.15c-.95.04-1.78-.09-2.49-.38-.71-.29-1.26-.74-1.66-1.35-.39-.61-.59-1.38-.58-2.31v-13.74Z"/><path class="g" d="m36.22,225.37v-14.18h3.81v2.47h.15c.26-.88.69-1.55,1.3-2,.61-.45,1.31-.68,2.1-.68.2,0,.41.01.64.04.23.02.43.06.6.1v3.49c-.18-.06-.44-.1-.77-.15-.33-.04-.62-.06-.9-.06-.58,0-1.09.12-1.55.37-.45.25-.81.6-1.07,1.04s-.39.95-.39,1.53v8.02h-3.93Z"/><path class="g" d="m51.03,225.64c-1.43,0-2.67-.31-3.72-.92-1.04-.61-1.85-1.47-2.41-2.57-.57-1.1-.85-2.37-.85-3.83s.28-2.75.85-3.85c.57-1.1,1.37-1.95,2.41-2.57,1.04-.61,2.28-.92,3.72-.92s2.67.31,3.72.92c1.04.61,1.85,1.47,2.41,2.57.57,1.1.85,2.38.85,3.85s-.28,2.73-.85,3.83-1.37,1.95-2.41,2.57c-1.04.61-2.28.92-3.72.92Zm.02-3.05c.65,0,1.2-.19,1.63-.56.44-.37.77-.88.99-1.53.22-.65.34-1.38.34-2.21s-.11-1.56-.34-2.21c-.22-.65-.56-1.16-.99-1.53-.44-.38-.98-.56-1.63-.56s-1.21.19-1.66.56c-.45.38-.78.89-1.01,1.53-.22.65-.34,1.38-.34,2.21s.11,1.56.34,2.21c.22.65.56,1.16,1.01,1.53.45.37,1,.56,1.66.56Z"/></g></g><circle class="c" cx="173.64" cy="217.12" r="31.46"/><path class="g" d="m167.27,228.61h-5.87l8.94-25.89h7.05l8.93,25.89h-5.87l-6.49-19.97h-.2l-6.5,19.97Zm-.37-10.18h13.86v4.27h-13.86v-4.27Z"/><g><path class="g" d="m1854.01,228.67v-18.91h12.74v3.3h-8.74v4.51h8.09v3.3h-8.09v4.51h8.78v3.3h-12.78Z"/><path class="g" d="m1872.24,220.47v8.2h-3.93v-14.18h3.75v2.5h.17c.31-.82.84-1.48,1.58-1.96s1.63-.73,2.69-.73c.99,0,1.84.22,2.58.65.73.43,1.3,1.04,1.71,1.84.41.8.61,1.75.61,2.85v9.03h-3.93v-8.33c0-.87-.22-1.55-.67-2.04-.45-.49-1.07-.73-1.86-.73-.53,0-1,.11-1.4.34s-.72.56-.94.99c-.22.43-.34.96-.35,1.56Z"/><path class="g" d="m1888.13,228.9c-1.08,0-2.05-.28-2.92-.84-.87-.56-1.56-1.38-2.07-2.46s-.76-2.42-.76-4,.26-2.98.78-4.06,1.22-1.89,2.09-2.43,1.83-.81,2.87-.81c.79,0,1.46.13,1.99.4s.96.6,1.29,1c.33.4.58.79.75,1.17h.12v-7.11h3.92v18.91h-3.88v-2.27h-.17c-.18.39-.44.78-.78,1.17-.34.38-.77.7-1.3.96-.53.25-1.18.38-1.94.38Zm1.25-3.13c.63,0,1.17-.17,1.61-.52.44-.35.78-.84,1.02-1.46s.36-1.36.36-2.21-.12-1.58-.35-2.2c-.23-.62-.57-1.1-1.02-1.44s-.98-.51-1.62-.51-1.19.18-1.63.53c-.44.35-.78.84-1.01,1.46s-.34,1.34-.34,2.16.12,1.55.35,2.18.57,1.12,1.01,1.48c.44.35.98.53,1.63.53Z"/></g><g><line class="e" x1="1702.08" y1="190.11" x2="1612.79" y2="100.82"/><polygon class="g" points="1709.57 197.6 1703.33 182.73 1701.52 189.55 1694.7 191.36 1709.57 197.6"/></g><g><line class="e" x1="1417.85" y1="189.18" x2="1328.56" y2="99.89"/><polygon class="g" points="1425.34 196.67 1419.1 181.8 1417.29 188.62 1410.47 190.42 1425.34 196.67"/></g><g><line class="e" x1="1131.87" y1="190.27" x2="1042.58" y2="100.98"/><polygon class="g" points="1139.35 197.76 1133.11 182.89 1131.31 189.71 1124.49 191.51 1139.35 197.76"/></g><g><line class="e" x1="848.64" y1="190.33" x2="759.35" y2="101.05"/><polygon class="g" points="856.13 197.82 849.88 182.96 848.08 189.77 841.26 191.58 856.13 197.82"/></g><g><line class="e" x1="564.71" y1="191.54" x2="475.42" y2="102.25"/><polygon class="g" points="572.2 199.03 565.96 184.16 564.15 190.98 557.33 192.79 572.2 199.03"/></g><g><line class="e" x1="1561.37" y1="328.52" x2="1472.08" y2="239.23"/><polygon class="g" points="1568.86 336.01 1562.61 321.14 1560.81 327.96 1553.99 329.77 1568.86 336.01"/></g><g><line class="e" x1="1278.14" y1="328.59" x2="1188.85" y2="239.3"/><polygon class="g" points="1285.63 336.08 1279.39 321.21 1277.58 328.03 1270.76 329.83 1285.63 336.08"/></g><g><line class="e" x1="992.15" y1="329.68" x2="902.87" y2="240.39"/><polygon class="g" points="999.64 337.17 993.4 322.3 991.59 329.12 984.78 330.92 999.64 337.17"/></g><g><line class="e" x1="708.92" y1="329.74" x2="619.64" y2="240.46"/><polygon class="g" points="716.41 337.23 710.17 322.37 708.36 329.18 701.55 330.99 716.41 337.23"/></g><g><line class="e" x1="425" y1="330.95" x2="335.71" y2="241.66"/><polygon class="g" points="432.49 338.44 426.25 323.57 424.44 330.39 417.62 332.2 432.49 338.44"/></g><g><line class="e" x1="838.65" y1="219.5" x2="771.32" y2="219.5"/><polygon class="g" points="849.24 219.5 834.32 213.4 837.86 219.5 834.32 225.59 849.24 219.5"/></g><g><line class="e" x1="696.73" y1="220.06" x2="629.4" y2="220.06"/><polygon class="g" points="707.32 220.06 692.4 213.97 695.94 220.06 692.4 226.16 707.32 220.06"/></g><g><line class="e" x1="554.57" y1="219.56" x2="487.24" y2="219.56"/><polygon class="g" points="565.16 219.56 550.23 213.46 553.78 219.56 550.23 225.66 565.16 219.56"/></g><g><line class="e" x1="412.65" y1="220.13" x2="345.31" y2="220.13"/><polygon class="g" points="423.24 220.13 408.31 214.03 411.85 220.13 408.31 226.22 423.24 220.13"/></g><g><line class="e" x1="1406.71" y1="218.79" x2="1339.37" y2="218.79"/><polygon class="g" points="1417.3 218.79 1402.37 212.69 1405.91 218.79 1402.37 224.88 1417.3 218.79"/></g><g><line class="e" x1="1264.78" y1="219.35" x2="1197.45" y2="219.35"/><polygon class="g" points="1275.37 219.35 1260.45 213.25 1263.99 219.35 1260.45 225.45 1275.37 219.35"/></g><g><line class="e" x1="1122.62" y1="218.85" x2="1055.29" y2="218.85"/><polygon class="g" points="1133.21 218.85 1118.29 212.75 1121.83 218.85 1118.29 224.95 1133.21 218.85"/></g><g><line class="e" x1="980.7" y1="219.41" x2="913.37" y2="219.41"/><polygon class="g" points="991.29 219.41 976.36 213.32 979.91 219.41 976.36 225.51 991.29 219.41"/></g><g><line class="e" x1="271.7" y1="220.16" x2="204.37" y2="220.16"/><polygon class="g" points="282.29 220.16 267.37 214.06 270.91 220.16 267.37 226.26 282.29 220.16"/></g><g><line class="e" x1="129.78" y1="220.73" x2="62.45" y2="220.73"/><polygon class="g" points="140.37 220.73 125.45 214.63 128.99 220.73 125.45 226.82 140.37 220.73"/></g><g><g><line class="e" x1="1831.61" y1="218.53" x2="1764.28" y2="218.53"/><polygon class="g" points="1842.2 218.53 1827.28 212.43 1830.82 218.53 1827.28 224.63 1842.2 218.53"/></g><line class="g" x1="1842.2" y1="218.53" x2="1764.28" y2="218.53"/></g><g><line class="e" x1="1689.69" y1="219.1" x2="1622.35" y2="219.1"/><polygon class="g" points="1700.28 219.1 1685.35 213 1688.89 219.1 1685.35 225.19 1700.28 219.1"/></g><g><line class="e" x1="1547.52" y1="218.59" x2="1480.19" y2="218.59"/><polygon class="g" points="1558.11 218.59 1543.19 212.5 1546.73 218.59 1543.19 224.69 1558.11 218.59"/></g><g><path class="g" d="m418.3,22.63V3.72h7.46c1.43,0,2.66.27,3.67.82,1.01.54,1.78,1.3,2.31,2.26.53.96.8,2.07.8,3.33s-.27,2.36-.81,3.32c-.54.96-1.33,1.71-2.35,2.24-1.02.54-2.26.8-3.72.8h-4.75v-3.2h4.11c.77,0,1.41-.13,1.91-.4.5-.27.88-.64,1.13-1.12.25-.48.37-1.03.37-1.65s-.12-1.18-.37-1.65c-.25-.47-.63-.84-1.13-1.1-.5-.26-1.15-.39-1.92-.39h-2.7v15.64h-4Z"/><path class="g" d="m437.44,14.43v8.2h-3.93V3.72h3.82v7.23h.17c.32-.84.84-1.49,1.55-1.97s1.61-.72,2.69-.72c.98,0,1.84.21,2.58.64s1.31,1.04,1.72,1.84c.41.8.61,1.75.6,2.86v9.03h-3.93v-8.33c0-.87-.21-1.55-.66-2.04s-1.07-.73-1.87-.73c-.54,0-1.01.11-1.42.34-.41.23-.73.56-.96.99-.23.43-.35.96-.36,1.56Z"/><path class="g" d="m452.22,22.89c-.9,0-1.71-.16-2.42-.48-.71-.32-1.27-.79-1.68-1.41-.41-.62-.61-1.4-.61-2.34,0-.79.14-1.45.43-1.98.29-.54.68-.97,1.18-1.29.5-.33,1.07-.57,1.7-.74.64-.17,1.31-.28,2.01-.35.82-.09,1.49-.17,1.99-.24s.87-.19,1.1-.35.34-.38.34-.68v-.06c0-.58-.18-1.04-.55-1.36-.37-.32-.88-.48-1.56-.48-.71,0-1.27.16-1.69.47-.42.31-.7.7-.83,1.17l-3.64-.3c.18-.86.55-1.61,1.09-2.24.54-.63,1.24-1.12,2.1-1.46.86-.34,1.85-.51,2.99-.51.79,0,1.54.09,2.27.28s1.37.47,1.93.86,1.01.89,1.33,1.49c.33.61.49,1.33.49,2.17v9.57h-3.73v-1.97h-.11c-.23.44-.53.83-.91,1.17-.38.34-.84.6-1.38.79-.54.19-1.15.28-1.86.28Zm1.13-2.71c.58,0,1.09-.12,1.53-.35s.79-.54,1.04-.94c.25-.39.38-.84.38-1.34v-1.5c-.12.08-.29.15-.5.22-.21.06-.45.12-.72.18-.26.05-.53.1-.79.14s-.5.08-.72.11c-.46.07-.86.18-1.21.32-.34.15-.61.35-.8.6-.19.25-.29.56-.29.93,0,.54.2.94.59,1.22.39.28.89.42,1.49.42Z"/><path class="g" d="m473.5,12.49l-3.6.22c-.06-.31-.19-.59-.4-.84-.2-.25-.47-.45-.8-.6-.33-.15-.72-.23-1.18-.23-.61,0-1.12.13-1.54.38-.42.26-.63.6-.63,1.02,0,.34.14.62.41.86s.74.42,1.39.56l2.57.52c1.38.28,2.41.74,3.08,1.37.68.63,1.02,1.45,1.02,2.47,0,.93-.27,1.75-.82,2.45s-1.29,1.25-2.23,1.64c-.94.39-2.03.59-3.26.59-1.88,0-3.37-.39-4.48-1.18-1.11-.78-1.76-1.85-1.95-3.21l3.87-.2c.12.57.4,1.01.85,1.31.45.3,1.03.45,1.73.45s1.25-.13,1.67-.4c.42-.27.64-.61.64-1.04,0-.36-.16-.65-.45-.88-.3-.23-.75-.41-1.37-.53l-2.46-.49c-1.39-.28-2.42-.76-3.09-1.44-.67-.68-1.01-1.55-1.01-2.61,0-.91.25-1.7.74-2.35.5-.66,1.19-1.17,2.1-1.52s1.96-.54,3.17-.54c1.79,0,3.2.38,4.23,1.14,1.03.76,1.63,1.79,1.8,3.09Z"/><path class="g" d="m481.21,22.9c-1.46,0-2.71-.3-3.76-.89-1.05-.59-1.86-1.44-2.42-2.53-.57-1.09-.85-2.39-.85-3.88s.28-2.74.85-3.84c.57-1.1,1.37-1.96,2.4-2.58,1.03-.62,2.24-.92,3.63-.92.94,0,1.81.15,2.62.45.81.3,1.52.75,2.12,1.34s1.08,1.35,1.42,2.25c.34.9.51,1.96.51,3.16v1.08h-11.97v-2.44h8.27c0-.57-.12-1.07-.37-1.5s-.59-.78-1.02-1.03c-.43-.25-.94-.37-1.51-.37s-1.12.14-1.58.41c-.46.27-.82.64-1.08,1.1-.26.46-.39.97-.4,1.53v2.32c0,.7.13,1.31.39,1.82.26.51.63.9,1.11,1.18.48.28,1.05.42,1.71.42.44,0,.84-.06,1.2-.18s.67-.31.93-.55c.26-.25.46-.55.59-.9l3.64.24c-.18.87-.56,1.64-1.13,2.29s-1.3,1.15-2.2,1.51c-.9.36-1.93.54-3.1.54Z"/><path class="g" d="m501.39,3.72v18.91h-4V7.51h-.11l-4.33,2.71v-3.55l4.68-2.96h3.76Z"/></g><g><path class="g" d="m700.13,22.45V3.55h7.46c1.43,0,2.66.27,3.67.82,1.01.54,1.78,1.3,2.31,2.26.53.96.8,2.07.8,3.33s-.27,2.36-.81,3.32c-.54.96-1.33,1.71-2.35,2.24-1.02.54-2.26.8-3.72.8h-4.75v-3.2h4.11c.77,0,1.41-.13,1.91-.4.5-.27.88-.64,1.13-1.12.25-.48.37-1.03.37-1.65s-.12-1.18-.37-1.65c-.25-.47-.63-.84-1.13-1.1-.5-.26-1.15-.39-1.92-.39h-2.7v15.64h-4Z"/><path class="g" d="m719.27,14.26v8.2h-3.93V3.55h3.82v7.23h.17c.32-.84.84-1.49,1.55-1.97s1.61-.72,2.69-.72c.98,0,1.84.21,2.58.64s1.31,1.04,1.72,1.84c.41.8.61,1.75.6,2.86v9.03h-3.93v-8.33c0-.87-.21-1.55-.66-2.04s-1.07-.73-1.87-.73c-.54,0-1.01.11-1.42.34-.41.23-.73.56-.96.99-.23.43-.35.96-.36,1.56Z"/><path class="g" d="m734.05,22.72c-.9,0-1.71-.16-2.42-.48-.71-.32-1.27-.79-1.68-1.41-.41-.62-.61-1.4-.61-2.34,0-.79.14-1.45.43-1.98.29-.54.68-.97,1.18-1.29.5-.33,1.07-.57,1.7-.74.64-.17,1.31-.28,2.01-.35.82-.09,1.49-.17,1.99-.24s.87-.19,1.1-.35.34-.38.34-.68v-.06c0-.58-.18-1.04-.55-1.36-.37-.32-.88-.48-1.56-.48-.71,0-1.27.16-1.69.47-.42.31-.7.7-.83,1.17l-3.64-.3c.18-.86.55-1.61,1.09-2.24.54-.63,1.24-1.12,2.1-1.46.86-.34,1.85-.51,2.99-.51.79,0,1.54.09,2.27.28s1.37.47,1.93.86,1.01.89,1.33,1.49c.33.61.49,1.33.49,2.17v9.57h-3.73v-1.97h-.11c-.23.44-.53.83-.91,1.17-.38.34-.84.6-1.38.79-.54.19-1.15.28-1.86.28Zm1.13-2.71c.58,0,1.09-.12,1.53-.35s.79-.54,1.04-.94c.25-.39.38-.84.38-1.34v-1.5c-.12.08-.29.15-.5.22-.21.06-.45.12-.72.18-.26.05-.53.1-.79.14s-.5.08-.72.11c-.46.07-.86.18-1.21.32-.34.15-.61.35-.8.6-.19.25-.29.56-.29.93,0,.54.2.94.59,1.22.39.28.89.42,1.49.42Z"/><path class="g" d="m755.33,12.32l-3.6.22c-.06-.31-.19-.59-.4-.84-.2-.25-.47-.45-.8-.6-.33-.15-.72-.23-1.18-.23-.61,0-1.12.13-1.54.38-.42.26-.63.6-.63,1.02,0,.34.14.62.41.86s.74.42,1.39.56l2.57.52c1.38.28,2.41.74,3.08,1.37.68.63,1.02,1.45,1.02,2.47,0,.93-.27,1.75-.82,2.45s-1.29,1.25-2.23,1.64c-.94.39-2.03.59-3.26.59-1.88,0-3.37-.39-4.48-1.18-1.11-.78-1.76-1.85-1.95-3.21l3.87-.2c.12.57.4,1.01.85,1.31.45.3,1.03.45,1.73.45s1.25-.13,1.67-.4c.42-.27.64-.61.64-1.04,0-.36-.16-.65-.45-.88-.3-.23-.75-.41-1.37-.53l-2.46-.49c-1.39-.28-2.42-.76-3.09-1.44-.67-.68-1.01-1.55-1.01-2.61,0-.91.25-1.7.74-2.35.5-.66,1.19-1.17,2.1-1.52s1.96-.54,3.17-.54c1.79,0,3.2.38,4.23,1.14,1.03.76,1.63,1.79,1.8,3.09Z"/><path class="g" d="m763.04,22.73c-1.46,0-2.71-.3-3.76-.89-1.05-.59-1.86-1.44-2.42-2.53-.57-1.09-.85-2.39-.85-3.88s.28-2.74.85-3.84c.57-1.1,1.37-1.96,2.4-2.58,1.03-.62,2.24-.92,3.63-.92.94,0,1.81.15,2.62.45.81.3,1.52.75,2.12,1.34s1.08,1.35,1.42,2.25c.34.9.51,1.96.51,3.16v1.08h-11.97v-2.44h8.27c0-.57-.12-1.07-.37-1.5s-.59-.78-1.02-1.03c-.43-.25-.94-.37-1.51-.37s-1.12.14-1.58.41c-.46.27-.82.64-1.08,1.1-.26.46-.39.97-.4,1.53v2.32c0,.7.13,1.31.39,1.82.26.51.63.9,1.11,1.18.48.28,1.05.42,1.71.42.44,0,.84-.06,1.2-.18s.67-.31.93-.55c.26-.25.46-.55.59-.9l3.64.24c-.18.87-.56,1.64-1.13,2.29s-1.3,1.15-2.2,1.51c-.9.36-1.93.54-3.1.54Z"/><path class="g" d="m774.99,22.45v-2.88l6.73-6.23c.57-.55,1.05-1.05,1.45-1.5.39-.44.69-.88.89-1.31s.3-.89.3-1.39c0-.55-.13-1.03-.38-1.44-.25-.4-.6-.71-1.03-.93-.44-.22-.93-.33-1.49-.33s-1.08.12-1.51.35-.76.57-1,1.01c-.23.44-.35.96-.35,1.56h-3.79c0-1.24.28-2.31.84-3.22.56-.91,1.34-1.62,2.35-2.11s2.17-.75,3.49-.75,2.53.24,3.54.72c1.01.48,1.79,1.14,2.35,1.98.56.84.84,1.81.84,2.9,0,.71-.14,1.42-.42,2.11s-.78,1.47-1.49,2.31c-.71.85-1.72,1.86-3.02,3.04l-2.76,2.71v.13h7.94v3.27h-13.48Z"/></g><g><path class="g" d="m986.3,22.8V3.89h7.46c1.43,0,2.66.27,3.67.82,1.01.54,1.78,1.3,2.31,2.26.53.96.8,2.07.8,3.33s-.27,2.36-.81,3.32c-.54.96-1.33,1.71-2.35,2.24-1.03.54-2.26.8-3.72.8h-4.75v-3.2h4.11c.77,0,1.4-.13,1.91-.4.5-.27.88-.64,1.13-1.12.25-.48.37-1.03.37-1.65s-.12-1.18-.37-1.65c-.25-.47-.63-.84-1.13-1.1s-1.14-.39-1.92-.39h-2.7v15.64h-4Z"/><path class="g" d="m1005.44,14.6v8.2h-3.93V3.89h3.82v7.23h.17c.32-.84.84-1.49,1.55-1.97.71-.48,1.61-.72,2.69-.72.98,0,1.84.21,2.58.64.74.43,1.31,1.04,1.72,1.84.41.8.61,1.75.6,2.86v9.03h-3.93v-8.33c0-.87-.21-1.55-.66-2.04s-1.07-.73-1.87-.73c-.54,0-1.01.11-1.42.34s-.73.56-.96.99c-.23.43-.35.96-.36,1.56Z"/><path class="g" d="m1020.23,23.07c-.91,0-1.71-.16-2.42-.48-.71-.32-1.27-.79-1.68-1.41-.41-.62-.61-1.4-.61-2.34,0-.79.14-1.45.43-1.98.29-.54.68-.97,1.18-1.29.5-.33,1.07-.57,1.7-.74.64-.17,1.31-.28,2.01-.35.83-.09,1.49-.17,1.99-.24s.87-.19,1.1-.35.34-.38.34-.68v-.06c0-.58-.18-1.04-.55-1.36-.37-.32-.89-.48-1.56-.48-.71,0-1.27.16-1.69.47-.42.31-.7.7-.83,1.17l-3.64-.3c.18-.86.55-1.61,1.09-2.24s1.24-1.12,2.1-1.46,1.85-.51,2.99-.51c.79,0,1.54.09,2.27.28.72.18,1.37.47,1.93.86.56.39,1.01.89,1.33,1.49.33.61.49,1.33.49,2.17v9.57h-3.73v-1.97h-.11c-.23.44-.53.83-.91,1.17-.38.34-.84.6-1.38.79-.54.19-1.15.28-1.86.28Zm1.13-2.71c.58,0,1.09-.12,1.53-.35.44-.23.79-.54,1.04-.94.25-.39.38-.84.38-1.34v-1.5c-.12.08-.29.15-.5.22-.21.06-.45.12-.71.18-.27.05-.53.1-.79.14s-.5.08-.72.11c-.46.07-.87.18-1.21.32-.34.15-.61.35-.8.6-.19.25-.29.56-.29.93,0,.54.2.94.59,1.22.39.28.89.42,1.49.42Z"/><path class="g" d="m1041.51,12.66l-3.6.22c-.06-.31-.19-.59-.4-.84-.2-.25-.47-.45-.8-.6-.33-.15-.72-.23-1.18-.23-.61,0-1.12.13-1.54.38-.42.26-.63.6-.63,1.02,0,.34.13.62.41.86.27.23.74.42,1.39.56l2.57.52c1.38.28,2.41.74,3.08,1.37.68.63,1.02,1.45,1.02,2.47,0,.93-.27,1.75-.82,2.45-.54.7-1.29,1.25-2.23,1.64-.95.39-2.03.59-3.26.59-1.88,0-3.37-.39-4.48-1.18-1.11-.78-1.76-1.85-1.95-3.21l3.87-.2c.12.57.4,1.01.85,1.31.45.3,1.02.45,1.73.45s1.25-.13,1.67-.4c.42-.27.64-.61.64-1.04,0-.36-.16-.65-.45-.88-.29-.23-.75-.41-1.37-.53l-2.46-.49c-1.38-.28-2.41-.76-3.09-1.44-.67-.68-1.01-1.55-1.01-2.61,0-.91.25-1.7.74-2.35.5-.66,1.19-1.17,2.1-1.52.9-.36,1.96-.54,3.17-.54,1.79,0,3.2.38,4.23,1.14,1.03.76,1.63,1.79,1.8,3.09Z"/><path class="g" d="m1049.22,23.07c-1.46,0-2.71-.3-3.76-.89-1.05-.59-1.86-1.44-2.42-2.53-.57-1.09-.85-2.39-.85-3.88s.28-2.74.85-3.84c.57-1.1,1.36-1.96,2.4-2.58,1.03-.62,2.24-.92,3.63-.92.94,0,1.81.15,2.62.45.81.3,1.52.75,2.12,1.34s1.08,1.35,1.42,2.25c.34.9.51,1.96.51,3.16v1.08h-11.98v-2.44h8.27c0-.57-.12-1.07-.37-1.5s-.59-.78-1.02-1.03c-.43-.25-.94-.37-1.51-.37s-1.12.14-1.58.41c-.46.27-.82.64-1.08,1.1-.26.46-.39.97-.4,1.53v2.32c0,.7.13,1.31.39,1.82s.63.9,1.11,1.18c.48.28,1.05.42,1.71.42.44,0,.84-.06,1.2-.18.36-.12.67-.31.93-.55.26-.25.46-.55.59-.9l3.64.24c-.19.87-.56,1.64-1.13,2.29s-1.3,1.15-2.2,1.51c-.9.36-1.93.54-3.1.54Z"/><path class="g" d="m1068.15,23.06c-1.38,0-2.61-.24-3.68-.72-1.07-.48-1.92-1.14-2.54-1.98-.62-.84-.94-1.81-.96-2.91h4.03c.02.46.18.87.46,1.21.28.35.65.62,1.12.81s.99.29,1.58.29,1.15-.11,1.62-.32c.47-.22.83-.51,1.1-.9s.4-.82.4-1.32-.14-.95-.42-1.34c-.28-.39-.68-.7-1.2-.92-.52-.22-1.14-.33-1.85-.33h-1.76v-2.94h1.76c.6,0,1.14-.1,1.6-.31.46-.21.83-.5,1.08-.87.26-.37.39-.81.39-1.31s-.11-.89-.34-1.25c-.22-.36-.54-.64-.94-.84s-.87-.3-1.41-.3-1.04.1-1.49.29-.81.47-1.08.83c-.27.36-.42.78-.43,1.26h-3.83c.02-1.09.33-2.05.93-2.88.6-.83,1.42-1.48,2.44-1.95,1.03-.47,2.18-.71,3.48-.71s2.45.24,3.43.71c.98.47,1.74,1.11,2.29,1.92.54.8.81,1.7.81,2.7,0,1.06-.32,1.94-.98,2.65-.66.71-1.52,1.16-2.58,1.35v.15c1.39.18,2.45.66,3.18,1.45.73.78,1.09,1.77,1.08,2.94,0,1.08-.3,2.03-.93,2.87-.62.84-1.48,1.5-2.58,1.98-1.1.48-2.35.72-3.77.72Z"/></g><g><path class="g" d="m1266.25,22.8V3.89h7.46c1.43,0,2.66.27,3.67.82,1.01.54,1.78,1.3,2.31,2.26.53.96.8,2.07.8,3.33s-.27,2.36-.81,3.32c-.54.96-1.33,1.71-2.35,2.24-1.03.54-2.26.8-3.72.8h-4.75v-3.2h4.11c.77,0,1.4-.13,1.91-.4.5-.27.88-.64,1.13-1.12.25-.48.37-1.03.37-1.65s-.12-1.18-.37-1.65c-.25-.47-.63-.84-1.13-1.1s-1.14-.39-1.92-.39h-2.7v15.64h-4Z"/><path class="g" d="m1285.39,14.6v8.2h-3.93V3.89h3.82v7.23h.17c.32-.84.84-1.49,1.55-1.97.71-.48,1.61-.72,2.69-.72.98,0,1.84.21,2.58.64.74.43,1.31,1.04,1.72,1.84.41.8.61,1.75.6,2.86v9.03h-3.93v-8.33c0-.87-.21-1.55-.66-2.04s-1.07-.73-1.87-.73c-.54,0-1.01.11-1.42.34s-.73.56-.96.99c-.23.43-.35.96-.36,1.56Z"/><path class="g" d="m1300.17,23.07c-.91,0-1.71-.16-2.42-.48-.71-.32-1.27-.79-1.68-1.41-.41-.62-.61-1.4-.61-2.34,0-.79.14-1.45.43-1.98.29-.54.68-.97,1.18-1.29.5-.33,1.07-.57,1.7-.74.64-.17,1.31-.28,2.01-.35.83-.09,1.49-.17,1.99-.24s.87-.19,1.1-.35.34-.38.34-.68v-.06c0-.58-.18-1.04-.55-1.36-.37-.32-.89-.48-1.56-.48-.71,0-1.27.16-1.69.47-.42.31-.7.7-.83,1.17l-3.64-.3c.18-.86.55-1.61,1.09-2.24s1.24-1.12,2.1-1.46,1.85-.51,2.99-.51c.79,0,1.54.09,2.27.28.72.18,1.37.47,1.93.86.56.39,1.01.89,1.33,1.49.33.61.49,1.33.49,2.17v9.57h-3.73v-1.97h-.11c-.23.44-.53.83-.91,1.17-.38.34-.84.6-1.38.79-.54.19-1.15.28-1.86.28Zm1.13-2.71c.58,0,1.09-.12,1.53-.35.44-.23.79-.54,1.04-.94.25-.39.38-.84.38-1.34v-1.5c-.12.08-.29.15-.5.22-.21.06-.45.12-.71.18-.27.05-.53.1-.79.14s-.5.08-.72.11c-.46.07-.87.18-1.21.32-.34.15-.61.35-.8.6-.19.25-.29.56-.29.93,0,.54.2.94.59,1.22.39.28.89.42,1.49.42Z"/><path class="g" d="m1321.46,12.66l-3.6.22c-.06-.31-.19-.59-.4-.84-.2-.25-.47-.45-.8-.6-.33-.15-.72-.23-1.18-.23-.61,0-1.12.13-1.54.38-.42.26-.63.6-.63,1.02,0,.34.13.62.41.86.27.23.74.42,1.39.56l2.57.52c1.38.28,2.41.74,3.08,1.37.68.63,1.02,1.45,1.02,2.47,0,.93-.27,1.75-.82,2.45-.54.7-1.29,1.25-2.23,1.64-.95.39-2.03.59-3.26.59-1.88,0-3.37-.39-4.48-1.18-1.11-.78-1.76-1.85-1.95-3.21l3.87-.2c.12.57.4,1.01.85,1.31.45.3,1.02.45,1.73.45s1.25-.13,1.67-.4c.42-.27.64-.61.64-1.04,0-.36-.16-.65-.45-.88-.29-.23-.75-.41-1.37-.53l-2.46-.49c-1.38-.28-2.41-.76-3.09-1.44-.67-.68-1.01-1.55-1.01-2.61,0-.91.25-1.7.74-2.35.5-.66,1.19-1.17,2.1-1.52.9-.36,1.96-.54,3.17-.54,1.79,0,3.2.38,4.23,1.14,1.03.76,1.63,1.79,1.8,3.09Z"/><path class="g" d="m1329.16,23.07c-1.46,0-2.71-.3-3.76-.89-1.05-.59-1.86-1.44-2.42-2.53-.57-1.09-.85-2.39-.85-3.88s.28-2.74.85-3.84c.57-1.1,1.36-1.96,2.4-2.58,1.03-.62,2.24-.92,3.63-.92.94,0,1.81.15,2.62.45.81.3,1.52.75,2.12,1.34s1.08,1.35,1.42,2.25c.34.9.51,1.96.51,3.16v1.08h-11.98v-2.44h8.27c0-.57-.12-1.07-.37-1.5s-.59-.78-1.02-1.03c-.43-.25-.94-.37-1.51-.37s-1.12.14-1.58.41c-.46.27-.82.64-1.08,1.1-.26.46-.39.97-.4,1.53v2.32c0,.7.13,1.31.39,1.82s.63.9,1.11,1.18c.48.28,1.05.42,1.71.42.44,0,.84-.06,1.2-.18.36-.12.67-.31.93-.55.26-.25.46-.55.59-.9l3.64.24c-.19.87-.56,1.64-1.13,2.29s-1.3,1.15-2.2,1.51c-.9.36-1.93.54-3.1.54Z"/><path class="g" d="m1340.83,19.47v-3.15l7.89-12.44h2.71v4.36h-1.61l-4.98,7.88v.15h11.22v3.2h-15.24Zm9.08,3.32v-4.28l.07-1.39V3.89h3.75v18.91h-3.82Z"/></g><g><path class="g" d="m1554.08,22.8V3.89h7.46c1.43,0,2.66.27,3.67.82,1.01.54,1.78,1.3,2.31,2.26.53.96.8,2.07.8,3.33s-.27,2.36-.81,3.32c-.54.96-1.33,1.71-2.35,2.24-1.02.54-2.26.8-3.72.8h-4.75v-3.2h4.11c.77,0,1.41-.13,1.91-.4.5-.27.88-.64,1.13-1.12.25-.48.37-1.03.37-1.65s-.12-1.18-.37-1.65c-.25-.47-.63-.84-1.13-1.1-.5-.26-1.15-.39-1.92-.39h-2.7v15.64h-4Z"/><path class="g" d="m1573.22,14.6v8.2h-3.93V3.89h3.82v7.23h.17c.32-.84.84-1.49,1.55-1.97s1.61-.72,2.69-.72c.98,0,1.84.21,2.58.64s1.31,1.04,1.72,1.84c.41.8.61,1.75.6,2.86v9.03h-3.93v-8.33c0-.87-.21-1.55-.66-2.04s-1.07-.73-1.87-.73c-.54,0-1.01.11-1.42.34-.41.23-.73.56-.96.99-.23.43-.35.96-.36,1.56Z"/><path class="g" d="m1588.01,23.07c-.9,0-1.71-.16-2.42-.48-.71-.32-1.27-.79-1.68-1.41-.41-.62-.61-1.4-.61-2.34,0-.79.14-1.45.43-1.98.29-.54.68-.97,1.18-1.29.5-.33,1.07-.57,1.7-.74.64-.17,1.31-.28,2.01-.35.82-.09,1.49-.17,1.99-.24s.87-.19,1.1-.35.34-.38.34-.68v-.06c0-.58-.18-1.04-.55-1.36-.37-.32-.88-.48-1.56-.48-.71,0-1.27.16-1.69.47-.42.31-.7.7-.83,1.17l-3.64-.3c.18-.86.55-1.61,1.09-2.24.54-.63,1.24-1.12,2.1-1.46.86-.34,1.85-.51,2.99-.51.79,0,1.54.09,2.27.28s1.37.47,1.93.86,1.01.89,1.33,1.49c.33.61.49,1.33.49,2.17v9.57h-3.73v-1.97h-.11c-.23.44-.53.83-.91,1.17-.38.34-.84.6-1.38.79-.54.19-1.15.28-1.86.28Zm1.13-2.71c.58,0,1.09-.12,1.53-.35s.79-.54,1.04-.94c.25-.39.38-.84.38-1.34v-1.5c-.12.08-.29.15-.5.22-.21.06-.45.12-.72.18-.26.05-.53.1-.79.14s-.5.08-.72.11c-.46.07-.86.18-1.21.32-.34.15-.61.35-.8.6-.19.25-.29.56-.29.93,0,.54.2.94.59,1.22.39.28.89.42,1.49.42Z"/><path class="g" d="m1609.29,12.66l-3.6.22c-.06-.31-.19-.59-.4-.84-.2-.25-.47-.45-.8-.6-.33-.15-.72-.23-1.18-.23-.61,0-1.12.13-1.54.38-.42.26-.63.6-.63,1.02,0,.34.14.62.41.86s.74.42,1.39.56l2.57.52c1.38.28,2.41.74,3.08,1.37.68.63,1.02,1.45,1.02,2.47,0,.93-.27,1.75-.82,2.45s-1.29,1.25-2.23,1.64c-.94.39-2.03.59-3.26.59-1.88,0-3.37-.39-4.48-1.18-1.11-.78-1.76-1.85-1.95-3.21l3.87-.2c.12.57.4,1.01.85,1.31.45.3,1.03.45,1.73.45s1.25-.13,1.67-.4c.42-.27.64-.61.64-1.04,0-.36-.16-.65-.45-.88-.3-.23-.75-.41-1.37-.53l-2.46-.49c-1.39-.28-2.42-.76-3.09-1.44-.67-.68-1.01-1.55-1.01-2.61,0-.91.25-1.7.74-2.35.5-.66,1.19-1.17,2.1-1.52s1.96-.54,3.17-.54c1.79,0,3.2.38,4.23,1.14,1.03.76,1.63,1.79,1.8,3.09Z"/><path class="g" d="m1617,23.07c-1.46,0-2.71-.3-3.76-.89-1.05-.59-1.86-1.44-2.42-2.53-.57-1.09-.85-2.39-.85-3.88s.28-2.74.85-3.84c.57-1.1,1.37-1.96,2.4-2.58,1.03-.62,2.24-.92,3.63-.92.94,0,1.81.15,2.62.45.81.3,1.52.75,2.12,1.34s1.08,1.35,1.42,2.25c.34.9.51,1.96.51,3.16v1.08h-11.97v-2.44h8.27c0-.57-.12-1.07-.37-1.5s-.59-.78-1.02-1.03c-.43-.25-.94-.37-1.51-.37s-1.12.14-1.58.41c-.46.27-.82.64-1.08,1.1-.26.46-.39.97-.4,1.53v2.32c0,.7.13,1.31.39,1.82.26.51.63.9,1.11,1.18.48.28,1.05.42,1.71.42.44,0,.84-.06,1.2-.18s.67-.31.93-.55c.26-.25.46-.55.59-.9l3.64.24c-.18.87-.56,1.64-1.13,2.29s-1.3,1.15-2.2,1.51c-.9.36-1.93.54-3.1.54Z"/><path class="g" d="m1635.85,23.06c-1.31,0-2.47-.24-3.49-.72-1.02-.48-1.83-1.14-2.42-1.99-.6-.84-.91-1.81-.93-2.9h3.88c.04.73.35,1.33.92,1.78s1.25.68,2.04.68c.63,0,1.18-.14,1.67-.42.48-.28.86-.67,1.14-1.17.27-.5.41-1.08.41-1.73s-.14-1.25-.42-1.75c-.28-.5-.67-.9-1.16-1.18s-1.06-.43-1.69-.43c-.55,0-1.09.11-1.61.34s-.92.54-1.21.93l-3.55-.64.9-9.97h11.56v3.27h-8.26l-.49,4.74h.11c.33-.47.83-.86,1.5-1.16s1.42-.46,2.25-.46c1.14,0,2.15.27,3.05.8.89.54,1.6,1.27,2.11,2.2.52.93.77,2.01.77,3.22,0,1.27-.29,2.41-.88,3.39-.59.99-1.42,1.76-2.48,2.33-1.06.56-2.29.84-3.7.84Z"/></g></svg>