<?xml version="1.0" encoding="UTF-8"?><svg id="a" xmlns="http://www.w3.org/2000/svg" viewBox="0 0 464.18 466.76"><defs><style>.b,.c,.d,.e,.f{stroke-miterlimit:10;}.b,.c,.e,.f{stroke:#231f20;}.b,.d,.e,.f{fill:none;}.g{fill:#405daa;}.c{fill:#fff;}.c,.f{stroke-width:.75px;}.h{fill:#010101;fill-rule:evenodd;}.d{stroke:#3c5daa;stroke-dasharray:0 0 1.03 1.54;}.e{stroke-width:.5px;}.i{fill:#231f20;}</style></defs><path class="h" d="m178.48,28.77c-.44-3.28-3.41-5.9-6.73-5.9h-13.74c-3.3.11-6.22,2.8-6.55,6.11l-2.3,22.86v.19c-.18,2.8,2.32,5.3,5.72,6.71l.18.07.72,29.5v.09c.06.39.41.69.81.68.44-.01.79-.38.78-.81l-.73-30.04v-.1c-.05-.29-.25-.53-.53-.63-3.21-1.16-5.58-3.38-5.37-5.51l2.3-22.86.02-.18c.34-2.48,2.63-4.5,5.15-4.5h13.71c2.5.1,4.74,2.18,4.99,4.67l2.3,22.86v.15c.1,2.08-2.23,4.22-5.37,5.36-.31.11-.52.4-.52.73l-.73,30.04v.09c.04.4.37.71.78.72h.09c.4-.04.71-.37.72-.78l.72-29.5.18-.07c3.47-1.45,6.01-4.02,5.72-6.9l-2.3-22.86-.02-.2Zm-13.49-27.18c3.8,0,6.88,3.08,6.88,6.88s-3.08,6.88-6.88,6.88-6.88-3.08-6.88-6.88,3.08-6.88,6.88-6.88Zm0-1.59c-4.68,0-8.47,3.79-8.47,8.47s3.79,8.47,8.47,8.47,8.47-3.79,8.47-8.47-3.79-8.47-8.47-8.47Z"/><g><g><path class="c" d="m237.32,418.4l.38,24.36s-70.36,23.63-70.36,23.63c-.02,0-72.74-23.06-72.74-23.06-.03-.01-.06-.04-.06-.08l-.12-24.46c0-.05.05-.09.1-.08l72.76,22.74s70.03-22.9,70.03-22.9c.07-.02.07-.13,0-.15l-72.42-21.76s-.03,0-.05,0c0,0-70.43,22.21-70.44,22.15"/><line class="f" x1="167.29" y1="441.46" x2="167.34" y2="466.39"/></g><g><path class="i" d="m140.14,415.59c-.05-.53-.28-.93-.67-1.23-.4-.29-.93-.44-1.61-.44-.46,0-.85.06-1.17.19-.32.13-.56.31-.73.53-.17.23-.25.48-.25.77,0,.24.04.45.15.63.11.18.26.33.46.46.2.13.42.24.68.33.26.09.53.17.82.24l1.2.29c.58.13,1.12.3,1.6.52.49.22.91.49,1.27.8.36.32.63.69.83,1.12.2.43.3.92.3,1.48,0,.82-.21,1.53-.62,2.12s-1,1.06-1.77,1.39c-.77.33-1.7.49-2.79.49s-2.02-.17-2.81-.5-1.42-.82-1.86-1.47c-.45-.65-.68-1.46-.7-2.42h2.73c.03.45.16.82.39,1.12.23.3.53.52.92.67.38.15.82.23,1.31.23s.89-.07,1.25-.21c.35-.14.63-.33.83-.58.2-.25.29-.53.29-.85,0-.3-.09-.55-.26-.76s-.43-.38-.77-.52-.75-.27-1.24-.39l-1.45-.37c-1.13-.27-2.02-.7-2.67-1.28-.65-.58-.98-1.37-.97-2.35,0-.81.21-1.52.65-2.12.44-.6,1.04-1.08,1.8-1.42.77-.34,1.63-.51,2.61-.51s1.86.17,2.6.51c.74.34,1.32.81,1.73,1.42.41.6.63,1.3.64,2.1h-2.71Z"/><path class="i" d="m146.62,425.29c-.64,0-1.21-.11-1.71-.34s-.89-.56-1.18-1-.43-.99-.43-1.65c0-.56.1-1.02.31-1.4.2-.38.48-.68.83-.91.35-.23.75-.4,1.2-.52.45-.12.92-.2,1.42-.25.58-.06,1.05-.12,1.41-.17.36-.05.62-.14.78-.24.16-.11.24-.27.24-.48v-.04c0-.41-.13-.73-.39-.96-.26-.23-.62-.34-1.1-.34-.5,0-.9.11-1.19.33-.3.22-.49.5-.59.83l-2.57-.21c.13-.61.39-1.14.77-1.58s.88-.79,1.48-1.03c.61-.24,1.31-.36,2.11-.36.56,0,1.09.07,1.6.2.51.13.97.33,1.36.61.4.27.71.62.94,1.05.23.43.35.94.35,1.54v6.76h-2.63v-1.39h-.08c-.16.31-.38.59-.65.82-.27.24-.59.42-.97.55s-.82.2-1.31.2Zm.8-1.92c.41,0,.77-.08,1.08-.24s.56-.38.74-.66.27-.59.27-.95v-1.06c-.09.06-.21.11-.36.15s-.32.09-.51.12-.37.07-.56.1-.36.05-.51.08c-.33.05-.61.12-.85.23-.24.1-.43.24-.57.42-.13.18-.2.39-.2.66,0,.38.14.67.41.86.28.2.63.3,1.05.3Z"/><path class="i" d="m156.09,419.31v5.79h-2.78v-10.02h2.65v1.77h.12c.22-.58.59-1.04,1.12-1.39.52-.34,1.15-.51,1.9-.51.7,0,1.3.15,1.82.46.52.3.92.74,1.21,1.3.29.56.43,1.23.43,2.01v6.38h-2.78v-5.88c0-.61-.15-1.09-.47-1.44s-.75-.52-1.31-.52c-.37,0-.7.08-.99.24s-.51.39-.67.7-.24.67-.24,1.11Z"/><path class="i" d="m167.32,425.26c-.76,0-1.45-.2-2.06-.59s-1.1-.97-1.46-1.74c-.36-.77-.54-1.71-.54-2.83s.19-2.1.55-2.87c.37-.76.86-1.33,1.48-1.72.61-.38,1.29-.57,2.02-.57.56,0,1.03.09,1.41.28.38.19.68.42.91.7.23.28.41.56.53.83h.08v-5.02h2.77v13.36h-2.74v-1.6h-.12c-.13.28-.31.55-.55.83-.24.27-.54.5-.92.67-.38.18-.83.27-1.37.27Zm.88-2.21c.45,0,.83-.12,1.14-.37.31-.25.55-.59.72-1.03.17-.44.25-.96.25-1.56s-.08-1.11-.25-1.55c-.17-.44-.4-.78-.72-1.02s-.69-.36-1.14-.36-.84.12-1.15.37c-.31.25-.55.59-.71,1.03-.16.44-.24.95-.24,1.53s.08,1.1.24,1.54c.16.45.4.79.71,1.04.31.25.69.38,1.15.38Z"/><path class="i" d="m174.25,425.1v-13.36h2.78v5.02h.08c.12-.27.3-.54.53-.83s.54-.52.91-.7c.38-.19.84-.28,1.41-.28.73,0,1.4.19,2.02.57.62.38,1.11.95,1.48,1.72.37.76.55,1.72.55,2.87s-.18,2.06-.54,2.83c-.36.77-.85,1.35-1.46,1.74s-1.3.59-2.06.59c-.54,0-1-.09-1.37-.27-.38-.18-.68-.4-.92-.67-.24-.27-.42-.55-.55-.83h-.12v1.6h-2.74Zm2.72-5.01c0,.6.08,1.12.25,1.56.17.44.4.79.72,1.03.31.25.69.37,1.14.37s.83-.12,1.15-.38c.31-.25.55-.6.71-1.04.16-.45.24-.96.24-1.54s-.08-1.09-.24-1.53c-.16-.44-.4-.78-.71-1.03-.31-.25-.7-.37-1.15-.37s-.83.12-1.14.36c-.31.24-.55.58-.71,1.02-.17.44-.25.96-.25,1.55Z"/><path class="i" d="m189.29,425.3c-1.01,0-1.89-.22-2.62-.65s-1.31-1.04-1.71-1.81c-.4-.78-.6-1.68-.6-2.7s.2-1.94.6-2.72c.4-.78.97-1.38,1.71-1.81s1.61-.65,2.62-.65,1.89.22,2.62.65c.74.43,1.3,1.04,1.71,1.81s.6,1.68.6,2.72-.2,1.93-.6,2.7c-.4.78-.97,1.38-1.71,1.81-.74.43-1.61.65-2.62.65Zm.01-2.15c.46,0,.85-.13,1.15-.39.31-.26.54-.62.7-1.08.16-.46.24-.98.24-1.56s-.08-1.1-.24-1.56c-.16-.46-.39-.82-.7-1.08-.31-.27-.69-.4-1.15-.4s-.86.13-1.17.4c-.31.26-.55.63-.71,1.08-.16.46-.24.98-.24,1.56s.08,1.1.24,1.56c.16.46.4.82.71,1.08.32.26.71.39,1.17.39Z"/><path class="i" d="m196.88,415.08l1.84,3.5,1.88-3.5h2.85l-2.9,5.01,2.98,5.01h-2.84l-1.98-3.46-1.94,3.46h-2.87l2.97-5.01-2.87-5.01h2.87Z"/></g></g><g><path class="i" d="m420.45,314.76v-.28c0-.37.29-.67.64-.67,14.4-.04,24.94-.29,29.39-.43,4.19-.14,8.49-.6,10.88-4.46.73-1.18,1.28-3.52,1.28-4.82,0-5.54-4.37-10.18-9.74-10.34-.29,0-.55-.13-.75-.35-.19-.22-.3-.5-.29-.8.02-.59.03-2.1-.22-3.26-1.44-6.77-7.38-11.45-13.82-10.88-1.64.15-3.48.78-4.19,1.04-.31.11-.64.09-.93-.08-.29-.16-.5-.45-.57-.79-1.73-7.63-7.43-12.37-14.86-12.37s-13.21,6.54-14.9,12.88c-.07.25-.19.48-.38.64-.39.33-.89.37-1.3.12-.65-.39-2.42-1.3-4.83-1.45-6.72-.41-12.67,4.26-13.83,10.85-.14.77-.1,2.34-.02,3.55.03.51-.28.96-.75,1.09-2.87.74-8.22,4.47-8.22,10.14v.33c-.01,1.37-.03,3.24,1.32,5.29,1.38,2.1,3.61,3.43,6.13,3.67,4.6.43,12.26.43,33.09.43h.78c.35,0,.64.3.64.67v.28c0,.37-.28.67-.64.67h-.78c-20.87,0-28.56,0-33.22-.44-2.98-.28-5.62-1.86-7.26-4.36-1.62-2.47-1.6-4.82-1.59-6.22v-.32c0-5.84,5.06-10.35,8.95-11.58-.05-.96-.1-2.54.07-3.49,1.3-7.39,7.93-12.62,15.43-12.17,2.28.14,4.04.86,5.07,1.41,2.28-7.79,9.19-13.61,16.25-13.61,7.91,0,14.25,5.16,16.25,13.19,1.02-.36,2.64-.85,4.17-.98,7.2-.63,13.84,4.58,15.44,12.14.23,1.06.27,2.31.26,3.17,5.98.43,10.77,5.68,10.77,11.93,0,1.56-.62,4.23-1.53,5.71-2.8,4.51-7.73,5.05-12.12,5.19-4.47.15-15.02.4-29.44.43-.35,0-.64-.3-.64-.67Z"/><path class="i" d="m427.53,308.15c0,.29-.17.57-.46.74-.45.26-1.04.13-1.32-.28l-6.85-10.08-.09,31.68c0,.49-.44.89-.97.88h0c-.53,0-.95-.4-.95-.89l.09-31.69-7.05,9.95c-.29.41-.89.52-1.33.26-.45-.27-.57-.82-.28-1.22l8.85-12.5c.18-.25.49-.4.82-.4s.63.16.8.42l8.59,12.64c.1.15.15.31.15.48Z"/></g><rect class="d" x=".5" y="104.94" width="331.13" height="240.42" rx="15.42" ry="15.42"/><rect class="b" x="47.85" y="151.9" width="78.01" height="72.34" rx="4.29" ry="4.29"/><rect class="b" x="198.37" y="151.9" width="78.01" height="72.34" rx="4.29" ry="4.29"/><rect class="b" x="111.77" y="271.32" width="106.43" height="38.7" rx="4.29" ry="4.29"/><g><path class="i" d="m52.22,175.63v-10.18h2.15v4.49h.13l3.66-4.49h2.58l-3.78,4.56,3.82,5.62h-2.58l-2.79-4.19-1.06,1.29v2.89h-2.15Z"/><path class="i" d="m65.42,172.38v-4.38h2.12v7.64h-2.03v-1.39h-.08c-.17.45-.46.81-.86,1.08-.4.27-.89.41-1.46.41-.51,0-.96-.12-1.35-.35s-.69-.56-.91-.99c-.22-.43-.33-.94-.33-1.54v-4.86h2.12v4.48c0,.45.12.81.36,1.07.24.26.56.39.96.39.25,0,.49-.06.72-.18s.4-.29.54-.52c.14-.23.2-.52.2-.86Z"/><path class="i" d="m68.43,175.63v-10.18h2.12v3.83h.06c.09-.21.23-.42.41-.63.18-.21.41-.39.7-.54s.64-.22,1.07-.22c.56,0,1.07.15,1.54.44s.85.73,1.13,1.31.42,1.31.42,2.19-.14,1.57-.41,2.16-.65,1.03-1.11,1.33c-.47.3-.99.45-1.57.45-.41,0-.76-.07-1.05-.2s-.52-.31-.7-.51c-.18-.21-.32-.42-.42-.63h-.09v1.22h-2.09Zm2.07-3.82c0,.45.06.85.19,1.19.13.34.31.6.55.79.24.19.53.28.87.28s.64-.1.88-.29c.24-.19.42-.46.54-.8.12-.34.19-.73.19-1.18s-.06-.83-.18-1.16-.3-.6-.54-.79-.53-.28-.88-.28-.64.09-.87.27-.42.44-.54.78c-.13.33-.19.73-.19,1.18Z"/><path class="i" d="m79.92,175.78c-.79,0-1.46-.16-2.03-.48s-1-.77-1.31-1.36c-.3-.59-.46-1.29-.46-2.09s.15-1.48.46-2.07c.31-.59.74-1.06,1.29-1.39.55-.33,1.21-.5,1.96-.5.5,0,.97.08,1.41.24.44.16.82.4,1.14.72.33.32.58.73.76,1.21.18.49.27,1.05.27,1.7v.58h-6.45v-1.31h4.45c0-.3-.07-.57-.2-.81-.13-.24-.32-.42-.55-.55-.23-.13-.5-.2-.81-.2s-.61.07-.85.22-.44.34-.58.59c-.14.25-.21.52-.21.82v1.25c0,.38.07.7.21.98.14.28.34.49.6.64.26.15.56.22.92.22.24,0,.45-.03.65-.1s.36-.17.5-.3c.14-.13.25-.29.32-.49l1.96.13c-.1.47-.3.88-.61,1.23-.31.35-.7.62-1.18.82-.48.19-1.04.29-1.67.29Z"/><path class="i" d="m83.97,175.63v-7.64h2.05v1.33h.08c.14-.47.37-.83.7-1.08s.71-.37,1.13-.37c.11,0,.22,0,.34.02.12.01.23.03.32.05v1.88c-.1-.03-.24-.06-.41-.08-.18-.02-.34-.03-.48-.03-.31,0-.59.07-.83.2s-.44.32-.58.56-.21.51-.21.83v4.32h-2.12Z"/><path class="i" d="m90.97,171.21v4.41h-2.12v-7.64h2.02v1.35h.09c.17-.44.45-.8.85-1.06.4-.26.88-.39,1.45-.39.53,0,.99.12,1.39.35.39.23.7.56.92.99s.33.94.33,1.53v4.86h-2.12v-4.48c0-.47-.12-.83-.36-1.1-.24-.26-.58-.4-1-.4-.29,0-.54.06-.75.18-.22.12-.39.3-.51.53-.12.23-.18.51-.19.84Z"/><path class="i" d="m100.19,175.78c-.79,0-1.46-.16-2.03-.48s-1-.77-1.31-1.36c-.3-.59-.46-1.29-.46-2.09s.15-1.48.46-2.07c.31-.59.74-1.06,1.29-1.39.55-.33,1.21-.5,1.96-.5.5,0,.97.08,1.41.24.44.16.82.4,1.14.72.33.32.58.73.76,1.21.18.49.27,1.05.27,1.7v.58h-6.45v-1.31h4.45c0-.3-.07-.57-.2-.81-.13-.24-.32-.42-.55-.55-.23-.13-.5-.2-.81-.2s-.61.07-.85.22-.44.34-.58.59c-.14.25-.21.52-.21.82v1.25c0,.38.07.7.21.98.14.28.34.49.6.64.26.15.56.22.92.22.24,0,.45-.03.65-.1s.36-.17.5-.3c.14-.13.25-.29.32-.49l1.96.13c-.1.47-.3.88-.61,1.23-.31.35-.7.62-1.18.82-.48.19-1.04.29-1.67.29Z"/><path class="i" d="m108.3,167.99v1.59h-4.6v-1.59h4.6Zm-3.55-1.83h2.12v7.12c0,.2.03.35.09.46.06.11.14.18.25.23.11.04.23.06.38.06.1,0,.2,0,.3-.03.1-.02.18-.03.23-.04l.33,1.58c-.11.03-.26.07-.45.12-.19.04-.43.07-.7.08-.51.02-.96-.05-1.34-.2s-.68-.4-.89-.73c-.21-.33-.32-.74-.31-1.24v-7.4Z"/><path class="i" d="m112.24,175.78c-.79,0-1.46-.16-2.03-.48s-1-.77-1.31-1.36c-.3-.59-.46-1.29-.46-2.09s.15-1.48.46-2.07c.31-.59.74-1.06,1.29-1.39.55-.33,1.21-.5,1.96-.5.5,0,.97.08,1.41.24.44.16.82.4,1.14.72.33.32.58.73.76,1.21.18.49.27,1.05.27,1.7v.58h-6.45v-1.31h4.45c0-.3-.07-.57-.2-.81-.13-.24-.32-.42-.55-.55-.23-.13-.5-.2-.81-.2s-.61.07-.85.22-.44.34-.58.59c-.14.25-.21.52-.21.82v1.25c0,.38.07.7.21.98.14.28.34.49.6.64.26.15.56.22.92.22.24,0,.45-.03.65-.1s.36-.17.5-.3c.14-.13.25-.29.32-.49l1.96.13c-.1.47-.3.88-.61,1.23-.31.35-.7.62-1.18.82-.48.19-1.04.29-1.67.29Z"/><path class="i" d="m122.64,170.17l-1.94.12c-.03-.17-.1-.32-.21-.45s-.25-.24-.43-.32c-.18-.08-.39-.12-.63-.12-.33,0-.6.07-.83.21-.23.14-.34.32-.34.55,0,.18.07.34.22.46s.4.23.75.3l1.38.28c.74.15,1.3.4,1.66.74.36.34.55.78.55,1.33,0,.5-.15.94-.44,1.32-.29.38-.69.67-1.2.88-.51.21-1.09.32-1.76.32-1.01,0-1.82-.21-2.41-.63-.6-.42-.95-1-1.05-1.73l2.08-.11c.06.31.22.54.46.7.24.16.55.24.93.24s.67-.07.9-.22c.23-.14.34-.33.35-.56,0-.19-.08-.35-.24-.47-.16-.12-.4-.22-.74-.29l-1.32-.26c-.75-.15-1.3-.41-1.66-.78-.36-.37-.54-.84-.54-1.41,0-.49.13-.91.4-1.27.27-.35.64-.63,1.13-.82.49-.19,1.05-.29,1.71-.29.96,0,1.72.2,2.28.61.56.41.88.96.97,1.67Z"/><path class="i" d="m74.53,185.81h-2.18c-.04-.28-.12-.53-.24-.75-.12-.22-.28-.41-.47-.56s-.41-.28-.66-.36c-.25-.08-.52-.12-.81-.12-.53,0-.99.13-1.38.39-.39.26-.69.64-.91,1.13-.22.5-.32,1.1-.32,1.8s.11,1.34.33,1.83c.22.49.52.87.91,1.12s.84.38,1.36.38c.29,0,.56-.04.8-.11.25-.08.47-.19.66-.34s.35-.33.48-.54c.13-.21.22-.45.27-.73h2.18c-.06.48-.2.93-.42,1.36-.22.43-.52.82-.9,1.16-.38.34-.82.61-1.34.81-.52.2-1.1.3-1.76.3-.91,0-1.72-.21-2.43-.62-.71-.41-1.28-1.01-1.69-1.79-.41-.78-.62-1.72-.62-2.83s.21-2.06.63-2.83c.42-.78.98-1.37,1.7-1.78s1.52-.61,2.42-.61c.59,0,1.14.08,1.64.25.51.17.95.41,1.35.72.39.32.71.7.96,1.16.25.46.4.98.47,1.57Z"/><path class="i" d="m77.32,182.25v10.18h-2.12v-10.18h2.12Z"/><path class="i" d="m83.06,189.18v-4.38h2.12v7.64h-2.03v-1.39h-.08c-.17.45-.46.81-.86,1.08-.4.27-.89.41-1.46.41-.51,0-.96-.12-1.35-.35s-.69-.56-.91-.99c-.22-.43-.33-.94-.33-1.54v-4.86h2.12v4.48c0,.45.12.81.36,1.07.24.26.56.39.96.39.25,0,.49-.06.72-.18s.4-.29.54-.52c.14-.23.2-.52.2-.86Z"/><path class="i" d="m92.39,186.97l-1.94.12c-.03-.17-.1-.32-.21-.45s-.25-.24-.43-.32c-.18-.08-.39-.12-.63-.12-.33,0-.6.07-.83.21-.23.14-.34.32-.34.55,0,.18.07.34.22.46s.4.23.75.3l1.38.28c.74.15,1.3.4,1.66.74.36.34.55.78.55,1.33,0,.5-.15.94-.44,1.32-.29.38-.69.67-1.2.88-.51.21-1.09.32-1.76.32-1.01,0-1.82-.21-2.41-.63-.6-.42-.95-1-1.05-1.73l2.08-.11c.06.31.22.54.46.7.24.16.55.24.93.24s.67-.07.9-.22c.23-.14.34-.33.35-.56,0-.19-.08-.35-.24-.47-.16-.12-.4-.22-.74-.29l-1.32-.26c-.75-.15-1.3-.41-1.66-.78-.36-.37-.54-.84-.54-1.41,0-.49.13-.91.4-1.27.27-.35.64-.63,1.13-.82.49-.19,1.05-.29,1.71-.29.96,0,1.72.2,2.28.61.56.41.88.96.97,1.67Z"/><path class="i" d="m97.12,184.79v1.59h-4.6v-1.59h4.6Zm-3.55-1.83h2.12v7.12c0,.2.03.35.09.46.06.11.14.18.25.23.11.04.23.06.38.06.1,0,.2,0,.3-.03.1-.02.18-.03.23-.04l.33,1.58c-.11.03-.26.07-.45.12-.19.04-.43.07-.7.08-.51.02-.96-.05-1.34-.2s-.68-.4-.89-.73c-.21-.33-.32-.74-.31-1.24v-7.4Z"/><path class="i" d="m101.06,192.58c-.79,0-1.46-.16-2.03-.48s-1-.77-1.31-1.36c-.3-.59-.46-1.29-.46-2.09s.15-1.48.46-2.07c.31-.59.74-1.06,1.29-1.39.55-.33,1.21-.5,1.96-.5.5,0,.97.08,1.41.24.44.16.82.4,1.14.72.33.32.58.73.76,1.21.18.49.27,1.05.27,1.7v.58h-6.45v-1.31h4.45c0-.3-.07-.57-.2-.81-.13-.24-.32-.42-.55-.55-.23-.13-.5-.2-.81-.2s-.61.07-.85.22-.44.34-.58.59c-.14.25-.21.52-.21.82v1.25c0,.38.07.7.21.98.14.28.34.49.6.64.26.15.56.22.92.22.24,0,.45-.03.65-.1s.36-.17.5-.3c.14-.13.25-.29.32-.49l1.96.13c-.1.47-.3.88-.61,1.23-.31.35-.7.62-1.18.82-.48.19-1.04.29-1.67.29Z"/><path class="i" d="m105.1,192.43v-7.64h2.05v1.33h.08c.14-.47.37-.83.7-1.08s.71-.37,1.13-.37c.11,0,.22,0,.34.02.12.01.23.03.32.05v1.88c-.1-.03-.24-.06-.41-.08-.18-.02-.34-.03-.48-.03-.31,0-.59.07-.83.2s-.44.32-.58.56-.21.51-.21.83v4.32h-2.12Z"/><path class="i" d="m74.27,204.81v4.41h-2.12v-7.64h2.02v1.35h.09c.17-.44.45-.8.85-1.06.4-.26.88-.39,1.45-.39.53,0,.99.12,1.39.35.39.23.7.56.92.99s.33.94.33,1.53v4.86h-2.12v-4.48c0-.47-.12-.83-.36-1.1-.24-.26-.58-.4-1-.4-.29,0-.54.06-.75.18-.22.12-.39.3-.51.53-.12.23-.18.51-.19.84Z"/><path class="i" d="m83.47,209.38c-.77,0-1.44-.16-2-.49-.56-.33-1-.79-1.3-1.38-.3-.59-.46-1.28-.46-2.06s.15-1.48.46-2.07c.31-.59.74-1.05,1.3-1.38.56-.33,1.23-.49,2-.49s1.44.17,2,.49c.56.33,1,.79,1.3,1.38.3.59.46,1.28.46,2.07s-.15,1.47-.46,2.06c-.31.59-.74,1.05-1.3,1.38-.56.33-1.23.49-2,.49Zm0-1.64c.35,0,.65-.1.88-.3.24-.2.41-.47.53-.82.12-.35.18-.74.18-1.19s-.06-.84-.18-1.19c-.12-.35-.3-.62-.53-.83s-.53-.3-.88-.3-.65.1-.89.3-.42.48-.54.83c-.12.35-.18.74-.18,1.19s.06.84.18,1.19c.12.35.3.62.54.82.24.2.54.3.89.3Z"/><path class="i" d="m90.58,209.35c-.58,0-1.1-.15-1.57-.45-.47-.3-.84-.74-1.11-1.33s-.41-1.3-.41-2.16.14-1.6.42-2.19.66-1.02,1.13-1.31c.47-.29.98-.44,1.54-.44.43,0,.78.07,1.07.22s.52.32.7.54c.18.21.31.42.41.63h.06v-3.83h2.11v10.18h-2.09v-1.22h-.09c-.1.21-.24.42-.42.63-.18.21-.41.38-.7.51s-.64.2-1.05.2Zm.67-1.69c.34,0,.63-.09.87-.28.24-.19.42-.45.55-.79.13-.34.19-.73.19-1.19s-.06-.85-.19-1.18c-.13-.33-.31-.59-.55-.78s-.53-.27-.87-.27-.64.09-.88.28-.42.45-.54.79-.18.72-.18,1.16.06.84.19,1.18c.12.34.31.6.54.8.24.19.53.29.88.29Z"/><path class="i" d="m99.3,209.38c-.79,0-1.46-.16-2.03-.48s-1-.77-1.31-1.36c-.3-.59-.46-1.29-.46-2.09s.15-1.48.46-2.07c.31-.59.74-1.06,1.29-1.39.55-.33,1.21-.5,1.96-.5.5,0,.97.08,1.41.24.44.16.82.4,1.14.72.33.32.58.73.76,1.21.18.49.27,1.05.27,1.7v.58h-6.45v-1.31h4.45c0-.3-.07-.57-.2-.81-.13-.24-.32-.42-.55-.55-.23-.13-.5-.2-.81-.2s-.61.07-.85.22-.44.34-.58.59c-.14.25-.21.52-.21.82v1.25c0,.38.07.7.21.98.14.28.34.49.6.64.26.15.56.22.92.22.24,0,.45-.03.65-.1s.36-.17.5-.3c.14-.13.25-.29.32-.49l1.96.13c-.1.47-.3.88-.61,1.23-.31.35-.7.62-1.18.82-.48.19-1.04.29-1.67.29Z"/></g><g><path class="i" d="m220.45,182.84v-10.18h4.02c.77,0,1.43.15,1.97.44.54.29.96.7,1.25,1.22.29.52.43,1.12.43,1.79s-.15,1.27-.44,1.79c-.29.52-.71.92-1.26,1.21-.55.29-1.22.43-2,.43h-2.56v-1.73h2.21c.41,0,.76-.07,1.03-.22.27-.14.47-.34.61-.6.13-.26.2-.55.2-.89s-.07-.63-.2-.89c-.13-.25-.34-.45-.61-.59-.27-.14-.62-.21-1.03-.21h-1.45v8.42h-2.15Z"/><path class="i" d="m228.64,182.84v-7.64h2.05v1.33h.08c.14-.47.37-.83.7-1.08s.71-.37,1.13-.37c.11,0,.22,0,.34.02.12.01.23.03.32.05v1.88c-.1-.03-.24-.06-.41-.08-.18-.02-.34-.03-.48-.03-.31,0-.59.07-.83.2-.24.13-.44.32-.58.56-.14.24-.21.51-.21.83v4.32h-2.12Z"/><path class="i" d="m236.61,182.99c-.77,0-1.44-.16-2-.49-.56-.33-1-.79-1.3-1.38-.3-.59-.46-1.28-.46-2.06s.15-1.48.46-2.07c.3-.59.74-1.05,1.3-1.38.56-.33,1.23-.49,2-.49s1.44.17,2,.49c.56.33,1,.79,1.3,1.38.3.59.46,1.28.46,2.07s-.15,1.47-.46,2.06c-.3.59-.74,1.05-1.3,1.38-.56.33-1.23.49-2,.49Zm0-1.64c.35,0,.64-.1.88-.3.24-.2.41-.47.53-.82.12-.35.18-.74.18-1.19s-.06-.84-.18-1.19c-.12-.35-.3-.62-.53-.83s-.53-.3-.88-.3-.65.1-.89.3-.42.48-.54.83c-.12.35-.18.74-.18,1.19s.06.84.18,1.19c.12.35.3.62.54.82.24.2.54.3.89.3Z"/><path class="i" d="m242.4,175.21l1.4,2.67,1.44-2.67h2.17l-2.21,3.82,2.27,3.82h-2.16l-1.51-2.64-1.48,2.64h-2.19l2.27-3.82-2.19-3.82h2.19Z"/><path class="i" d="m249.13,185.71c-.27,0-.52-.02-.75-.06s-.43-.09-.58-.16l.48-1.58c.25.08.47.12.67.12.2,0,.37-.04.52-.14.15-.1.27-.27.36-.51l.12-.32-2.74-7.85h2.23l1.58,5.61h.08l1.6-5.61h2.24l-2.97,8.46c-.14.41-.33.77-.58,1.08-.24.31-.55.54-.92.71-.37.17-.82.25-1.34.25Z"/><path class="i" d="m224.44,189.46h2.13v7.1c0,.66-.15,1.23-.44,1.71s-.7.86-1.22,1.12-1.12.39-1.81.39c-.61,0-1.17-.11-1.67-.33-.5-.22-.89-.55-1.19-.99s-.44-1.01-.43-1.68h2.14c0,.27.06.5.17.69.1.19.25.34.43.44.18.1.4.15.65.15.27,0,.49-.06.67-.17s.32-.28.42-.5c.1-.22.14-.5.14-.82v-7.1Z"/><path class="i" d="m232.36,196.39v-4.38h2.12v7.64h-2.03v-1.39h-.08c-.17.45-.46.81-.86,1.08-.4.27-.89.41-1.46.41-.51,0-.96-.12-1.35-.35s-.69-.56-.91-.99c-.22-.43-.33-.94-.33-1.54v-4.86h2.12v4.48c0,.45.12.81.36,1.07.24.26.56.39.96.39.26,0,.49-.06.72-.18.22-.12.4-.29.54-.52s.2-.52.2-.86Z"/><path class="i" d="m235.33,199.64v-7.64h2.02v1.35h.09c.16-.45.42-.8.8-1.06.37-.26.81-.39,1.33-.39s.97.13,1.34.39c.37.26.61.61.74,1.06h.08c.16-.44.44-.79.85-1.05.41-.26.89-.4,1.45-.4.71,0,1.29.23,1.74.68.45.45.67,1.09.67,1.92v5.14h-2.11v-4.72c0-.42-.11-.74-.34-.95-.23-.21-.51-.32-.85-.32-.38,0-.68.12-.9.37-.22.24-.32.56-.32.96v4.66h-2.05v-4.76c0-.37-.11-.67-.32-.9s-.5-.33-.84-.33c-.24,0-.45.06-.63.18-.19.12-.34.28-.45.49-.11.21-.16.46-.16.74v4.58h-2.12Z"/><path class="i" d="m247.25,202.51v-10.5h2.09v1.28h.09c.09-.21.23-.42.41-.63.18-.21.41-.39.7-.54s.64-.22,1.07-.22c.56,0,1.07.15,1.54.44s.85.73,1.13,1.31c.28.58.42,1.31.42,2.19s-.14,1.57-.41,2.16-.65,1.03-1.11,1.33c-.47.3-.99.45-1.57.45-.41,0-.76-.07-1.05-.2-.29-.14-.52-.31-.7-.51-.18-.21-.32-.42-.42-.63h-.06v4.09h-2.12Zm2.07-6.68c0,.45.06.85.19,1.19.13.34.31.6.55.79.24.19.53.28.87.28s.64-.1.88-.29c.24-.19.42-.46.54-.8.12-.34.19-.73.19-1.18s-.06-.83-.18-1.16c-.12-.33-.3-.6-.54-.79-.24-.19-.53-.28-.88-.28s-.64.09-.87.27c-.24.18-.42.44-.54.78-.13.33-.19.73-.19,1.18Z"/></g><g><path class="i" d="m122.27,297.14v-10.18h2.12v3.83h.06c.09-.21.23-.42.41-.63s.41-.39.7-.54.64-.22,1.07-.22c.56,0,1.07.14,1.54.43s.85.73,1.13,1.31.42,1.31.42,2.18-.14,1.57-.41,2.16-.65,1.03-1.11,1.33c-.47.3-.99.45-1.57.45-.41,0-.76-.07-1.05-.2-.29-.14-.52-.31-.7-.51-.18-.21-.32-.42-.42-.63h-.09v1.22h-2.09Zm2.07-3.82c0,.45.06.85.19,1.19s.31.6.55.79.53.28.87.28.64-.09.88-.29.42-.46.54-.8c.12-.34.19-.73.19-1.18s-.06-.83-.18-1.16-.3-.6-.54-.79c-.24-.19-.53-.28-.88-.28s-.64.09-.87.27c-.24.18-.42.44-.54.78-.13.33-.19.73-.19,1.18Z"/><path class="i" d="m132.46,297.28c-.49,0-.92-.09-1.3-.26-.38-.17-.68-.42-.9-.76-.22-.34-.33-.76-.33-1.26,0-.42.08-.78.23-1.07.16-.29.37-.52.64-.7.27-.18.57-.31.92-.4.34-.09.7-.15,1.08-.19.44-.05.8-.09,1.07-.13.27-.04.47-.1.59-.19.12-.08.18-.21.18-.37v-.03c0-.31-.1-.56-.3-.73-.2-.17-.48-.26-.84-.26-.38,0-.68.08-.91.25-.23.17-.38.38-.45.63l-1.96-.16c.1-.46.29-.87.59-1.21.29-.34.67-.6,1.13-.79.46-.18,1-.28,1.61-.28.42,0,.83.05,1.22.15.39.1.74.25,1.04.46s.54.48.72.8.26.72.26,1.17v5.15h-2.01v-1.06h-.06c-.12.24-.29.45-.49.63s-.45.32-.74.42c-.29.1-.62.15-1,.15Zm.61-1.46c.31,0,.59-.06.83-.19s.43-.29.56-.5c.14-.21.2-.45.2-.72v-.81c-.07.04-.16.08-.27.12s-.24.07-.39.09-.29.05-.43.07-.27.04-.39.06c-.25.04-.47.09-.65.17-.19.08-.33.19-.43.32-.1.13-.15.3-.15.5,0,.29.1.51.32.66.21.15.48.23.8.23Z"/><path class="i" d="m143.92,291.68l-1.94.12c-.03-.17-.1-.32-.21-.45-.11-.13-.25-.24-.43-.32s-.39-.12-.63-.12c-.33,0-.6.07-.83.21-.23.14-.34.32-.34.55,0,.18.07.34.22.46s.4.23.75.3l1.38.28c.74.15,1.3.4,1.66.74.36.34.55.78.55,1.33,0,.5-.15.94-.44,1.32-.29.38-.69.67-1.2.88-.51.21-1.09.32-1.76.32-1.01,0-1.82-.21-2.41-.63-.6-.42-.95-1-1.05-1.73l2.08-.11c.06.31.22.54.46.7.24.16.55.24.93.24s.67-.07.9-.22c.23-.14.34-.33.35-.56,0-.19-.08-.35-.24-.48-.16-.12-.4-.22-.74-.29l-1.32-.26c-.75-.15-1.3-.41-1.66-.78-.36-.37-.54-.84-.54-1.41,0-.49.13-.91.4-1.27.27-.35.64-.63,1.13-.82.49-.19,1.05-.29,1.71-.29.96,0,1.72.2,2.28.61.56.41.88.96.97,1.67Z"/><path class="i" d="m148.07,297.28c-.79,0-1.46-.16-2.03-.48-.56-.32-1-.77-1.31-1.36-.3-.59-.46-1.29-.46-2.09s.15-1.47.46-2.07c.31-.59.74-1.06,1.29-1.39.55-.33,1.21-.5,1.96-.5.5,0,.97.08,1.41.24.44.16.82.4,1.14.72.33.32.58.73.76,1.21.18.49.27,1.05.27,1.7v.58h-6.45v-1.31h4.45c0-.3-.07-.58-.2-.81-.13-.24-.32-.42-.55-.55-.23-.13-.5-.2-.81-.2s-.61.07-.85.22-.44.34-.58.59-.21.52-.21.82v1.25c0,.38.07.7.21.98.14.28.34.49.6.64.26.15.56.22.92.22.24,0,.45-.03.65-.1s.36-.17.5-.3c.14-.13.25-.29.32-.49l1.96.13c-.1.47-.3.88-.61,1.23-.31.35-.7.62-1.18.82-.48.19-1.04.29-1.67.29Z"/><path class="i" d="m156.88,292.11v1.68h-4.64v-1.68h4.64Z"/><path class="i" d="m159.96,292.72v4.42h-2.12v-7.64h2.02v1.35h.09c.17-.44.45-.8.85-1.06.4-.26.88-.39,1.45-.39.53,0,.99.12,1.39.35.39.23.7.56.92.99.22.43.33.94.33,1.53v4.86h-2.12v-4.48c0-.47-.12-.83-.36-1.1-.24-.26-.58-.39-1-.39-.29,0-.54.06-.75.18-.22.12-.39.3-.51.53-.12.23-.18.51-.19.84Z"/><path class="i" d="m169.19,297.28c-.79,0-1.46-.16-2.03-.48-.56-.32-1-.77-1.31-1.36-.3-.59-.46-1.29-.46-2.09s.15-1.47.46-2.07c.31-.59.74-1.06,1.29-1.39.55-.33,1.21-.5,1.96-.5.5,0,.97.08,1.41.24.44.16.82.4,1.14.72.33.32.58.73.76,1.21.18.49.27,1.05.27,1.7v.58h-6.45v-1.31h4.45c0-.3-.07-.58-.2-.81-.13-.24-.32-.42-.55-.55-.23-.13-.5-.2-.81-.2s-.61.07-.85.22-.44.34-.58.59-.21.52-.21.82v1.25c0,.38.07.7.21.98.14.28.34.49.6.64.26.15.56.22.92.22.24,0,.45-.03.65-.1s.36-.17.5-.3c.14-.13.25-.29.32-.49l1.96.13c-.1.47-.3.88-.61,1.23-.31.35-.7.62-1.18.82-.48.19-1.04.29-1.67.29Z"/><path class="i" d="m177.29,289.5v1.59h-4.6v-1.59h4.6Zm-3.55-1.83h2.12v7.12c0,.2.03.35.09.46s.14.18.25.23c.11.04.23.06.38.06.1,0,.2,0,.3-.03.1-.02.18-.03.23-.04l.33,1.58c-.11.03-.26.07-.45.12s-.43.07-.7.08c-.51.02-.96-.05-1.34-.2-.38-.16-.68-.4-.89-.73-.21-.33-.32-.74-.31-1.24v-7.4Z"/><path class="i" d="m179.34,297.14l-2.08-7.64h2.14l1.18,5.13h.07l1.23-5.13h2.1l1.25,5.1h.06l1.16-5.1h2.14l-2.07,7.64h-2.24l-1.31-4.8h-.09l-1.31,4.8h-2.24Z"/><path class="i" d="m192.16,297.28c-.77,0-1.44-.17-2-.5-.56-.33-1-.79-1.3-1.38s-.46-1.28-.46-2.06.15-1.48.46-2.07c.3-.59.74-1.05,1.3-1.38.56-.33,1.23-.49,2-.49s1.44.16,2,.49c.56.33,1,.79,1.3,1.38.3.59.46,1.28.46,2.07s-.15,1.47-.46,2.06-.74,1.05-1.3,1.38c-.56.33-1.23.5-2,.5Zm0-1.64c.35,0,.64-.1.88-.3.24-.2.41-.47.53-.82.12-.35.18-.74.18-1.19s-.06-.84-.18-1.19c-.12-.35-.3-.62-.53-.83s-.53-.3-.88-.3-.65.1-.89.3-.42.48-.54.83c-.12.35-.18.74-.18,1.19s.06.84.18,1.19c.12.35.3.62.54.82.24.2.54.3.89.3Z"/><path class="i" d="m196.45,297.14v-7.64h2.05v1.33h.08c.14-.47.37-.83.7-1.08.33-.24.71-.37,1.13-.37.11,0,.22,0,.34.02.12.01.23.03.32.05v1.88c-.1-.03-.24-.06-.41-.08-.18-.02-.34-.04-.48-.04-.31,0-.59.07-.83.2-.24.13-.44.32-.58.56-.14.24-.21.51-.21.83v4.32h-2.12Z"/><path class="i" d="m201.34,297.14v-10.18h2.12v10.18h-2.12Zm1.92-2.2v-2.54h.31l2.45-2.9h2.43l-3.29,3.84h-.5l-1.4,1.6Zm2.85,2.2l-2.25-3.33,1.41-1.5,3.32,4.82h-2.48Z"/></g><g><path class="g" d="m33.39,340.03v-9.72h3.4c.68,0,1.23.12,1.67.35.44.23.77.54.98.93.22.39.32.82.32,1.3,0,.42-.07.76-.22,1.03-.15.27-.34.49-.58.65s-.5.28-.78.35v.1c.3.02.6.12.9.31.3.19.55.46.75.82.2.35.3.79.3,1.3s-.11.92-.33,1.31c-.22.39-.57.7-1.05.92s-1.1.34-1.86.34h-3.51Zm1.18-5.45h2.18c.35,0,.67-.07.96-.21.29-.14.51-.33.68-.59.17-.25.25-.55.25-.89,0-.43-.15-.79-.45-1.09s-.77-.45-1.41-.45h-2.22v3.23Zm0,4.4h2.33c.77,0,1.31-.15,1.64-.45s.49-.66.49-1.09c0-.33-.08-.63-.25-.91-.17-.28-.41-.5-.72-.67s-.68-.25-1.1-.25h-2.39v3.38Z"/><path class="g" d="m43.28,340.2c-.46,0-.88-.09-1.26-.26-.38-.17-.68-.43-.9-.76-.22-.33-.33-.74-.33-1.21,0-.42.08-.76.25-1.02.16-.26.38-.47.66-.62.28-.15.58-.26.91-.33.33-.07.67-.13,1.01-.18.44-.06.8-.1,1.08-.13s.48-.08.61-.15c.13-.07.19-.2.19-.38v-.04c0-.47-.13-.83-.38-1.09-.25-.26-.64-.39-1.16-.39s-.95.12-1.26.35c-.3.23-.52.48-.64.75l-1.06-.38c.19-.44.44-.79.76-1.04s.67-.42,1.04-.52.75-.15,1.12-.15c.23,0,.5.03.81.08.31.06.6.17.89.34s.52.43.71.77c.19.34.28.81.28,1.38v4.8h-1.12v-.99h-.06c-.08.16-.2.33-.38.51-.18.18-.41.33-.71.46-.29.13-.65.19-1.08.19Zm.17-1.01c.44,0,.82-.09,1.12-.26.31-.17.54-.4.69-.67.16-.28.23-.56.23-.87v-1.03c-.05.06-.15.11-.31.15s-.34.09-.55.12c-.21.03-.41.06-.6.08-.19.02-.35.04-.47.06-.29.04-.56.1-.81.18s-.45.21-.61.38c-.15.17-.23.39-.23.68,0,.39.15.68.43.88.29.2.66.3,1.1.3Z"/><path class="g" d="m53.03,334.37l-1.01.28c-.06-.17-.16-.33-.28-.49-.12-.16-.29-.29-.5-.4-.21-.1-.48-.16-.8-.16-.45,0-.82.1-1.11.31s-.44.46-.44.78c0,.28.1.5.3.66.2.16.52.29.95.4l1.08.27c.65.16,1.14.4,1.46.72.32.32.48.74.48,1.25,0,.42-.12.79-.36,1.12s-.57.59-1,.78c-.43.19-.92.28-1.49.28-.74,0-1.36-.16-1.85-.48-.49-.32-.8-.79-.93-1.41l1.06-.27c.1.39.29.69.58.88s.65.29,1.11.29c.52,0,.94-.11,1.25-.33.31-.22.46-.49.46-.8,0-.25-.09-.47-.27-.64-.18-.17-.45-.3-.82-.39l-1.21-.29c-.67-.16-1.16-.4-1.47-.74-.31-.33-.47-.75-.47-1.25,0-.41.12-.78.35-1.09s.55-.56.95-.75c.4-.18.86-.27,1.37-.27.72,0,1.29.16,1.7.47s.71.73.88,1.25Z"/><path class="g" d="m57.1,340.18c-.7,0-1.31-.16-1.81-.47-.51-.31-.9-.75-1.17-1.31-.27-.56-.41-1.21-.41-1.96s.14-1.41.41-1.98c.27-.57.66-1.02,1.15-1.34.49-.32,1.07-.48,1.72-.48.38,0,.75.06,1.12.19.37.13.71.33,1.01.61s.55.66.73,1.12c.18.46.27,1.04.27,1.72v.47h-5.62v-.97h4.48c0-.41-.08-.78-.24-1.1-.16-.32-.39-.58-.69-.76s-.65-.28-1.06-.28c-.45,0-.83.11-1.16.33s-.57.5-.75.86c-.17.35-.26.73-.26,1.13v.65c0,.55.1,1.02.29,1.4s.46.67.8.87c.34.2.74.3,1.19.3.29,0,.56-.04.8-.12.24-.08.44-.21.62-.38.17-.17.31-.38.4-.63l1.08.3c-.11.37-.31.69-.57.97-.27.28-.6.49-1,.65-.4.15-.84.23-1.33.23Z"/><path class="g" d="m65.31,330.31v9.72h-1.18v-9.72h1.18Z"/><path class="g" d="m67.83,335.64v4.38h-1.12v-7.29h1.08v1.14h.1c.17-.37.43-.67.78-.89.35-.23.8-.34,1.35-.34.49,0,.92.1,1.29.3s.66.5.86.91.31.92.31,1.54v4.63h-1.12v-4.55c0-.57-.15-1.02-.45-1.34-.3-.32-.71-.48-1.22-.48-.36,0-.68.08-.96.23-.28.16-.5.38-.66.68-.16.3-.24.66-.24,1.08Z"/><path class="g" d="m76.97,332.74v.95h-3.93v-.95h3.93Zm-2.75,7.29v-8.29c0-.42.1-.77.29-1.04.2-.28.45-.49.76-.63.31-.14.64-.21.99-.21.28,0,.5.02.67.07.17.04.3.08.39.12l-.32.97c-.06-.02-.14-.04-.23-.07s-.23-.04-.39-.04c-.37,0-.64.09-.8.28-.16.19-.24.46-.24.82v8.03h-1.12Z"/><path class="g" d="m77.74,340.03v-7.29h1.08v1.1h.08c.13-.36.37-.65.72-.88.35-.22.74-.34,1.18-.34.08,0,.19,0,.31,0s.22,0,.28.01v1.14s-.12-.02-.26-.04c-.13-.02-.28-.03-.42-.03-.35,0-.67.07-.95.22-.28.15-.5.35-.65.61-.16.26-.24.55-.24.88v4.61h-1.12Z"/><path class="g" d="m84.06,340.2c-.46,0-.88-.09-1.26-.26-.38-.17-.68-.43-.9-.76-.22-.33-.33-.74-.33-1.21,0-.42.08-.76.25-1.02.16-.26.38-.47.66-.62.28-.15.58-.26.91-.33.33-.07.67-.13,1.01-.18.44-.06.8-.1,1.08-.13s.48-.08.61-.15c.13-.07.19-.2.19-.38v-.04c0-.47-.13-.83-.38-1.09-.25-.26-.64-.39-1.16-.39s-.95.12-1.26.35c-.3.23-.52.48-.64.75l-1.06-.38c.19-.44.44-.79.76-1.04s.67-.42,1.04-.52.75-.15,1.12-.15c.23,0,.5.03.81.08.31.06.6.17.89.34s.52.43.71.77c.19.34.28.81.28,1.38v4.8h-1.12v-.99h-.06c-.08.16-.2.33-.38.51-.18.18-.41.33-.71.46-.29.13-.65.19-1.08.19Zm.17-1.01c.44,0,.82-.09,1.12-.26.31-.17.54-.4.69-.67.16-.28.23-.56.23-.87v-1.03c-.05.06-.15.11-.31.15s-.34.09-.55.12c-.21.03-.41.06-.6.08-.19.02-.35.04-.47.06-.29.04-.56.1-.81.18s-.45.21-.61.38c-.15.17-.23.39-.23.68,0,.39.15.68.43.88.29.2.66.3,1.1.3Z"/><path class="g" d="m93.81,334.37l-1.01.28c-.06-.17-.16-.33-.28-.49-.12-.16-.29-.29-.5-.4-.21-.1-.48-.16-.8-.16-.45,0-.82.1-1.11.31s-.44.46-.44.78c0,.28.1.5.3.66.2.16.52.29.95.4l1.08.27c.65.16,1.14.4,1.46.72.32.32.48.74.48,1.25,0,.42-.12.79-.36,1.12s-.57.59-1,.78c-.43.19-.92.28-1.49.28-.74,0-1.36-.16-1.85-.48-.49-.32-.8-.79-.93-1.41l1.06-.27c.1.39.29.69.58.88s.65.29,1.11.29c.52,0,.94-.11,1.25-.33.31-.22.46-.49.46-.8,0-.25-.09-.47-.27-.64-.18-.17-.45-.3-.82-.39l-1.21-.29c-.67-.16-1.16-.4-1.47-.74-.31-.33-.47-.75-.47-1.25,0-.41.12-.78.35-1.09s.55-.56.95-.75c.4-.18.86-.27,1.37-.27.72,0,1.29.16,1.7.47s.71.73.88,1.25Z"/><path class="g" d="m98,332.74v.95h-3.78v-.95h3.78Zm-2.68-1.75h1.12v6.95c0,.32.05.55.14.71.09.16.21.26.36.31.15.05.3.08.47.08.12,0,.22,0,.3-.02.08-.01.14-.03.19-.04l.23,1.01c-.08.03-.18.06-.32.09-.14.03-.31.04-.52.04-.32,0-.63-.07-.93-.2-.3-.14-.55-.34-.75-.62-.2-.28-.3-.63-.3-1.05v-7.25Z"/><path class="g" d="m98.89,340.03v-7.29h1.08v1.1h.08c.13-.36.37-.65.72-.88.35-.22.74-.34,1.18-.34.08,0,.19,0,.31,0s.22,0,.28.01v1.14s-.12-.02-.26-.04c-.13-.02-.28-.03-.42-.03-.35,0-.67.07-.95.22-.28.15-.5.35-.65.61-.16.26-.24.55-.24.88v4.61h-1.12Z"/><path class="g" d="m107.65,337.05v-4.31h1.12v7.29h-1.12v-1.23h-.08c-.17.37-.44.68-.8.94-.36.26-.82.39-1.37.39-.46,0-.86-.1-1.21-.3-.35-.2-.63-.5-.83-.91-.2-.41-.3-.92-.3-1.54v-4.63h1.12v4.55c0,.53.15.96.45,1.27s.68.47,1.15.47c.28,0,.56-.07.85-.21s.53-.36.73-.66c.2-.29.3-.67.3-1.12Z"/><path class="g" d="m112.98,340.18c-.68,0-1.27-.16-1.77-.48-.49-.32-.87-.77-1.14-1.33-.27-.57-.4-1.21-.4-1.94s.14-1.39.41-1.96c.27-.57.66-1.01,1.15-1.33.49-.32,1.07-.48,1.72-.48.51,0,.97.1,1.39.29s.75.46,1.01.8.43.74.49,1.2h-1.12c-.09-.33-.27-.63-.57-.88-.29-.26-.69-.39-1.18-.39-.44,0-.82.11-1.15.34-.33.23-.58.54-.76.95-.18.41-.27.89-.27,1.44s.09,1.05.27,1.47c.18.42.43.74.76.97.33.23.71.35,1.16.35.29,0,.56-.05.79-.15s.44-.25.6-.44c.16-.19.28-.42.35-.68h1.12c-.06.43-.22.82-.47,1.16-.25.34-.58.62-.98.82-.41.2-.88.3-1.42.3Z"/><path class="g" d="m119.84,332.74v.95h-3.78v-.95h3.78Zm-2.68-1.75h1.12v6.95c0,.32.05.55.14.71.09.16.21.26.36.31.15.05.3.08.47.08.12,0,.22,0,.3-.02.08-.01.14-.03.19-.04l.23,1.01c-.08.03-.18.06-.32.09-.14.03-.31.04-.52.04-.32,0-.63-.07-.93-.2-.3-.14-.55-.34-.75-.62-.2-.28-.3-.63-.3-1.05v-7.25Z"/><path class="g" d="m125.32,337.05v-4.31h1.12v7.29h-1.12v-1.23h-.08c-.17.37-.44.68-.8.94-.36.26-.82.39-1.37.39-.46,0-.86-.1-1.21-.3-.35-.2-.63-.5-.83-.91-.2-.41-.3-.92-.3-1.54v-4.63h1.12v4.55c0,.53.15.96.45,1.27s.68.47,1.15.47c.28,0,.56-.07.85-.21s.53-.36.73-.66c.2-.29.3-.67.3-1.12Z"/><path class="g" d="m127.69,340.03v-7.29h1.08v1.1h.08c.13-.36.37-.65.72-.88.35-.22.74-.34,1.18-.34.08,0,.19,0,.31,0s.22,0,.28.01v1.14s-.12-.02-.26-.04c-.13-.02-.28-.03-.42-.03-.35,0-.67.07-.95.22-.28.15-.5.35-.65.61-.16.26-.24.55-.24.88v4.61h-1.12Z"/><path class="g" d="m134.69,340.18c-.7,0-1.31-.16-1.81-.47-.51-.31-.9-.75-1.17-1.31-.27-.56-.41-1.21-.41-1.96s.14-1.41.41-1.98c.27-.57.66-1.02,1.15-1.34.49-.32,1.07-.48,1.72-.48.38,0,.75.06,1.12.19.37.13.71.33,1.01.61s.55.66.73,1.12c.18.46.27,1.04.27,1.72v.47h-5.62v-.97h4.48c0-.41-.08-.78-.24-1.1-.16-.32-.39-.58-.69-.76s-.65-.28-1.06-.28c-.45,0-.83.11-1.16.33s-.57.5-.75.86c-.17.35-.26.73-.26,1.13v.65c0,.55.1,1.02.29,1.4s.46.67.8.87c.34.2.74.3,1.19.3.29,0,.56-.04.8-.12.24-.08.44-.21.62-.38.17-.17.31-.38.4-.63l1.08.3c-.11.37-.31.69-.57.97-.27.28-.6.49-1,.65-.4.15-.84.23-1.33.23Z"/></g><g><path class="i" d="m230.23,43.46c-.04-.4-.21-.71-.51-.93-.3-.22-.71-.33-1.23-.33-.35,0-.65.05-.89.15s-.43.23-.55.41c-.13.17-.19.37-.19.59,0,.18.03.34.12.48.08.14.2.25.35.35.15.1.32.18.52.25.2.07.4.13.63.18l.92.22c.44.1.85.23,1.22.4.37.17.69.37.96.61.27.24.48.53.63.85.15.33.23.7.23,1.13,0,.62-.16,1.16-.47,1.62-.31.46-.76.81-1.35,1.06-.59.25-1.3.38-2.13.38s-1.54-.13-2.15-.38c-.61-.25-1.08-.63-1.42-1.12-.34-.5-.52-1.11-.53-1.84h2.08c.02.34.12.63.3.85s.41.4.7.51.63.17,1,.17.68-.05.95-.16c.27-.11.48-.25.63-.44.15-.19.22-.41.22-.65,0-.23-.07-.42-.2-.58-.13-.16-.33-.29-.59-.4s-.57-.21-.94-.3l-1.11-.28c-.86-.21-1.54-.54-2.03-.98s-.74-1.04-.74-1.79c0-.62.16-1.15.5-1.62.33-.46.79-.82,1.37-1.08.58-.26,1.25-.39,1.99-.39s1.42.13,1.98.39c.57.26,1.01.62,1.32,1.08.31.46.48.99.49,1.6h-2.06Z"/><path class="i" d="m238.56,43.46c-.04-.4-.21-.71-.51-.93-.3-.22-.71-.33-1.23-.33-.35,0-.65.05-.89.15s-.43.23-.55.41c-.13.17-.19.37-.19.59,0,.18.03.34.12.48.08.14.2.25.35.35.15.1.32.18.52.25.2.07.4.13.63.18l.92.22c.44.1.85.23,1.22.4.37.17.69.37.96.61.27.24.48.53.63.85.15.33.23.7.23,1.13,0,.62-.16,1.16-.47,1.62-.31.46-.76.81-1.35,1.06-.59.25-1.3.38-2.13.38s-1.54-.13-2.15-.38c-.61-.25-1.08-.63-1.42-1.12-.34-.5-.52-1.11-.53-1.84h2.08c.02.34.12.63.3.85s.41.4.7.51.63.17,1,.17.68-.05.95-.16c.27-.11.48-.25.63-.44.15-.19.22-.41.22-.65,0-.23-.07-.42-.2-.58-.13-.16-.33-.29-.59-.4s-.57-.21-.94-.3l-1.11-.28c-.86-.21-1.54-.54-2.03-.98s-.74-1.04-.74-1.79c0-.62.16-1.15.5-1.62.33-.46.79-.82,1.37-1.08.58-.26,1.25-.39,1.99-.39s1.42.13,1.98.39c.57.26,1.01.62,1.32,1.08.31.46.48.99.49,1.6h-2.06Z"/><path class="i" d="m241.36,50.71v-10.18h2.15v4.2h4.37v-4.2h2.15v10.18h-2.15v-4.21h-4.37v4.21h-2.15Z"/></g><g><path class="i" d="m65.72,50.87v-10.18h2.15v4.2h4.37v-4.2h2.15v10.18h-2.15v-4.21h-4.37v4.21h-2.15Z"/><path class="i" d="m74.94,42.47v-1.77h8.36v1.77h-3.12v8.41h-2.13v-8.41h-3.12Z"/><path class="i" d="m83.46,42.47v-1.77h8.36v1.77h-3.12v8.41h-2.13v-8.41h-3.12Z"/><path class="i" d="m92.36,50.87v-10.18h4.02c.77,0,1.43.15,1.97.44.54.29.96.7,1.25,1.22.29.52.43,1.12.43,1.79s-.15,1.27-.44,1.79c-.29.52-.71.92-1.27,1.21-.55.29-1.22.43-2,.43h-2.56v-1.73h2.21c.41,0,.76-.07,1.03-.22.27-.14.47-.34.61-.6s.2-.55.2-.89-.07-.63-.2-.89c-.13-.25-.34-.45-.61-.59-.27-.14-.62-.21-1.03-.21h-1.45v8.42h-2.15Z"/><path class="i" d="m106.11,43.62c-.04-.4-.21-.71-.51-.93-.3-.22-.71-.33-1.23-.33-.35,0-.65.05-.89.15-.24.1-.43.23-.55.41s-.19.37-.19.59c0,.18.03.34.12.48.08.14.2.25.35.35.15.1.32.18.52.25.2.07.4.13.63.18l.91.22c.44.1.85.23,1.22.4.37.17.69.37.96.61.27.24.48.53.63.85s.23.7.23,1.13c0,.62-.16,1.16-.47,1.62-.31.46-.76.81-1.35,1.06-.59.25-1.3.38-2.13.38s-1.54-.13-2.15-.38c-.61-.25-1.08-.63-1.42-1.12-.34-.5-.52-1.11-.53-1.84h2.08c.02.34.12.63.3.85.17.23.41.4.7.51s.63.17,1,.17.68-.05.95-.16c.27-.11.48-.25.63-.44.15-.19.22-.41.22-.65,0-.23-.07-.42-.2-.58-.13-.16-.33-.29-.59-.4s-.57-.21-.94-.3l-1.11-.28c-.86-.21-1.54-.54-2.03-.98s-.74-1.04-.74-1.79c0-.62.16-1.15.49-1.62.33-.46.79-.82,1.38-1.08.58-.26,1.25-.39,1.99-.39s1.42.13,1.98.39c.56.26,1,.62,1.32,1.08.31.46.48.99.49,1.6h-2.06Z"/></g><g><path class="i" d="m396.53,339.76v10.18h-2.15v-10.18h2.15Z"/><path class="i" d="m399.54,345.52v4.42h-2.12v-7.64h2.02v1.35h.09c.17-.44.45-.8.85-1.06.4-.26.88-.39,1.45-.39.53,0,.99.12,1.39.35s.7.56.92.99c.22.43.33.94.33,1.53v4.86h-2.12v-4.48c0-.47-.12-.83-.36-1.1-.24-.26-.58-.39-1-.39-.29,0-.54.06-.75.18-.22.12-.39.3-.51.53-.12.23-.18.51-.19.84Z"/><path class="i" d="m409.35,342.3v1.59h-4.6v-1.59h4.6Zm-3.55-1.83h2.12v7.12c0,.2.03.35.09.46s.14.18.25.23c.11.04.23.06.38.06.1,0,.2,0,.3-.03.1-.02.18-.03.23-.04l.33,1.58c-.11.03-.25.07-.45.12s-.43.07-.7.08c-.51.02-.96-.05-1.34-.2-.38-.16-.68-.4-.89-.73-.21-.33-.32-.74-.31-1.24v-7.4Z"/><path class="i" d="m413.29,350.09c-.79,0-1.46-.16-2.03-.48-.57-.32-1-.77-1.31-1.36-.3-.59-.46-1.29-.46-2.09s.15-1.47.46-2.07c.3-.59.74-1.06,1.29-1.39.56-.33,1.21-.5,1.96-.5.5,0,.97.08,1.41.24.44.16.82.4,1.14.72.33.32.58.73.76,1.21s.27,1.05.27,1.7v.58h-6.45v-1.31h4.46c0-.3-.07-.58-.2-.81s-.32-.42-.55-.55c-.23-.13-.5-.2-.81-.2s-.61.07-.85.22-.44.34-.58.59-.21.52-.21.82v1.25c0,.38.07.7.21.98.14.28.34.49.6.64.26.15.57.22.92.22.24,0,.45-.03.65-.1.2-.07.36-.17.5-.3.14-.13.25-.29.32-.49l1.96.13c-.1.47-.3.88-.61,1.23s-.7.62-1.18.82c-.48.19-1.04.29-1.67.29Z"/><path class="i" d="m417.34,349.94v-7.64h2.05v1.33h.08c.14-.47.37-.83.7-1.08.33-.24.71-.37,1.13-.37.11,0,.22,0,.34.02.12.01.23.03.32.05v1.88c-.1-.03-.24-.06-.41-.08-.18-.02-.34-.04-.48-.04-.31,0-.59.07-.83.2-.24.13-.44.32-.58.56-.14.24-.21.51-.21.83v4.32h-2.12Z"/><path class="i" d="m424.34,345.52v4.42h-2.12v-7.64h2.02v1.35h.09c.17-.44.45-.8.85-1.06.4-.26.88-.39,1.45-.39.53,0,.99.12,1.39.35s.7.56.92.99c.22.43.33.94.33,1.53v4.86h-2.12v-4.48c0-.47-.12-.83-.36-1.1-.24-.26-.58-.39-1-.39-.29,0-.54.06-.75.18-.22.12-.39.3-.51.53-.12.23-.18.51-.19.84Z"/><path class="i" d="m433.56,350.09c-.79,0-1.46-.16-2.03-.48-.57-.32-1-.77-1.31-1.36-.3-.59-.46-1.29-.46-2.09s.15-1.47.46-2.07c.3-.59.74-1.06,1.29-1.39.56-.33,1.21-.5,1.96-.5.5,0,.97.08,1.41.24.44.16.82.4,1.14.72.33.32.58.73.76,1.21s.27,1.05.27,1.7v.58h-6.45v-1.31h4.46c0-.3-.07-.58-.2-.81s-.32-.42-.55-.55c-.23-.13-.5-.2-.81-.2s-.61.07-.85.22-.44.34-.58.59-.21.52-.21.82v1.25c0,.38.07.7.21.98.14.28.34.49.6.64.26.15.57.22.92.22.24,0,.45-.03.65-.1.2-.07.36-.17.5-.3.14-.13.25-.29.32-.49l1.96.13c-.1.47-.3.88-.61,1.23s-.7.62-1.18.82c-.48.19-1.04.29-1.67.29Z"/><path class="i" d="m441.67,342.3v1.59h-4.6v-1.59h4.6Zm-3.55-1.83h2.12v7.12c0,.2.03.35.09.46s.14.18.25.23c.11.04.23.06.38.06.1,0,.2,0,.3-.03.1-.02.18-.03.23-.04l.33,1.58c-.11.03-.25.07-.45.12s-.43.07-.7.08c-.51.02-.96-.05-1.34-.2-.38-.16-.68-.4-.89-.73-.21-.33-.32-.74-.31-1.24v-7.4Z"/></g><g><line class="e" x1="116.22" y1="44.54" x2="134.17" y2="44.54"/><polygon class="i" points="137.7 44.54 132.73 46.57 133.91 44.54 132.73 42.5 137.7 44.54"/></g><g><line class="e" x1="197.73" y1="44.54" x2="217.82" y2="44.54"/><polygon class="i" points="194.2 44.54 199.18 46.57 197.99 44.54 199.18 42.5 194.2 44.54"/></g><g><line class="b" x1="86.86" y1="55.24" x2="86.86" y2="144.84"/><polygon class="i" points="86.86 151.9 82.79 141.95 86.86 144.32 90.92 141.95 86.86 151.9"/></g><g><line class="b" x1="234.94" y1="55.24" x2="234.94" y2="144.84"/><polygon class="i" points="234.94 151.9 230.88 141.95 234.94 144.32 239.01 141.95 234.94 151.9"/></g><g><polyline class="b" points="86.86 231.3 86.86 292.87 104.71 292.87"/><polygon class="i" points="86.86 224.24 82.79 234.19 86.86 231.83 90.92 234.19 86.86 224.24"/><polygon class="i" points="111.77 292.87 101.82 296.94 104.18 292.87 101.82 288.81 111.77 292.87"/></g><g><polyline class="b" points="234.94 231.3 234.94 292.87 225.26 292.87"/><polygon class="i" points="234.94 224.24 230.88 234.19 234.94 231.83 239.01 234.19 234.94 224.24"/><polygon class="i" points="218.2 292.87 228.15 288.81 225.79 292.87 228.15 296.94 218.2 292.87"/></g><g><line class="b" x1="164.98" y1="317.08" x2="164.98" y2="388.75"/><polygon class="i" points="164.98 310.02 160.92 319.97 164.98 317.61 169.05 319.97 164.98 310.02"/><polygon class="i" points="164.98 395.81 160.92 385.86 164.98 388.22 169.05 385.86 164.98 395.81"/></g><g><line class="b" x1="225.26" y1="301.56" x2="364.78" y2="301.56"/><polygon class="i" points="218.2 301.56 228.15 305.63 225.79 301.56 228.15 297.5 218.2 301.56"/><polygon class="i" points="371.84 301.56 361.89 305.63 364.25 301.56 361.89 297.5 371.84 301.56"/></g></svg>