<?xml version="1.0" encoding="UTF-8"?><svg id="a" xmlns="http://www.w3.org/2000/svg" viewBox="0 0 593.29 220.62"><defs><style>.b,.c,.d{fill:none;stroke-miterlimit:10;}.b,.d{stroke:#231f20;}.c{stroke:#405daa;}.c,.d{stroke-width:.5px;}.e{fill:#405daa;}.f{fill:#231f20;}</style></defs><g><path class="e" d="m19.28,45.82h2.31v7.08c0,.79-.19,1.49-.57,2.09s-.91,1.06-1.58,1.39c-.68.33-1.47.5-2.37.5s-1.7-.17-2.38-.5c-.68-.33-1.21-.8-1.58-1.39-.38-.6-.56-1.29-.56-2.09v-7.08h2.31v6.89c0,.42.09.79.27,1.11.18.32.44.58.78.76.33.18.72.28,1.17.28s.84-.09,1.17-.28.59-.44.77-.76c.18-.32.27-.69.27-1.11v-6.89Z"/><path class="e" d="m29.34,50.88l-2.08.13c-.04-.18-.11-.34-.23-.48s-.27-.26-.46-.35c-.19-.09-.42-.13-.68-.13-.35,0-.65.07-.89.22-.24.15-.36.34-.36.59,0,.2.08.36.23.5.16.14.42.24.8.33l1.48.3c.79.16,1.39.43,1.78.79s.59.84.59,1.43c0,.54-.16,1.01-.47,1.41-.31.41-.74.72-1.29.95-.55.23-1.17.34-1.88.34-1.08,0-1.94-.23-2.59-.68-.64-.45-1.02-1.07-1.13-1.85l2.23-.12c.07.33.23.58.49.75.26.17.59.26,1,.26s.72-.08.96-.23.37-.35.37-.6c0-.21-.09-.38-.26-.51-.17-.13-.43-.24-.79-.31l-1.42-.28c-.8-.16-1.39-.44-1.78-.83-.39-.39-.58-.9-.58-1.51,0-.53.14-.98.43-1.36.29-.38.69-.67,1.21-.88.52-.21,1.13-.31,1.83-.31,1.03,0,1.85.22,2.44.66.59.44.94,1.03,1.04,1.78Z"/><path class="e" d="m33.79,56.89c-.84,0-1.57-.17-2.17-.51s-1.07-.83-1.4-1.46c-.33-.63-.49-1.38-.49-2.24s.16-1.58.49-2.22c.33-.64.79-1.13,1.38-1.49.59-.35,1.29-.53,2.1-.53.54,0,1.04.09,1.51.26.47.17.88.43,1.22.78.35.34.62.78.82,1.3s.29,1.13.29,1.82v.62h-6.91v-1.41h4.77c0-.33-.07-.62-.21-.87-.14-.25-.34-.45-.59-.59-.25-.14-.54-.22-.87-.22s-.65.08-.91.24-.47.37-.62.63c-.15.26-.23.56-.23.88v1.34c0,.4.08.75.23,1.05.15.29.37.52.64.68.28.16.61.24.99.24.25,0,.48-.04.69-.11.21-.07.39-.18.54-.32.15-.14.26-.32.34-.52l2.1.14c-.11.5-.32.94-.65,1.32-.33.38-.75.67-1.27.87-.52.21-1.11.31-1.79.31Z"/><path class="e" d="m38.13,56.73v-8.18h2.2v1.43h.09c.15-.51.4-.89.75-1.15.35-.26.76-.39,1.21-.39.11,0,.24,0,.37.02.13.01.25.03.35.06v2.01c-.11-.03-.25-.06-.44-.08-.19-.02-.36-.04-.52-.04-.33,0-.63.07-.89.22-.26.14-.47.34-.62.6-.15.25-.23.55-.23.88v4.63h-2.27Z"/><path class="e" d="m48.28,45.82v10.91h-2.31v-10.91h2.31Z"/></g><rect class="c" x=".25" y="27.42" width="60.33" height="44.65" rx="4.29" ry="4.29"/><g><path class="e" d="m17.62,119.97h2.31v7.08c0,.79-.19,1.49-.57,2.09-.38.6-.91,1.06-1.58,1.39s-1.47.5-2.37.5-1.7-.17-2.38-.5-1.21-.8-1.58-1.39-.56-1.29-.56-2.09v-7.08h2.31v6.89c0,.42.09.79.27,1.11.18.32.44.58.78.76.33.18.72.28,1.17.28s.84-.09,1.17-.28.59-.44.77-.76c.18-.32.27-.69.27-1.11v-6.89Z"/><path class="e" d="m27.69,125.03l-2.08.13c-.04-.18-.11-.34-.23-.48s-.27-.26-.46-.35-.42-.13-.68-.13c-.35,0-.65.07-.89.22-.24.15-.36.34-.36.59,0,.2.08.36.23.5.16.14.42.24.8.33l1.48.3c.8.16,1.39.43,1.78.79s.59.84.59,1.43c0,.54-.16,1.01-.47,1.41-.31.41-.74.72-1.29.95-.55.23-1.17.34-1.88.34-1.08,0-1.94-.23-2.59-.68-.64-.45-1.02-1.07-1.13-1.85l2.23-.12c.07.33.23.58.49.75.26.17.59.26,1,.26s.72-.08.96-.23.37-.35.37-.6c0-.21-.09-.38-.26-.51-.17-.13-.43-.24-.79-.31l-1.42-.28c-.8-.16-1.39-.44-1.78-.83-.39-.39-.58-.9-.58-1.51,0-.53.14-.98.43-1.36.29-.38.69-.67,1.21-.88.52-.21,1.13-.31,1.83-.31,1.03,0,1.85.22,2.44.66.59.44.94,1.03,1.04,1.78Z"/><path class="e" d="m32.14,131.04c-.84,0-1.57-.17-2.17-.51s-1.07-.83-1.4-1.46c-.33-.63-.49-1.38-.49-2.24s.16-1.58.49-2.22.79-1.13,1.38-1.49c.59-.35,1.29-.53,2.1-.53.54,0,1.04.09,1.51.26.47.17.88.43,1.23.78.35.34.62.78.82,1.3s.29,1.13.29,1.82v.62h-6.91v-1.41h4.77c0-.33-.07-.62-.21-.87-.14-.25-.34-.45-.59-.59-.25-.14-.54-.22-.87-.22s-.65.08-.91.24-.47.37-.62.63-.23.56-.23.88v1.34c0,.4.08.75.23,1.05.15.29.36.52.64.68.28.16.61.24.99.24.25,0,.48-.04.69-.11s.39-.18.54-.32c.15-.14.26-.32.34-.52l2.1.14c-.11.5-.32.94-.65,1.32s-.75.67-1.27.87c-.52.21-1.11.31-1.79.31Z"/><path class="e" d="m36.47,130.88v-8.18h2.2v1.43h.09c.15-.51.4-.89.75-1.15.35-.26.76-.39,1.21-.39.11,0,.24,0,.37.02.13.01.25.03.35.06v2.01c-.11-.03-.25-.06-.44-.08-.19-.02-.36-.04-.52-.04-.33,0-.63.07-.89.22-.26.14-.47.34-.62.6-.15.25-.23.55-.23.88v4.63h-2.27Z"/><path class="e" d="m46.63,119.97v10.91h-2.31v-10.91h2.31Z"/><path class="e" d="m49.94,119.97v10.91h-2.31v-10.91h2.31Z"/></g><rect class="c" x=".25" y="101.57" width="60.33" height="44.65" rx="4.29" ry="4.29"/><g><path class="e" d="m15.97,194.12h2.31v7.08c0,.79-.19,1.49-.57,2.09-.38.6-.91,1.06-1.58,1.39s-1.47.5-2.37.5-1.7-.17-2.38-.5-1.21-.8-1.58-1.39-.56-1.29-.56-2.09v-7.08h2.31v6.89c0,.42.09.79.27,1.11.18.32.44.58.78.76.33.18.72.28,1.17.28s.84-.09,1.17-.28.59-.44.77-.76c.18-.32.27-.69.27-1.11v-6.89Z"/><path class="e" d="m26.03,199.18l-2.08.13c-.04-.18-.11-.34-.23-.48s-.27-.26-.46-.35-.42-.13-.68-.13c-.35,0-.65.07-.89.22-.24.15-.36.34-.36.59,0,.2.08.36.23.5.16.14.42.24.8.33l1.48.3c.8.16,1.39.43,1.78.79s.59.84.59,1.43c0,.54-.16,1.01-.47,1.41-.31.41-.74.72-1.29.95-.55.23-1.17.34-1.88.34-1.08,0-1.94-.23-2.59-.68-.64-.45-1.02-1.07-1.13-1.85l2.23-.12c.07.33.23.58.49.75.26.17.59.26,1,.26s.72-.08.96-.23.37-.35.37-.6c0-.21-.09-.38-.26-.51-.17-.13-.43-.24-.79-.31l-1.42-.28c-.8-.16-1.39-.44-1.78-.83-.39-.39-.58-.9-.58-1.51,0-.53.14-.98.43-1.36.29-.38.69-.67,1.21-.88.52-.21,1.13-.31,1.83-.31,1.03,0,1.85.22,2.44.66.59.44.94,1.03,1.04,1.78Z"/><path class="e" d="m30.48,205.19c-.84,0-1.57-.17-2.17-.51s-1.07-.83-1.4-1.46c-.33-.63-.49-1.38-.49-2.24s.16-1.58.49-2.22.79-1.13,1.38-1.49c.59-.35,1.29-.53,2.1-.53.54,0,1.04.09,1.51.26.47.17.88.43,1.23.78.35.34.62.78.82,1.3s.29,1.13.29,1.82v.62h-6.91v-1.41h4.77c0-.33-.07-.62-.21-.87-.14-.25-.34-.45-.59-.59-.25-.14-.54-.22-.87-.22s-.65.08-.91.24-.47.37-.62.63-.23.56-.23.88v1.34c0,.4.08.75.23,1.05.15.29.36.52.64.68.28.16.61.24.99.24.25,0,.48-.04.69-.11s.39-.18.54-.32c.15-.14.26-.32.34-.52l2.1.14c-.11.5-.32.94-.65,1.32s-.75.67-1.27.87c-.52.21-1.11.31-1.79.31Z"/><path class="e" d="m34.82,205.03v-8.18h2.2v1.43h.09c.15-.51.4-.89.75-1.15.35-.26.76-.39,1.21-.39.11,0,.24,0,.37.02.13.01.25.03.35.06v2.01c-.11-.03-.25-.06-.44-.08-.19-.02-.36-.04-.52-.04-.33,0-.63.07-.89.22-.26.14-.47.34-.62.6-.15.25-.23.55-.23.88v4.63h-2.27Z"/><path class="e" d="m44.98,194.12v10.91h-2.31v-10.91h2.31Z"/><path class="e" d="m48.28,194.12v10.91h-2.31v-10.91h2.31Z"/><path class="e" d="m51.59,194.12v10.91h-2.31v-10.91h2.31Z"/></g><rect class="c" x=".25" y="175.72" width="60.33" height="44.65" rx="4.29" ry="4.29"/><g><path class="f" d="m181.59,85.42c-.07-.26-.18-.49-.31-.69-.14-.2-.3-.37-.49-.51-.19-.14-.41-.25-.66-.32-.25-.07-.52-.11-.82-.11-.56,0-1.05.14-1.47.42s-.75.68-.98,1.21-.35,1.17-.35,1.93.12,1.41.35,1.94c.23.53.56.94.98,1.22.42.28.92.42,1.5.42.52,0,.97-.09,1.34-.28s.65-.45.85-.79.3-.74.3-1.21l.47.07h-2.81v-1.74h4.56v1.37c0,.96-.2,1.78-.61,2.47-.4.69-.96,1.22-1.67,1.59-.71.37-1.52.56-2.44.56-1.02,0-1.92-.23-2.7-.68-.77-.45-1.38-1.1-1.81-1.93-.43-.84-.65-1.83-.65-2.98,0-.88.13-1.67.39-2.37s.62-1.28,1.08-1.77c.47-.48,1.01-.85,1.62-1.1.62-.25,1.29-.38,2.01-.38.62,0,1.19.09,1.73.27.53.18,1.01.43,1.42.76.41.33.75.71,1.01,1.16s.43.94.51,1.48h-2.34Z"/><path class="f" d="m184.83,92.81v-8.18h2.2v1.43h.09c.15-.51.4-.89.75-1.15.35-.26.76-.39,1.21-.39.11,0,.24,0,.37.02.13.01.25.03.35.06v2.01c-.11-.03-.25-.06-.44-.08-.19-.02-.36-.04-.52-.04-.33,0-.63.07-.89.22-.26.14-.47.34-.62.6-.15.25-.23.55-.23.88v4.63h-2.27Z"/><path class="f" d="m193.37,92.97c-.83,0-1.54-.18-2.14-.53-.6-.35-1.07-.85-1.39-1.48-.33-.63-.49-1.37-.49-2.21s.16-1.58.49-2.22.79-1.13,1.39-1.48c.6-.35,1.32-.53,2.14-.53s1.54.18,2.14.53c.6.35,1.07.85,1.39,1.48s.49,1.37.49,2.22-.16,1.57-.49,2.21c-.33.63-.79,1.13-1.39,1.48-.6.35-1.32.53-2.14.53Zm.01-1.76c.38,0,.69-.11.94-.32s.44-.51.57-.88c.13-.37.19-.8.19-1.27s-.06-.9-.19-1.27c-.13-.37-.32-.67-.57-.88s-.57-.33-.94-.33-.7.11-.96.33-.45.51-.58.88c-.13.37-.19.8-.19,1.27s.06.9.19,1.27c.13.37.32.67.58.88s.58.32.96.32Z"/><path class="f" d="m203.22,89.32v-4.7h2.27v8.18h-2.18v-1.49h-.08c-.18.48-.49.87-.92,1.16s-.95.44-1.56.44c-.55,0-1.03-.12-1.44-.37-.42-.25-.74-.6-.97-1.06s-.35-1.01-.35-1.65v-5.21h2.27v4.8c0,.48.13.86.39,1.15.26.28.6.42,1.03.42.27,0,.53-.06.77-.19.24-.13.43-.31.58-.56.15-.25.22-.56.22-.92Z"/><path class="f" d="m206.41,95.88v-11.25h2.24v1.37h.1c.1-.22.24-.44.43-.67.19-.23.44-.42.75-.58.31-.15.69-.23,1.15-.23.6,0,1.15.16,1.65.47.5.31.91.78,1.21,1.4.3.62.45,1.4.45,2.34s-.15,1.68-.44,2.31c-.29.63-.69,1.1-1.19,1.42-.5.32-1.06.48-1.69.48-.44,0-.81-.07-1.12-.22s-.56-.33-.75-.55-.34-.45-.45-.67h-.07v4.38h-2.27Zm2.22-7.16c0,.49.07.91.2,1.27.13.36.33.64.59.84.26.2.57.3.93.3s.68-.1.94-.31.45-.49.58-.85c.13-.36.2-.78.2-1.26s-.07-.89-.2-1.25c-.13-.36-.33-.64-.58-.84-.25-.2-.57-.3-.94-.3s-.68.1-.93.29-.45.47-.58.83c-.13.36-.2.78-.2,1.27Z"/><path class="f" d="m222.29,81.9v10.91h-2.31v-8.72h-.06l-2.5,1.57v-2.05l2.7-1.71h2.17Z"/></g><rect class="d" x="167.67" y="64.5" width="60.33" height="44.65" rx="4.29" ry="4.29"/><g><path class="f" d="m179.67,159.31c-.07-.26-.18-.49-.31-.69-.14-.2-.3-.37-.49-.51-.19-.14-.41-.25-.66-.32-.25-.07-.52-.11-.82-.11-.56,0-1.05.14-1.47.42s-.75.68-.98,1.21-.35,1.17-.35,1.93.12,1.41.35,1.94c.23.53.56.94.98,1.22.42.28.92.42,1.5.42.52,0,.97-.09,1.34-.28s.65-.45.85-.79.3-.74.3-1.21l.47.07h-2.81v-1.74h4.56v1.37c0,.96-.2,1.78-.61,2.47-.4.69-.96,1.22-1.67,1.59-.71.37-1.52.56-2.44.56-1.02,0-1.92-.23-2.7-.68-.77-.45-1.38-1.1-1.81-1.93-.43-.84-.65-1.83-.65-2.98,0-.88.13-1.67.39-2.37s.62-1.28,1.08-1.77c.47-.48,1.01-.85,1.62-1.1.62-.25,1.29-.38,2.01-.38.62,0,1.19.09,1.73.27.53.18,1.01.43,1.42.76.41.33.75.71,1.01,1.16s.43.94.51,1.48h-2.34Z"/><path class="f" d="m182.9,166.69v-8.18h2.2v1.43h.09c.15-.51.4-.89.75-1.15.35-.26.76-.39,1.21-.39.11,0,.24,0,.37.02.13.01.25.03.35.06v2.01c-.11-.03-.25-.06-.44-.08-.19-.02-.36-.04-.52-.04-.33,0-.63.07-.89.22-.26.14-.47.34-.62.6-.15.25-.23.55-.23.88v4.63h-2.27Z"/><path class="f" d="m191.44,166.85c-.83,0-1.54-.18-2.14-.53-.6-.35-1.07-.85-1.39-1.48-.33-.63-.49-1.37-.49-2.21s.16-1.58.49-2.22.79-1.13,1.39-1.48c.6-.35,1.32-.53,2.14-.53s1.54.18,2.14.53c.6.35,1.07.85,1.39,1.48s.49,1.37.49,2.22-.16,1.57-.49,2.21c-.33.63-.79,1.13-1.39,1.48-.6.35-1.32.53-2.14.53Zm.01-1.76c.38,0,.69-.11.94-.32s.44-.51.57-.88c.13-.37.19-.8.19-1.27s-.06-.9-.19-1.27c-.13-.37-.32-.67-.57-.88s-.57-.33-.94-.33-.7.11-.96.33-.45.51-.58.88c-.13.37-.19.8-.19,1.27s.06.9.19,1.27c.13.37.32.67.58.88s.58.32.96.32Z"/><path class="f" d="m201.3,163.21v-4.7h2.27v8.18h-2.18v-1.49h-.08c-.18.48-.49.87-.92,1.16s-.95.44-1.56.44c-.55,0-1.03-.12-1.44-.37-.42-.25-.74-.6-.97-1.06s-.35-1.01-.35-1.65v-5.21h2.27v4.8c0,.48.13.86.39,1.15.26.28.6.42,1.03.42.27,0,.53-.06.77-.19.24-.13.43-.31.58-.56.15-.25.22-.56.22-.92Z"/><path class="f" d="m204.48,169.76v-11.25h2.24v1.37h.1c.1-.22.24-.44.43-.67.19-.23.44-.42.75-.58.31-.15.69-.23,1.15-.23.6,0,1.15.16,1.65.47s.91.78,1.21,1.4c.3.62.45,1.4.45,2.34s-.15,1.68-.44,2.31c-.29.63-.69,1.1-1.19,1.42-.5.32-1.06.48-1.69.48-.44,0-.81-.07-1.12-.22-.31-.15-.56-.33-.75-.55s-.34-.45-.45-.67h-.07v4.38h-2.27Zm2.22-7.16c0,.49.07.91.2,1.27.13.36.33.64.59.84.26.2.57.3.93.3s.68-.1.94-.31c.26-.2.45-.49.58-.85.13-.36.2-.78.2-1.26s-.07-.89-.2-1.25c-.13-.36-.32-.64-.58-.84-.26-.2-.57-.3-.94-.3s-.68.1-.93.29-.45.47-.58.83c-.13.36-.2.78-.2,1.27Z"/><path class="f" d="m215.62,166.69v-1.66l3.88-3.6c.33-.32.61-.61.83-.86s.4-.51.51-.75.18-.51.18-.8c0-.32-.07-.6-.22-.83s-.34-.41-.6-.54c-.25-.13-.54-.19-.86-.19s-.62.07-.87.2c-.25.13-.44.33-.58.58-.14.25-.2.55-.2.9h-2.19c0-.71.16-1.33.48-1.86s.78-.93,1.36-1.22c.58-.29,1.25-.43,2.01-.43s1.46.14,2.04.41c.58.28,1.03.66,1.36,1.14s.48,1.04.48,1.67c0,.41-.08.82-.24,1.22-.16.4-.45.85-.86,1.33s-.99,1.07-1.74,1.76l-1.59,1.56v.07h4.58v1.89h-7.78Z"/></g><rect class="d" x="167.67" y="138.64" width="60.33" height="44.65" rx="4.29" ry="4.29"/><g><path class="e" d="m323.14,56.73v-10.91h4.3c.82,0,1.53.15,2.11.44.58.29,1.03.71,1.34,1.24.31.53.46,1.16.46,1.88s-.16,1.35-.47,1.87-.76.92-1.36,1.2c-.59.28-1.31.42-2.14.42h-2.88v-1.85h2.51c.44,0,.81-.06,1.1-.18.29-.12.51-.3.65-.54s.22-.54.22-.9-.07-.67-.22-.92c-.14-.25-.36-.44-.66-.57s-.66-.19-1.11-.19h-1.56v9.02h-2.31Zm5.89-4.96l2.71,4.96h-2.55l-2.65-4.96h2.49Z"/><path class="e" d="m335.6,56.89c-.83,0-1.54-.18-2.14-.53-.6-.35-1.07-.85-1.39-1.48-.33-.63-.49-1.37-.49-2.21s.16-1.58.49-2.22c.33-.63.79-1.13,1.39-1.48.6-.35,1.32-.53,2.14-.53s1.54.18,2.14.53c.6.35,1.07.85,1.39,1.48.33.63.49,1.37.49,2.22s-.16,1.57-.49,2.21c-.33.63-.79,1.13-1.39,1.48-.6.35-1.32.53-2.14.53Zm.01-1.76c.38,0,.69-.11.94-.32s.44-.51.57-.88c.13-.37.19-.8.19-1.27s-.07-.9-.19-1.27c-.13-.37-.32-.67-.57-.88s-.57-.33-.94-.33-.7.11-.96.33c-.26.22-.45.51-.58.88-.13.37-.19.8-.19,1.27s.06.9.19,1.27.32.67.58.88c.26.21.58.32.96.32Z"/><path class="e" d="m342.48,45.82v10.91h-2.27v-10.91h2.27Z"/><path class="e" d="m347.12,56.89c-.84,0-1.57-.17-2.17-.51s-1.07-.83-1.4-1.46c-.33-.63-.49-1.38-.49-2.24s.16-1.58.49-2.22c.33-.64.79-1.13,1.38-1.49.59-.35,1.29-.53,2.1-.53.54,0,1.04.09,1.51.26.47.17.88.43,1.22.78.35.34.62.78.82,1.3s.29,1.13.29,1.82v.62h-6.91v-1.41h4.77c0-.33-.07-.62-.21-.87-.14-.25-.34-.45-.59-.59-.25-.14-.54-.22-.87-.22s-.65.08-.91.24-.47.37-.62.63c-.15.26-.23.56-.23.88v1.34c0,.4.08.75.23,1.05.15.29.37.52.64.68.28.16.61.24.99.24.25,0,.48-.04.69-.11.21-.07.39-.18.54-.32.15-.14.26-.32.34-.52l2.1.14c-.11.5-.32.94-.65,1.32-.33.38-.75.67-1.27.87-.52.21-1.11.31-1.79.31Z"/><path class="e" d="m355.96,56.73h-2.47l3.77-10.91h2.97l3.76,10.91h-2.47l-2.73-8.42h-.09l-2.74,8.42Zm-.16-4.29h5.84v1.8h-5.84v-1.8Z"/><path class="e" d="m365.68,56.87c-.35,0-.65-.12-.9-.38-.25-.25-.38-.55-.38-.9s.12-.65.38-.9c.25-.25.55-.37.9-.37s.64.12.9.37c.25.25.38.55.38.9,0,.23-.06.45-.18.64-.12.19-.27.35-.47.46-.19.12-.4.17-.63.17Z"/><path class="e" d="m374.71,45.82v10.91h-2.31v-8.72h-.06l-2.5,1.57v-2.05l2.7-1.71h2.17Z"/></g><rect class="c" x="316.27" y="27.42" width="66.57" height="44.65" rx="4.29" ry="4.29"/><g><path class="e" d="m323.36,203.92v-10.91h4.3c.82,0,1.53.15,2.11.44s1.03.71,1.34,1.24c.31.53.46,1.16.46,1.88s-.16,1.35-.47,1.87-.76.92-1.36,1.2c-.59.28-1.31.42-2.14.42h-2.88v-1.85h2.51c.44,0,.81-.06,1.1-.18.29-.12.51-.3.65-.54.14-.24.22-.54.22-.9s-.07-.67-.22-.92c-.14-.25-.36-.44-.65-.57s-.66-.19-1.11-.19h-1.56v9.02h-2.31Zm5.89-4.96l2.71,4.96h-2.55l-2.65-4.96h2.49Z"/><path class="e" d="m335.82,204.08c-.83,0-1.54-.18-2.14-.53s-1.07-.85-1.39-1.48c-.33-.63-.49-1.37-.49-2.21s.16-1.58.49-2.22c.33-.63.79-1.13,1.39-1.48.6-.35,1.32-.53,2.14-.53s1.54.18,2.14.53c.6.35,1.07.85,1.39,1.48.33.63.49,1.37.49,2.22s-.16,1.57-.49,2.21c-.33.63-.79,1.13-1.39,1.48s-1.32.53-2.14.53Zm.01-1.76c.38,0,.69-.11.94-.32s.44-.51.57-.88.19-.8.19-1.27-.06-.9-.19-1.27c-.13-.37-.32-.67-.57-.88s-.57-.33-.94-.33-.7.11-.96.33c-.26.22-.45.51-.58.88-.13.37-.19.8-.19,1.27s.06.9.19,1.27c.13.37.32.67.58.88.26.21.58.32.96.32Z"/><path class="e" d="m342.7,193.02v10.91h-2.27v-10.91h2.27Z"/><path class="e" d="m347.34,204.08c-.84,0-1.57-.17-2.17-.51s-1.07-.83-1.4-1.46c-.33-.63-.49-1.38-.49-2.24s.16-1.58.49-2.22c.33-.64.79-1.13,1.38-1.49.59-.35,1.29-.53,2.1-.53.54,0,1.04.09,1.51.26.47.17.88.43,1.23.78s.62.78.82,1.3.29,1.13.29,1.82v.62h-6.91v-1.41h4.77c0-.33-.07-.62-.21-.87-.14-.25-.34-.45-.59-.59s-.54-.22-.87-.22-.65.08-.91.24-.47.37-.62.63c-.15.26-.23.56-.23.88v1.34c0,.4.08.75.23,1.05.15.29.36.52.64.68.28.16.61.24.99.24.25,0,.48-.04.69-.11.21-.07.39-.18.54-.32.15-.14.26-.32.34-.52l2.1.14c-.11.5-.32.94-.65,1.32-.33.38-.75.67-1.27.87-.52.21-1.11.31-1.79.31Z"/><path class="e" d="m363.92,196.83h-2.33c-.04-.3-.13-.57-.26-.81-.13-.24-.3-.44-.51-.6-.21-.17-.44-.29-.71-.38-.27-.09-.56-.13-.87-.13-.56,0-1.06.14-1.47.42-.42.28-.74.68-.98,1.21-.23.53-.35,1.17-.35,1.93s.12,1.43.35,1.96.56.93.98,1.2.9.41,1.45.41c.31,0,.6-.04.86-.12.26-.08.5-.2.71-.36s.38-.35.51-.58c.14-.23.23-.49.29-.78h2.33c-.06.51-.21.99-.45,1.46-.24.46-.56.88-.96,1.24-.4.36-.88.65-1.44.86s-1.18.32-1.88.32c-.97,0-1.84-.22-2.61-.66-.77-.44-1.37-1.08-1.81-1.91-.44-.83-.66-1.84-.66-3.03s.22-2.2.67-3.04c.45-.83,1.05-1.47,1.82-1.91s1.63-.66,2.59-.66c.63,0,1.22.09,1.76.27.54.18,1.02.44,1.44.78s.76.75,1.03,1.24c.26.49.43,1.05.51,1.68Z"/><path class="e" d="m365.96,204.06c-.35,0-.65-.12-.9-.38-.25-.25-.38-.55-.38-.9s.12-.65.38-.9c.25-.25.55-.37.9-.37s.64.12.9.37c.25.25.38.55.38.9,0,.23-.06.45-.18.64-.12.19-.27.35-.47.46-.19.12-.4.17-.63.17Z"/><path class="e" d="m374.99,193.02v10.91h-2.31v-8.72h-.06l-2.5,1.57v-2.05l2.7-1.71h2.17Z"/></g><rect class="c" x="316.27" y="175.72" width="66.57" height="44.65" rx="4.29" ry="4.29"/><g><path class="e" d="m322.34,106.62v-10.91h4.3c.82,0,1.53.15,2.11.44s1.03.71,1.34,1.24c.31.53.46,1.16.46,1.88s-.16,1.35-.47,1.87-.76.92-1.36,1.2c-.59.28-1.31.42-2.14.42h-2.88v-1.85h2.51c.44,0,.81-.06,1.1-.18.29-.12.51-.3.65-.54.14-.24.22-.54.22-.9s-.07-.67-.22-.92c-.14-.25-.36-.44-.65-.57s-.66-.19-1.11-.19h-1.56v9.02h-2.31Zm5.89-4.96l2.71,4.96h-2.55l-2.65-4.96h2.49Z"/><path class="e" d="m334.8,106.78c-.83,0-1.54-.18-2.14-.53s-1.07-.85-1.39-1.48c-.33-.63-.49-1.37-.49-2.21s.16-1.58.49-2.22c.33-.63.79-1.13,1.39-1.48.6-.35,1.32-.53,2.14-.53s1.54.18,2.14.53c.6.35,1.07.85,1.39,1.48.33.63.49,1.37.49,2.22s-.16,1.57-.49,2.21c-.33.63-.79,1.13-1.39,1.48s-1.32.53-2.14.53Zm.01-1.76c.38,0,.69-.11.94-.32s.44-.51.57-.88.19-.8.19-1.27-.06-.9-.19-1.27c-.13-.37-.32-.67-.57-.88s-.57-.33-.94-.33-.7.11-.96.33c-.26.22-.45.51-.58.88-.13.37-.19.8-.19,1.27s.06.9.19,1.27c.13.37.32.67.58.88.26.21.58.32.96.32Z"/><path class="e" d="m341.68,95.71v10.91h-2.27v-10.91h2.27Z"/><path class="e" d="m346.32,106.78c-.84,0-1.57-.17-2.17-.51s-1.07-.83-1.4-1.46c-.33-.63-.49-1.38-.49-2.24s.16-1.58.49-2.22c.33-.64.79-1.13,1.38-1.49.59-.35,1.29-.53,2.1-.53.54,0,1.04.09,1.51.26.47.17.88.43,1.23.78s.62.78.82,1.3.29,1.13.29,1.82v.62h-6.91v-1.41h4.77c0-.33-.07-.62-.21-.87-.14-.25-.34-.45-.59-.59s-.54-.22-.87-.22-.65.08-.91.24-.47.37-.62.63c-.15.26-.23.56-.23.88v1.34c0,.4.08.75.23,1.05.15.29.36.52.64.68.28.16.61.24.99.24.25,0,.48-.04.69-.11.21-.07.39-.18.54-.32.15-.14.26-.32.34-.52l2.1.14c-.11.5-.32.94-.65,1.32-.33.38-.75.67-1.27.87-.52.21-1.11.31-1.79.31Z"/><path class="e" d="m355.15,106.62h-2.47l3.77-10.91h2.97l3.76,10.91h-2.47l-2.73-8.42h-.08l-2.74,8.42Zm-.15-4.29h5.84v1.8h-5.84v-1.8Z"/><path class="e" d="m364.88,106.76c-.35,0-.65-.12-.9-.38s-.38-.55-.38-.9.12-.65.38-.9c.25-.25.55-.37.9-.37s.64.12.89.37c.26.25.38.55.38.9,0,.23-.06.45-.18.64s-.27.35-.47.46c-.19.12-.4.17-.63.17Z"/><path class="e" d="m369.16,106.62v-1.66l3.88-3.6c.33-.32.61-.61.83-.86s.4-.51.51-.75.18-.51.18-.8c0-.32-.07-.6-.22-.83s-.34-.41-.6-.54-.54-.19-.86-.19-.62.07-.87.2c-.25.13-.44.33-.58.58s-.2.55-.2.9h-2.19c0-.71.16-1.33.48-1.86.32-.53.78-.93,1.36-1.22.58-.29,1.25-.43,2.01-.43s1.46.14,2.04.41,1.03.66,1.36,1.14.49,1.04.49,1.67c0,.41-.08.82-.24,1.22-.16.4-.45.85-.86,1.33-.41.49-.99,1.07-1.74,1.76l-1.59,1.56v.07h4.58v1.89h-7.78Z"/></g><rect class="c" x="316.27" y="77.15" width="66.57" height="44.65" rx="4.29" ry="4.29"/><g><path class="e" d="m324.05,154.5v-10.91h4.3c.82,0,1.53.15,2.11.44s1.03.71,1.34,1.24c.31.53.46,1.16.46,1.88s-.16,1.35-.47,1.87-.76.92-1.36,1.2c-.59.28-1.31.42-2.14.42h-2.88v-1.85h2.51c.44,0,.81-.06,1.1-.18.29-.12.51-.3.65-.54.14-.24.22-.54.22-.9s-.07-.67-.22-.92c-.14-.25-.36-.44-.65-.57s-.66-.19-1.11-.19h-1.56v9.02h-2.31Zm5.89-4.96l2.71,4.96h-2.55l-2.65-4.96h2.49Z"/><path class="e" d="m336.51,154.66c-.83,0-1.54-.18-2.14-.53s-1.07-.85-1.39-1.48c-.33-.63-.49-1.37-.49-2.21s.16-1.58.49-2.22c.33-.63.79-1.13,1.39-1.48.6-.35,1.32-.53,2.14-.53s1.54.18,2.14.53c.6.35,1.07.85,1.39,1.48.33.63.49,1.37.49,2.22s-.16,1.57-.49,2.21c-.33.63-.79,1.13-1.39,1.48s-1.32.53-2.14.53Zm.01-1.76c.38,0,.69-.11.94-.32s.44-.51.57-.88.19-.8.19-1.27-.06-.9-.19-1.27c-.13-.37-.32-.67-.57-.88s-.57-.33-.94-.33-.7.11-.96.33c-.26.22-.45.51-.58.88-.13.37-.19.8-.19,1.27s.06.9.19,1.27c.13.37.32.67.58.88.26.21.58.32.96.32Z"/><path class="e" d="m343.38,143.59v10.91h-2.27v-10.91h2.27Z"/><path class="e" d="m348.02,154.66c-.84,0-1.57-.17-2.17-.51s-1.07-.83-1.4-1.46c-.33-.63-.49-1.38-.49-2.24s.16-1.58.49-2.22c.33-.64.79-1.13,1.38-1.49.59-.35,1.29-.53,2.1-.53.54,0,1.04.09,1.51.26.47.17.88.43,1.23.78s.62.78.82,1.3.29,1.13.29,1.82v.62h-6.91v-1.41h4.77c0-.33-.07-.62-.21-.87-.14-.25-.34-.45-.59-.59s-.54-.22-.87-.22-.65.08-.91.24-.47.37-.62.63c-.15.26-.23.56-.23.88v1.34c0,.4.08.75.23,1.05.15.29.36.52.64.68.28.16.61.24.99.24.25,0,.48-.04.69-.11.21-.07.39-.18.54-.32.15-.14.26-.32.34-.52l2.1.14c-.11.5-.32.94-.65,1.32-.33.38-.75.67-1.27.87-.52.21-1.11.31-1.79.31Z"/><path class="e" d="m354.98,154.5v-10.91h4.37c.8,0,1.47.12,2.01.36.54.24.94.57,1.21.99s.4.91.4,1.45c0,.43-.08.8-.25,1.12-.17.32-.4.58-.7.79-.3.2-.63.35-1.01.43v.11c.42.02.81.13,1.17.35.36.22.66.52.89.91.23.39.34.85.34,1.39,0,.58-.14,1.09-.43,1.55-.29.45-.71.81-1.27,1.07-.56.26-1.24.39-2.06.39h-4.66Zm2.31-6.34h1.71c.32,0,.6-.06.84-.17.25-.11.44-.27.59-.48s.22-.45.22-.74c0-.39-.14-.71-.42-.95-.28-.24-.67-.36-1.19-.36h-1.75v2.7Zm0,4.46h1.88c.64,0,1.11-.12,1.41-.37s.44-.58.44-.99c0-.3-.07-.57-.22-.8s-.35-.41-.62-.54c-.27-.13-.59-.2-.96-.2h-1.93v2.9Z"/><path class="e" d="m365.28,154.64c-.35,0-.65-.12-.9-.38-.25-.25-.38-.55-.38-.9s.12-.65.38-.9c.25-.25.55-.37.9-.37s.64.12.9.37c.25.25.38.55.38.9,0,.23-.06.45-.18.64-.12.19-.27.35-.47.46-.19.12-.4.17-.63.17Z"/><path class="e" d="m374.31,143.59v10.91h-2.31v-8.72h-.06l-2.5,1.57v-2.05l2.7-1.71h2.17Z"/></g><rect class="c" x="316.27" y="126.29" width="66.57" height="44.65" rx="4.29" ry="4.29"/><rect class="d" x="473.54" y="27.42" width="119.5" height="44.65" rx="4.29" ry="4.29"/><rect class="d" x="473.54" y="101.57" width="119.5" height="44.65" rx="4.29" ry="4.29"/><rect class="d" x="473.54" y="175.72" width="119.5" height="44.65" rx="4.29" ry="4.29"/><g><path class="f" d="m484.93,45.98h2.84l3,7.33h.13l3-7.33h2.84v10.91h-2.24v-7.1h-.09l-2.82,7.05h-1.52l-2.82-7.07h-.09v7.13h-2.24v-10.91Z"/><path class="f" d="m498.85,47.66c-.34,0-.63-.11-.87-.34-.24-.22-.36-.5-.36-.81s.12-.58.36-.81c.24-.23.53-.34.87-.34s.63.11.87.34c.24.23.36.5.36.81s-.12.59-.36.81c-.24.23-.53.34-.87.34Zm-1.14,9.24v-8.18h2.27v8.18h-2.27Z"/><path class="f" d="m504.58,57.05c-.84,0-1.56-.18-2.16-.54-.6-.36-1.06-.85-1.39-1.49-.32-.64-.48-1.37-.48-2.19s.16-1.57.49-2.21.79-1.13,1.39-1.49c.6-.36,1.31-.54,2.14-.54.71,0,1.34.13,1.88.39.54.26.96.62,1.27,1.09s.49,1.02.52,1.65h-2.14c-.06-.41-.22-.74-.48-.99-.26-.25-.59-.38-1.01-.38-.35,0-.66.09-.92.28-.26.19-.46.47-.61.83s-.22.8-.22,1.32.07.97.22,1.33c.14.37.35.64.61.84s.57.29.92.29c.26,0,.49-.05.7-.16s.38-.26.52-.47c.14-.21.23-.45.27-.74h2.14c-.04.62-.21,1.17-.51,1.65-.3.47-.72.84-1.25,1.11-.53.27-1.16.4-1.89.4Z"/><path class="f" d="m508.8,56.89v-8.18h2.2v1.43h.08c.15-.51.4-.89.75-1.15.35-.26.76-.39,1.21-.39.11,0,.24,0,.37.02.13.01.25.03.35.06v2.01c-.11-.03-.25-.06-.44-.08-.19-.02-.36-.04-.52-.04-.33,0-.63.07-.89.22s-.47.34-.62.6c-.15.25-.23.55-.23.88v4.63h-2.27Z"/><path class="f" d="m517.34,57.05c-.83,0-1.54-.18-2.14-.53s-1.07-.85-1.39-1.48c-.33-.63-.49-1.37-.49-2.21s.16-1.58.49-2.22c.33-.63.79-1.13,1.39-1.48.6-.35,1.32-.53,2.14-.53s1.54.18,2.14.53c.6.35,1.07.85,1.39,1.48.33.63.49,1.37.49,2.22s-.16,1.57-.49,2.21c-.33.63-.79,1.13-1.39,1.48s-1.32.53-2.14.53Zm.01-1.76c.38,0,.69-.11.94-.32s.44-.51.57-.88.19-.8.19-1.27-.06-.9-.19-1.27c-.13-.37-.32-.67-.57-.88s-.57-.33-.94-.33-.7.11-.96.33c-.26.22-.45.51-.58.88-.13.37-.19.8-.19,1.27s.06.9.19,1.27c.13.37.32.67.58.88.26.21.58.32.96.32Z"/><path class="f" d="m528.76,51.05l-2.08.13c-.04-.18-.11-.34-.23-.48s-.27-.26-.46-.35c-.19-.09-.42-.13-.68-.13-.35,0-.65.07-.89.22-.24.15-.36.34-.36.59,0,.2.08.36.23.5.16.14.42.24.8.33l1.48.3c.8.16,1.39.43,1.78.79s.59.84.59,1.43c0,.54-.16,1.01-.47,1.41-.31.41-.74.72-1.29.95s-1.17.34-1.88.34c-1.08,0-1.95-.23-2.59-.68-.64-.45-1.02-1.07-1.13-1.85l2.23-.12c.07.33.23.58.49.75.26.17.59.26,1,.26s.72-.08.96-.23.37-.35.37-.6c0-.21-.09-.38-.26-.51-.17-.13-.43-.24-.79-.31l-1.42-.28c-.8-.16-1.39-.44-1.78-.83-.39-.39-.58-.9-.58-1.51,0-.53.14-.98.43-1.36s.69-.67,1.21-.88,1.13-.31,1.83-.31c1.03,0,1.85.22,2.44.66.59.44.94,1.03,1.04,1.78Z"/><path class="f" d="m533.2,57.05c-.84,0-1.57-.17-2.17-.51s-1.07-.83-1.4-1.46c-.33-.63-.49-1.38-.49-2.24s.16-1.58.49-2.22c.33-.64.79-1.13,1.38-1.49.59-.35,1.29-.53,2.1-.53.54,0,1.04.09,1.51.26.47.17.88.43,1.22.78.35.34.62.78.82,1.3s.29,1.13.29,1.82v.62h-6.91v-1.41h4.77c0-.33-.07-.62-.21-.87-.14-.25-.34-.45-.59-.59-.25-.14-.54-.22-.87-.22s-.65.08-.91.24-.47.37-.62.63c-.15.26-.23.56-.23.88v1.34c0,.4.08.75.23,1.05.15.29.37.52.64.68.28.16.61.24.99.24.25,0,.48-.04.69-.11.21-.07.39-.18.54-.32.15-.14.26-.32.34-.52l2.1.14c-.11.5-.32.94-.65,1.32-.33.38-.75.67-1.27.87-.52.21-1.11.31-1.79.31Z"/><path class="f" d="m537.54,56.89v-8.18h2.2v1.43h.09c.15-.51.4-.89.75-1.15.35-.26.76-.39,1.21-.39.11,0,.24,0,.37.02.13.01.25.03.35.06v2.01c-.11-.03-.25-.06-.44-.08-.19-.02-.36-.04-.52-.04-.33,0-.63.07-.89.22-.26.14-.47.34-.62.6-.15.25-.23.55-.23.88v4.63h-2.27Z"/><path class="f" d="m550.65,48.71l-2.86,8.18h-2.56l-2.86-8.18h2.4l1.7,5.85h.08l1.69-5.85h2.4Z"/><path class="f" d="m552.05,47.66c-.34,0-.63-.11-.87-.34-.24-.22-.36-.5-.36-.81s.12-.58.36-.81c.24-.23.53-.34.87-.34s.63.11.87.34c.24.23.36.5.36.81s-.12.59-.36.81c-.24.23-.53.34-.87.34Zm-1.14,9.24v-8.18h2.27v8.18h-2.27Z"/><path class="f" d="m557.79,57.05c-.84,0-1.56-.18-2.16-.54-.6-.36-1.06-.85-1.38-1.49s-.48-1.37-.48-2.19.16-1.57.49-2.21c.33-.63.79-1.13,1.39-1.49.6-.36,1.31-.54,2.14-.54.71,0,1.34.13,1.88.39s.96.62,1.27,1.09.48,1.02.52,1.65h-2.14c-.06-.41-.22-.74-.48-.99-.26-.25-.59-.38-1.01-.38-.35,0-.66.09-.92.28-.26.19-.46.47-.61.83s-.22.8-.22,1.32.07.97.22,1.33c.14.37.35.64.61.84.26.19.57.29.92.29.26,0,.49-.05.7-.16.21-.11.38-.26.52-.47.14-.21.23-.45.27-.74h2.14c-.04.62-.21,1.17-.51,1.65-.3.47-.72.84-1.25,1.11-.53.27-1.16.4-1.89.4Z"/><path class="f" d="m565.73,57.05c-.84,0-1.57-.17-2.17-.51s-1.07-.83-1.4-1.46c-.33-.63-.49-1.38-.49-2.24s.16-1.58.49-2.22c.33-.64.79-1.13,1.38-1.49.59-.35,1.29-.53,2.1-.53.54,0,1.04.09,1.51.26.47.17.88.43,1.23.78s.62.78.82,1.3.29,1.13.29,1.82v.62h-6.91v-1.41h4.77c0-.33-.07-.62-.21-.87-.14-.25-.34-.45-.59-.59s-.54-.22-.87-.22-.65.08-.91.24-.47.37-.62.63c-.15.26-.23.56-.23.88v1.34c0,.4.08.75.23,1.05.15.29.36.52.64.68.28.16.61.24.99.24.25,0,.48-.04.69-.11.21-.07.39-.18.54-.32.15-.14.26-.32.34-.52l2.1.14c-.11.5-.32.94-.65,1.32-.33.38-.75.67-1.27.87-.52.21-1.11.31-1.79.31Z"/><path class="f" d="m574.57,56.89h-2.47l3.77-10.91h2.97l3.76,10.91h-2.47l-2.73-8.42h-.09l-2.74,8.42Zm-.16-4.29h5.84v1.8h-5.84v-1.8Z"/></g><g><path class="f" d="m485.67,120.13h2.84l3,7.33h.13l3-7.33h2.84v10.91h-2.24v-7.1h-.09l-2.82,7.05h-1.52l-2.82-7.07h-.09v7.13h-2.24v-10.91Z"/><path class="f" d="m499.59,121.8c-.34,0-.63-.11-.87-.34-.24-.22-.36-.5-.36-.81s.12-.58.36-.81c.24-.23.53-.34.87-.34s.63.11.87.34c.24.23.36.5.36.81s-.12.59-.36.81c-.24.23-.53.34-.87.34Zm-1.14,9.24v-8.18h2.27v8.18h-2.27Z"/><path class="f" d="m505.33,131.2c-.84,0-1.56-.18-2.16-.54-.6-.36-1.06-.85-1.39-1.49-.32-.64-.48-1.37-.48-2.19s.16-1.57.49-2.21.79-1.13,1.39-1.49c.6-.36,1.31-.54,2.14-.54.71,0,1.34.13,1.88.39.54.26.96.62,1.27,1.09s.49,1.02.52,1.65h-2.14c-.06-.41-.22-.74-.48-.99-.26-.25-.59-.38-1.01-.38-.35,0-.66.09-.92.28-.26.19-.46.47-.61.83s-.22.8-.22,1.32.07.97.22,1.33c.14.37.35.64.61.84s.57.29.92.29c.26,0,.49-.05.7-.16s.38-.26.52-.47c.14-.21.23-.45.27-.74h2.14c-.04.62-.21,1.17-.51,1.65-.3.47-.72.84-1.25,1.11-.53.27-1.16.4-1.89.4Z"/><path class="f" d="m509.54,131.04v-8.18h2.2v1.43h.08c.15-.51.4-.89.75-1.15.35-.26.76-.39,1.21-.39.11,0,.24,0,.37.02.13.01.25.03.35.06v2.01c-.11-.03-.25-.06-.44-.08-.19-.02-.36-.04-.52-.04-.33,0-.63.07-.89.22s-.47.34-.62.6c-.15.25-.23.55-.23.88v4.63h-2.27Z"/><path class="f" d="m518.08,131.2c-.83,0-1.54-.18-2.14-.53s-1.07-.85-1.39-1.48c-.33-.63-.49-1.37-.49-2.21s.16-1.58.49-2.22c.33-.63.79-1.13,1.39-1.48.6-.35,1.32-.53,2.14-.53s1.54.18,2.14.53c.6.35,1.07.85,1.39,1.48.33.63.49,1.37.49,2.22s-.16,1.57-.49,2.21c-.33.63-.79,1.13-1.39,1.48s-1.32.53-2.14.53Zm.01-1.76c.38,0,.69-.11.94-.32s.44-.51.57-.88.19-.8.19-1.27-.06-.9-.19-1.27c-.13-.37-.32-.67-.57-.88s-.57-.33-.94-.33-.7.11-.96.33c-.26.22-.45.51-.58.88-.13.37-.19.8-.19,1.27s.06.9.19,1.27c.13.37.32.67.58.88.26.21.58.32.96.32Z"/><path class="f" d="m529.5,125.19l-2.08.13c-.04-.18-.11-.34-.23-.48s-.27-.26-.46-.35c-.19-.09-.42-.13-.68-.13-.35,0-.65.07-.89.22-.24.15-.36.34-.36.59,0,.2.08.36.23.5.16.14.42.24.8.33l1.48.3c.8.16,1.39.43,1.78.79s.59.84.59,1.43c0,.54-.16,1.01-.47,1.41-.31.41-.74.72-1.29.95s-1.17.34-1.88.34c-1.08,0-1.95-.23-2.59-.68-.64-.45-1.02-1.07-1.13-1.85l2.23-.12c.07.33.23.58.49.75.26.17.59.26,1,.26s.72-.08.96-.23.37-.35.37-.6c0-.21-.09-.38-.26-.51-.17-.13-.43-.24-.79-.31l-1.42-.28c-.8-.16-1.39-.44-1.78-.83-.39-.39-.58-.9-.58-1.51,0-.53.14-.98.43-1.36s.69-.67,1.21-.88,1.13-.31,1.83-.31c1.03,0,1.85.22,2.44.66.59.44.94,1.03,1.04,1.78Z"/><path class="f" d="m533.95,131.2c-.84,0-1.57-.17-2.17-.51s-1.07-.83-1.4-1.46c-.33-.63-.49-1.38-.49-2.24s.16-1.58.49-2.22c.33-.64.79-1.13,1.38-1.49.59-.35,1.29-.53,2.1-.53.54,0,1.04.09,1.51.26.47.17.88.43,1.22.78.35.34.62.78.82,1.3s.29,1.13.29,1.82v.62h-6.91v-1.41h4.77c0-.33-.07-.62-.21-.87-.14-.25-.34-.45-.59-.59-.25-.14-.54-.22-.87-.22s-.65.08-.91.24-.47.37-.62.63c-.15.26-.23.56-.23.88v1.34c0,.4.08.75.23,1.05.15.29.37.52.64.68.28.16.61.24.99.24.25,0,.48-.04.69-.11.21-.07.39-.18.54-.32.15-.14.26-.32.34-.52l2.1.14c-.11.5-.32.94-.65,1.32-.33.38-.75.67-1.27.87-.52.21-1.11.31-1.79.31Z"/><path class="f" d="m538.28,131.04v-8.18h2.2v1.43h.09c.15-.51.4-.89.75-1.15.35-.26.76-.39,1.21-.39.11,0,.24,0,.37.02.13.01.25.03.35.06v2.01c-.11-.03-.25-.06-.44-.08-.19-.02-.36-.04-.52-.04-.33,0-.63.07-.89.22-.26.14-.47.34-.62.6-.15.25-.23.55-.23.88v4.63h-2.27Z"/><path class="f" d="m551.4,122.86l-2.86,8.18h-2.56l-2.86-8.18h2.4l1.7,5.85h.08l1.69-5.85h2.4Z"/><path class="f" d="m552.8,121.8c-.34,0-.63-.11-.87-.34-.24-.22-.36-.5-.36-.81s.12-.58.36-.81c.24-.23.53-.34.87-.34s.63.11.87.34c.24.23.36.5.36.81s-.12.59-.36.81c-.24.23-.53.34-.87.34Zm-1.14,9.24v-8.18h2.27v8.18h-2.27Z"/><path class="f" d="m558.54,131.2c-.84,0-1.56-.18-2.16-.54-.6-.36-1.06-.85-1.38-1.49s-.48-1.37-.48-2.19.16-1.57.49-2.21c.33-.63.79-1.13,1.39-1.49.6-.36,1.31-.54,2.14-.54.71,0,1.34.13,1.88.39s.96.62,1.27,1.09.48,1.02.52,1.65h-2.14c-.06-.41-.22-.74-.48-.99-.26-.25-.59-.38-1.01-.38-.35,0-.66.09-.92.28-.26.19-.46.47-.61.83s-.22.8-.22,1.32.07.97.22,1.33c.14.37.35.64.61.84.26.19.57.29.92.29.26,0,.49-.05.7-.16.21-.11.38-.26.52-.47.14-.21.23-.45.27-.74h2.14c-.04.62-.21,1.17-.51,1.65-.3.47-.72.84-1.25,1.11-.53.27-1.16.4-1.89.4Z"/><path class="f" d="m566.48,131.2c-.84,0-1.57-.17-2.17-.51s-1.07-.83-1.4-1.46c-.33-.63-.49-1.38-.49-2.24s.16-1.58.49-2.22c.33-.64.79-1.13,1.38-1.49.59-.35,1.29-.53,2.1-.53.54,0,1.04.09,1.51.26.47.17.88.43,1.23.78s.62.78.82,1.3.29,1.13.29,1.82v.62h-6.91v-1.41h4.77c0-.33-.07-.62-.21-.87-.14-.25-.34-.45-.59-.59s-.54-.22-.87-.22-.65.08-.91.24-.47.37-.62.63c-.15.26-.23.56-.23.88v1.34c0,.4.08.75.23,1.05.15.29.36.52.64.68.28.16.61.24.99.24.25,0,.48-.04.69-.11.21-.07.39-.18.54-.32.15-.14.26-.32.34-.52l2.1.14c-.11.5-.32.94-.65,1.32-.33.38-.75.67-1.27.87-.52.21-1.11.31-1.79.31Z"/><path class="f" d="m573.44,131.04v-10.91h4.37c.8,0,1.47.12,2.01.36.54.24.94.57,1.21.99.27.42.41.91.41,1.45,0,.43-.08.8-.26,1.12-.17.32-.4.58-.7.79-.3.2-.63.35-1.01.43v.11c.42.02.8.13,1.17.35s.66.52.89.91.34.85.34,1.39c0,.58-.14,1.09-.43,1.55-.29.45-.71.81-1.26,1.07-.56.26-1.25.39-2.06.39h-4.66Zm2.31-6.34h1.71c.32,0,.6-.06.84-.17.25-.11.44-.27.59-.48.14-.21.22-.45.22-.74,0-.39-.14-.71-.42-.95-.28-.24-.67-.36-1.18-.36h-1.75v2.7Zm0,4.46h1.88c.64,0,1.11-.12,1.41-.37.29-.25.44-.58.44-.99,0-.3-.07-.57-.22-.8-.15-.23-.35-.41-.62-.54-.27-.13-.59-.2-.96-.2h-1.93v2.9Z"/></g><g><path class="f" d="m484.71,193.18h2.84l3,7.33h.13l3-7.33h2.84v10.91h-2.24v-7.1h-.09l-2.82,7.05h-1.52l-2.82-7.07h-.09v7.13h-2.24v-10.91Z"/><path class="f" d="m498.63,194.85c-.34,0-.63-.11-.87-.34-.24-.22-.36-.5-.36-.81s.12-.58.36-.81c.24-.23.53-.34.87-.34s.63.11.87.34c.24.23.36.5.36.81s-.12.59-.36.81c-.24.23-.53.34-.87.34Zm-1.14,9.24v-8.18h2.27v8.18h-2.27Z"/><path class="f" d="m504.37,204.24c-.84,0-1.56-.18-2.16-.54-.6-.36-1.06-.85-1.39-1.49-.32-.64-.48-1.37-.48-2.19s.16-1.57.49-2.21.79-1.13,1.39-1.49c.6-.36,1.31-.54,2.14-.54.71,0,1.34.13,1.88.39.54.26.96.62,1.27,1.09s.49,1.02.52,1.65h-2.14c-.06-.41-.22-.74-.48-.99-.26-.25-.59-.38-1.01-.38-.35,0-.66.09-.92.28-.26.19-.46.47-.61.83s-.22.8-.22,1.32.07.97.22,1.33c.14.37.35.64.61.84s.57.29.92.29c.26,0,.49-.05.7-.16s.38-.26.52-.47c.14-.21.23-.45.27-.74h2.14c-.04.62-.21,1.17-.51,1.65-.3.47-.72.84-1.25,1.11-.53.27-1.16.4-1.89.4Z"/><path class="f" d="m508.58,204.08v-8.18h2.2v1.43h.08c.15-.51.4-.89.75-1.15.35-.26.76-.39,1.21-.39.11,0,.24,0,.37.02.13.01.25.03.35.06v2.01c-.11-.03-.25-.06-.44-.08-.19-.02-.36-.04-.52-.04-.33,0-.63.07-.89.22s-.47.34-.62.6c-.15.25-.23.55-.23.88v4.63h-2.27Z"/><path class="f" d="m517.13,204.24c-.83,0-1.54-.18-2.14-.53s-1.07-.85-1.39-1.48c-.33-.63-.49-1.37-.49-2.21s.16-1.58.49-2.22c.33-.63.79-1.13,1.39-1.48.6-.35,1.32-.53,2.14-.53s1.54.18,2.14.53c.6.35,1.07.85,1.39,1.48.33.63.49,1.37.49,2.22s-.16,1.57-.49,2.21c-.33.63-.79,1.13-1.39,1.48s-1.32.53-2.14.53Zm.01-1.76c.38,0,.69-.11.94-.32s.44-.51.57-.88.19-.8.19-1.27-.06-.9-.19-1.27c-.13-.37-.32-.67-.57-.88s-.57-.33-.94-.33-.7.11-.96.33c-.26.22-.45.51-.58.88-.13.37-.19.8-.19,1.27s.06.9.19,1.27c.13.37.32.67.58.88.26.21.58.32.96.32Z"/><path class="f" d="m528.54,198.24l-2.08.13c-.04-.18-.11-.34-.23-.48s-.27-.26-.46-.35c-.19-.09-.42-.13-.68-.13-.35,0-.65.07-.89.22-.24.15-.36.34-.36.59,0,.2.08.36.23.5.16.14.42.24.8.33l1.48.3c.8.16,1.39.43,1.78.79s.59.84.59,1.43c0,.54-.16,1.01-.47,1.41-.31.41-.74.72-1.29.95s-1.17.34-1.88.34c-1.08,0-1.95-.23-2.59-.68-.64-.45-1.02-1.07-1.13-1.85l2.23-.12c.07.33.23.58.49.75.26.17.59.26,1,.26s.72-.08.96-.23.37-.35.37-.6c0-.21-.09-.38-.26-.51-.17-.13-.43-.24-.79-.31l-1.42-.28c-.8-.16-1.39-.44-1.78-.83-.39-.39-.58-.9-.58-1.51,0-.53.14-.98.43-1.36s.69-.67,1.21-.88,1.13-.31,1.83-.31c1.03,0,1.85.22,2.44.66.59.44.94,1.03,1.04,1.78Z"/><path class="f" d="m532.99,204.24c-.84,0-1.57-.17-2.17-.51s-1.07-.83-1.4-1.46c-.33-.63-.49-1.38-.49-2.24s.16-1.58.49-2.22c.33-.64.79-1.13,1.38-1.49.59-.35,1.29-.53,2.1-.53.54,0,1.04.09,1.51.26.47.17.88.43,1.22.78.35.34.62.78.82,1.3s.29,1.13.29,1.82v.62h-6.91v-1.41h4.77c0-.33-.07-.62-.21-.87-.14-.25-.34-.45-.59-.59-.25-.14-.54-.22-.87-.22s-.65.08-.91.24-.47.37-.62.63c-.15.26-.23.56-.23.88v1.34c0,.4.08.75.23,1.05.15.29.37.52.64.68.28.16.61.24.99.24.25,0,.48-.04.69-.11.21-.07.39-.18.54-.32.15-.14.26-.32.34-.52l2.1.14c-.11.5-.32.94-.65,1.32-.33.38-.75.67-1.27.87-.52.21-1.11.31-1.79.31Z"/><path class="f" d="m537.33,204.08v-8.18h2.2v1.43h.09c.15-.51.4-.89.75-1.15.35-.26.76-.39,1.21-.39.11,0,.24,0,.37.02.13.01.25.03.35.06v2.01c-.11-.03-.25-.06-.44-.08-.19-.02-.36-.04-.52-.04-.33,0-.63.07-.89.22-.26.14-.47.34-.62.6-.15.25-.23.55-.23.88v4.63h-2.27Z"/><path class="f" d="m550.44,195.9l-2.86,8.18h-2.56l-2.86-8.18h2.4l1.7,5.85h.08l1.69-5.85h2.4Z"/><path class="f" d="m551.84,194.85c-.34,0-.63-.11-.87-.34-.24-.22-.36-.5-.36-.81s.12-.58.36-.81c.24-.23.53-.34.87-.34s.63.11.87.34c.24.23.36.5.36.81s-.12.59-.36.81c-.24.23-.53.34-.87.34Zm-1.14,9.24v-8.18h2.27v8.18h-2.27Z"/><path class="f" d="m557.58,204.24c-.84,0-1.56-.18-2.16-.54-.6-.36-1.06-.85-1.38-1.49s-.48-1.37-.48-2.19.16-1.57.49-2.21c.33-.63.79-1.13,1.39-1.49.6-.36,1.31-.54,2.14-.54.71,0,1.34.13,1.88.39s.96.62,1.27,1.09.48,1.02.52,1.65h-2.14c-.06-.41-.22-.74-.48-.99-.26-.25-.59-.38-1.01-.38-.35,0-.66.09-.92.28-.26.19-.46.47-.61.83s-.22.8-.22,1.32.07.97.22,1.33c.14.37.35.64.61.84.26.19.57.29.92.29.26,0,.49-.05.7-.16.21-.11.38-.26.52-.47.14-.21.23-.45.27-.74h2.14c-.04.62-.21,1.17-.51,1.65-.3.47-.72.84-1.25,1.11-.53.27-1.16.4-1.89.4Z"/><path class="f" d="m565.52,204.24c-.84,0-1.57-.17-2.17-.51s-1.07-.83-1.4-1.46c-.33-.63-.49-1.38-.49-2.24s.16-1.58.49-2.22c.33-.64.79-1.13,1.38-1.49.59-.35,1.29-.53,2.1-.53.54,0,1.04.09,1.51.26.47.17.88.43,1.23.78s.62.78.82,1.3.29,1.13.29,1.82v.62h-6.91v-1.41h4.77c0-.33-.07-.62-.21-.87-.14-.25-.34-.45-.59-.59s-.54-.22-.87-.22-.65.08-.91.24-.47.37-.62.63c-.15.26-.23.56-.23.88v1.34c0,.4.08.75.23,1.05.15.29.36.52.64.68.28.16.61.24.99.24.25,0,.48-.04.69-.11.21-.07.39-.18.54-.32.15-.14.26-.32.34-.52l2.1.14c-.11.5-.32.94-.65,1.32-.33.38-.75.67-1.27.87-.52.21-1.11.31-1.79.31Z"/><path class="f" d="m582.1,196.99h-2.33c-.04-.3-.13-.57-.26-.81-.13-.24-.3-.44-.51-.6s-.44-.29-.71-.38c-.27-.09-.56-.13-.87-.13-.56,0-1.06.14-1.48.42-.42.28-.74.68-.97,1.21-.23.53-.35,1.17-.35,1.93s.12,1.43.35,1.96c.23.53.56.93.98,1.2.42.27.9.41,1.45.41.31,0,.6-.04.86-.12.26-.08.5-.2.71-.36s.38-.35.51-.58c.14-.23.23-.49.28-.78h2.33c-.06.51-.21.99-.45,1.46-.24.46-.56.88-.96,1.24-.4.36-.88.65-1.44.86-.56.21-1.18.32-1.88.32-.97,0-1.84-.22-2.61-.66-.76-.44-1.37-1.08-1.81-1.91-.44-.83-.66-1.84-.66-3.03s.22-2.2.67-3.04c.45-.83,1.05-1.47,1.82-1.91.77-.44,1.63-.66,2.59-.66.63,0,1.22.09,1.76.27.54.18,1.02.44,1.44.78.42.34.76.75,1.03,1.24.26.49.43,1.05.51,1.68Z"/></g><g><line class="b" x1="60.58" y1="49.75" x2="160.89" y2="78.85"/><polygon class="f" points="167.67 80.82 156.99 81.95 160.39 78.71 159.25 74.15 167.67 80.82"/></g><g><line class="b" x1="60.58" y1="119.29" x2="160.81" y2="95.13"/><polygon class="f" points="167.67 93.47 158.95 99.76 160.3 95.25 157.05 91.85 167.67 93.47"/></g><g><line class="b" x1="60.58" y1="126.2" x2="160.89" y2="155.3"/><polygon class="f" points="167.67 157.27 156.99 158.4 160.39 155.15 159.25 150.59 167.67 157.27"/></g><g><line class="b" x1="60.58" y1="195.74" x2="160.81" y2="171.57"/><polygon class="f" points="167.67 169.92 158.95 176.2 160.3 171.7 157.05 168.3 167.67 169.92"/></g><g><path class="f" d="m80.08,15.46v8.73h-1.06v-8.73h1.06Z"/><path class="f" d="m86.45,19.11l-.9.26c-.06-.15-.14-.3-.25-.44-.11-.14-.26-.26-.45-.36s-.43-.14-.72-.14c-.4,0-.73.09-1,.27-.27.18-.4.42-.4.7,0,.25.09.45.27.59.18.14.47.27.85.36l.97.24c.58.14,1.02.36,1.31.65.29.29.43.67.43,1.12,0,.38-.11.71-.32,1.01-.21.3-.51.53-.9.7-.38.17-.83.26-1.34.26-.67,0-1.22-.14-1.66-.43-.44-.29-.71-.71-.83-1.27l.95-.24c.09.35.26.62.52.79s.59.26,1,.26c.47,0,.84-.1,1.12-.3.28-.2.42-.44.42-.72,0-.23-.08-.42-.24-.57-.16-.15-.4-.27-.73-.35l-1.09-.26c-.6-.14-1.04-.36-1.32-.66s-.42-.68-.42-1.13c0-.37.1-.7.31-.98s.49-.51.86-.67c.36-.16.77-.24,1.23-.24.65,0,1.16.14,1.53.43.37.28.63.66.79,1.12Z"/><path class="f" d="m92.91,24.34c-.42,0-.79-.08-1.13-.24s-.61-.39-.81-.69c-.2-.3-.3-.66-.3-1.09,0-.38.07-.68.22-.91.15-.23.34-.42.59-.55.25-.13.52-.23.82-.3.3-.07.6-.12.91-.16.4-.05.72-.09.97-.12.25-.03.43-.07.55-.14.11-.07.17-.18.17-.34v-.03c0-.42-.11-.75-.34-.98-.23-.23-.57-.35-1.04-.35s-.86.1-1.13.31c-.27.21-.46.44-.58.67l-.95-.34c.17-.4.4-.71.68-.93.29-.22.6-.38.94-.47.34-.09.67-.13,1-.13.21,0,.45.02.73.07.27.05.54.15.8.3.26.15.47.39.64.69s.26.72.26,1.24v4.31h-1.01v-.89h-.05c-.07.14-.18.29-.34.46-.16.16-.37.3-.63.41s-.59.17-.97.17Zm.15-.9c.4,0,.73-.08,1.01-.23.27-.16.48-.36.62-.6s.21-.51.21-.78v-.92c-.04.05-.14.1-.28.14-.14.04-.31.08-.49.11s-.37.06-.54.08c-.17.02-.32.04-.42.05-.26.03-.5.09-.73.16-.23.08-.41.19-.55.34-.14.15-.21.35-.21.61,0,.35.13.61.39.79.26.18.59.27.99.27Z"/><path class="f" d="m102.15,19.11l-.9.26c-.06-.15-.14-.3-.25-.44-.11-.14-.26-.26-.45-.36s-.43-.14-.72-.14c-.4,0-.73.09-1,.27-.27.18-.4.42-.4.7,0,.25.09.45.27.59.18.14.47.27.85.36l.97.24c.58.14,1.02.36,1.31.65.29.29.43.67.43,1.12,0,.38-.11.71-.32,1.01-.21.3-.51.53-.9.7-.38.17-.83.26-1.34.26-.67,0-1.22-.14-1.66-.43-.44-.29-.71-.71-.83-1.27l.95-.24c.09.35.26.62.52.79s.59.26,1,.26c.47,0,.84-.1,1.12-.3.28-.2.42-.44.42-.72,0-.23-.08-.42-.24-.57-.16-.15-.4-.27-.73-.35l-1.09-.26c-.6-.14-1.04-.36-1.32-.66s-.42-.68-.42-1.13c0-.37.1-.7.31-.98s.49-.51.86-.67c.36-.16.77-.24,1.23-.24.65,0,1.16.14,1.53.43.37.28.63.66.79,1.12Z"/><path class="f" d="m108.18,19.11l-.9.26c-.06-.15-.14-.3-.25-.44-.11-.14-.26-.26-.45-.36s-.43-.14-.72-.14c-.4,0-.73.09-1,.27-.27.18-.4.42-.4.7,0,.25.09.45.27.59.18.14.47.27.85.36l.97.24c.58.14,1.02.36,1.31.65.29.29.43.67.43,1.12,0,.38-.11.71-.32,1.01-.21.3-.51.53-.9.7-.38.17-.83.26-1.34.26-.67,0-1.22-.14-1.66-.43-.44-.29-.71-.71-.83-1.27l.95-.24c.09.35.26.62.52.79s.59.26,1,.26c.47,0,.84-.1,1.12-.3.28-.2.42-.44.42-.72,0-.23-.08-.42-.24-.57-.16-.15-.4-.27-.73-.35l-1.09-.26c-.6-.14-1.04-.36-1.32-.66s-.42-.68-.42-1.13c0-.37.1-.7.31-.98s.49-.51.86-.67c.36-.16.77-.24,1.23-.24.65,0,1.16.14,1.53.43.37.28.63.66.79,1.12Z"/><path class="f" d="m110.09,16.55c-.2,0-.36-.07-.5-.2-.14-.13-.21-.29-.21-.48s.07-.35.21-.48c.14-.13.31-.2.5-.2s.36.07.51.2c.14.13.21.29.21.48s-.07.35-.21.48c-.14.13-.31.2-.51.2Zm-.51,7.64v-6.55h1.01v6.55h-1.01Z"/><path class="f" d="m114.83,26.78c-.49,0-.9-.06-1.25-.19-.35-.12-.64-.29-.87-.49-.23-.2-.42-.41-.55-.64l.8-.56c.09.12.21.26.35.41s.33.29.57.4c.24.12.56.17.96.17.53,0,.96-.13,1.31-.38.34-.26.52-.66.52-1.2v-1.33h-.08c-.07.12-.18.27-.31.44-.13.17-.33.33-.58.46s-.59.2-1.02.2c-.53,0-1-.12-1.42-.38s-.75-.61-.99-1.09c-.24-.48-.36-1.06-.36-1.74s.12-1.26.35-1.75.56-.88.98-1.16c.42-.27.91-.41,1.46-.41.43,0,.76.07,1.02.21s.44.3.58.48.24.32.31.44h.1v-1.04h.97v6.73c0,.56-.13,1.02-.38,1.37-.25.35-.6.61-1.02.78-.43.17-.9.25-1.43.25Zm-.03-3.6c.4,0,.74-.09,1.02-.28.28-.18.49-.45.63-.8s.22-.76.22-1.24-.07-.89-.21-1.25-.35-.64-.63-.85-.62-.31-1.03-.31-.78.11-1.06.32-.49.51-.64.87c-.14.36-.21.77-.21,1.21s.07.86.22,1.2c.14.35.36.62.64.82s.63.3,1.05.3Z"/><path class="f" d="m120.26,20.25v3.94h-1.01v-6.55h.97v1.02h.08c.15-.33.39-.6.7-.8s.72-.3,1.21-.3c.44,0,.83.09,1.16.27.33.18.59.45.78.82.18.37.28.83.28,1.38v4.16h-1.01v-4.09c0-.51-.13-.92-.4-1.2-.27-.29-.63-.43-1.1-.43-.32,0-.61.07-.86.21s-.45.34-.59.61-.22.59-.22.97Z"/><path class="f" d="m128.78,24.33c-.63,0-1.17-.14-1.63-.42s-.81-.67-1.05-1.18c-.25-.5-.37-1.09-.37-1.76s.12-1.26.37-1.77c.25-.51.59-.91,1.03-1.2.44-.29.96-.43,1.55-.43.34,0,.68.06,1.01.17.33.11.64.3.91.55.27.25.49.59.65,1.01.16.42.24.93.24,1.54v.43h-5.05v-.87h4.02c0-.37-.07-.7-.22-.99-.15-.29-.35-.52-.62-.69-.27-.17-.58-.25-.95-.25-.4,0-.75.1-1.04.3-.29.2-.52.45-.67.77-.16.32-.23.65-.23,1.01v.58c0,.49.09.91.26,1.26s.41.6.72.78c.31.18.66.27,1.07.27.26,0,.5-.04.72-.11s.4-.19.56-.34c.16-.15.28-.34.36-.57l.97.27c-.1.33-.27.62-.52.87-.24.25-.54.44-.9.58-.36.14-.75.21-1.2.21Z"/><path class="f" d="m135.26,24.33c-.55,0-1.03-.14-1.44-.42-.42-.28-.74-.67-.98-1.18-.24-.51-.35-1.11-.35-1.8s.12-1.28.35-1.79.56-.9.98-1.17.91-.41,1.46-.41c.43,0,.76.07,1.01.21.25.14.44.3.57.48s.23.32.31.44h.08v-3.22h1.01v8.73h-.97v-1.01h-.12c-.07.12-.18.27-.32.45-.14.18-.33.34-.58.48s-.59.21-1.01.21Zm.14-.9c.4,0,.74-.11,1.02-.32.28-.21.49-.51.63-.88.15-.38.22-.81.22-1.31s-.07-.92-.21-1.28c-.14-.37-.35-.65-.63-.86-.28-.21-.62-.31-1.03-.31s-.78.11-1.06.33-.49.51-.64.88c-.14.37-.21.79-.21,1.25s.07.89.22,1.27.36.68.64.9.63.33,1.05.33Z"/><path class="f" d="m145.98,17.64v.85h-3.39v-.85h3.39Zm-2.4-1.57h1.01v6.24c0,.28.04.5.13.64.08.14.19.23.32.28.13.05.27.07.42.07.11,0,.2,0,.27-.02.07-.01.13-.02.17-.03l.2.9c-.07.03-.16.05-.29.08-.12.03-.28.04-.46.04-.28,0-.56-.06-.83-.18s-.5-.31-.67-.56-.27-.57-.27-.95v-6.51Z"/><path class="f" d="m149.85,24.33c-.59,0-1.11-.14-1.55-.42-.44-.28-.79-.67-1.04-1.18s-.37-1.1-.37-1.77.12-1.28.37-1.79c.25-.51.6-.9,1.04-1.19.44-.28.96-.42,1.55-.42s1.11.14,1.55.42c.44.28.79.68,1.04,1.19.25.51.37,1.1.37,1.79s-.12,1.27-.37,1.77-.6.9-1.04,1.18c-.44.28-.96.42-1.55.42Zm0-.9c.45,0,.82-.12,1.11-.35s.5-.53.64-.91.21-.78.21-1.22-.07-.85-.21-1.22c-.14-.38-.35-.68-.64-.92s-.66-.35-1.11-.35-.82.12-1.11.35c-.29.23-.5.54-.64.92-.14.38-.21.79-.21,1.22s.07.84.21,1.22.35.68.64.91c.29.23.66.35,1.11.35Z"/></g><g><line class="b" x1="228" y1="75" x2="309.48" y2="51.69"/><polygon class="f" points="316.27 49.75 307.82 56.39 308.98 51.84 305.59 48.58 316.27 49.75"/></g><g><line class="b" x1="228" y1="86.82" x2="309.31" y2="100.41"/><polygon class="f" points="316.27 101.57 305.79 103.94 308.79 100.32 307.13 95.92 316.27 101.57"/></g><g><line class="b" x1="228" y1="101.57" x2="311.19" y2="181.87"/><polygon class="f" points="316.27 186.77 306.29 182.79 310.81 181.5 311.94 176.94 316.27 186.77"/></g><g><line class="b" x1="228" y1="148.62" x2="309.78" y2="113.5"/><polygon class="f" points="316.27 110.71 308.73 118.37 309.3 113.71 305.53 110.9 316.27 110.71"/></g><g><line class="b" x1="228" y1="163.12" x2="309.3" y2="149.76"/><polygon class="f" points="316.27 148.62 307.11 154.24 308.78 149.85 305.79 146.22 316.27 148.62"/></g><g><line class="b" x1="228" y1="175.72" x2="309.57" y2="202.95"/><polygon class="f" points="316.27 205.19 305.55 205.89 309.07 202.78 308.12 198.18 316.27 205.19"/></g><g><line class="b" x1="389.9" y1="46.75" x2="466.48" y2="46.75"/><polygon class="f" points="382.84 46.75 392.79 50.81 390.43 46.75 392.79 42.68 382.84 46.75"/><polygon class="f" points="473.54 46.75 463.59 50.81 465.95 46.75 463.59 42.68 473.54 46.75"/></g><g><line class="b" x1="389.09" y1="98.28" x2="467.29" y2="57.18"/><polygon class="f" points="382.84 101.57 393.54 100.54 389.56 98.04 389.76 93.34 382.84 101.57"/><polygon class="f" points="473.54 53.89 466.62 62.12 466.82 57.42 462.84 54.93 473.54 53.89"/></g><g><line class="b" x1="389.7" y1="146.92" x2="466.69" y2="127.89"/><polygon class="f" points="382.84 148.62 393.48 150.18 390.21 146.8 391.53 142.28 382.84 148.62"/><polygon class="f" points="473.54 126.2 464.86 132.53 466.17 128.02 462.91 124.64 473.54 126.2"/></g><g><line class="b" x1="389.9" y1="198.04" x2="466.48" y2="198.04"/><polygon class="f" points="382.84 198.04 392.79 202.11 390.43 198.04 392.79 193.98 382.84 198.04"/><polygon class="f" points="473.54 198.04 463.59 202.11 465.95 198.04 463.59 193.98 473.54 198.04"/></g><g><path class="f" d="m231.2,23.72v-8.73h1.06v3.89h4.65v-3.89h1.06v8.73h-1.06v-3.9h-4.65v3.9h-1.06Z"/><path class="f" d="m241.63,23.87c-.42,0-.79-.08-1.13-.24s-.61-.39-.8-.69c-.2-.3-.3-.66-.3-1.09,0-.38.07-.68.22-.91s.34-.42.59-.55c.25-.13.52-.23.82-.3.3-.07.6-.12.91-.16.4-.05.72-.09.97-.12.25-.03.43-.07.54-.14.12-.07.17-.18.17-.34v-.03c0-.42-.11-.75-.34-.98-.23-.23-.58-.35-1.04-.35s-.86.1-1.13.31c-.27.21-.46.44-.58.67l-.96-.34c.17-.4.4-.71.68-.93.29-.22.6-.38.94-.47.34-.09.67-.13,1-.13.21,0,.45.02.73.07s.54.15.8.3.47.39.64.69c.17.31.26.72.26,1.24v4.31h-1.01v-.89h-.05c-.07.14-.18.29-.34.46-.16.16-.37.3-.63.41-.26.11-.59.17-.97.17Zm.15-.9c.4,0,.73-.08,1.01-.23.27-.16.48-.36.62-.6s.21-.51.21-.78v-.92c-.04.05-.14.1-.28.14-.14.04-.31.08-.49.11-.19.03-.37.06-.54.08-.17.02-.32.04-.42.05-.26.03-.5.09-.73.16-.23.08-.41.19-.54.34-.14.15-.21.35-.21.61,0,.35.13.61.39.79.26.18.59.27.99.27Z"/><path class="f" d="m250.87,18.64l-.9.26c-.06-.15-.14-.3-.25-.44-.11-.14-.26-.26-.45-.36s-.43-.14-.72-.14c-.4,0-.73.09-1,.27-.27.18-.4.42-.4.7,0,.25.09.45.27.59.18.14.47.27.85.36l.97.24c.58.14,1.02.36,1.31.65.29.29.43.67.43,1.12,0,.38-.11.71-.32,1.01-.21.3-.51.53-.9.7-.38.17-.83.26-1.34.26-.67,0-1.22-.14-1.66-.43-.44-.29-.71-.71-.83-1.27l.96-.24c.09.35.26.62.52.79.25.18.59.26,1,.26.47,0,.84-.1,1.12-.3.28-.2.42-.44.42-.72,0-.23-.08-.42-.24-.57-.16-.15-.4-.27-.73-.35l-1.09-.26c-.6-.14-1.04-.36-1.32-.66-.28-.3-.42-.68-.42-1.13,0-.37.1-.7.31-.98s.49-.51.86-.67c.36-.16.77-.24,1.23-.24.65,0,1.16.14,1.53.43s.63.66.79,1.12Z"/><path class="f" d="m257.32,23.87c-.42,0-.79-.08-1.13-.24s-.61-.39-.81-.69-.3-.66-.3-1.09c0-.38.07-.68.22-.91.15-.23.34-.42.59-.55.25-.13.52-.23.82-.3.3-.07.6-.12.91-.16.4-.05.72-.09.97-.12.25-.03.43-.07.55-.14.11-.07.17-.18.17-.34v-.03c0-.42-.11-.75-.34-.98s-.57-.35-1.04-.35-.86.1-1.13.31c-.27.21-.46.44-.58.67l-.95-.34c.17-.4.4-.71.68-.93.29-.22.6-.38.94-.47.34-.09.67-.13,1-.13.21,0,.45.02.73.07.27.05.54.15.8.3.26.15.47.39.64.69.17.31.26.72.26,1.24v4.31h-1.01v-.89h-.05c-.07.14-.18.29-.34.46-.16.16-.37.3-.63.41-.26.11-.59.17-.97.17Zm.15-.9c.4,0,.73-.08,1.01-.23s.48-.36.62-.6.21-.51.21-.78v-.92c-.04.05-.14.1-.28.14-.14.04-.31.08-.5.11-.19.03-.37.06-.54.08-.17.02-.32.04-.42.05-.26.03-.5.09-.73.16-.23.08-.41.19-.55.34s-.21.35-.21.61c0,.35.13.61.39.79.26.18.59.27.99.27Z"/><path class="f" d="m266.56,18.64l-.9.26c-.06-.15-.14-.3-.25-.44-.11-.14-.26-.26-.45-.36s-.43-.14-.72-.14c-.4,0-.73.09-1,.27-.27.18-.4.42-.4.7,0,.25.09.45.27.59.18.14.47.27.85.36l.97.24c.58.14,1.02.36,1.31.65.29.29.43.67.43,1.12,0,.38-.11.71-.32,1.01-.21.3-.51.53-.9.7s-.83.26-1.34.26c-.67,0-1.22-.14-1.66-.43-.44-.29-.71-.71-.83-1.27l.95-.24c.09.35.26.62.52.79.25.18.59.26,1,.26.47,0,.84-.1,1.12-.3s.42-.44.42-.72c0-.23-.08-.42-.24-.57s-.4-.27-.73-.35l-1.09-.26c-.6-.14-1.04-.36-1.32-.66-.28-.3-.42-.68-.42-1.13,0-.37.1-.7.31-.98s.49-.51.86-.67c.36-.16.77-.24,1.23-.24.65,0,1.16.14,1.53.43.37.28.63.66.79,1.12Z"/><path class="f" d="m272.59,18.64l-.9.26c-.06-.15-.14-.3-.25-.44-.11-.14-.26-.26-.45-.36s-.43-.14-.72-.14c-.4,0-.73.09-1,.27-.27.18-.4.42-.4.7,0,.25.09.45.27.59.18.14.47.27.85.36l.97.24c.58.14,1.02.36,1.31.65.29.29.43.67.43,1.12,0,.38-.11.71-.32,1.01-.21.3-.51.53-.9.7-.38.17-.83.26-1.34.26-.67,0-1.22-.14-1.66-.43-.44-.29-.71-.71-.83-1.27l.96-.24c.09.35.26.62.52.79.25.18.59.26,1,.26.47,0,.84-.1,1.12-.3.28-.2.42-.44.42-.72,0-.23-.08-.42-.24-.57-.16-.15-.4-.27-.73-.35l-1.09-.26c-.6-.14-1.04-.36-1.32-.66-.28-.3-.42-.68-.42-1.13,0-.37.1-.7.31-.98s.49-.51.86-.67c.36-.16.77-.24,1.23-.24.65,0,1.16.14,1.53.43s.63.66.79,1.12Z"/><path class="f" d="m274.5,16.08c-.2,0-.36-.07-.5-.2-.14-.13-.21-.29-.21-.48s.07-.35.21-.48c.14-.13.31-.2.5-.2s.36.07.5.2c.14.13.21.29.21.48s-.07.35-.21.48c-.14.13-.31.2-.5.2Zm-.51,7.64v-6.55h1.01v6.55h-1.01Z"/><path class="f" d="m279.24,26.31c-.49,0-.9-.06-1.25-.19-.35-.12-.64-.29-.87-.49-.23-.2-.42-.41-.55-.64l.8-.56c.09.12.21.26.34.41.14.15.33.29.57.4.24.12.56.17.96.17.53,0,.96-.13,1.31-.38.34-.26.52-.66.52-1.2v-1.33h-.08c-.07.12-.18.27-.31.44-.13.17-.33.33-.58.46-.25.13-.59.2-1.02.2-.53,0-1-.12-1.42-.38s-.75-.61-.99-1.09c-.24-.48-.36-1.06-.36-1.74s.12-1.26.35-1.75c.24-.5.56-.88.98-1.16.42-.27.91-.41,1.46-.41.43,0,.76.07,1.02.21.25.14.45.3.58.48s.24.32.31.44h.1v-1.04h.97v6.73c0,.56-.13,1.02-.38,1.37-.25.35-.6.61-1.02.78-.43.17-.9.25-1.42.25Zm-.03-3.6c.4,0,.74-.09,1.02-.28s.49-.45.63-.8c.15-.35.22-.76.22-1.24s-.07-.89-.21-1.25c-.14-.36-.35-.64-.63-.85s-.62-.31-1.03-.31-.78.11-1.06.32c-.28.22-.49.51-.63.87-.14.36-.21.77-.21,1.21s.07.86.21,1.2c.14.35.36.62.64.82.28.2.63.3,1.05.3Z"/><path class="f" d="m284.67,19.78v3.94h-1.01v-6.55h.97v1.02h.08c.15-.33.39-.6.7-.8s.72-.3,1.21-.3c.44,0,.83.09,1.16.27.33.18.59.45.78.82.18.37.28.83.28,1.38v4.16h-1v-4.09c0-.51-.13-.92-.4-1.2-.27-.29-.63-.43-1.1-.43-.32,0-.61.07-.86.21-.25.14-.45.34-.59.61-.15.27-.22.59-.22.97Z"/><path class="f" d="m293.2,23.86c-.63,0-1.17-.14-1.63-.42s-.81-.67-1.05-1.18-.37-1.09-.37-1.76.12-1.26.37-1.77c.25-.51.59-.91,1.03-1.2.44-.29.96-.43,1.55-.43.34,0,.68.06,1.01.17.33.11.64.3.91.55.27.25.49.59.65,1.01.16.42.24.93.24,1.54v.43h-5.04v-.87h4.02c0-.37-.07-.7-.22-.99-.15-.29-.35-.52-.62-.69-.27-.17-.58-.25-.95-.25-.4,0-.75.1-1.04.3-.29.2-.52.45-.67.77-.16.32-.23.65-.23,1.01v.58c0,.49.09.91.26,1.26s.41.6.72.78c.31.18.66.27,1.07.27.26,0,.5-.04.72-.11.21-.08.4-.19.56-.34.16-.15.28-.34.36-.57l.97.27c-.1.33-.27.62-.52.87-.24.25-.54.44-.9.58s-.75.21-1.2.21Z"/><path class="f" d="m299.67,23.86c-.54,0-1.03-.14-1.44-.42-.42-.28-.74-.67-.98-1.18-.24-.51-.35-1.11-.35-1.8s.12-1.28.35-1.79c.24-.51.56-.9.98-1.17.42-.28.91-.41,1.46-.41.43,0,.76.07,1.01.21s.44.3.57.48c.13.18.23.32.31.44h.08v-3.22h1.01v8.73h-.97v-1.01h-.12c-.07.12-.18.27-.32.45-.14.18-.33.34-.58.48s-.59.21-1.01.21Zm.14-.9c.4,0,.74-.11,1.02-.32s.49-.51.63-.88c.15-.38.22-.81.22-1.31s-.07-.92-.21-1.28c-.14-.37-.35-.65-.63-.86-.28-.21-.62-.31-1.03-.31s-.78.11-1.06.33c-.28.22-.49.51-.63.88-.14.37-.21.79-.21,1.25s.07.89.21,1.27.36.68.64.9c.28.22.63.33,1.05.33Z"/></g><g><path class="f" d="m399.42,1.64v8.73h-1.06V1.64h1.06Z"/><path class="f" d="m405.79,5.28l-.9.26c-.06-.15-.14-.3-.25-.44-.11-.14-.26-.26-.45-.36s-.43-.14-.72-.14c-.4,0-.73.09-1,.27-.27.18-.4.42-.4.7,0,.25.09.45.27.59.18.14.47.27.85.36l.97.24c.58.14,1.02.36,1.31.65.29.29.43.67.43,1.12,0,.38-.11.71-.32,1.01-.21.3-.51.53-.9.7s-.83.26-1.34.26c-.67,0-1.22-.14-1.66-.43-.44-.29-.71-.71-.83-1.27l.95-.24c.09.35.26.62.52.79.25.18.59.26,1,.26.47,0,.84-.1,1.12-.3s.42-.44.42-.72c0-.23-.08-.42-.24-.57s-.4-.27-.73-.35l-1.09-.26c-.6-.14-1.04-.36-1.32-.66-.28-.3-.42-.68-.42-1.13,0-.37.1-.7.31-.98s.49-.51.86-.67c.36-.16.77-.24,1.23-.24.65,0,1.16.14,1.53.43.37.28.63.66.79,1.12Z"/><path class="f" d="m410.83,2.73c-.2,0-.36-.07-.5-.2-.14-.13-.21-.29-.21-.48s.07-.35.21-.48c.14-.13.31-.2.5-.2s.36.07.5.2c.14.13.21.29.21.48s-.07.35-.21.48c-.14.13-.31.2-.5.2Zm-.51,7.64V3.82h1.01v6.55h-1.01Z"/><path class="f" d="m412.93,10.36V3.82h.97v1.02h.08c.14-.35.36-.62.66-.82.3-.19.67-.29,1.09-.29s.79.1,1.08.29c.29.19.51.47.68.82h.07c.17-.34.42-.61.75-.81.34-.2.74-.3,1.21-.3.58,0,1.06.18,1.44.55s.56.93.56,1.7v4.38h-1v-4.38c0-.48-.13-.83-.4-1.04-.26-.21-.58-.31-.93-.31-.46,0-.82.14-1.07.42-.25.28-.38.63-.38,1.05v4.26h-1.02v-4.48c0-.37-.12-.67-.36-.9-.24-.23-.55-.34-.93-.34-.26,0-.5.07-.73.21-.23.14-.41.33-.54.58s-.21.53-.21.85v4.09h-1.01Z"/><path class="f" d="m423.12,12.82V3.82h.97v1.04h.12c.07-.11.18-.26.31-.44.13-.18.32-.34.57-.48.25-.14.59-.21,1.01-.21.55,0,1.04.14,1.46.41.42.28.75.67.98,1.17.24.51.35,1.1.35,1.79s-.12,1.29-.35,1.8c-.24.51-.56.9-.98,1.18-.42.28-.9.42-1.45.42-.42,0-.76-.07-1.01-.21s-.45-.3-.58-.48c-.14-.18-.24-.33-.32-.45h-.08v3.46h-1.01Zm.99-5.73c0,.49.07.93.22,1.31.15.38.36.67.63.88s.62.32,1.02.32.77-.11,1.05-.33c.28-.22.5-.52.64-.9s.22-.8.22-1.27-.07-.88-.21-1.25c-.14-.37-.35-.67-.64-.88-.28-.22-.64-.33-1.06-.33s-.75.1-1.03.31c-.28.21-.49.49-.63.86-.14.37-.21.8-.21,1.28Z"/><path class="f" d="m432.85,10.5c-.59,0-1.11-.14-1.55-.42s-.79-.67-1.04-1.18c-.25-.51-.37-1.1-.37-1.77s.12-1.28.37-1.79c.25-.51.6-.9,1.04-1.19s.96-.42,1.55-.42,1.11.14,1.55.42.79.68,1.04,1.19c.25.51.37,1.1.37,1.79s-.12,1.27-.37,1.77c-.25.51-.6.9-1.04,1.18s-.96.42-1.55.42Zm0-.9c.45,0,.82-.12,1.11-.35.29-.23.5-.53.64-.91.14-.38.21-.78.21-1.22s-.07-.85-.21-1.22c-.14-.38-.35-.68-.64-.92-.29-.23-.66-.35-1.11-.35s-.82.12-1.11.35-.5.54-.64.92c-.14.38-.21.79-.21,1.22s.07.84.21,1.22c.14.38.35.68.64.91s.66.35,1.11.35Z"/><path class="f" d="m437.11,10.36V3.82h.97v.99h.07c.12-.32.33-.59.65-.79s.67-.3,1.06-.3c.07,0,.17,0,.28,0,.11,0,.19,0,.25.01v1.02s-.11-.02-.23-.04c-.12-.02-.25-.03-.38-.03-.32,0-.6.07-.85.2-.25.13-.44.31-.59.55s-.21.5-.21.79v4.14h-1.01Z"/><path class="f" d="m444.59,3.82v.85h-3.39v-.85h3.39Zm-2.4-1.57h1v6.24c0,.28.04.5.13.64s.19.23.32.28.27.07.42.07c.11,0,.2,0,.27-.02.07-.01.13-.02.17-.03l.21.9c-.07.03-.16.05-.29.08-.12.03-.28.04-.46.04-.28,0-.56-.06-.83-.18s-.5-.31-.67-.56-.27-.57-.27-.95V2.25Z"/><path class="f" d="m448.55,10.5c-.63,0-1.17-.14-1.63-.42s-.81-.67-1.05-1.18-.37-1.09-.37-1.76.12-1.26.37-1.77c.25-.51.59-.91,1.03-1.2.44-.29.96-.43,1.55-.43.34,0,.68.06,1.01.17.33.11.64.3.91.55.27.25.49.59.65,1.01.16.42.24.93.24,1.54v.43h-5.04v-.87h4.02c0-.37-.07-.7-.22-.99-.15-.29-.35-.52-.62-.69-.27-.17-.58-.25-.95-.25-.4,0-.75.1-1.04.3-.29.2-.52.45-.67.77-.16.32-.23.65-.23,1.01v.58c0,.49.09.91.26,1.26s.41.6.72.78c.31.18.66.27,1.07.27.26,0,.5-.04.72-.11.21-.08.4-.19.56-.34.16-.15.28-.34.36-.57l.97.27c-.1.33-.27.62-.52.87-.24.25-.54.44-.9.58s-.75.21-1.2.21Z"/><path class="f" d="m455.02,10.5c-.54,0-1.03-.14-1.44-.42-.42-.28-.74-.67-.98-1.18-.24-.51-.35-1.11-.35-1.8s.12-1.28.35-1.79c.24-.51.56-.9.98-1.17.42-.28.91-.41,1.46-.41.43,0,.76.07,1.01.21s.44.3.57.48c.13.18.23.32.31.44h.08V1.64h1.01v8.73h-.97v-1.01h-.12c-.07.12-.18.27-.32.45-.14.18-.33.34-.58.48s-.59.21-1.01.21Zm.14-.9c.4,0,.74-.11,1.02-.32s.49-.51.63-.88c.15-.38.22-.81.22-1.31s-.07-.92-.21-1.28c-.14-.37-.35-.65-.63-.86-.28-.21-.62-.31-1.03-.31s-.78.11-1.06.33c-.28.22-.49.51-.63.88-.14.37-.21.79-.21,1.25s.07.89.21,1.27.36.68.64.9c.28.22.63.33,1.05.33Z"/><path class="f" d="m397.46,24.92c-.42,0-.79-.08-1.13-.24s-.61-.39-.81-.69-.3-.66-.3-1.09c0-.38.07-.68.22-.91.15-.23.34-.42.59-.55.25-.13.52-.23.82-.3.3-.07.6-.12.91-.16.4-.05.72-.09.97-.12.25-.03.43-.07.55-.14.11-.07.17-.18.17-.34v-.03c0-.42-.11-.75-.34-.98s-.57-.35-1.04-.35-.86.1-1.13.31c-.27.21-.46.44-.58.67l-.95-.34c.17-.4.4-.71.68-.93.29-.22.6-.38.94-.47.34-.09.67-.13,1-.13.21,0,.45.02.73.07.27.05.54.15.8.3.26.15.47.39.64.69.17.31.26.72.26,1.24v4.31h-1.01v-.89h-.05c-.07.14-.18.29-.34.46-.16.16-.37.3-.63.41-.26.11-.59.17-.97.17Zm.15-.9c.4,0,.73-.08,1.01-.23s.48-.36.62-.6.21-.51.21-.78v-.92c-.04.05-.14.1-.28.14-.14.04-.31.08-.5.11-.19.03-.37.06-.54.08-.17.02-.32.04-.42.05-.26.03-.5.09-.73.16-.23.08-.41.19-.55.34s-.21.35-.21.61c0,.35.13.61.39.79.26.18.59.27.99.27Z"/><path class="f" d="m403.06,20.83v3.94h-1.01v-6.55h.97v1.02h.08c.15-.33.39-.6.7-.8s.72-.3,1.21-.3c.44,0,.83.09,1.16.27.33.18.59.45.78.82.18.37.28.83.28,1.38v4.16h-1v-4.09c0-.51-.13-.92-.4-1.2-.27-.29-.63-.43-1.1-.43-.32,0-.61.07-.86.21-.25.14-.45.34-.59.61-.15.27-.22.59-.22.97Z"/><path class="f" d="m411.31,24.9c-.55,0-1.03-.14-1.45-.42-.42-.28-.74-.67-.98-1.18-.24-.51-.35-1.11-.35-1.8s.12-1.28.35-1.79c.24-.51.56-.9.98-1.17.42-.28.91-.41,1.46-.41.43,0,.76.07,1.01.21.25.14.44.3.57.48.13.18.24.32.31.44h.08v-3.22h1.01v8.73h-.97v-1.01h-.12c-.07.12-.18.27-.32.45-.14.18-.33.34-.58.48s-.59.21-1.01.21Zm.14-.9c.4,0,.74-.11,1.02-.32.28-.21.49-.51.63-.88.14-.38.22-.81.22-1.31s-.07-.92-.21-1.28c-.14-.37-.35-.65-.63-.86-.28-.21-.62-.31-1.03-.31s-.78.11-1.06.33c-.28.22-.5.51-.64.88-.14.37-.21.79-.21,1.25s.07.89.22,1.27.36.68.64.9c.28.22.63.33,1.05.33Z"/><path class="f" d="m423.31,22.09v-3.87h1.01v6.55h-1.01v-1.11h-.07c-.15.33-.39.61-.72.85-.32.23-.73.35-1.23.35-.41,0-.77-.09-1.09-.27-.32-.18-.57-.45-.75-.82-.18-.37-.27-.83-.27-1.38v-4.16h1.01v4.09c0,.48.13.86.4,1.14s.61.43,1.03.43c.25,0,.5-.06.76-.19s.48-.32.66-.59.27-.6.27-1.01Z"/><path class="f" d="m430.55,19.68l-.9.26c-.06-.15-.14-.3-.25-.44-.11-.14-.26-.26-.45-.36s-.43-.14-.72-.14c-.4,0-.73.09-1,.27-.27.18-.4.42-.4.7,0,.25.09.45.27.59.18.14.47.27.85.36l.97.24c.58.14,1.02.36,1.31.65.29.29.43.67.43,1.12,0,.38-.11.71-.32,1.01-.21.3-.51.53-.9.7-.38.17-.83.26-1.34.26-.67,0-1.22-.14-1.66-.43-.44-.29-.71-.71-.83-1.27l.96-.24c.09.35.26.62.52.79.25.18.59.26,1,.26.47,0,.84-.1,1.12-.3.28-.2.42-.44.42-.72,0-.23-.08-.42-.24-.57-.16-.15-.4-.27-.73-.35l-1.09-.26c-.6-.14-1.04-.36-1.32-.66-.28-.3-.42-.68-.42-1.13,0-.37.1-.7.31-.98s.49-.51.86-.67c.36-.16.77-.24,1.23-.24.65,0,1.16.14,1.53.43s.63.66.79,1.12Z"/><path class="f" d="m434.69,24.9c-.63,0-1.17-.14-1.63-.42s-.81-.67-1.05-1.18c-.25-.5-.37-1.09-.37-1.76s.12-1.26.37-1.77c.25-.51.59-.91,1.03-1.2.44-.29.96-.43,1.55-.43.34,0,.68.06,1.01.17.33.11.63.3.91.55.27.25.49.59.65,1.01.16.42.24.93.24,1.54v.43h-5.05v-.87h4.02c0-.37-.07-.7-.22-.99-.15-.29-.35-.52-.62-.69-.27-.17-.58-.25-.95-.25-.4,0-.75.1-1.04.3-.29.2-.51.45-.67.77-.16.32-.23.65-.23,1.01v.58c0,.49.09.91.26,1.26s.41.6.72.78c.31.18.66.27,1.07.27.26,0,.5-.04.72-.11.21-.08.4-.19.56-.34.16-.15.28-.34.36-.57l.97.27c-.1.33-.27.62-.52.87s-.54.44-.89.58c-.36.14-.75.21-1.2.21Z"/><path class="f" d="m441.17,24.9c-.55,0-1.03-.14-1.45-.42-.42-.28-.74-.67-.98-1.18-.24-.51-.35-1.11-.35-1.8s.12-1.28.35-1.79c.24-.51.56-.9.98-1.17.42-.28.91-.41,1.46-.41.43,0,.76.07,1.01.21.25.14.44.3.57.48.13.18.24.32.31.44h.08v-3.22h1.01v8.73h-.97v-1.01h-.12c-.07.12-.18.27-.32.45-.14.18-.33.34-.58.48s-.59.21-1.01.21Zm.14-.9c.4,0,.74-.11,1.02-.32.28-.21.49-.51.63-.88.14-.38.22-.81.22-1.31s-.07-.92-.21-1.28c-.14-.37-.35-.65-.63-.86-.28-.21-.62-.31-1.03-.31s-.78.11-1.06.33c-.28.22-.5.51-.64.88-.14.37-.21.79-.21,1.25s.07.89.22,1.27.36.68.64.9c.28.22.63.33,1.05.33Z"/><path class="f" d="m449.18,24.76v-8.73h1.01v3.22h.09c.07-.11.18-.26.31-.44s.32-.34.57-.48c.25-.14.59-.21,1.01-.21.55,0,1.04.14,1.46.41.42.28.75.67.98,1.17.24.51.35,1.1.35,1.79s-.12,1.29-.35,1.8c-.24.51-.56.9-.98,1.18-.42.28-.9.42-1.45.42-.42,0-.76-.07-1.01-.21s-.45-.3-.58-.48c-.14-.18-.24-.33-.31-.45h-.12v1.01h-.97Zm.99-3.27c0,.49.07.93.22,1.31.15.38.36.67.64.88.28.21.62.32,1.02.32s.77-.11,1.05-.33c.28-.22.5-.52.64-.9s.22-.8.22-1.27-.07-.88-.21-1.25c-.14-.37-.35-.67-.63-.88-.28-.22-.64-.33-1.06-.33s-.75.1-1.03.31c-.28.21-.49.49-.63.86-.14.37-.21.8-.21,1.28Z"/><path class="f" d="m456.66,27.22c-.17,0-.32-.01-.46-.04-.13-.03-.23-.05-.28-.08l.26-.89c.24.06.46.09.65.07s.35-.1.5-.25c.15-.15.28-.39.4-.72l.19-.51-2.42-6.58h1.09l1.81,5.22h.07l1.81-5.22h1.09l-2.78,7.5c-.12.34-.28.62-.46.84-.18.22-.4.39-.64.5-.24.11-.52.16-.82.16Z"/></g></svg>